<?xml version="1.0" standalone="no"?><!-- Generator: Gravit.io --><svg xmlns="http://www.w3.org/2000/svg" xmlns:xlink="http://www.w3.org/1999/xlink" style="isolation:isolate" viewBox="0 0 800 350" width="800" height="350"><defs><clipPath id="_clipPath_Q9lTRazy4c4Sq0Aoqa7n0CLZfgYWeWNv"><rect width="800" height="350"/></clipPath></defs><g clip-path="url(#_clipPath_Q9lTRazy4c4Sq0Aoqa7n0CLZfgYWeWNv)"><line x1="54.104" y1="196.207" x2="718.733" y2="196.207" vector-effect="non-scaling-stroke" stroke-width="2" stroke="rgb(0,0,0)" stroke-linejoin="miter" stroke-linecap="square" stroke-miterlimit="3"/><line x1="271.697" y1="274.207" x2="394.755" y2="274.207" vector-effect="non-scaling-stroke" stroke-width="2" stroke="rgb(0,0,0)" stroke-linejoin="miter" stroke-linecap="square" stroke-miterlimit="3"/><line x1="242.575" y1="106" x2="311.92" y2="106" vector-effect="non-scaling-stroke" stroke-width="2" stroke="rgb(0,0,0)" stroke-linejoin="miter" stroke-linecap="square" stroke-miterlimit="3"/><line x1="271.697" y1="274.207" x2="243.726" y2="196.207" vector-effect="non-scaling-stroke" stroke-width="2" stroke="rgb(0,0,0)" stroke-linejoin="miter" stroke-linecap="square" stroke-miterlimit="3"/><line x1="394.925" y1="274.207" x2="424.104" y2="196.207" vector-effect="non-scaling-stroke" stroke-width="2" stroke="rgb(0,0,0)" stroke-linejoin="miter" stroke-linecap="square" stroke-miterlimit="3"/><line x1="180.896" y1="196.207" x2="242.49" y2="106" vector-effect="non-scaling-stroke" stroke-width="2" stroke="rgb(0,0,0)" stroke-linejoin="miter" stroke-linecap="square" stroke-miterlimit="3"/><g id="Bmaster"><path d="M 675.78 132 L 760.428 132 C 764.664 132 768.104 135.44 768.104 139.676 L 768.104 161.324 C 768.104 165.56 764.664 169 760.428 169 L 675.78 169 C 671.543 169 668.104 165.56 668.104 161.324 L 668.104 139.676 C 668.104 135.44 671.543 132 675.78 132 Z" style="stroke:none;fill:#9FC4FF;stroke-miterlimit:10;"/><path d="M 675.78 132 L 760.428 132 C 764.664 132 768.104 135.44 768.104 139.676 L 768.104 161.324 C 768.104 165.56 764.664 169 760.428 169 L 675.78 169 C 671.543 169 668.104 165.56 668.104 161.324 L 668.104 139.676 C 668.104 135.44 671.543 132 675.78 132 Z" style="fill:none;stroke:#000000;stroke-width:1.6855342301554246;stroke-linecap:square;stroke-miterlimit:3;"/><path d=" M 693.321 152.28 L 693.321 157.759 L 690.343 157.759 L 690.343 151.382 L 690.343 151.382 Q 690.343 150.2 689.947 149.609 L 689.947 149.609 L 689.947 149.609 Q 689.552 149.019 688.702 149.019 L 688.702 149.019 L 688.702 149.019 Q 687.56 149.019 687.042 149.858 L 687.042 149.858 L 687.042 149.858 Q 686.525 150.698 686.525 152.622 L 686.525 152.622 L 686.525 157.759 L 683.546 157.759 L 683.546 146.841 L 685.821 146.841 L 686.222 148.237 L 686.388 148.237 L 686.388 148.237 Q 686.827 147.485 687.657 147.061 L 687.657 147.061 L 687.657 147.061 Q 688.487 146.636 689.562 146.636 L 689.562 146.636 L 689.562 146.636 Q 692.013 146.636 692.882 148.237 L 692.882 148.237 L 693.146 148.237 L 693.146 148.237 Q 693.585 147.476 694.44 147.056 L 694.44 147.056 L 694.44 147.056 Q 695.294 146.636 696.368 146.636 L 696.368 146.636 L 696.368 146.636 Q 698.224 146.636 699.176 147.588 L 699.176 147.588 L 699.176 147.588 Q 700.128 148.54 700.128 150.64 L 700.128 150.64 L 700.128 157.759 L 697.14 157.759 L 697.14 151.382 L 697.14 151.382 Q 697.14 150.2 696.744 149.609 L 696.744 149.609 L 696.744 149.609 Q 696.349 149.019 695.499 149.019 L 695.499 149.019 L 695.499 149.019 Q 694.405 149.019 693.863 149.8 L 693.863 149.8 L 693.863 149.8 Q 693.321 150.581 693.321 152.28 L 693.321 152.28 Z  M 712.198 157.759 L 710.118 157.759 L 709.542 156.274 L 709.464 156.274 L 709.464 156.274 Q 708.712 157.222 707.916 157.588 L 707.916 157.588 L 707.916 157.588 Q 707.12 157.954 705.841 157.954 L 705.841 157.954 L 705.841 157.954 Q 704.269 157.954 703.365 157.056 L 703.365 157.056 L 703.365 157.056 Q 702.462 156.157 702.462 154.497 L 702.462 154.497 L 702.462 154.497 Q 702.462 152.759 703.678 151.934 L 703.678 151.934 L 703.678 151.934 Q 704.894 151.108 707.345 151.021 L 707.345 151.021 L 709.239 150.962 L 709.239 150.483 L 709.239 150.483 Q 709.239 148.823 707.54 148.823 L 707.54 148.823 L 707.54 148.823 Q 706.232 148.823 704.464 149.614 L 704.464 149.614 L 703.478 147.603 L 703.478 147.603 Q 705.362 146.616 707.657 146.616 L 707.657 146.616 L 707.657 146.616 Q 709.855 146.616 711.027 147.573 L 711.027 147.573 L 711.027 147.573 Q 712.198 148.53 712.198 150.483 L 712.198 150.483 L 712.198 157.759 Z  M 709.239 153.599 L 709.239 152.7 L 708.087 152.739 L 708.087 152.739 Q 706.788 152.778 706.153 153.208 L 706.153 153.208 L 706.153 153.208 Q 705.519 153.638 705.519 154.517 L 705.519 154.517 L 705.519 154.517 Q 705.519 155.776 706.964 155.776 L 706.964 155.776 L 706.964 155.776 Q 707.999 155.776 708.619 155.181 L 708.619 155.181 L 708.619 155.181 Q 709.239 154.585 709.239 153.599 L 709.239 153.599 Z  M 722.882 154.517 L 722.882 154.517 L 722.882 154.517 Q 722.882 156.196 721.715 157.075 L 721.715 157.075 L 721.715 157.075 Q 720.548 157.954 718.224 157.954 L 718.224 157.954 L 718.224 157.954 Q 717.032 157.954 716.193 157.793 L 716.193 157.793 L 716.193 157.793 Q 715.353 157.632 714.62 157.319 L 714.62 157.319 L 714.62 154.858 L 714.62 154.858 Q 715.45 155.249 716.49 155.513 L 716.49 155.513 L 716.49 155.513 Q 717.53 155.776 718.321 155.776 L 718.321 155.776 L 718.321 155.776 Q 719.943 155.776 719.943 154.839 L 719.943 154.839 L 719.943 154.839 Q 719.943 154.487 719.728 154.268 L 719.728 154.268 L 719.728 154.268 Q 719.513 154.048 718.985 153.77 L 718.985 153.77 L 718.985 153.77 Q 718.458 153.491 717.579 153.12 L 717.579 153.12 L 717.579 153.12 Q 716.319 152.593 715.729 152.144 L 715.729 152.144 L 715.729 152.144 Q 715.138 151.694 714.869 151.113 L 714.869 151.113 L 714.869 151.113 Q 714.601 150.532 714.601 149.683 L 714.601 149.683 L 714.601 149.683 Q 714.601 148.228 715.729 147.432 L 715.729 147.432 L 715.729 147.432 Q 716.857 146.636 718.927 146.636 L 718.927 146.636 L 718.927 146.636 Q 720.9 146.636 722.765 147.495 L 722.765 147.495 L 721.866 149.644 L 721.866 149.644 Q 721.046 149.292 720.333 149.067 L 720.333 149.067 L 720.333 149.067 Q 719.62 148.843 718.878 148.843 L 718.878 148.843 L 718.878 148.843 Q 717.56 148.843 717.56 149.556 L 717.56 149.556 L 717.56 149.556 Q 717.56 149.956 717.985 150.249 L 717.985 150.249 L 717.985 150.249 Q 718.409 150.542 719.845 151.118 L 719.845 151.118 L 719.845 151.118 Q 721.124 151.636 721.72 152.085 L 721.72 152.085 L 721.72 152.085 Q 722.316 152.534 722.599 153.12 L 722.599 153.12 L 722.599 153.12 Q 722.882 153.706 722.882 154.517 Z  M 729.806 155.581 L 729.806 155.581 L 729.806 155.581 Q 730.587 155.581 731.681 155.239 L 731.681 155.239 L 731.681 157.456 L 731.681 157.456 Q 730.568 157.954 728.946 157.954 L 728.946 157.954 L 728.946 157.954 Q 727.159 157.954 726.344 157.051 L 726.344 157.051 L 726.344 157.051 Q 725.528 156.147 725.528 154.341 L 725.528 154.341 L 725.528 149.077 L 724.103 149.077 L 724.103 147.817 L 725.743 146.821 L 726.603 144.517 L 728.507 144.517 L 728.507 146.841 L 731.564 146.841 L 731.564 149.077 L 728.507 149.077 L 728.507 154.341 L 728.507 154.341 Q 728.507 154.976 728.863 155.278 L 728.863 155.278 L 728.863 155.278 Q 729.22 155.581 729.806 155.581 Z  M 738.409 148.755 L 738.409 148.755 L 738.409 148.755 Q 737.462 148.755 736.925 149.355 L 736.925 149.355 L 736.925 149.355 Q 736.388 149.956 736.31 151.06 L 736.31 151.06 L 740.489 151.06 L 740.489 151.06 Q 740.47 149.956 739.913 149.355 L 739.913 149.355 L 739.913 149.355 Q 739.357 148.755 738.409 148.755 Z  M 738.829 157.954 L 738.829 157.954 L 738.829 157.954 Q 736.193 157.954 734.708 156.499 L 734.708 156.499 L 734.708 156.499 Q 733.224 155.044 733.224 152.378 L 733.224 152.378 L 733.224 152.378 Q 733.224 149.634 734.596 148.135 L 734.596 148.135 L 734.596 148.135 Q 735.968 146.636 738.39 146.636 L 738.39 146.636 L 738.39 146.636 Q 740.704 146.636 741.993 147.954 L 741.993 147.954 L 741.993 147.954 Q 743.282 149.272 743.282 151.597 L 743.282 151.597 L 743.282 153.042 L 736.241 153.042 L 736.241 153.042 Q 736.29 154.312 736.993 155.024 L 736.993 155.024 L 736.993 155.024 Q 737.696 155.737 738.966 155.737 L 738.966 155.737 L 738.966 155.737 Q 739.952 155.737 740.831 155.532 L 740.831 155.532 L 740.831 155.532 Q 741.71 155.327 742.667 154.878 L 742.667 154.878 L 742.667 157.183 L 742.667 157.183 Q 741.886 157.573 740.997 157.764 L 740.997 157.764 L 740.997 157.764 Q 740.109 157.954 738.829 157.954 Z  M 751.798 146.636 L 751.798 146.636 L 751.798 146.636 Q 752.403 146.636 752.804 146.724 L 752.804 146.724 L 752.579 149.517 L 752.579 149.517 Q 752.218 149.419 751.7 149.419 L 751.7 149.419 L 751.7 149.419 Q 750.275 149.419 749.479 150.151 L 749.479 150.151 L 749.479 150.151 Q 748.683 150.884 748.683 152.202 L 748.683 152.202 L 748.683 157.759 L 745.704 157.759 L 745.704 146.841 L 747.96 146.841 L 748.4 148.677 L 748.546 148.677 L 748.546 148.677 Q 749.054 147.759 749.918 147.197 L 749.918 147.197 L 749.918 147.197 Q 750.782 146.636 751.798 146.636 Z " fill-rule="evenodd" fill="rgb(0,0,0)"/></g><g id="Btest"><path d="M 269.398 42 L 354.045 42 C 358.282 42 361.722 45.44 361.722 49.676 L 361.722 71.324 C 361.722 75.56 358.282 79 354.045 79 L 269.398 79 C 265.161 79 261.722 75.56 261.722 71.324 L 261.722 49.676 C 261.722 45.44 265.161 42 269.398 42 Z" style="stroke:none;fill:#D3F0C1;stroke-linecap:square;stroke-miterlimit:3;"/><path d="M 269.398 42 L 354.045 42 C 358.282 42 361.722 45.44 361.722 49.676 L 361.722 71.324 C 361.722 75.56 358.282 79 354.045 79 L 269.398 79 C 265.161 79 261.722 75.56 261.722 71.324 L 261.722 49.676 C 261.722 45.44 265.161 42 269.398 42 Z" style="fill:none;stroke:#000000;stroke-width:1.6855342301554246;stroke-linecap:square;stroke-miterlimit:3;"/><path d=" M 297.323 66.081 L 297.323 66.081 L 297.323 66.081 Q 298.104 66.081 299.198 65.739 L 299.198 65.739 L 299.198 67.956 L 299.198 67.956 Q 298.085 68.454 296.464 68.454 L 296.464 68.454 L 296.464 68.454 Q 294.677 68.454 293.861 67.551 L 293.861 67.551 L 293.861 67.551 Q 293.046 66.647 293.046 64.841 L 293.046 64.841 L 293.046 59.577 L 291.62 59.577 L 291.62 58.317 L 293.261 57.321 L 294.12 55.017 L 296.024 55.017 L 296.024 57.341 L 299.081 57.341 L 299.081 59.577 L 296.024 59.577 L 296.024 64.841 L 296.024 64.841 Q 296.024 65.476 296.381 65.778 L 296.381 65.778 L 296.381 65.778 Q 296.737 66.081 297.323 66.081 Z  M 305.927 59.255 L 305.927 59.255 L 305.927 59.255 Q 304.979 59.255 304.442 59.855 L 304.442 59.855 L 304.442 59.855 Q 303.905 60.456 303.827 61.56 L 303.827 61.56 L 308.007 61.56 L 308.007 61.56 Q 307.987 60.456 307.431 59.855 L 307.431 59.855 L 307.431 59.855 Q 306.874 59.255 305.927 59.255 Z  M 306.347 68.454 L 306.347 68.454 L 306.347 68.454 Q 303.71 68.454 302.225 66.999 L 302.225 66.999 L 302.225 66.999 Q 300.741 65.544 300.741 62.878 L 300.741 62.878 L 300.741 62.878 Q 300.741 60.134 302.113 58.635 L 302.113 58.635 L 302.113 58.635 Q 303.485 57.136 305.907 57.136 L 305.907 57.136 L 305.907 57.136 Q 308.222 57.136 309.511 58.454 L 309.511 58.454 L 309.511 58.454 Q 310.8 59.772 310.8 62.097 L 310.8 62.097 L 310.8 63.542 L 303.759 63.542 L 303.759 63.542 Q 303.807 64.812 304.511 65.524 L 304.511 65.524 L 304.511 65.524 Q 305.214 66.237 306.483 66.237 L 306.483 66.237 L 306.483 66.237 Q 307.47 66.237 308.348 66.032 L 308.348 66.032 L 308.348 66.032 Q 309.227 65.827 310.184 65.378 L 310.184 65.378 L 310.184 67.683 L 310.184 67.683 Q 309.403 68.073 308.515 68.264 L 308.515 68.264 L 308.515 68.264 Q 307.626 68.454 306.347 68.454 Z  M 320.839 65.017 L 320.839 65.017 L 320.839 65.017 Q 320.839 66.696 319.672 67.575 L 319.672 67.575 L 319.672 67.575 Q 318.505 68.454 316.181 68.454 L 316.181 68.454 L 316.181 68.454 Q 314.989 68.454 314.149 68.293 L 314.149 68.293 L 314.149 68.293 Q 313.309 68.132 312.577 67.819 L 312.577 67.819 L 312.577 65.358 L 312.577 65.358 Q 313.407 65.749 314.447 66.013 L 314.447 66.013 L 314.447 66.013 Q 315.487 66.276 316.278 66.276 L 316.278 66.276 L 316.278 66.276 Q 317.899 66.276 317.899 65.339 L 317.899 65.339 L 317.899 65.339 Q 317.899 64.987 317.684 64.768 L 317.684 64.768 L 317.684 64.768 Q 317.47 64.548 316.942 64.27 L 316.942 64.27 L 316.942 64.27 Q 316.415 63.991 315.536 63.62 L 315.536 63.62 L 315.536 63.62 Q 314.276 63.093 313.685 62.644 L 313.685 62.644 L 313.685 62.644 Q 313.095 62.194 312.826 61.613 L 312.826 61.613 L 312.826 61.613 Q 312.557 61.032 312.557 60.183 L 312.557 60.183 L 312.557 60.183 Q 312.557 58.728 313.685 57.932 L 313.685 57.932 L 313.685 57.932 Q 314.813 57.136 316.884 57.136 L 316.884 57.136 L 316.884 57.136 Q 318.856 57.136 320.722 57.995 L 320.722 57.995 L 319.823 60.144 L 319.823 60.144 Q 319.003 59.792 318.29 59.567 L 318.29 59.567 L 318.29 59.567 Q 317.577 59.343 316.835 59.343 L 316.835 59.343 L 316.835 59.343 Q 315.516 59.343 315.516 60.056 L 315.516 60.056 L 315.516 60.056 Q 315.516 60.456 315.941 60.749 L 315.941 60.749 L 315.941 60.749 Q 316.366 61.042 317.802 61.618 L 317.802 61.618 L 317.802 61.618 Q 319.081 62.136 319.677 62.585 L 319.677 62.585 L 319.677 62.585 Q 320.272 63.034 320.556 63.62 L 320.556 63.62 L 320.556 63.62 Q 320.839 64.206 320.839 65.017 Z  M 327.763 66.081 L 327.763 66.081 L 327.763 66.081 Q 328.544 66.081 329.638 65.739 L 329.638 65.739 L 329.638 67.956 L 329.638 67.956 Q 328.524 68.454 326.903 68.454 L 326.903 68.454 L 326.903 68.454 Q 325.116 68.454 324.301 67.551 L 324.301 67.551 L 324.301 67.551 Q 323.485 66.647 323.485 64.841 L 323.485 64.841 L 323.485 59.577 L 322.059 59.577 L 322.059 58.317 L 323.7 57.321 L 324.559 55.017 L 326.464 55.017 L 326.464 57.341 L 329.52 57.341 L 329.52 59.577 L 326.464 59.577 L 326.464 64.841 L 326.464 64.841 Q 326.464 65.476 326.82 65.778 L 326.82 65.778 L 326.82 65.778 Q 327.177 66.081 327.763 66.081 Z " fill-rule="evenodd" fill="rgb(0,0,0)"/></g><g id="Bfeat1"><path d="M 381.78 132 L 466.428 132 C 470.664 132 474.104 135.44 474.104 139.676 L 474.104 161.324 C 474.104 165.56 470.664 169 466.428 169 L 381.78 169 C 377.543 169 374.104 165.56 374.104 161.324 L 374.104 139.676 C 374.104 135.44 377.543 132 381.78 132 Z" style="stroke:none;fill:#D1D1D1;stroke-linecap:square;stroke-miterlimit:3;"/><path d="M 381.78 132 L 466.428 132 C 470.664 132 474.104 135.44 474.104 139.676 L 474.104 161.324 C 474.104 165.56 470.664 169 466.428 169 L 381.78 169 C 377.543 169 374.104 165.56 374.104 161.324 L 374.104 139.676 C 374.104 135.44 377.543 132 381.78 132 Z" style="fill:none;stroke:#000000;stroke-width:1.6855342301554246;stroke-linecap:square;stroke-miterlimit:3;"/><path d=" M 404.332 147.341 L 404.332 149.577 L 401.754 149.577 L 401.754 158.259 L 398.776 158.259 L 398.776 149.577 L 397.135 149.577 L 397.135 148.142 L 398.776 147.341 L 398.776 146.54 L 398.776 146.54 Q 398.776 144.675 399.694 143.815 L 399.694 143.815 L 399.694 143.815 Q 400.611 142.956 402.633 142.956 L 402.633 142.956 L 402.633 142.956 Q 404.176 142.956 405.377 143.415 L 405.377 143.415 L 404.615 145.603 L 404.615 145.603 Q 403.717 145.319 402.955 145.319 L 402.955 145.319 L 402.955 145.319 Q 402.32 145.319 402.037 145.695 L 402.037 145.695 L 402.037 145.695 Q 401.754 146.071 401.754 146.657 L 401.754 146.657 L 401.754 147.341 L 404.332 147.341 Z  M 410.563 149.255 L 410.563 149.255 L 410.563 149.255 Q 409.615 149.255 409.078 149.855 L 409.078 149.855 L 409.078 149.855 Q 408.541 150.456 408.463 151.56 L 408.463 151.56 L 412.643 151.56 L 412.643 151.56 Q 412.623 150.456 412.067 149.855 L 412.067 149.855 L 412.067 149.855 Q 411.51 149.255 410.563 149.255 Z  M 410.983 158.454 L 410.983 158.454 L 410.983 158.454 Q 408.346 158.454 406.861 156.999 L 406.861 156.999 L 406.861 156.999 Q 405.377 155.544 405.377 152.878 L 405.377 152.878 L 405.377 152.878 Q 405.377 150.134 406.749 148.635 L 406.749 148.635 L 406.749 148.635 Q 408.121 147.136 410.543 147.136 L 410.543 147.136 L 410.543 147.136 Q 412.858 147.136 414.147 148.454 L 414.147 148.454 L 414.147 148.454 Q 415.436 149.772 415.436 152.097 L 415.436 152.097 L 415.436 153.542 L 408.395 153.542 L 408.395 153.542 Q 408.444 154.812 409.147 155.524 L 409.147 155.524 L 409.147 155.524 Q 409.85 156.237 411.119 156.237 L 411.119 156.237 L 411.119 156.237 Q 412.106 156.237 412.985 156.032 L 412.985 156.032 L 412.985 156.032 Q 413.863 155.827 414.82 155.378 L 414.82 155.378 L 414.82 157.683 L 414.82 157.683 Q 414.039 158.073 413.151 158.264 L 413.151 158.264 L 413.151 158.264 Q 412.262 158.454 410.983 158.454 Z  M 426.871 158.259 L 424.791 158.259 L 424.215 156.774 L 424.137 156.774 L 424.137 156.774 Q 423.385 157.722 422.589 158.088 L 422.589 158.088 L 422.589 158.088 Q 421.793 158.454 420.514 158.454 L 420.514 158.454 L 420.514 158.454 Q 418.942 158.454 418.038 157.556 L 418.038 157.556 L 418.038 157.556 Q 417.135 156.657 417.135 154.997 L 417.135 154.997 L 417.135 154.997 Q 417.135 153.259 418.351 152.434 L 418.351 152.434 L 418.351 152.434 Q 419.567 151.608 422.018 151.521 L 422.018 151.521 L 423.912 151.462 L 423.912 150.983 L 423.912 150.983 Q 423.912 149.323 422.213 149.323 L 422.213 149.323 L 422.213 149.323 Q 420.904 149.323 419.137 150.114 L 419.137 150.114 L 418.151 148.103 L 418.151 148.103 Q 420.035 147.116 422.33 147.116 L 422.33 147.116 L 422.33 147.116 Q 424.527 147.116 425.699 148.073 L 425.699 148.073 L 425.699 148.073 Q 426.871 149.03 426.871 150.983 L 426.871 150.983 L 426.871 158.259 Z  M 423.912 154.099 L 423.912 153.2 L 422.76 153.239 L 422.76 153.239 Q 421.461 153.278 420.826 153.708 L 420.826 153.708 L 420.826 153.708 Q 420.192 154.138 420.192 155.017 L 420.192 155.017 L 420.192 155.017 Q 420.192 156.276 421.637 156.276 L 421.637 156.276 L 421.637 156.276 Q 422.672 156.276 423.292 155.681 L 423.292 155.681 L 423.292 155.681 Q 423.912 155.085 423.912 154.099 L 423.912 154.099 Z  M 434.537 156.081 L 434.537 156.081 L 434.537 156.081 Q 435.319 156.081 436.412 155.739 L 436.412 155.739 L 436.412 157.956 L 436.412 157.956 Q 435.299 158.454 433.678 158.454 L 433.678 158.454 L 433.678 158.454 Q 431.891 158.454 431.075 157.551 L 431.075 157.551 L 431.075 157.551 Q 430.26 156.647 430.26 154.841 L 430.26 154.841 L 430.26 149.577 L 428.834 149.577 L 428.834 148.317 L 430.475 147.321 L 431.334 145.017 L 433.238 145.017 L 433.238 147.341 L 436.295 147.341 L 436.295 149.577 L 433.238 149.577 L 433.238 154.841 L 433.238 154.841 Q 433.238 155.476 433.595 155.778 L 433.595 155.778 L 433.595 155.778 Q 433.951 156.081 434.537 156.081 Z  M 445.319 143.981 L 445.319 158.259 L 442.301 158.259 L 442.301 149.997 L 442.33 148.64 L 442.379 147.155 L 442.379 147.155 Q 441.627 147.907 441.334 148.142 L 441.334 148.142 L 439.694 149.46 L 438.238 147.644 L 442.838 143.981 L 445.319 143.981 Z " fill-rule="evenodd" fill="rgb(0,0,0)"/></g><g id="Bfeat2"><path d="M 561.987 132 L 646.635 132 C 650.871 132 654.311 135.44 654.311 139.676 L 654.311 161.324 C 654.311 165.56 650.871 169 646.635 169 L 561.987 169 C 557.751 169 554.311 165.56 554.311 161.324 L 554.311 139.676 C 554.311 135.44 557.751 132 561.987 132 Z" style="stroke:none;fill:#E5AEAE;stroke-linecap:square;stroke-miterlimit:3;"/><path d="M 561.987 132 L 646.635 132 C 650.871 132 654.311 135.44 654.311 139.676 L 654.311 161.324 C 654.311 165.56 650.871 169 646.635 169 L 561.987 169 C 557.751 169 554.311 165.56 554.311 161.324 L 554.311 139.676 C 554.311 135.44 557.751 132 561.987 132 Z" style="fill:none;stroke:#000000;stroke-width:1.6855342301554246;stroke-linecap:square;stroke-miterlimit:3;"/><path d=" M 584.539 147.341 L 584.539 149.577 L 581.961 149.577 L 581.961 158.259 L 578.983 158.259 L 578.983 149.577 L 577.342 149.577 L 577.342 148.142 L 578.983 147.341 L 578.983 146.54 L 578.983 146.54 Q 578.983 144.675 579.901 143.815 L 579.901 143.815 L 579.901 143.815 Q 580.819 142.956 582.84 142.956 L 582.84 142.956 L 582.84 142.956 Q 584.383 142.956 585.584 143.415 L 585.584 143.415 L 584.823 145.603 L 584.823 145.603 Q 583.924 145.319 583.163 145.319 L 583.163 145.319 L 583.163 145.319 Q 582.528 145.319 582.245 145.695 L 582.245 145.695 L 582.245 145.695 Q 581.961 146.071 581.961 146.657 L 581.961 146.657 L 581.961 147.341 L 584.539 147.341 Z  M 590.77 149.255 L 590.77 149.255 L 590.77 149.255 Q 589.823 149.255 589.286 149.855 L 589.286 149.855 L 589.286 149.855 Q 588.748 150.456 588.67 151.56 L 588.67 151.56 L 592.85 151.56 L 592.85 151.56 Q 592.831 150.456 592.274 149.855 L 592.274 149.855 L 592.274 149.855 Q 591.717 149.255 590.77 149.255 Z  M 591.19 158.454 L 591.19 158.454 L 591.19 158.454 Q 588.553 158.454 587.069 156.999 L 587.069 156.999 L 587.069 156.999 Q 585.584 155.544 585.584 152.878 L 585.584 152.878 L 585.584 152.878 Q 585.584 150.134 586.956 148.635 L 586.956 148.635 L 586.956 148.635 Q 588.329 147.136 590.75 147.136 L 590.75 147.136 L 590.75 147.136 Q 593.065 147.136 594.354 148.454 L 594.354 148.454 L 594.354 148.454 Q 595.643 149.772 595.643 152.097 L 595.643 152.097 L 595.643 153.542 L 588.602 153.542 L 588.602 153.542 Q 588.651 154.812 589.354 155.524 L 589.354 155.524 L 589.354 155.524 Q 590.057 156.237 591.327 156.237 L 591.327 156.237 L 591.327 156.237 Q 592.313 156.237 593.192 156.032 L 593.192 156.032 L 593.192 156.032 Q 594.071 155.827 595.028 155.378 L 595.028 155.378 L 595.028 157.683 L 595.028 157.683 Q 594.247 158.073 593.358 158.264 L 593.358 158.264 L 593.358 158.264 Q 592.469 158.454 591.19 158.454 Z  M 607.079 158.259 L 604.998 158.259 L 604.422 156.774 L 604.344 156.774 L 604.344 156.774 Q 603.592 157.722 602.796 158.088 L 602.796 158.088 L 602.796 158.088 Q 602 158.454 600.721 158.454 L 600.721 158.454 L 600.721 158.454 Q 599.149 158.454 598.246 157.556 L 598.246 157.556 L 598.246 157.556 Q 597.342 156.657 597.342 154.997 L 597.342 154.997 L 597.342 154.997 Q 597.342 153.259 598.558 152.434 L 598.558 152.434 L 598.558 152.434 Q 599.774 151.608 602.225 151.521 L 602.225 151.521 L 604.12 151.462 L 604.12 150.983 L 604.12 150.983 Q 604.12 149.323 602.42 149.323 L 602.42 149.323 L 602.42 149.323 Q 601.112 149.323 599.344 150.114 L 599.344 150.114 L 598.358 148.103 L 598.358 148.103 Q 600.243 147.116 602.538 147.116 L 602.538 147.116 L 602.538 147.116 Q 604.735 147.116 605.907 148.073 L 605.907 148.073 L 605.907 148.073 Q 607.079 149.03 607.079 150.983 L 607.079 150.983 L 607.079 158.259 Z  M 604.12 154.099 L 604.12 153.2 L 602.967 153.239 L 602.967 153.239 Q 601.668 153.278 601.034 153.708 L 601.034 153.708 L 601.034 153.708 Q 600.399 154.138 600.399 155.017 L 600.399 155.017 L 600.399 155.017 Q 600.399 156.276 601.844 156.276 L 601.844 156.276 L 601.844 156.276 Q 602.879 156.276 603.499 155.681 L 603.499 155.681 L 603.499 155.681 Q 604.12 155.085 604.12 154.099 L 604.12 154.099 Z  M 614.745 156.081 L 614.745 156.081 L 614.745 156.081 Q 615.526 156.081 616.62 155.739 L 616.62 155.739 L 616.62 157.956 L 616.62 157.956 Q 615.506 158.454 613.885 158.454 L 613.885 158.454 L 613.885 158.454 Q 612.098 158.454 611.283 157.551 L 611.283 157.551 L 611.283 157.551 Q 610.467 156.647 610.467 154.841 L 610.467 154.841 L 610.467 149.577 L 609.041 149.577 L 609.041 148.317 L 610.682 147.321 L 611.541 145.017 L 613.446 145.017 L 613.446 147.341 L 616.502 147.341 L 616.502 149.577 L 613.446 149.577 L 613.446 154.841 L 613.446 154.841 Q 613.446 155.476 613.802 155.778 L 613.802 155.778 L 613.802 155.778 Q 614.159 156.081 614.745 156.081 Z  M 628.045 155.72 L 628.045 158.259 L 618.065 158.259 L 618.065 156.159 L 621.649 152.536 L 621.649 152.536 Q 623.241 150.905 623.729 150.275 L 623.729 150.275 L 623.729 150.275 Q 624.217 149.646 624.432 149.108 L 624.432 149.108 L 624.432 149.108 Q 624.647 148.571 624.647 147.995 L 624.647 147.995 L 624.647 147.995 Q 624.647 147.136 624.173 146.716 L 624.173 146.716 L 624.173 146.716 Q 623.7 146.296 622.909 146.296 L 622.909 146.296 L 622.909 146.296 Q 622.079 146.296 621.297 146.677 L 621.297 146.677 L 621.297 146.677 Q 620.516 147.058 619.666 147.761 L 619.666 147.761 L 618.026 145.817 L 618.026 145.817 Q 619.081 144.919 619.774 144.548 L 619.774 144.548 L 619.774 144.548 Q 620.467 144.177 621.288 143.977 L 621.288 143.977 L 621.288 143.977 Q 622.108 143.776 623.123 143.776 L 623.123 143.776 L 623.123 143.776 Q 624.461 143.776 625.487 144.265 L 625.487 144.265 L 625.487 144.265 Q 626.512 144.753 627.079 145.632 L 627.079 145.632 L 627.079 145.632 Q 627.645 146.511 627.645 147.644 L 627.645 147.644 L 627.645 147.644 Q 627.645 148.63 627.298 149.494 L 627.298 149.494 L 627.298 149.494 Q 626.952 150.358 626.224 151.267 L 626.224 151.267 L 626.224 151.267 Q 625.497 152.175 623.661 153.854 L 623.661 153.854 L 621.825 155.583 L 621.825 155.72 L 628.045 155.72 Z " fill-rule="evenodd" fill="rgb(0,0,0)"/></g><g id="Bhead"><path d="M 681.993 95 L 754.214 95 C 758.155 95 761.354 98.199 761.354 102.139 L 761.354 124.861 C 761.354 128.801 758.155 132 754.214 132 L 681.993 132 C 678.053 132 674.854 128.801 674.854 124.861 L 674.854 102.139 C 674.854 98.199 678.053 95 681.993 95 Z" style="stroke:none;fill:#FFF3A5;stroke-linecap:square;stroke-miterlimit:3;"/><path d="M 681.993 95 L 754.214 95 C 758.155 95 761.354 98.199 761.354 102.139 L 761.354 124.861 C 761.354 128.801 758.155 132 754.214 132 L 681.993 132 C 678.053 132 674.854 128.801 674.854 124.861 L 674.854 102.139 C 674.854 98.199 678.053 95 681.993 95 Z" style="fill:none;stroke:#000000;stroke-width:1.6855342301554246;stroke-linecap:square;stroke-miterlimit:3;"/><path d=" M 703.046 107.709 L 703.046 121.986 L 700.028 121.986 L 700.028 115.824 L 694.374 115.824 L 694.374 121.986 L 691.347 121.986 L 691.347 107.709 L 694.374 107.709 L 694.374 113.304 L 700.028 113.304 L 700.028 107.709 L 703.046 107.709 Z  M 714.872 119.486 L 714.872 121.986 L 706.65 121.986 L 706.65 107.709 L 714.872 107.709 L 714.872 110.189 L 709.677 110.189 L 709.677 113.324 L 714.511 113.324 L 714.511 115.804 L 709.677 115.804 L 709.677 119.486 L 714.872 119.486 Z  M 729.853 121.986 L 726.591 121.986 L 725.556 118.588 L 720.351 118.588 L 719.316 121.986 L 716.054 121.986 L 721.093 107.65 L 724.794 107.65 L 729.853 121.986 Z  M 721.112 116.048 L 724.833 116.048 L 724.833 116.048 Q 723.398 111.429 723.217 110.824 L 723.217 110.824 L 723.217 110.824 Q 723.036 110.218 722.958 109.867 L 722.958 109.867 L 722.958 109.867 Q 722.636 111.117 721.112 116.048 L 721.112 116.048 Z  M 743.495 114.711 L 743.495 114.711 L 743.495 114.711 Q 743.495 118.236 741.488 120.111 L 741.488 120.111 L 741.488 120.111 Q 739.482 121.986 735.693 121.986 L 735.693 121.986 L 731.65 121.986 L 731.65 107.709 L 736.132 107.709 L 736.132 107.709 Q 739.628 107.709 741.562 109.554 L 741.562 109.554 L 741.562 109.554 Q 743.495 111.4 743.495 114.711 Z  M 740.351 114.789 L 740.351 114.789 L 740.351 114.789 Q 740.351 110.189 736.288 110.189 L 736.288 110.189 L 734.677 110.189 L 734.677 119.486 L 735.976 119.486 L 735.976 119.486 Q 740.351 119.486 740.351 114.789 Z " fill-rule="evenodd" fill="rgb(0,0,0)"/></g><g id="c1"><path d=" M 31.896 196.207 C 31.896 183.951 41.847 174 54.104 174 C 66.36 174 76.311 183.951 76.311 196.207 C 76.311 208.464 66.36 218.415 54.104 218.415 C 41.847 218.415 31.896 208.464 31.896 196.207 Z " fill="rgb(195,215,247)" vector-effect="non-scaling-stroke" stroke-width="2" stroke="rgb(0,0,0)" stroke-linejoin="miter" stroke-linecap="square" stroke-miterlimit="3"/><path d=" M 55.535 188.467 L 55.535 205.53 L 52.242 205.53 L 52.242 192.44 L 47.93 193.987 L 47.93 191.151 L 55.36 188.467 L 55.535 188.467 Z " fill="rgb(0,0,0)"/></g><g id="c2"><path d=" M 95.104 196.207 C 95.104 183.951 105.054 174 117.311 174 C 129.568 174 139.518 183.951 139.518 196.207 C 139.518 208.464 129.568 218.415 117.311 218.415 C 105.054 218.415 95.104 208.464 95.104 196.207 Z " fill="rgb(195,215,247)" vector-effect="non-scaling-stroke" stroke-width="2" stroke="rgb(0,0,0)" stroke-linejoin="miter" stroke-linecap="square" stroke-miterlimit="3"/><path d=" M 121.918 202.916 L 121.918 205.53 L 110.282 205.53 L 110.282 203.303 L 115.801 197.373 L 115.801 197.373 Q 116.446 196.67 116.891 196.096 L 116.891 196.096 L 116.891 196.096 Q 117.336 195.522 117.612 195.047 L 117.612 195.047 L 117.612 195.047 Q 117.887 194.573 118.01 194.162 L 118.01 194.162 L 118.01 194.162 Q 118.133 193.752 118.133 193.366 L 118.133 193.366 L 118.133 193.366 Q 118.133 192.791 117.969 192.346 L 117.969 192.346 L 117.969 192.346 Q 117.805 191.901 117.506 191.59 L 117.506 191.59 L 117.506 191.59 Q 117.207 191.28 116.791 191.116 L 116.791 191.116 L 116.791 191.116 Q 116.375 190.951 115.872 190.951 L 115.872 190.951 L 115.872 190.951 Q 114.524 190.951 113.862 191.701 L 113.862 191.701 L 113.862 191.701 Q 113.2 192.451 113.2 193.799 L 113.2 193.799 L 109.93 193.799 L 109.93 193.799 Q 109.93 192.662 110.364 191.649 L 110.364 191.649 L 110.364 191.649 Q 110.797 190.635 111.588 189.873 L 111.588 189.873 L 111.588 189.873 Q 112.379 189.112 113.498 188.672 L 113.498 188.672 L 113.498 188.672 Q 114.618 188.233 115.977 188.233 L 115.977 188.233 L 115.977 188.233 Q 117.278 188.233 118.28 188.596 L 118.28 188.596 L 118.28 188.596 Q 119.282 188.959 119.956 189.616 L 119.956 189.616 L 119.956 189.616 Q 120.629 190.272 120.981 191.192 L 120.981 191.192 L 120.981 191.192 Q 121.332 192.112 121.332 193.225 L 121.332 193.225 L 121.332 193.225 Q 121.332 194.069 121.069 194.836 L 121.069 194.836 L 121.069 194.836 Q 120.805 195.604 120.319 196.354 L 120.319 196.354 L 120.319 196.354 Q 119.832 197.104 119.153 197.883 L 119.153 197.883 L 119.153 197.883 Q 118.473 198.662 117.641 199.518 L 117.641 199.518 L 114.43 202.916 L 121.918 202.916 Z " fill="rgb(0,0,0)"/></g><g id="C3"><path d=" M 158.311 196.207 C 158.311 183.951 168.262 174 180.518 174 C 192.775 174 202.726 183.951 202.726 196.207 C 202.726 208.464 192.775 218.415 180.518 218.415 C 168.262 218.415 158.311 208.464 158.311 196.207 Z " fill="rgb(195,215,247)" vector-effect="non-scaling-stroke" stroke-width="2" stroke="rgb(0,0,0)" stroke-linejoin="miter" stroke-linecap="square" stroke-miterlimit="3"/><path d=" M 177.251 198.1 L 177.251 195.569 L 179.02 195.569 L 179.02 195.569 Q 180.356 195.569 181.001 194.895 L 181.001 194.895 L 181.001 194.895 Q 181.645 194.221 181.645 193.131 L 181.645 193.131 L 181.645 193.131 Q 181.645 192.627 181.499 192.211 L 181.499 192.211 L 181.499 192.211 Q 181.352 191.795 181.059 191.496 L 181.059 191.496 L 181.059 191.496 Q 180.766 191.198 180.315 191.033 L 180.315 191.033 L 180.315 191.033 Q 179.864 190.869 179.266 190.869 L 179.266 190.869 L 179.266 190.869 Q 178.774 190.869 178.346 191.01 L 178.346 191.01 L 178.346 191.01 Q 177.919 191.151 177.596 191.414 L 177.596 191.414 L 177.596 191.414 Q 177.274 191.678 177.087 192.053 L 177.087 192.053 L 177.087 192.053 Q 176.899 192.428 176.899 192.897 L 176.899 192.897 L 173.641 192.897 L 173.641 192.897 Q 173.641 191.854 174.069 190.998 L 174.069 190.998 L 174.069 190.998 Q 174.497 190.143 175.247 189.528 L 175.247 189.528 L 175.247 189.528 Q 175.997 188.912 177.01 188.573 L 177.01 188.573 L 177.01 188.573 Q 178.024 188.233 179.196 188.233 L 179.196 188.233 L 179.196 188.233 Q 180.462 188.233 181.516 188.543 L 181.516 188.543 L 181.516 188.543 Q 182.571 188.854 183.321 189.469 L 183.321 189.469 L 183.321 189.469 Q 184.071 190.084 184.487 190.992 L 184.487 190.992 L 184.487 190.992 Q 184.903 191.901 184.903 193.096 L 184.903 193.096 L 184.903 193.096 Q 184.903 193.647 184.739 194.18 L 184.739 194.18 L 184.739 194.18 Q 184.575 194.713 184.259 195.194 L 184.259 195.194 L 184.259 195.194 Q 183.942 195.674 183.473 196.078 L 183.473 196.078 L 183.473 196.078 Q 183.005 196.483 182.395 196.776 L 182.395 196.776 L 182.395 196.776 Q 183.11 197.033 183.632 197.432 L 183.632 197.432 L 183.632 197.432 Q 184.153 197.83 184.493 198.34 L 184.493 198.34 L 184.493 198.34 Q 184.833 198.85 184.997 199.459 L 184.997 199.459 L 184.997 199.459 Q 185.161 200.069 185.161 200.748 L 185.161 200.748 L 185.161 200.748 Q 185.161 201.944 184.704 202.881 L 184.704 202.881 L 184.704 202.881 Q 184.247 203.819 183.45 204.457 L 183.45 204.457 L 183.45 204.457 Q 182.653 205.096 181.557 205.43 L 181.557 205.43 L 181.557 205.43 Q 180.462 205.764 179.196 205.764 L 179.196 205.764 L 179.196 205.764 Q 178.106 205.764 177.069 205.465 L 177.069 205.465 L 177.069 205.465 Q 176.032 205.166 175.223 204.563 L 175.223 204.563 L 175.223 204.563 Q 174.415 203.959 173.928 203.045 L 173.928 203.045 L 173.928 203.045 Q 173.442 202.131 173.442 200.889 L 173.442 200.889 L 176.7 200.889 L 176.7 200.889 Q 176.7 201.381 176.887 201.797 L 176.887 201.797 L 176.887 201.797 Q 177.075 202.213 177.421 202.512 L 177.421 202.512 L 177.421 202.512 Q 177.766 202.811 178.235 202.981 L 178.235 202.981 L 178.235 202.981 Q 178.704 203.151 179.266 203.151 L 179.266 203.151 L 179.266 203.151 Q 180.509 203.151 181.212 202.494 L 181.212 202.494 L 181.212 202.494 Q 181.915 201.838 181.915 200.713 L 181.915 200.713 L 181.915 200.713 Q 181.915 200.022 181.716 199.53 L 181.716 199.53 L 181.716 199.53 Q 181.516 199.037 181.135 198.721 L 181.135 198.721 L 181.135 198.721 Q 180.755 198.405 180.221 198.252 L 180.221 198.252 L 180.221 198.252 Q 179.688 198.1 179.02 198.1 L 179.02 198.1 L 177.251 198.1 Z " fill="rgb(0,0,0)"/></g><g id="C4"><path d=" M 221.518 196.207 C 221.518 183.951 231.469 174 243.726 174 C 255.982 174 265.933 183.951 265.933 196.207 C 265.933 208.464 255.982 218.415 243.726 218.415 C 231.469 218.415 221.518 208.464 221.518 196.207 Z " fill="rgb(195,215,247)" vector-effect="non-scaling-stroke" stroke-width="2" stroke="rgb(0,0,0)" stroke-linejoin="miter" stroke-linecap="square" stroke-miterlimit="3"/><path d=" M 246.692 188.467 L 246.692 199.19 L 248.673 199.19 L 248.673 201.826 L 246.692 201.826 L 246.692 205.53 L 243.435 205.53 L 243.435 201.826 L 236.345 201.826 L 236.216 199.787 L 243.388 188.467 L 246.692 188.467 Z  M 243.118 193.412 L 239.415 199.19 L 243.435 199.19 L 243.435 192.85 L 243.118 193.412 Z " fill-rule="evenodd" fill="rgb(0,0,0)"/></g><g id="C5"><path d=" M 249.49 274.207 C 249.49 261.951 259.441 252 271.697 252 C 283.954 252 293.904 261.951 293.904 274.207 C 293.904 286.464 283.954 296.415 271.697 296.415 C 259.441 296.415 249.49 286.464 249.49 274.207 Z " fill="rgb(209,209,209)" vector-effect="non-scaling-stroke" stroke-width="2" stroke="rgb(0,0,0)" stroke-linejoin="miter" stroke-linecap="square" stroke-miterlimit="3"/><path d=" M 267.914 275.772 L 265.312 275.127 L 266.285 266.467 L 275.754 266.467 L 275.754 269.233 L 268.969 269.233 L 268.559 272.983 L 268.559 272.983 Q 268.922 272.772 269.59 272.549 L 269.59 272.549 L 269.59 272.549 Q 270.258 272.326 271.125 272.326 L 271.125 272.326 L 271.125 272.326 Q 272.355 272.326 273.322 272.719 L 273.322 272.719 L 273.322 272.719 Q 274.289 273.112 274.951 273.85 L 274.951 273.85 L 274.951 273.85 Q 275.613 274.588 275.965 275.655 L 275.965 275.655 L 275.965 275.655 Q 276.316 276.721 276.316 278.069 L 276.316 278.069 L 276.316 278.069 Q 276.316 279.217 275.976 280.248 L 275.976 280.248 L 275.976 280.248 Q 275.637 281.28 274.934 282.065 L 274.934 282.065 L 274.934 282.065 Q 274.23 282.85 273.164 283.307 L 273.164 283.307 L 273.164 283.307 Q 272.098 283.764 270.644 283.764 L 270.644 283.764 L 270.644 283.764 Q 269.543 283.764 268.517 283.436 L 268.517 283.436 L 268.517 283.436 Q 267.492 283.108 266.695 282.475 L 266.695 282.475 L 266.695 282.475 Q 265.898 281.842 265.4 280.922 L 265.4 280.922 L 265.4 280.922 Q 264.902 280.002 264.867 278.819 L 264.867 278.819 L 268.078 278.819 L 268.078 278.819 Q 268.195 279.932 268.881 280.541 L 268.881 280.541 L 268.881 280.541 Q 269.566 281.151 270.633 281.151 L 270.633 281.151 L 270.633 281.151 Q 271.289 281.151 271.752 280.905 L 271.752 280.905 L 271.752 280.905 Q 272.215 280.658 272.502 280.225 L 272.502 280.225 L 272.502 280.225 Q 272.789 279.791 272.924 279.194 L 272.924 279.194 L 272.924 279.194 Q 273.059 278.596 273.059 277.905 L 273.059 277.905 L 273.059 277.905 Q 273.059 277.225 272.889 276.657 L 272.889 276.657 L 272.889 276.657 Q 272.719 276.088 272.367 275.678 L 272.367 275.678 L 272.367 275.678 Q 272.016 275.268 271.488 275.045 L 271.488 275.045 L 271.488 275.045 Q 270.961 274.823 270.246 274.823 L 270.246 274.823 L 270.246 274.823 Q 269.766 274.823 269.414 274.905 L 269.414 274.905 L 269.414 274.905 Q 269.062 274.987 268.793 275.116 L 268.793 275.116 L 268.793 275.116 Q 268.523 275.244 268.312 275.414 L 268.312 275.414 L 268.312 275.414 Q 268.101 275.584 267.914 275.772 L 267.914 275.772 Z " fill="rgb(0,0,0)"/></g><g id="C6"><path d=" M 311.104 274.207 C 311.104 261.951 321.054 252 333.311 252 C 345.568 252 355.518 261.951 355.518 274.207 C 355.518 286.464 345.568 296.415 333.311 296.415 C 321.054 296.415 311.104 286.464 311.104 274.207 Z " fill="rgb(209,209,209)" vector-effect="non-scaling-stroke" stroke-width="2" stroke="rgb(0,0,0)" stroke-linejoin="miter" stroke-linecap="square" stroke-miterlimit="3"/><path d=" M 334.977 266.326 L 335.411 266.326 L 335.411 269.033 L 335.223 269.033 L 335.223 269.033 Q 333.934 269.033 332.944 269.373 L 332.944 269.373 L 332.944 269.373 Q 331.954 269.713 331.256 270.334 L 331.256 270.334 L 331.256 270.334 Q 330.559 270.955 330.155 271.823 L 330.155 271.823 L 330.155 271.823 Q 329.75 272.69 329.645 273.756 L 329.645 273.756 L 329.645 273.756 Q 329.914 273.463 330.266 273.176 L 330.266 273.176 L 330.266 273.176 Q 330.618 272.889 331.057 272.66 L 331.057 272.66 L 331.057 272.66 Q 331.497 272.432 332.012 272.291 L 332.012 272.291 L 332.012 272.291 Q 332.528 272.151 333.125 272.151 L 333.125 272.151 L 333.125 272.151 Q 334.344 272.151 335.252 272.614 L 335.252 272.614 L 335.252 272.614 Q 336.161 273.076 336.77 273.867 L 336.77 273.867 L 336.77 273.867 Q 337.379 274.658 337.678 275.707 L 337.678 275.707 L 337.678 275.707 Q 337.977 276.756 337.977 277.916 L 337.977 277.916 L 337.977 277.916 Q 337.977 279.158 337.579 280.225 L 337.579 280.225 L 337.579 280.225 Q 337.18 281.291 336.442 282.076 L 336.442 282.076 L 336.442 282.076 Q 335.704 282.862 334.649 283.313 L 334.649 283.313 L 334.649 283.313 Q 333.594 283.764 332.282 283.764 L 332.282 283.764 L 332.282 283.764 Q 330.911 283.764 329.809 283.254 L 329.809 283.254 L 329.809 283.254 Q 328.707 282.744 327.94 281.842 L 327.94 281.842 L 327.94 281.842 Q 327.172 280.94 326.756 279.703 L 326.756 279.703 L 326.756 279.703 Q 326.34 278.467 326.34 277.002 L 326.34 277.002 L 326.34 275.748 L 326.34 275.748 Q 326.34 273.721 326.891 271.992 L 326.891 271.992 L 326.891 271.992 Q 327.442 270.264 328.532 269.004 L 328.532 269.004 L 328.532 269.004 Q 329.622 267.744 331.239 267.035 L 331.239 267.035 L 331.239 267.035 Q 332.856 266.326 334.977 266.326 L 334.977 266.326 Z  M 332.176 274.764 L 332.176 274.764 L 332.176 274.764 Q 331.297 274.764 330.623 275.233 L 330.623 275.233 L 330.623 275.233 Q 329.95 275.701 329.61 276.44 L 329.61 276.44 L 329.61 277.401 L 329.61 277.401 Q 329.61 278.338 329.803 279.041 L 329.803 279.041 L 329.803 279.041 Q 329.997 279.744 330.348 280.207 L 330.348 280.207 L 330.348 280.207 Q 330.7 280.67 331.18 280.905 L 331.18 280.905 L 331.18 280.905 Q 331.661 281.139 332.223 281.139 L 332.223 281.139 L 332.223 281.139 Q 332.797 281.139 333.266 280.899 L 333.266 280.899 L 333.266 280.899 Q 333.735 280.658 334.063 280.237 L 334.063 280.237 L 334.063 280.237 Q 334.391 279.815 334.567 279.235 L 334.567 279.235 L 334.567 279.235 Q 334.743 278.655 334.743 277.963 L 334.743 277.963 L 334.743 277.963 Q 334.743 277.272 334.567 276.686 L 334.567 276.686 L 334.567 276.686 Q 334.391 276.1 334.063 275.672 L 334.063 275.672 L 334.063 275.672 Q 333.735 275.244 333.26 275.004 L 333.26 275.004 L 333.26 275.004 Q 332.786 274.764 332.176 274.764 Z " fill-rule="evenodd" fill="rgb(0,0,0)"/></g><g id="C7"><path d=" M 308.222 196.207 C 308.222 183.951 318.172 174 330.429 174 C 342.685 174 352.636 183.951 352.636 196.207 C 352.636 208.464 342.685 218.415 330.429 218.415 C 318.172 218.415 308.222 208.464 308.222 196.207 Z " fill="rgb(195,215,247)" vector-effect="non-scaling-stroke" stroke-width="2" stroke="rgb(0,0,0)" stroke-linejoin="miter" stroke-linecap="square" stroke-miterlimit="3"/><path d=" M 335.025 188.467 L 335.025 190.283 L 328.38 205.53 L 324.946 205.53 L 331.603 191.127 L 323.036 191.127 L 323.036 188.467 L 335.025 188.467 Z " fill="rgb(0,0,0)"/></g><g id="C8"><path d=" M 372.717 274.207 C 372.717 261.951 382.668 252 394.925 252 C 407.181 252 417.132 261.951 417.132 274.207 C 417.132 286.464 407.181 296.415 394.925 296.415 C 382.668 296.415 372.717 286.464 372.717 274.207 Z " fill="rgb(209,209,209)" vector-effect="non-scaling-stroke" stroke-width="2" stroke="rgb(0,0,0)" stroke-linejoin="miter" stroke-linecap="square" stroke-miterlimit="3"/><path d=" M 399.087 271.002 L 399.087 271.002 L 399.087 271.002 Q 399.087 272.244 398.46 273.211 L 398.46 273.211 L 398.46 273.211 Q 397.833 274.178 396.743 274.752 L 396.743 274.752 L 396.743 274.752 Q 397.985 275.338 398.718 276.393 L 398.718 276.393 L 398.718 276.393 Q 399.45 277.448 399.45 278.866 L 399.45 278.866 L 399.45 278.866 Q 399.45 280.073 399.011 280.987 L 399.011 280.987 L 399.011 280.987 Q 398.571 281.901 397.804 282.516 L 397.804 282.516 L 397.804 282.516 Q 397.036 283.131 395.993 283.448 L 395.993 283.448 L 395.993 283.448 Q 394.95 283.764 393.743 283.764 L 393.743 283.764 L 393.743 283.764 Q 392.524 283.764 391.476 283.448 L 391.476 283.448 L 391.476 283.448 Q 390.427 283.131 389.653 282.516 L 389.653 282.516 L 389.653 282.516 Q 388.88 281.901 388.44 280.987 L 388.44 280.987 L 388.44 280.987 Q 388.001 280.073 388.001 278.866 L 388.001 278.866 L 388.001 278.866 Q 388.001 278.162 388.194 277.535 L 388.194 277.535 L 388.194 277.535 Q 388.388 276.908 388.739 276.387 L 388.739 276.387 L 388.739 276.387 Q 389.091 275.866 389.589 275.45 L 389.589 275.45 L 389.589 275.45 Q 390.087 275.033 390.708 274.741 L 390.708 274.741 L 390.708 274.741 Q 389.618 274.178 388.997 273.211 L 388.997 273.211 L 388.997 273.211 Q 388.376 272.244 388.376 271.002 L 388.376 271.002 L 388.376 271.002 Q 388.376 269.842 388.774 268.957 L 388.774 268.957 L 388.774 268.957 Q 389.173 268.073 389.882 267.463 L 389.882 267.463 L 389.882 267.463 Q 390.591 266.854 391.569 266.543 L 391.569 266.543 L 391.569 266.543 Q 392.548 266.233 393.708 266.233 L 393.708 266.233 L 393.708 266.233 Q 394.868 266.233 395.853 266.543 L 395.853 266.543 L 395.853 266.543 Q 396.837 266.854 397.558 267.463 L 397.558 267.463 L 397.558 267.463 Q 398.278 268.073 398.683 268.957 L 398.683 268.957 L 398.683 268.957 Q 399.087 269.842 399.087 271.002 Z  M 396.181 278.643 L 396.181 278.643 L 396.181 278.643 Q 396.181 278.057 396.005 277.588 L 396.005 277.588 L 396.005 277.588 Q 395.829 277.119 395.507 276.785 L 395.507 276.785 L 395.507 276.785 Q 395.185 276.451 394.733 276.276 L 394.733 276.276 L 394.733 276.276 Q 394.282 276.1 393.72 276.1 L 393.72 276.1 L 393.72 276.1 Q 393.157 276.1 392.706 276.276 L 392.706 276.276 L 392.706 276.276 Q 392.255 276.451 391.938 276.785 L 391.938 276.785 L 391.938 276.785 Q 391.622 277.119 391.446 277.588 L 391.446 277.588 L 391.446 277.588 Q 391.27 278.057 391.27 278.643 L 391.27 278.643 L 391.27 278.643 Q 391.27 279.815 391.938 280.483 L 391.938 280.483 L 391.938 280.483 Q 392.606 281.151 393.743 281.151 L 393.743 281.151 L 393.743 281.151 Q 394.282 281.151 394.728 280.981 L 394.728 280.981 L 394.728 280.981 Q 395.173 280.811 395.495 280.483 L 395.495 280.483 L 395.495 280.483 Q 395.817 280.155 395.999 279.692 L 395.999 279.692 L 395.999 279.692 Q 396.181 279.229 396.181 278.643 Z  M 395.841 271.155 L 395.841 271.155 L 395.841 271.155 Q 395.841 270.639 395.688 270.217 L 395.688 270.217 L 395.688 270.217 Q 395.536 269.795 395.261 269.496 L 395.261 269.496 L 395.261 269.496 Q 394.985 269.198 394.593 269.033 L 394.593 269.033 L 394.593 269.033 Q 394.2 268.869 393.708 268.869 L 393.708 268.869 L 393.708 268.869 Q 392.712 268.869 392.173 269.479 L 392.173 269.479 L 392.173 269.479 Q 391.634 270.088 391.634 271.155 L 391.634 271.155 L 391.634 271.155 Q 391.634 271.67 391.774 272.098 L 391.774 272.098 L 391.774 272.098 Q 391.915 272.526 392.19 272.83 L 392.19 272.83 L 392.19 272.83 Q 392.466 273.135 392.858 273.305 L 392.858 273.305 L 392.858 273.305 Q 393.251 273.475 393.743 273.475 L 393.743 273.475 L 393.743 273.475 Q 394.235 273.475 394.622 273.305 L 394.622 273.305 L 394.622 273.305 Q 395.009 273.135 395.278 272.83 L 395.278 272.83 L 395.278 272.83 Q 395.548 272.526 395.694 272.098 L 395.694 272.098 L 395.694 272.098 Q 395.841 271.67 395.841 271.155 Z " fill-rule="evenodd" fill="rgb(0,0,0)"/></g><g id="C9"><path d=" M 400.896 196.207 C 400.896 183.951 410.847 174 423.104 174 C 435.36 174 445.311 183.951 445.311 196.207 C 445.311 208.464 435.36 218.415 423.104 218.415 C 410.847 218.415 400.896 208.464 400.896 196.207 Z " fill="rgb(195,215,247)" vector-effect="non-scaling-stroke" stroke-width="2" stroke="rgb(0,0,0)" stroke-linejoin="miter" stroke-linecap="square" stroke-miterlimit="3"/><path d=" M 418.57 202.94 L 418.793 202.94 L 418.793 202.94 Q 420.106 202.94 421.067 202.658 L 421.067 202.658 L 421.067 202.658 Q 422.027 202.377 422.678 201.844 L 422.678 201.844 L 422.678 201.844 Q 423.328 201.311 423.686 200.543 L 423.686 200.543 L 423.686 200.543 Q 424.043 199.776 424.149 198.803 L 424.149 198.803 L 424.149 198.803 Q 423.656 199.295 422.883 199.647 L 422.883 199.647 L 422.883 199.647 Q 422.11 199.998 421.008 199.998 L 421.008 199.998 L 421.008 199.998 Q 419.789 199.998 418.863 199.553 L 418.863 199.553 L 418.863 199.553 Q 417.938 199.108 417.311 198.334 L 417.311 198.334 L 417.311 198.334 Q 416.684 197.561 416.361 196.512 L 416.361 196.512 L 416.361 196.512 Q 416.039 195.463 416.039 194.256 L 416.039 194.256 L 416.039 194.256 Q 416.039 193.014 416.432 191.918 L 416.432 191.918 L 416.432 191.918 Q 416.824 190.823 417.563 190.002 L 417.563 190.002 L 417.563 190.002 Q 418.301 189.182 419.35 188.707 L 419.35 188.707 L 419.35 188.707 Q 420.399 188.233 421.711 188.233 L 421.711 188.233 L 421.711 188.233 Q 423.047 188.233 424.113 188.748 L 424.113 188.748 L 424.113 188.748 Q 425.18 189.264 425.924 190.19 L 425.924 190.19 L 425.924 190.19 Q 426.668 191.116 427.061 192.393 L 427.061 192.393 L 427.061 192.393 Q 427.453 193.67 427.453 195.194 L 427.453 195.194 L 427.453 196.319 L 427.453 196.319 Q 427.453 198.358 426.949 200.069 L 426.949 200.069 L 426.949 200.069 Q 426.445 201.78 425.391 203.028 L 425.391 203.028 L 425.391 203.028 Q 424.336 204.276 422.707 204.973 L 422.707 204.973 L 422.707 204.973 Q 421.078 205.67 418.817 205.67 L 418.817 205.67 L 418.57 205.67 L 418.57 202.94 Z  M 421.781 197.479 L 421.781 197.479 L 421.781 197.479 Q 422.227 197.479 422.608 197.35 L 422.608 197.35 L 422.608 197.35 Q 422.988 197.221 423.299 196.992 L 423.299 196.992 L 423.299 196.992 Q 423.61 196.764 423.838 196.453 L 423.838 196.453 L 423.838 196.453 Q 424.067 196.143 424.207 195.78 L 424.207 195.78 L 424.207 194.619 L 424.207 194.619 Q 424.207 193.682 424.014 192.979 L 424.014 192.979 L 424.014 192.979 Q 423.82 192.276 423.481 191.807 L 423.481 191.807 L 423.481 191.807 Q 423.141 191.338 422.684 191.104 L 422.684 191.104 L 422.684 191.104 Q 422.227 190.869 421.699 190.869 L 421.699 190.869 L 421.699 190.869 Q 421.125 190.869 420.674 191.145 L 420.674 191.145 L 420.674 191.145 Q 420.223 191.42 419.918 191.883 L 419.918 191.883 L 419.918 191.883 Q 419.613 192.346 419.449 192.95 L 419.449 192.95 L 419.449 192.95 Q 419.285 193.553 419.285 194.209 L 419.285 194.209 L 419.285 194.209 Q 419.285 194.866 419.438 195.463 L 419.438 195.463 L 419.438 195.463 Q 419.59 196.061 419.901 196.506 L 419.901 196.506 L 419.901 196.506 Q 420.211 196.951 420.68 197.215 L 420.68 197.215 L 420.68 197.215 Q 421.149 197.479 421.781 197.479 Z " fill-rule="evenodd" fill="rgb(0,0,0)"/></g><g id="C10"><path d=" M 493.571 196.207 C 493.571 183.951 503.522 174 515.778 174 C 528.035 174 537.986 183.951 537.986 196.207 C 537.986 208.464 528.035 218.415 515.778 218.415 C 503.522 218.415 493.571 208.464 493.571 196.207 Z " fill="rgb(195,215,247)" vector-effect="non-scaling-stroke" stroke-width="2" stroke="rgb(0,0,0)" stroke-linejoin="miter" stroke-linecap="square" stroke-miterlimit="3"/><path d=" M 510.009 188.467 L 510.009 205.53 L 506.716 205.53 L 506.716 192.44 L 502.403 193.987 L 502.403 191.151 L 509.833 188.467 L 510.009 188.467 Z  M 527.54 194.959 L 527.54 199.037 L 527.54 199.037 Q 527.54 200.69 527.159 201.95 L 527.159 201.95 L 527.159 201.95 Q 526.778 203.209 526.064 204.059 L 526.064 204.059 L 526.064 204.059 Q 525.349 204.908 524.318 205.342 L 524.318 205.342 L 524.318 205.342 Q 523.286 205.776 521.997 205.776 L 521.997 205.776 L 521.997 205.776 Q 520.72 205.776 519.689 205.342 L 519.689 205.342 L 519.689 205.342 Q 518.657 204.908 517.937 204.059 L 517.937 204.059 L 517.937 204.059 Q 517.216 203.209 516.823 201.95 L 516.823 201.95 L 516.823 201.95 Q 516.431 200.69 516.431 199.037 L 516.431 199.037 L 516.431 194.959 L 516.431 194.959 Q 516.431 193.307 516.818 192.047 L 516.818 192.047 L 516.818 192.047 Q 517.204 190.787 517.925 189.938 L 517.925 189.938 L 517.925 189.938 Q 518.646 189.088 519.671 188.655 L 519.671 188.655 L 519.671 188.655 Q 520.696 188.221 521.974 188.221 L 521.974 188.221 L 521.974 188.221 Q 523.263 188.221 524.294 188.655 L 524.294 188.655 L 524.294 188.655 Q 525.325 189.088 526.046 189.938 L 526.046 189.938 L 526.046 189.938 Q 526.767 190.787 527.153 192.047 L 527.153 192.047 L 527.153 192.047 Q 527.54 193.307 527.54 194.959 L 527.54 194.959 Z  M 519.712 194.444 L 519.712 197.631 L 524.259 194.244 L 524.259 194.244 Q 524.224 192.522 523.661 191.69 L 523.661 191.69 L 523.661 191.69 Q 523.099 190.858 521.974 190.858 L 521.974 190.858 L 521.974 190.858 Q 520.837 190.858 520.275 191.737 L 520.275 191.737 L 520.275 191.737 Q 519.712 192.616 519.712 194.444 L 519.712 194.444 Z  M 524.259 199.53 L 524.259 196.459 L 519.712 199.834 L 519.712 199.834 Q 519.771 201.522 520.333 202.336 L 520.333 202.336 L 520.333 202.336 Q 520.896 203.151 521.997 203.151 L 521.997 203.151 L 521.997 203.151 Q 523.146 203.151 523.702 202.26 L 523.702 202.26 L 523.702 202.26 Q 524.259 201.369 524.259 199.53 L 524.259 199.53 Z " fill-rule="evenodd" fill="rgb(0,0,0)"/></g><g id="C11"><path d=" M 220.283 106 C 220.283 93.743 230.233 83.793 242.49 83.793 C 254.746 83.793 264.697 93.743 264.697 106 C 264.697 118.257 254.746 128.207 242.49 128.207 C 230.233 128.207 220.283 118.257 220.283 106 Z " fill="rgb(211,240,193)" vector-effect="non-scaling-stroke" stroke-width="2" stroke="rgb(0,0,0)" stroke-linejoin="miter" stroke-linecap="square" stroke-miterlimit="3"/><path d=" M 236.72 98.26 L 236.72 115.322 L 233.427 115.322 L 233.427 102.232 L 229.115 103.779 L 229.115 100.943 L 236.545 98.26 L 236.72 98.26 Z  M 251.123 98.26 L 251.123 115.322 L 247.83 115.322 L 247.83 102.232 L 243.517 103.779 L 243.517 100.943 L 250.947 98.26 L 251.123 98.26 Z " fill-rule="evenodd" fill="rgb(0,0,0)"/></g><g id="C12"><path d=" M 289.514 106 C 289.514 93.743 299.465 83.793 311.722 83.793 C 323.978 83.793 333.929 93.743 333.929 106 C 333.929 118.257 323.978 128.207 311.722 128.207 C 299.465 128.207 289.514 118.257 289.514 106 Z " fill="rgb(211,240,193)" vector-effect="non-scaling-stroke" stroke-width="2" stroke="rgb(0,0,0)" stroke-linejoin="miter" stroke-linecap="square" stroke-miterlimit="3"/><path d=" M 305.952 98.26 L 305.952 115.322 L 302.659 115.322 L 302.659 102.232 L 298.347 103.779 L 298.347 100.943 L 305.776 98.26 L 305.952 98.26 Z  M 323.53 112.709 L 323.53 115.322 L 311.893 115.322 L 311.893 113.096 L 317.413 107.166 L 317.413 107.166 Q 318.057 106.463 318.503 105.889 L 318.503 105.889 L 318.503 105.889 Q 318.948 105.314 319.223 104.84 L 319.223 104.84 L 319.223 104.84 Q 319.499 104.365 319.622 103.955 L 319.622 103.955 L 319.622 103.955 Q 319.745 103.545 319.745 103.158 L 319.745 103.158 L 319.745 103.158 Q 319.745 102.584 319.581 102.139 L 319.581 102.139 L 319.581 102.139 Q 319.417 101.693 319.118 101.383 L 319.118 101.383 L 319.118 101.383 Q 318.819 101.072 318.403 100.908 L 318.403 100.908 L 318.403 100.908 Q 317.987 100.744 317.483 100.744 L 317.483 100.744 L 317.483 100.744 Q 316.136 100.744 315.473 101.494 L 315.473 101.494 L 315.473 101.494 Q 314.811 102.244 314.811 103.592 L 314.811 103.592 L 311.542 103.592 L 311.542 103.592 Q 311.542 102.455 311.975 101.441 L 311.975 101.441 L 311.975 101.441 Q 312.409 100.428 313.2 99.666 L 313.2 99.666 L 313.2 99.666 Q 313.991 98.904 315.11 98.465 L 315.11 98.465 L 315.11 98.465 Q 316.229 98.025 317.589 98.025 L 317.589 98.025 L 317.589 98.025 Q 318.89 98.025 319.891 98.389 L 319.891 98.389 L 319.891 98.389 Q 320.893 98.752 321.567 99.408 L 321.567 99.408 L 321.567 99.408 Q 322.241 100.064 322.593 100.984 L 322.593 100.984 L 322.593 100.984 Q 322.944 101.904 322.944 103.018 L 322.944 103.018 L 322.944 103.018 Q 322.944 103.861 322.681 104.629 L 322.681 104.629 L 322.681 104.629 Q 322.417 105.396 321.931 106.146 L 321.931 106.146 L 321.931 106.146 Q 321.444 106.896 320.765 107.676 L 320.765 107.676 L 320.765 107.676 Q 320.085 108.455 319.253 109.311 L 319.253 109.311 L 316.042 112.709 L 323.53 112.709 Z " fill-rule="evenodd" fill="rgb(0,0,0)"/></g><g id="C13"><path d=" M 582.104 196.207 C 582.104 183.951 592.054 174 604.311 174 C 616.568 174 626.518 183.951 626.518 196.207 C 626.518 208.464 616.568 218.415 604.311 218.415 C 592.054 218.415 582.104 208.464 582.104 196.207 Z " fill="rgb(195,215,247)" vector-effect="non-scaling-stroke" stroke-width="2" stroke="rgb(0,0,0)" stroke-linejoin="miter" stroke-linecap="square" stroke-miterlimit="3"/><path d=" M 598.541 188.467 L 598.541 205.53 L 595.248 205.53 L 595.248 192.44 L 590.936 193.987 L 590.936 191.151 L 598.366 188.467 L 598.541 188.467 Z  M 608.245 198.1 L 608.245 195.569 L 610.014 195.569 L 610.014 195.569 Q 611.35 195.569 611.995 194.895 L 611.995 194.895 L 611.995 194.895 Q 612.639 194.221 612.639 193.131 L 612.639 193.131 L 612.639 193.131 Q 612.639 192.627 612.493 192.211 L 612.493 192.211 L 612.493 192.211 Q 612.346 191.795 612.053 191.496 L 612.053 191.496 L 612.053 191.496 Q 611.76 191.198 611.309 191.033 L 611.309 191.033 L 611.309 191.033 Q 610.858 190.869 610.26 190.869 L 610.26 190.869 L 610.26 190.869 Q 609.768 190.869 609.34 191.01 L 609.34 191.01 L 609.34 191.01 Q 608.913 191.151 608.59 191.414 L 608.59 191.414 L 608.59 191.414 Q 608.268 191.678 608.081 192.053 L 608.081 192.053 L 608.081 192.053 Q 607.893 192.428 607.893 192.897 L 607.893 192.897 L 604.635 192.897 L 604.635 192.897 Q 604.635 191.854 605.063 190.998 L 605.063 190.998 L 605.063 190.998 Q 605.491 190.143 606.241 189.528 L 606.241 189.528 L 606.241 189.528 Q 606.991 188.912 608.004 188.573 L 608.004 188.573 L 608.004 188.573 Q 609.018 188.233 610.19 188.233 L 610.19 188.233 L 610.19 188.233 Q 611.456 188.233 612.51 188.543 L 612.51 188.543 L 612.51 188.543 Q 613.565 188.854 614.315 189.469 L 614.315 189.469 L 614.315 189.469 Q 615.065 190.084 615.481 190.992 L 615.481 190.992 L 615.481 190.992 Q 615.897 191.901 615.897 193.096 L 615.897 193.096 L 615.897 193.096 Q 615.897 193.647 615.733 194.18 L 615.733 194.18 L 615.733 194.18 Q 615.569 194.713 615.252 195.194 L 615.252 195.194 L 615.252 195.194 Q 614.936 195.674 614.467 196.078 L 614.467 196.078 L 614.467 196.078 Q 613.998 196.483 613.389 196.776 L 613.389 196.776 L 613.389 196.776 Q 614.104 197.033 614.625 197.432 L 614.625 197.432 L 614.625 197.432 Q 615.147 197.83 615.487 198.34 L 615.487 198.34 L 615.487 198.34 Q 615.827 198.85 615.991 199.459 L 615.991 199.459 L 615.991 199.459 Q 616.155 200.069 616.155 200.748 L 616.155 200.748 L 616.155 200.748 Q 616.155 201.944 615.698 202.881 L 615.698 202.881 L 615.698 202.881 Q 615.241 203.819 614.444 204.457 L 614.444 204.457 L 614.444 204.457 Q 613.647 205.096 612.551 205.43 L 612.551 205.43 L 612.551 205.43 Q 611.456 205.764 610.19 205.764 L 610.19 205.764 L 610.19 205.764 Q 609.1 205.764 608.063 205.465 L 608.063 205.465 L 608.063 205.465 Q 607.026 205.166 606.217 204.563 L 606.217 204.563 L 606.217 204.563 Q 605.409 203.959 604.922 203.045 L 604.922 203.045 L 604.922 203.045 Q 604.436 202.131 604.436 200.889 L 604.436 200.889 L 607.694 200.889 L 607.694 200.889 Q 607.694 201.381 607.881 201.797 L 607.881 201.797 L 607.881 201.797 Q 608.069 202.213 608.414 202.512 L 608.414 202.512 L 608.414 202.512 Q 608.76 202.811 609.229 202.981 L 609.229 202.981 L 609.229 202.981 Q 609.698 203.151 610.26 203.151 L 610.26 203.151 L 610.26 203.151 Q 611.502 203.151 612.206 202.494 L 612.206 202.494 L 612.206 202.494 Q 612.909 201.838 612.909 200.713 L 612.909 200.713 L 612.909 200.713 Q 612.909 200.022 612.709 199.53 L 612.709 199.53 L 612.709 199.53 Q 612.51 199.037 612.129 198.721 L 612.129 198.721 L 612.129 198.721 Q 611.748 198.405 611.215 198.252 L 611.215 198.252 L 611.215 198.252 Q 610.682 198.1 610.014 198.1 L 610.014 198.1 L 608.245 198.1 Z " fill-rule="evenodd" fill="rgb(0,0,0)"/></g><g id="C14"><path d=" M 695.896 196.207 C 695.896 183.951 705.847 174 718.104 174 C 730.36 174 740.311 183.951 740.311 196.207 C 740.311 208.464 730.36 218.415 718.104 218.415 C 705.847 218.415 695.896 208.464 695.896 196.207 Z " fill="rgb(195,215,247)" vector-effect="non-scaling-stroke" stroke-width="2" stroke="rgb(0,0,0)" stroke-linejoin="miter" stroke-linecap="square" stroke-miterlimit="3"/><path d=" M 712.334 188.467 L 712.334 205.53 L 709.041 205.53 L 709.041 192.44 L 704.729 193.987 L 704.729 191.151 L 712.158 188.467 L 712.334 188.467 Z  M 728.272 188.467 L 728.272 199.19 L 730.252 199.19 L 730.252 201.826 L 728.272 201.826 L 728.272 205.53 L 725.014 205.53 L 725.014 201.826 L 717.924 201.826 L 717.795 199.787 L 724.967 188.467 L 728.272 188.467 Z  M 724.697 193.412 L 720.994 199.19 L 725.014 199.19 L 725.014 192.85 L 724.697 193.412 Z " fill-rule="evenodd" fill="rgb(0,0,0)"/></g><line x1="264.697" y1="34" x2="355.518" y2="90" vector-effect="non-scaling-stroke" stroke-width="2" stroke="rgb(255,0,0)" stroke-linejoin="miter" stroke-linecap="square" stroke-miterlimit="3"/><line x1="264.697" y1="90" x2="355.518" y2="34" vector-effect="non-scaling-stroke" stroke-width="2" stroke="rgb(255,0,0)" stroke-linejoin="miter" stroke-linecap="square" stroke-miterlimit="3"/><line x1="378.693" y1="123.104" x2="469.514" y2="179.104" vector-effect="non-scaling-stroke" stroke-width="2" stroke="rgb(255,0,0)" stroke-linejoin="miter" stroke-linecap="square" stroke-miterlimit="3"/><line x1="378.693" y1="179.104" x2="469.514" y2="123.104" vector-effect="non-scaling-stroke" stroke-width="2" stroke="rgb(255,0,0)" stroke-linejoin="miter" stroke-linecap="square" stroke-miterlimit="3"/><line x1="182.896" y1="140" x2="238.106" y2="164.75" vector-effect="non-scaling-stroke" stroke-width="2" stroke="rgb(255,0,0)" stroke-linejoin="miter" stroke-linecap="square" stroke-miterlimit="3"/><line x1="182.896" y1="164.75" x2="238.106" y2="140" vector-effect="non-scaling-stroke" stroke-width="2" stroke="rgb(255,0,0)" stroke-linejoin="miter" stroke-linecap="square" stroke-miterlimit="3"/></g></svg>