<?xml version="1.0" standalone="no"?><!-- Generator: Gravit.io --><svg xmlns="http://www.w3.org/2000/svg" xmlns:xlink="http://www.w3.org/1999/xlink" style="isolation:isolate" viewBox="0 0 800 350" width="800" height="350"><defs><clipPath id="_clipPath_oQPjyQXLaGqbm3mWgop1UrcRylLmbKsi"><rect width="800" height="350"/></clipPath></defs><g clip-path="url(#_clipPath_oQPjyQXLaGqbm3mWgop1UrcRylLmbKsi)"><line x1="111" y1="202" x2="662" y2="202" vector-effect="non-scaling-stroke" stroke-width="2" stroke="rgb(0,0,0)" stroke-linejoin="miter" stroke-linecap="square" stroke-miterlimit="3"/><line x1="328.594" y1="280" x2="451.651" y2="280" vector-effect="non-scaling-stroke" stroke-width="2" stroke="rgb(0,0,0)" stroke-linejoin="miter" stroke-linecap="square" stroke-miterlimit="3"/><line x1="299.471" y1="111.793" x2="368.817" y2="111.793" vector-effect="non-scaling-stroke" stroke-width="2" stroke="rgb(0,0,0)" stroke-linejoin="miter" stroke-linecap="square" stroke-miterlimit="3"/><line x1="328.594" y1="280" x2="300.622" y2="202" vector-effect="non-scaling-stroke" stroke-width="2" stroke="rgb(0,0,0)" stroke-linejoin="miter" stroke-linecap="square" stroke-miterlimit="3"/><line x1="451.821" y1="280" x2="481" y2="202" vector-effect="non-scaling-stroke" stroke-width="2" stroke="rgb(0,0,0)" stroke-linejoin="miter" stroke-linecap="square" stroke-miterlimit="3"/><line x1="237.793" y1="202" x2="299.386" y2="111.793" vector-effect="non-scaling-stroke" stroke-width="2" stroke="rgb(0,0,0)" stroke-linejoin="miter" stroke-linecap="square" stroke-miterlimit="3"/><g id="Bmaster"><path d="M 618.883 137.793 L 703.531 137.793 C 707.768 137.793 711.207 141.232 711.207 145.469 L 711.207 167.117 C 711.207 171.353 707.768 174.793 703.531 174.793 L 618.883 174.793 C 614.647 174.793 611.207 171.353 611.207 167.117 L 611.207 145.469 C 611.207 141.232 614.647 137.793 618.883 137.793 Z" style="stroke:none;fill:#9FC4FF;stroke-miterlimit:10;"/><path d="M 618.883 137.793 L 703.531 137.793 C 707.768 137.793 711.207 141.232 711.207 145.469 L 711.207 167.117 C 711.207 171.353 707.768 174.793 703.531 174.793 L 618.883 174.793 C 614.647 174.793 611.207 171.353 611.207 167.117 L 611.207 145.469 C 611.207 141.232 614.647 137.793 618.883 137.793 Z" style="fill:none;stroke:#000000;stroke-width:1.6855342301554246;stroke-linecap:square;stroke-miterlimit:3;"/><path d=" M 636.425 158.073 L 636.425 163.551 L 633.447 163.551 L 633.447 157.175 L 633.447 157.175 Q 633.447 155.993 633.051 155.402 L 633.051 155.402 L 633.051 155.402 Q 632.656 154.811 631.806 154.811 L 631.806 154.811 L 631.806 154.811 Q 630.663 154.811 630.146 155.651 L 630.146 155.651 L 630.146 155.651 Q 629.628 156.491 629.628 158.415 L 629.628 158.415 L 629.628 163.551 L 626.65 163.551 L 626.65 152.633 L 628.925 152.633 L 629.325 154.03 L 629.492 154.03 L 629.492 154.03 Q 629.931 153.278 630.761 152.853 L 630.761 152.853 L 630.761 152.853 Q 631.591 152.428 632.665 152.428 L 632.665 152.428 L 632.665 152.428 Q 635.117 152.428 635.986 154.03 L 635.986 154.03 L 636.249 154.03 L 636.249 154.03 Q 636.689 153.268 637.543 152.848 L 637.543 152.848 L 637.543 152.848 Q 638.398 152.428 639.472 152.428 L 639.472 152.428 L 639.472 152.428 Q 641.327 152.428 642.28 153.381 L 642.28 153.381 L 642.28 153.381 Q 643.232 154.333 643.232 156.432 L 643.232 156.432 L 643.232 163.551 L 640.243 163.551 L 640.243 157.175 L 640.243 157.175 Q 640.243 155.993 639.848 155.402 L 639.848 155.402 L 639.848 155.402 Q 639.452 154.811 638.603 154.811 L 638.603 154.811 L 638.603 154.811 Q 637.509 154.811 636.967 155.592 L 636.967 155.592 L 636.967 155.592 Q 636.425 156.374 636.425 158.073 L 636.425 158.073 Z  M 655.302 163.551 L 653.222 163.551 L 652.646 162.067 L 652.568 162.067 L 652.568 162.067 Q 651.816 163.014 651.02 163.381 L 651.02 163.381 L 651.02 163.381 Q 650.224 163.747 648.945 163.747 L 648.945 163.747 L 648.945 163.747 Q 647.372 163.747 646.469 162.848 L 646.469 162.848 L 646.469 162.848 Q 645.566 161.95 645.566 160.29 L 645.566 160.29 L 645.566 160.29 Q 645.566 158.551 646.782 157.726 L 646.782 157.726 L 646.782 157.726 Q 647.997 156.901 650.449 156.813 L 650.449 156.813 L 652.343 156.755 L 652.343 156.276 L 652.343 156.276 Q 652.343 154.616 650.644 154.616 L 650.644 154.616 L 650.644 154.616 Q 649.335 154.616 647.568 155.407 L 647.568 155.407 L 646.581 153.395 L 646.581 153.395 Q 648.466 152.409 650.761 152.409 L 650.761 152.409 L 650.761 152.409 Q 652.958 152.409 654.13 153.366 L 654.13 153.366 L 654.13 153.366 Q 655.302 154.323 655.302 156.276 L 655.302 156.276 L 655.302 163.551 Z  M 652.343 159.391 L 652.343 158.493 L 651.191 158.532 L 651.191 158.532 Q 649.892 158.571 649.257 159.001 L 649.257 159.001 L 649.257 159.001 Q 648.622 159.43 648.622 160.309 L 648.622 160.309 L 648.622 160.309 Q 648.622 161.569 650.068 161.569 L 650.068 161.569 L 650.068 161.569 Q 651.103 161.569 651.723 160.973 L 651.723 160.973 L 651.723 160.973 Q 652.343 160.378 652.343 159.391 L 652.343 159.391 Z  M 665.986 160.309 L 665.986 160.309 L 665.986 160.309 Q 665.986 161.989 664.819 162.868 L 664.819 162.868 L 664.819 162.868 Q 663.652 163.747 661.327 163.747 L 661.327 163.747 L 661.327 163.747 Q 660.136 163.747 659.296 163.586 L 659.296 163.586 L 659.296 163.586 Q 658.456 163.425 657.724 163.112 L 657.724 163.112 L 657.724 160.651 L 657.724 160.651 Q 658.554 161.042 659.594 161.305 L 659.594 161.305 L 659.594 161.305 Q 660.634 161.569 661.425 161.569 L 661.425 161.569 L 661.425 161.569 Q 663.046 161.569 663.046 160.632 L 663.046 160.632 L 663.046 160.632 Q 663.046 160.28 662.831 160.06 L 662.831 160.06 L 662.831 160.06 Q 662.617 159.841 662.089 159.562 L 662.089 159.562 L 662.089 159.562 Q 661.562 159.284 660.683 158.913 L 660.683 158.913 L 660.683 158.913 Q 659.423 158.385 658.832 157.936 L 658.832 157.936 L 658.832 157.936 Q 658.242 157.487 657.973 156.906 L 657.973 156.906 L 657.973 156.906 Q 657.704 156.325 657.704 155.475 L 657.704 155.475 L 657.704 155.475 Q 657.704 154.02 658.832 153.224 L 658.832 153.224 L 658.832 153.224 Q 659.96 152.428 662.031 152.428 L 662.031 152.428 L 662.031 152.428 Q 664.003 152.428 665.868 153.288 L 665.868 153.288 L 664.97 155.436 L 664.97 155.436 Q 664.15 155.085 663.437 154.86 L 663.437 154.86 L 663.437 154.86 Q 662.724 154.635 661.982 154.635 L 661.982 154.635 L 661.982 154.635 Q 660.663 154.635 660.663 155.348 L 660.663 155.348 L 660.663 155.348 Q 660.663 155.749 661.088 156.042 L 661.088 156.042 L 661.088 156.042 Q 661.513 156.335 662.949 156.911 L 662.949 156.911 L 662.949 156.911 Q 664.228 157.428 664.824 157.878 L 664.824 157.878 L 664.824 157.878 Q 665.419 158.327 665.702 158.913 L 665.702 158.913 L 665.702 158.913 Q 665.986 159.499 665.986 160.309 Z  M 672.909 161.374 L 672.909 161.374 L 672.909 161.374 Q 673.691 161.374 674.784 161.032 L 674.784 161.032 L 674.784 163.249 L 674.784 163.249 Q 673.671 163.747 672.05 163.747 L 672.05 163.747 L 672.05 163.747 Q 670.263 163.747 669.448 162.843 L 669.448 162.843 L 669.448 162.843 Q 668.632 161.94 668.632 160.133 L 668.632 160.133 L 668.632 154.87 L 667.206 154.87 L 667.206 153.61 L 668.847 152.614 L 669.706 150.309 L 671.611 150.309 L 671.611 152.633 L 674.667 152.633 L 674.667 154.87 L 671.611 154.87 L 671.611 160.133 L 671.611 160.133 Q 671.611 160.768 671.967 161.071 L 671.967 161.071 L 671.967 161.071 Q 672.324 161.374 672.909 161.374 Z  M 681.513 154.548 L 681.513 154.548 L 681.513 154.548 Q 680.566 154.548 680.029 155.148 L 680.029 155.148 L 680.029 155.148 Q 679.492 155.749 679.413 156.852 L 679.413 156.852 L 683.593 156.852 L 683.593 156.852 Q 683.574 155.749 683.017 155.148 L 683.017 155.148 L 683.017 155.148 Q 682.46 154.548 681.513 154.548 Z  M 681.933 163.747 L 681.933 163.747 L 681.933 163.747 Q 679.296 163.747 677.812 162.292 L 677.812 162.292 L 677.812 162.292 Q 676.327 160.837 676.327 158.171 L 676.327 158.171 L 676.327 158.171 Q 676.327 155.426 677.7 153.927 L 677.7 153.927 L 677.7 153.927 Q 679.072 152.428 681.493 152.428 L 681.493 152.428 L 681.493 152.428 Q 683.808 152.428 685.097 153.747 L 685.097 153.747 L 685.097 153.747 Q 686.386 155.065 686.386 157.389 L 686.386 157.389 L 686.386 158.835 L 679.345 158.835 L 679.345 158.835 Q 679.394 160.104 680.097 160.817 L 680.097 160.817 L 680.097 160.817 Q 680.8 161.53 682.07 161.53 L 682.07 161.53 L 682.07 161.53 Q 683.056 161.53 683.935 161.325 L 683.935 161.325 L 683.935 161.325 Q 684.814 161.12 685.771 160.671 L 685.771 160.671 L 685.771 162.975 L 685.771 162.975 Q 684.99 163.366 684.101 163.556 L 684.101 163.556 L 684.101 163.556 Q 683.212 163.747 681.933 163.747 Z  M 694.902 152.428 L 694.902 152.428 L 694.902 152.428 Q 695.507 152.428 695.908 152.516 L 695.908 152.516 L 695.683 155.309 L 695.683 155.309 Q 695.322 155.212 694.804 155.212 L 694.804 155.212 L 694.804 155.212 Q 693.378 155.212 692.582 155.944 L 692.582 155.944 L 692.582 155.944 Q 691.786 156.676 691.786 157.995 L 691.786 157.995 L 691.786 163.551 L 688.808 163.551 L 688.808 152.633 L 691.064 152.633 L 691.503 154.469 L 691.65 154.469 L 691.65 154.469 Q 692.158 153.551 693.022 152.99 L 693.022 152.99 L 693.022 152.99 Q 693.886 152.428 694.902 152.428 Z " fill-rule="evenodd" fill="rgb(0,0,0)"/></g><g id="Btest"><path d="M 326.294 47.793 L 410.942 47.793 C 415.178 47.793 418.618 51.232 418.618 55.469 L 418.618 77.117 C 418.618 81.353 415.178 84.793 410.942 84.793 L 326.294 84.793 C 322.057 84.793 318.618 81.353 318.618 77.117 L 318.618 55.469 C 318.618 51.232 322.057 47.793 326.294 47.793 Z" style="stroke:none;fill:#D3F0C1;stroke-linecap:square;stroke-miterlimit:3;"/><path d="M 326.294 47.793 L 410.942 47.793 C 415.178 47.793 418.618 51.232 418.618 55.469 L 418.618 77.117 C 418.618 81.353 415.178 84.793 410.942 84.793 L 326.294 84.793 C 322.057 84.793 318.618 81.353 318.618 77.117 L 318.618 55.469 C 318.618 51.232 322.057 47.793 326.294 47.793 Z" style="fill:none;stroke:#000000;stroke-width:1.6855342301554246;stroke-linecap:square;stroke-miterlimit:3;"/><path d=" M 354.219 71.874 L 354.219 71.874 L 354.219 71.874 Q 355.001 71.874 356.094 71.532 L 356.094 71.532 L 356.094 73.749 L 356.094 73.749 Q 354.981 74.247 353.36 74.247 L 353.36 74.247 L 353.36 74.247 Q 351.573 74.247 350.758 73.343 L 350.758 73.343 L 350.758 73.343 Q 349.942 72.44 349.942 70.633 L 349.942 70.633 L 349.942 65.37 L 348.516 65.37 L 348.516 64.11 L 350.157 63.114 L 351.016 60.809 L 352.921 60.809 L 352.921 63.133 L 355.977 63.133 L 355.977 65.37 L 352.921 65.37 L 352.921 70.633 L 352.921 70.633 Q 352.921 71.268 353.277 71.571 L 353.277 71.571 L 353.277 71.571 Q 353.634 71.874 354.219 71.874 Z  M 362.823 65.048 L 362.823 65.048 L 362.823 65.048 Q 361.876 65.048 361.339 65.648 L 361.339 65.648 L 361.339 65.648 Q 360.801 66.249 360.723 67.352 L 360.723 67.352 L 364.903 67.352 L 364.903 67.352 Q 364.884 66.249 364.327 65.648 L 364.327 65.648 L 364.327 65.648 Q 363.77 65.048 362.823 65.048 Z  M 363.243 74.247 L 363.243 74.247 L 363.243 74.247 Q 360.606 74.247 359.122 72.792 L 359.122 72.792 L 359.122 72.792 Q 357.637 71.337 357.637 68.671 L 357.637 68.671 L 357.637 68.671 Q 357.637 65.926 359.009 64.427 L 359.009 64.427 L 359.009 64.427 Q 360.382 62.928 362.803 62.928 L 362.803 62.928 L 362.803 62.928 Q 365.118 62.928 366.407 64.247 L 366.407 64.247 L 366.407 64.247 Q 367.696 65.565 367.696 67.889 L 367.696 67.889 L 367.696 69.335 L 360.655 69.335 L 360.655 69.335 Q 360.704 70.604 361.407 71.317 L 361.407 71.317 L 361.407 71.317 Q 362.11 72.03 363.38 72.03 L 363.38 72.03 L 363.38 72.03 Q 364.366 72.03 365.245 71.825 L 365.245 71.825 L 365.245 71.825 Q 366.124 71.62 367.081 71.171 L 367.081 71.171 L 367.081 73.475 L 367.081 73.475 Q 366.3 73.866 365.411 74.056 L 365.411 74.056 L 365.411 74.056 Q 364.522 74.247 363.243 74.247 Z  M 377.735 70.809 L 377.735 70.809 L 377.735 70.809 Q 377.735 72.489 376.568 73.368 L 376.568 73.368 L 376.568 73.368 Q 375.401 74.247 373.077 74.247 L 373.077 74.247 L 373.077 74.247 Q 371.885 74.247 371.046 74.086 L 371.046 74.086 L 371.046 74.086 Q 370.206 73.925 369.473 73.612 L 369.473 73.612 L 369.473 71.151 L 369.473 71.151 Q 370.303 71.542 371.343 71.805 L 371.343 71.805 L 371.343 71.805 Q 372.384 72.069 373.175 72.069 L 373.175 72.069 L 373.175 72.069 Q 374.796 72.069 374.796 71.132 L 374.796 71.132 L 374.796 71.132 Q 374.796 70.78 374.581 70.56 L 374.581 70.56 L 374.581 70.56 Q 374.366 70.341 373.839 70.062 L 373.839 70.062 L 373.839 70.062 Q 373.311 69.784 372.432 69.413 L 372.432 69.413 L 372.432 69.413 Q 371.173 68.885 370.582 68.436 L 370.582 68.436 L 370.582 68.436 Q 369.991 67.987 369.722 67.406 L 369.722 67.406 L 369.722 67.406 Q 369.454 66.825 369.454 65.975 L 369.454 65.975 L 369.454 65.975 Q 369.454 64.52 370.582 63.724 L 370.582 63.724 L 370.582 63.724 Q 371.71 62.928 373.78 62.928 L 373.78 62.928 L 373.78 62.928 Q 375.753 62.928 377.618 63.788 L 377.618 63.788 L 376.719 65.936 L 376.719 65.936 Q 375.899 65.585 375.186 65.36 L 375.186 65.36 L 375.186 65.36 Q 374.473 65.135 373.731 65.135 L 373.731 65.135 L 373.731 65.135 Q 372.413 65.135 372.413 65.848 L 372.413 65.848 L 372.413 65.848 Q 372.413 66.249 372.838 66.542 L 372.838 66.542 L 372.838 66.542 Q 373.262 66.835 374.698 67.411 L 374.698 67.411 L 374.698 67.411 Q 375.977 67.928 376.573 68.378 L 376.573 68.378 L 376.573 68.378 Q 377.169 68.827 377.452 69.413 L 377.452 69.413 L 377.452 69.413 Q 377.735 69.999 377.735 70.809 Z  M 384.659 71.874 L 384.659 71.874 L 384.659 71.874 Q 385.44 71.874 386.534 71.532 L 386.534 71.532 L 386.534 73.749 L 386.534 73.749 Q 385.421 74.247 383.8 74.247 L 383.8 74.247 L 383.8 74.247 Q 382.012 74.247 381.197 73.343 L 381.197 73.343 L 381.197 73.343 Q 380.382 72.44 380.382 70.633 L 380.382 70.633 L 380.382 65.37 L 378.956 65.37 L 378.956 64.11 L 380.596 63.114 L 381.456 60.809 L 383.36 60.809 L 383.36 63.133 L 386.417 63.133 L 386.417 65.37 L 383.36 65.37 L 383.36 70.633 L 383.36 70.633 Q 383.36 71.268 383.717 71.571 L 383.717 71.571 L 383.717 71.571 Q 384.073 71.874 384.659 71.874 Z " fill-rule="evenodd" fill="rgb(0,0,0)"/></g><g id="Bfeat1"><path d="M 438.676 137.793 L 523.324 137.793 C 527.56 137.793 531 141.232 531 145.469 L 531 167.117 C 531 171.353 527.56 174.793 523.324 174.793 L 438.676 174.793 C 434.44 174.793 431 171.353 431 167.117 L 431 145.469 C 431 141.232 434.44 137.793 438.676 137.793 Z" style="stroke:none;fill:#D1D1D1;stroke-linecap:square;stroke-miterlimit:3;"/><path d="M 438.676 137.793 L 523.324 137.793 C 527.56 137.793 531 141.232 531 145.469 L 531 167.117 C 531 171.353 527.56 174.793 523.324 174.793 L 438.676 174.793 C 434.44 174.793 431 171.353 431 167.117 L 431 145.469 C 431 141.232 434.44 137.793 438.676 137.793 Z" style="fill:none;stroke:#000000;stroke-width:1.6855342301554246;stroke-linecap:square;stroke-miterlimit:3;"/><path d=" M 461.229 153.133 L 461.229 155.37 L 458.65 155.37 L 458.65 164.051 L 455.672 164.051 L 455.672 155.37 L 454.031 155.37 L 454.031 153.934 L 455.672 153.133 L 455.672 152.333 L 455.672 152.333 Q 455.672 150.467 456.59 149.608 L 456.59 149.608 L 456.59 149.608 Q 457.508 148.749 459.529 148.749 L 459.529 148.749 L 459.529 148.749 Q 461.072 148.749 462.273 149.208 L 462.273 149.208 L 461.512 151.395 L 461.512 151.395 Q 460.613 151.112 459.852 151.112 L 459.852 151.112 L 459.852 151.112 Q 459.217 151.112 458.934 151.488 L 458.934 151.488 L 458.934 151.488 Q 458.65 151.864 458.65 152.45 L 458.65 152.45 L 458.65 153.133 L 461.229 153.133 Z  M 467.459 155.048 L 467.459 155.048 L 467.459 155.048 Q 466.512 155.048 465.975 155.648 L 465.975 155.648 L 465.975 155.648 Q 465.437 156.249 465.359 157.352 L 465.359 157.352 L 469.539 157.352 L 469.539 157.352 Q 469.52 156.249 468.963 155.648 L 468.963 155.648 L 468.963 155.648 Q 468.406 155.048 467.459 155.048 Z  M 467.879 164.247 L 467.879 164.247 L 467.879 164.247 Q 465.242 164.247 463.758 162.792 L 463.758 162.792 L 463.758 162.792 Q 462.273 161.337 462.273 158.671 L 462.273 158.671 L 462.273 158.671 Q 462.273 155.926 463.646 154.427 L 463.646 154.427 L 463.646 154.427 Q 465.018 152.928 467.439 152.928 L 467.439 152.928 L 467.439 152.928 Q 469.754 152.928 471.043 154.247 L 471.043 154.247 L 471.043 154.247 Q 472.332 155.565 472.332 157.889 L 472.332 157.889 L 472.332 159.335 L 465.291 159.335 L 465.291 159.335 Q 465.34 160.604 466.043 161.317 L 466.043 161.317 L 466.043 161.317 Q 466.746 162.03 468.016 162.03 L 468.016 162.03 L 468.016 162.03 Q 469.002 162.03 469.881 161.825 L 469.881 161.825 L 469.881 161.825 Q 470.76 161.62 471.717 161.171 L 471.717 161.171 L 471.717 163.475 L 471.717 163.475 Q 470.936 163.866 470.047 164.056 L 470.047 164.056 L 470.047 164.056 Q 469.158 164.247 467.879 164.247 Z  M 483.768 164.051 L 481.687 164.051 L 481.111 162.567 L 481.033 162.567 L 481.033 162.567 Q 480.281 163.514 479.485 163.881 L 479.485 163.881 L 479.485 163.881 Q 478.689 164.247 477.41 164.247 L 477.41 164.247 L 477.41 164.247 Q 475.838 164.247 474.935 163.348 L 474.935 163.348 L 474.935 163.348 Q 474.031 162.45 474.031 160.79 L 474.031 160.79 L 474.031 160.79 Q 474.031 159.051 475.247 158.226 L 475.247 158.226 L 475.247 158.226 Q 476.463 157.401 478.914 157.313 L 478.914 157.313 L 480.809 157.255 L 480.809 156.776 L 480.809 156.776 Q 480.809 155.116 479.109 155.116 L 479.109 155.116 L 479.109 155.116 Q 477.801 155.116 476.033 155.907 L 476.033 155.907 L 475.047 153.895 L 475.047 153.895 Q 476.932 152.909 479.227 152.909 L 479.227 152.909 L 479.227 152.909 Q 481.424 152.909 482.596 153.866 L 482.596 153.866 L 482.596 153.866 Q 483.768 154.823 483.768 156.776 L 483.768 156.776 L 483.768 164.051 Z  M 480.809 159.891 L 480.809 158.993 L 479.656 159.032 L 479.656 159.032 Q 478.357 159.071 477.723 159.501 L 477.723 159.501 L 477.723 159.501 Q 477.088 159.93 477.088 160.809 L 477.088 160.809 L 477.088 160.809 Q 477.088 162.069 478.533 162.069 L 478.533 162.069 L 478.533 162.069 Q 479.568 162.069 480.188 161.473 L 480.188 161.473 L 480.188 161.473 Q 480.809 160.878 480.809 159.891 L 480.809 159.891 Z  M 491.434 161.874 L 491.434 161.874 L 491.434 161.874 Q 492.215 161.874 493.309 161.532 L 493.309 161.532 L 493.309 163.749 L 493.309 163.749 Q 492.195 164.247 490.574 164.247 L 490.574 164.247 L 490.574 164.247 Q 488.787 164.247 487.972 163.343 L 487.972 163.343 L 487.972 163.343 Q 487.156 162.44 487.156 160.633 L 487.156 160.633 L 487.156 155.37 L 485.73 155.37 L 485.73 154.11 L 487.371 153.114 L 488.23 150.809 L 490.135 150.809 L 490.135 153.133 L 493.191 153.133 L 493.191 155.37 L 490.135 155.37 L 490.135 160.633 L 490.135 160.633 Q 490.135 161.268 490.491 161.571 L 490.491 161.571 L 490.491 161.571 Q 490.848 161.874 491.434 161.874 Z  M 502.215 149.774 L 502.215 164.051 L 499.197 164.051 L 499.197 155.79 L 499.227 154.432 L 499.275 152.948 L 499.275 152.948 Q 498.523 153.7 498.23 153.934 L 498.23 153.934 L 496.59 155.253 L 495.135 153.436 L 499.734 149.774 L 502.215 149.774 Z " fill-rule="evenodd" fill="rgb(0,0,0)"/></g><g id="Bhead" style="opacity:0.54;"><path d="M 444.889 100.396 L 517.111 100.396 C 521.051 100.396 524.25 103.595 524.25 107.536 L 524.25 130.257 C 524.25 134.197 521.051 137.396 517.111 137.396 L 444.889 137.396 C 440.949 137.396 437.75 134.197 437.75 130.257 L 437.75 107.536 C 437.75 103.595 440.949 100.396 444.889 100.396 Z" style="stroke:none;fill:#FFF3A5;stroke-linecap:square;stroke-miterlimit:3;"/><path d="M 444.889 100.396 L 517.111 100.396 C 521.051 100.396 524.25 103.595 524.25 107.536 L 524.25 130.257 C 524.25 134.197 521.051 137.396 517.111 137.396 L 444.889 137.396 C 440.949 137.396 437.75 134.197 437.75 130.257 L 437.75 107.536 C 437.75 103.595 440.949 100.396 444.889 100.396 Z" style="fill:none;stroke:#000000;stroke-width:1.6855342301554246;stroke-linecap:square;stroke-dasharray:6;stroke-miterlimit:3;"/><path d=" M 465.942 113.105 L 465.942 127.382 L 462.925 127.382 L 462.925 121.22 L 457.271 121.22 L 457.271 127.382 L 454.243 127.382 L 454.243 113.105 L 457.271 113.105 L 457.271 118.701 L 462.925 118.701 L 462.925 113.105 L 465.942 113.105 Z  M 477.769 124.882 L 477.769 127.382 L 469.546 127.382 L 469.546 113.105 L 477.769 113.105 L 477.769 115.585 L 472.573 115.585 L 472.573 118.72 L 477.407 118.72 L 477.407 121.201 L 472.573 121.201 L 472.573 124.882 L 477.769 124.882 Z  M 492.749 127.382 L 489.487 127.382 L 488.452 123.984 L 483.247 123.984 L 482.212 127.382 L 478.95 127.382 L 483.989 113.046 L 487.69 113.046 L 492.749 127.382 Z  M 484.009 121.445 L 487.729 121.445 L 487.729 121.445 Q 486.294 116.826 486.113 116.22 L 486.113 116.22 L 486.113 116.22 Q 485.933 115.615 485.854 115.263 L 485.854 115.263 L 485.854 115.263 Q 485.532 116.513 484.009 121.445 L 484.009 121.445 Z  M 506.392 120.107 L 506.392 120.107 L 506.392 120.107 Q 506.392 123.632 504.385 125.507 L 504.385 125.507 L 504.385 125.507 Q 502.378 127.382 498.589 127.382 L 498.589 127.382 L 494.546 127.382 L 494.546 113.105 L 499.028 113.105 L 499.028 113.105 Q 502.524 113.105 504.458 114.951 L 504.458 114.951 L 504.458 114.951 Q 506.392 116.796 506.392 120.107 Z  M 503.247 120.185 L 503.247 120.185 L 503.247 120.185 Q 503.247 115.585 499.185 115.585 L 499.185 115.585 L 497.573 115.585 L 497.573 124.882 L 498.872 124.882 L 498.872 124.882 Q 503.247 124.882 503.247 120.185 Z " fill-rule="evenodd" fill="rgb(0,0,0)"/></g><g id="Bhead"><path d="M 137.318 137.793 L 209.54 137.793 C 213.48 137.793 216.679 140.992 216.679 144.932 L 216.679 167.653 C 216.679 171.594 213.48 174.793 209.54 174.793 L 137.318 174.793 C 133.378 174.793 130.179 171.594 130.179 167.653 L 130.179 144.932 C 130.179 140.992 133.378 137.793 137.318 137.793 Z" style="stroke:none;fill:#FFF3A5;stroke-linecap:square;stroke-miterlimit:3;"/><path d="M 137.318 137.793 L 209.54 137.793 C 213.48 137.793 216.679 140.992 216.679 144.932 L 216.679 167.653 C 216.679 171.594 213.48 174.793 209.54 174.793 L 137.318 174.793 C 133.378 174.793 130.179 171.594 130.179 167.653 L 130.179 144.932 C 130.179 140.992 133.378 137.793 137.318 137.793 Z" style="fill:none;stroke:#000000;stroke-width:1.6855342301554246;stroke-linecap:square;stroke-miterlimit:3;"/><path d=" M 158.371 150.501 L 158.371 164.779 L 155.354 164.779 L 155.354 158.617 L 149.699 158.617 L 149.699 164.779 L 146.672 164.779 L 146.672 150.501 L 149.699 150.501 L 149.699 156.097 L 155.354 156.097 L 155.354 150.501 L 158.371 150.501 Z  M 170.197 162.279 L 170.197 164.779 L 161.975 164.779 L 161.975 150.501 L 170.197 150.501 L 170.197 152.982 L 165.002 152.982 L 165.002 156.117 L 169.836 156.117 L 169.836 158.597 L 165.002 158.597 L 165.002 162.279 L 170.197 162.279 Z  M 185.178 164.779 L 181.916 164.779 L 180.881 161.38 L 175.676 161.38 L 174.641 164.779 L 171.379 164.779 L 176.418 150.443 L 180.119 150.443 L 185.178 164.779 Z  M 176.438 158.841 L 180.158 158.841 L 180.158 158.841 Q 178.723 154.222 178.542 153.617 L 178.542 153.617 L 178.542 153.617 Q 178.361 153.011 178.283 152.659 L 178.283 152.659 L 178.283 152.659 Q 177.961 153.909 176.438 158.841 L 176.438 158.841 Z  M 198.82 157.503 L 198.82 157.503 L 198.82 157.503 Q 198.82 161.029 196.814 162.904 L 196.814 162.904 L 196.814 162.904 Q 194.807 164.779 191.018 164.779 L 191.018 164.779 L 186.975 164.779 L 186.975 150.501 L 191.457 150.501 L 191.457 150.501 Q 194.953 150.501 196.887 152.347 L 196.887 152.347 L 196.887 152.347 Q 198.82 154.193 198.82 157.503 Z  M 195.676 157.581 L 195.676 157.581 L 195.676 157.581 Q 195.676 152.982 191.613 152.982 L 191.613 152.982 L 190.002 152.982 L 190.002 162.279 L 191.301 162.279 L 191.301 162.279 Q 195.676 162.279 195.676 157.581 Z " fill-rule="evenodd" fill="rgb(0,0,0)"/></g><g id="c1"><path d=" M 88.793 202 C 88.793 189.743 98.743 179.793 111 179.793 C 123.257 179.793 133.207 189.743 133.207 202 C 133.207 214.257 123.257 224.207 111 224.207 C 98.743 224.207 88.793 214.257 88.793 202 Z " fill="rgb(195,215,247)" vector-effect="non-scaling-stroke" stroke-width="2" stroke="rgb(0,0,0)" stroke-linejoin="miter" stroke-linecap="square" stroke-miterlimit="3"/><path d=" M 112.432 194.26 L 112.432 211.322 L 109.139 211.322 L 109.139 198.232 L 104.826 199.779 L 104.826 196.943 L 112.256 194.26 L 112.432 194.26 Z " fill="rgb(0,0,0)"/></g><g id="c2"><path d=" M 152 202 C 152 189.743 161.951 179.793 174.207 179.793 C 186.464 179.793 196.415 189.743 196.415 202 C 196.415 214.257 186.464 224.207 174.207 224.207 C 161.951 224.207 152 214.257 152 202 Z " fill="rgb(195,215,247)" vector-effect="non-scaling-stroke" stroke-width="2" stroke="rgb(0,0,0)" stroke-linejoin="miter" stroke-linecap="square" stroke-miterlimit="3"/><path d=" M 178.815 208.709 L 178.815 211.322 L 167.178 211.322 L 167.178 209.096 L 172.698 203.166 L 172.698 203.166 Q 173.342 202.463 173.787 201.889 L 173.787 201.889 L 173.787 201.889 Q 174.233 201.314 174.508 200.84 L 174.508 200.84 L 174.508 200.84 Q 174.783 200.365 174.907 199.955 L 174.907 199.955 L 174.907 199.955 Q 175.03 199.545 175.03 199.158 L 175.03 199.158 L 175.03 199.158 Q 175.03 198.584 174.866 198.139 L 174.866 198.139 L 174.866 198.139 Q 174.701 197.693 174.403 197.383 L 174.403 197.383 L 174.403 197.383 Q 174.104 197.072 173.688 196.908 L 173.688 196.908 L 173.688 196.908 Q 173.272 196.744 172.768 196.744 L 172.768 196.744 L 172.768 196.744 Q 171.42 196.744 170.758 197.494 L 170.758 197.494 L 170.758 197.494 Q 170.096 198.244 170.096 199.592 L 170.096 199.592 L 166.826 199.592 L 166.826 199.592 Q 166.826 198.455 167.26 197.441 L 167.26 197.441 L 167.26 197.441 Q 167.694 196.428 168.485 195.666 L 168.485 195.666 L 168.485 195.666 Q 169.276 194.904 170.395 194.465 L 170.395 194.465 L 170.395 194.465 Q 171.514 194.025 172.873 194.025 L 172.873 194.025 L 172.873 194.025 Q 174.174 194.025 175.176 194.389 L 175.176 194.389 L 175.176 194.389 Q 176.178 194.752 176.852 195.408 L 176.852 195.408 L 176.852 195.408 Q 177.526 196.064 177.877 196.984 L 177.877 196.984 L 177.877 196.984 Q 178.229 197.904 178.229 199.018 L 178.229 199.018 L 178.229 199.018 Q 178.229 199.861 177.965 200.629 L 177.965 200.629 L 177.965 200.629 Q 177.701 201.396 177.215 202.146 L 177.215 202.146 L 177.215 202.146 Q 176.729 202.896 176.049 203.676 L 176.049 203.676 L 176.049 203.676 Q 175.369 204.455 174.537 205.311 L 174.537 205.311 L 171.326 208.709 L 178.815 208.709 Z " fill="rgb(0,0,0)"/></g><g id="C3"><path d=" M 215.207 202 C 215.207 189.743 225.158 179.793 237.415 179.793 C 249.671 179.793 259.622 189.743 259.622 202 C 259.622 214.257 249.671 224.207 237.415 224.207 C 225.158 224.207 215.207 214.257 215.207 202 Z " fill="rgb(195,215,247)" vector-effect="non-scaling-stroke" stroke-width="2" stroke="rgb(0,0,0)" stroke-linejoin="miter" stroke-linecap="square" stroke-miterlimit="3"/><path d=" M 234.147 203.893 L 234.147 201.361 L 235.917 201.361 L 235.917 201.361 Q 237.253 201.361 237.897 200.688 L 237.897 200.688 L 237.897 200.688 Q 238.542 200.014 238.542 198.924 L 238.542 198.924 L 238.542 198.924 Q 238.542 198.42 238.395 198.004 L 238.395 198.004 L 238.395 198.004 Q 238.249 197.588 237.956 197.289 L 237.956 197.289 L 237.956 197.289 Q 237.663 196.99 237.212 196.826 L 237.212 196.826 L 237.212 196.826 Q 236.76 196.662 236.163 196.662 L 236.163 196.662 L 236.163 196.662 Q 235.671 196.662 235.243 196.803 L 235.243 196.803 L 235.243 196.803 Q 234.815 196.943 234.493 197.207 L 234.493 197.207 L 234.493 197.207 Q 234.171 197.471 233.983 197.846 L 233.983 197.846 L 233.983 197.846 Q 233.796 198.221 233.796 198.689 L 233.796 198.689 L 230.538 198.689 L 230.538 198.689 Q 230.538 197.646 230.965 196.791 L 230.965 196.791 L 230.965 196.791 Q 231.393 195.936 232.143 195.32 L 232.143 195.32 L 232.143 195.32 Q 232.893 194.705 233.907 194.365 L 233.907 194.365 L 233.907 194.365 Q 234.921 194.025 236.092 194.025 L 236.092 194.025 L 236.092 194.025 Q 237.358 194.025 238.413 194.336 L 238.413 194.336 L 238.413 194.336 Q 239.467 194.646 240.217 195.262 L 240.217 195.262 L 240.217 195.262 Q 240.967 195.877 241.383 196.785 L 241.383 196.785 L 241.383 196.785 Q 241.799 197.693 241.799 198.889 L 241.799 198.889 L 241.799 198.889 Q 241.799 199.439 241.635 199.973 L 241.635 199.973 L 241.635 199.973 Q 241.471 200.506 241.155 200.986 L 241.155 200.986 L 241.155 200.986 Q 240.838 201.467 240.37 201.871 L 240.37 201.871 L 240.37 201.871 Q 239.901 202.275 239.292 202.568 L 239.292 202.568 L 239.292 202.568 Q 240.006 202.826 240.528 203.225 L 240.528 203.225 L 240.528 203.225 Q 241.049 203.623 241.389 204.133 L 241.389 204.133 L 241.389 204.133 Q 241.729 204.643 241.893 205.252 L 241.893 205.252 L 241.893 205.252 Q 242.057 205.861 242.057 206.541 L 242.057 206.541 L 242.057 206.541 Q 242.057 207.736 241.6 208.674 L 241.6 208.674 L 241.6 208.674 Q 241.143 209.611 240.346 210.25 L 240.346 210.25 L 240.346 210.25 Q 239.549 210.889 238.454 211.223 L 238.454 211.223 L 238.454 211.223 Q 237.358 211.557 236.092 211.557 L 236.092 211.557 L 236.092 211.557 Q 235.003 211.557 233.965 211.258 L 233.965 211.258 L 233.965 211.258 Q 232.928 210.959 232.12 210.355 L 232.12 210.355 L 232.12 210.355 Q 231.311 209.752 230.825 208.838 L 230.825 208.838 L 230.825 208.838 Q 230.338 207.924 230.338 206.682 L 230.338 206.682 L 233.596 206.682 L 233.596 206.682 Q 233.596 207.174 233.784 207.59 L 233.784 207.59 L 233.784 207.59 Q 233.971 208.006 234.317 208.305 L 234.317 208.305 L 234.317 208.305 Q 234.663 208.604 235.131 208.773 L 235.131 208.773 L 235.131 208.773 Q 235.6 208.943 236.163 208.943 L 236.163 208.943 L 236.163 208.943 Q 237.405 208.943 238.108 208.287 L 238.108 208.287 L 238.108 208.287 Q 238.811 207.631 238.811 206.506 L 238.811 206.506 L 238.811 206.506 Q 238.811 205.814 238.612 205.322 L 238.612 205.322 L 238.612 205.322 Q 238.413 204.83 238.032 204.514 L 238.032 204.514 L 238.032 204.514 Q 237.651 204.197 237.118 204.045 L 237.118 204.045 L 237.118 204.045 Q 236.585 203.893 235.917 203.893 L 235.917 203.893 L 234.147 203.893 Z " fill="rgb(0,0,0)"/></g><g id="C4"><path d=" M 278.415 202 C 278.415 189.743 288.365 179.793 300.622 179.793 C 312.879 179.793 322.829 189.743 322.829 202 C 322.829 214.257 312.879 224.207 300.622 224.207 C 288.365 224.207 278.415 214.257 278.415 202 Z " fill="rgb(195,215,247)" vector-effect="non-scaling-stroke" stroke-width="2" stroke="rgb(0,0,0)" stroke-linejoin="miter" stroke-linecap="square" stroke-miterlimit="3"/><path d=" M 303.589 194.26 L 303.589 204.982 L 305.569 204.982 L 305.569 207.619 L 303.589 207.619 L 303.589 211.322 L 300.331 211.322 L 300.331 207.619 L 293.241 207.619 L 293.112 205.58 L 300.284 194.26 L 303.589 194.26 Z  M 300.015 199.205 L 296.311 204.982 L 300.331 204.982 L 300.331 198.643 L 300.015 199.205 Z " fill-rule="evenodd" fill="rgb(0,0,0)"/></g><g id="C5"><path d=" M 306.386 280 C 306.386 267.743 316.337 257.793 328.594 257.793 C 340.85 257.793 350.801 267.743 350.801 280 C 350.801 292.257 340.85 302.207 328.594 302.207 C 316.337 302.207 306.386 292.257 306.386 280 Z " fill="rgb(209,209,209)" vector-effect="non-scaling-stroke" stroke-width="2" stroke="rgb(0,0,0)" stroke-linejoin="miter" stroke-linecap="square" stroke-miterlimit="3"/><path d=" M 324.81 281.564 L 322.209 280.92 L 323.181 272.26 L 332.65 272.26 L 332.65 275.025 L 325.865 275.025 L 325.455 278.775 L 325.455 278.775 Q 325.818 278.564 326.486 278.342 L 326.486 278.342 L 326.486 278.342 Q 327.154 278.119 328.021 278.119 L 328.021 278.119 L 328.021 278.119 Q 329.252 278.119 330.219 278.512 L 330.219 278.512 L 330.219 278.512 Q 331.185 278.904 331.847 279.643 L 331.847 279.643 L 331.847 279.643 Q 332.51 280.381 332.861 281.447 L 332.861 281.447 L 332.861 281.447 Q 333.213 282.514 333.213 283.861 L 333.213 283.861 L 333.213 283.861 Q 333.213 285.01 332.873 286.041 L 332.873 286.041 L 332.873 286.041 Q 332.533 287.072 331.83 287.857 L 331.83 287.857 L 331.83 287.857 Q 331.127 288.643 330.06 289.1 L 330.06 289.1 L 330.06 289.1 Q 328.994 289.557 327.541 289.557 L 327.541 289.557 L 327.541 289.557 Q 326.439 289.557 325.414 289.229 L 325.414 289.229 L 325.414 289.229 Q 324.388 288.9 323.592 288.268 L 323.592 288.268 L 323.592 288.268 Q 322.795 287.635 322.297 286.715 L 322.297 286.715 L 322.297 286.715 Q 321.799 285.795 321.763 284.611 L 321.763 284.611 L 324.974 284.611 L 324.974 284.611 Q 325.092 285.725 325.777 286.334 L 325.777 286.334 L 325.777 286.334 Q 326.463 286.943 327.529 286.943 L 327.529 286.943 L 327.529 286.943 Q 328.185 286.943 328.648 286.697 L 328.648 286.697 L 328.648 286.697 Q 329.111 286.451 329.398 286.018 L 329.398 286.018 L 329.398 286.018 Q 329.685 285.584 329.82 284.986 L 329.82 284.986 L 329.82 284.986 Q 329.955 284.389 329.955 283.697 L 329.955 283.697 L 329.955 283.697 Q 329.955 283.018 329.785 282.449 L 329.785 282.449 L 329.785 282.449 Q 329.615 281.881 329.263 281.471 L 329.263 281.471 L 329.263 281.471 Q 328.912 281.061 328.385 280.838 L 328.385 280.838 L 328.385 280.838 Q 327.857 280.615 327.142 280.615 L 327.142 280.615 L 327.142 280.615 Q 326.662 280.615 326.31 280.697 L 326.31 280.697 L 326.31 280.697 Q 325.959 280.779 325.689 280.908 L 325.689 280.908 L 325.689 280.908 Q 325.42 281.037 325.209 281.207 L 325.209 281.207 L 325.209 281.207 Q 324.998 281.377 324.81 281.564 L 324.81 281.564 Z " fill="rgb(0,0,0)"/></g><g id="C6"><path d=" M 368 280 C 368 267.743 377.951 257.793 390.207 257.793 C 402.464 257.793 412.415 267.743 412.415 280 C 412.415 292.257 402.464 302.207 390.207 302.207 C 377.951 302.207 368 292.257 368 280 Z " fill="rgb(209,209,209)" vector-effect="non-scaling-stroke" stroke-width="2" stroke="rgb(0,0,0)" stroke-linejoin="miter" stroke-linecap="square" stroke-miterlimit="3"/><path d=" M 391.873 272.119 L 392.307 272.119 L 392.307 274.826 L 392.119 274.826 L 392.119 274.826 Q 390.83 274.826 389.84 275.166 L 389.84 275.166 L 389.84 275.166 Q 388.85 275.506 388.153 276.127 L 388.153 276.127 L 388.153 276.127 Q 387.455 276.748 387.051 277.615 L 387.051 277.615 L 387.051 277.615 Q 386.647 278.482 386.541 279.549 L 386.541 279.549 L 386.541 279.549 Q 386.811 279.256 387.162 278.969 L 387.162 278.969 L 387.162 278.969 Q 387.514 278.682 387.953 278.453 L 387.953 278.453 L 387.953 278.453 Q 388.393 278.225 388.908 278.084 L 388.908 278.084 L 388.908 278.084 Q 389.424 277.943 390.022 277.943 L 390.022 277.943 L 390.022 277.943 Q 391.241 277.943 392.149 278.406 L 392.149 278.406 L 392.149 278.406 Q 393.057 278.869 393.666 279.66 L 393.666 279.66 L 393.666 279.66 Q 394.276 280.451 394.575 281.5 L 394.575 281.5 L 394.575 281.5 Q 394.873 282.549 394.873 283.709 L 394.873 283.709 L 394.873 283.709 Q 394.873 284.951 394.475 286.018 L 394.475 286.018 L 394.475 286.018 Q 394.076 287.084 393.338 287.869 L 393.338 287.869 L 393.338 287.869 Q 392.6 288.654 391.545 289.105 L 391.545 289.105 L 391.545 289.105 Q 390.491 289.557 389.178 289.557 L 389.178 289.557 L 389.178 289.557 Q 387.807 289.557 386.705 289.047 L 386.705 289.047 L 386.705 289.047 Q 385.604 288.537 384.836 287.635 L 384.836 287.635 L 384.836 287.635 Q 384.069 286.732 383.653 285.496 L 383.653 285.496 L 383.653 285.496 Q 383.237 284.26 383.237 282.795 L 383.237 282.795 L 383.237 281.541 L 383.237 281.541 Q 383.237 279.514 383.787 277.785 L 383.787 277.785 L 383.787 277.785 Q 384.338 276.057 385.428 274.797 L 385.428 274.797 L 385.428 274.797 Q 386.518 273.537 388.135 272.828 L 388.135 272.828 L 388.135 272.828 Q 389.752 272.119 391.873 272.119 L 391.873 272.119 Z  M 389.073 280.557 L 389.073 280.557 L 389.073 280.557 Q 388.194 280.557 387.52 281.025 L 387.52 281.025 L 387.52 281.025 Q 386.846 281.494 386.506 282.232 L 386.506 282.232 L 386.506 283.193 L 386.506 283.193 Q 386.506 284.131 386.7 284.834 L 386.7 284.834 L 386.7 284.834 Q 386.893 285.537 387.244 286 L 387.244 286 L 387.244 286 Q 387.596 286.463 388.076 286.697 L 388.076 286.697 L 388.076 286.697 Q 388.557 286.932 389.119 286.932 L 389.119 286.932 L 389.119 286.932 Q 389.694 286.932 390.162 286.691 L 390.162 286.691 L 390.162 286.691 Q 390.631 286.451 390.959 286.029 L 390.959 286.029 L 390.959 286.029 Q 391.287 285.607 391.463 285.027 L 391.463 285.027 L 391.463 285.027 Q 391.639 284.447 391.639 283.756 L 391.639 283.756 L 391.639 283.756 Q 391.639 283.064 391.463 282.479 L 391.463 282.479 L 391.463 282.479 Q 391.287 281.893 390.959 281.465 L 390.959 281.465 L 390.959 281.465 Q 390.631 281.037 390.157 280.797 L 390.157 280.797 L 390.157 280.797 Q 389.682 280.557 389.073 280.557 Z " fill-rule="evenodd" fill="rgb(0,0,0)"/></g><g id="C7"><path d=" M 365.118 202 C 365.118 189.743 375.069 179.793 387.325 179.793 C 399.582 179.793 409.533 189.743 409.533 202 C 409.533 214.257 399.582 224.207 387.325 224.207 C 375.069 224.207 365.118 214.257 365.118 202 Z " fill="rgb(195,215,247)" vector-effect="non-scaling-stroke" stroke-width="2" stroke="rgb(0,0,0)" stroke-linejoin="miter" stroke-linecap="square" stroke-miterlimit="3"/><path d=" M 391.921 194.26 L 391.921 196.076 L 385.276 211.322 L 381.843 211.322 L 388.499 196.92 L 379.933 196.92 L 379.933 194.26 L 391.921 194.26 Z " fill="rgb(0,0,0)"/></g><g id="C8"><path d=" M 429.614 280 C 429.614 267.743 439.565 257.793 451.821 257.793 C 464.078 257.793 474.028 267.743 474.028 280 C 474.028 292.257 464.078 302.207 451.821 302.207 C 439.565 302.207 429.614 292.257 429.614 280 Z " fill="rgb(209,209,209)" vector-effect="non-scaling-stroke" stroke-width="2" stroke="rgb(0,0,0)" stroke-linejoin="miter" stroke-linecap="square" stroke-miterlimit="3"/><path d=" M 455.983 276.795 L 455.983 276.795 L 455.983 276.795 Q 455.983 278.037 455.356 279.004 L 455.356 279.004 L 455.356 279.004 Q 454.729 279.971 453.639 280.545 L 453.639 280.545 L 453.639 280.545 Q 454.882 281.131 455.614 282.186 L 455.614 282.186 L 455.614 282.186 Q 456.347 283.24 456.347 284.658 L 456.347 284.658 L 456.347 284.658 Q 456.347 285.865 455.907 286.779 L 455.907 286.779 L 455.907 286.779 Q 455.468 287.693 454.7 288.309 L 454.7 288.309 L 454.7 288.309 Q 453.932 288.924 452.889 289.24 L 452.889 289.24 L 452.889 289.24 Q 451.847 289.557 450.639 289.557 L 450.639 289.557 L 450.639 289.557 Q 449.421 289.557 448.372 289.24 L 448.372 289.24 L 448.372 289.24 Q 447.323 288.924 446.55 288.309 L 446.55 288.309 L 446.55 288.309 Q 445.776 287.693 445.337 286.779 L 445.337 286.779 L 445.337 286.779 Q 444.897 285.865 444.897 284.658 L 444.897 284.658 L 444.897 284.658 Q 444.897 283.955 445.091 283.328 L 445.091 283.328 L 445.091 283.328 Q 445.284 282.701 445.636 282.18 L 445.636 282.18 L 445.636 282.18 Q 445.987 281.658 446.485 281.242 L 446.485 281.242 L 446.485 281.242 Q 446.983 280.826 447.604 280.533 L 447.604 280.533 L 447.604 280.533 Q 446.514 279.971 445.893 279.004 L 445.893 279.004 L 445.893 279.004 Q 445.272 278.037 445.272 276.795 L 445.272 276.795 L 445.272 276.795 Q 445.272 275.635 445.671 274.75 L 445.671 274.75 L 445.671 274.75 Q 446.069 273.865 446.778 273.256 L 446.778 273.256 L 446.778 273.256 Q 447.487 272.646 448.466 272.336 L 448.466 272.336 L 448.466 272.336 Q 449.444 272.025 450.604 272.025 L 450.604 272.025 L 450.604 272.025 Q 451.764 272.025 452.749 272.336 L 452.749 272.336 L 452.749 272.336 Q 453.733 272.646 454.454 273.256 L 454.454 273.256 L 454.454 273.256 Q 455.175 273.865 455.579 274.75 L 455.579 274.75 L 455.579 274.75 Q 455.983 275.635 455.983 276.795 Z  M 453.077 284.436 L 453.077 284.436 L 453.077 284.436 Q 453.077 283.85 452.901 283.381 L 452.901 283.381 L 452.901 283.381 Q 452.725 282.912 452.403 282.578 L 452.403 282.578 L 452.403 282.578 Q 452.081 282.244 451.63 282.068 L 451.63 282.068 L 451.63 282.068 Q 451.179 281.893 450.616 281.893 L 450.616 281.893 L 450.616 281.893 Q 450.054 281.893 449.602 282.068 L 449.602 282.068 L 449.602 282.068 Q 449.151 282.244 448.835 282.578 L 448.835 282.578 L 448.835 282.578 Q 448.518 282.912 448.343 283.381 L 448.343 283.381 L 448.343 283.381 Q 448.167 283.85 448.167 284.436 L 448.167 284.436 L 448.167 284.436 Q 448.167 285.607 448.835 286.275 L 448.835 286.275 L 448.835 286.275 Q 449.503 286.943 450.639 286.943 L 450.639 286.943 L 450.639 286.943 Q 451.179 286.943 451.624 286.773 L 451.624 286.773 L 451.624 286.773 Q 452.069 286.604 452.391 286.275 L 452.391 286.275 L 452.391 286.275 Q 452.714 285.947 452.895 285.484 L 452.895 285.484 L 452.895 285.484 Q 453.077 285.021 453.077 284.436 Z  M 452.737 276.947 L 452.737 276.947 L 452.737 276.947 Q 452.737 276.432 452.585 276.01 L 452.585 276.01 L 452.585 276.01 Q 452.432 275.588 452.157 275.289 L 452.157 275.289 L 452.157 275.289 Q 451.882 274.99 451.489 274.826 L 451.489 274.826 L 451.489 274.826 Q 451.097 274.662 450.604 274.662 L 450.604 274.662 L 450.604 274.662 Q 449.608 274.662 449.069 275.271 L 449.069 275.271 L 449.069 275.271 Q 448.53 275.881 448.53 276.947 L 448.53 276.947 L 448.53 276.947 Q 448.53 277.463 448.671 277.891 L 448.671 277.891 L 448.671 277.891 Q 448.811 278.318 449.087 278.623 L 449.087 278.623 L 449.087 278.623 Q 449.362 278.928 449.755 279.098 L 449.755 279.098 L 449.755 279.098 Q 450.147 279.268 450.639 279.268 L 450.639 279.268 L 450.639 279.268 Q 451.132 279.268 451.518 279.098 L 451.518 279.098 L 451.518 279.098 Q 451.905 278.928 452.175 278.623 L 452.175 278.623 L 452.175 278.623 Q 452.444 278.318 452.591 277.891 L 452.591 277.891 L 452.591 277.891 Q 452.737 277.463 452.737 276.947 Z " fill-rule="evenodd" fill="rgb(0,0,0)"/></g><g id="C9"><path d=" M 457.793 202 C 457.793 189.743 467.743 179.793 480 179.793 C 492.257 179.793 502.207 189.743 502.207 202 C 502.207 214.257 492.257 224.207 480 224.207 C 467.743 224.207 457.793 214.257 457.793 202 Z " fill="rgb(195,215,247)" vector-effect="non-scaling-stroke" stroke-width="2" stroke="rgb(0,0,0)" stroke-linejoin="miter" stroke-linecap="square" stroke-miterlimit="3"/><path d=" M 475.467 208.732 L 475.689 208.732 L 475.689 208.732 Q 477.002 208.732 477.963 208.451 L 477.963 208.451 L 477.963 208.451 Q 478.924 208.17 479.574 207.637 L 479.574 207.637 L 479.574 207.637 Q 480.225 207.104 480.582 206.336 L 480.582 206.336 L 480.582 206.336 Q 480.939 205.568 481.045 204.596 L 481.045 204.596 L 481.045 204.596 Q 480.553 205.088 479.779 205.439 L 479.779 205.439 L 479.779 205.439 Q 479.006 205.791 477.904 205.791 L 477.904 205.791 L 477.904 205.791 Q 476.686 205.791 475.76 205.346 L 475.76 205.346 L 475.76 205.346 Q 474.834 204.9 474.207 204.127 L 474.207 204.127 L 474.207 204.127 Q 473.58 203.354 473.258 202.305 L 473.258 202.305 L 473.258 202.305 Q 472.936 201.256 472.936 200.049 L 472.936 200.049 L 472.936 200.049 Q 472.936 198.807 473.328 197.711 L 473.328 197.711 L 473.328 197.711 Q 473.721 196.615 474.459 195.795 L 474.459 195.795 L 474.459 195.795 Q 475.197 194.975 476.246 194.5 L 476.246 194.5 L 476.246 194.5 Q 477.295 194.025 478.607 194.025 L 478.607 194.025 L 478.607 194.025 Q 479.943 194.025 481.01 194.541 L 481.01 194.541 L 481.01 194.541 Q 482.076 195.057 482.82 195.982 L 482.82 195.982 L 482.82 195.982 Q 483.564 196.908 483.957 198.186 L 483.957 198.186 L 483.957 198.186 Q 484.35 199.463 484.35 200.986 L 484.35 200.986 L 484.35 202.111 L 484.35 202.111 Q 484.35 204.15 483.846 205.861 L 483.846 205.861 L 483.846 205.861 Q 483.342 207.572 482.287 208.82 L 482.287 208.82 L 482.287 208.82 Q 481.232 210.068 479.604 210.766 L 479.604 210.766 L 479.604 210.766 Q 477.975 211.463 475.713 211.463 L 475.713 211.463 L 475.467 211.463 L 475.467 208.732 Z  M 478.678 203.271 L 478.678 203.271 L 478.678 203.271 Q 479.123 203.271 479.504 203.143 L 479.504 203.143 L 479.504 203.143 Q 479.885 203.014 480.195 202.785 L 480.195 202.785 L 480.195 202.785 Q 480.506 202.557 480.734 202.246 L 480.734 202.246 L 480.734 202.246 Q 480.963 201.936 481.104 201.572 L 481.104 201.572 L 481.104 200.412 L 481.104 200.412 Q 481.104 199.475 480.91 198.771 L 480.91 198.771 L 480.91 198.771 Q 480.717 198.068 480.377 197.6 L 480.377 197.6 L 480.377 197.6 Q 480.037 197.131 479.58 196.896 L 479.58 196.896 L 479.58 196.896 Q 479.123 196.662 478.596 196.662 L 478.596 196.662 L 478.596 196.662 Q 478.021 196.662 477.57 196.938 L 477.57 196.938 L 477.57 196.938 Q 477.119 197.213 476.814 197.676 L 476.814 197.676 L 476.814 197.676 Q 476.51 198.139 476.346 198.742 L 476.346 198.742 L 476.346 198.742 Q 476.182 199.346 476.182 200.002 L 476.182 200.002 L 476.182 200.002 Q 476.182 200.658 476.334 201.256 L 476.334 201.256 L 476.334 201.256 Q 476.486 201.854 476.797 202.299 L 476.797 202.299 L 476.797 202.299 Q 477.107 202.744 477.576 203.008 L 477.576 203.008 L 477.576 203.008 Q 478.045 203.271 478.678 203.271 Z " fill-rule="evenodd" fill="rgb(0,0,0)"/></g><g id="C10"><path d=" M 550.467 202 C 550.467 189.743 560.418 179.793 572.675 179.793 C 584.931 179.793 594.882 189.743 594.882 202 C 594.882 214.257 584.931 224.207 572.675 224.207 C 560.418 224.207 550.467 214.257 550.467 202 Z " fill="rgb(195,215,247)" vector-effect="non-scaling-stroke" stroke-width="2" stroke="rgb(0,0,0)" stroke-linejoin="miter" stroke-linecap="square" stroke-miterlimit="3"/><path d=" M 566.905 194.26 L 566.905 211.322 L 563.612 211.322 L 563.612 198.232 L 559.3 199.779 L 559.3 196.943 L 566.729 194.26 L 566.905 194.26 Z  M 584.437 200.752 L 584.437 204.83 L 584.437 204.83 Q 584.437 206.482 584.056 207.742 L 584.056 207.742 L 584.056 207.742 Q 583.675 209.002 582.96 209.852 L 582.96 209.852 L 582.96 209.852 Q 582.245 210.701 581.214 211.135 L 581.214 211.135 L 581.214 211.135 Q 580.183 211.568 578.894 211.568 L 578.894 211.568 L 578.894 211.568 Q 577.616 211.568 576.585 211.135 L 576.585 211.135 L 576.585 211.135 Q 575.554 210.701 574.833 209.852 L 574.833 209.852 L 574.833 209.852 Q 574.112 209.002 573.72 207.742 L 573.72 207.742 L 573.72 207.742 Q 573.327 206.482 573.327 204.83 L 573.327 204.83 L 573.327 200.752 L 573.327 200.752 Q 573.327 199.1 573.714 197.84 L 573.714 197.84 L 573.714 197.84 Q 574.101 196.58 574.821 195.73 L 574.821 195.73 L 574.821 195.73 Q 575.542 194.881 576.567 194.447 L 576.567 194.447 L 576.567 194.447 Q 577.593 194.014 578.87 194.014 L 578.87 194.014 L 578.87 194.014 Q 580.159 194.014 581.19 194.447 L 581.19 194.447 L 581.19 194.447 Q 582.222 194.881 582.942 195.73 L 582.942 195.73 L 582.942 195.73 Q 583.663 196.58 584.05 197.84 L 584.05 197.84 L 584.05 197.84 Q 584.437 199.1 584.437 200.752 L 584.437 200.752 Z  M 576.608 200.236 L 576.608 203.424 L 581.155 200.037 L 581.155 200.037 Q 581.12 198.314 580.558 197.482 L 580.558 197.482 L 580.558 197.482 Q 579.995 196.65 578.87 196.65 L 578.87 196.65 L 578.87 196.65 Q 577.733 196.65 577.171 197.529 L 577.171 197.529 L 577.171 197.529 Q 576.608 198.408 576.608 200.236 L 576.608 200.236 Z  M 581.155 205.322 L 581.155 202.252 L 576.608 205.627 L 576.608 205.627 Q 576.667 207.314 577.229 208.129 L 577.229 208.129 L 577.229 208.129 Q 577.792 208.943 578.894 208.943 L 578.894 208.943 L 578.894 208.943 Q 580.042 208.943 580.599 208.053 L 580.599 208.053 L 580.599 208.053 Q 581.155 207.162 581.155 205.322 L 581.155 205.322 Z " fill-rule="evenodd" fill="rgb(0,0,0)"/></g><g id="C11"><path d=" M 277.179 111.793 C 277.179 99.536 287.13 89.585 299.386 89.585 C 311.643 89.585 321.594 99.536 321.594 111.793 C 321.594 124.049 311.643 134 299.386 134 C 287.13 134 277.179 124.049 277.179 111.793 Z " fill="rgb(211,240,193)" vector-effect="non-scaling-stroke" stroke-width="2" stroke="rgb(0,0,0)" stroke-linejoin="miter" stroke-linecap="square" stroke-miterlimit="3"/><path d=" M 293.617 104.052 L 293.617 121.115 L 290.324 121.115 L 290.324 108.025 L 286.011 109.572 L 286.011 106.736 L 293.441 104.052 L 293.617 104.052 Z  M 308.019 104.052 L 308.019 121.115 L 304.726 121.115 L 304.726 108.025 L 300.414 109.572 L 300.414 106.736 L 307.843 104.052 L 308.019 104.052 Z " fill-rule="evenodd" fill="rgb(0,0,0)"/></g><g id="C12"><path d=" M 346.411 111.793 C 346.411 99.536 356.361 89.585 368.618 89.585 C 380.874 89.585 390.825 99.536 390.825 111.793 C 390.825 124.049 380.874 134 368.618 134 C 356.361 134 346.411 124.049 346.411 111.793 Z " fill="rgb(211,240,193)" vector-effect="non-scaling-stroke" stroke-width="2" stroke="rgb(0,0,0)" stroke-linejoin="miter" stroke-linecap="square" stroke-miterlimit="3"/><path d=" M 362.848 104.052 L 362.848 121.115 L 359.555 121.115 L 359.555 108.025 L 355.243 109.572 L 355.243 106.736 L 362.673 104.052 L 362.848 104.052 Z  M 380.426 118.502 L 380.426 121.115 L 368.79 121.115 L 368.79 118.888 L 374.309 112.959 L 374.309 112.959 Q 374.954 112.256 375.399 111.681 L 375.399 111.681 L 375.399 111.681 Q 375.844 111.107 376.12 110.633 L 376.12 110.633 L 376.12 110.633 Q 376.395 110.158 376.518 109.748 L 376.518 109.748 L 376.518 109.748 Q 376.641 109.338 376.641 108.951 L 376.641 108.951 L 376.641 108.951 Q 376.641 108.377 376.477 107.931 L 376.477 107.931 L 376.477 107.931 Q 376.313 107.486 376.014 107.175 L 376.014 107.175 L 376.014 107.175 Q 375.716 106.865 375.3 106.701 L 375.3 106.701 L 375.3 106.701 Q 374.884 106.537 374.38 106.537 L 374.38 106.537 L 374.38 106.537 Q 373.032 106.537 372.37 107.287 L 372.37 107.287 L 372.37 107.287 Q 371.708 108.037 371.708 109.384 L 371.708 109.384 L 368.438 109.384 L 368.438 109.384 Q 368.438 108.248 368.872 107.234 L 368.872 107.234 L 368.872 107.234 Q 369.305 106.22 370.096 105.459 L 370.096 105.459 L 370.096 105.459 Q 370.887 104.697 372.007 104.258 L 372.007 104.258 L 372.007 104.258 Q 373.126 103.818 374.485 103.818 L 374.485 103.818 L 374.485 103.818 Q 375.786 103.818 376.788 104.181 L 376.788 104.181 L 376.788 104.181 Q 377.79 104.545 378.464 105.201 L 378.464 105.201 L 378.464 105.201 Q 379.137 105.857 379.489 106.777 L 379.489 106.777 L 379.489 106.777 Q 379.841 107.697 379.841 108.81 L 379.841 108.81 L 379.841 108.81 Q 379.841 109.654 379.577 110.422 L 379.577 110.422 L 379.577 110.422 Q 379.313 111.189 378.827 111.939 L 378.827 111.939 L 378.827 111.939 Q 378.341 112.689 377.661 113.468 L 377.661 113.468 L 377.661 113.468 Q 376.981 114.248 376.149 115.103 L 376.149 115.103 L 372.938 118.502 L 380.426 118.502 Z " fill-rule="evenodd" fill="rgb(0,0,0)"/></g><g id="C13"><path d=" M 639 202 C 639 189.743 648.951 179.793 661.207 179.793 C 673.464 179.793 683.415 189.743 683.415 202 C 683.415 214.257 673.464 224.207 661.207 224.207 C 648.951 224.207 639 214.257 639 202 Z " fill="rgb(195,215,247)" vector-effect="non-scaling-stroke" stroke-width="2" stroke="rgb(0,0,0)" stroke-linejoin="miter" stroke-linecap="square" stroke-miterlimit="3"/><path d=" M 655.438 194.26 L 655.438 211.322 L 652.145 211.322 L 652.145 198.232 L 647.832 199.779 L 647.832 196.943 L 655.262 194.26 L 655.438 194.26 Z  M 665.141 203.893 L 665.141 201.361 L 666.91 201.361 L 666.91 201.361 Q 668.246 201.361 668.891 200.688 L 668.891 200.688 L 668.891 200.688 Q 669.535 200.014 669.535 198.924 L 669.535 198.924 L 669.535 198.924 Q 669.535 198.42 669.389 198.004 L 669.389 198.004 L 669.389 198.004 Q 669.242 197.588 668.95 197.289 L 668.95 197.289 L 668.95 197.289 Q 668.657 196.99 668.205 196.826 L 668.205 196.826 L 668.205 196.826 Q 667.754 196.662 667.157 196.662 L 667.157 196.662 L 667.157 196.662 Q 666.664 196.662 666.237 196.803 L 666.237 196.803 L 666.237 196.803 Q 665.809 196.943 665.487 197.207 L 665.487 197.207 L 665.487 197.207 Q 665.164 197.471 664.977 197.846 L 664.977 197.846 L 664.977 197.846 Q 664.789 198.221 664.789 198.689 L 664.789 198.689 L 661.532 198.689 L 661.532 198.689 Q 661.532 197.646 661.959 196.791 L 661.959 196.791 L 661.959 196.791 Q 662.387 195.936 663.137 195.32 L 663.137 195.32 L 663.137 195.32 Q 663.887 194.705 664.901 194.365 L 664.901 194.365 L 664.901 194.365 Q 665.914 194.025 667.086 194.025 L 667.086 194.025 L 667.086 194.025 Q 668.352 194.025 669.407 194.336 L 669.407 194.336 L 669.407 194.336 Q 670.461 194.646 671.211 195.262 L 671.211 195.262 L 671.211 195.262 Q 671.961 195.877 672.377 196.785 L 672.377 196.785 L 672.377 196.785 Q 672.793 197.693 672.793 198.889 L 672.793 198.889 L 672.793 198.889 Q 672.793 199.439 672.629 199.973 L 672.629 199.973 L 672.629 199.973 Q 672.465 200.506 672.149 200.986 L 672.149 200.986 L 672.149 200.986 Q 671.832 201.467 671.364 201.871 L 671.364 201.871 L 671.364 201.871 Q 670.895 202.275 670.285 202.568 L 670.285 202.568 L 670.285 202.568 Q 671 202.826 671.522 203.225 L 671.522 203.225 L 671.522 203.225 Q 672.043 203.623 672.383 204.133 L 672.383 204.133 L 672.383 204.133 Q 672.723 204.643 672.887 205.252 L 672.887 205.252 L 672.887 205.252 Q 673.051 205.861 673.051 206.541 L 673.051 206.541 L 673.051 206.541 Q 673.051 207.736 672.594 208.674 L 672.594 208.674 L 672.594 208.674 Q 672.137 209.611 671.34 210.25 L 671.34 210.25 L 671.34 210.25 Q 670.543 210.889 669.448 211.223 L 669.448 211.223 L 669.448 211.223 Q 668.352 211.557 667.086 211.557 L 667.086 211.557 L 667.086 211.557 Q 665.996 211.557 664.959 211.258 L 664.959 211.258 L 664.959 211.258 Q 663.922 210.959 663.114 210.355 L 663.114 210.355 L 663.114 210.355 Q 662.305 209.752 661.819 208.838 L 661.819 208.838 L 661.819 208.838 Q 661.332 207.924 661.332 206.682 L 661.332 206.682 L 664.59 206.682 L 664.59 206.682 Q 664.59 207.174 664.778 207.59 L 664.778 207.59 L 664.778 207.59 Q 664.965 208.006 665.311 208.305 L 665.311 208.305 L 665.311 208.305 Q 665.657 208.604 666.125 208.773 L 666.125 208.773 L 666.125 208.773 Q 666.594 208.943 667.157 208.943 L 667.157 208.943 L 667.157 208.943 Q 668.399 208.943 669.102 208.287 L 669.102 208.287 L 669.102 208.287 Q 669.805 207.631 669.805 206.506 L 669.805 206.506 L 669.805 206.506 Q 669.805 205.814 669.606 205.322 L 669.606 205.322 L 669.606 205.322 Q 669.407 204.83 669.026 204.514 L 669.026 204.514 L 669.026 204.514 Q 668.645 204.197 668.112 204.045 L 668.112 204.045 L 668.112 204.045 Q 667.578 203.893 666.91 203.893 L 666.91 203.893 L 665.141 203.893 Z " fill-rule="evenodd" fill="rgb(0,0,0)"/></g><path d=" M 481 95.636 C 474.402 47.319 439.573 13.185 362.242 15.451 C 289.711 27.577 254.793 57.599 215.207 125.448" fill="none" vector-effect="non-scaling-stroke" stroke-width="2" stroke="rgb(200,13,0)" stroke-linejoin="miter" stroke-linecap="square" stroke-miterlimit="3"/><path d=" M 473.283 91.615 C 472.731 87.752 475.42 84.167 479.283 83.616 C 483.147 83.064 486.731 85.752 487.283 89.616 C 487.835 93.479 485.146 97.064 481.283 97.616 C 477.419 98.168 473.835 95.479 473.283 91.615 Z " fill="rgb(200,13,0)" stroke="none"/><path d=" M 212.14 116.697 L 211.09 132.473 L 224.341 123.847 L 215.381 125.152 L 212.14 116.697 Z " fill="rgb(200,13,0)" stroke="none"/><path d=" M 90.542 146.135 L 98.849 141.821 L 98.849 141.821 Q 101.255 140.571 103.148 141.17 L 103.148 141.17 L 103.148 141.17 Q 105.041 141.768 106.292 144.175 L 106.292 144.175 L 108.946 149.287 L 108.946 149.287 Q 110.196 151.693 109.598 153.587 L 109.598 153.587 L 109.598 153.587 Q 108.999 155.48 106.592 156.73 L 106.592 156.73 L 98.286 161.044 L 90.542 146.135 Z  M 105.113 151.278 L 102.458 146.166 L 102.458 146.166 Q 101.462 144.249 99.545 145.245 L 99.545 145.245 L 95.925 147.126 L 100.571 156.071 L 104.191 154.19 L 104.191 154.19 Q 106.108 153.195 105.113 151.278 L 105.113 151.278 Z  M 123.893 143.958 L 125.441 146.94 L 113.621 153.079 L 105.877 138.17 L 117.698 132.031 L 119.246 135.012 L 111.259 139.161 L 112.753 142.036 L 119.036 138.773 L 120.585 141.754 L 114.302 145.018 L 115.906 148.106 L 123.893 143.958 Z  M 128.192 130.366 L 134.387 142.293 L 130.553 144.285 L 124.358 132.357 L 119.885 134.681 L 118.337 131.699 L 131.116 125.061 L 132.664 128.043 L 128.192 130.366 Z  M 142.588 134.653 L 143.013 137.813 L 138.859 139.97 L 136.76 122.13 L 141.02 119.917 L 154.407 131.895 L 150.254 134.052 L 147.913 131.887 L 142.588 134.653 Z  M 141.213 125.496 L 142.109 131.386 L 145.516 129.616 L 141.213 125.496 Z  M 165.369 122.28 L 166.863 125.155 L 166.863 125.155 Q 162.334 128.048 159.204 129.674 L 159.204 129.674 L 159.204 129.674 Q 157.116 130.758 155.628 130.287 L 155.628 130.287 L 155.628 130.287 Q 154.139 129.816 153.055 127.729 L 153.055 127.729 L 149.515 120.914 L 149.515 120.914 Q 148.354 118.677 148.84 117.14 L 148.84 117.14 L 148.84 117.14 Q 149.326 115.603 151.562 114.442 L 151.562 114.442 L 159.23 110.459 L 160.778 113.441 L 153.963 116.981 L 153.963 116.981 Q 152.685 117.645 153.349 118.923 L 153.349 118.923 L 156.889 125.738 L 156.889 125.738 Q 157.143 126.228 157.58 126.366 L 157.58 126.366 L 157.58 126.366 Q 158.017 126.504 158.464 126.272 L 158.464 126.272 L 158.464 126.272 Q 158.911 126.04 159.438 125.752 L 159.438 125.752 L 159.438 125.752 Q 159.965 125.465 160.529 125.145 L 160.529 125.145 L 160.529 125.145 Q 161.093 124.825 161.668 124.5 L 161.668 124.5 L 161.668 124.5 Q 162.243 124.174 163.136 123.629 L 163.136 123.629 L 163.136 123.629 Q 164.029 123.084 165.369 122.28 L 165.369 122.28 Z  M 173.926 102.826 L 181.669 117.735 L 177.836 119.726 L 174.683 113.656 L 169.358 116.422 L 172.511 122.492 L 168.677 124.483 L 160.934 109.574 L 164.767 107.583 L 167.809 113.44 L 173.134 110.674 L 170.092 104.817 L 173.926 102.826 Z  M 194.497 107.286 L 196.046 110.268 L 184.225 116.408 L 176.482 101.499 L 188.302 95.359 L 189.851 98.341 L 181.864 102.489 L 183.357 105.365 L 189.64 102.101 L 191.189 105.083 L 184.906 108.346 L 186.51 111.435 L 194.497 107.286 Z  M 190.006 94.474 L 198.312 90.16 L 198.312 90.16 Q 200.719 88.91 202.612 89.509 L 202.612 89.509 L 202.612 89.509 Q 204.505 90.107 205.755 92.514 L 205.755 92.514 L 208.41 97.626 L 208.41 97.626 Q 209.66 100.033 209.062 101.926 L 209.062 101.926 L 209.062 101.926 Q 208.463 103.819 206.056 105.069 L 206.056 105.069 L 197.75 109.383 L 190.006 94.474 Z  M 204.577 99.617 L 201.922 94.505 L 201.922 94.505 Q 200.926 92.588 199.009 93.584 L 199.009 93.584 L 195.388 95.465 L 200.035 104.41 L 203.655 102.529 L 203.655 102.529 Q 205.572 101.534 204.577 99.617 L 204.577 99.617 Z " fill-rule="evenodd" fill="rgb(251,0,0)"/></g></svg>