<?xml version="1.0" standalone="no"?><!-- Generator: Gravit.io --><svg xmlns="http://www.w3.org/2000/svg" xmlns:xlink="http://www.w3.org/1999/xlink" style="isolation:isolate" viewBox="0 0 800 400" width="800" height="400"><defs><clipPath id="_clipPath_T0CfK5PMUxsu5Vmjv6TaTan5lZzbm5gA"><rect width="800" height="400"/></clipPath></defs><g clip-path="url(#_clipPath_T0CfK5PMUxsu5Vmjv6TaTan5lZzbm5gA)"><line x1="61" y1="246.5" x2="725.63" y2="246.5" vector-effect="non-scaling-stroke" stroke-width="2" stroke="rgb(0,0,0)" stroke-linejoin="miter" stroke-linecap="square" stroke-miterlimit="3"/><line x1="278.594" y1="324.5" x2="401.651" y2="324.5" vector-effect="non-scaling-stroke" stroke-width="2" stroke="rgb(0,0,0)" stroke-linejoin="miter" stroke-linecap="square" stroke-miterlimit="3"/><line x1="249.471" y1="156.293" x2="318.817" y2="156.293" vector-effect="non-scaling-stroke" stroke-width="2" stroke="rgb(0,0,0)" stroke-linejoin="miter" stroke-linecap="square" stroke-miterlimit="3"/><line x1="278.594" y1="324.5" x2="250.622" y2="246.5" vector-effect="non-scaling-stroke" stroke-width="2" stroke="rgb(0,0,0)" stroke-linejoin="miter" stroke-linecap="square" stroke-miterlimit="3"/><line x1="401.821" y1="324.5" x2="431" y2="246.5" vector-effect="non-scaling-stroke" stroke-width="2" stroke="rgb(0,0,0)" stroke-linejoin="miter" stroke-linecap="square" stroke-miterlimit="3"/><line x1="187.793" y1="246.5" x2="249.386" y2="156.293" vector-effect="non-scaling-stroke" stroke-width="2" stroke="rgb(0,0,0)" stroke-linejoin="miter" stroke-linecap="square" stroke-miterlimit="3"/><g id="Bmaster"><path d="M 682.676 182.293 L 767.324 182.293 C 771.56 182.293 775 185.732 775 189.969 L 775 211.617 C 775 215.853 771.56 219.293 767.324 219.293 L 682.676 219.293 C 678.44 219.293 675 215.853 675 211.617 L 675 189.969 C 675 185.732 678.44 182.293 682.676 182.293 Z" style="stroke:none;fill:#9FC4FF;stroke-miterlimit:10;"/><path d="M 682.676 182.293 L 767.324 182.293 C 771.56 182.293 775 185.732 775 189.969 L 775 211.617 C 775 215.853 771.56 219.293 767.324 219.293 L 682.676 219.293 C 678.44 219.293 675 215.853 675 211.617 L 675 189.969 C 675 185.732 678.44 182.293 682.676 182.293 Z" style="fill:none;stroke:#000000;stroke-width:1.6855342301554246;stroke-linecap:square;stroke-miterlimit:3;"/><path d=" M 700.218 202.573 L 700.218 208.051 L 697.239 208.051 L 697.239 201.675 L 697.239 201.675 Q 697.239 200.493 696.844 199.902 L 696.844 199.902 L 696.844 199.902 Q 696.448 199.311 695.599 199.311 L 695.599 199.311 L 695.599 199.311 Q 694.456 199.311 693.938 200.151 L 693.938 200.151 L 693.938 200.151 Q 693.421 200.991 693.421 202.915 L 693.421 202.915 L 693.421 208.051 L 690.442 208.051 L 690.442 197.133 L 692.718 197.133 L 693.118 198.53 L 693.284 198.53 L 693.284 198.53 Q 693.724 197.778 694.554 197.353 L 694.554 197.353 L 694.554 197.353 Q 695.384 196.928 696.458 196.928 L 696.458 196.928 L 696.458 196.928 Q 698.909 196.928 699.778 198.53 L 699.778 198.53 L 700.042 198.53 L 700.042 198.53 Q 700.481 197.768 701.336 197.348 L 701.336 197.348 L 701.336 197.348 Q 702.19 196.928 703.265 196.928 L 703.265 196.928 L 703.265 196.928 Q 705.12 196.928 706.072 197.881 L 706.072 197.881 L 706.072 197.881 Q 707.024 198.833 707.024 200.932 L 707.024 200.932 L 707.024 208.051 L 704.036 208.051 L 704.036 201.675 L 704.036 201.675 Q 704.036 200.493 703.641 199.902 L 703.641 199.902 L 703.641 199.902 Q 703.245 199.311 702.396 199.311 L 702.396 199.311 L 702.396 199.311 Q 701.302 199.311 700.76 200.092 L 700.76 200.092 L 700.76 200.092 Q 700.218 200.874 700.218 202.573 L 700.218 202.573 Z  M 719.095 208.051 L 717.015 208.051 L 716.438 206.567 L 716.36 206.567 L 716.36 206.567 Q 715.608 207.514 714.813 207.881 L 714.813 207.881 L 714.813 207.881 Q 714.017 208.247 712.737 208.247 L 712.737 208.247 L 712.737 208.247 Q 711.165 208.247 710.262 207.348 L 710.262 207.348 L 710.262 207.348 Q 709.358 206.45 709.358 204.79 L 709.358 204.79 L 709.358 204.79 Q 709.358 203.051 710.574 202.226 L 710.574 202.226 L 710.574 202.226 Q 711.79 201.401 714.241 201.313 L 714.241 201.313 L 716.136 201.255 L 716.136 200.776 L 716.136 200.776 Q 716.136 199.116 714.437 199.116 L 714.437 199.116 L 714.437 199.116 Q 713.128 199.116 711.36 199.907 L 711.36 199.907 L 710.374 197.895 L 710.374 197.895 Q 712.259 196.909 714.554 196.909 L 714.554 196.909 L 714.554 196.909 Q 716.751 196.909 717.923 197.866 L 717.923 197.866 L 717.923 197.866 Q 719.095 198.823 719.095 200.776 L 719.095 200.776 L 719.095 208.051 Z  M 716.136 203.891 L 716.136 202.993 L 714.983 203.032 L 714.983 203.032 Q 713.685 203.071 713.05 203.501 L 713.05 203.501 L 713.05 203.501 Q 712.415 203.93 712.415 204.809 L 712.415 204.809 L 712.415 204.809 Q 712.415 206.069 713.86 206.069 L 713.86 206.069 L 713.86 206.069 Q 714.896 206.069 715.516 205.473 L 715.516 205.473 L 715.516 205.473 Q 716.136 204.878 716.136 203.891 L 716.136 203.891 Z  M 729.778 204.809 L 729.778 204.809 L 729.778 204.809 Q 729.778 206.489 728.611 207.368 L 728.611 207.368 L 728.611 207.368 Q 727.444 208.247 725.12 208.247 L 725.12 208.247 L 725.12 208.247 Q 723.929 208.247 723.089 208.086 L 723.089 208.086 L 723.089 208.086 Q 722.249 207.925 721.517 207.612 L 721.517 207.612 L 721.517 205.151 L 721.517 205.151 Q 722.347 205.542 723.387 205.805 L 723.387 205.805 L 723.387 205.805 Q 724.427 206.069 725.218 206.069 L 725.218 206.069 L 725.218 206.069 Q 726.839 206.069 726.839 205.132 L 726.839 205.132 L 726.839 205.132 Q 726.839 204.78 726.624 204.56 L 726.624 204.56 L 726.624 204.56 Q 726.409 204.341 725.882 204.062 L 725.882 204.062 L 725.882 204.062 Q 725.354 203.784 724.476 203.413 L 724.476 203.413 L 724.476 203.413 Q 723.216 202.885 722.625 202.436 L 722.625 202.436 L 722.625 202.436 Q 722.034 201.987 721.766 201.406 L 721.766 201.406 L 721.766 201.406 Q 721.497 200.825 721.497 199.975 L 721.497 199.975 L 721.497 199.975 Q 721.497 198.52 722.625 197.724 L 722.625 197.724 L 722.625 197.724 Q 723.753 196.928 725.823 196.928 L 725.823 196.928 L 725.823 196.928 Q 727.796 196.928 729.661 197.788 L 729.661 197.788 L 728.763 199.936 L 728.763 199.936 Q 727.942 199.585 727.229 199.36 L 727.229 199.36 L 727.229 199.36 Q 726.517 199.135 725.774 199.135 L 725.774 199.135 L 725.774 199.135 Q 724.456 199.135 724.456 199.848 L 724.456 199.848 L 724.456 199.848 Q 724.456 200.249 724.881 200.542 L 724.881 200.542 L 724.881 200.542 Q 725.306 200.835 726.741 201.411 L 726.741 201.411 L 726.741 201.411 Q 728.021 201.928 728.616 202.378 L 728.616 202.378 L 728.616 202.378 Q 729.212 202.827 729.495 203.413 L 729.495 203.413 L 729.495 203.413 Q 729.778 203.999 729.778 204.809 Z  M 736.702 205.874 L 736.702 205.874 L 736.702 205.874 Q 737.483 205.874 738.577 205.532 L 738.577 205.532 L 738.577 207.749 L 738.577 207.749 Q 737.464 208.247 735.843 208.247 L 735.843 208.247 L 735.843 208.247 Q 734.056 208.247 733.24 207.343 L 733.24 207.343 L 733.24 207.343 Q 732.425 206.44 732.425 204.633 L 732.425 204.633 L 732.425 199.37 L 730.999 199.37 L 730.999 198.11 L 732.64 197.114 L 733.499 194.809 L 735.403 194.809 L 735.403 197.133 L 738.46 197.133 L 738.46 199.37 L 735.403 199.37 L 735.403 204.633 L 735.403 204.633 Q 735.403 205.268 735.76 205.571 L 735.76 205.571 L 735.76 205.571 Q 736.116 205.874 736.702 205.874 Z  M 745.306 199.048 L 745.306 199.048 L 745.306 199.048 Q 744.358 199.048 743.821 199.648 L 743.821 199.648 L 743.821 199.648 Q 743.284 200.249 743.206 201.352 L 743.206 201.352 L 747.386 201.352 L 747.386 201.352 Q 747.366 200.249 746.81 199.648 L 746.81 199.648 L 746.81 199.648 Q 746.253 199.048 745.306 199.048 Z  M 745.726 208.247 L 745.726 208.247 L 745.726 208.247 Q 743.089 208.247 741.604 206.792 L 741.604 206.792 L 741.604 206.792 Q 740.12 205.337 740.12 202.671 L 740.12 202.671 L 740.12 202.671 Q 740.12 199.926 741.492 198.427 L 741.492 198.427 L 741.492 198.427 Q 742.864 196.928 745.286 196.928 L 745.286 196.928 L 745.286 196.928 Q 747.601 196.928 748.89 198.247 L 748.89 198.247 L 748.89 198.247 Q 750.179 199.565 750.179 201.889 L 750.179 201.889 L 750.179 203.335 L 743.138 203.335 L 743.138 203.335 Q 743.187 204.604 743.89 205.317 L 743.89 205.317 L 743.89 205.317 Q 744.593 206.03 745.862 206.03 L 745.862 206.03 L 745.862 206.03 Q 746.849 206.03 747.728 205.825 L 747.728 205.825 L 747.728 205.825 Q 748.606 205.62 749.563 205.171 L 749.563 205.171 L 749.563 207.475 L 749.563 207.475 Q 748.782 207.866 747.894 208.056 L 747.894 208.056 L 747.894 208.056 Q 747.005 208.247 745.726 208.247 Z  M 758.694 196.928 L 758.694 196.928 L 758.694 196.928 Q 759.3 196.928 759.7 197.016 L 759.7 197.016 L 759.476 199.809 L 759.476 199.809 Q 759.114 199.712 758.597 199.712 L 758.597 199.712 L 758.597 199.712 Q 757.171 199.712 756.375 200.444 L 756.375 200.444 L 756.375 200.444 Q 755.579 201.176 755.579 202.495 L 755.579 202.495 L 755.579 208.051 L 752.601 208.051 L 752.601 197.133 L 754.856 197.133 L 755.296 198.969 L 755.442 198.969 L 755.442 198.969 Q 755.95 198.051 756.814 197.49 L 756.814 197.49 L 756.814 197.49 Q 757.679 196.928 758.694 196.928 Z " fill-rule="evenodd" fill="rgb(0,0,0)"/></g><g id="Btest"><path d="M 276.294 92.293 L 360.942 92.293 C 365.178 92.293 368.618 95.732 368.618 99.969 L 368.618 121.617 C 368.618 125.853 365.178 129.293 360.942 129.293 L 276.294 129.293 C 272.057 129.293 268.618 125.853 268.618 121.617 L 268.618 99.969 C 268.618 95.732 272.057 92.293 276.294 92.293 Z" style="stroke:none;fill:#D3F0C1;stroke-linecap:square;stroke-miterlimit:3;"/><path d="M 276.294 92.293 L 360.942 92.293 C 365.178 92.293 368.618 95.732 368.618 99.969 L 368.618 121.617 C 368.618 125.853 365.178 129.293 360.942 129.293 L 276.294 129.293 C 272.057 129.293 268.618 125.853 268.618 121.617 L 268.618 99.969 C 268.618 95.732 272.057 92.293 276.294 92.293 Z" style="fill:none;stroke:#000000;stroke-width:1.6855342301554246;stroke-linecap:square;stroke-miterlimit:3;"/><path d=" M 304.219 116.374 L 304.219 116.374 L 304.219 116.374 Q 305.001 116.374 306.094 116.032 L 306.094 116.032 L 306.094 118.249 L 306.094 118.249 Q 304.981 118.747 303.36 118.747 L 303.36 118.747 L 303.36 118.747 Q 301.573 118.747 300.758 117.843 L 300.758 117.843 L 300.758 117.843 Q 299.942 116.94 299.942 115.133 L 299.942 115.133 L 299.942 109.87 L 298.516 109.87 L 298.516 108.61 L 300.157 107.614 L 301.016 105.309 L 302.921 105.309 L 302.921 107.633 L 305.977 107.633 L 305.977 109.87 L 302.921 109.87 L 302.921 115.133 L 302.921 115.133 Q 302.921 115.768 303.277 116.071 L 303.277 116.071 L 303.277 116.071 Q 303.634 116.374 304.219 116.374 Z  M 312.823 109.548 L 312.823 109.548 L 312.823 109.548 Q 311.876 109.548 311.339 110.148 L 311.339 110.148 L 311.339 110.148 Q 310.801 110.749 310.723 111.852 L 310.723 111.852 L 314.903 111.852 L 314.903 111.852 Q 314.884 110.749 314.327 110.148 L 314.327 110.148 L 314.327 110.148 Q 313.77 109.548 312.823 109.548 Z  M 313.243 118.747 L 313.243 118.747 L 313.243 118.747 Q 310.606 118.747 309.122 117.292 L 309.122 117.292 L 309.122 117.292 Q 307.637 115.837 307.637 113.171 L 307.637 113.171 L 307.637 113.171 Q 307.637 110.426 309.009 108.927 L 309.009 108.927 L 309.009 108.927 Q 310.382 107.428 312.803 107.428 L 312.803 107.428 L 312.803 107.428 Q 315.118 107.428 316.407 108.747 L 316.407 108.747 L 316.407 108.747 Q 317.696 110.065 317.696 112.389 L 317.696 112.389 L 317.696 113.835 L 310.655 113.835 L 310.655 113.835 Q 310.704 115.104 311.407 115.817 L 311.407 115.817 L 311.407 115.817 Q 312.11 116.53 313.38 116.53 L 313.38 116.53 L 313.38 116.53 Q 314.366 116.53 315.245 116.325 L 315.245 116.325 L 315.245 116.325 Q 316.124 116.12 317.081 115.671 L 317.081 115.671 L 317.081 117.975 L 317.081 117.975 Q 316.3 118.366 315.411 118.556 L 315.411 118.556 L 315.411 118.556 Q 314.522 118.747 313.243 118.747 Z  M 327.735 115.309 L 327.735 115.309 L 327.735 115.309 Q 327.735 116.989 326.568 117.868 L 326.568 117.868 L 326.568 117.868 Q 325.401 118.747 323.077 118.747 L 323.077 118.747 L 323.077 118.747 Q 321.885 118.747 321.046 118.586 L 321.046 118.586 L 321.046 118.586 Q 320.206 118.425 319.473 118.112 L 319.473 118.112 L 319.473 115.651 L 319.473 115.651 Q 320.303 116.042 321.343 116.305 L 321.343 116.305 L 321.343 116.305 Q 322.384 116.569 323.175 116.569 L 323.175 116.569 L 323.175 116.569 Q 324.796 116.569 324.796 115.632 L 324.796 115.632 L 324.796 115.632 Q 324.796 115.28 324.581 115.06 L 324.581 115.06 L 324.581 115.06 Q 324.366 114.841 323.839 114.562 L 323.839 114.562 L 323.839 114.562 Q 323.311 114.284 322.432 113.913 L 322.432 113.913 L 322.432 113.913 Q 321.173 113.385 320.582 112.936 L 320.582 112.936 L 320.582 112.936 Q 319.991 112.487 319.722 111.906 L 319.722 111.906 L 319.722 111.906 Q 319.454 111.325 319.454 110.475 L 319.454 110.475 L 319.454 110.475 Q 319.454 109.02 320.582 108.224 L 320.582 108.224 L 320.582 108.224 Q 321.71 107.428 323.78 107.428 L 323.78 107.428 L 323.78 107.428 Q 325.753 107.428 327.618 108.288 L 327.618 108.288 L 326.719 110.436 L 326.719 110.436 Q 325.899 110.085 325.186 109.86 L 325.186 109.86 L 325.186 109.86 Q 324.473 109.635 323.731 109.635 L 323.731 109.635 L 323.731 109.635 Q 322.413 109.635 322.413 110.348 L 322.413 110.348 L 322.413 110.348 Q 322.413 110.749 322.838 111.042 L 322.838 111.042 L 322.838 111.042 Q 323.262 111.335 324.698 111.911 L 324.698 111.911 L 324.698 111.911 Q 325.977 112.428 326.573 112.878 L 326.573 112.878 L 326.573 112.878 Q 327.169 113.327 327.452 113.913 L 327.452 113.913 L 327.452 113.913 Q 327.735 114.499 327.735 115.309 Z  M 334.659 116.374 L 334.659 116.374 L 334.659 116.374 Q 335.44 116.374 336.534 116.032 L 336.534 116.032 L 336.534 118.249 L 336.534 118.249 Q 335.421 118.747 333.8 118.747 L 333.8 118.747 L 333.8 118.747 Q 332.012 118.747 331.197 117.843 L 331.197 117.843 L 331.197 117.843 Q 330.382 116.94 330.382 115.133 L 330.382 115.133 L 330.382 109.87 L 328.956 109.87 L 328.956 108.61 L 330.596 107.614 L 331.456 105.309 L 333.36 105.309 L 333.36 107.633 L 336.417 107.633 L 336.417 109.87 L 333.36 109.87 L 333.36 115.133 L 333.36 115.133 Q 333.36 115.768 333.717 116.071 L 333.717 116.071 L 333.717 116.071 Q 334.073 116.374 334.659 116.374 Z " fill-rule="evenodd" fill="rgb(0,0,0)"/></g><g id="Bfeat1"><path d="M 388.676 182.293 L 473.324 182.293 C 477.56 182.293 481 185.732 481 189.969 L 481 211.617 C 481 215.853 477.56 219.293 473.324 219.293 L 388.676 219.293 C 384.44 219.293 381 215.853 381 211.617 L 381 189.969 C 381 185.732 384.44 182.293 388.676 182.293 Z" style="stroke:none;fill:#D1D1D1;stroke-linecap:square;stroke-miterlimit:3;"/><path d="M 388.676 182.293 L 473.324 182.293 C 477.56 182.293 481 185.732 481 189.969 L 481 211.617 C 481 215.853 477.56 219.293 473.324 219.293 L 388.676 219.293 C 384.44 219.293 381 215.853 381 211.617 L 381 189.969 C 381 185.732 384.44 182.293 388.676 182.293 Z" style="fill:none;stroke:#000000;stroke-width:1.6855342301554246;stroke-linecap:square;stroke-miterlimit:3;"/><path d=" M 411.229 197.633 L 411.229 199.87 L 408.65 199.87 L 408.65 208.551 L 405.672 208.551 L 405.672 199.87 L 404.031 199.87 L 404.031 198.434 L 405.672 197.633 L 405.672 196.833 L 405.672 196.833 Q 405.672 194.967 406.59 194.108 L 406.59 194.108 L 406.59 194.108 Q 407.508 193.249 409.529 193.249 L 409.529 193.249 L 409.529 193.249 Q 411.072 193.249 412.273 193.708 L 412.273 193.708 L 411.512 195.895 L 411.512 195.895 Q 410.613 195.612 409.852 195.612 L 409.852 195.612 L 409.852 195.612 Q 409.217 195.612 408.934 195.988 L 408.934 195.988 L 408.934 195.988 Q 408.65 196.364 408.65 196.95 L 408.65 196.95 L 408.65 197.633 L 411.229 197.633 Z  M 417.459 199.548 L 417.459 199.548 L 417.459 199.548 Q 416.512 199.548 415.975 200.148 L 415.975 200.148 L 415.975 200.148 Q 415.437 200.749 415.359 201.852 L 415.359 201.852 L 419.539 201.852 L 419.539 201.852 Q 419.52 200.749 418.963 200.148 L 418.963 200.148 L 418.963 200.148 Q 418.406 199.548 417.459 199.548 Z  M 417.879 208.747 L 417.879 208.747 L 417.879 208.747 Q 415.242 208.747 413.758 207.292 L 413.758 207.292 L 413.758 207.292 Q 412.273 205.837 412.273 203.171 L 412.273 203.171 L 412.273 203.171 Q 412.273 200.426 413.646 198.927 L 413.646 198.927 L 413.646 198.927 Q 415.018 197.428 417.439 197.428 L 417.439 197.428 L 417.439 197.428 Q 419.754 197.428 421.043 198.747 L 421.043 198.747 L 421.043 198.747 Q 422.332 200.065 422.332 202.389 L 422.332 202.389 L 422.332 203.835 L 415.291 203.835 L 415.291 203.835 Q 415.34 205.104 416.043 205.817 L 416.043 205.817 L 416.043 205.817 Q 416.746 206.53 418.016 206.53 L 418.016 206.53 L 418.016 206.53 Q 419.002 206.53 419.881 206.325 L 419.881 206.325 L 419.881 206.325 Q 420.76 206.12 421.717 205.671 L 421.717 205.671 L 421.717 207.975 L 421.717 207.975 Q 420.936 208.366 420.047 208.556 L 420.047 208.556 L 420.047 208.556 Q 419.158 208.747 417.879 208.747 Z  M 433.768 208.551 L 431.687 208.551 L 431.111 207.067 L 431.033 207.067 L 431.033 207.067 Q 430.281 208.014 429.485 208.381 L 429.485 208.381 L 429.485 208.381 Q 428.689 208.747 427.41 208.747 L 427.41 208.747 L 427.41 208.747 Q 425.838 208.747 424.935 207.848 L 424.935 207.848 L 424.935 207.848 Q 424.031 206.95 424.031 205.29 L 424.031 205.29 L 424.031 205.29 Q 424.031 203.551 425.247 202.726 L 425.247 202.726 L 425.247 202.726 Q 426.463 201.901 428.914 201.813 L 428.914 201.813 L 430.809 201.755 L 430.809 201.276 L 430.809 201.276 Q 430.809 199.616 429.109 199.616 L 429.109 199.616 L 429.109 199.616 Q 427.801 199.616 426.033 200.407 L 426.033 200.407 L 425.047 198.395 L 425.047 198.395 Q 426.932 197.409 429.227 197.409 L 429.227 197.409 L 429.227 197.409 Q 431.424 197.409 432.596 198.366 L 432.596 198.366 L 432.596 198.366 Q 433.768 199.323 433.768 201.276 L 433.768 201.276 L 433.768 208.551 Z  M 430.809 204.391 L 430.809 203.493 L 429.656 203.532 L 429.656 203.532 Q 428.357 203.571 427.723 204.001 L 427.723 204.001 L 427.723 204.001 Q 427.088 204.43 427.088 205.309 L 427.088 205.309 L 427.088 205.309 Q 427.088 206.569 428.533 206.569 L 428.533 206.569 L 428.533 206.569 Q 429.568 206.569 430.188 205.973 L 430.188 205.973 L 430.188 205.973 Q 430.809 205.378 430.809 204.391 L 430.809 204.391 Z  M 441.434 206.374 L 441.434 206.374 L 441.434 206.374 Q 442.215 206.374 443.309 206.032 L 443.309 206.032 L 443.309 208.249 L 443.309 208.249 Q 442.195 208.747 440.574 208.747 L 440.574 208.747 L 440.574 208.747 Q 438.787 208.747 437.972 207.843 L 437.972 207.843 L 437.972 207.843 Q 437.156 206.94 437.156 205.133 L 437.156 205.133 L 437.156 199.87 L 435.73 199.87 L 435.73 198.61 L 437.371 197.614 L 438.23 195.309 L 440.135 195.309 L 440.135 197.633 L 443.191 197.633 L 443.191 199.87 L 440.135 199.87 L 440.135 205.133 L 440.135 205.133 Q 440.135 205.768 440.491 206.071 L 440.491 206.071 L 440.491 206.071 Q 440.848 206.374 441.434 206.374 Z  M 452.215 194.274 L 452.215 208.551 L 449.197 208.551 L 449.197 200.29 L 449.227 198.932 L 449.275 197.448 L 449.275 197.448 Q 448.523 198.2 448.23 198.434 L 448.23 198.434 L 446.59 199.753 L 445.135 197.936 L 449.734 194.274 L 452.215 194.274 Z " fill-rule="evenodd" fill="rgb(0,0,0)"/></g><g id="Bfeat2"><path d="M 568.883 182.293 L 653.531 182.293 C 657.768 182.293 661.207 185.732 661.207 189.969 L 661.207 211.617 C 661.207 215.853 657.768 219.293 653.531 219.293 L 568.883 219.293 C 564.647 219.293 561.207 215.853 561.207 211.617 L 561.207 189.969 C 561.207 185.732 564.647 182.293 568.883 182.293 Z" style="stroke:none;fill:#E5AEAE;stroke-linecap:square;stroke-miterlimit:3;"/><path d="M 568.883 182.293 L 653.531 182.293 C 657.768 182.293 661.207 185.732 661.207 189.969 L 661.207 211.617 C 661.207 215.853 657.768 219.293 653.531 219.293 L 568.883 219.293 C 564.647 219.293 561.207 215.853 561.207 211.617 L 561.207 189.969 C 561.207 185.732 564.647 182.293 568.883 182.293 Z" style="fill:none;stroke:#000000;stroke-width:1.6855342301554246;stroke-linecap:square;stroke-miterlimit:3;"/><path d=" M 591.436 197.633 L 591.436 199.87 L 588.858 199.87 L 588.858 208.551 L 585.879 208.551 L 585.879 199.87 L 584.239 199.87 L 584.239 198.434 L 585.879 197.633 L 585.879 196.833 L 585.879 196.833 Q 585.879 194.967 586.797 194.108 L 586.797 194.108 L 586.797 194.108 Q 587.715 193.249 589.737 193.249 L 589.737 193.249 L 589.737 193.249 Q 591.28 193.249 592.481 193.708 L 592.481 193.708 L 591.719 195.895 L 591.719 195.895 Q 590.821 195.612 590.059 195.612 L 590.059 195.612 L 590.059 195.612 Q 589.424 195.612 589.141 195.988 L 589.141 195.988 L 589.141 195.988 Q 588.858 196.364 588.858 196.95 L 588.858 196.95 L 588.858 197.633 L 591.436 197.633 Z  M 597.666 199.548 L 597.666 199.548 L 597.666 199.548 Q 596.719 199.548 596.182 200.148 L 596.182 200.148 L 596.182 200.148 Q 595.645 200.749 595.567 201.852 L 595.567 201.852 L 599.746 201.852 L 599.746 201.852 Q 599.727 200.749 599.17 200.148 L 599.17 200.148 L 599.17 200.148 Q 598.614 199.548 597.666 199.548 Z  M 598.086 208.747 L 598.086 208.747 L 598.086 208.747 Q 595.45 208.747 593.965 207.292 L 593.965 207.292 L 593.965 207.292 Q 592.481 205.837 592.481 203.171 L 592.481 203.171 L 592.481 203.171 Q 592.481 200.426 593.853 198.927 L 593.853 198.927 L 593.853 198.927 Q 595.225 197.428 597.647 197.428 L 597.647 197.428 L 597.647 197.428 Q 599.961 197.428 601.25 198.747 L 601.25 198.747 L 601.25 198.747 Q 602.539 200.065 602.539 202.389 L 602.539 202.389 L 602.539 203.835 L 595.498 203.835 L 595.498 203.835 Q 595.547 205.104 596.25 205.817 L 596.25 205.817 L 596.25 205.817 Q 596.953 206.53 598.223 206.53 L 598.223 206.53 L 598.223 206.53 Q 599.209 206.53 600.088 206.325 L 600.088 206.325 L 600.088 206.325 Q 600.967 206.12 601.924 205.671 L 601.924 205.671 L 601.924 207.975 L 601.924 207.975 Q 601.143 208.366 600.254 208.556 L 600.254 208.556 L 600.254 208.556 Q 599.366 208.747 598.086 208.747 Z  M 613.975 208.551 L 611.895 208.551 L 611.319 207.067 L 611.241 207.067 L 611.241 207.067 Q 610.489 208.014 609.693 208.381 L 609.693 208.381 L 609.693 208.381 Q 608.897 208.747 607.617 208.747 L 607.617 208.747 L 607.617 208.747 Q 606.045 208.747 605.142 207.848 L 605.142 207.848 L 605.142 207.848 Q 604.239 206.95 604.239 205.29 L 604.239 205.29 L 604.239 205.29 Q 604.239 203.551 605.454 202.726 L 605.454 202.726 L 605.454 202.726 Q 606.67 201.901 609.121 201.813 L 609.121 201.813 L 611.016 201.755 L 611.016 201.276 L 611.016 201.276 Q 611.016 199.616 609.317 199.616 L 609.317 199.616 L 609.317 199.616 Q 608.008 199.616 606.241 200.407 L 606.241 200.407 L 605.254 198.395 L 605.254 198.395 Q 607.139 197.409 609.434 197.409 L 609.434 197.409 L 609.434 197.409 Q 611.631 197.409 612.803 198.366 L 612.803 198.366 L 612.803 198.366 Q 613.975 199.323 613.975 201.276 L 613.975 201.276 L 613.975 208.551 Z  M 611.016 204.391 L 611.016 203.493 L 609.864 203.532 L 609.864 203.532 Q 608.565 203.571 607.93 204.001 L 607.93 204.001 L 607.93 204.001 Q 607.295 204.43 607.295 205.309 L 607.295 205.309 L 607.295 205.309 Q 607.295 206.569 608.741 206.569 L 608.741 206.569 L 608.741 206.569 Q 609.776 206.569 610.396 205.973 L 610.396 205.973 L 610.396 205.973 Q 611.016 205.378 611.016 204.391 L 611.016 204.391 Z  M 621.641 206.374 L 621.641 206.374 L 621.641 206.374 Q 622.422 206.374 623.516 206.032 L 623.516 206.032 L 623.516 208.249 L 623.516 208.249 Q 622.403 208.747 620.782 208.747 L 620.782 208.747 L 620.782 208.747 Q 618.994 208.747 618.179 207.843 L 618.179 207.843 L 618.179 207.843 Q 617.364 206.94 617.364 205.133 L 617.364 205.133 L 617.364 199.87 L 615.938 199.87 L 615.938 198.61 L 617.578 197.614 L 618.438 195.309 L 620.342 195.309 L 620.342 197.633 L 623.399 197.633 L 623.399 199.87 L 620.342 199.87 L 620.342 205.133 L 620.342 205.133 Q 620.342 205.768 620.699 206.071 L 620.699 206.071 L 620.699 206.071 Q 621.055 206.374 621.641 206.374 Z  M 634.942 206.012 L 634.942 208.551 L 624.961 208.551 L 624.961 206.452 L 628.545 202.829 L 628.545 202.829 Q 630.137 201.198 630.625 200.568 L 630.625 200.568 L 630.625 200.568 Q 631.114 199.938 631.328 199.401 L 631.328 199.401 L 631.328 199.401 Q 631.543 198.864 631.543 198.288 L 631.543 198.288 L 631.543 198.288 Q 631.543 197.428 631.07 197.008 L 631.07 197.008 L 631.07 197.008 Q 630.596 196.589 629.805 196.589 L 629.805 196.589 L 629.805 196.589 Q 628.975 196.589 628.194 196.969 L 628.194 196.969 L 628.194 196.969 Q 627.412 197.35 626.563 198.053 L 626.563 198.053 L 624.922 196.11 L 624.922 196.11 Q 625.977 195.212 626.67 194.841 L 626.67 194.841 L 626.67 194.841 Q 627.364 194.469 628.184 194.269 L 628.184 194.269 L 628.184 194.269 Q 629.004 194.069 630.02 194.069 L 630.02 194.069 L 630.02 194.069 Q 631.358 194.069 632.383 194.557 L 632.383 194.557 L 632.383 194.557 Q 633.408 195.046 633.975 195.925 L 633.975 195.925 L 633.975 195.925 Q 634.541 196.803 634.541 197.936 L 634.541 197.936 L 634.541 197.936 Q 634.541 198.923 634.195 199.787 L 634.195 199.787 L 634.195 199.787 Q 633.848 200.651 633.12 201.559 L 633.12 201.559 L 633.12 201.559 Q 632.393 202.467 630.557 204.147 L 630.557 204.147 L 628.721 205.876 L 628.721 206.012 L 634.942 206.012 Z " fill-rule="evenodd" fill="rgb(0,0,0)"/></g><g id="Bhead"><path d="M 688.889 145.293 L 761.111 145.293 C 765.051 145.293 768.25 148.492 768.25 152.432 L 768.25 175.153 C 768.25 179.094 765.051 182.293 761.111 182.293 L 688.889 182.293 C 684.949 182.293 681.75 179.094 681.75 175.153 L 681.75 152.432 C 681.75 148.492 684.949 145.293 688.889 145.293 Z" style="stroke:none;fill:#FFF3A5;stroke-linecap:square;stroke-miterlimit:3;"/><path d="M 688.889 145.293 L 761.111 145.293 C 765.051 145.293 768.25 148.492 768.25 152.432 L 768.25 175.153 C 768.25 179.094 765.051 182.293 761.111 182.293 L 688.889 182.293 C 684.949 182.293 681.75 179.094 681.75 175.153 L 681.75 152.432 C 681.75 148.492 684.949 145.293 688.889 145.293 Z" style="fill:none;stroke:#000000;stroke-width:1.6855342301554246;stroke-linecap:square;stroke-miterlimit:3;"/><path d=" M 709.942 158.001 L 709.942 172.279 L 706.925 172.279 L 706.925 166.117 L 701.271 166.117 L 701.271 172.279 L 698.243 172.279 L 698.243 158.001 L 701.271 158.001 L 701.271 163.597 L 706.925 163.597 L 706.925 158.001 L 709.942 158.001 Z  M 721.769 169.779 L 721.769 172.279 L 713.546 172.279 L 713.546 158.001 L 721.769 158.001 L 721.769 160.482 L 716.573 160.482 L 716.573 163.617 L 721.407 163.617 L 721.407 166.097 L 716.573 166.097 L 716.573 169.779 L 721.769 169.779 Z  M 736.749 172.279 L 733.487 172.279 L 732.452 168.88 L 727.247 168.88 L 726.212 172.279 L 722.95 172.279 L 727.989 157.943 L 731.69 157.943 L 736.749 172.279 Z  M 728.009 166.341 L 731.729 166.341 L 731.729 166.341 Q 730.294 161.722 730.113 161.117 L 730.113 161.117 L 730.113 161.117 Q 729.933 160.511 729.854 160.159 L 729.854 160.159 L 729.854 160.159 Q 729.532 161.409 728.009 166.341 L 728.009 166.341 Z  M 750.392 165.003 L 750.392 165.003 L 750.392 165.003 Q 750.392 168.529 748.385 170.404 L 748.385 170.404 L 748.385 170.404 Q 746.378 172.279 742.589 172.279 L 742.589 172.279 L 738.546 172.279 L 738.546 158.001 L 743.028 158.001 L 743.028 158.001 Q 746.524 158.001 748.458 159.847 L 748.458 159.847 L 748.458 159.847 Q 750.392 161.693 750.392 165.003 Z  M 747.247 165.081 L 747.247 165.081 L 747.247 165.081 Q 747.247 160.482 743.185 160.482 L 743.185 160.482 L 741.573 160.482 L 741.573 169.779 L 742.872 169.779 L 742.872 169.779 Q 747.247 169.779 747.247 165.081 Z " fill-rule="evenodd" fill="rgb(0,0,0)"/></g><g id="c1"><path d=" M 38.793 246.5 C 38.793 234.243 48.743 224.293 61 224.293 C 73.257 224.293 83.207 234.243 83.207 246.5 C 83.207 258.757 73.257 268.707 61 268.707 C 48.743 268.707 38.793 258.757 38.793 246.5 Z " fill="rgb(195,215,247)" vector-effect="non-scaling-stroke" stroke-width="2" stroke="rgb(0,0,0)" stroke-linejoin="miter" stroke-linecap="square" stroke-miterlimit="3"/><path d=" M 62.432 238.76 L 62.432 255.822 L 59.139 255.822 L 59.139 242.732 L 54.826 244.279 L 54.826 241.443 L 62.256 238.76 L 62.432 238.76 Z " fill="rgb(0,0,0)"/></g><g id="c2"><path d=" M 102 246.5 C 102 234.243 111.951 224.293 124.207 224.293 C 136.464 224.293 146.415 234.243 146.415 246.5 C 146.415 258.757 136.464 268.707 124.207 268.707 C 111.951 268.707 102 258.757 102 246.5 Z " fill="rgb(195,215,247)" vector-effect="non-scaling-stroke" stroke-width="2" stroke="rgb(0,0,0)" stroke-linejoin="miter" stroke-linecap="square" stroke-miterlimit="3"/><path d=" M 128.815 253.209 L 128.815 255.822 L 117.178 255.822 L 117.178 253.596 L 122.698 247.666 L 122.698 247.666 Q 123.342 246.963 123.787 246.389 L 123.787 246.389 L 123.787 246.389 Q 124.233 245.814 124.508 245.34 L 124.508 245.34 L 124.508 245.34 Q 124.783 244.865 124.907 244.455 L 124.907 244.455 L 124.907 244.455 Q 125.03 244.045 125.03 243.658 L 125.03 243.658 L 125.03 243.658 Q 125.03 243.084 124.866 242.639 L 124.866 242.639 L 124.866 242.639 Q 124.701 242.193 124.403 241.883 L 124.403 241.883 L 124.403 241.883 Q 124.104 241.572 123.688 241.408 L 123.688 241.408 L 123.688 241.408 Q 123.272 241.244 122.768 241.244 L 122.768 241.244 L 122.768 241.244 Q 121.42 241.244 120.758 241.994 L 120.758 241.994 L 120.758 241.994 Q 120.096 242.744 120.096 244.092 L 120.096 244.092 L 116.826 244.092 L 116.826 244.092 Q 116.826 242.955 117.26 241.941 L 117.26 241.941 L 117.26 241.941 Q 117.694 240.928 118.485 240.166 L 118.485 240.166 L 118.485 240.166 Q 119.276 239.404 120.395 238.965 L 120.395 238.965 L 120.395 238.965 Q 121.514 238.525 122.873 238.525 L 122.873 238.525 L 122.873 238.525 Q 124.174 238.525 125.176 238.889 L 125.176 238.889 L 125.176 238.889 Q 126.178 239.252 126.852 239.908 L 126.852 239.908 L 126.852 239.908 Q 127.526 240.564 127.877 241.484 L 127.877 241.484 L 127.877 241.484 Q 128.229 242.404 128.229 243.518 L 128.229 243.518 L 128.229 243.518 Q 128.229 244.361 127.965 245.129 L 127.965 245.129 L 127.965 245.129 Q 127.701 245.896 127.215 246.646 L 127.215 246.646 L 127.215 246.646 Q 126.729 247.396 126.049 248.176 L 126.049 248.176 L 126.049 248.176 Q 125.369 248.955 124.537 249.811 L 124.537 249.811 L 121.326 253.209 L 128.815 253.209 Z " fill="rgb(0,0,0)"/></g><g id="C3"><path d=" M 165.207 246.5 C 165.207 234.243 175.158 224.293 187.415 224.293 C 199.671 224.293 209.622 234.243 209.622 246.5 C 209.622 258.757 199.671 268.707 187.415 268.707 C 175.158 268.707 165.207 258.757 165.207 246.5 Z " fill="rgb(195,215,247)" vector-effect="non-scaling-stroke" stroke-width="2" stroke="rgb(0,0,0)" stroke-linejoin="miter" stroke-linecap="square" stroke-miterlimit="3"/><path d=" M 184.147 248.393 L 184.147 245.861 L 185.917 245.861 L 185.917 245.861 Q 187.253 245.861 187.897 245.188 L 187.897 245.188 L 187.897 245.188 Q 188.542 244.514 188.542 243.424 L 188.542 243.424 L 188.542 243.424 Q 188.542 242.92 188.395 242.504 L 188.395 242.504 L 188.395 242.504 Q 188.249 242.088 187.956 241.789 L 187.956 241.789 L 187.956 241.789 Q 187.663 241.49 187.212 241.326 L 187.212 241.326 L 187.212 241.326 Q 186.76 241.162 186.163 241.162 L 186.163 241.162 L 186.163 241.162 Q 185.671 241.162 185.243 241.303 L 185.243 241.303 L 185.243 241.303 Q 184.815 241.443 184.493 241.707 L 184.493 241.707 L 184.493 241.707 Q 184.171 241.971 183.983 242.346 L 183.983 242.346 L 183.983 242.346 Q 183.796 242.721 183.796 243.189 L 183.796 243.189 L 180.538 243.189 L 180.538 243.189 Q 180.538 242.146 180.965 241.291 L 180.965 241.291 L 180.965 241.291 Q 181.393 240.436 182.143 239.82 L 182.143 239.82 L 182.143 239.82 Q 182.893 239.205 183.907 238.865 L 183.907 238.865 L 183.907 238.865 Q 184.921 238.525 186.092 238.525 L 186.092 238.525 L 186.092 238.525 Q 187.358 238.525 188.413 238.836 L 188.413 238.836 L 188.413 238.836 Q 189.467 239.146 190.217 239.762 L 190.217 239.762 L 190.217 239.762 Q 190.967 240.377 191.383 241.285 L 191.383 241.285 L 191.383 241.285 Q 191.799 242.193 191.799 243.389 L 191.799 243.389 L 191.799 243.389 Q 191.799 243.939 191.635 244.473 L 191.635 244.473 L 191.635 244.473 Q 191.471 245.006 191.155 245.486 L 191.155 245.486 L 191.155 245.486 Q 190.838 245.967 190.37 246.371 L 190.37 246.371 L 190.37 246.371 Q 189.901 246.775 189.292 247.068 L 189.292 247.068 L 189.292 247.068 Q 190.006 247.326 190.528 247.725 L 190.528 247.725 L 190.528 247.725 Q 191.049 248.123 191.389 248.633 L 191.389 248.633 L 191.389 248.633 Q 191.729 249.143 191.893 249.752 L 191.893 249.752 L 191.893 249.752 Q 192.057 250.361 192.057 251.041 L 192.057 251.041 L 192.057 251.041 Q 192.057 252.236 191.6 253.174 L 191.6 253.174 L 191.6 253.174 Q 191.143 254.111 190.346 254.75 L 190.346 254.75 L 190.346 254.75 Q 189.549 255.389 188.454 255.723 L 188.454 255.723 L 188.454 255.723 Q 187.358 256.057 186.092 256.057 L 186.092 256.057 L 186.092 256.057 Q 185.003 256.057 183.965 255.758 L 183.965 255.758 L 183.965 255.758 Q 182.928 255.459 182.12 254.855 L 182.12 254.855 L 182.12 254.855 Q 181.311 254.252 180.825 253.338 L 180.825 253.338 L 180.825 253.338 Q 180.338 252.424 180.338 251.182 L 180.338 251.182 L 183.596 251.182 L 183.596 251.182 Q 183.596 251.674 183.784 252.09 L 183.784 252.09 L 183.784 252.09 Q 183.971 252.506 184.317 252.805 L 184.317 252.805 L 184.317 252.805 Q 184.663 253.104 185.131 253.273 L 185.131 253.273 L 185.131 253.273 Q 185.6 253.443 186.163 253.443 L 186.163 253.443 L 186.163 253.443 Q 187.405 253.443 188.108 252.787 L 188.108 252.787 L 188.108 252.787 Q 188.811 252.131 188.811 251.006 L 188.811 251.006 L 188.811 251.006 Q 188.811 250.314 188.612 249.822 L 188.612 249.822 L 188.612 249.822 Q 188.413 249.33 188.032 249.014 L 188.032 249.014 L 188.032 249.014 Q 187.651 248.697 187.118 248.545 L 187.118 248.545 L 187.118 248.545 Q 186.585 248.393 185.917 248.393 L 185.917 248.393 L 184.147 248.393 Z " fill="rgb(0,0,0)"/></g><g id="C4"><path d=" M 228.415 246.5 C 228.415 234.243 238.365 224.293 250.622 224.293 C 262.879 224.293 272.829 234.243 272.829 246.5 C 272.829 258.757 262.879 268.707 250.622 268.707 C 238.365 268.707 228.415 258.757 228.415 246.5 Z " fill="rgb(195,215,247)" vector-effect="non-scaling-stroke" stroke-width="2" stroke="rgb(0,0,0)" stroke-linejoin="miter" stroke-linecap="square" stroke-miterlimit="3"/><path d=" M 253.589 238.76 L 253.589 249.482 L 255.569 249.482 L 255.569 252.119 L 253.589 252.119 L 253.589 255.822 L 250.331 255.822 L 250.331 252.119 L 243.241 252.119 L 243.112 250.08 L 250.284 238.76 L 253.589 238.76 Z  M 250.015 243.705 L 246.311 249.482 L 250.331 249.482 L 250.331 243.143 L 250.015 243.705 Z " fill-rule="evenodd" fill="rgb(0,0,0)"/></g><g id="C5"><path d=" M 256.386 324.5 C 256.386 312.243 266.337 302.293 278.594 302.293 C 290.85 302.293 300.801 312.243 300.801 324.5 C 300.801 336.757 290.85 346.707 278.594 346.707 C 266.337 346.707 256.386 336.757 256.386 324.5 Z " fill="rgb(209,209,209)" vector-effect="non-scaling-stroke" stroke-width="2" stroke="rgb(0,0,0)" stroke-linejoin="miter" stroke-linecap="square" stroke-miterlimit="3"/><path d=" M 274.81 326.064 L 272.209 325.42 L 273.181 316.76 L 282.65 316.76 L 282.65 319.525 L 275.865 319.525 L 275.455 323.275 L 275.455 323.275 Q 275.818 323.064 276.486 322.842 L 276.486 322.842 L 276.486 322.842 Q 277.154 322.619 278.021 322.619 L 278.021 322.619 L 278.021 322.619 Q 279.252 322.619 280.219 323.012 L 280.219 323.012 L 280.219 323.012 Q 281.185 323.404 281.847 324.143 L 281.847 324.143 L 281.847 324.143 Q 282.51 324.881 282.861 325.947 L 282.861 325.947 L 282.861 325.947 Q 283.213 327.014 283.213 328.361 L 283.213 328.361 L 283.213 328.361 Q 283.213 329.51 282.873 330.541 L 282.873 330.541 L 282.873 330.541 Q 282.533 331.572 281.83 332.357 L 281.83 332.357 L 281.83 332.357 Q 281.127 333.143 280.06 333.6 L 280.06 333.6 L 280.06 333.6 Q 278.994 334.057 277.541 334.057 L 277.541 334.057 L 277.541 334.057 Q 276.439 334.057 275.414 333.729 L 275.414 333.729 L 275.414 333.729 Q 274.388 333.4 273.592 332.768 L 273.592 332.768 L 273.592 332.768 Q 272.795 332.135 272.297 331.215 L 272.297 331.215 L 272.297 331.215 Q 271.799 330.295 271.763 329.111 L 271.763 329.111 L 274.974 329.111 L 274.974 329.111 Q 275.092 330.225 275.777 330.834 L 275.777 330.834 L 275.777 330.834 Q 276.463 331.443 277.529 331.443 L 277.529 331.443 L 277.529 331.443 Q 278.185 331.443 278.648 331.197 L 278.648 331.197 L 278.648 331.197 Q 279.111 330.951 279.398 330.518 L 279.398 330.518 L 279.398 330.518 Q 279.685 330.084 279.82 329.486 L 279.82 329.486 L 279.82 329.486 Q 279.955 328.889 279.955 328.197 L 279.955 328.197 L 279.955 328.197 Q 279.955 327.518 279.785 326.949 L 279.785 326.949 L 279.785 326.949 Q 279.615 326.381 279.263 325.971 L 279.263 325.971 L 279.263 325.971 Q 278.912 325.561 278.385 325.338 L 278.385 325.338 L 278.385 325.338 Q 277.857 325.115 277.142 325.115 L 277.142 325.115 L 277.142 325.115 Q 276.662 325.115 276.31 325.197 L 276.31 325.197 L 276.31 325.197 Q 275.959 325.279 275.689 325.408 L 275.689 325.408 L 275.689 325.408 Q 275.42 325.537 275.209 325.707 L 275.209 325.707 L 275.209 325.707 Q 274.998 325.877 274.81 326.064 L 274.81 326.064 Z " fill="rgb(0,0,0)"/></g><g id="C6"><path d=" M 318 324.5 C 318 312.243 327.951 302.293 340.207 302.293 C 352.464 302.293 362.415 312.243 362.415 324.5 C 362.415 336.757 352.464 346.707 340.207 346.707 C 327.951 346.707 318 336.757 318 324.5 Z " fill="rgb(209,209,209)" vector-effect="non-scaling-stroke" stroke-width="2" stroke="rgb(0,0,0)" stroke-linejoin="miter" stroke-linecap="square" stroke-miterlimit="3"/><path d=" M 341.873 316.619 L 342.307 316.619 L 342.307 319.326 L 342.119 319.326 L 342.119 319.326 Q 340.83 319.326 339.84 319.666 L 339.84 319.666 L 339.84 319.666 Q 338.85 320.006 338.153 320.627 L 338.153 320.627 L 338.153 320.627 Q 337.455 321.248 337.051 322.115 L 337.051 322.115 L 337.051 322.115 Q 336.647 322.982 336.541 324.049 L 336.541 324.049 L 336.541 324.049 Q 336.811 323.756 337.162 323.469 L 337.162 323.469 L 337.162 323.469 Q 337.514 323.182 337.953 322.953 L 337.953 322.953 L 337.953 322.953 Q 338.393 322.725 338.908 322.584 L 338.908 322.584 L 338.908 322.584 Q 339.424 322.443 340.022 322.443 L 340.022 322.443 L 340.022 322.443 Q 341.241 322.443 342.149 322.906 L 342.149 322.906 L 342.149 322.906 Q 343.057 323.369 343.666 324.16 L 343.666 324.16 L 343.666 324.16 Q 344.276 324.951 344.575 326 L 344.575 326 L 344.575 326 Q 344.873 327.049 344.873 328.209 L 344.873 328.209 L 344.873 328.209 Q 344.873 329.451 344.475 330.518 L 344.475 330.518 L 344.475 330.518 Q 344.076 331.584 343.338 332.369 L 343.338 332.369 L 343.338 332.369 Q 342.6 333.154 341.545 333.605 L 341.545 333.605 L 341.545 333.605 Q 340.491 334.057 339.178 334.057 L 339.178 334.057 L 339.178 334.057 Q 337.807 334.057 336.705 333.547 L 336.705 333.547 L 336.705 333.547 Q 335.604 333.037 334.836 332.135 L 334.836 332.135 L 334.836 332.135 Q 334.069 331.232 333.653 329.996 L 333.653 329.996 L 333.653 329.996 Q 333.237 328.76 333.237 327.295 L 333.237 327.295 L 333.237 326.041 L 333.237 326.041 Q 333.237 324.014 333.787 322.285 L 333.787 322.285 L 333.787 322.285 Q 334.338 320.557 335.428 319.297 L 335.428 319.297 L 335.428 319.297 Q 336.518 318.037 338.135 317.328 L 338.135 317.328 L 338.135 317.328 Q 339.752 316.619 341.873 316.619 L 341.873 316.619 Z  M 339.073 325.057 L 339.073 325.057 L 339.073 325.057 Q 338.194 325.057 337.52 325.525 L 337.52 325.525 L 337.52 325.525 Q 336.846 325.994 336.506 326.732 L 336.506 326.732 L 336.506 327.693 L 336.506 327.693 Q 336.506 328.631 336.7 329.334 L 336.7 329.334 L 336.7 329.334 Q 336.893 330.037 337.244 330.5 L 337.244 330.5 L 337.244 330.5 Q 337.596 330.963 338.076 331.197 L 338.076 331.197 L 338.076 331.197 Q 338.557 331.432 339.119 331.432 L 339.119 331.432 L 339.119 331.432 Q 339.694 331.432 340.162 331.191 L 340.162 331.191 L 340.162 331.191 Q 340.631 330.951 340.959 330.529 L 340.959 330.529 L 340.959 330.529 Q 341.287 330.107 341.463 329.527 L 341.463 329.527 L 341.463 329.527 Q 341.639 328.947 341.639 328.256 L 341.639 328.256 L 341.639 328.256 Q 341.639 327.564 341.463 326.979 L 341.463 326.979 L 341.463 326.979 Q 341.287 326.393 340.959 325.965 L 340.959 325.965 L 340.959 325.965 Q 340.631 325.537 340.157 325.297 L 340.157 325.297 L 340.157 325.297 Q 339.682 325.057 339.073 325.057 Z " fill-rule="evenodd" fill="rgb(0,0,0)"/></g><g id="C7"><path d=" M 315.118 246.5 C 315.118 234.243 325.069 224.293 337.325 224.293 C 349.582 224.293 359.533 234.243 359.533 246.5 C 359.533 258.757 349.582 268.707 337.325 268.707 C 325.069 268.707 315.118 258.757 315.118 246.5 Z " fill="rgb(195,215,247)" vector-effect="non-scaling-stroke" stroke-width="2" stroke="rgb(0,0,0)" stroke-linejoin="miter" stroke-linecap="square" stroke-miterlimit="3"/><path d=" M 341.921 238.76 L 341.921 240.576 L 335.276 255.822 L 331.843 255.822 L 338.499 241.42 L 329.933 241.42 L 329.933 238.76 L 341.921 238.76 Z " fill="rgb(0,0,0)"/></g><g id="C8"><path d=" M 379.614 324.5 C 379.614 312.243 389.565 302.293 401.821 302.293 C 414.078 302.293 424.028 312.243 424.028 324.5 C 424.028 336.757 414.078 346.707 401.821 346.707 C 389.565 346.707 379.614 336.757 379.614 324.5 Z " fill="rgb(209,209,209)" vector-effect="non-scaling-stroke" stroke-width="2" stroke="rgb(0,0,0)" stroke-linejoin="miter" stroke-linecap="square" stroke-miterlimit="3"/><path d=" M 405.983 321.295 L 405.983 321.295 L 405.983 321.295 Q 405.983 322.537 405.356 323.504 L 405.356 323.504 L 405.356 323.504 Q 404.729 324.471 403.639 325.045 L 403.639 325.045 L 403.639 325.045 Q 404.882 325.631 405.614 326.686 L 405.614 326.686 L 405.614 326.686 Q 406.347 327.74 406.347 329.158 L 406.347 329.158 L 406.347 329.158 Q 406.347 330.365 405.907 331.279 L 405.907 331.279 L 405.907 331.279 Q 405.468 332.193 404.7 332.809 L 404.7 332.809 L 404.7 332.809 Q 403.932 333.424 402.889 333.74 L 402.889 333.74 L 402.889 333.74 Q 401.847 334.057 400.639 334.057 L 400.639 334.057 L 400.639 334.057 Q 399.421 334.057 398.372 333.74 L 398.372 333.74 L 398.372 333.74 Q 397.323 333.424 396.55 332.809 L 396.55 332.809 L 396.55 332.809 Q 395.776 332.193 395.337 331.279 L 395.337 331.279 L 395.337 331.279 Q 394.897 330.365 394.897 329.158 L 394.897 329.158 L 394.897 329.158 Q 394.897 328.455 395.091 327.828 L 395.091 327.828 L 395.091 327.828 Q 395.284 327.201 395.636 326.68 L 395.636 326.68 L 395.636 326.68 Q 395.987 326.158 396.485 325.742 L 396.485 325.742 L 396.485 325.742 Q 396.983 325.326 397.604 325.033 L 397.604 325.033 L 397.604 325.033 Q 396.514 324.471 395.893 323.504 L 395.893 323.504 L 395.893 323.504 Q 395.272 322.537 395.272 321.295 L 395.272 321.295 L 395.272 321.295 Q 395.272 320.135 395.671 319.25 L 395.671 319.25 L 395.671 319.25 Q 396.069 318.365 396.778 317.756 L 396.778 317.756 L 396.778 317.756 Q 397.487 317.146 398.466 316.836 L 398.466 316.836 L 398.466 316.836 Q 399.444 316.525 400.604 316.525 L 400.604 316.525 L 400.604 316.525 Q 401.764 316.525 402.749 316.836 L 402.749 316.836 L 402.749 316.836 Q 403.733 317.146 404.454 317.756 L 404.454 317.756 L 404.454 317.756 Q 405.175 318.365 405.579 319.25 L 405.579 319.25 L 405.579 319.25 Q 405.983 320.135 405.983 321.295 Z  M 403.077 328.936 L 403.077 328.936 L 403.077 328.936 Q 403.077 328.35 402.901 327.881 L 402.901 327.881 L 402.901 327.881 Q 402.725 327.412 402.403 327.078 L 402.403 327.078 L 402.403 327.078 Q 402.081 326.744 401.63 326.568 L 401.63 326.568 L 401.63 326.568 Q 401.179 326.393 400.616 326.393 L 400.616 326.393 L 400.616 326.393 Q 400.054 326.393 399.602 326.568 L 399.602 326.568 L 399.602 326.568 Q 399.151 326.744 398.835 327.078 L 398.835 327.078 L 398.835 327.078 Q 398.518 327.412 398.343 327.881 L 398.343 327.881 L 398.343 327.881 Q 398.167 328.35 398.167 328.936 L 398.167 328.936 L 398.167 328.936 Q 398.167 330.107 398.835 330.775 L 398.835 330.775 L 398.835 330.775 Q 399.503 331.443 400.639 331.443 L 400.639 331.443 L 400.639 331.443 Q 401.179 331.443 401.624 331.273 L 401.624 331.273 L 401.624 331.273 Q 402.069 331.104 402.391 330.775 L 402.391 330.775 L 402.391 330.775 Q 402.714 330.447 402.895 329.984 L 402.895 329.984 L 402.895 329.984 Q 403.077 329.521 403.077 328.936 Z  M 402.737 321.447 L 402.737 321.447 L 402.737 321.447 Q 402.737 320.932 402.585 320.51 L 402.585 320.51 L 402.585 320.51 Q 402.432 320.088 402.157 319.789 L 402.157 319.789 L 402.157 319.789 Q 401.882 319.49 401.489 319.326 L 401.489 319.326 L 401.489 319.326 Q 401.097 319.162 400.604 319.162 L 400.604 319.162 L 400.604 319.162 Q 399.608 319.162 399.069 319.771 L 399.069 319.771 L 399.069 319.771 Q 398.53 320.381 398.53 321.447 L 398.53 321.447 L 398.53 321.447 Q 398.53 321.963 398.671 322.391 L 398.671 322.391 L 398.671 322.391 Q 398.811 322.818 399.087 323.123 L 399.087 323.123 L 399.087 323.123 Q 399.362 323.428 399.755 323.598 L 399.755 323.598 L 399.755 323.598 Q 400.147 323.768 400.639 323.768 L 400.639 323.768 L 400.639 323.768 Q 401.132 323.768 401.518 323.598 L 401.518 323.598 L 401.518 323.598 Q 401.905 323.428 402.175 323.123 L 402.175 323.123 L 402.175 323.123 Q 402.444 322.818 402.591 322.391 L 402.591 322.391 L 402.591 322.391 Q 402.737 321.963 402.737 321.447 Z " fill-rule="evenodd" fill="rgb(0,0,0)"/></g><g id="C9"><path d=" M 407.793 246.5 C 407.793 234.243 417.743 224.293 430 224.293 C 442.257 224.293 452.207 234.243 452.207 246.5 C 452.207 258.757 442.257 268.707 430 268.707 C 417.743 268.707 407.793 258.757 407.793 246.5 Z " fill="rgb(195,215,247)" vector-effect="non-scaling-stroke" stroke-width="2" stroke="rgb(0,0,0)" stroke-linejoin="miter" stroke-linecap="square" stroke-miterlimit="3"/><path d=" M 425.467 253.232 L 425.689 253.232 L 425.689 253.232 Q 427.002 253.232 427.963 252.951 L 427.963 252.951 L 427.963 252.951 Q 428.924 252.67 429.574 252.137 L 429.574 252.137 L 429.574 252.137 Q 430.225 251.604 430.582 250.836 L 430.582 250.836 L 430.582 250.836 Q 430.939 250.068 431.045 249.096 L 431.045 249.096 L 431.045 249.096 Q 430.553 249.588 429.779 249.939 L 429.779 249.939 L 429.779 249.939 Q 429.006 250.291 427.904 250.291 L 427.904 250.291 L 427.904 250.291 Q 426.686 250.291 425.76 249.846 L 425.76 249.846 L 425.76 249.846 Q 424.834 249.4 424.207 248.627 L 424.207 248.627 L 424.207 248.627 Q 423.58 247.854 423.258 246.805 L 423.258 246.805 L 423.258 246.805 Q 422.936 245.756 422.936 244.549 L 422.936 244.549 L 422.936 244.549 Q 422.936 243.307 423.328 242.211 L 423.328 242.211 L 423.328 242.211 Q 423.721 241.115 424.459 240.295 L 424.459 240.295 L 424.459 240.295 Q 425.197 239.475 426.246 239 L 426.246 239 L 426.246 239 Q 427.295 238.525 428.607 238.525 L 428.607 238.525 L 428.607 238.525 Q 429.943 238.525 431.01 239.041 L 431.01 239.041 L 431.01 239.041 Q 432.076 239.557 432.82 240.482 L 432.82 240.482 L 432.82 240.482 Q 433.564 241.408 433.957 242.686 L 433.957 242.686 L 433.957 242.686 Q 434.35 243.963 434.35 245.486 L 434.35 245.486 L 434.35 246.611 L 434.35 246.611 Q 434.35 248.65 433.846 250.361 L 433.846 250.361 L 433.846 250.361 Q 433.342 252.072 432.287 253.32 L 432.287 253.32 L 432.287 253.32 Q 431.232 254.568 429.604 255.266 L 429.604 255.266 L 429.604 255.266 Q 427.975 255.963 425.713 255.963 L 425.713 255.963 L 425.467 255.963 L 425.467 253.232 Z  M 428.678 247.771 L 428.678 247.771 L 428.678 247.771 Q 429.123 247.771 429.504 247.643 L 429.504 247.643 L 429.504 247.643 Q 429.885 247.514 430.195 247.285 L 430.195 247.285 L 430.195 247.285 Q 430.506 247.057 430.734 246.746 L 430.734 246.746 L 430.734 246.746 Q 430.963 246.436 431.104 246.072 L 431.104 246.072 L 431.104 244.912 L 431.104 244.912 Q 431.104 243.975 430.91 243.271 L 430.91 243.271 L 430.91 243.271 Q 430.717 242.568 430.377 242.1 L 430.377 242.1 L 430.377 242.1 Q 430.037 241.631 429.58 241.396 L 429.58 241.396 L 429.58 241.396 Q 429.123 241.162 428.596 241.162 L 428.596 241.162 L 428.596 241.162 Q 428.021 241.162 427.57 241.438 L 427.57 241.438 L 427.57 241.438 Q 427.119 241.713 426.814 242.176 L 426.814 242.176 L 426.814 242.176 Q 426.51 242.639 426.346 243.242 L 426.346 243.242 L 426.346 243.242 Q 426.182 243.846 426.182 244.502 L 426.182 244.502 L 426.182 244.502 Q 426.182 245.158 426.334 245.756 L 426.334 245.756 L 426.334 245.756 Q 426.486 246.354 426.797 246.799 L 426.797 246.799 L 426.797 246.799 Q 427.107 247.244 427.576 247.508 L 427.576 247.508 L 427.576 247.508 Q 428.045 247.771 428.678 247.771 Z " fill-rule="evenodd" fill="rgb(0,0,0)"/></g><g id="C10"><path d=" M 500.467 246.5 C 500.467 234.243 510.418 224.293 522.675 224.293 C 534.931 224.293 544.882 234.243 544.882 246.5 C 544.882 258.757 534.931 268.707 522.675 268.707 C 510.418 268.707 500.467 258.757 500.467 246.5 Z " fill="rgb(195,215,247)" vector-effect="non-scaling-stroke" stroke-width="2" stroke="rgb(0,0,0)" stroke-linejoin="miter" stroke-linecap="square" stroke-miterlimit="3"/><path d=" M 516.905 238.76 L 516.905 255.822 L 513.612 255.822 L 513.612 242.732 L 509.3 244.279 L 509.3 241.443 L 516.729 238.76 L 516.905 238.76 Z  M 534.437 245.252 L 534.437 249.33 L 534.437 249.33 Q 534.437 250.982 534.056 252.242 L 534.056 252.242 L 534.056 252.242 Q 533.675 253.502 532.96 254.352 L 532.96 254.352 L 532.96 254.352 Q 532.245 255.201 531.214 255.635 L 531.214 255.635 L 531.214 255.635 Q 530.183 256.068 528.894 256.068 L 528.894 256.068 L 528.894 256.068 Q 527.616 256.068 526.585 255.635 L 526.585 255.635 L 526.585 255.635 Q 525.554 255.201 524.833 254.352 L 524.833 254.352 L 524.833 254.352 Q 524.112 253.502 523.72 252.242 L 523.72 252.242 L 523.72 252.242 Q 523.327 250.982 523.327 249.33 L 523.327 249.33 L 523.327 245.252 L 523.327 245.252 Q 523.327 243.6 523.714 242.34 L 523.714 242.34 L 523.714 242.34 Q 524.101 241.08 524.821 240.23 L 524.821 240.23 L 524.821 240.23 Q 525.542 239.381 526.567 238.947 L 526.567 238.947 L 526.567 238.947 Q 527.593 238.514 528.87 238.514 L 528.87 238.514 L 528.87 238.514 Q 530.159 238.514 531.19 238.947 L 531.19 238.947 L 531.19 238.947 Q 532.222 239.381 532.942 240.23 L 532.942 240.23 L 532.942 240.23 Q 533.663 241.08 534.05 242.34 L 534.05 242.34 L 534.05 242.34 Q 534.437 243.6 534.437 245.252 L 534.437 245.252 Z  M 526.608 244.736 L 526.608 247.924 L 531.155 244.537 L 531.155 244.537 Q 531.12 242.814 530.558 241.982 L 530.558 241.982 L 530.558 241.982 Q 529.995 241.15 528.87 241.15 L 528.87 241.15 L 528.87 241.15 Q 527.733 241.15 527.171 242.029 L 527.171 242.029 L 527.171 242.029 Q 526.608 242.908 526.608 244.736 L 526.608 244.736 Z  M 531.155 249.822 L 531.155 246.752 L 526.608 250.127 L 526.608 250.127 Q 526.667 251.814 527.229 252.629 L 527.229 252.629 L 527.229 252.629 Q 527.792 253.443 528.894 253.443 L 528.894 253.443 L 528.894 253.443 Q 530.042 253.443 530.599 252.553 L 530.599 252.553 L 530.599 252.553 Q 531.155 251.662 531.155 249.822 L 531.155 249.822 Z " fill-rule="evenodd" fill="rgb(0,0,0)"/></g><g id="C11"><path d=" M 227.179 156.293 C 227.179 144.036 237.13 134.085 249.386 134.085 C 261.643 134.085 271.594 144.036 271.594 156.293 C 271.594 168.549 261.643 178.5 249.386 178.5 C 237.13 178.5 227.179 168.549 227.179 156.293 Z " fill="rgb(211,240,193)" vector-effect="non-scaling-stroke" stroke-width="2" stroke="rgb(0,0,0)" stroke-linejoin="miter" stroke-linecap="square" stroke-miterlimit="3"/><path d=" M 243.617 148.552 L 243.617 165.615 L 240.324 165.615 L 240.324 152.525 L 236.011 154.072 L 236.011 151.236 L 243.441 148.552 L 243.617 148.552 Z  M 258.019 148.552 L 258.019 165.615 L 254.726 165.615 L 254.726 152.525 L 250.414 154.072 L 250.414 151.236 L 257.843 148.552 L 258.019 148.552 Z " fill-rule="evenodd" fill="rgb(0,0,0)"/></g><g id="C12"><path d=" M 296.411 156.293 C 296.411 144.036 306.361 134.085 318.618 134.085 C 330.874 134.085 340.825 144.036 340.825 156.293 C 340.825 168.549 330.874 178.5 318.618 178.5 C 306.361 178.5 296.411 168.549 296.411 156.293 Z " fill="rgb(211,240,193)" vector-effect="non-scaling-stroke" stroke-width="2" stroke="rgb(0,0,0)" stroke-linejoin="miter" stroke-linecap="square" stroke-miterlimit="3"/><path d=" M 312.848 148.552 L 312.848 165.615 L 309.555 165.615 L 309.555 152.525 L 305.243 154.072 L 305.243 151.236 L 312.673 148.552 L 312.848 148.552 Z  M 330.426 163.002 L 330.426 165.615 L 318.79 165.615 L 318.79 163.388 L 324.309 157.459 L 324.309 157.459 Q 324.954 156.756 325.399 156.181 L 325.399 156.181 L 325.399 156.181 Q 325.844 155.607 326.12 155.133 L 326.12 155.133 L 326.12 155.133 Q 326.395 154.658 326.518 154.248 L 326.518 154.248 L 326.518 154.248 Q 326.641 153.838 326.641 153.451 L 326.641 153.451 L 326.641 153.451 Q 326.641 152.877 326.477 152.431 L 326.477 152.431 L 326.477 152.431 Q 326.313 151.986 326.014 151.675 L 326.014 151.675 L 326.014 151.675 Q 325.716 151.365 325.3 151.201 L 325.3 151.201 L 325.3 151.201 Q 324.884 151.037 324.38 151.037 L 324.38 151.037 L 324.38 151.037 Q 323.032 151.037 322.37 151.787 L 322.37 151.787 L 322.37 151.787 Q 321.708 152.537 321.708 153.884 L 321.708 153.884 L 318.438 153.884 L 318.438 153.884 Q 318.438 152.748 318.872 151.734 L 318.872 151.734 L 318.872 151.734 Q 319.305 150.72 320.096 149.959 L 320.096 149.959 L 320.096 149.959 Q 320.887 149.197 322.007 148.758 L 322.007 148.758 L 322.007 148.758 Q 323.126 148.318 324.485 148.318 L 324.485 148.318 L 324.485 148.318 Q 325.786 148.318 326.788 148.681 L 326.788 148.681 L 326.788 148.681 Q 327.79 149.045 328.464 149.701 L 328.464 149.701 L 328.464 149.701 Q 329.137 150.357 329.489 151.277 L 329.489 151.277 L 329.489 151.277 Q 329.841 152.197 329.841 153.31 L 329.841 153.31 L 329.841 153.31 Q 329.841 154.154 329.577 154.922 L 329.577 154.922 L 329.577 154.922 Q 329.313 155.689 328.827 156.439 L 328.827 156.439 L 328.827 156.439 Q 328.341 157.189 327.661 157.968 L 327.661 157.968 L 327.661 157.968 Q 326.981 158.748 326.149 159.603 L 326.149 159.603 L 322.938 163.002 L 330.426 163.002 Z " fill-rule="evenodd" fill="rgb(0,0,0)"/></g><g id="C13"><path d=" M 589 246.5 C 589 234.243 598.951 224.293 611.207 224.293 C 623.464 224.293 633.415 234.243 633.415 246.5 C 633.415 258.757 623.464 268.707 611.207 268.707 C 598.951 268.707 589 258.757 589 246.5 Z " fill="rgb(195,215,247)" vector-effect="non-scaling-stroke" stroke-width="2" stroke="rgb(0,0,0)" stroke-linejoin="miter" stroke-linecap="square" stroke-miterlimit="3"/><path d=" M 605.438 238.76 L 605.438 255.822 L 602.145 255.822 L 602.145 242.732 L 597.832 244.279 L 597.832 241.443 L 605.262 238.76 L 605.438 238.76 Z  M 615.141 248.393 L 615.141 245.861 L 616.91 245.861 L 616.91 245.861 Q 618.246 245.861 618.891 245.188 L 618.891 245.188 L 618.891 245.188 Q 619.535 244.514 619.535 243.424 L 619.535 243.424 L 619.535 243.424 Q 619.535 242.92 619.389 242.504 L 619.389 242.504 L 619.389 242.504 Q 619.242 242.088 618.95 241.789 L 618.95 241.789 L 618.95 241.789 Q 618.657 241.49 618.205 241.326 L 618.205 241.326 L 618.205 241.326 Q 617.754 241.162 617.157 241.162 L 617.157 241.162 L 617.157 241.162 Q 616.664 241.162 616.237 241.303 L 616.237 241.303 L 616.237 241.303 Q 615.809 241.443 615.487 241.707 L 615.487 241.707 L 615.487 241.707 Q 615.164 241.971 614.977 242.346 L 614.977 242.346 L 614.977 242.346 Q 614.789 242.721 614.789 243.189 L 614.789 243.189 L 611.532 243.189 L 611.532 243.189 Q 611.532 242.146 611.959 241.291 L 611.959 241.291 L 611.959 241.291 Q 612.387 240.436 613.137 239.82 L 613.137 239.82 L 613.137 239.82 Q 613.887 239.205 614.901 238.865 L 614.901 238.865 L 614.901 238.865 Q 615.914 238.525 617.086 238.525 L 617.086 238.525 L 617.086 238.525 Q 618.352 238.525 619.407 238.836 L 619.407 238.836 L 619.407 238.836 Q 620.461 239.146 621.211 239.762 L 621.211 239.762 L 621.211 239.762 Q 621.961 240.377 622.377 241.285 L 622.377 241.285 L 622.377 241.285 Q 622.793 242.193 622.793 243.389 L 622.793 243.389 L 622.793 243.389 Q 622.793 243.939 622.629 244.473 L 622.629 244.473 L 622.629 244.473 Q 622.465 245.006 622.149 245.486 L 622.149 245.486 L 622.149 245.486 Q 621.832 245.967 621.364 246.371 L 621.364 246.371 L 621.364 246.371 Q 620.895 246.775 620.285 247.068 L 620.285 247.068 L 620.285 247.068 Q 621 247.326 621.522 247.725 L 621.522 247.725 L 621.522 247.725 Q 622.043 248.123 622.383 248.633 L 622.383 248.633 L 622.383 248.633 Q 622.723 249.143 622.887 249.752 L 622.887 249.752 L 622.887 249.752 Q 623.051 250.361 623.051 251.041 L 623.051 251.041 L 623.051 251.041 Q 623.051 252.236 622.594 253.174 L 622.594 253.174 L 622.594 253.174 Q 622.137 254.111 621.34 254.75 L 621.34 254.75 L 621.34 254.75 Q 620.543 255.389 619.448 255.723 L 619.448 255.723 L 619.448 255.723 Q 618.352 256.057 617.086 256.057 L 617.086 256.057 L 617.086 256.057 Q 615.996 256.057 614.959 255.758 L 614.959 255.758 L 614.959 255.758 Q 613.922 255.459 613.114 254.855 L 613.114 254.855 L 613.114 254.855 Q 612.305 254.252 611.819 253.338 L 611.819 253.338 L 611.819 253.338 Q 611.332 252.424 611.332 251.182 L 611.332 251.182 L 614.59 251.182 L 614.59 251.182 Q 614.59 251.674 614.778 252.09 L 614.778 252.09 L 614.778 252.09 Q 614.965 252.506 615.311 252.805 L 615.311 252.805 L 615.311 252.805 Q 615.657 253.104 616.125 253.273 L 616.125 253.273 L 616.125 253.273 Q 616.594 253.443 617.157 253.443 L 617.157 253.443 L 617.157 253.443 Q 618.399 253.443 619.102 252.787 L 619.102 252.787 L 619.102 252.787 Q 619.805 252.131 619.805 251.006 L 619.805 251.006 L 619.805 251.006 Q 619.805 250.314 619.606 249.822 L 619.606 249.822 L 619.606 249.822 Q 619.407 249.33 619.026 249.014 L 619.026 249.014 L 619.026 249.014 Q 618.645 248.697 618.112 248.545 L 618.112 248.545 L 618.112 248.545 Q 617.578 248.393 616.91 248.393 L 616.91 248.393 L 615.141 248.393 Z " fill-rule="evenodd" fill="rgb(0,0,0)"/></g><g id="C14"><path d=" M 702.793 246.5 C 702.793 234.243 712.743 224.293 725 224.293 C 737.257 224.293 747.207 234.243 747.207 246.5 C 747.207 258.757 737.257 268.707 725 268.707 C 712.743 268.707 702.793 258.757 702.793 246.5 Z " fill="rgb(195,215,247)" vector-effect="non-scaling-stroke" stroke-width="2" stroke="rgb(0,0,0)" stroke-linejoin="miter" stroke-linecap="square" stroke-miterlimit="3"/><path d=" M 719.23 238.76 L 719.23 255.822 L 715.937 255.822 L 715.937 242.732 L 711.625 244.279 L 711.625 241.443 L 719.055 238.76 L 719.23 238.76 Z  M 735.168 238.76 L 735.168 249.482 L 737.148 249.482 L 737.148 252.119 L 735.168 252.119 L 735.168 255.822 L 731.91 255.822 L 731.91 252.119 L 724.82 252.119 L 724.691 250.08 L 731.863 238.76 L 735.168 238.76 Z  M 731.594 243.705 L 727.891 249.482 L 731.91 249.482 L 731.91 243.143 L 731.594 243.705 Z " fill-rule="evenodd" fill="rgb(0,0,0)"/></g></g></svg>