<?xml version="1.0" standalone="no"?><!-- Generator: Gravit.io --><svg xmlns="http://www.w3.org/2000/svg" xmlns:xlink="http://www.w3.org/1999/xlink" style="isolation:isolate" viewBox="0 0 800 350" width="800" height="350"><defs><clipPath id="_clipPath_civUbDPrWeIoWfJOJ8edQXJvdlefhoRJ"><rect width="800" height="350"/></clipPath></defs><g clip-path="url(#_clipPath_civUbDPrWeIoWfJOJ8edQXJvdlefhoRJ)"><line x1="111" y1="226" x2="662" y2="226" vector-effect="non-scaling-stroke" stroke-width="2" stroke="rgb(0,0,0)" stroke-linejoin="miter" stroke-linecap="square" stroke-miterlimit="3"/><line x1="328.594" y1="304" x2="451.651" y2="304" vector-effect="non-scaling-stroke" stroke-width="2" stroke="rgb(0,0,0)" stroke-linejoin="miter" stroke-linecap="square" stroke-miterlimit="3"/><line x1="299.471" y1="135.793" x2="368.817" y2="135.793" vector-effect="non-scaling-stroke" stroke-width="2" stroke="rgb(0,0,0)" stroke-linejoin="miter" stroke-linecap="square" stroke-miterlimit="3"/><line x1="328.594" y1="304" x2="300.622" y2="226" vector-effect="non-scaling-stroke" stroke-width="2" stroke="rgb(0,0,0)" stroke-linejoin="miter" stroke-linecap="square" stroke-miterlimit="3"/><line x1="451.821" y1="304" x2="481" y2="226" vector-effect="non-scaling-stroke" stroke-width="2" stroke="rgb(0,0,0)" stroke-linejoin="miter" stroke-linecap="square" stroke-miterlimit="3"/><line x1="237.793" y1="226" x2="299.386" y2="135.793" vector-effect="non-scaling-stroke" stroke-width="2" stroke="rgb(0,0,0)" stroke-linejoin="miter" stroke-linecap="square" stroke-miterlimit="3"/><g id="Bmaster"><path d="M 618.883 161.793 L 703.531 161.793 C 707.768 161.793 711.207 165.232 711.207 169.469 L 711.207 191.117 C 711.207 195.353 707.768 198.793 703.531 198.793 L 618.883 198.793 C 614.647 198.793 611.207 195.353 611.207 191.117 L 611.207 169.469 C 611.207 165.232 614.647 161.793 618.883 161.793 Z" style="stroke:none;fill:#9FC4FF;stroke-miterlimit:10;"/><path d="M 618.883 161.793 L 703.531 161.793 C 707.768 161.793 711.207 165.232 711.207 169.469 L 711.207 191.117 C 711.207 195.353 707.768 198.793 703.531 198.793 L 618.883 198.793 C 614.647 198.793 611.207 195.353 611.207 191.117 L 611.207 169.469 C 611.207 165.232 614.647 161.793 618.883 161.793 Z" style="fill:none;stroke:#000000;stroke-width:1.6855342301554246;stroke-linecap:square;stroke-miterlimit:3;"/><path d=" M 636.425 182.073 L 636.425 187.551 L 633.447 187.551 L 633.447 181.175 L 633.447 181.175 Q 633.447 179.993 633.051 179.402 L 633.051 179.402 L 633.051 179.402 Q 632.656 178.811 631.806 178.811 L 631.806 178.811 L 631.806 178.811 Q 630.663 178.811 630.146 179.651 L 630.146 179.651 L 630.146 179.651 Q 629.628 180.491 629.628 182.415 L 629.628 182.415 L 629.628 187.551 L 626.65 187.551 L 626.65 176.633 L 628.925 176.633 L 629.325 178.03 L 629.492 178.03 L 629.492 178.03 Q 629.931 177.278 630.761 176.853 L 630.761 176.853 L 630.761 176.853 Q 631.591 176.428 632.665 176.428 L 632.665 176.428 L 632.665 176.428 Q 635.117 176.428 635.986 178.03 L 635.986 178.03 L 636.249 178.03 L 636.249 178.03 Q 636.689 177.268 637.543 176.848 L 637.543 176.848 L 637.543 176.848 Q 638.398 176.428 639.472 176.428 L 639.472 176.428 L 639.472 176.428 Q 641.327 176.428 642.28 177.381 L 642.28 177.381 L 642.28 177.381 Q 643.232 178.333 643.232 180.432 L 643.232 180.432 L 643.232 187.551 L 640.243 187.551 L 640.243 181.175 L 640.243 181.175 Q 640.243 179.993 639.848 179.402 L 639.848 179.402 L 639.848 179.402 Q 639.452 178.811 638.603 178.811 L 638.603 178.811 L 638.603 178.811 Q 637.509 178.811 636.967 179.592 L 636.967 179.592 L 636.967 179.592 Q 636.425 180.374 636.425 182.073 L 636.425 182.073 Z  M 655.302 187.551 L 653.222 187.551 L 652.646 186.067 L 652.568 186.067 L 652.568 186.067 Q 651.816 187.014 651.02 187.381 L 651.02 187.381 L 651.02 187.381 Q 650.224 187.747 648.945 187.747 L 648.945 187.747 L 648.945 187.747 Q 647.372 187.747 646.469 186.848 L 646.469 186.848 L 646.469 186.848 Q 645.566 185.95 645.566 184.29 L 645.566 184.29 L 645.566 184.29 Q 645.566 182.551 646.782 181.726 L 646.782 181.726 L 646.782 181.726 Q 647.997 180.901 650.449 180.813 L 650.449 180.813 L 652.343 180.755 L 652.343 180.276 L 652.343 180.276 Q 652.343 178.616 650.644 178.616 L 650.644 178.616 L 650.644 178.616 Q 649.335 178.616 647.568 179.407 L 647.568 179.407 L 646.581 177.395 L 646.581 177.395 Q 648.466 176.409 650.761 176.409 L 650.761 176.409 L 650.761 176.409 Q 652.958 176.409 654.13 177.366 L 654.13 177.366 L 654.13 177.366 Q 655.302 178.323 655.302 180.276 L 655.302 180.276 L 655.302 187.551 Z  M 652.343 183.391 L 652.343 182.493 L 651.191 182.532 L 651.191 182.532 Q 649.892 182.571 649.257 183.001 L 649.257 183.001 L 649.257 183.001 Q 648.622 183.43 648.622 184.309 L 648.622 184.309 L 648.622 184.309 Q 648.622 185.569 650.068 185.569 L 650.068 185.569 L 650.068 185.569 Q 651.103 185.569 651.723 184.973 L 651.723 184.973 L 651.723 184.973 Q 652.343 184.378 652.343 183.391 L 652.343 183.391 Z  M 665.986 184.309 L 665.986 184.309 L 665.986 184.309 Q 665.986 185.989 664.819 186.868 L 664.819 186.868 L 664.819 186.868 Q 663.652 187.747 661.327 187.747 L 661.327 187.747 L 661.327 187.747 Q 660.136 187.747 659.296 187.586 L 659.296 187.586 L 659.296 187.586 Q 658.456 187.425 657.724 187.112 L 657.724 187.112 L 657.724 184.651 L 657.724 184.651 Q 658.554 185.042 659.594 185.305 L 659.594 185.305 L 659.594 185.305 Q 660.634 185.569 661.425 185.569 L 661.425 185.569 L 661.425 185.569 Q 663.046 185.569 663.046 184.632 L 663.046 184.632 L 663.046 184.632 Q 663.046 184.28 662.831 184.06 L 662.831 184.06 L 662.831 184.06 Q 662.617 183.841 662.089 183.562 L 662.089 183.562 L 662.089 183.562 Q 661.562 183.284 660.683 182.913 L 660.683 182.913 L 660.683 182.913 Q 659.423 182.385 658.832 181.936 L 658.832 181.936 L 658.832 181.936 Q 658.242 181.487 657.973 180.906 L 657.973 180.906 L 657.973 180.906 Q 657.704 180.325 657.704 179.475 L 657.704 179.475 L 657.704 179.475 Q 657.704 178.02 658.832 177.224 L 658.832 177.224 L 658.832 177.224 Q 659.96 176.428 662.031 176.428 L 662.031 176.428 L 662.031 176.428 Q 664.003 176.428 665.868 177.288 L 665.868 177.288 L 664.97 179.436 L 664.97 179.436 Q 664.15 179.085 663.437 178.86 L 663.437 178.86 L 663.437 178.86 Q 662.724 178.635 661.982 178.635 L 661.982 178.635 L 661.982 178.635 Q 660.663 178.635 660.663 179.348 L 660.663 179.348 L 660.663 179.348 Q 660.663 179.749 661.088 180.042 L 661.088 180.042 L 661.088 180.042 Q 661.513 180.335 662.949 180.911 L 662.949 180.911 L 662.949 180.911 Q 664.228 181.428 664.824 181.878 L 664.824 181.878 L 664.824 181.878 Q 665.419 182.327 665.702 182.913 L 665.702 182.913 L 665.702 182.913 Q 665.986 183.499 665.986 184.309 Z  M 672.909 185.374 L 672.909 185.374 L 672.909 185.374 Q 673.691 185.374 674.784 185.032 L 674.784 185.032 L 674.784 187.249 L 674.784 187.249 Q 673.671 187.747 672.05 187.747 L 672.05 187.747 L 672.05 187.747 Q 670.263 187.747 669.448 186.843 L 669.448 186.843 L 669.448 186.843 Q 668.632 185.94 668.632 184.133 L 668.632 184.133 L 668.632 178.87 L 667.206 178.87 L 667.206 177.61 L 668.847 176.614 L 669.706 174.309 L 671.611 174.309 L 671.611 176.633 L 674.667 176.633 L 674.667 178.87 L 671.611 178.87 L 671.611 184.133 L 671.611 184.133 Q 671.611 184.768 671.967 185.071 L 671.967 185.071 L 671.967 185.071 Q 672.324 185.374 672.909 185.374 Z  M 681.513 178.548 L 681.513 178.548 L 681.513 178.548 Q 680.566 178.548 680.029 179.148 L 680.029 179.148 L 680.029 179.148 Q 679.492 179.749 679.413 180.852 L 679.413 180.852 L 683.593 180.852 L 683.593 180.852 Q 683.574 179.749 683.017 179.148 L 683.017 179.148 L 683.017 179.148 Q 682.46 178.548 681.513 178.548 Z  M 681.933 187.747 L 681.933 187.747 L 681.933 187.747 Q 679.296 187.747 677.812 186.292 L 677.812 186.292 L 677.812 186.292 Q 676.327 184.837 676.327 182.171 L 676.327 182.171 L 676.327 182.171 Q 676.327 179.426 677.7 177.927 L 677.7 177.927 L 677.7 177.927 Q 679.072 176.428 681.493 176.428 L 681.493 176.428 L 681.493 176.428 Q 683.808 176.428 685.097 177.747 L 685.097 177.747 L 685.097 177.747 Q 686.386 179.065 686.386 181.389 L 686.386 181.389 L 686.386 182.835 L 679.345 182.835 L 679.345 182.835 Q 679.394 184.104 680.097 184.817 L 680.097 184.817 L 680.097 184.817 Q 680.8 185.53 682.07 185.53 L 682.07 185.53 L 682.07 185.53 Q 683.056 185.53 683.935 185.325 L 683.935 185.325 L 683.935 185.325 Q 684.814 185.12 685.771 184.671 L 685.771 184.671 L 685.771 186.975 L 685.771 186.975 Q 684.99 187.366 684.101 187.556 L 684.101 187.556 L 684.101 187.556 Q 683.212 187.747 681.933 187.747 Z  M 694.902 176.428 L 694.902 176.428 L 694.902 176.428 Q 695.507 176.428 695.908 176.516 L 695.908 176.516 L 695.683 179.309 L 695.683 179.309 Q 695.322 179.212 694.804 179.212 L 694.804 179.212 L 694.804 179.212 Q 693.378 179.212 692.582 179.944 L 692.582 179.944 L 692.582 179.944 Q 691.786 180.676 691.786 181.995 L 691.786 181.995 L 691.786 187.551 L 688.808 187.551 L 688.808 176.633 L 691.064 176.633 L 691.503 178.469 L 691.65 178.469 L 691.65 178.469 Q 692.158 177.551 693.022 176.99 L 693.022 176.99 L 693.022 176.99 Q 693.886 176.428 694.902 176.428 Z " fill-rule="evenodd" fill="rgb(0,0,0)"/></g><g id="Btest"><path d="M 326.294 71.793 L 410.942 71.793 C 415.178 71.793 418.618 75.232 418.618 79.469 L 418.618 101.117 C 418.618 105.353 415.178 108.793 410.942 108.793 L 326.294 108.793 C 322.057 108.793 318.618 105.353 318.618 101.117 L 318.618 79.469 C 318.618 75.232 322.057 71.793 326.294 71.793 Z" style="stroke:none;fill:#D3F0C1;stroke-linecap:square;stroke-miterlimit:3;"/><path d="M 326.294 71.793 L 410.942 71.793 C 415.178 71.793 418.618 75.232 418.618 79.469 L 418.618 101.117 C 418.618 105.353 415.178 108.793 410.942 108.793 L 326.294 108.793 C 322.057 108.793 318.618 105.353 318.618 101.117 L 318.618 79.469 C 318.618 75.232 322.057 71.793 326.294 71.793 Z" style="fill:none;stroke:#000000;stroke-width:1.6855342301554246;stroke-linecap:square;stroke-miterlimit:3;"/><path d=" M 345.528 92.27 L 348.233 83.774 L 351.29 83.774 L 346.436 98.051 L 343.135 98.051 L 338.292 83.774 L 341.348 83.774 L 344.034 92.27 L 344.034 92.27 Q 344.259 93.022 344.498 94.023 L 344.498 94.023 L 344.498 94.023 Q 344.737 95.024 344.796 95.415 L 344.796 95.415 L 344.796 95.415 Q 344.903 94.516 345.528 92.27 L 345.528 92.27 Z  M 359.551 83.774 L 359.551 98.051 L 356.534 98.051 L 356.534 89.79 L 356.563 88.432 L 356.612 86.948 L 356.612 86.948 Q 355.86 87.7 355.567 87.934 L 355.567 87.934 L 353.926 89.253 L 352.471 87.436 L 357.071 83.774 L 359.551 83.774 Z  M 363.848 96.655 L 363.848 96.655 L 363.848 96.655 Q 363.848 95.835 364.288 95.415 L 364.288 95.415 L 364.288 95.415 Q 364.727 94.995 365.567 94.995 L 365.567 94.995 L 365.567 94.995 Q 366.378 94.995 366.822 95.425 L 366.822 95.425 L 366.822 95.425 Q 367.266 95.854 367.266 96.655 L 367.266 96.655 L 367.266 96.655 Q 367.266 97.426 366.817 97.871 L 366.817 97.871 L 366.817 97.871 Q 366.368 98.315 365.567 98.315 L 365.567 98.315 L 365.567 98.315 Q 364.747 98.315 364.298 97.881 L 364.298 97.881 L 364.298 97.881 Q 363.848 97.446 363.848 96.655 Z  M 379.112 90.913 L 379.112 90.913 L 379.112 90.913 Q 379.112 94.653 377.886 96.45 L 377.886 96.45 L 377.886 96.45 Q 376.661 98.247 374.112 98.247 L 374.112 98.247 L 374.112 98.247 Q 371.641 98.247 370.386 96.391 L 370.386 96.391 L 370.386 96.391 Q 369.132 94.536 369.132 90.913 L 369.132 90.913 L 369.132 90.913 Q 369.132 87.133 370.352 85.342 L 370.352 85.342 L 370.352 85.342 Q 371.573 83.55 374.112 83.55 L 374.112 83.55 L 374.112 83.55 Q 376.583 83.55 377.847 85.425 L 377.847 85.425 L 377.847 85.425 Q 379.112 87.3 379.112 90.913 Z  M 372.13 90.913 L 372.13 90.913 L 372.13 90.913 Q 372.13 93.54 372.584 94.677 L 372.584 94.677 L 372.584 94.677 Q 373.038 95.815 374.112 95.815 L 374.112 95.815 L 374.112 95.815 Q 375.167 95.815 375.635 94.663 L 375.635 94.663 L 375.635 94.663 Q 376.104 93.51 376.104 90.913 L 376.104 90.913 L 376.104 90.913 Q 376.104 88.286 375.631 87.138 L 375.631 87.138 L 375.631 87.138 Q 375.157 85.991 374.112 85.991 L 374.112 85.991 L 374.112 85.991 Q 373.048 85.991 372.589 87.138 L 372.589 87.138 L 372.589 87.138 Q 372.13 88.286 372.13 90.913 Z  M 380.967 96.655 L 380.967 96.655 L 380.967 96.655 Q 380.967 95.835 381.407 95.415 L 381.407 95.415 L 381.407 95.415 Q 381.846 94.995 382.686 94.995 L 382.686 94.995 L 382.686 94.995 Q 383.497 94.995 383.941 95.425 L 383.941 95.425 L 383.941 95.425 Q 384.385 95.854 384.385 96.655 L 384.385 96.655 L 384.385 96.655 Q 384.385 97.426 383.936 97.871 L 383.936 97.871 L 383.936 97.871 Q 383.487 98.315 382.686 98.315 L 382.686 98.315 L 382.686 98.315 Q 381.866 98.315 381.417 97.881 L 381.417 97.881 L 381.417 97.881 Q 380.967 97.446 380.967 96.655 Z  M 396.231 90.913 L 396.231 90.913 L 396.231 90.913 Q 396.231 94.653 395.006 96.45 L 395.006 96.45 L 395.006 96.45 Q 393.78 98.247 391.231 98.247 L 391.231 98.247 L 391.231 98.247 Q 388.76 98.247 387.506 96.391 L 387.506 96.391 L 387.506 96.391 Q 386.251 94.536 386.251 90.913 L 386.251 90.913 L 386.251 90.913 Q 386.251 87.133 387.471 85.342 L 387.471 85.342 L 387.471 85.342 Q 388.692 83.55 391.231 83.55 L 391.231 83.55 L 391.231 83.55 Q 393.702 83.55 394.967 85.425 L 394.967 85.425 L 394.967 85.425 Q 396.231 87.3 396.231 90.913 Z  M 389.249 90.913 L 389.249 90.913 L 389.249 90.913 Q 389.249 93.54 389.703 94.677 L 389.703 94.677 L 389.703 94.677 Q 390.157 95.815 391.231 95.815 L 391.231 95.815 L 391.231 95.815 Q 392.286 95.815 392.755 94.663 L 392.755 94.663 L 392.755 94.663 Q 393.223 93.51 393.223 90.913 L 393.223 90.913 L 393.223 90.913 Q 393.223 88.286 392.75 87.138 L 392.75 87.138 L 392.75 87.138 Q 392.276 85.991 391.231 85.991 L 391.231 85.991 L 391.231 85.991 Q 390.167 85.991 389.708 87.138 L 389.708 87.138 L 389.708 87.138 Q 389.249 88.286 389.249 90.913 Z " fill-rule="evenodd" fill="rgb(0,0,0)"/></g><g id="Bfeat1"><path d="M 438.676 161.793 L 523.324 161.793 C 527.56 161.793 531 165.232 531 169.469 L 531 191.117 C 531 195.353 527.56 198.793 523.324 198.793 L 438.676 198.793 C 434.44 198.793 431 195.353 431 191.117 L 431 169.469 C 431 165.232 434.44 161.793 438.676 161.793 Z" style="stroke:none;fill:#D1D1D1;stroke-linecap:square;stroke-miterlimit:3;"/><path d="M 438.676 161.793 L 523.324 161.793 C 527.56 161.793 531 165.232 531 169.469 L 531 191.117 C 531 195.353 527.56 198.793 523.324 198.793 L 438.676 198.793 C 434.44 198.793 431 195.353 431 191.117 L 431 169.469 C 431 165.232 434.44 161.793 438.676 161.793 Z" style="fill:none;stroke:#000000;stroke-width:1.6855342301554246;stroke-linecap:square;stroke-miterlimit:3;"/><path d=" M 461.229 177.133 L 461.229 179.37 L 458.65 179.37 L 458.65 188.051 L 455.672 188.051 L 455.672 179.37 L 454.031 179.37 L 454.031 177.934 L 455.672 177.133 L 455.672 176.333 L 455.672 176.333 Q 455.672 174.467 456.59 173.608 L 456.59 173.608 L 456.59 173.608 Q 457.508 172.749 459.529 172.749 L 459.529 172.749 L 459.529 172.749 Q 461.072 172.749 462.273 173.208 L 462.273 173.208 L 461.512 175.395 L 461.512 175.395 Q 460.613 175.112 459.852 175.112 L 459.852 175.112 L 459.852 175.112 Q 459.217 175.112 458.934 175.488 L 458.934 175.488 L 458.934 175.488 Q 458.65 175.864 458.65 176.45 L 458.65 176.45 L 458.65 177.133 L 461.229 177.133 Z  M 467.459 179.048 L 467.459 179.048 L 467.459 179.048 Q 466.512 179.048 465.975 179.648 L 465.975 179.648 L 465.975 179.648 Q 465.437 180.249 465.359 181.352 L 465.359 181.352 L 469.539 181.352 L 469.539 181.352 Q 469.52 180.249 468.963 179.648 L 468.963 179.648 L 468.963 179.648 Q 468.406 179.048 467.459 179.048 Z  M 467.879 188.247 L 467.879 188.247 L 467.879 188.247 Q 465.242 188.247 463.758 186.792 L 463.758 186.792 L 463.758 186.792 Q 462.273 185.337 462.273 182.671 L 462.273 182.671 L 462.273 182.671 Q 462.273 179.926 463.646 178.427 L 463.646 178.427 L 463.646 178.427 Q 465.018 176.928 467.439 176.928 L 467.439 176.928 L 467.439 176.928 Q 469.754 176.928 471.043 178.247 L 471.043 178.247 L 471.043 178.247 Q 472.332 179.565 472.332 181.889 L 472.332 181.889 L 472.332 183.335 L 465.291 183.335 L 465.291 183.335 Q 465.34 184.604 466.043 185.317 L 466.043 185.317 L 466.043 185.317 Q 466.746 186.03 468.016 186.03 L 468.016 186.03 L 468.016 186.03 Q 469.002 186.03 469.881 185.825 L 469.881 185.825 L 469.881 185.825 Q 470.76 185.62 471.717 185.171 L 471.717 185.171 L 471.717 187.475 L 471.717 187.475 Q 470.936 187.866 470.047 188.056 L 470.047 188.056 L 470.047 188.056 Q 469.158 188.247 467.879 188.247 Z  M 483.768 188.051 L 481.687 188.051 L 481.111 186.567 L 481.033 186.567 L 481.033 186.567 Q 480.281 187.514 479.485 187.881 L 479.485 187.881 L 479.485 187.881 Q 478.689 188.247 477.41 188.247 L 477.41 188.247 L 477.41 188.247 Q 475.838 188.247 474.935 187.348 L 474.935 187.348 L 474.935 187.348 Q 474.031 186.45 474.031 184.79 L 474.031 184.79 L 474.031 184.79 Q 474.031 183.051 475.247 182.226 L 475.247 182.226 L 475.247 182.226 Q 476.463 181.401 478.914 181.313 L 478.914 181.313 L 480.809 181.255 L 480.809 180.776 L 480.809 180.776 Q 480.809 179.116 479.109 179.116 L 479.109 179.116 L 479.109 179.116 Q 477.801 179.116 476.033 179.907 L 476.033 179.907 L 475.047 177.895 L 475.047 177.895 Q 476.932 176.909 479.227 176.909 L 479.227 176.909 L 479.227 176.909 Q 481.424 176.909 482.596 177.866 L 482.596 177.866 L 482.596 177.866 Q 483.768 178.823 483.768 180.776 L 483.768 180.776 L 483.768 188.051 Z  M 480.809 183.891 L 480.809 182.993 L 479.656 183.032 L 479.656 183.032 Q 478.357 183.071 477.723 183.501 L 477.723 183.501 L 477.723 183.501 Q 477.088 183.93 477.088 184.809 L 477.088 184.809 L 477.088 184.809 Q 477.088 186.069 478.533 186.069 L 478.533 186.069 L 478.533 186.069 Q 479.568 186.069 480.188 185.473 L 480.188 185.473 L 480.188 185.473 Q 480.809 184.878 480.809 183.891 L 480.809 183.891 Z  M 491.434 185.874 L 491.434 185.874 L 491.434 185.874 Q 492.215 185.874 493.309 185.532 L 493.309 185.532 L 493.309 187.749 L 493.309 187.749 Q 492.195 188.247 490.574 188.247 L 490.574 188.247 L 490.574 188.247 Q 488.787 188.247 487.972 187.343 L 487.972 187.343 L 487.972 187.343 Q 487.156 186.44 487.156 184.633 L 487.156 184.633 L 487.156 179.37 L 485.73 179.37 L 485.73 178.11 L 487.371 177.114 L 488.23 174.809 L 490.135 174.809 L 490.135 177.133 L 493.191 177.133 L 493.191 179.37 L 490.135 179.37 L 490.135 184.633 L 490.135 184.633 Q 490.135 185.268 490.491 185.571 L 490.491 185.571 L 490.491 185.571 Q 490.848 185.874 491.434 185.874 Z  M 502.215 173.774 L 502.215 188.051 L 499.197 188.051 L 499.197 179.79 L 499.227 178.432 L 499.275 176.948 L 499.275 176.948 Q 498.523 177.7 498.23 177.934 L 498.23 177.934 L 496.59 179.253 L 495.135 177.436 L 499.734 173.774 L 502.215 173.774 Z " fill-rule="evenodd" fill="rgb(0,0,0)"/></g><g id="Bfeat1"><path d="M 438.676 161.793 L 523.324 161.793 C 527.56 161.793 531 165.232 531 169.469 L 531 191.117 C 531 195.353 527.56 198.793 523.324 198.793 L 438.676 198.793 C 434.44 198.793 431 195.353 431 191.117 L 431 169.469 C 431 165.232 434.44 161.793 438.676 161.793 Z" style="stroke:none;fill:#D1D1D1;stroke-linecap:square;stroke-miterlimit:3;"/><path d="M 438.676 161.793 L 523.324 161.793 C 527.56 161.793 531 165.232 531 169.469 L 531 191.117 C 531 195.353 527.56 198.793 523.324 198.793 L 438.676 198.793 C 434.44 198.793 431 195.353 431 191.117 L 431 169.469 C 431 165.232 434.44 161.793 438.676 161.793 Z" style="fill:none;stroke:#000000;stroke-width:1.6855342301554246;stroke-linecap:square;stroke-miterlimit:3;"/><path d=" M 461.229 177.133 L 461.229 179.37 L 458.65 179.37 L 458.65 188.051 L 455.672 188.051 L 455.672 179.37 L 454.031 179.37 L 454.031 177.934 L 455.672 177.133 L 455.672 176.333 L 455.672 176.333 Q 455.672 174.467 456.59 173.608 L 456.59 173.608 L 456.59 173.608 Q 457.508 172.749 459.529 172.749 L 459.529 172.749 L 459.529 172.749 Q 461.072 172.749 462.273 173.208 L 462.273 173.208 L 461.512 175.395 L 461.512 175.395 Q 460.613 175.112 459.852 175.112 L 459.852 175.112 L 459.852 175.112 Q 459.217 175.112 458.934 175.488 L 458.934 175.488 L 458.934 175.488 Q 458.65 175.864 458.65 176.45 L 458.65 176.45 L 458.65 177.133 L 461.229 177.133 Z  M 467.459 179.048 L 467.459 179.048 L 467.459 179.048 Q 466.512 179.048 465.975 179.648 L 465.975 179.648 L 465.975 179.648 Q 465.437 180.249 465.359 181.352 L 465.359 181.352 L 469.539 181.352 L 469.539 181.352 Q 469.52 180.249 468.963 179.648 L 468.963 179.648 L 468.963 179.648 Q 468.406 179.048 467.459 179.048 Z  M 467.879 188.247 L 467.879 188.247 L 467.879 188.247 Q 465.242 188.247 463.758 186.792 L 463.758 186.792 L 463.758 186.792 Q 462.273 185.337 462.273 182.671 L 462.273 182.671 L 462.273 182.671 Q 462.273 179.926 463.646 178.427 L 463.646 178.427 L 463.646 178.427 Q 465.018 176.928 467.439 176.928 L 467.439 176.928 L 467.439 176.928 Q 469.754 176.928 471.043 178.247 L 471.043 178.247 L 471.043 178.247 Q 472.332 179.565 472.332 181.889 L 472.332 181.889 L 472.332 183.335 L 465.291 183.335 L 465.291 183.335 Q 465.34 184.604 466.043 185.317 L 466.043 185.317 L 466.043 185.317 Q 466.746 186.03 468.016 186.03 L 468.016 186.03 L 468.016 186.03 Q 469.002 186.03 469.881 185.825 L 469.881 185.825 L 469.881 185.825 Q 470.76 185.62 471.717 185.171 L 471.717 185.171 L 471.717 187.475 L 471.717 187.475 Q 470.936 187.866 470.047 188.056 L 470.047 188.056 L 470.047 188.056 Q 469.158 188.247 467.879 188.247 Z  M 483.768 188.051 L 481.687 188.051 L 481.111 186.567 L 481.033 186.567 L 481.033 186.567 Q 480.281 187.514 479.485 187.881 L 479.485 187.881 L 479.485 187.881 Q 478.689 188.247 477.41 188.247 L 477.41 188.247 L 477.41 188.247 Q 475.838 188.247 474.935 187.348 L 474.935 187.348 L 474.935 187.348 Q 474.031 186.45 474.031 184.79 L 474.031 184.79 L 474.031 184.79 Q 474.031 183.051 475.247 182.226 L 475.247 182.226 L 475.247 182.226 Q 476.463 181.401 478.914 181.313 L 478.914 181.313 L 480.809 181.255 L 480.809 180.776 L 480.809 180.776 Q 480.809 179.116 479.109 179.116 L 479.109 179.116 L 479.109 179.116 Q 477.801 179.116 476.033 179.907 L 476.033 179.907 L 475.047 177.895 L 475.047 177.895 Q 476.932 176.909 479.227 176.909 L 479.227 176.909 L 479.227 176.909 Q 481.424 176.909 482.596 177.866 L 482.596 177.866 L 482.596 177.866 Q 483.768 178.823 483.768 180.776 L 483.768 180.776 L 483.768 188.051 Z  M 480.809 183.891 L 480.809 182.993 L 479.656 183.032 L 479.656 183.032 Q 478.357 183.071 477.723 183.501 L 477.723 183.501 L 477.723 183.501 Q 477.088 183.93 477.088 184.809 L 477.088 184.809 L 477.088 184.809 Q 477.088 186.069 478.533 186.069 L 478.533 186.069 L 478.533 186.069 Q 479.568 186.069 480.188 185.473 L 480.188 185.473 L 480.188 185.473 Q 480.809 184.878 480.809 183.891 L 480.809 183.891 Z  M 491.434 185.874 L 491.434 185.874 L 491.434 185.874 Q 492.215 185.874 493.309 185.532 L 493.309 185.532 L 493.309 187.749 L 493.309 187.749 Q 492.195 188.247 490.574 188.247 L 490.574 188.247 L 490.574 188.247 Q 488.787 188.247 487.972 187.343 L 487.972 187.343 L 487.972 187.343 Q 487.156 186.44 487.156 184.633 L 487.156 184.633 L 487.156 179.37 L 485.73 179.37 L 485.73 178.11 L 487.371 177.114 L 488.23 174.809 L 490.135 174.809 L 490.135 177.133 L 493.191 177.133 L 493.191 179.37 L 490.135 179.37 L 490.135 184.633 L 490.135 184.633 Q 490.135 185.268 490.491 185.571 L 490.491 185.571 L 490.491 185.571 Q 490.848 185.874 491.434 185.874 Z  M 502.215 173.774 L 502.215 188.051 L 499.197 188.051 L 499.197 179.79 L 499.227 178.432 L 499.275 176.948 L 499.275 176.948 Q 498.523 177.7 498.23 177.934 L 498.23 177.934 L 496.59 179.253 L 495.135 177.436 L 499.734 173.774 L 502.215 173.774 Z " fill-rule="evenodd" fill="rgb(0,0,0)"/></g><g id="Bhead" style="opacity:0.54;"><path d="M 624.706 123.793 L 696.927 123.793 C 700.868 123.793 704.067 126.992 704.067 130.932 L 704.067 153.653 C 704.067 157.594 700.868 160.793 696.927 160.793 L 624.706 160.793 C 620.766 160.793 617.567 157.594 617.567 153.653 L 617.567 130.932 C 617.567 126.992 620.766 123.793 624.706 123.793 Z" style="stroke:none;fill:#FFF3A5;stroke-linecap:square;stroke-miterlimit:3;"/><path d="M 624.706 123.793 L 696.927 123.793 C 700.868 123.793 704.067 126.992 704.067 130.932 L 704.067 153.653 C 704.067 157.594 700.868 160.793 696.927 160.793 L 624.706 160.793 C 620.766 160.793 617.567 157.594 617.567 153.653 L 617.567 130.932 C 617.567 126.992 620.766 123.793 624.706 123.793 Z" style="fill:none;stroke:#000000;stroke-width:1.6855342301554246;stroke-linecap:square;stroke-dasharray:6;stroke-miterlimit:3;"/><path d=" M 645.759 136.501 L 645.759 150.779 L 642.741 150.779 L 642.741 144.617 L 637.087 144.617 L 637.087 150.779 L 634.06 150.779 L 634.06 136.501 L 637.087 136.501 L 637.087 142.097 L 642.741 142.097 L 642.741 136.501 L 645.759 136.501 Z  M 657.585 148.279 L 657.585 150.779 L 649.362 150.779 L 649.362 136.501 L 657.585 136.501 L 657.585 138.982 L 652.39 138.982 L 652.39 142.117 L 657.224 142.117 L 657.224 144.597 L 652.39 144.597 L 652.39 148.279 L 657.585 148.279 Z  M 672.566 150.779 L 669.304 150.779 L 668.269 147.38 L 663.064 147.38 L 662.028 150.779 L 658.767 150.779 L 663.806 136.443 L 667.507 136.443 L 672.566 150.779 Z  M 663.825 144.841 L 667.546 144.841 L 667.546 144.841 Q 666.111 140.222 665.93 139.617 L 665.93 139.617 L 665.93 139.617 Q 665.749 139.011 665.671 138.659 L 665.671 138.659 L 665.671 138.659 Q 665.349 139.909 663.825 144.841 L 663.825 144.841 Z  M 686.208 143.503 L 686.208 143.503 L 686.208 143.503 Q 686.208 147.029 684.201 148.904 L 684.201 148.904 L 684.201 148.904 Q 682.195 150.779 678.405 150.779 L 678.405 150.779 L 674.362 150.779 L 674.362 136.501 L 678.845 136.501 L 678.845 136.501 Q 682.341 136.501 684.275 138.347 L 684.275 138.347 L 684.275 138.347 Q 686.208 140.193 686.208 143.503 Z  M 683.064 143.581 L 683.064 143.581 L 683.064 143.581 Q 683.064 138.982 679.001 138.982 L 679.001 138.982 L 677.39 138.982 L 677.39 148.279 L 678.689 148.279 L 678.689 148.279 Q 683.064 148.279 683.064 143.581 Z " fill-rule="evenodd" fill="rgb(0,0,0)"/></g><g id="Bhead"><path d="M 333.054 33.793 L 405.275 33.793 C 409.216 33.793 412.415 36.992 412.415 40.932 L 412.415 63.653 C 412.415 67.594 409.216 70.793 405.275 70.793 L 333.054 70.793 C 329.114 70.793 325.915 67.594 325.915 63.653 L 325.915 40.932 C 325.915 36.992 329.114 33.793 333.054 33.793 Z" style="stroke:none;fill:#FFF3A5;stroke-linecap:square;stroke-miterlimit:3;"/><path d="M 333.054 33.793 L 405.275 33.793 C 409.216 33.793 412.415 36.992 412.415 40.932 L 412.415 63.653 C 412.415 67.594 409.216 70.793 405.275 70.793 L 333.054 70.793 C 329.114 70.793 325.915 67.594 325.915 63.653 L 325.915 40.932 C 325.915 36.992 329.114 33.793 333.054 33.793 Z" style="fill:none;stroke:#000000;stroke-width:1.6855342301554246;stroke-linecap:square;stroke-miterlimit:3;"/><path d=" M 354.107 46.501 L 354.107 60.779 L 351.089 60.779 L 351.089 54.617 L 345.435 54.617 L 345.435 60.779 L 342.408 60.779 L 342.408 46.501 L 345.435 46.501 L 345.435 52.097 L 351.089 52.097 L 351.089 46.501 L 354.107 46.501 Z  M 365.933 58.279 L 365.933 60.779 L 357.711 60.779 L 357.711 46.501 L 365.933 46.501 L 365.933 48.982 L 360.738 48.982 L 360.738 52.117 L 365.572 52.117 L 365.572 54.597 L 360.738 54.597 L 360.738 58.279 L 365.933 58.279 Z  M 380.914 60.779 L 377.652 60.779 L 376.617 57.38 L 371.412 57.38 L 370.377 60.779 L 367.115 60.779 L 372.154 46.443 L 375.855 46.443 L 380.914 60.779 Z  M 372.173 54.841 L 375.894 54.841 L 375.894 54.841 Q 374.459 50.222 374.278 49.617 L 374.278 49.617 L 374.278 49.617 Q 374.097 49.011 374.019 48.659 L 374.019 48.659 L 374.019 48.659 Q 373.697 49.909 372.173 54.841 L 372.173 54.841 Z  M 394.556 53.503 L 394.556 53.503 L 394.556 53.503 Q 394.556 57.029 392.549 58.904 L 392.549 58.904 L 392.549 58.904 Q 390.543 60.779 386.754 60.779 L 386.754 60.779 L 382.711 60.779 L 382.711 46.501 L 387.193 46.501 L 387.193 46.501 Q 390.689 46.501 392.623 48.347 L 392.623 48.347 L 392.623 48.347 Q 394.556 50.193 394.556 53.503 Z  M 391.412 53.581 L 391.412 53.581 L 391.412 53.581 Q 391.412 48.982 387.349 48.982 L 387.349 48.982 L 385.738 48.982 L 385.738 58.279 L 387.037 58.279 L 387.037 58.279 Q 391.412 58.279 391.412 53.581 Z " fill-rule="evenodd" fill="rgb(0,0,0)"/></g><g id="c1"><path d=" M 88.793 226 C 88.793 213.743 98.743 203.793 111 203.793 C 123.257 203.793 133.207 213.743 133.207 226 C 133.207 238.257 123.257 248.207 111 248.207 C 98.743 248.207 88.793 238.257 88.793 226 Z " fill="rgb(195,215,247)" vector-effect="non-scaling-stroke" stroke-width="2" stroke="rgb(0,0,0)" stroke-linejoin="miter" stroke-linecap="square" stroke-miterlimit="3"/><path d=" M 112.432 218.26 L 112.432 235.322 L 109.139 235.322 L 109.139 222.232 L 104.826 223.779 L 104.826 220.943 L 112.256 218.26 L 112.432 218.26 Z " fill="rgb(0,0,0)"/></g><g id="c2"><path d=" M 152 226 C 152 213.743 161.951 203.793 174.207 203.793 C 186.464 203.793 196.415 213.743 196.415 226 C 196.415 238.257 186.464 248.207 174.207 248.207 C 161.951 248.207 152 238.257 152 226 Z " fill="rgb(195,215,247)" vector-effect="non-scaling-stroke" stroke-width="2" stroke="rgb(0,0,0)" stroke-linejoin="miter" stroke-linecap="square" stroke-miterlimit="3"/><path d=" M 178.815 232.709 L 178.815 235.322 L 167.178 235.322 L 167.178 233.096 L 172.698 227.166 L 172.698 227.166 Q 173.342 226.463 173.787 225.889 L 173.787 225.889 L 173.787 225.889 Q 174.233 225.314 174.508 224.84 L 174.508 224.84 L 174.508 224.84 Q 174.783 224.365 174.907 223.955 L 174.907 223.955 L 174.907 223.955 Q 175.03 223.545 175.03 223.158 L 175.03 223.158 L 175.03 223.158 Q 175.03 222.584 174.866 222.139 L 174.866 222.139 L 174.866 222.139 Q 174.701 221.693 174.403 221.383 L 174.403 221.383 L 174.403 221.383 Q 174.104 221.072 173.688 220.908 L 173.688 220.908 L 173.688 220.908 Q 173.272 220.744 172.768 220.744 L 172.768 220.744 L 172.768 220.744 Q 171.42 220.744 170.758 221.494 L 170.758 221.494 L 170.758 221.494 Q 170.096 222.244 170.096 223.592 L 170.096 223.592 L 166.826 223.592 L 166.826 223.592 Q 166.826 222.455 167.26 221.441 L 167.26 221.441 L 167.26 221.441 Q 167.694 220.428 168.485 219.666 L 168.485 219.666 L 168.485 219.666 Q 169.276 218.904 170.395 218.465 L 170.395 218.465 L 170.395 218.465 Q 171.514 218.025 172.873 218.025 L 172.873 218.025 L 172.873 218.025 Q 174.174 218.025 175.176 218.389 L 175.176 218.389 L 175.176 218.389 Q 176.178 218.752 176.852 219.408 L 176.852 219.408 L 176.852 219.408 Q 177.526 220.064 177.877 220.984 L 177.877 220.984 L 177.877 220.984 Q 178.229 221.904 178.229 223.018 L 178.229 223.018 L 178.229 223.018 Q 178.229 223.861 177.965 224.629 L 177.965 224.629 L 177.965 224.629 Q 177.701 225.396 177.215 226.146 L 177.215 226.146 L 177.215 226.146 Q 176.729 226.896 176.049 227.676 L 176.049 227.676 L 176.049 227.676 Q 175.369 228.455 174.537 229.311 L 174.537 229.311 L 171.326 232.709 L 178.815 232.709 Z " fill="rgb(0,0,0)"/></g><g id="C3"><path d=" M 215.207 226 C 215.207 213.743 225.158 203.793 237.415 203.793 C 249.671 203.793 259.622 213.743 259.622 226 C 259.622 238.257 249.671 248.207 237.415 248.207 C 225.158 248.207 215.207 238.257 215.207 226 Z " fill="rgb(195,215,247)" vector-effect="non-scaling-stroke" stroke-width="2" stroke="rgb(0,0,0)" stroke-linejoin="miter" stroke-linecap="square" stroke-miterlimit="3"/><path d=" M 234.147 227.893 L 234.147 225.361 L 235.917 225.361 L 235.917 225.361 Q 237.253 225.361 237.897 224.688 L 237.897 224.688 L 237.897 224.688 Q 238.542 224.014 238.542 222.924 L 238.542 222.924 L 238.542 222.924 Q 238.542 222.42 238.395 222.004 L 238.395 222.004 L 238.395 222.004 Q 238.249 221.588 237.956 221.289 L 237.956 221.289 L 237.956 221.289 Q 237.663 220.99 237.212 220.826 L 237.212 220.826 L 237.212 220.826 Q 236.76 220.662 236.163 220.662 L 236.163 220.662 L 236.163 220.662 Q 235.671 220.662 235.243 220.803 L 235.243 220.803 L 235.243 220.803 Q 234.815 220.943 234.493 221.207 L 234.493 221.207 L 234.493 221.207 Q 234.171 221.471 233.983 221.846 L 233.983 221.846 L 233.983 221.846 Q 233.796 222.221 233.796 222.689 L 233.796 222.689 L 230.538 222.689 L 230.538 222.689 Q 230.538 221.646 230.965 220.791 L 230.965 220.791 L 230.965 220.791 Q 231.393 219.936 232.143 219.32 L 232.143 219.32 L 232.143 219.32 Q 232.893 218.705 233.907 218.365 L 233.907 218.365 L 233.907 218.365 Q 234.921 218.025 236.092 218.025 L 236.092 218.025 L 236.092 218.025 Q 237.358 218.025 238.413 218.336 L 238.413 218.336 L 238.413 218.336 Q 239.467 218.646 240.217 219.262 L 240.217 219.262 L 240.217 219.262 Q 240.967 219.877 241.383 220.785 L 241.383 220.785 L 241.383 220.785 Q 241.799 221.693 241.799 222.889 L 241.799 222.889 L 241.799 222.889 Q 241.799 223.439 241.635 223.973 L 241.635 223.973 L 241.635 223.973 Q 241.471 224.506 241.155 224.986 L 241.155 224.986 L 241.155 224.986 Q 240.838 225.467 240.37 225.871 L 240.37 225.871 L 240.37 225.871 Q 239.901 226.275 239.292 226.568 L 239.292 226.568 L 239.292 226.568 Q 240.006 226.826 240.528 227.225 L 240.528 227.225 L 240.528 227.225 Q 241.049 227.623 241.389 228.133 L 241.389 228.133 L 241.389 228.133 Q 241.729 228.643 241.893 229.252 L 241.893 229.252 L 241.893 229.252 Q 242.057 229.861 242.057 230.541 L 242.057 230.541 L 242.057 230.541 Q 242.057 231.736 241.6 232.674 L 241.6 232.674 L 241.6 232.674 Q 241.143 233.611 240.346 234.25 L 240.346 234.25 L 240.346 234.25 Q 239.549 234.889 238.454 235.223 L 238.454 235.223 L 238.454 235.223 Q 237.358 235.557 236.092 235.557 L 236.092 235.557 L 236.092 235.557 Q 235.003 235.557 233.965 235.258 L 233.965 235.258 L 233.965 235.258 Q 232.928 234.959 232.12 234.355 L 232.12 234.355 L 232.12 234.355 Q 231.311 233.752 230.825 232.838 L 230.825 232.838 L 230.825 232.838 Q 230.338 231.924 230.338 230.682 L 230.338 230.682 L 233.596 230.682 L 233.596 230.682 Q 233.596 231.174 233.784 231.59 L 233.784 231.59 L 233.784 231.59 Q 233.971 232.006 234.317 232.305 L 234.317 232.305 L 234.317 232.305 Q 234.663 232.604 235.131 232.773 L 235.131 232.773 L 235.131 232.773 Q 235.6 232.943 236.163 232.943 L 236.163 232.943 L 236.163 232.943 Q 237.405 232.943 238.108 232.287 L 238.108 232.287 L 238.108 232.287 Q 238.811 231.631 238.811 230.506 L 238.811 230.506 L 238.811 230.506 Q 238.811 229.814 238.612 229.322 L 238.612 229.322 L 238.612 229.322 Q 238.413 228.83 238.032 228.514 L 238.032 228.514 L 238.032 228.514 Q 237.651 228.197 237.118 228.045 L 237.118 228.045 L 237.118 228.045 Q 236.585 227.893 235.917 227.893 L 235.917 227.893 L 234.147 227.893 Z " fill="rgb(0,0,0)"/></g><g id="C4"><path d=" M 278.415 226 C 278.415 213.743 288.365 203.793 300.622 203.793 C 312.879 203.793 322.829 213.743 322.829 226 C 322.829 238.257 312.879 248.207 300.622 248.207 C 288.365 248.207 278.415 238.257 278.415 226 Z " fill="rgb(195,215,247)" vector-effect="non-scaling-stroke" stroke-width="2" stroke="rgb(0,0,0)" stroke-linejoin="miter" stroke-linecap="square" stroke-miterlimit="3"/><path d=" M 303.589 218.26 L 303.589 228.982 L 305.569 228.982 L 305.569 231.619 L 303.589 231.619 L 303.589 235.322 L 300.331 235.322 L 300.331 231.619 L 293.241 231.619 L 293.112 229.58 L 300.284 218.26 L 303.589 218.26 Z  M 300.015 223.205 L 296.311 228.982 L 300.331 228.982 L 300.331 222.643 L 300.015 223.205 Z " fill-rule="evenodd" fill="rgb(0,0,0)"/></g><g id="C5"><path d=" M 306.386 304 C 306.386 291.743 316.337 281.793 328.594 281.793 C 340.85 281.793 350.801 291.743 350.801 304 C 350.801 316.257 340.85 326.207 328.594 326.207 C 316.337 326.207 306.386 316.257 306.386 304 Z " fill="rgb(209,209,209)" vector-effect="non-scaling-stroke" stroke-width="2" stroke="rgb(0,0,0)" stroke-linejoin="miter" stroke-linecap="square" stroke-miterlimit="3"/><path d=" M 324.81 305.564 L 322.209 304.92 L 323.181 296.26 L 332.65 296.26 L 332.65 299.025 L 325.865 299.025 L 325.455 302.775 L 325.455 302.775 Q 325.818 302.564 326.486 302.342 L 326.486 302.342 L 326.486 302.342 Q 327.154 302.119 328.021 302.119 L 328.021 302.119 L 328.021 302.119 Q 329.252 302.119 330.219 302.512 L 330.219 302.512 L 330.219 302.512 Q 331.185 302.904 331.847 303.643 L 331.847 303.643 L 331.847 303.643 Q 332.51 304.381 332.861 305.447 L 332.861 305.447 L 332.861 305.447 Q 333.213 306.514 333.213 307.861 L 333.213 307.861 L 333.213 307.861 Q 333.213 309.01 332.873 310.041 L 332.873 310.041 L 332.873 310.041 Q 332.533 311.072 331.83 311.857 L 331.83 311.857 L 331.83 311.857 Q 331.127 312.643 330.06 313.1 L 330.06 313.1 L 330.06 313.1 Q 328.994 313.557 327.541 313.557 L 327.541 313.557 L 327.541 313.557 Q 326.439 313.557 325.414 313.229 L 325.414 313.229 L 325.414 313.229 Q 324.388 312.9 323.592 312.268 L 323.592 312.268 L 323.592 312.268 Q 322.795 311.635 322.297 310.715 L 322.297 310.715 L 322.297 310.715 Q 321.799 309.795 321.763 308.611 L 321.763 308.611 L 324.974 308.611 L 324.974 308.611 Q 325.092 309.725 325.777 310.334 L 325.777 310.334 L 325.777 310.334 Q 326.463 310.943 327.529 310.943 L 327.529 310.943 L 327.529 310.943 Q 328.185 310.943 328.648 310.697 L 328.648 310.697 L 328.648 310.697 Q 329.111 310.451 329.398 310.018 L 329.398 310.018 L 329.398 310.018 Q 329.685 309.584 329.82 308.986 L 329.82 308.986 L 329.82 308.986 Q 329.955 308.389 329.955 307.697 L 329.955 307.697 L 329.955 307.697 Q 329.955 307.018 329.785 306.449 L 329.785 306.449 L 329.785 306.449 Q 329.615 305.881 329.263 305.471 L 329.263 305.471 L 329.263 305.471 Q 328.912 305.061 328.385 304.838 L 328.385 304.838 L 328.385 304.838 Q 327.857 304.615 327.142 304.615 L 327.142 304.615 L 327.142 304.615 Q 326.662 304.615 326.31 304.697 L 326.31 304.697 L 326.31 304.697 Q 325.959 304.779 325.689 304.908 L 325.689 304.908 L 325.689 304.908 Q 325.42 305.037 325.209 305.207 L 325.209 305.207 L 325.209 305.207 Q 324.998 305.377 324.81 305.564 L 324.81 305.564 Z " fill="rgb(0,0,0)"/></g><g id="C6"><path d=" M 368 304 C 368 291.743 377.951 281.793 390.207 281.793 C 402.464 281.793 412.415 291.743 412.415 304 C 412.415 316.257 402.464 326.207 390.207 326.207 C 377.951 326.207 368 316.257 368 304 Z " fill="rgb(209,209,209)" vector-effect="non-scaling-stroke" stroke-width="2" stroke="rgb(0,0,0)" stroke-linejoin="miter" stroke-linecap="square" stroke-miterlimit="3"/><path d=" M 391.873 296.119 L 392.307 296.119 L 392.307 298.826 L 392.119 298.826 L 392.119 298.826 Q 390.83 298.826 389.84 299.166 L 389.84 299.166 L 389.84 299.166 Q 388.85 299.506 388.153 300.127 L 388.153 300.127 L 388.153 300.127 Q 387.455 300.748 387.051 301.615 L 387.051 301.615 L 387.051 301.615 Q 386.647 302.482 386.541 303.549 L 386.541 303.549 L 386.541 303.549 Q 386.811 303.256 387.162 302.969 L 387.162 302.969 L 387.162 302.969 Q 387.514 302.682 387.953 302.453 L 387.953 302.453 L 387.953 302.453 Q 388.393 302.225 388.908 302.084 L 388.908 302.084 L 388.908 302.084 Q 389.424 301.943 390.022 301.943 L 390.022 301.943 L 390.022 301.943 Q 391.241 301.943 392.149 302.406 L 392.149 302.406 L 392.149 302.406 Q 393.057 302.869 393.666 303.66 L 393.666 303.66 L 393.666 303.66 Q 394.276 304.451 394.575 305.5 L 394.575 305.5 L 394.575 305.5 Q 394.873 306.549 394.873 307.709 L 394.873 307.709 L 394.873 307.709 Q 394.873 308.951 394.475 310.018 L 394.475 310.018 L 394.475 310.018 Q 394.076 311.084 393.338 311.869 L 393.338 311.869 L 393.338 311.869 Q 392.6 312.654 391.545 313.105 L 391.545 313.105 L 391.545 313.105 Q 390.491 313.557 389.178 313.557 L 389.178 313.557 L 389.178 313.557 Q 387.807 313.557 386.705 313.047 L 386.705 313.047 L 386.705 313.047 Q 385.604 312.537 384.836 311.635 L 384.836 311.635 L 384.836 311.635 Q 384.069 310.732 383.653 309.496 L 383.653 309.496 L 383.653 309.496 Q 383.237 308.26 383.237 306.795 L 383.237 306.795 L 383.237 305.541 L 383.237 305.541 Q 383.237 303.514 383.787 301.785 L 383.787 301.785 L 383.787 301.785 Q 384.338 300.057 385.428 298.797 L 385.428 298.797 L 385.428 298.797 Q 386.518 297.537 388.135 296.828 L 388.135 296.828 L 388.135 296.828 Q 389.752 296.119 391.873 296.119 L 391.873 296.119 Z  M 389.073 304.557 L 389.073 304.557 L 389.073 304.557 Q 388.194 304.557 387.52 305.025 L 387.52 305.025 L 387.52 305.025 Q 386.846 305.494 386.506 306.232 L 386.506 306.232 L 386.506 307.193 L 386.506 307.193 Q 386.506 308.131 386.7 308.834 L 386.7 308.834 L 386.7 308.834 Q 386.893 309.537 387.244 310 L 387.244 310 L 387.244 310 Q 387.596 310.463 388.076 310.697 L 388.076 310.697 L 388.076 310.697 Q 388.557 310.932 389.119 310.932 L 389.119 310.932 L 389.119 310.932 Q 389.694 310.932 390.162 310.691 L 390.162 310.691 L 390.162 310.691 Q 390.631 310.451 390.959 310.029 L 390.959 310.029 L 390.959 310.029 Q 391.287 309.607 391.463 309.027 L 391.463 309.027 L 391.463 309.027 Q 391.639 308.447 391.639 307.756 L 391.639 307.756 L 391.639 307.756 Q 391.639 307.064 391.463 306.479 L 391.463 306.479 L 391.463 306.479 Q 391.287 305.893 390.959 305.465 L 390.959 305.465 L 390.959 305.465 Q 390.631 305.037 390.157 304.797 L 390.157 304.797 L 390.157 304.797 Q 389.682 304.557 389.073 304.557 Z " fill-rule="evenodd" fill="rgb(0,0,0)"/></g><g id="C7"><path d=" M 365.118 226 C 365.118 213.743 375.069 203.793 387.325 203.793 C 399.582 203.793 409.533 213.743 409.533 226 C 409.533 238.257 399.582 248.207 387.325 248.207 C 375.069 248.207 365.118 238.257 365.118 226 Z " fill="rgb(195,215,247)" vector-effect="non-scaling-stroke" stroke-width="2" stroke="rgb(0,0,0)" stroke-linejoin="miter" stroke-linecap="square" stroke-miterlimit="3"/><path d=" M 391.921 218.26 L 391.921 220.076 L 385.276 235.322 L 381.843 235.322 L 388.499 220.92 L 379.933 220.92 L 379.933 218.26 L 391.921 218.26 Z " fill="rgb(0,0,0)"/></g><g id="C8"><path d=" M 429.614 304 C 429.614 291.743 439.565 281.793 451.821 281.793 C 464.078 281.793 474.028 291.743 474.028 304 C 474.028 316.257 464.078 326.207 451.821 326.207 C 439.565 326.207 429.614 316.257 429.614 304 Z " fill="rgb(209,209,209)" vector-effect="non-scaling-stroke" stroke-width="2" stroke="rgb(0,0,0)" stroke-linejoin="miter" stroke-linecap="square" stroke-miterlimit="3"/><path d=" M 455.983 300.795 L 455.983 300.795 L 455.983 300.795 Q 455.983 302.037 455.356 303.004 L 455.356 303.004 L 455.356 303.004 Q 454.729 303.971 453.639 304.545 L 453.639 304.545 L 453.639 304.545 Q 454.882 305.131 455.614 306.186 L 455.614 306.186 L 455.614 306.186 Q 456.347 307.24 456.347 308.658 L 456.347 308.658 L 456.347 308.658 Q 456.347 309.865 455.907 310.779 L 455.907 310.779 L 455.907 310.779 Q 455.468 311.693 454.7 312.309 L 454.7 312.309 L 454.7 312.309 Q 453.932 312.924 452.889 313.24 L 452.889 313.24 L 452.889 313.24 Q 451.847 313.557 450.639 313.557 L 450.639 313.557 L 450.639 313.557 Q 449.421 313.557 448.372 313.24 L 448.372 313.24 L 448.372 313.24 Q 447.323 312.924 446.55 312.309 L 446.55 312.309 L 446.55 312.309 Q 445.776 311.693 445.337 310.779 L 445.337 310.779 L 445.337 310.779 Q 444.897 309.865 444.897 308.658 L 444.897 308.658 L 444.897 308.658 Q 444.897 307.955 445.091 307.328 L 445.091 307.328 L 445.091 307.328 Q 445.284 306.701 445.636 306.18 L 445.636 306.18 L 445.636 306.18 Q 445.987 305.658 446.485 305.242 L 446.485 305.242 L 446.485 305.242 Q 446.983 304.826 447.604 304.533 L 447.604 304.533 L 447.604 304.533 Q 446.514 303.971 445.893 303.004 L 445.893 303.004 L 445.893 303.004 Q 445.272 302.037 445.272 300.795 L 445.272 300.795 L 445.272 300.795 Q 445.272 299.635 445.671 298.75 L 445.671 298.75 L 445.671 298.75 Q 446.069 297.865 446.778 297.256 L 446.778 297.256 L 446.778 297.256 Q 447.487 296.646 448.466 296.336 L 448.466 296.336 L 448.466 296.336 Q 449.444 296.025 450.604 296.025 L 450.604 296.025 L 450.604 296.025 Q 451.764 296.025 452.749 296.336 L 452.749 296.336 L 452.749 296.336 Q 453.733 296.646 454.454 297.256 L 454.454 297.256 L 454.454 297.256 Q 455.175 297.865 455.579 298.75 L 455.579 298.75 L 455.579 298.75 Q 455.983 299.635 455.983 300.795 Z  M 453.077 308.436 L 453.077 308.436 L 453.077 308.436 Q 453.077 307.85 452.901 307.381 L 452.901 307.381 L 452.901 307.381 Q 452.725 306.912 452.403 306.578 L 452.403 306.578 L 452.403 306.578 Q 452.081 306.244 451.63 306.068 L 451.63 306.068 L 451.63 306.068 Q 451.179 305.893 450.616 305.893 L 450.616 305.893 L 450.616 305.893 Q 450.054 305.893 449.602 306.068 L 449.602 306.068 L 449.602 306.068 Q 449.151 306.244 448.835 306.578 L 448.835 306.578 L 448.835 306.578 Q 448.518 306.912 448.343 307.381 L 448.343 307.381 L 448.343 307.381 Q 448.167 307.85 448.167 308.436 L 448.167 308.436 L 448.167 308.436 Q 448.167 309.607 448.835 310.275 L 448.835 310.275 L 448.835 310.275 Q 449.503 310.943 450.639 310.943 L 450.639 310.943 L 450.639 310.943 Q 451.179 310.943 451.624 310.773 L 451.624 310.773 L 451.624 310.773 Q 452.069 310.604 452.391 310.275 L 452.391 310.275 L 452.391 310.275 Q 452.714 309.947 452.895 309.484 L 452.895 309.484 L 452.895 309.484 Q 453.077 309.021 453.077 308.436 Z  M 452.737 300.947 L 452.737 300.947 L 452.737 300.947 Q 452.737 300.432 452.585 300.01 L 452.585 300.01 L 452.585 300.01 Q 452.432 299.588 452.157 299.289 L 452.157 299.289 L 452.157 299.289 Q 451.882 298.99 451.489 298.826 L 451.489 298.826 L 451.489 298.826 Q 451.097 298.662 450.604 298.662 L 450.604 298.662 L 450.604 298.662 Q 449.608 298.662 449.069 299.271 L 449.069 299.271 L 449.069 299.271 Q 448.53 299.881 448.53 300.947 L 448.53 300.947 L 448.53 300.947 Q 448.53 301.463 448.671 301.891 L 448.671 301.891 L 448.671 301.891 Q 448.811 302.318 449.087 302.623 L 449.087 302.623 L 449.087 302.623 Q 449.362 302.928 449.755 303.098 L 449.755 303.098 L 449.755 303.098 Q 450.147 303.268 450.639 303.268 L 450.639 303.268 L 450.639 303.268 Q 451.132 303.268 451.518 303.098 L 451.518 303.098 L 451.518 303.098 Q 451.905 302.928 452.175 302.623 L 452.175 302.623 L 452.175 302.623 Q 452.444 302.318 452.591 301.891 L 452.591 301.891 L 452.591 301.891 Q 452.737 301.463 452.737 300.947 Z " fill-rule="evenodd" fill="rgb(0,0,0)"/></g><g id="C9"><path d=" M 457.793 226 C 457.793 213.743 467.743 203.793 480 203.793 C 492.257 203.793 502.207 213.743 502.207 226 C 502.207 238.257 492.257 248.207 480 248.207 C 467.743 248.207 457.793 238.257 457.793 226 Z " fill="rgb(195,215,247)" vector-effect="non-scaling-stroke" stroke-width="2" stroke="rgb(0,0,0)" stroke-linejoin="miter" stroke-linecap="square" stroke-miterlimit="3"/><path d=" M 475.467 232.732 L 475.689 232.732 L 475.689 232.732 Q 477.002 232.732 477.963 232.451 L 477.963 232.451 L 477.963 232.451 Q 478.924 232.17 479.574 231.637 L 479.574 231.637 L 479.574 231.637 Q 480.225 231.104 480.582 230.336 L 480.582 230.336 L 480.582 230.336 Q 480.939 229.568 481.045 228.596 L 481.045 228.596 L 481.045 228.596 Q 480.553 229.088 479.779 229.439 L 479.779 229.439 L 479.779 229.439 Q 479.006 229.791 477.904 229.791 L 477.904 229.791 L 477.904 229.791 Q 476.686 229.791 475.76 229.346 L 475.76 229.346 L 475.76 229.346 Q 474.834 228.9 474.207 228.127 L 474.207 228.127 L 474.207 228.127 Q 473.58 227.354 473.258 226.305 L 473.258 226.305 L 473.258 226.305 Q 472.936 225.256 472.936 224.049 L 472.936 224.049 L 472.936 224.049 Q 472.936 222.807 473.328 221.711 L 473.328 221.711 L 473.328 221.711 Q 473.721 220.615 474.459 219.795 L 474.459 219.795 L 474.459 219.795 Q 475.197 218.975 476.246 218.5 L 476.246 218.5 L 476.246 218.5 Q 477.295 218.025 478.607 218.025 L 478.607 218.025 L 478.607 218.025 Q 479.943 218.025 481.01 218.541 L 481.01 218.541 L 481.01 218.541 Q 482.076 219.057 482.82 219.982 L 482.82 219.982 L 482.82 219.982 Q 483.564 220.908 483.957 222.186 L 483.957 222.186 L 483.957 222.186 Q 484.35 223.463 484.35 224.986 L 484.35 224.986 L 484.35 226.111 L 484.35 226.111 Q 484.35 228.15 483.846 229.861 L 483.846 229.861 L 483.846 229.861 Q 483.342 231.572 482.287 232.82 L 482.287 232.82 L 482.287 232.82 Q 481.232 234.068 479.604 234.766 L 479.604 234.766 L 479.604 234.766 Q 477.975 235.463 475.713 235.463 L 475.713 235.463 L 475.467 235.463 L 475.467 232.732 Z  M 478.678 227.271 L 478.678 227.271 L 478.678 227.271 Q 479.123 227.271 479.504 227.143 L 479.504 227.143 L 479.504 227.143 Q 479.885 227.014 480.195 226.785 L 480.195 226.785 L 480.195 226.785 Q 480.506 226.557 480.734 226.246 L 480.734 226.246 L 480.734 226.246 Q 480.963 225.936 481.104 225.572 L 481.104 225.572 L 481.104 224.412 L 481.104 224.412 Q 481.104 223.475 480.91 222.771 L 480.91 222.771 L 480.91 222.771 Q 480.717 222.068 480.377 221.6 L 480.377 221.6 L 480.377 221.6 Q 480.037 221.131 479.58 220.896 L 479.58 220.896 L 479.58 220.896 Q 479.123 220.662 478.596 220.662 L 478.596 220.662 L 478.596 220.662 Q 478.021 220.662 477.57 220.938 L 477.57 220.938 L 477.57 220.938 Q 477.119 221.213 476.814 221.676 L 476.814 221.676 L 476.814 221.676 Q 476.51 222.139 476.346 222.742 L 476.346 222.742 L 476.346 222.742 Q 476.182 223.346 476.182 224.002 L 476.182 224.002 L 476.182 224.002 Q 476.182 224.658 476.334 225.256 L 476.334 225.256 L 476.334 225.256 Q 476.486 225.854 476.797 226.299 L 476.797 226.299 L 476.797 226.299 Q 477.107 226.744 477.576 227.008 L 477.576 227.008 L 477.576 227.008 Q 478.045 227.271 478.678 227.271 Z " fill-rule="evenodd" fill="rgb(0,0,0)"/></g><g id="C10"><path d=" M 550.467 226 C 550.467 213.743 560.418 203.793 572.675 203.793 C 584.931 203.793 594.882 213.743 594.882 226 C 594.882 238.257 584.931 248.207 572.675 248.207 C 560.418 248.207 550.467 238.257 550.467 226 Z " fill="rgb(195,215,247)" vector-effect="non-scaling-stroke" stroke-width="2" stroke="rgb(0,0,0)" stroke-linejoin="miter" stroke-linecap="square" stroke-miterlimit="3"/><path d=" M 566.905 218.26 L 566.905 235.322 L 563.612 235.322 L 563.612 222.232 L 559.3 223.779 L 559.3 220.943 L 566.729 218.26 L 566.905 218.26 Z  M 584.437 224.752 L 584.437 228.83 L 584.437 228.83 Q 584.437 230.482 584.056 231.742 L 584.056 231.742 L 584.056 231.742 Q 583.675 233.002 582.96 233.852 L 582.96 233.852 L 582.96 233.852 Q 582.245 234.701 581.214 235.135 L 581.214 235.135 L 581.214 235.135 Q 580.183 235.568 578.894 235.568 L 578.894 235.568 L 578.894 235.568 Q 577.616 235.568 576.585 235.135 L 576.585 235.135 L 576.585 235.135 Q 575.554 234.701 574.833 233.852 L 574.833 233.852 L 574.833 233.852 Q 574.112 233.002 573.72 231.742 L 573.72 231.742 L 573.72 231.742 Q 573.327 230.482 573.327 228.83 L 573.327 228.83 L 573.327 224.752 L 573.327 224.752 Q 573.327 223.1 573.714 221.84 L 573.714 221.84 L 573.714 221.84 Q 574.101 220.58 574.821 219.73 L 574.821 219.73 L 574.821 219.73 Q 575.542 218.881 576.567 218.447 L 576.567 218.447 L 576.567 218.447 Q 577.593 218.014 578.87 218.014 L 578.87 218.014 L 578.87 218.014 Q 580.159 218.014 581.19 218.447 L 581.19 218.447 L 581.19 218.447 Q 582.222 218.881 582.942 219.73 L 582.942 219.73 L 582.942 219.73 Q 583.663 220.58 584.05 221.84 L 584.05 221.84 L 584.05 221.84 Q 584.437 223.1 584.437 224.752 L 584.437 224.752 Z  M 576.608 224.236 L 576.608 227.424 L 581.155 224.037 L 581.155 224.037 Q 581.12 222.314 580.558 221.482 L 580.558 221.482 L 580.558 221.482 Q 579.995 220.65 578.87 220.65 L 578.87 220.65 L 578.87 220.65 Q 577.733 220.65 577.171 221.529 L 577.171 221.529 L 577.171 221.529 Q 576.608 222.408 576.608 224.236 L 576.608 224.236 Z  M 581.155 229.322 L 581.155 226.252 L 576.608 229.627 L 576.608 229.627 Q 576.667 231.314 577.229 232.129 L 577.229 232.129 L 577.229 232.129 Q 577.792 232.943 578.894 232.943 L 578.894 232.943 L 578.894 232.943 Q 580.042 232.943 580.599 232.053 L 580.599 232.053 L 580.599 232.053 Q 581.155 231.162 581.155 229.322 L 581.155 229.322 Z " fill-rule="evenodd" fill="rgb(0,0,0)"/></g><g id="C11"><path d=" M 277.179 135.793 C 277.179 123.536 287.13 113.585 299.386 113.585 C 311.643 113.585 321.594 123.536 321.594 135.793 C 321.594 148.049 311.643 158 299.386 158 C 287.13 158 277.179 148.049 277.179 135.793 Z " fill="rgb(211,240,193)" vector-effect="non-scaling-stroke" stroke-width="2" stroke="rgb(0,0,0)" stroke-linejoin="miter" stroke-linecap="square" stroke-miterlimit="3"/><path d=" M 293.617 128.052 L 293.617 145.115 L 290.324 145.115 L 290.324 132.025 L 286.011 133.572 L 286.011 130.736 L 293.441 128.052 L 293.617 128.052 Z  M 308.019 128.052 L 308.019 145.115 L 304.726 145.115 L 304.726 132.025 L 300.414 133.572 L 300.414 130.736 L 307.843 128.052 L 308.019 128.052 Z " fill-rule="evenodd" fill="rgb(0,0,0)"/></g><g id="C12"><path d=" M 346.411 135.793 C 346.411 123.536 356.361 113.585 368.618 113.585 C 380.874 113.585 390.825 123.536 390.825 135.793 C 390.825 148.049 380.874 158 368.618 158 C 356.361 158 346.411 148.049 346.411 135.793 Z " fill="rgb(211,240,193)" vector-effect="non-scaling-stroke" stroke-width="2" stroke="rgb(0,0,0)" stroke-linejoin="miter" stroke-linecap="square" stroke-miterlimit="3"/><path d=" M 362.848 128.052 L 362.848 145.115 L 359.555 145.115 L 359.555 132.025 L 355.243 133.572 L 355.243 130.736 L 362.673 128.052 L 362.848 128.052 Z  M 380.426 142.502 L 380.426 145.115 L 368.79 145.115 L 368.79 142.888 L 374.309 136.959 L 374.309 136.959 Q 374.954 136.256 375.399 135.681 L 375.399 135.681 L 375.399 135.681 Q 375.844 135.107 376.12 134.633 L 376.12 134.633 L 376.12 134.633 Q 376.395 134.158 376.518 133.748 L 376.518 133.748 L 376.518 133.748 Q 376.641 133.338 376.641 132.951 L 376.641 132.951 L 376.641 132.951 Q 376.641 132.377 376.477 131.931 L 376.477 131.931 L 376.477 131.931 Q 376.313 131.486 376.014 131.175 L 376.014 131.175 L 376.014 131.175 Q 375.716 130.865 375.3 130.701 L 375.3 130.701 L 375.3 130.701 Q 374.884 130.537 374.38 130.537 L 374.38 130.537 L 374.38 130.537 Q 373.032 130.537 372.37 131.287 L 372.37 131.287 L 372.37 131.287 Q 371.708 132.037 371.708 133.384 L 371.708 133.384 L 368.438 133.384 L 368.438 133.384 Q 368.438 132.248 368.872 131.234 L 368.872 131.234 L 368.872 131.234 Q 369.305 130.22 370.096 129.459 L 370.096 129.459 L 370.096 129.459 Q 370.887 128.697 372.007 128.258 L 372.007 128.258 L 372.007 128.258 Q 373.126 127.818 374.485 127.818 L 374.485 127.818 L 374.485 127.818 Q 375.786 127.818 376.788 128.181 L 376.788 128.181 L 376.788 128.181 Q 377.79 128.545 378.464 129.201 L 378.464 129.201 L 378.464 129.201 Q 379.137 129.857 379.489 130.777 L 379.489 130.777 L 379.489 130.777 Q 379.841 131.697 379.841 132.81 L 379.841 132.81 L 379.841 132.81 Q 379.841 133.654 379.577 134.422 L 379.577 134.422 L 379.577 134.422 Q 379.313 135.189 378.827 135.939 L 378.827 135.939 L 378.827 135.939 Q 378.341 136.689 377.661 137.468 L 377.661 137.468 L 377.661 137.468 Q 376.981 138.248 376.149 139.103 L 376.149 139.103 L 372.938 142.502 L 380.426 142.502 Z " fill-rule="evenodd" fill="rgb(0,0,0)"/></g><g id="C13"><path d=" M 639 226 C 639 213.743 648.951 203.793 661.207 203.793 C 673.464 203.793 683.415 213.743 683.415 226 C 683.415 238.257 673.464 248.207 661.207 248.207 C 648.951 248.207 639 238.257 639 226 Z " fill="rgb(195,215,247)" vector-effect="non-scaling-stroke" stroke-width="2" stroke="rgb(0,0,0)" stroke-linejoin="miter" stroke-linecap="square" stroke-miterlimit="3"/><path d=" M 655.438 218.26 L 655.438 235.322 L 652.145 235.322 L 652.145 222.232 L 647.832 223.779 L 647.832 220.943 L 655.262 218.26 L 655.438 218.26 Z  M 665.141 227.893 L 665.141 225.361 L 666.91 225.361 L 666.91 225.361 Q 668.246 225.361 668.891 224.688 L 668.891 224.688 L 668.891 224.688 Q 669.535 224.014 669.535 222.924 L 669.535 222.924 L 669.535 222.924 Q 669.535 222.42 669.389 222.004 L 669.389 222.004 L 669.389 222.004 Q 669.242 221.588 668.95 221.289 L 668.95 221.289 L 668.95 221.289 Q 668.657 220.99 668.205 220.826 L 668.205 220.826 L 668.205 220.826 Q 667.754 220.662 667.157 220.662 L 667.157 220.662 L 667.157 220.662 Q 666.664 220.662 666.237 220.803 L 666.237 220.803 L 666.237 220.803 Q 665.809 220.943 665.487 221.207 L 665.487 221.207 L 665.487 221.207 Q 665.164 221.471 664.977 221.846 L 664.977 221.846 L 664.977 221.846 Q 664.789 222.221 664.789 222.689 L 664.789 222.689 L 661.532 222.689 L 661.532 222.689 Q 661.532 221.646 661.959 220.791 L 661.959 220.791 L 661.959 220.791 Q 662.387 219.936 663.137 219.32 L 663.137 219.32 L 663.137 219.32 Q 663.887 218.705 664.901 218.365 L 664.901 218.365 L 664.901 218.365 Q 665.914 218.025 667.086 218.025 L 667.086 218.025 L 667.086 218.025 Q 668.352 218.025 669.407 218.336 L 669.407 218.336 L 669.407 218.336 Q 670.461 218.646 671.211 219.262 L 671.211 219.262 L 671.211 219.262 Q 671.961 219.877 672.377 220.785 L 672.377 220.785 L 672.377 220.785 Q 672.793 221.693 672.793 222.889 L 672.793 222.889 L 672.793 222.889 Q 672.793 223.439 672.629 223.973 L 672.629 223.973 L 672.629 223.973 Q 672.465 224.506 672.149 224.986 L 672.149 224.986 L 672.149 224.986 Q 671.832 225.467 671.364 225.871 L 671.364 225.871 L 671.364 225.871 Q 670.895 226.275 670.285 226.568 L 670.285 226.568 L 670.285 226.568 Q 671 226.826 671.522 227.225 L 671.522 227.225 L 671.522 227.225 Q 672.043 227.623 672.383 228.133 L 672.383 228.133 L 672.383 228.133 Q 672.723 228.643 672.887 229.252 L 672.887 229.252 L 672.887 229.252 Q 673.051 229.861 673.051 230.541 L 673.051 230.541 L 673.051 230.541 Q 673.051 231.736 672.594 232.674 L 672.594 232.674 L 672.594 232.674 Q 672.137 233.611 671.34 234.25 L 671.34 234.25 L 671.34 234.25 Q 670.543 234.889 669.448 235.223 L 669.448 235.223 L 669.448 235.223 Q 668.352 235.557 667.086 235.557 L 667.086 235.557 L 667.086 235.557 Q 665.996 235.557 664.959 235.258 L 664.959 235.258 L 664.959 235.258 Q 663.922 234.959 663.114 234.355 L 663.114 234.355 L 663.114 234.355 Q 662.305 233.752 661.819 232.838 L 661.819 232.838 L 661.819 232.838 Q 661.332 231.924 661.332 230.682 L 661.332 230.682 L 664.59 230.682 L 664.59 230.682 Q 664.59 231.174 664.778 231.59 L 664.778 231.59 L 664.778 231.59 Q 664.965 232.006 665.311 232.305 L 665.311 232.305 L 665.311 232.305 Q 665.657 232.604 666.125 232.773 L 666.125 232.773 L 666.125 232.773 Q 666.594 232.943 667.157 232.943 L 667.157 232.943 L 667.157 232.943 Q 668.399 232.943 669.102 232.287 L 669.102 232.287 L 669.102 232.287 Q 669.805 231.631 669.805 230.506 L 669.805 230.506 L 669.805 230.506 Q 669.805 229.814 669.606 229.322 L 669.606 229.322 L 669.606 229.322 Q 669.407 228.83 669.026 228.514 L 669.026 228.514 L 669.026 228.514 Q 668.645 228.197 668.112 228.045 L 668.112 228.045 L 668.112 228.045 Q 667.578 227.893 666.91 227.893 L 666.91 227.893 L 665.141 227.893 Z " fill-rule="evenodd" fill="rgb(0,0,0)"/></g><path d=" M 641 114.5 C 616 83.5 495 55 430 53" fill="none" vector-effect="non-scaling-stroke" stroke-width="2" stroke="rgb(200,13,0)" stroke-linejoin="miter" stroke-linecap="square" stroke-miterlimit="3"/><path d=" M 632.323 115.155 C 629.817 112.163 630.21 107.7 633.201 105.193 C 636.193 102.687 640.656 103.08 643.163 106.072 C 645.669 109.063 645.276 113.526 642.285 116.033 C 639.293 118.54 634.83 118.146 632.323 115.155 Z " fill="rgb(200,13,0)" stroke="none"/><path d=" M 436.24 46.14 L 421.862 52.719 L 435.752 60.274 L 430.343 53.012 L 436.24 46.14 Z " fill="rgb(200,13,0)" stroke="none"/><path d=" M 247.928 64.235 L 256.235 59.921 L 256.235 59.921 Q 258.641 58.671 260.535 59.27 L 260.535 59.27 L 260.535 59.27 Q 262.428 59.868 263.678 62.275 L 263.678 62.275 L 266.333 67.387 L 266.333 67.387 Q 267.583 69.793 266.984 71.687 L 266.984 71.687 L 266.984 71.687 Q 266.385 73.58 263.978 74.83 L 263.978 74.83 L 255.672 79.144 L 247.928 64.235 Z  M 262.499 69.378 L 259.844 64.266 L 259.844 64.266 Q 258.848 62.349 256.931 63.345 L 256.931 63.345 L 253.311 65.226 L 257.957 74.171 L 261.578 72.29 L 261.578 72.29 Q 263.495 71.295 262.499 69.378 L 262.499 69.378 Z  M 281.279 62.058 L 282.827 65.04 L 271.007 71.179 L 263.263 56.27 L 275.084 50.131 L 276.633 53.112 L 268.646 57.261 L 270.139 60.136 L 276.422 56.873 L 277.971 59.854 L 271.688 63.118 L 273.292 66.206 L 281.279 62.058 Z  M 285.578 48.466 L 291.773 60.393 L 287.939 62.385 L 281.744 50.457 L 277.272 52.781 L 275.723 49.799 L 288.502 43.161 L 290.051 46.143 L 285.578 48.466 Z  M 299.974 52.753 L 300.399 55.913 L 296.246 58.07 L 294.146 40.23 L 298.406 38.017 L 311.793 49.995 L 307.64 52.152 L 305.299 49.987 L 299.974 52.753 Z  M 298.599 43.596 L 299.495 49.486 L 302.902 47.716 L 298.599 43.596 Z  M 322.756 40.38 L 324.249 43.255 L 324.249 43.255 Q 319.721 46.148 316.59 47.774 L 316.59 47.774 L 316.59 47.774 Q 314.502 48.858 313.014 48.387 L 313.014 48.387 L 313.014 48.387 Q 311.525 47.916 310.441 45.829 L 310.441 45.829 L 306.901 39.014 L 306.901 39.014 Q 305.74 36.777 306.226 35.24 L 306.226 35.24 L 306.226 35.24 Q 306.712 33.703 308.948 32.542 L 308.948 32.542 L 316.616 28.559 L 318.165 31.541 L 311.349 35.081 L 311.349 35.081 Q 310.071 35.745 310.735 37.023 L 310.735 37.023 L 314.275 43.838 L 314.275 43.838 Q 314.529 44.328 314.966 44.466 L 314.966 44.466 L 314.966 44.466 Q 315.403 44.604 315.85 44.372 L 315.85 44.372 L 315.85 44.372 Q 316.298 44.14 316.825 43.852 L 316.825 43.852 L 316.825 43.852 Q 317.351 43.565 317.915 43.245 L 317.915 43.245 L 317.915 43.245 Q 318.479 42.925 319.054 42.6 L 319.054 42.6 L 319.054 42.6 Q 319.629 42.274 320.522 41.729 L 320.522 41.729 L 320.522 41.729 Q 321.415 41.184 322.756 40.38 L 322.756 40.38 Z  M 331.312 20.926 L 339.055 35.835 L 335.222 37.826 L 332.069 31.756 L 326.744 34.522 L 329.897 40.592 L 326.063 42.583 L 318.32 27.674 L 322.154 25.683 L 325.196 31.54 L 330.52 28.774 L 327.478 22.917 L 331.312 20.926 Z  M 351.883 25.386 L 353.432 28.368 L 341.611 34.508 L 333.868 19.599 L 345.688 13.459 L 347.237 16.441 L 339.25 20.589 L 340.744 23.465 L 347.027 20.201 L 348.575 23.183 L 342.292 26.446 L 343.896 29.535 L 351.883 25.386 Z  M 347.392 12.574 L 355.699 8.26 L 355.699 8.26 Q 358.105 7.01 359.998 7.609 L 359.998 7.609 L 359.998 7.609 Q 361.892 8.207 363.142 10.614 L 363.142 10.614 L 365.797 15.726 L 365.797 15.726 Q 367.047 18.133 366.448 20.026 L 366.448 20.026 L 366.448 20.026 Q 365.849 21.919 363.442 23.169 L 363.442 23.169 L 355.136 27.483 L 347.392 12.574 Z  M 361.963 17.717 L 359.308 12.605 L 359.308 12.605 Q 358.312 10.688 356.395 11.684 L 356.395 11.684 L 352.775 13.565 L 357.421 22.51 L 361.042 20.629 L 361.042 20.629 Q 362.958 19.634 361.963 17.717 L 361.963 17.717 Z " fill-rule="evenodd" fill="rgb(251,0,0)"/></g></svg>