<?xml version="1.0" standalone="no"?><!-- Generator: Gravit.io --><svg xmlns="http://www.w3.org/2000/svg" xmlns:xlink="http://www.w3.org/1999/xlink" style="isolation:isolate" viewBox="0 0 800 400" width="800" height="400"><defs><clipPath id="_clipPath_yj9M7IZrz4TnYaHZxBJY2TdWoF1nK4z7"><rect width="800" height="400"/></clipPath></defs><g clip-path="url(#_clipPath_yj9M7IZrz4TnYaHZxBJY2TdWoF1nK4z7)"><line x1="180.951" y1="110.793" x2="371.744" y2="110.793" vector-effect="non-scaling-stroke" stroke-width="2" stroke="rgb(0,0,0)" stroke-linejoin="miter" stroke-linecap="square" stroke-miterlimit="3"/><line x1="398.545" y1="169.793" x2="521.603" y2="169.793" vector-effect="non-scaling-stroke" stroke-width="2" stroke="rgb(0,0,0)" stroke-linejoin="miter" stroke-linecap="square" stroke-miterlimit="3"/><line x1="398.545" y1="169.793" x2="370.573" y2="110.793" vector-effect="non-scaling-stroke" stroke-width="2" stroke="rgb(0,0,0)" stroke-linejoin="miter" stroke-linecap="square" stroke-miterlimit="3"/><g id="Bmaster"><path d="M 328.249 44.585 L 412.897 44.585 C 417.134 44.585 420.573 48.025 420.573 52.261 L 420.573 73.909 C 420.573 78.146 417.134 81.585 412.897 81.585 L 328.249 81.585 C 324.013 81.585 320.573 78.146 320.573 73.909 L 320.573 52.261 C 320.573 48.025 324.013 44.585 328.249 44.585 Z" style="stroke:none;fill:#9FC4FF;stroke-miterlimit:10;"/><path d="M 328.249 44.585 L 412.897 44.585 C 417.134 44.585 420.573 48.025 420.573 52.261 L 420.573 73.909 C 420.573 78.146 417.134 81.585 412.897 81.585 L 328.249 81.585 C 324.013 81.585 320.573 78.146 320.573 73.909 L 320.573 52.261 C 320.573 48.025 324.013 44.585 328.249 44.585 Z" style="fill:none;stroke:#000000;stroke-width:1.6855342301554246;stroke-linecap:square;stroke-miterlimit:3;"/><path d=" M 345.791 64.866 L 345.791 70.344 L 342.812 70.344 L 342.812 63.967 L 342.812 63.967 Q 342.812 62.786 342.417 62.195 L 342.417 62.195 L 342.417 62.195 Q 342.021 61.604 341.172 61.604 L 341.172 61.604 L 341.172 61.604 Q 340.029 61.604 339.512 62.444 L 339.512 62.444 L 339.512 62.444 Q 338.994 63.284 338.994 65.207 L 338.994 65.207 L 338.994 70.344 L 336.016 70.344 L 336.016 59.426 L 338.291 59.426 L 338.691 60.823 L 338.857 60.823 L 338.857 60.823 Q 339.297 60.071 340.127 59.646 L 340.127 59.646 L 340.127 59.646 Q 340.957 59.221 342.031 59.221 L 342.031 59.221 L 342.031 59.221 Q 344.482 59.221 345.352 60.823 L 345.352 60.823 L 345.615 60.823 L 345.615 60.823 Q 346.055 60.061 346.909 59.641 L 346.909 59.641 L 346.909 59.641 Q 347.764 59.221 348.838 59.221 L 348.838 59.221 L 348.838 59.221 Q 350.693 59.221 351.645 60.173 L 351.645 60.173 L 351.645 60.173 Q 352.598 61.125 352.598 63.225 L 352.598 63.225 L 352.598 70.344 L 349.609 70.344 L 349.609 63.967 L 349.609 63.967 Q 349.609 62.786 349.214 62.195 L 349.214 62.195 L 349.214 62.195 Q 348.818 61.604 347.969 61.604 L 347.969 61.604 L 347.969 61.604 Q 346.875 61.604 346.333 62.385 L 346.333 62.385 L 346.333 62.385 Q 345.791 63.166 345.791 64.866 L 345.791 64.866 Z  M 364.668 70.344 L 362.588 70.344 L 362.012 68.86 L 361.934 68.86 L 361.934 68.86 Q 361.182 69.807 360.386 70.173 L 360.386 70.173 L 360.386 70.173 Q 359.59 70.539 358.311 70.539 L 358.311 70.539 L 358.311 70.539 Q 356.738 70.539 355.835 69.641 L 355.835 69.641 L 355.835 69.641 Q 354.932 68.743 354.932 67.082 L 354.932 67.082 L 354.932 67.082 Q 354.932 65.344 356.147 64.519 L 356.147 64.519 L 356.147 64.519 Q 357.363 63.694 359.814 63.606 L 359.814 63.606 L 361.709 63.547 L 361.709 63.069 L 361.709 63.069 Q 361.709 61.409 360.01 61.409 L 360.01 61.409 L 360.01 61.409 Q 358.701 61.409 356.934 62.2 L 356.934 62.2 L 355.947 60.188 L 355.947 60.188 Q 357.832 59.202 360.127 59.202 L 360.127 59.202 L 360.127 59.202 Q 362.324 59.202 363.496 60.159 L 363.496 60.159 L 363.496 60.159 Q 364.668 61.116 364.668 63.069 L 364.668 63.069 L 364.668 70.344 Z  M 361.709 66.184 L 361.709 65.286 L 360.557 65.325 L 360.557 65.325 Q 359.258 65.364 358.623 65.793 L 358.623 65.793 L 358.623 65.793 Q 357.988 66.223 357.988 67.102 L 357.988 67.102 L 357.988 67.102 Q 357.988 68.362 359.434 68.362 L 359.434 68.362 L 359.434 68.362 Q 360.469 68.362 361.089 67.766 L 361.089 67.766 L 361.089 67.766 Q 361.709 67.17 361.709 66.184 L 361.709 66.184 Z  M 375.352 67.102 L 375.352 67.102 L 375.352 67.102 Q 375.352 68.782 374.185 69.661 L 374.185 69.661 L 374.185 69.661 Q 373.018 70.539 370.693 70.539 L 370.693 70.539 L 370.693 70.539 Q 369.502 70.539 368.662 70.378 L 368.662 70.378 L 368.662 70.378 Q 367.822 70.217 367.09 69.905 L 367.09 69.905 L 367.09 67.444 L 367.09 67.444 Q 367.92 67.834 368.96 68.098 L 368.96 68.098 L 368.96 68.098 Q 370 68.362 370.791 68.362 L 370.791 68.362 L 370.791 68.362 Q 372.412 68.362 372.412 67.424 L 372.412 67.424 L 372.412 67.424 Q 372.412 67.073 372.197 66.853 L 372.197 66.853 L 372.197 66.853 Q 371.982 66.633 371.455 66.355 L 371.455 66.355 L 371.455 66.355 Q 370.928 66.077 370.049 65.705 L 370.049 65.705 L 370.049 65.705 Q 368.789 65.178 368.198 64.729 L 368.198 64.729 L 368.198 64.729 Q 367.607 64.28 367.339 63.699 L 367.339 63.699 L 367.339 63.699 Q 367.07 63.118 367.07 62.268 L 367.07 62.268 L 367.07 62.268 Q 367.07 60.813 368.198 60.017 L 368.198 60.017 L 368.198 60.017 Q 369.326 59.221 371.396 59.221 L 371.396 59.221 L 371.396 59.221 Q 373.369 59.221 375.234 60.08 L 375.234 60.08 L 374.336 62.229 L 374.336 62.229 Q 373.516 61.877 372.803 61.653 L 372.803 61.653 L 372.803 61.653 Q 372.09 61.428 371.348 61.428 L 371.348 61.428 L 371.348 61.428 Q 370.029 61.428 370.029 62.141 L 370.029 62.141 L 370.029 62.141 Q 370.029 62.541 370.454 62.834 L 370.454 62.834 L 370.454 62.834 Q 370.879 63.127 372.314 63.704 L 372.314 63.704 L 372.314 63.704 Q 373.594 64.221 374.189 64.67 L 374.189 64.67 L 374.189 64.67 Q 374.785 65.12 375.068 65.705 L 375.068 65.705 L 375.068 65.705 Q 375.352 66.291 375.352 67.102 Z  M 382.275 68.166 L 382.275 68.166 L 382.275 68.166 Q 383.057 68.166 384.15 67.825 L 384.15 67.825 L 384.15 70.041 L 384.15 70.041 Q 383.037 70.539 381.416 70.539 L 381.416 70.539 L 381.416 70.539 Q 379.629 70.539 378.813 69.636 L 378.813 69.636 L 378.813 69.636 Q 377.998 68.733 377.998 66.926 L 377.998 66.926 L 377.998 61.663 L 376.572 61.663 L 376.572 60.403 L 378.213 59.407 L 379.072 57.102 L 380.977 57.102 L 380.977 59.426 L 384.033 59.426 L 384.033 61.663 L 380.977 61.663 L 380.977 66.926 L 380.977 66.926 Q 380.977 67.561 381.333 67.864 L 381.333 67.864 L 381.333 67.864 Q 381.689 68.166 382.275 68.166 Z  M 390.879 61.34 L 390.879 61.34 L 390.879 61.34 Q 389.932 61.34 389.394 61.941 L 389.394 61.941 L 389.394 61.941 Q 388.857 62.541 388.779 63.645 L 388.779 63.645 L 392.959 63.645 L 392.959 63.645 Q 392.939 62.541 392.383 61.941 L 392.383 61.941 L 392.383 61.941 Q 391.826 61.34 390.879 61.34 Z  M 391.299 70.539 L 391.299 70.539 L 391.299 70.539 Q 388.662 70.539 387.178 69.084 L 387.178 69.084 L 387.178 69.084 Q 385.693 67.629 385.693 64.963 L 385.693 64.963 L 385.693 64.963 Q 385.693 62.219 387.065 60.72 L 387.065 60.72 L 387.065 60.72 Q 388.437 59.221 390.859 59.221 L 390.859 59.221 L 390.859 59.221 Q 393.174 59.221 394.463 60.539 L 394.463 60.539 L 394.463 60.539 Q 395.752 61.858 395.752 64.182 L 395.752 64.182 L 395.752 65.627 L 388.711 65.627 L 388.711 65.627 Q 388.76 66.897 389.463 67.61 L 389.463 67.61 L 389.463 67.61 Q 390.166 68.323 391.436 68.323 L 391.436 68.323 L 391.436 68.323 Q 392.422 68.323 393.301 68.118 L 393.301 68.118 L 393.301 68.118 Q 394.18 67.913 395.137 67.463 L 395.137 67.463 L 395.137 69.768 L 395.137 69.768 Q 394.355 70.159 393.467 70.349 L 393.467 70.349 L 393.467 70.349 Q 392.578 70.539 391.299 70.539 Z  M 404.268 59.221 L 404.268 59.221 L 404.268 59.221 Q 404.873 59.221 405.273 59.309 L 405.273 59.309 L 405.049 62.102 L 405.049 62.102 Q 404.687 62.004 404.17 62.004 L 404.17 62.004 L 404.17 62.004 Q 402.744 62.004 401.948 62.737 L 401.948 62.737 L 401.948 62.737 Q 401.152 63.469 401.152 64.788 L 401.152 64.788 L 401.152 70.344 L 398.174 70.344 L 398.174 59.426 L 400.43 59.426 L 400.869 61.262 L 401.016 61.262 L 401.016 61.262 Q 401.523 60.344 402.388 59.783 L 402.388 59.783 L 402.388 59.783 Q 403.252 59.221 404.268 59.221 Z " fill-rule="evenodd" fill="rgb(0,0,0)"/></g><g id="Bfeat1"><path d="M 479.835 105.585 L 564.482 105.585 C 568.719 105.585 572.159 109.025 572.159 113.261 L 572.159 134.909 C 572.159 139.146 568.719 142.585 564.482 142.585 L 479.835 142.585 C 475.598 142.585 472.159 139.146 472.159 134.909 L 472.159 113.261 C 472.159 109.025 475.598 105.585 479.835 105.585 Z" style="stroke:none;fill:#D1D1D1;stroke-linecap:square;stroke-miterlimit:3;"/><path d="M 479.835 105.585 L 564.482 105.585 C 568.719 105.585 572.159 109.025 572.159 113.261 L 572.159 134.909 C 572.159 139.146 568.719 142.585 564.482 142.585 L 479.835 142.585 C 475.598 142.585 472.159 139.146 472.159 134.909 L 472.159 113.261 C 472.159 109.025 475.598 105.585 479.835 105.585 Z" style="fill:none;stroke:#000000;stroke-width:1.6855342301554246;stroke-linecap:square;stroke-miterlimit:3;"/><path d=" M 502.387 120.926 L 502.387 123.163 L 499.809 123.163 L 499.809 131.844 L 496.83 131.844 L 496.83 123.163 L 495.19 123.163 L 495.19 121.727 L 496.83 120.926 L 496.83 120.125 L 496.83 120.125 Q 496.83 118.26 497.748 117.401 L 497.748 117.401 L 497.748 117.401 Q 498.666 116.541 500.688 116.541 L 500.688 116.541 L 500.688 116.541 Q 502.231 116.541 503.432 117 L 503.432 117 L 502.67 119.188 L 502.67 119.188 Q 501.772 118.905 501.01 118.905 L 501.01 118.905 L 501.01 118.905 Q 500.375 118.905 500.092 119.281 L 500.092 119.281 L 500.092 119.281 Q 499.809 119.657 499.809 120.243 L 499.809 120.243 L 499.809 120.926 L 502.387 120.926 Z  M 508.618 122.84 L 508.618 122.84 L 508.618 122.84 Q 507.67 122.84 507.133 123.441 L 507.133 123.441 L 507.133 123.441 Q 506.596 124.041 506.518 125.145 L 506.518 125.145 L 510.698 125.145 L 510.698 125.145 Q 510.678 124.041 510.121 123.441 L 510.121 123.441 L 510.121 123.441 Q 509.565 122.84 508.618 122.84 Z  M 509.037 132.039 L 509.037 132.039 L 509.037 132.039 Q 506.401 132.039 504.916 130.584 L 504.916 130.584 L 504.916 130.584 Q 503.432 129.129 503.432 126.463 L 503.432 126.463 L 503.432 126.463 Q 503.432 123.719 504.804 122.22 L 504.804 122.22 L 504.804 122.22 Q 506.176 120.721 508.598 120.721 L 508.598 120.721 L 508.598 120.721 Q 510.912 120.721 512.202 122.039 L 512.202 122.039 L 512.202 122.039 Q 513.491 123.358 513.491 125.682 L 513.491 125.682 L 513.491 127.127 L 506.45 127.127 L 506.45 127.127 Q 506.498 128.397 507.202 129.11 L 507.202 129.11 L 507.202 129.11 Q 507.905 129.823 509.174 129.823 L 509.174 129.823 L 509.174 129.823 Q 510.161 129.823 511.039 129.618 L 511.039 129.618 L 511.039 129.618 Q 511.918 129.413 512.875 128.963 L 512.875 128.963 L 512.875 131.268 L 512.875 131.268 Q 512.094 131.659 511.205 131.849 L 511.205 131.849 L 511.205 131.849 Q 510.317 132.039 509.037 132.039 Z  M 524.926 131.844 L 522.846 131.844 L 522.27 130.36 L 522.192 130.36 L 522.192 130.36 Q 521.44 131.307 520.644 131.673 L 520.644 131.673 L 520.644 131.673 Q 519.848 132.039 518.569 132.039 L 518.569 132.039 L 518.569 132.039 Q 516.996 132.039 516.093 131.141 L 516.093 131.141 L 516.093 131.141 Q 515.19 130.243 515.19 128.582 L 515.19 128.582 L 515.19 128.582 Q 515.19 126.844 516.406 126.019 L 516.406 126.019 L 516.406 126.019 Q 517.621 125.194 520.073 125.106 L 520.073 125.106 L 521.967 125.047 L 521.967 124.569 L 521.967 124.569 Q 521.967 122.909 520.268 122.909 L 520.268 122.909 L 520.268 122.909 Q 518.959 122.909 517.192 123.7 L 517.192 123.7 L 516.205 121.688 L 516.205 121.688 Q 518.09 120.702 520.385 120.702 L 520.385 120.702 L 520.385 120.702 Q 522.582 120.702 523.754 121.659 L 523.754 121.659 L 523.754 121.659 Q 524.926 122.616 524.926 124.569 L 524.926 124.569 L 524.926 131.844 Z  M 521.967 127.684 L 521.967 126.786 L 520.815 126.825 L 520.815 126.825 Q 519.516 126.864 518.881 127.293 L 518.881 127.293 L 518.881 127.293 Q 518.246 127.723 518.246 128.602 L 518.246 128.602 L 518.246 128.602 Q 518.246 129.862 519.692 129.862 L 519.692 129.862 L 519.692 129.862 Q 520.727 129.862 521.347 129.266 L 521.347 129.266 L 521.347 129.266 Q 521.967 128.67 521.967 127.684 L 521.967 127.684 Z  M 532.592 129.666 L 532.592 129.666 L 532.592 129.666 Q 533.373 129.666 534.467 129.325 L 534.467 129.325 L 534.467 131.541 L 534.467 131.541 Q 533.354 132.039 531.733 132.039 L 531.733 132.039 L 531.733 132.039 Q 529.946 132.039 529.13 131.136 L 529.13 131.136 L 529.13 131.136 Q 528.315 130.233 528.315 128.426 L 528.315 128.426 L 528.315 123.163 L 526.889 123.163 L 526.889 121.903 L 528.53 120.907 L 529.389 118.602 L 531.293 118.602 L 531.293 120.926 L 534.35 120.926 L 534.35 123.163 L 531.293 123.163 L 531.293 128.426 L 531.293 128.426 Q 531.293 129.061 531.65 129.364 L 531.65 129.364 L 531.65 129.364 Q 532.006 129.666 532.592 129.666 Z  M 543.373 117.567 L 543.373 131.844 L 540.356 131.844 L 540.356 123.582 L 540.385 122.225 L 540.434 120.741 L 540.434 120.741 Q 539.682 121.493 539.389 121.727 L 539.389 121.727 L 537.748 123.045 L 536.293 121.229 L 540.893 117.567 L 543.373 117.567 Z " fill-rule="evenodd" fill="rgb(0,0,0)"/></g><g id="Bhead"><path d="M 334.462 7.585 L 406.684 7.585 C 410.624 7.585 413.823 10.784 413.823 14.725 L 413.823 37.446 C 413.823 41.386 410.624 44.585 406.684 44.585 L 334.462 44.585 C 330.522 44.585 327.323 41.386 327.323 37.446 L 327.323 14.725 C 327.323 10.784 330.522 7.585 334.462 7.585 Z" style="stroke:none;fill:#FFF3A5;stroke-linecap:square;stroke-miterlimit:3;"/><path d="M 334.462 7.585 L 406.684 7.585 C 410.624 7.585 413.823 10.784 413.823 14.725 L 413.823 37.446 C 413.823 41.386 410.624 44.585 406.684 44.585 L 334.462 44.585 C 330.522 44.585 327.323 41.386 327.323 37.446 L 327.323 14.725 C 327.323 10.784 330.522 7.585 334.462 7.585 Z" style="fill:none;stroke:#000000;stroke-width:1.6855342301554246;stroke-linecap:square;stroke-miterlimit:3;"/><path d=" M 355.516 20.294 L 355.516 34.571 L 352.498 34.571 L 352.498 28.409 L 346.844 28.409 L 346.844 34.571 L 343.816 34.571 L 343.816 20.294 L 346.844 20.294 L 346.844 25.89 L 352.498 25.89 L 352.498 20.294 L 355.516 20.294 Z  M 367.342 32.071 L 367.342 34.571 L 359.119 34.571 L 359.119 20.294 L 367.342 20.294 L 367.342 22.774 L 362.146 22.774 L 362.146 25.909 L 366.98 25.909 L 366.98 28.39 L 362.146 28.39 L 362.146 32.071 L 367.342 32.071 Z  M 382.322 34.571 L 379.061 34.571 L 378.025 31.173 L 372.82 31.173 L 371.785 34.571 L 368.523 34.571 L 373.562 20.235 L 377.264 20.235 L 382.322 34.571 Z  M 373.582 28.634 L 377.303 28.634 L 377.303 28.634 Q 375.867 24.015 375.686 23.409 L 375.686 23.409 L 375.686 23.409 Q 375.506 22.804 375.428 22.452 L 375.428 22.452 L 375.428 22.452 Q 375.105 23.702 373.582 28.634 L 373.582 28.634 Z  M 395.965 27.296 L 395.965 27.296 L 395.965 27.296 Q 395.965 30.821 393.958 32.696 L 393.958 32.696 L 393.958 32.696 Q 391.951 34.571 388.162 34.571 L 388.162 34.571 L 384.119 34.571 L 384.119 20.294 L 388.602 20.294 L 388.602 20.294 Q 392.098 20.294 394.031 22.14 L 394.031 22.14 L 394.031 22.14 Q 395.965 23.985 395.965 27.296 Z  M 392.82 27.374 L 392.82 27.374 L 392.82 27.374 Q 392.82 22.774 388.758 22.774 L 388.758 22.774 L 387.146 22.774 L 387.146 32.071 L 388.445 32.071 L 388.445 32.071 Q 392.82 32.071 392.82 27.374 Z " fill-rule="evenodd" fill="rgb(0,0,0)"/></g><g id="c1"><path d=" M 158.744 110.793 C 158.744 98.536 168.695 88.585 180.951 88.585 C 193.208 88.585 203.159 98.536 203.159 110.793 C 203.159 123.049 193.208 133 180.951 133 C 168.695 133 158.744 123.049 158.744 110.793 Z " fill="rgb(195,215,247)" vector-effect="non-scaling-stroke" stroke-width="2" stroke="rgb(0,0,0)" stroke-linejoin="miter" stroke-linecap="square" stroke-miterlimit="3"/><path d=" M 182.383 103.052 L 182.383 120.115 L 179.09 120.115 L 179.09 107.025 L 174.777 108.572 L 174.777 105.736 L 182.207 103.052 L 182.383 103.052 Z " fill="rgb(0,0,0)"/></g><g id="c2"><path d=" M 221.951 110.793 C 221.951 98.536 231.902 88.585 244.159 88.585 C 256.415 88.585 266.366 98.536 266.366 110.793 C 266.366 123.049 256.415 133 244.159 133 C 231.902 133 221.951 123.049 221.951 110.793 Z " fill="rgb(195,215,247)" vector-effect="non-scaling-stroke" stroke-width="2" stroke="rgb(0,0,0)" stroke-linejoin="miter" stroke-linecap="square" stroke-miterlimit="3"/><path d=" M 248.766 117.502 L 248.766 120.115 L 237.129 120.115 L 237.129 117.888 L 242.649 111.959 L 242.649 111.959 Q 243.293 111.256 243.739 110.681 L 243.739 110.681 L 243.739 110.681 Q 244.184 110.107 244.459 109.633 L 244.459 109.633 L 244.459 109.633 Q 244.735 109.158 244.858 108.748 L 244.858 108.748 L 244.858 108.748 Q 244.981 108.338 244.981 107.951 L 244.981 107.951 L 244.981 107.951 Q 244.981 107.377 244.817 106.931 L 244.817 106.931 L 244.817 106.931 Q 244.653 106.486 244.354 106.175 L 244.354 106.175 L 244.354 106.175 Q 244.055 105.865 243.639 105.701 L 243.639 105.701 L 243.639 105.701 Q 243.223 105.537 242.719 105.537 L 242.719 105.537 L 242.719 105.537 Q 241.371 105.537 240.709 106.287 L 240.709 106.287 L 240.709 106.287 Q 240.047 107.037 240.047 108.384 L 240.047 108.384 L 236.778 108.384 L 236.778 108.384 Q 236.778 107.248 237.211 106.234 L 237.211 106.234 L 237.211 106.234 Q 237.645 105.22 238.436 104.459 L 238.436 104.459 L 238.436 104.459 Q 239.227 103.697 240.346 103.258 L 240.346 103.258 L 240.346 103.258 Q 241.465 102.818 242.825 102.818 L 242.825 102.818 L 242.825 102.818 Q 244.125 102.818 245.127 103.181 L 245.127 103.181 L 245.127 103.181 Q 246.129 103.545 246.803 104.201 L 246.803 104.201 L 246.803 104.201 Q 247.477 104.857 247.828 105.777 L 247.828 105.777 L 247.828 105.777 Q 248.18 106.697 248.18 107.81 L 248.18 107.81 L 248.18 107.81 Q 248.18 108.654 247.916 109.422 L 247.916 109.422 L 247.916 109.422 Q 247.653 110.189 247.166 110.939 L 247.166 110.939 L 247.166 110.939 Q 246.68 111.689 246 112.468 L 246 112.468 L 246 112.468 Q 245.321 113.248 244.489 114.103 L 244.489 114.103 L 241.278 117.502 L 248.766 117.502 Z " fill="rgb(0,0,0)"/></g><g id="C3"><path d=" M 285.159 110.793 C 285.159 98.536 295.109 88.585 307.366 88.585 C 319.622 88.585 329.573 98.536 329.573 110.793 C 329.573 123.049 319.622 133 307.366 133 C 295.109 133 285.159 123.049 285.159 110.793 Z " fill="rgb(195,215,247)" vector-effect="non-scaling-stroke" stroke-width="2" stroke="rgb(0,0,0)" stroke-linejoin="miter" stroke-linecap="square" stroke-miterlimit="3"/><path d=" M 304.098 112.685 L 304.098 110.154 L 305.868 110.154 L 305.868 110.154 Q 307.204 110.154 307.848 109.48 L 307.848 109.48 L 307.848 109.48 Q 308.493 108.806 308.493 107.717 L 308.493 107.717 L 308.493 107.717 Q 308.493 107.213 308.346 106.797 L 308.346 106.797 L 308.346 106.797 Q 308.2 106.381 307.907 106.082 L 307.907 106.082 L 307.907 106.082 Q 307.614 105.783 307.163 105.619 L 307.163 105.619 L 307.163 105.619 Q 306.712 105.455 306.114 105.455 L 306.114 105.455 L 306.114 105.455 Q 305.622 105.455 305.194 105.595 L 305.194 105.595 L 305.194 105.595 Q 304.766 105.736 304.444 106 L 304.444 106 L 304.444 106 Q 304.122 106.263 303.934 106.638 L 303.934 106.638 L 303.934 106.638 Q 303.747 107.013 303.747 107.482 L 303.747 107.482 L 300.489 107.482 L 300.489 107.482 Q 300.489 106.439 300.917 105.584 L 300.917 105.584 L 300.917 105.584 Q 301.344 104.728 302.094 104.113 L 302.094 104.113 L 302.094 104.113 Q 302.844 103.498 303.858 103.158 L 303.858 103.158 L 303.858 103.158 Q 304.872 102.818 306.044 102.818 L 306.044 102.818 L 306.044 102.818 Q 307.309 102.818 308.364 103.129 L 308.364 103.129 L 308.364 103.129 Q 309.419 103.439 310.169 104.054 L 310.169 104.054 L 310.169 104.054 Q 310.919 104.67 311.335 105.578 L 311.335 105.578 L 311.335 105.578 Q 311.751 106.486 311.751 107.681 L 311.751 107.681 L 311.751 107.681 Q 311.751 108.232 311.587 108.765 L 311.587 108.765 L 311.587 108.765 Q 311.423 109.299 311.106 109.779 L 311.106 109.779 L 311.106 109.779 Q 310.79 110.259 310.321 110.664 L 310.321 110.664 L 310.321 110.664 Q 309.852 111.068 309.243 111.361 L 309.243 111.361 L 309.243 111.361 Q 309.958 111.619 310.479 112.017 L 310.479 112.017 L 310.479 112.017 Q 311.001 112.416 311.34 112.925 L 311.34 112.925 L 311.34 112.925 Q 311.68 113.435 311.844 114.045 L 311.844 114.045 L 311.844 114.045 Q 312.008 114.654 312.008 115.334 L 312.008 115.334 L 312.008 115.334 Q 312.008 116.529 311.551 117.467 L 311.551 117.467 L 311.551 117.467 Q 311.094 118.404 310.298 119.043 L 310.298 119.043 L 310.298 119.043 Q 309.501 119.681 308.405 120.015 L 308.405 120.015 L 308.405 120.015 Q 307.309 120.349 306.044 120.349 L 306.044 120.349 L 306.044 120.349 Q 304.954 120.349 303.917 120.05 L 303.917 120.05 L 303.917 120.05 Q 302.88 119.752 302.071 119.148 L 302.071 119.148 L 302.071 119.148 Q 301.262 118.545 300.776 117.631 L 300.776 117.631 L 300.776 117.631 Q 300.29 116.717 300.29 115.474 L 300.29 115.474 L 303.548 115.474 L 303.548 115.474 Q 303.548 115.967 303.735 116.383 L 303.735 116.383 L 303.735 116.383 Q 303.923 116.799 304.268 117.097 L 304.268 117.097 L 304.268 117.097 Q 304.614 117.396 305.083 117.566 L 305.083 117.566 L 305.083 117.566 Q 305.551 117.736 306.114 117.736 L 306.114 117.736 L 306.114 117.736 Q 307.356 117.736 308.059 117.08 L 308.059 117.08 L 308.059 117.08 Q 308.762 116.424 308.762 115.299 L 308.762 115.299 L 308.762 115.299 Q 308.762 114.607 308.563 114.115 L 308.563 114.115 L 308.563 114.115 Q 308.364 113.623 307.983 113.306 L 307.983 113.306 L 307.983 113.306 Q 307.602 112.99 307.069 112.838 L 307.069 112.838 L 307.069 112.838 Q 306.536 112.685 305.868 112.685 L 305.868 112.685 L 304.098 112.685 Z " fill="rgb(0,0,0)"/></g><g id="C4"><path d=" M 348.366 110.793 C 348.366 98.536 358.317 88.585 370.573 88.585 C 382.83 88.585 392.781 98.536 392.781 110.793 C 392.781 123.049 382.83 133 370.573 133 C 358.317 133 348.366 123.049 348.366 110.793 Z " fill="rgb(195,215,247)" vector-effect="non-scaling-stroke" stroke-width="2" stroke="rgb(0,0,0)" stroke-linejoin="miter" stroke-linecap="square" stroke-miterlimit="3"/><path d=" M 373.54 103.052 L 373.54 113.775 L 375.52 113.775 L 375.52 116.412 L 373.54 116.412 L 373.54 120.115 L 370.282 120.115 L 370.282 116.412 L 363.192 116.412 L 363.063 114.373 L 370.235 103.052 L 373.54 103.052 Z  M 369.966 107.998 L 366.263 113.775 L 370.282 113.775 L 370.282 107.435 L 369.966 107.998 Z " fill-rule="evenodd" fill="rgb(0,0,0)"/></g><g id="C5"><path d=" M 376.337 169.793 C 376.337 157.536 386.288 147.585 398.545 147.585 C 410.801 147.585 420.752 157.536 420.752 169.793 C 420.752 182.049 410.801 192 398.545 192 C 386.288 192 376.337 182.049 376.337 169.793 Z " fill="rgb(209,209,209)" vector-effect="non-scaling-stroke" stroke-width="2" stroke="rgb(0,0,0)" stroke-linejoin="miter" stroke-linecap="square" stroke-miterlimit="3"/><path d=" M 394.762 171.357 L 392.16 170.713 L 393.133 162.052 L 402.601 162.052 L 402.601 164.818 L 395.816 164.818 L 395.406 168.568 L 395.406 168.568 Q 395.769 168.357 396.437 168.134 L 396.437 168.134 L 396.437 168.134 Q 397.105 167.912 397.972 167.912 L 397.972 167.912 L 397.972 167.912 Q 399.203 167.912 400.17 168.304 L 400.17 168.304 L 400.17 168.304 Q 401.137 168.697 401.799 169.435 L 401.799 169.435 L 401.799 169.435 Q 402.461 170.174 402.812 171.24 L 402.812 171.24 L 402.812 171.24 Q 403.164 172.306 403.164 173.654 L 403.164 173.654 L 403.164 173.654 Q 403.164 174.802 402.824 175.834 L 402.824 175.834 L 402.824 175.834 Q 402.484 176.865 401.781 177.65 L 401.781 177.65 L 401.781 177.65 Q 401.078 178.435 400.012 178.892 L 400.012 178.892 L 400.012 178.892 Q 398.945 179.349 397.492 179.349 L 397.492 179.349 L 397.492 179.349 Q 396.39 179.349 395.365 179.021 L 395.365 179.021 L 395.365 179.021 Q 394.34 178.693 393.543 178.06 L 393.543 178.06 L 393.543 178.06 Q 392.746 177.427 392.248 176.508 L 392.248 176.508 L 392.248 176.508 Q 391.75 175.588 391.715 174.404 L 391.715 174.404 L 394.926 174.404 L 394.926 174.404 Q 395.043 175.517 395.728 176.127 L 395.728 176.127 L 395.728 176.127 Q 396.414 176.736 397.48 176.736 L 397.48 176.736 L 397.48 176.736 Q 398.137 176.736 398.599 176.49 L 398.599 176.49 L 398.599 176.49 Q 399.062 176.244 399.349 175.81 L 399.349 175.81 L 399.349 175.81 Q 399.637 175.377 399.771 174.779 L 399.771 174.779 L 399.771 174.779 Q 399.906 174.181 399.906 173.49 L 399.906 173.49 L 399.906 173.49 Q 399.906 172.81 399.736 172.242 L 399.736 172.242 L 399.736 172.242 Q 399.566 171.674 399.215 171.263 L 399.215 171.263 L 399.215 171.263 Q 398.863 170.853 398.336 170.631 L 398.336 170.631 L 398.336 170.631 Q 397.808 170.408 397.094 170.408 L 397.094 170.408 L 397.094 170.408 Q 396.613 170.408 396.262 170.49 L 396.262 170.49 L 396.262 170.49 Q 395.91 170.572 395.64 170.701 L 395.64 170.701 L 395.64 170.701 Q 395.371 170.83 395.16 171 L 395.16 171 L 395.16 171 Q 394.949 171.17 394.762 171.357 L 394.762 171.357 Z " fill="rgb(0,0,0)"/></g><g id="C6"><path d=" M 437.951 169.793 C 437.951 157.536 447.902 147.585 460.159 147.585 C 472.415 147.585 482.366 157.536 482.366 169.793 C 482.366 182.049 472.415 192 460.159 192 C 447.902 192 437.951 182.049 437.951 169.793 Z " fill="rgb(209,209,209)" vector-effect="non-scaling-stroke" stroke-width="2" stroke="rgb(0,0,0)" stroke-linejoin="miter" stroke-linecap="square" stroke-miterlimit="3"/><path d=" M 461.825 161.912 L 462.258 161.912 L 462.258 164.619 L 462.071 164.619 L 462.071 164.619 Q 460.782 164.619 459.791 164.959 L 459.791 164.959 L 459.791 164.959 Q 458.801 165.299 458.104 165.92 L 458.104 165.92 L 458.104 165.92 Q 457.407 166.541 457.002 167.408 L 457.002 167.408 L 457.002 167.408 Q 456.598 168.275 456.493 169.342 L 456.493 169.342 L 456.493 169.342 Q 456.762 169.049 457.114 168.761 L 457.114 168.761 L 457.114 168.761 Q 457.465 168.474 457.905 168.246 L 457.905 168.246 L 457.905 168.246 Q 458.344 168.017 458.86 167.877 L 458.86 167.877 L 458.86 167.877 Q 459.375 167.736 459.973 167.736 L 459.973 167.736 L 459.973 167.736 Q 461.192 167.736 462.1 168.199 L 462.1 168.199 L 462.1 168.199 Q 463.008 168.662 463.618 169.453 L 463.618 169.453 L 463.618 169.453 Q 464.227 170.244 464.526 171.293 L 464.526 171.293 L 464.526 171.293 Q 464.825 172.342 464.825 173.502 L 464.825 173.502 L 464.825 173.502 Q 464.825 174.744 464.426 175.81 L 464.426 175.81 L 464.426 175.81 Q 464.028 176.877 463.289 177.662 L 463.289 177.662 L 463.289 177.662 Q 462.551 178.447 461.496 178.898 L 461.496 178.898 L 461.496 178.898 Q 460.442 179.349 459.129 179.349 L 459.129 179.349 L 459.129 179.349 Q 457.758 179.349 456.657 178.84 L 456.657 178.84 L 456.657 178.84 Q 455.555 178.33 454.787 177.427 L 454.787 177.427 L 454.787 177.427 Q 454.02 176.525 453.604 175.289 L 453.604 175.289 L 453.604 175.289 Q 453.188 174.052 453.188 172.588 L 453.188 172.588 L 453.188 171.334 L 453.188 171.334 Q 453.188 169.306 453.739 167.578 L 453.739 167.578 L 453.739 167.578 Q 454.289 165.849 455.379 164.59 L 455.379 164.59 L 455.379 164.59 Q 456.469 163.33 458.086 162.621 L 458.086 162.621 L 458.086 162.621 Q 459.703 161.912 461.825 161.912 L 461.825 161.912 Z  M 459.024 170.349 L 459.024 170.349 L 459.024 170.349 Q 458.145 170.349 457.471 170.818 L 457.471 170.818 L 457.471 170.818 Q 456.797 171.287 456.457 172.025 L 456.457 172.025 L 456.457 172.986 L 456.457 172.986 Q 456.457 173.924 456.651 174.627 L 456.651 174.627 L 456.651 174.627 Q 456.844 175.33 457.196 175.793 L 457.196 175.793 L 457.196 175.793 Q 457.547 176.256 458.028 176.49 L 458.028 176.49 L 458.028 176.49 Q 458.508 176.724 459.071 176.724 L 459.071 176.724 L 459.071 176.724 Q 459.645 176.724 460.114 176.484 L 460.114 176.484 L 460.114 176.484 Q 460.582 176.244 460.911 175.822 L 460.911 175.822 L 460.911 175.822 Q 461.239 175.4 461.414 174.82 L 461.414 174.82 L 461.414 174.82 Q 461.59 174.24 461.59 173.549 L 461.59 173.549 L 461.59 173.549 Q 461.59 172.857 461.414 172.271 L 461.414 172.271 L 461.414 172.271 Q 461.239 171.685 460.911 171.258 L 460.911 171.258 L 460.911 171.258 Q 460.582 170.83 460.108 170.59 L 460.108 170.59 L 460.108 170.59 Q 459.633 170.349 459.024 170.349 Z " fill-rule="evenodd" fill="rgb(0,0,0)"/></g><g id="C8"><path d=" M 499.565 169.793 C 499.565 157.536 509.516 147.585 521.772 147.585 C 534.029 147.585 543.98 157.536 543.98 169.793 C 543.98 182.049 534.029 192 521.772 192 C 509.516 192 499.565 182.049 499.565 169.793 Z " fill="rgb(209,209,209)" vector-effect="non-scaling-stroke" stroke-width="2" stroke="rgb(0,0,0)" stroke-linejoin="miter" stroke-linecap="square" stroke-miterlimit="3"/><path d=" M 526.368 162.052 L 526.368 163.869 L 519.724 179.115 L 516.29 179.115 L 522.946 164.713 L 514.38 164.713 L 514.38 162.052 L 526.368 162.052 Z " fill="rgb(0,0,0)"/></g><line x1="180.951" y1="368.793" x2="559" y2="368.793" vector-effect="non-scaling-stroke" stroke-width="2" stroke="rgb(0,0,0)" stroke-linejoin="miter" stroke-linecap="square" stroke-miterlimit="3"/><line x1="433.781" y1="368.793" x2="556.838" y2="368.793" vector-effect="non-scaling-stroke" stroke-width="2" stroke="rgb(0,0,0)" stroke-linejoin="miter" stroke-linecap="square" stroke-miterlimit="3"/><g id="Bmaster"><path d="M 514.684 261 L 599.332 261 C 603.569 261 607.008 264.44 607.008 268.676 L 607.008 290.324 C 607.008 294.56 603.569 298 599.332 298 L 514.684 298 C 510.448 298 507.008 294.56 507.008 290.324 L 507.008 268.676 C 507.008 264.44 510.448 261 514.684 261 Z" style="stroke:none;fill:#9FC4FF;stroke-linecap:square;stroke-miterlimit:3;"/><path d="M 514.684 261 L 599.332 261 C 603.569 261 607.008 264.44 607.008 268.676 L 607.008 290.324 C 607.008 294.56 603.569 298 599.332 298 L 514.684 298 C 510.448 298 507.008 294.56 507.008 290.324 L 507.008 268.676 C 507.008 264.44 510.448 261 514.684 261 Z" style="fill:none;stroke:#000000;stroke-width:1.6855342301554246;stroke-linecap:square;stroke-miterlimit:3;"/><path d=" M 532.226 281.28 L 532.226 286.759 L 529.247 286.759 L 529.247 280.382 L 529.247 280.382 Q 529.247 279.2 528.852 278.609 L 528.852 278.609 L 528.852 278.609 Q 528.456 278.019 527.607 278.019 L 527.607 278.019 L 527.607 278.019 Q 526.464 278.019 525.947 278.858 L 525.947 278.858 L 525.947 278.858 Q 525.429 279.698 525.429 281.622 L 525.429 281.622 L 525.429 286.759 L 522.451 286.759 L 522.451 275.841 L 524.726 275.841 L 525.126 277.237 L 525.292 277.237 L 525.292 277.237 Q 525.732 276.485 526.562 276.061 L 526.562 276.061 L 526.562 276.061 Q 527.392 275.636 528.466 275.636 L 528.466 275.636 L 528.466 275.636 Q 530.917 275.636 531.786 277.237 L 531.786 277.237 L 532.05 277.237 L 532.05 277.237 Q 532.49 276.476 533.344 276.056 L 533.344 276.056 L 533.344 276.056 Q 534.199 275.636 535.273 275.636 L 535.273 275.636 L 535.273 275.636 Q 537.128 275.636 538.08 276.588 L 538.08 276.588 L 538.08 276.588 Q 539.033 277.54 539.033 279.64 L 539.033 279.64 L 539.033 286.759 L 536.044 286.759 L 536.044 280.382 L 536.044 280.382 Q 536.044 279.2 535.649 278.609 L 535.649 278.609 L 535.649 278.609 Q 535.253 278.019 534.404 278.019 L 534.404 278.019 L 534.404 278.019 Q 533.31 278.019 532.768 278.8 L 532.768 278.8 L 532.768 278.8 Q 532.226 279.581 532.226 281.28 L 532.226 281.28 Z  M 551.103 286.759 L 549.023 286.759 L 548.447 285.274 L 548.369 285.274 L 548.369 285.274 Q 547.617 286.222 546.821 286.588 L 546.821 286.588 L 546.821 286.588 Q 546.025 286.954 544.745 286.954 L 544.745 286.954 L 544.745 286.954 Q 543.173 286.954 542.27 286.056 L 542.27 286.056 L 542.27 286.056 Q 541.367 285.157 541.367 283.497 L 541.367 283.497 L 541.367 283.497 Q 541.367 281.759 542.582 280.934 L 542.582 280.934 L 542.582 280.934 Q 543.798 280.108 546.249 280.021 L 546.249 280.021 L 548.144 279.962 L 548.144 279.483 L 548.144 279.483 Q 548.144 277.823 546.445 277.823 L 546.445 277.823 L 546.445 277.823 Q 545.136 277.823 543.369 278.614 L 543.369 278.614 L 542.382 276.603 L 542.382 276.603 Q 544.267 275.616 546.562 275.616 L 546.562 275.616 L 546.562 275.616 Q 548.759 275.616 549.931 276.573 L 549.931 276.573 L 549.931 276.573 Q 551.103 277.53 551.103 279.483 L 551.103 279.483 L 551.103 286.759 Z  M 548.144 282.599 L 548.144 281.7 L 546.992 281.739 L 546.992 281.739 Q 545.693 281.778 545.058 282.208 L 545.058 282.208 L 545.058 282.208 Q 544.423 282.638 544.423 283.517 L 544.423 283.517 L 544.423 283.517 Q 544.423 284.776 545.869 284.776 L 545.869 284.776 L 545.869 284.776 Q 546.904 284.776 547.524 284.181 L 547.524 284.181 L 547.524 284.181 Q 548.144 283.585 548.144 282.599 L 548.144 282.599 Z  M 561.786 283.517 L 561.786 283.517 L 561.786 283.517 Q 561.786 285.196 560.619 286.075 L 560.619 286.075 L 560.619 286.075 Q 559.452 286.954 557.128 286.954 L 557.128 286.954 L 557.128 286.954 Q 555.937 286.954 555.097 286.793 L 555.097 286.793 L 555.097 286.793 Q 554.257 286.632 553.525 286.319 L 553.525 286.319 L 553.525 283.858 L 553.525 283.858 Q 554.355 284.249 555.395 284.513 L 555.395 284.513 L 555.395 284.513 Q 556.435 284.776 557.226 284.776 L 557.226 284.776 L 557.226 284.776 Q 558.847 284.776 558.847 283.839 L 558.847 283.839 L 558.847 283.839 Q 558.847 283.487 558.632 283.268 L 558.632 283.268 L 558.632 283.268 Q 558.417 283.048 557.89 282.77 L 557.89 282.77 L 557.89 282.77 Q 557.363 282.491 556.484 282.12 L 556.484 282.12 L 556.484 282.12 Q 555.224 281.593 554.633 281.144 L 554.633 281.144 L 554.633 281.144 Q 554.042 280.694 553.774 280.113 L 553.774 280.113 L 553.774 280.113 Q 553.505 279.532 553.505 278.683 L 553.505 278.683 L 553.505 278.683 Q 553.505 277.228 554.633 276.432 L 554.633 276.432 L 554.633 276.432 Q 555.761 275.636 557.831 275.636 L 557.831 275.636 L 557.831 275.636 Q 559.804 275.636 561.669 276.495 L 561.669 276.495 L 560.771 278.644 L 560.771 278.644 Q 559.951 278.292 559.238 278.067 L 559.238 278.067 L 559.238 278.067 Q 558.525 277.843 557.783 277.843 L 557.783 277.843 L 557.783 277.843 Q 556.464 277.843 556.464 278.556 L 556.464 278.556 L 556.464 278.556 Q 556.464 278.956 556.889 279.249 L 556.889 279.249 L 556.889 279.249 Q 557.314 279.542 558.749 280.118 L 558.749 280.118 L 558.749 280.118 Q 560.029 280.636 560.624 281.085 L 560.624 281.085 L 560.624 281.085 Q 561.22 281.534 561.503 282.12 L 561.503 282.12 L 561.503 282.12 Q 561.786 282.706 561.786 283.517 Z  M 568.71 284.581 L 568.71 284.581 L 568.71 284.581 Q 569.492 284.581 570.585 284.239 L 570.585 284.239 L 570.585 286.456 L 570.585 286.456 Q 569.472 286.954 567.851 286.954 L 567.851 286.954 L 567.851 286.954 Q 566.064 286.954 565.248 286.051 L 565.248 286.051 L 565.248 286.051 Q 564.433 285.147 564.433 283.341 L 564.433 283.341 L 564.433 278.077 L 563.007 278.077 L 563.007 276.817 L 564.648 275.821 L 565.507 273.517 L 567.411 273.517 L 567.411 275.841 L 570.468 275.841 L 570.468 278.077 L 567.411 278.077 L 567.411 283.341 L 567.411 283.341 Q 567.411 283.976 567.768 284.278 L 567.768 284.278 L 567.768 284.278 Q 568.124 284.581 568.71 284.581 Z  M 577.314 277.755 L 577.314 277.755 L 577.314 277.755 Q 576.367 277.755 575.829 278.355 L 575.829 278.355 L 575.829 278.355 Q 575.292 278.956 575.214 280.06 L 575.214 280.06 L 579.394 280.06 L 579.394 280.06 Q 579.374 278.956 578.818 278.355 L 578.818 278.355 L 578.818 278.355 Q 578.261 277.755 577.314 277.755 Z  M 577.734 286.954 L 577.734 286.954 L 577.734 286.954 Q 575.097 286.954 573.613 285.499 L 573.613 285.499 L 573.613 285.499 Q 572.128 284.044 572.128 281.378 L 572.128 281.378 L 572.128 281.378 Q 572.128 278.634 573.5 277.135 L 573.5 277.135 L 573.5 277.135 Q 574.872 275.636 577.294 275.636 L 577.294 275.636 L 577.294 275.636 Q 579.609 275.636 580.898 276.954 L 580.898 276.954 L 580.898 276.954 Q 582.187 278.272 582.187 280.597 L 582.187 280.597 L 582.187 282.042 L 575.146 282.042 L 575.146 282.042 Q 575.195 283.312 575.898 284.024 L 575.898 284.024 L 575.898 284.024 Q 576.601 284.737 577.87 284.737 L 577.87 284.737 L 577.87 284.737 Q 578.857 284.737 579.736 284.532 L 579.736 284.532 L 579.736 284.532 Q 580.615 284.327 581.572 283.878 L 581.572 283.878 L 581.572 286.183 L 581.572 286.183 Q 580.79 286.573 579.902 286.764 L 579.902 286.764 L 579.902 286.764 Q 579.013 286.954 577.734 286.954 Z  M 590.702 275.636 L 590.702 275.636 L 590.702 275.636 Q 591.308 275.636 591.708 275.724 L 591.708 275.724 L 591.484 278.517 L 591.484 278.517 Q 591.122 278.419 590.605 278.419 L 590.605 278.419 L 590.605 278.419 Q 589.179 278.419 588.383 279.151 L 588.383 279.151 L 588.383 279.151 Q 587.587 279.884 587.587 281.202 L 587.587 281.202 L 587.587 286.759 L 584.609 286.759 L 584.609 275.841 L 586.865 275.841 L 587.304 277.677 L 587.451 277.677 L 587.451 277.677 Q 587.958 276.759 588.823 276.197 L 588.823 276.197 L 588.823 276.197 Q 589.687 275.636 590.702 275.636 Z " fill-rule="evenodd" fill="rgb(0,0,0)"/></g><g id="Bfeat1"><path d="M 514.684 303.5 L 599.332 303.5 C 603.569 303.5 607.008 306.94 607.008 311.176 L 607.008 332.824 C 607.008 337.06 603.569 340.5 599.332 340.5 L 514.684 340.5 C 510.448 340.5 507.008 337.06 507.008 332.824 L 507.008 311.176 C 507.008 306.94 510.448 303.5 514.684 303.5 Z" style="stroke:none;fill:#D1D1D1;stroke-linecap:square;stroke-miterlimit:3;"/><path d="M 514.684 303.5 L 599.332 303.5 C 603.569 303.5 607.008 306.94 607.008 311.176 L 607.008 332.824 C 607.008 337.06 603.569 340.5 599.332 340.5 L 514.684 340.5 C 510.448 340.5 507.008 337.06 507.008 332.824 L 507.008 311.176 C 507.008 306.94 510.448 303.5 514.684 303.5 Z" style="fill:none;stroke:#000000;stroke-width:1.6855342301554246;stroke-linecap:square;stroke-miterlimit:3;"/><path d=" M 537.237 318.841 L 537.237 321.077 L 534.659 321.077 L 534.659 329.759 L 531.68 329.759 L 531.68 321.077 L 530.039 321.077 L 530.039 319.642 L 531.68 318.841 L 531.68 318.04 L 531.68 318.04 Q 531.68 316.175 532.598 315.315 L 532.598 315.315 L 532.598 315.315 Q 533.516 314.456 535.537 314.456 L 535.537 314.456 L 535.537 314.456 Q 537.08 314.456 538.282 314.915 L 538.282 314.915 L 537.52 317.103 L 537.52 317.103 Q 536.621 316.819 535.86 316.819 L 535.86 316.819 L 535.86 316.819 Q 535.225 316.819 534.942 317.195 L 534.942 317.195 L 534.942 317.195 Q 534.659 317.571 534.659 318.157 L 534.659 318.157 L 534.659 318.841 L 537.237 318.841 Z  M 543.467 320.755 L 543.467 320.755 L 543.467 320.755 Q 542.52 320.755 541.983 321.355 L 541.983 321.355 L 541.983 321.355 Q 541.446 321.956 541.368 323.06 L 541.368 323.06 L 545.547 323.06 L 545.547 323.06 Q 545.528 321.956 544.971 321.355 L 544.971 321.355 L 544.971 321.355 Q 544.414 320.755 543.467 320.755 Z  M 543.887 329.954 L 543.887 329.954 L 543.887 329.954 Q 541.25 329.954 539.766 328.499 L 539.766 328.499 L 539.766 328.499 Q 538.282 327.044 538.282 324.378 L 538.282 324.378 L 538.282 324.378 Q 538.282 321.634 539.654 320.135 L 539.654 320.135 L 539.654 320.135 Q 541.026 318.636 543.448 318.636 L 543.448 318.636 L 543.448 318.636 Q 545.762 318.636 547.051 319.954 L 547.051 319.954 L 547.051 319.954 Q 548.34 321.272 548.34 323.597 L 548.34 323.597 L 548.34 325.042 L 541.299 325.042 L 541.299 325.042 Q 541.348 326.312 542.051 327.024 L 542.051 327.024 L 542.051 327.024 Q 542.754 327.737 544.024 327.737 L 544.024 327.737 L 544.024 327.737 Q 545.01 327.737 545.889 327.532 L 545.889 327.532 L 545.889 327.532 Q 546.768 327.327 547.725 326.878 L 547.725 326.878 L 547.725 329.183 L 547.725 329.183 Q 546.944 329.573 546.055 329.764 L 546.055 329.764 L 546.055 329.764 Q 545.166 329.954 543.887 329.954 Z  M 559.776 329.759 L 557.696 329.759 L 557.119 328.274 L 557.041 328.274 L 557.041 328.274 Q 556.289 329.222 555.494 329.588 L 555.494 329.588 L 555.494 329.588 Q 554.698 329.954 553.418 329.954 L 553.418 329.954 L 553.418 329.954 Q 551.846 329.954 550.943 329.056 L 550.943 329.056 L 550.943 329.056 Q 550.039 328.157 550.039 326.497 L 550.039 326.497 L 550.039 326.497 Q 550.039 324.759 551.255 323.934 L 551.255 323.934 L 551.255 323.934 Q 552.471 323.108 554.922 323.021 L 554.922 323.021 L 556.817 322.962 L 556.817 322.483 L 556.817 322.483 Q 556.817 320.823 555.118 320.823 L 555.118 320.823 L 555.118 320.823 Q 553.809 320.823 552.041 321.614 L 552.041 321.614 L 551.055 319.603 L 551.055 319.603 Q 552.94 318.616 555.235 318.616 L 555.235 318.616 L 555.235 318.616 Q 557.432 318.616 558.604 319.573 L 558.604 319.573 L 558.604 319.573 Q 559.776 320.53 559.776 322.483 L 559.776 322.483 L 559.776 329.759 Z  M 556.817 325.599 L 556.817 324.7 L 555.664 324.739 L 555.664 324.739 Q 554.366 324.778 553.731 325.208 L 553.731 325.208 L 553.731 325.208 Q 553.096 325.638 553.096 326.517 L 553.096 326.517 L 553.096 326.517 Q 553.096 327.776 554.541 327.776 L 554.541 327.776 L 554.541 327.776 Q 555.577 327.776 556.197 327.181 L 556.197 327.181 L 556.197 327.181 Q 556.817 326.585 556.817 325.599 L 556.817 325.599 Z  M 567.442 327.581 L 567.442 327.581 L 567.442 327.581 Q 568.223 327.581 569.317 327.239 L 569.317 327.239 L 569.317 329.456 L 569.317 329.456 Q 568.203 329.954 566.582 329.954 L 566.582 329.954 L 566.582 329.954 Q 564.795 329.954 563.98 329.051 L 563.98 329.051 L 563.98 329.051 Q 563.164 328.147 563.164 326.341 L 563.164 326.341 L 563.164 321.077 L 561.739 321.077 L 561.739 319.817 L 563.379 318.821 L 564.239 316.517 L 566.143 316.517 L 566.143 318.841 L 569.2 318.841 L 569.2 321.077 L 566.143 321.077 L 566.143 326.341 L 566.143 326.341 Q 566.143 326.976 566.499 327.278 L 566.499 327.278 L 566.499 327.278 Q 566.856 327.581 567.442 327.581 Z  M 578.223 315.481 L 578.223 329.759 L 575.205 329.759 L 575.205 321.497 L 575.235 320.14 L 575.284 318.655 L 575.284 318.655 Q 574.532 319.407 574.239 319.642 L 574.239 319.642 L 572.598 320.96 L 571.143 319.144 L 575.743 315.481 L 578.223 315.481 Z " fill-rule="evenodd" fill="rgb(0,0,0)"/></g><g id="Bhead"><path d="M 520.897 224 L 593.119 224 C 597.059 224 600.258 227.199 600.258 231.139 L 600.258 253.861 C 600.258 257.801 597.059 261 593.119 261 L 520.897 261 C 516.957 261 513.758 257.801 513.758 253.861 L 513.758 231.139 C 513.758 227.199 516.957 224 520.897 224 Z" style="stroke:none;fill:#FFF3A5;stroke-linecap:square;stroke-miterlimit:3;"/><path d="M 520.897 224 L 593.119 224 C 597.059 224 600.258 227.199 600.258 231.139 L 600.258 253.861 C 600.258 257.801 597.059 261 593.119 261 L 520.897 261 C 516.957 261 513.758 257.801 513.758 253.861 L 513.758 231.139 C 513.758 227.199 516.957 224 520.897 224 Z" style="fill:none;stroke:#000000;stroke-width:1.6855342301554246;stroke-linecap:square;stroke-miterlimit:3;"/><path d=" M 541.951 236.709 L 541.951 250.986 L 538.933 250.986 L 538.933 244.824 L 533.279 244.824 L 533.279 250.986 L 530.251 250.986 L 530.251 236.709 L 533.279 236.709 L 533.279 242.304 L 538.933 242.304 L 538.933 236.709 L 541.951 236.709 Z  M 553.777 248.486 L 553.777 250.986 L 545.554 250.986 L 545.554 236.709 L 553.777 236.709 L 553.777 239.189 L 548.581 239.189 L 548.581 242.324 L 553.415 242.324 L 553.415 244.804 L 548.581 244.804 L 548.581 248.486 L 553.777 248.486 Z  M 568.757 250.986 L 565.495 250.986 L 564.46 247.588 L 559.255 247.588 L 558.22 250.986 L 554.958 250.986 L 559.997 236.65 L 563.699 236.65 L 568.757 250.986 Z  M 560.017 245.048 L 563.738 245.048 L 563.738 245.048 Q 562.302 240.429 562.121 239.824 L 562.121 239.824 L 562.121 239.824 Q 561.941 239.218 561.863 238.867 L 561.863 238.867 L 561.863 238.867 Q 561.54 240.117 560.017 245.048 L 560.017 245.048 Z  M 582.4 243.711 L 582.4 243.711 L 582.4 243.711 Q 582.4 247.236 580.393 249.111 L 580.393 249.111 L 580.393 249.111 Q 578.386 250.986 574.597 250.986 L 574.597 250.986 L 570.554 250.986 L 570.554 236.709 L 575.036 236.709 L 575.036 236.709 Q 578.533 236.709 580.466 238.554 L 580.466 238.554 L 580.466 238.554 Q 582.4 240.4 582.4 243.711 Z  M 579.255 243.789 L 579.255 243.789 L 579.255 243.789 Q 579.255 239.189 575.193 239.189 L 575.193 239.189 L 573.581 239.189 L 573.581 248.486 L 574.88 248.486 L 574.88 248.486 Q 579.255 248.486 579.255 243.789 Z " fill-rule="evenodd" fill="rgb(0,0,0)"/></g><g id="c1"><path d=" M 158.744 368.793 C 158.744 356.536 168.695 346.585 180.951 346.585 C 193.208 346.585 203.159 356.536 203.159 368.793 C 203.159 381.049 193.208 391 180.951 391 C 168.695 391 158.744 381.049 158.744 368.793 Z " fill="rgb(195,215,247)" vector-effect="non-scaling-stroke" stroke-width="2" stroke="rgb(0,0,0)" stroke-linejoin="miter" stroke-linecap="square" stroke-miterlimit="3"/><path d=" M 182.383 361.052 L 182.383 378.115 L 179.09 378.115 L 179.09 365.025 L 174.777 366.572 L 174.777 363.736 L 182.207 361.052 L 182.383 361.052 Z " fill="rgb(0,0,0)"/></g><g id="c2"><path d=" M 221.951 368.793 C 221.951 356.536 231.902 346.585 244.159 346.585 C 256.415 346.585 266.366 356.536 266.366 368.793 C 266.366 381.049 256.415 391 244.159 391 C 231.902 391 221.951 381.049 221.951 368.793 Z " fill="rgb(195,215,247)" vector-effect="non-scaling-stroke" stroke-width="2" stroke="rgb(0,0,0)" stroke-linejoin="miter" stroke-linecap="square" stroke-miterlimit="3"/><path d=" M 248.766 375.502 L 248.766 378.115 L 237.129 378.115 L 237.129 375.888 L 242.649 369.959 L 242.649 369.959 Q 243.293 369.256 243.739 368.681 L 243.739 368.681 L 243.739 368.681 Q 244.184 368.107 244.459 367.633 L 244.459 367.633 L 244.459 367.633 Q 244.735 367.158 244.858 366.748 L 244.858 366.748 L 244.858 366.748 Q 244.981 366.338 244.981 365.951 L 244.981 365.951 L 244.981 365.951 Q 244.981 365.377 244.817 364.931 L 244.817 364.931 L 244.817 364.931 Q 244.653 364.486 244.354 364.175 L 244.354 364.175 L 244.354 364.175 Q 244.055 363.865 243.639 363.701 L 243.639 363.701 L 243.639 363.701 Q 243.223 363.537 242.719 363.537 L 242.719 363.537 L 242.719 363.537 Q 241.371 363.537 240.709 364.287 L 240.709 364.287 L 240.709 364.287 Q 240.047 365.037 240.047 366.384 L 240.047 366.384 L 236.778 366.384 L 236.778 366.384 Q 236.778 365.248 237.211 364.234 L 237.211 364.234 L 237.211 364.234 Q 237.645 363.22 238.436 362.459 L 238.436 362.459 L 238.436 362.459 Q 239.227 361.697 240.346 361.258 L 240.346 361.258 L 240.346 361.258 Q 241.465 360.818 242.825 360.818 L 242.825 360.818 L 242.825 360.818 Q 244.125 360.818 245.127 361.181 L 245.127 361.181 L 245.127 361.181 Q 246.129 361.545 246.803 362.201 L 246.803 362.201 L 246.803 362.201 Q 247.477 362.857 247.828 363.777 L 247.828 363.777 L 247.828 363.777 Q 248.18 364.697 248.18 365.81 L 248.18 365.81 L 248.18 365.81 Q 248.18 366.654 247.916 367.422 L 247.916 367.422 L 247.916 367.422 Q 247.653 368.189 247.166 368.939 L 247.166 368.939 L 247.166 368.939 Q 246.68 369.689 246 370.468 L 246 370.468 L 246 370.468 Q 245.321 371.248 244.489 372.103 L 244.489 372.103 L 241.278 375.502 L 248.766 375.502 Z " fill="rgb(0,0,0)"/></g><g id="C3"><path d=" M 285.159 368.793 C 285.159 356.536 295.109 346.585 307.366 346.585 C 319.622 346.585 329.573 356.536 329.573 368.793 C 329.573 381.049 319.622 391 307.366 391 C 295.109 391 285.159 381.049 285.159 368.793 Z " fill="rgb(195,215,247)" vector-effect="non-scaling-stroke" stroke-width="2" stroke="rgb(0,0,0)" stroke-linejoin="miter" stroke-linecap="square" stroke-miterlimit="3"/><path d=" M 304.098 370.685 L 304.098 368.154 L 305.868 368.154 L 305.868 368.154 Q 307.204 368.154 307.848 367.48 L 307.848 367.48 L 307.848 367.48 Q 308.493 366.806 308.493 365.717 L 308.493 365.717 L 308.493 365.717 Q 308.493 365.213 308.346 364.797 L 308.346 364.797 L 308.346 364.797 Q 308.2 364.381 307.907 364.082 L 307.907 364.082 L 307.907 364.082 Q 307.614 363.783 307.163 363.619 L 307.163 363.619 L 307.163 363.619 Q 306.712 363.455 306.114 363.455 L 306.114 363.455 L 306.114 363.455 Q 305.622 363.455 305.194 363.595 L 305.194 363.595 L 305.194 363.595 Q 304.766 363.736 304.444 364 L 304.444 364 L 304.444 364 Q 304.122 364.263 303.934 364.638 L 303.934 364.638 L 303.934 364.638 Q 303.747 365.013 303.747 365.482 L 303.747 365.482 L 300.489 365.482 L 300.489 365.482 Q 300.489 364.439 300.917 363.584 L 300.917 363.584 L 300.917 363.584 Q 301.344 362.728 302.094 362.113 L 302.094 362.113 L 302.094 362.113 Q 302.844 361.498 303.858 361.158 L 303.858 361.158 L 303.858 361.158 Q 304.872 360.818 306.044 360.818 L 306.044 360.818 L 306.044 360.818 Q 307.309 360.818 308.364 361.129 L 308.364 361.129 L 308.364 361.129 Q 309.419 361.439 310.169 362.054 L 310.169 362.054 L 310.169 362.054 Q 310.919 362.67 311.335 363.578 L 311.335 363.578 L 311.335 363.578 Q 311.751 364.486 311.751 365.681 L 311.751 365.681 L 311.751 365.681 Q 311.751 366.232 311.587 366.765 L 311.587 366.765 L 311.587 366.765 Q 311.423 367.299 311.106 367.779 L 311.106 367.779 L 311.106 367.779 Q 310.79 368.259 310.321 368.664 L 310.321 368.664 L 310.321 368.664 Q 309.852 369.068 309.243 369.361 L 309.243 369.361 L 309.243 369.361 Q 309.958 369.619 310.479 370.017 L 310.479 370.017 L 310.479 370.017 Q 311.001 370.416 311.34 370.925 L 311.34 370.925 L 311.34 370.925 Q 311.68 371.435 311.844 372.045 L 311.844 372.045 L 311.844 372.045 Q 312.008 372.654 312.008 373.334 L 312.008 373.334 L 312.008 373.334 Q 312.008 374.529 311.551 375.467 L 311.551 375.467 L 311.551 375.467 Q 311.094 376.404 310.298 377.043 L 310.298 377.043 L 310.298 377.043 Q 309.501 377.681 308.405 378.015 L 308.405 378.015 L 308.405 378.015 Q 307.309 378.349 306.044 378.349 L 306.044 378.349 L 306.044 378.349 Q 304.954 378.349 303.917 378.05 L 303.917 378.05 L 303.917 378.05 Q 302.88 377.752 302.071 377.148 L 302.071 377.148 L 302.071 377.148 Q 301.262 376.545 300.776 375.631 L 300.776 375.631 L 300.776 375.631 Q 300.29 374.717 300.29 373.474 L 300.29 373.474 L 303.548 373.474 L 303.548 373.474 Q 303.548 373.967 303.735 374.383 L 303.735 374.383 L 303.735 374.383 Q 303.923 374.799 304.268 375.097 L 304.268 375.097 L 304.268 375.097 Q 304.614 375.396 305.083 375.566 L 305.083 375.566 L 305.083 375.566 Q 305.551 375.736 306.114 375.736 L 306.114 375.736 L 306.114 375.736 Q 307.356 375.736 308.059 375.08 L 308.059 375.08 L 308.059 375.08 Q 308.762 374.424 308.762 373.299 L 308.762 373.299 L 308.762 373.299 Q 308.762 372.607 308.563 372.115 L 308.563 372.115 L 308.563 372.115 Q 308.364 371.623 307.983 371.306 L 307.983 371.306 L 307.983 371.306 Q 307.602 370.99 307.069 370.838 L 307.069 370.838 L 307.069 370.838 Q 306.536 370.685 305.868 370.685 L 305.868 370.685 L 304.098 370.685 Z " fill="rgb(0,0,0)"/></g><g id="C4"><path d=" M 348.366 368.793 C 348.366 356.536 358.317 346.585 370.573 346.585 C 382.83 346.585 392.781 356.536 392.781 368.793 C 392.781 381.049 382.83 391 370.573 391 C 358.317 391 348.366 381.049 348.366 368.793 Z " fill="rgb(195,215,247)" vector-effect="non-scaling-stroke" stroke-width="2" stroke="rgb(0,0,0)" stroke-linejoin="miter" stroke-linecap="square" stroke-miterlimit="3"/><path d=" M 373.54 361.052 L 373.54 371.775 L 375.52 371.775 L 375.52 374.412 L 373.54 374.412 L 373.54 378.115 L 370.282 378.115 L 370.282 374.412 L 363.192 374.412 L 363.063 372.373 L 370.235 361.052 L 373.54 361.052 Z  M 369.966 365.998 L 366.263 371.775 L 370.282 371.775 L 370.282 365.435 L 369.966 365.998 Z " fill-rule="evenodd" fill="rgb(0,0,0)"/></g><g id="C5"><path d=" M 411.573 368.793 C 411.573 356.536 421.524 346.585 433.781 346.585 C 446.037 346.585 455.988 356.536 455.988 368.793 C 455.988 381.049 446.037 391 433.781 391 C 421.524 391 411.573 381.049 411.573 368.793 Z " fill="rgb(195,215,247)" vector-effect="non-scaling-stroke" stroke-width="2" stroke="rgb(0,0,0)" stroke-linejoin="miter" stroke-linecap="square" stroke-miterlimit="3"/><path d=" M 429.997 370.357 L 427.396 369.713 L 428.368 361.052 L 437.837 361.052 L 437.837 363.818 L 431.052 363.818 L 430.642 367.568 L 430.642 367.568 Q 431.005 367.357 431.673 367.134 L 431.673 367.134 L 431.673 367.134 Q 432.341 366.912 433.208 366.912 L 433.208 366.912 L 433.208 366.912 Q 434.439 366.912 435.406 367.304 L 435.406 367.304 L 435.406 367.304 Q 436.372 367.697 437.034 368.435 L 437.034 368.435 L 437.034 368.435 Q 437.697 369.174 438.048 370.24 L 438.048 370.24 L 438.048 370.24 Q 438.4 371.306 438.4 372.654 L 438.4 372.654 L 438.4 372.654 Q 438.4 373.802 438.06 374.834 L 438.06 374.834 L 438.06 374.834 Q 437.72 375.865 437.017 376.65 L 437.017 376.65 L 437.017 376.65 Q 436.314 377.435 435.247 377.892 L 435.247 377.892 L 435.247 377.892 Q 434.181 378.349 432.728 378.349 L 432.728 378.349 L 432.728 378.349 Q 431.626 378.349 430.601 378.021 L 430.601 378.021 L 430.601 378.021 Q 429.575 377.693 428.779 377.06 L 428.779 377.06 L 428.779 377.06 Q 427.982 376.427 427.484 375.508 L 427.484 375.508 L 427.484 375.508 Q 426.986 374.588 426.95 373.404 L 426.95 373.404 L 430.161 373.404 L 430.161 373.404 Q 430.279 374.517 430.964 375.127 L 430.964 375.127 L 430.964 375.127 Q 431.65 375.736 432.716 375.736 L 432.716 375.736 L 432.716 375.736 Q 433.372 375.736 433.835 375.49 L 433.835 375.49 L 433.835 375.49 Q 434.298 375.244 434.585 374.81 L 434.585 374.81 L 434.585 374.81 Q 434.872 374.377 435.007 373.779 L 435.007 373.779 L 435.007 373.779 Q 435.142 373.181 435.142 372.49 L 435.142 372.49 L 435.142 372.49 Q 435.142 371.81 434.972 371.242 L 434.972 371.242 L 434.972 371.242 Q 434.802 370.674 434.45 370.263 L 434.45 370.263 L 434.45 370.263 Q 434.099 369.853 433.572 369.631 L 433.572 369.631 L 433.572 369.631 Q 433.044 369.408 432.329 369.408 L 432.329 369.408 L 432.329 369.408 Q 431.849 369.408 431.497 369.49 L 431.497 369.49 L 431.497 369.49 Q 431.146 369.572 430.876 369.701 L 430.876 369.701 L 430.876 369.701 Q 430.607 369.83 430.396 370 L 430.396 370 L 430.396 370 Q 430.185 370.17 429.997 370.357 L 429.997 370.357 Z " fill="rgb(0,0,0)"/></g><g id="C6"><path d=" M 473.187 368.793 C 473.187 356.536 483.138 346.585 495.394 346.585 C 507.651 346.585 517.602 356.536 517.602 368.793 C 517.602 381.049 507.651 391 495.394 391 C 483.138 391 473.187 381.049 473.187 368.793 Z " fill="rgb(195,215,247)" vector-effect="non-scaling-stroke" stroke-width="2" stroke="rgb(0,0,0)" stroke-linejoin="miter" stroke-linecap="square" stroke-miterlimit="3"/><path d=" M 497.06 360.912 L 497.494 360.912 L 497.494 363.619 L 497.306 363.619 L 497.306 363.619 Q 496.017 363.619 495.027 363.959 L 495.027 363.959 L 495.027 363.959 Q 494.037 364.299 493.34 364.92 L 493.34 364.92 L 493.34 364.92 Q 492.642 365.541 492.238 366.408 L 492.238 366.408 L 492.238 366.408 Q 491.834 367.275 491.728 368.342 L 491.728 368.342 L 491.728 368.342 Q 491.998 368.049 492.349 367.761 L 492.349 367.761 L 492.349 367.761 Q 492.701 367.474 493.14 367.246 L 493.14 367.246 L 493.14 367.246 Q 493.58 367.017 494.096 366.877 L 494.096 366.877 L 494.096 366.877 Q 494.611 366.736 495.209 366.736 L 495.209 366.736 L 495.209 366.736 Q 496.428 366.736 497.336 367.199 L 497.336 367.199 L 497.336 367.199 Q 498.244 367.662 498.853 368.453 L 498.853 368.453 L 498.853 368.453 Q 499.463 369.244 499.762 370.293 L 499.762 370.293 L 499.762 370.293 Q 500.06 371.342 500.06 372.502 L 500.06 372.502 L 500.06 372.502 Q 500.06 373.744 499.662 374.81 L 499.662 374.81 L 499.662 374.81 Q 499.263 375.877 498.525 376.662 L 498.525 376.662 L 498.525 376.662 Q 497.787 377.447 496.732 377.898 L 496.732 377.898 L 496.732 377.898 Q 495.678 378.349 494.365 378.349 L 494.365 378.349 L 494.365 378.349 Q 492.994 378.349 491.892 377.84 L 491.892 377.84 L 491.892 377.84 Q 490.791 377.33 490.023 376.427 L 490.023 376.427 L 490.023 376.427 Q 489.256 375.525 488.84 374.289 L 488.84 374.289 L 488.84 374.289 Q 488.424 373.052 488.424 371.588 L 488.424 371.588 L 488.424 370.334 L 488.424 370.334 Q 488.424 368.306 488.974 366.578 L 488.974 366.578 L 488.974 366.578 Q 489.525 364.849 490.615 363.59 L 490.615 363.59 L 490.615 363.59 Q 491.705 362.33 493.322 361.621 L 493.322 361.621 L 493.322 361.621 Q 494.939 360.912 497.06 360.912 L 497.06 360.912 Z  M 494.26 369.349 L 494.26 369.349 L 494.26 369.349 Q 493.381 369.349 492.707 369.818 L 492.707 369.818 L 492.707 369.818 Q 492.033 370.287 491.693 371.025 L 491.693 371.025 L 491.693 371.986 L 491.693 371.986 Q 491.693 372.924 491.887 373.627 L 491.887 373.627 L 491.887 373.627 Q 492.08 374.33 492.431 374.793 L 492.431 374.793 L 492.431 374.793 Q 492.783 375.256 493.263 375.49 L 493.263 375.49 L 493.263 375.49 Q 493.744 375.724 494.306 375.724 L 494.306 375.724 L 494.306 375.724 Q 494.881 375.724 495.349 375.484 L 495.349 375.484 L 495.349 375.484 Q 495.818 375.244 496.146 374.822 L 496.146 374.822 L 496.146 374.822 Q 496.474 374.4 496.65 373.82 L 496.65 373.82 L 496.65 373.82 Q 496.826 373.24 496.826 372.549 L 496.826 372.549 L 496.826 372.549 Q 496.826 371.857 496.65 371.271 L 496.65 371.271 L 496.65 371.271 Q 496.474 370.685 496.146 370.258 L 496.146 370.258 L 496.146 370.258 Q 495.818 369.83 495.344 369.59 L 495.344 369.59 L 495.344 369.59 Q 494.869 369.349 494.26 369.349 Z " fill-rule="evenodd" fill="rgb(0,0,0)"/></g><g id="C8"><path d=" M 534.801 368.793 C 534.801 356.536 544.752 346.585 557.008 346.585 C 569.265 346.585 579.215 356.536 579.215 368.793 C 579.215 381.049 569.265 391 557.008 391 C 544.752 391 534.801 381.049 534.801 368.793 Z " fill="rgb(195,215,247)" vector-effect="non-scaling-stroke" stroke-width="2" stroke="rgb(0,0,0)" stroke-linejoin="miter" stroke-linecap="square" stroke-miterlimit="3"/><path d=" M 561.604 361.052 L 561.604 362.869 L 554.959 378.115 L 551.526 378.115 L 558.182 363.713 L 549.616 363.713 L 549.616 361.052 L 561.604 361.052 Z " fill="rgb(0,0,0)"/></g><line x1="48" y1="204" x2="751" y2="204" vector-effect="non-scaling-stroke" stroke-width="3" stroke="rgb(0,0,0)" stroke-linejoin="miter" stroke-linecap="square" stroke-miterlimit="3"/></g></svg>