<?xml version="1.0" standalone="no"?><!-- Generator: Gravit.io --><svg xmlns="http://www.w3.org/2000/svg" xmlns:xlink="http://www.w3.org/1999/xlink" style="isolation:isolate" viewBox="0 0 800 470" width="800" height="470"><defs><clipPath id="_clipPath_7Iuc6Q7OnBgxfzZ5gCqwGgHo5I9tanq2"><rect width="800" height="470"/></clipPath></defs><g clip-path="url(#_clipPath_7Iuc6Q7OnBgxfzZ5gCqwGgHo5I9tanq2)"><line x1="180.951" y1="110.793" x2="371.744" y2="110.793" vector-effect="non-scaling-stroke" stroke-width="2" stroke="rgb(0,0,0)" stroke-linejoin="miter" stroke-linecap="square" stroke-miterlimit="3"/><line x1="332.545" y1="169.793" x2="455.603" y2="169.793" vector-effect="non-scaling-stroke" stroke-width="2" stroke="rgb(0,0,0)" stroke-linejoin="miter" stroke-linecap="square" stroke-miterlimit="3"/><line x1="333.545" y1="169.793" x2="305.573" y2="110.793" vector-effect="non-scaling-stroke" stroke-width="2" stroke="rgb(0,0,0)" stroke-linejoin="miter" stroke-linecap="square" stroke-miterlimit="3"/><g id="Bmaster"><path d="M 328.249 44.585 L 412.897 44.585 C 417.134 44.585 420.573 48.025 420.573 52.261 L 420.573 73.909 C 420.573 78.146 417.134 81.585 412.897 81.585 L 328.249 81.585 C 324.013 81.585 320.573 78.146 320.573 73.909 L 320.573 52.261 C 320.573 48.025 324.013 44.585 328.249 44.585 Z" style="stroke:none;fill:#9FC4FF;stroke-miterlimit:10;"/><path d="M 328.249 44.585 L 412.897 44.585 C 417.134 44.585 420.573 48.025 420.573 52.261 L 420.573 73.909 C 420.573 78.146 417.134 81.585 412.897 81.585 L 328.249 81.585 C 324.013 81.585 320.573 78.146 320.573 73.909 L 320.573 52.261 C 320.573 48.025 324.013 44.585 328.249 44.585 Z" style="fill:none;stroke:#000000;stroke-width:1.6855342301554246;stroke-linecap:square;stroke-miterlimit:3;"/><path d=" M 345.791 64.866 L 345.791 70.344 L 342.812 70.344 L 342.812 63.967 L 342.812 63.967 Q 342.812 62.786 342.417 62.195 L 342.417 62.195 L 342.417 62.195 Q 342.021 61.604 341.172 61.604 L 341.172 61.604 L 341.172 61.604 Q 340.029 61.604 339.512 62.444 L 339.512 62.444 L 339.512 62.444 Q 338.994 63.284 338.994 65.207 L 338.994 65.207 L 338.994 70.344 L 336.016 70.344 L 336.016 59.426 L 338.291 59.426 L 338.691 60.823 L 338.857 60.823 L 338.857 60.823 Q 339.297 60.071 340.127 59.646 L 340.127 59.646 L 340.127 59.646 Q 340.957 59.221 342.031 59.221 L 342.031 59.221 L 342.031 59.221 Q 344.482 59.221 345.352 60.823 L 345.352 60.823 L 345.615 60.823 L 345.615 60.823 Q 346.055 60.061 346.909 59.641 L 346.909 59.641 L 346.909 59.641 Q 347.764 59.221 348.838 59.221 L 348.838 59.221 L 348.838 59.221 Q 350.693 59.221 351.645 60.173 L 351.645 60.173 L 351.645 60.173 Q 352.598 61.125 352.598 63.225 L 352.598 63.225 L 352.598 70.344 L 349.609 70.344 L 349.609 63.967 L 349.609 63.967 Q 349.609 62.786 349.214 62.195 L 349.214 62.195 L 349.214 62.195 Q 348.818 61.604 347.969 61.604 L 347.969 61.604 L 347.969 61.604 Q 346.875 61.604 346.333 62.385 L 346.333 62.385 L 346.333 62.385 Q 345.791 63.166 345.791 64.866 L 345.791 64.866 Z  M 364.668 70.344 L 362.588 70.344 L 362.012 68.86 L 361.934 68.86 L 361.934 68.86 Q 361.182 69.807 360.386 70.173 L 360.386 70.173 L 360.386 70.173 Q 359.59 70.539 358.311 70.539 L 358.311 70.539 L 358.311 70.539 Q 356.738 70.539 355.835 69.641 L 355.835 69.641 L 355.835 69.641 Q 354.932 68.743 354.932 67.082 L 354.932 67.082 L 354.932 67.082 Q 354.932 65.344 356.147 64.519 L 356.147 64.519 L 356.147 64.519 Q 357.363 63.694 359.814 63.606 L 359.814 63.606 L 361.709 63.547 L 361.709 63.069 L 361.709 63.069 Q 361.709 61.409 360.01 61.409 L 360.01 61.409 L 360.01 61.409 Q 358.701 61.409 356.934 62.2 L 356.934 62.2 L 355.947 60.188 L 355.947 60.188 Q 357.832 59.202 360.127 59.202 L 360.127 59.202 L 360.127 59.202 Q 362.324 59.202 363.496 60.159 L 363.496 60.159 L 363.496 60.159 Q 364.668 61.116 364.668 63.069 L 364.668 63.069 L 364.668 70.344 Z  M 361.709 66.184 L 361.709 65.286 L 360.557 65.325 L 360.557 65.325 Q 359.258 65.364 358.623 65.793 L 358.623 65.793 L 358.623 65.793 Q 357.988 66.223 357.988 67.102 L 357.988 67.102 L 357.988 67.102 Q 357.988 68.362 359.434 68.362 L 359.434 68.362 L 359.434 68.362 Q 360.469 68.362 361.089 67.766 L 361.089 67.766 L 361.089 67.766 Q 361.709 67.17 361.709 66.184 L 361.709 66.184 Z  M 375.352 67.102 L 375.352 67.102 L 375.352 67.102 Q 375.352 68.782 374.185 69.661 L 374.185 69.661 L 374.185 69.661 Q 373.018 70.539 370.693 70.539 L 370.693 70.539 L 370.693 70.539 Q 369.502 70.539 368.662 70.378 L 368.662 70.378 L 368.662 70.378 Q 367.822 70.217 367.09 69.905 L 367.09 69.905 L 367.09 67.444 L 367.09 67.444 Q 367.92 67.834 368.96 68.098 L 368.96 68.098 L 368.96 68.098 Q 370 68.362 370.791 68.362 L 370.791 68.362 L 370.791 68.362 Q 372.412 68.362 372.412 67.424 L 372.412 67.424 L 372.412 67.424 Q 372.412 67.073 372.197 66.853 L 372.197 66.853 L 372.197 66.853 Q 371.982 66.633 371.455 66.355 L 371.455 66.355 L 371.455 66.355 Q 370.928 66.077 370.049 65.705 L 370.049 65.705 L 370.049 65.705 Q 368.789 65.178 368.198 64.729 L 368.198 64.729 L 368.198 64.729 Q 367.607 64.28 367.339 63.699 L 367.339 63.699 L 367.339 63.699 Q 367.07 63.118 367.07 62.268 L 367.07 62.268 L 367.07 62.268 Q 367.07 60.813 368.198 60.017 L 368.198 60.017 L 368.198 60.017 Q 369.326 59.221 371.396 59.221 L 371.396 59.221 L 371.396 59.221 Q 373.369 59.221 375.234 60.08 L 375.234 60.08 L 374.336 62.229 L 374.336 62.229 Q 373.516 61.877 372.803 61.653 L 372.803 61.653 L 372.803 61.653 Q 372.09 61.428 371.348 61.428 L 371.348 61.428 L 371.348 61.428 Q 370.029 61.428 370.029 62.141 L 370.029 62.141 L 370.029 62.141 Q 370.029 62.541 370.454 62.834 L 370.454 62.834 L 370.454 62.834 Q 370.879 63.127 372.314 63.704 L 372.314 63.704 L 372.314 63.704 Q 373.594 64.221 374.189 64.67 L 374.189 64.67 L 374.189 64.67 Q 374.785 65.12 375.068 65.705 L 375.068 65.705 L 375.068 65.705 Q 375.352 66.291 375.352 67.102 Z  M 382.275 68.166 L 382.275 68.166 L 382.275 68.166 Q 383.057 68.166 384.15 67.825 L 384.15 67.825 L 384.15 70.041 L 384.15 70.041 Q 383.037 70.539 381.416 70.539 L 381.416 70.539 L 381.416 70.539 Q 379.629 70.539 378.813 69.636 L 378.813 69.636 L 378.813 69.636 Q 377.998 68.733 377.998 66.926 L 377.998 66.926 L 377.998 61.663 L 376.572 61.663 L 376.572 60.403 L 378.213 59.407 L 379.072 57.102 L 380.977 57.102 L 380.977 59.426 L 384.033 59.426 L 384.033 61.663 L 380.977 61.663 L 380.977 66.926 L 380.977 66.926 Q 380.977 67.561 381.333 67.864 L 381.333 67.864 L 381.333 67.864 Q 381.689 68.166 382.275 68.166 Z  M 390.879 61.34 L 390.879 61.34 L 390.879 61.34 Q 389.932 61.34 389.394 61.941 L 389.394 61.941 L 389.394 61.941 Q 388.857 62.541 388.779 63.645 L 388.779 63.645 L 392.959 63.645 L 392.959 63.645 Q 392.939 62.541 392.383 61.941 L 392.383 61.941 L 392.383 61.941 Q 391.826 61.34 390.879 61.34 Z  M 391.299 70.539 L 391.299 70.539 L 391.299 70.539 Q 388.662 70.539 387.178 69.084 L 387.178 69.084 L 387.178 69.084 Q 385.693 67.629 385.693 64.963 L 385.693 64.963 L 385.693 64.963 Q 385.693 62.219 387.065 60.72 L 387.065 60.72 L 387.065 60.72 Q 388.437 59.221 390.859 59.221 L 390.859 59.221 L 390.859 59.221 Q 393.174 59.221 394.463 60.539 L 394.463 60.539 L 394.463 60.539 Q 395.752 61.858 395.752 64.182 L 395.752 64.182 L 395.752 65.627 L 388.711 65.627 L 388.711 65.627 Q 388.76 66.897 389.463 67.61 L 389.463 67.61 L 389.463 67.61 Q 390.166 68.323 391.436 68.323 L 391.436 68.323 L 391.436 68.323 Q 392.422 68.323 393.301 68.118 L 393.301 68.118 L 393.301 68.118 Q 394.18 67.913 395.137 67.463 L 395.137 67.463 L 395.137 69.768 L 395.137 69.768 Q 394.355 70.159 393.467 70.349 L 393.467 70.349 L 393.467 70.349 Q 392.578 70.539 391.299 70.539 Z  M 404.268 59.221 L 404.268 59.221 L 404.268 59.221 Q 404.873 59.221 405.273 59.309 L 405.273 59.309 L 405.049 62.102 L 405.049 62.102 Q 404.687 62.004 404.17 62.004 L 404.17 62.004 L 404.17 62.004 Q 402.744 62.004 401.948 62.737 L 401.948 62.737 L 401.948 62.737 Q 401.152 63.469 401.152 64.788 L 401.152 64.788 L 401.152 70.344 L 398.174 70.344 L 398.174 59.426 L 400.43 59.426 L 400.869 61.262 L 401.016 61.262 L 401.016 61.262 Q 401.523 60.344 402.388 59.783 L 402.388 59.783 L 402.388 59.783 Q 403.252 59.221 404.268 59.221 Z " fill-rule="evenodd" fill="rgb(0,0,0)"/></g><g id="Bfeat1"><path d="M 414.835 105.585 L 499.482 105.585 C 503.719 105.585 507.159 109.025 507.159 113.261 L 507.159 134.909 C 507.159 139.146 503.719 142.585 499.482 142.585 L 414.835 142.585 C 410.598 142.585 407.159 139.146 407.159 134.909 L 407.159 113.261 C 407.159 109.025 410.598 105.585 414.835 105.585 Z" style="stroke:none;fill:#D1D1D1;stroke-linecap:square;stroke-miterlimit:3;"/><path d="M 414.835 105.585 L 499.482 105.585 C 503.719 105.585 507.159 109.025 507.159 113.261 L 507.159 134.909 C 507.159 139.146 503.719 142.585 499.482 142.585 L 414.835 142.585 C 410.598 142.585 407.159 139.146 407.159 134.909 L 407.159 113.261 C 407.159 109.025 410.598 105.585 414.835 105.585 Z" style="fill:none;stroke:#000000;stroke-width:1.6855342301554246;stroke-linecap:square;stroke-miterlimit:3;"/><path d=" M 437.387 120.926 L 437.387 123.163 L 434.809 123.163 L 434.809 131.844 L 431.83 131.844 L 431.83 123.163 L 430.19 123.163 L 430.19 121.727 L 431.83 120.926 L 431.83 120.125 L 431.83 120.125 Q 431.83 118.26 432.748 117.401 L 432.748 117.401 L 432.748 117.401 Q 433.666 116.541 435.688 116.541 L 435.688 116.541 L 435.688 116.541 Q 437.231 116.541 438.432 117 L 438.432 117 L 437.67 119.188 L 437.67 119.188 Q 436.772 118.905 436.01 118.905 L 436.01 118.905 L 436.01 118.905 Q 435.375 118.905 435.092 119.281 L 435.092 119.281 L 435.092 119.281 Q 434.809 119.657 434.809 120.243 L 434.809 120.243 L 434.809 120.926 L 437.387 120.926 Z  M 443.618 122.84 L 443.618 122.84 L 443.618 122.84 Q 442.67 122.84 442.133 123.441 L 442.133 123.441 L 442.133 123.441 Q 441.596 124.041 441.518 125.145 L 441.518 125.145 L 445.698 125.145 L 445.698 125.145 Q 445.678 124.041 445.121 123.441 L 445.121 123.441 L 445.121 123.441 Q 444.565 122.84 443.618 122.84 Z  M 444.037 132.039 L 444.037 132.039 L 444.037 132.039 Q 441.401 132.039 439.916 130.584 L 439.916 130.584 L 439.916 130.584 Q 438.432 129.129 438.432 126.463 L 438.432 126.463 L 438.432 126.463 Q 438.432 123.719 439.804 122.22 L 439.804 122.22 L 439.804 122.22 Q 441.176 120.721 443.598 120.721 L 443.598 120.721 L 443.598 120.721 Q 445.912 120.721 447.202 122.039 L 447.202 122.039 L 447.202 122.039 Q 448.491 123.358 448.491 125.682 L 448.491 125.682 L 448.491 127.127 L 441.45 127.127 L 441.45 127.127 Q 441.498 128.397 442.202 129.11 L 442.202 129.11 L 442.202 129.11 Q 442.905 129.823 444.174 129.823 L 444.174 129.823 L 444.174 129.823 Q 445.161 129.823 446.039 129.618 L 446.039 129.618 L 446.039 129.618 Q 446.918 129.413 447.875 128.963 L 447.875 128.963 L 447.875 131.268 L 447.875 131.268 Q 447.094 131.659 446.205 131.849 L 446.205 131.849 L 446.205 131.849 Q 445.317 132.039 444.037 132.039 Z  M 459.926 131.844 L 457.846 131.844 L 457.27 130.36 L 457.192 130.36 L 457.192 130.36 Q 456.44 131.307 455.644 131.673 L 455.644 131.673 L 455.644 131.673 Q 454.848 132.039 453.569 132.039 L 453.569 132.039 L 453.569 132.039 Q 451.996 132.039 451.093 131.141 L 451.093 131.141 L 451.093 131.141 Q 450.19 130.243 450.19 128.582 L 450.19 128.582 L 450.19 128.582 Q 450.19 126.844 451.406 126.019 L 451.406 126.019 L 451.406 126.019 Q 452.621 125.194 455.073 125.106 L 455.073 125.106 L 456.967 125.047 L 456.967 124.569 L 456.967 124.569 Q 456.967 122.909 455.268 122.909 L 455.268 122.909 L 455.268 122.909 Q 453.959 122.909 452.192 123.7 L 452.192 123.7 L 451.205 121.688 L 451.205 121.688 Q 453.09 120.702 455.385 120.702 L 455.385 120.702 L 455.385 120.702 Q 457.582 120.702 458.754 121.659 L 458.754 121.659 L 458.754 121.659 Q 459.926 122.616 459.926 124.569 L 459.926 124.569 L 459.926 131.844 Z  M 456.967 127.684 L 456.967 126.786 L 455.815 126.825 L 455.815 126.825 Q 454.516 126.864 453.881 127.293 L 453.881 127.293 L 453.881 127.293 Q 453.246 127.723 453.246 128.602 L 453.246 128.602 L 453.246 128.602 Q 453.246 129.862 454.692 129.862 L 454.692 129.862 L 454.692 129.862 Q 455.727 129.862 456.347 129.266 L 456.347 129.266 L 456.347 129.266 Q 456.967 128.67 456.967 127.684 L 456.967 127.684 Z  M 467.592 129.666 L 467.592 129.666 L 467.592 129.666 Q 468.373 129.666 469.467 129.325 L 469.467 129.325 L 469.467 131.541 L 469.467 131.541 Q 468.354 132.039 466.733 132.039 L 466.733 132.039 L 466.733 132.039 Q 464.946 132.039 464.13 131.136 L 464.13 131.136 L 464.13 131.136 Q 463.315 130.233 463.315 128.426 L 463.315 128.426 L 463.315 123.163 L 461.889 123.163 L 461.889 121.903 L 463.53 120.907 L 464.389 118.602 L 466.293 118.602 L 466.293 120.926 L 469.35 120.926 L 469.35 123.163 L 466.293 123.163 L 466.293 128.426 L 466.293 128.426 Q 466.293 129.061 466.65 129.364 L 466.65 129.364 L 466.65 129.364 Q 467.006 129.666 467.592 129.666 Z  M 478.373 117.567 L 478.373 131.844 L 475.356 131.844 L 475.356 123.582 L 475.385 122.225 L 475.434 120.741 L 475.434 120.741 Q 474.682 121.493 474.389 121.727 L 474.389 121.727 L 472.748 123.045 L 471.293 121.229 L 475.893 117.567 L 478.373 117.567 Z " fill-rule="evenodd" fill="rgb(0,0,0)"/></g><g id="Bhead"><path d="M 334.462 7.585 L 406.684 7.585 C 410.624 7.585 413.823 10.784 413.823 14.725 L 413.823 37.446 C 413.823 41.386 410.624 44.585 406.684 44.585 L 334.462 44.585 C 330.522 44.585 327.323 41.386 327.323 37.446 L 327.323 14.725 C 327.323 10.784 330.522 7.585 334.462 7.585 Z" style="stroke:none;fill:#FFF3A5;stroke-linecap:square;stroke-miterlimit:3;"/><path d="M 334.462 7.585 L 406.684 7.585 C 410.624 7.585 413.823 10.784 413.823 14.725 L 413.823 37.446 C 413.823 41.386 410.624 44.585 406.684 44.585 L 334.462 44.585 C 330.522 44.585 327.323 41.386 327.323 37.446 L 327.323 14.725 C 327.323 10.784 330.522 7.585 334.462 7.585 Z" style="fill:none;stroke:#000000;stroke-width:1.6855342301554246;stroke-linecap:square;stroke-miterlimit:3;"/><path d=" M 355.516 20.294 L 355.516 34.571 L 352.498 34.571 L 352.498 28.409 L 346.844 28.409 L 346.844 34.571 L 343.816 34.571 L 343.816 20.294 L 346.844 20.294 L 346.844 25.89 L 352.498 25.89 L 352.498 20.294 L 355.516 20.294 Z  M 367.342 32.071 L 367.342 34.571 L 359.119 34.571 L 359.119 20.294 L 367.342 20.294 L 367.342 22.774 L 362.146 22.774 L 362.146 25.909 L 366.98 25.909 L 366.98 28.39 L 362.146 28.39 L 362.146 32.071 L 367.342 32.071 Z  M 382.322 34.571 L 379.061 34.571 L 378.025 31.173 L 372.82 31.173 L 371.785 34.571 L 368.523 34.571 L 373.562 20.235 L 377.264 20.235 L 382.322 34.571 Z  M 373.582 28.634 L 377.303 28.634 L 377.303 28.634 Q 375.867 24.015 375.686 23.409 L 375.686 23.409 L 375.686 23.409 Q 375.506 22.804 375.428 22.452 L 375.428 22.452 L 375.428 22.452 Q 375.105 23.702 373.582 28.634 L 373.582 28.634 Z  M 395.965 27.296 L 395.965 27.296 L 395.965 27.296 Q 395.965 30.821 393.958 32.696 L 393.958 32.696 L 393.958 32.696 Q 391.951 34.571 388.162 34.571 L 388.162 34.571 L 384.119 34.571 L 384.119 20.294 L 388.602 20.294 L 388.602 20.294 Q 392.098 20.294 394.031 22.14 L 394.031 22.14 L 394.031 22.14 Q 395.965 23.985 395.965 27.296 Z  M 392.82 27.374 L 392.82 27.374 L 392.82 27.374 Q 392.82 22.774 388.758 22.774 L 388.758 22.774 L 387.146 22.774 L 387.146 32.071 L 388.445 32.071 L 388.445 32.071 Q 392.82 32.071 392.82 27.374 Z " fill-rule="evenodd" fill="rgb(0,0,0)"/></g><g id="c1"><path d=" M 158.744 110.793 C 158.744 98.536 168.695 88.585 180.951 88.585 C 193.208 88.585 203.159 98.536 203.159 110.793 C 203.159 123.049 193.208 133 180.951 133 C 168.695 133 158.744 123.049 158.744 110.793 Z " fill="rgb(195,215,247)" vector-effect="non-scaling-stroke" stroke-width="2" stroke="rgb(0,0,0)" stroke-linejoin="miter" stroke-linecap="square" stroke-miterlimit="3"/><path d=" M 182.383 103.052 L 182.383 120.115 L 179.09 120.115 L 179.09 107.025 L 174.777 108.572 L 174.777 105.736 L 182.207 103.052 L 182.383 103.052 Z " fill="rgb(0,0,0)"/></g><g id="c2"><path d=" M 221.951 110.793 C 221.951 98.536 231.902 88.585 244.159 88.585 C 256.415 88.585 266.366 98.536 266.366 110.793 C 266.366 123.049 256.415 133 244.159 133 C 231.902 133 221.951 123.049 221.951 110.793 Z " fill="rgb(195,215,247)" vector-effect="non-scaling-stroke" stroke-width="2" stroke="rgb(0,0,0)" stroke-linejoin="miter" stroke-linecap="square" stroke-miterlimit="3"/><path d=" M 248.766 117.502 L 248.766 120.115 L 237.129 120.115 L 237.129 117.888 L 242.649 111.959 L 242.649 111.959 Q 243.293 111.256 243.739 110.681 L 243.739 110.681 L 243.739 110.681 Q 244.184 110.107 244.459 109.633 L 244.459 109.633 L 244.459 109.633 Q 244.735 109.158 244.858 108.748 L 244.858 108.748 L 244.858 108.748 Q 244.981 108.338 244.981 107.951 L 244.981 107.951 L 244.981 107.951 Q 244.981 107.377 244.817 106.931 L 244.817 106.931 L 244.817 106.931 Q 244.653 106.486 244.354 106.175 L 244.354 106.175 L 244.354 106.175 Q 244.055 105.865 243.639 105.701 L 243.639 105.701 L 243.639 105.701 Q 243.223 105.537 242.719 105.537 L 242.719 105.537 L 242.719 105.537 Q 241.371 105.537 240.709 106.287 L 240.709 106.287 L 240.709 106.287 Q 240.047 107.037 240.047 108.384 L 240.047 108.384 L 236.778 108.384 L 236.778 108.384 Q 236.778 107.248 237.211 106.234 L 237.211 106.234 L 237.211 106.234 Q 237.645 105.22 238.436 104.459 L 238.436 104.459 L 238.436 104.459 Q 239.227 103.697 240.346 103.258 L 240.346 103.258 L 240.346 103.258 Q 241.465 102.818 242.825 102.818 L 242.825 102.818 L 242.825 102.818 Q 244.125 102.818 245.127 103.181 L 245.127 103.181 L 245.127 103.181 Q 246.129 103.545 246.803 104.201 L 246.803 104.201 L 246.803 104.201 Q 247.477 104.857 247.828 105.777 L 247.828 105.777 L 247.828 105.777 Q 248.18 106.697 248.18 107.81 L 248.18 107.81 L 248.18 107.81 Q 248.18 108.654 247.916 109.422 L 247.916 109.422 L 247.916 109.422 Q 247.653 110.189 247.166 110.939 L 247.166 110.939 L 247.166 110.939 Q 246.68 111.689 246 112.468 L 246 112.468 L 246 112.468 Q 245.321 113.248 244.489 114.103 L 244.489 114.103 L 241.278 117.502 L 248.766 117.502 Z " fill="rgb(0,0,0)"/></g><g id="C3"><path d=" M 285.159 110.793 C 285.159 98.536 295.109 88.585 307.366 88.585 C 319.622 88.585 329.573 98.536 329.573 110.793 C 329.573 123.049 319.622 133 307.366 133 C 295.109 133 285.159 123.049 285.159 110.793 Z " fill="rgb(195,215,247)" vector-effect="non-scaling-stroke" stroke-width="2" stroke="rgb(0,0,0)" stroke-linejoin="miter" stroke-linecap="square" stroke-miterlimit="3"/><path d=" M 304.098 112.685 L 304.098 110.154 L 305.868 110.154 L 305.868 110.154 Q 307.204 110.154 307.848 109.48 L 307.848 109.48 L 307.848 109.48 Q 308.493 108.806 308.493 107.717 L 308.493 107.717 L 308.493 107.717 Q 308.493 107.213 308.346 106.797 L 308.346 106.797 L 308.346 106.797 Q 308.2 106.381 307.907 106.082 L 307.907 106.082 L 307.907 106.082 Q 307.614 105.783 307.163 105.619 L 307.163 105.619 L 307.163 105.619 Q 306.712 105.455 306.114 105.455 L 306.114 105.455 L 306.114 105.455 Q 305.622 105.455 305.194 105.595 L 305.194 105.595 L 305.194 105.595 Q 304.766 105.736 304.444 106 L 304.444 106 L 304.444 106 Q 304.122 106.263 303.934 106.638 L 303.934 106.638 L 303.934 106.638 Q 303.747 107.013 303.747 107.482 L 303.747 107.482 L 300.489 107.482 L 300.489 107.482 Q 300.489 106.439 300.917 105.584 L 300.917 105.584 L 300.917 105.584 Q 301.344 104.728 302.094 104.113 L 302.094 104.113 L 302.094 104.113 Q 302.844 103.498 303.858 103.158 L 303.858 103.158 L 303.858 103.158 Q 304.872 102.818 306.044 102.818 L 306.044 102.818 L 306.044 102.818 Q 307.309 102.818 308.364 103.129 L 308.364 103.129 L 308.364 103.129 Q 309.419 103.439 310.169 104.054 L 310.169 104.054 L 310.169 104.054 Q 310.919 104.67 311.335 105.578 L 311.335 105.578 L 311.335 105.578 Q 311.751 106.486 311.751 107.681 L 311.751 107.681 L 311.751 107.681 Q 311.751 108.232 311.587 108.765 L 311.587 108.765 L 311.587 108.765 Q 311.423 109.299 311.106 109.779 L 311.106 109.779 L 311.106 109.779 Q 310.79 110.259 310.321 110.664 L 310.321 110.664 L 310.321 110.664 Q 309.852 111.068 309.243 111.361 L 309.243 111.361 L 309.243 111.361 Q 309.958 111.619 310.479 112.017 L 310.479 112.017 L 310.479 112.017 Q 311.001 112.416 311.34 112.925 L 311.34 112.925 L 311.34 112.925 Q 311.68 113.435 311.844 114.045 L 311.844 114.045 L 311.844 114.045 Q 312.008 114.654 312.008 115.334 L 312.008 115.334 L 312.008 115.334 Q 312.008 116.529 311.551 117.467 L 311.551 117.467 L 311.551 117.467 Q 311.094 118.404 310.298 119.043 L 310.298 119.043 L 310.298 119.043 Q 309.501 119.681 308.405 120.015 L 308.405 120.015 L 308.405 120.015 Q 307.309 120.349 306.044 120.349 L 306.044 120.349 L 306.044 120.349 Q 304.954 120.349 303.917 120.05 L 303.917 120.05 L 303.917 120.05 Q 302.88 119.752 302.071 119.148 L 302.071 119.148 L 302.071 119.148 Q 301.262 118.545 300.776 117.631 L 300.776 117.631 L 300.776 117.631 Q 300.29 116.717 300.29 115.474 L 300.29 115.474 L 303.548 115.474 L 303.548 115.474 Q 303.548 115.967 303.735 116.383 L 303.735 116.383 L 303.735 116.383 Q 303.923 116.799 304.268 117.097 L 304.268 117.097 L 304.268 117.097 Q 304.614 117.396 305.083 117.566 L 305.083 117.566 L 305.083 117.566 Q 305.551 117.736 306.114 117.736 L 306.114 117.736 L 306.114 117.736 Q 307.356 117.736 308.059 117.08 L 308.059 117.08 L 308.059 117.08 Q 308.762 116.424 308.762 115.299 L 308.762 115.299 L 308.762 115.299 Q 308.762 114.607 308.563 114.115 L 308.563 114.115 L 308.563 114.115 Q 308.364 113.623 307.983 113.306 L 307.983 113.306 L 307.983 113.306 Q 307.602 112.99 307.069 112.838 L 307.069 112.838 L 307.069 112.838 Q 306.536 112.685 305.868 112.685 L 305.868 112.685 L 304.098 112.685 Z " fill="rgb(0,0,0)"/></g><g id="C4"><path d=" M 348.366 110.793 C 348.366 98.536 358.317 88.585 370.573 88.585 C 382.83 88.585 392.781 98.536 392.781 110.793 C 392.781 123.049 382.83 133 370.573 133 C 358.317 133 348.366 123.049 348.366 110.793 Z " fill="rgb(195,215,247)" vector-effect="non-scaling-stroke" stroke-width="2" stroke="rgb(0,0,0)" stroke-linejoin="miter" stroke-linecap="square" stroke-miterlimit="3"/><path d=" M 373.54 103.052 L 373.54 113.775 L 375.52 113.775 L 375.52 116.412 L 373.54 116.412 L 373.54 120.115 L 370.282 120.115 L 370.282 116.412 L 363.192 116.412 L 363.063 114.373 L 370.235 103.052 L 373.54 103.052 Z  M 369.966 107.998 L 366.263 113.775 L 370.282 113.775 L 370.282 107.435 L 369.966 107.998 Z " fill-rule="evenodd" fill="rgb(0,0,0)"/></g><g id="C5"><path d=" M 311.337 169.793 C 311.337 157.536 321.288 147.585 333.545 147.585 C 345.801 147.585 355.752 157.536 355.752 169.793 C 355.752 182.049 345.801 192 333.545 192 C 321.288 192 311.337 182.049 311.337 169.793 Z " fill="rgb(209,209,209)" vector-effect="non-scaling-stroke" stroke-width="2" stroke="rgb(0,0,0)" stroke-linejoin="miter" stroke-linecap="square" stroke-miterlimit="3"/><path d=" M 329.762 171.357 L 327.16 170.713 L 328.133 162.052 L 337.601 162.052 L 337.601 164.818 L 330.816 164.818 L 330.406 168.568 L 330.406 168.568 Q 330.769 168.357 331.437 168.134 L 331.437 168.134 L 331.437 168.134 Q 332.105 167.912 332.972 167.912 L 332.972 167.912 L 332.972 167.912 Q 334.203 167.912 335.17 168.304 L 335.17 168.304 L 335.17 168.304 Q 336.137 168.697 336.799 169.435 L 336.799 169.435 L 336.799 169.435 Q 337.461 170.174 337.812 171.24 L 337.812 171.24 L 337.812 171.24 Q 338.164 172.306 338.164 173.654 L 338.164 173.654 L 338.164 173.654 Q 338.164 174.802 337.824 175.834 L 337.824 175.834 L 337.824 175.834 Q 337.484 176.865 336.781 177.65 L 336.781 177.65 L 336.781 177.65 Q 336.078 178.435 335.012 178.892 L 335.012 178.892 L 335.012 178.892 Q 333.945 179.349 332.492 179.349 L 332.492 179.349 L 332.492 179.349 Q 331.39 179.349 330.365 179.021 L 330.365 179.021 L 330.365 179.021 Q 329.34 178.693 328.543 178.06 L 328.543 178.06 L 328.543 178.06 Q 327.746 177.427 327.248 176.508 L 327.248 176.508 L 327.248 176.508 Q 326.75 175.588 326.715 174.404 L 326.715 174.404 L 329.926 174.404 L 329.926 174.404 Q 330.043 175.517 330.728 176.127 L 330.728 176.127 L 330.728 176.127 Q 331.414 176.736 332.48 176.736 L 332.48 176.736 L 332.48 176.736 Q 333.137 176.736 333.599 176.49 L 333.599 176.49 L 333.599 176.49 Q 334.062 176.244 334.349 175.81 L 334.349 175.81 L 334.349 175.81 Q 334.637 175.377 334.771 174.779 L 334.771 174.779 L 334.771 174.779 Q 334.906 174.181 334.906 173.49 L 334.906 173.49 L 334.906 173.49 Q 334.906 172.81 334.736 172.242 L 334.736 172.242 L 334.736 172.242 Q 334.566 171.674 334.215 171.263 L 334.215 171.263 L 334.215 171.263 Q 333.863 170.853 333.336 170.631 L 333.336 170.631 L 333.336 170.631 Q 332.808 170.408 332.094 170.408 L 332.094 170.408 L 332.094 170.408 Q 331.613 170.408 331.262 170.49 L 331.262 170.49 L 331.262 170.49 Q 330.91 170.572 330.64 170.701 L 330.64 170.701 L 330.64 170.701 Q 330.371 170.83 330.16 171 L 330.16 171 L 330.16 171 Q 329.949 171.17 329.762 171.357 L 329.762 171.357 Z " fill="rgb(0,0,0)"/></g><g id="C6"><path d=" M 372.951 169.793 C 372.951 157.536 382.902 147.585 395.159 147.585 C 407.415 147.585 417.366 157.536 417.366 169.793 C 417.366 182.049 407.415 192 395.159 192 C 382.902 192 372.951 182.049 372.951 169.793 Z " fill="rgb(209,209,209)" vector-effect="non-scaling-stroke" stroke-width="2" stroke="rgb(0,0,0)" stroke-linejoin="miter" stroke-linecap="square" stroke-miterlimit="3"/><path d=" M 396.825 161.912 L 397.258 161.912 L 397.258 164.619 L 397.071 164.619 L 397.071 164.619 Q 395.782 164.619 394.791 164.959 L 394.791 164.959 L 394.791 164.959 Q 393.801 165.299 393.104 165.92 L 393.104 165.92 L 393.104 165.92 Q 392.407 166.541 392.002 167.408 L 392.002 167.408 L 392.002 167.408 Q 391.598 168.275 391.493 169.342 L 391.493 169.342 L 391.493 169.342 Q 391.762 169.049 392.114 168.761 L 392.114 168.761 L 392.114 168.761 Q 392.465 168.474 392.905 168.246 L 392.905 168.246 L 392.905 168.246 Q 393.344 168.017 393.86 167.877 L 393.86 167.877 L 393.86 167.877 Q 394.375 167.736 394.973 167.736 L 394.973 167.736 L 394.973 167.736 Q 396.192 167.736 397.1 168.199 L 397.1 168.199 L 397.1 168.199 Q 398.008 168.662 398.618 169.453 L 398.618 169.453 L 398.618 169.453 Q 399.227 170.244 399.526 171.293 L 399.526 171.293 L 399.526 171.293 Q 399.825 172.342 399.825 173.502 L 399.825 173.502 L 399.825 173.502 Q 399.825 174.744 399.426 175.81 L 399.426 175.81 L 399.426 175.81 Q 399.028 176.877 398.289 177.662 L 398.289 177.662 L 398.289 177.662 Q 397.551 178.447 396.496 178.898 L 396.496 178.898 L 396.496 178.898 Q 395.442 179.349 394.129 179.349 L 394.129 179.349 L 394.129 179.349 Q 392.758 179.349 391.657 178.84 L 391.657 178.84 L 391.657 178.84 Q 390.555 178.33 389.787 177.427 L 389.787 177.427 L 389.787 177.427 Q 389.02 176.525 388.604 175.289 L 388.604 175.289 L 388.604 175.289 Q 388.188 174.052 388.188 172.588 L 388.188 172.588 L 388.188 171.334 L 388.188 171.334 Q 388.188 169.306 388.739 167.578 L 388.739 167.578 L 388.739 167.578 Q 389.289 165.849 390.379 164.59 L 390.379 164.59 L 390.379 164.59 Q 391.469 163.33 393.086 162.621 L 393.086 162.621 L 393.086 162.621 Q 394.703 161.912 396.825 161.912 L 396.825 161.912 Z  M 394.024 170.349 L 394.024 170.349 L 394.024 170.349 Q 393.145 170.349 392.471 170.818 L 392.471 170.818 L 392.471 170.818 Q 391.797 171.287 391.457 172.025 L 391.457 172.025 L 391.457 172.986 L 391.457 172.986 Q 391.457 173.924 391.651 174.627 L 391.651 174.627 L 391.651 174.627 Q 391.844 175.33 392.196 175.793 L 392.196 175.793 L 392.196 175.793 Q 392.547 176.256 393.028 176.49 L 393.028 176.49 L 393.028 176.49 Q 393.508 176.724 394.071 176.724 L 394.071 176.724 L 394.071 176.724 Q 394.645 176.724 395.114 176.484 L 395.114 176.484 L 395.114 176.484 Q 395.582 176.244 395.911 175.822 L 395.911 175.822 L 395.911 175.822 Q 396.239 175.4 396.414 174.82 L 396.414 174.82 L 396.414 174.82 Q 396.59 174.24 396.59 173.549 L 396.59 173.549 L 396.59 173.549 Q 396.59 172.857 396.414 172.271 L 396.414 172.271 L 396.414 172.271 Q 396.239 171.685 395.911 171.258 L 395.911 171.258 L 395.911 171.258 Q 395.582 170.83 395.108 170.59 L 395.108 170.59 L 395.108 170.59 Q 394.633 170.349 394.024 170.349 Z " fill-rule="evenodd" fill="rgb(0,0,0)"/></g><g id="C8"><path d=" M 434.565 169.793 C 434.565 157.536 444.516 147.585 456.772 147.585 C 469.029 147.585 478.98 157.536 478.98 169.793 C 478.98 182.049 469.029 192 456.772 192 C 444.516 192 434.565 182.049 434.565 169.793 Z " fill="rgb(209,209,209)" vector-effect="non-scaling-stroke" stroke-width="2" stroke="rgb(0,0,0)" stroke-linejoin="miter" stroke-linecap="square" stroke-miterlimit="3"/><path d=" M 461.368 162.052 L 461.368 163.869 L 454.724 179.115 L 451.29 179.115 L 457.946 164.713 L 449.38 164.713 L 449.38 162.052 L 461.368 162.052 Z " fill="rgb(0,0,0)"/></g><line x1="259" y1="314" x2="616.677" y2="314" vector-effect="non-scaling-stroke" stroke-width="2" stroke="rgb(0,0,0)" stroke-linejoin="miter" stroke-linecap="square" stroke-miterlimit="3"/><line x1="325.917" y1="402.793" x2="448.975" y2="402.793" vector-effect="non-scaling-stroke" stroke-width="2" stroke="rgb(0,0,0)" stroke-linejoin="miter" stroke-linecap="square" stroke-miterlimit="3"/><line x1="326.917" y1="402.793" x2="298.945" y2="322" vector-effect="non-scaling-stroke" stroke-width="2" stroke="rgb(0,0,0)" stroke-linejoin="miter" stroke-linecap="square" stroke-miterlimit="3"/><line x1="450.144" y1="402.793" x2="618" y2="313.793" vector-effect="non-scaling-stroke" stroke-width="2" stroke="rgb(0,0,0)" stroke-linejoin="miter" stroke-linecap="square" stroke-miterlimit="3"/><g id="Bmaster"><path d="M 573.621 247.585 L 658.269 247.585 C 662.506 247.585 665.945 251.025 665.945 255.261 L 665.945 276.909 C 665.945 281.146 662.506 284.585 658.269 284.585 L 573.621 284.585 C 569.385 284.585 565.945 281.146 565.945 276.909 L 565.945 255.261 C 565.945 251.025 569.385 247.585 573.621 247.585 Z" style="stroke:none;fill:#9FC4FF;stroke-linecap:square;stroke-miterlimit:3;"/><path d="M 573.621 247.585 L 658.269 247.585 C 662.506 247.585 665.945 251.025 665.945 255.261 L 665.945 276.909 C 665.945 281.146 662.506 284.585 658.269 284.585 L 573.621 284.585 C 569.385 284.585 565.945 281.146 565.945 276.909 L 565.945 255.261 C 565.945 251.025 569.385 247.585 573.621 247.585 Z" style="fill:none;stroke:#000000;stroke-width:1.6855342301554246;stroke-linecap:square;stroke-miterlimit:3;"/><path d=" M 591.163 267.866 L 591.163 273.344 L 588.184 273.344 L 588.184 266.967 L 588.184 266.967 Q 588.184 265.786 587.789 265.195 L 587.789 265.195 L 587.789 265.195 Q 587.393 264.604 586.544 264.604 L 586.544 264.604 L 586.544 264.604 Q 585.401 264.604 584.884 265.444 L 584.884 265.444 L 584.884 265.444 Q 584.366 266.284 584.366 268.207 L 584.366 268.207 L 584.366 273.344 L 581.388 273.344 L 581.388 262.426 L 583.663 262.426 L 584.063 263.823 L 584.229 263.823 L 584.229 263.823 Q 584.669 263.071 585.499 262.646 L 585.499 262.646 L 585.499 262.646 Q 586.329 262.221 587.403 262.221 L 587.403 262.221 L 587.403 262.221 Q 589.854 262.221 590.723 263.823 L 590.723 263.823 L 590.987 263.823 L 590.987 263.823 Q 591.427 263.061 592.281 262.641 L 592.281 262.641 L 592.281 262.641 Q 593.136 262.221 594.21 262.221 L 594.21 262.221 L 594.21 262.221 Q 596.065 262.221 597.017 263.173 L 597.017 263.173 L 597.017 263.173 Q 597.97 264.125 597.97 266.225 L 597.97 266.225 L 597.97 273.344 L 594.981 273.344 L 594.981 266.967 L 594.981 266.967 Q 594.981 265.786 594.586 265.195 L 594.586 265.195 L 594.586 265.195 Q 594.19 264.604 593.341 264.604 L 593.341 264.604 L 593.341 264.604 Q 592.247 264.604 591.705 265.385 L 591.705 265.385 L 591.705 265.385 Q 591.163 266.166 591.163 267.866 L 591.163 267.866 Z  M 610.04 273.344 L 607.96 273.344 L 607.384 271.86 L 607.306 271.86 L 607.306 271.86 Q 606.554 272.807 605.758 273.173 L 605.758 273.173 L 605.758 273.173 Q 604.962 273.539 603.682 273.539 L 603.682 273.539 L 603.682 273.539 Q 602.11 273.539 601.207 272.641 L 601.207 272.641 L 601.207 272.641 Q 600.304 271.743 600.304 270.082 L 600.304 270.082 L 600.304 270.082 Q 600.304 268.344 601.519 267.519 L 601.519 267.519 L 601.519 267.519 Q 602.735 266.694 605.186 266.606 L 605.186 266.606 L 607.081 266.547 L 607.081 266.069 L 607.081 266.069 Q 607.081 264.409 605.382 264.409 L 605.382 264.409 L 605.382 264.409 Q 604.073 264.409 602.306 265.2 L 602.306 265.2 L 601.319 263.188 L 601.319 263.188 Q 603.204 262.202 605.499 262.202 L 605.499 262.202 L 605.499 262.202 Q 607.696 262.202 608.868 263.159 L 608.868 263.159 L 608.868 263.159 Q 610.04 264.116 610.04 266.069 L 610.04 266.069 L 610.04 273.344 Z  M 607.081 269.184 L 607.081 268.286 L 605.929 268.325 L 605.929 268.325 Q 604.63 268.364 603.995 268.793 L 603.995 268.793 L 603.995 268.793 Q 603.36 269.223 603.36 270.102 L 603.36 270.102 L 603.36 270.102 Q 603.36 271.362 604.806 271.362 L 604.806 271.362 L 604.806 271.362 Q 605.841 271.362 606.461 270.766 L 606.461 270.766 L 606.461 270.766 Q 607.081 270.17 607.081 269.184 L 607.081 269.184 Z  M 620.723 270.102 L 620.723 270.102 L 620.723 270.102 Q 620.723 271.782 619.557 272.661 L 619.557 272.661 L 619.557 272.661 Q 618.39 273.539 616.065 273.539 L 616.065 273.539 L 616.065 273.539 Q 614.874 273.539 614.034 273.378 L 614.034 273.378 L 614.034 273.378 Q 613.194 273.217 612.462 272.905 L 612.462 272.905 L 612.462 270.444 L 612.462 270.444 Q 613.292 270.834 614.332 271.098 L 614.332 271.098 L 614.332 271.098 Q 615.372 271.362 616.163 271.362 L 616.163 271.362 L 616.163 271.362 Q 617.784 271.362 617.784 270.424 L 617.784 270.424 L 617.784 270.424 Q 617.784 270.073 617.569 269.853 L 617.569 269.853 L 617.569 269.853 Q 617.354 269.633 616.827 269.355 L 616.827 269.355 L 616.827 269.355 Q 616.3 269.077 615.421 268.705 L 615.421 268.705 L 615.421 268.705 Q 614.161 268.178 613.57 267.729 L 613.57 267.729 L 613.57 267.729 Q 612.979 267.28 612.711 266.699 L 612.711 266.699 L 612.711 266.699 Q 612.442 266.118 612.442 265.268 L 612.442 265.268 L 612.442 265.268 Q 612.442 263.813 613.57 263.017 L 613.57 263.017 L 613.57 263.017 Q 614.698 262.221 616.768 262.221 L 616.768 262.221 L 616.768 262.221 Q 618.741 262.221 620.606 263.08 L 620.606 263.08 L 619.708 265.229 L 619.708 265.229 Q 618.888 264.877 618.175 264.653 L 618.175 264.653 L 618.175 264.653 Q 617.462 264.428 616.72 264.428 L 616.72 264.428 L 616.72 264.428 Q 615.401 264.428 615.401 265.141 L 615.401 265.141 L 615.401 265.141 Q 615.401 265.541 615.826 265.834 L 615.826 265.834 L 615.826 265.834 Q 616.251 266.127 617.686 266.704 L 617.686 266.704 L 617.686 266.704 Q 618.966 267.221 619.561 267.67 L 619.561 267.67 L 619.561 267.67 Q 620.157 268.12 620.44 268.705 L 620.44 268.705 L 620.44 268.705 Q 620.723 269.291 620.723 270.102 Z  M 627.647 271.166 L 627.647 271.166 L 627.647 271.166 Q 628.429 271.166 629.522 270.825 L 629.522 270.825 L 629.522 273.041 L 629.522 273.041 Q 628.409 273.539 626.788 273.539 L 626.788 273.539 L 626.788 273.539 Q 625.001 273.539 624.185 272.636 L 624.185 272.636 L 624.185 272.636 Q 623.37 271.733 623.37 269.926 L 623.37 269.926 L 623.37 264.663 L 621.944 264.663 L 621.944 263.403 L 623.585 262.407 L 624.444 260.102 L 626.348 260.102 L 626.348 262.426 L 629.405 262.426 L 629.405 264.663 L 626.348 264.663 L 626.348 269.926 L 626.348 269.926 Q 626.348 270.561 626.705 270.864 L 626.705 270.864 L 626.705 270.864 Q 627.061 271.166 627.647 271.166 Z  M 636.251 264.34 L 636.251 264.34 L 636.251 264.34 Q 635.304 264.34 634.766 264.941 L 634.766 264.941 L 634.766 264.941 Q 634.229 265.541 634.151 266.645 L 634.151 266.645 L 638.331 266.645 L 638.331 266.645 Q 638.311 265.541 637.755 264.941 L 637.755 264.941 L 637.755 264.941 Q 637.198 264.34 636.251 264.34 Z  M 636.671 273.539 L 636.671 273.539 L 636.671 273.539 Q 634.034 273.539 632.55 272.084 L 632.55 272.084 L 632.55 272.084 Q 631.065 270.629 631.065 267.963 L 631.065 267.963 L 631.065 267.963 Q 631.065 265.219 632.437 263.72 L 632.437 263.72 L 632.437 263.72 Q 633.809 262.221 636.231 262.221 L 636.231 262.221 L 636.231 262.221 Q 638.546 262.221 639.835 263.539 L 639.835 263.539 L 639.835 263.539 Q 641.124 264.858 641.124 267.182 L 641.124 267.182 L 641.124 268.627 L 634.083 268.627 L 634.083 268.627 Q 634.132 269.897 634.835 270.61 L 634.835 270.61 L 634.835 270.61 Q 635.538 271.323 636.807 271.323 L 636.807 271.323 L 636.807 271.323 Q 637.794 271.323 638.673 271.118 L 638.673 271.118 L 638.673 271.118 Q 639.552 270.913 640.509 270.463 L 640.509 270.463 L 640.509 272.768 L 640.509 272.768 Q 639.727 273.159 638.839 273.349 L 638.839 273.349 L 638.839 273.349 Q 637.95 273.539 636.671 273.539 Z  M 649.64 262.221 L 649.64 262.221 L 649.64 262.221 Q 650.245 262.221 650.645 262.309 L 650.645 262.309 L 650.421 265.102 L 650.421 265.102 Q 650.059 265.004 649.542 265.004 L 649.542 265.004 L 649.542 265.004 Q 648.116 265.004 647.32 265.737 L 647.32 265.737 L 647.32 265.737 Q 646.524 266.469 646.524 267.788 L 646.524 267.788 L 646.524 273.344 L 643.546 273.344 L 643.546 262.426 L 645.802 262.426 L 646.241 264.262 L 646.388 264.262 L 646.388 264.262 Q 646.895 263.344 647.76 262.783 L 647.76 262.783 L 647.76 262.783 Q 648.624 262.221 649.64 262.221 Z " fill-rule="evenodd" fill="rgb(0,0,0)"/></g><g id="Bfeat1"><path d="M 405.82 336.293 L 490.468 336.293 C 494.705 336.293 498.144 339.732 498.144 343.969 L 498.144 365.617 C 498.144 369.853 494.705 373.293 490.468 373.293 L 405.82 373.293 C 401.584 373.293 398.144 369.853 398.144 365.617 L 398.144 343.969 C 398.144 339.732 401.584 336.293 405.82 336.293 Z" style="stroke:none;fill:#D1D1D1;stroke-linecap:square;stroke-miterlimit:3;"/><path d="M 405.82 336.293 L 490.468 336.293 C 494.705 336.293 498.144 339.732 498.144 343.969 L 498.144 365.617 C 498.144 369.853 494.705 373.293 490.468 373.293 L 405.82 373.293 C 401.584 373.293 398.144 369.853 398.144 365.617 L 398.144 343.969 C 398.144 339.732 401.584 336.293 405.82 336.293 Z" style="fill:none;stroke:#000000;stroke-width:1.6855342301554246;stroke-linecap:square;stroke-miterlimit:3;"/><path d=" M 428.373 351.633 L 428.373 353.87 L 425.795 353.87 L 425.795 362.551 L 422.816 362.551 L 422.816 353.87 L 421.176 353.87 L 421.176 352.434 L 422.816 351.633 L 422.816 350.833 L 422.816 350.833 Q 422.816 348.967 423.734 348.108 L 423.734 348.108 L 423.734 348.108 Q 424.652 347.249 426.674 347.249 L 426.674 347.249 L 426.674 347.249 Q 428.217 347.249 429.418 347.708 L 429.418 347.708 L 428.656 349.895 L 428.656 349.895 Q 427.758 349.612 426.996 349.612 L 426.996 349.612 L 426.996 349.612 Q 426.361 349.612 426.078 349.988 L 426.078 349.988 L 426.078 349.988 Q 425.795 350.364 425.795 350.95 L 425.795 350.95 L 425.795 351.633 L 428.373 351.633 Z  M 434.603 353.548 L 434.603 353.548 L 434.603 353.548 Q 433.656 353.548 433.119 354.148 L 433.119 354.148 L 433.119 354.148 Q 432.582 354.749 432.504 355.852 L 432.504 355.852 L 436.683 355.852 L 436.683 355.852 Q 436.664 354.749 436.107 354.148 L 436.107 354.148 L 436.107 354.148 Q 435.551 353.548 434.603 353.548 Z  M 435.023 362.747 L 435.023 362.747 L 435.023 362.747 Q 432.387 362.747 430.902 361.292 L 430.902 361.292 L 430.902 361.292 Q 429.418 359.837 429.418 357.171 L 429.418 357.171 L 429.418 357.171 Q 429.418 354.426 430.79 352.927 L 430.79 352.927 L 430.79 352.927 Q 432.162 351.428 434.584 351.428 L 434.584 351.428 L 434.584 351.428 Q 436.898 351.428 438.187 352.747 L 438.187 352.747 L 438.187 352.747 Q 439.476 354.065 439.476 356.389 L 439.476 356.389 L 439.476 357.835 L 432.435 357.835 L 432.435 357.835 Q 432.484 359.104 433.187 359.817 L 433.187 359.817 L 433.187 359.817 Q 433.89 360.53 435.16 360.53 L 435.16 360.53 L 435.16 360.53 Q 436.146 360.53 437.025 360.325 L 437.025 360.325 L 437.025 360.325 Q 437.904 360.12 438.861 359.671 L 438.861 359.671 L 438.861 361.975 L 438.861 361.975 Q 438.08 362.366 437.191 362.556 L 437.191 362.556 L 437.191 362.556 Q 436.303 362.747 435.023 362.747 Z  M 450.912 362.551 L 448.832 362.551 L 448.256 361.067 L 448.178 361.067 L 448.178 361.067 Q 447.426 362.014 446.63 362.381 L 446.63 362.381 L 446.63 362.381 Q 445.834 362.747 444.554 362.747 L 444.554 362.747 L 444.554 362.747 Q 442.982 362.747 442.079 361.848 L 442.079 361.848 L 442.079 361.848 Q 441.176 360.95 441.176 359.29 L 441.176 359.29 L 441.176 359.29 Q 441.176 357.551 442.391 356.726 L 442.391 356.726 L 442.391 356.726 Q 443.607 355.901 446.058 355.813 L 446.058 355.813 L 447.953 355.755 L 447.953 355.276 L 447.953 355.276 Q 447.953 353.616 446.254 353.616 L 446.254 353.616 L 446.254 353.616 Q 444.945 353.616 443.178 354.407 L 443.178 354.407 L 442.191 352.395 L 442.191 352.395 Q 444.076 351.409 446.371 351.409 L 446.371 351.409 L 446.371 351.409 Q 448.568 351.409 449.74 352.366 L 449.74 352.366 L 449.74 352.366 Q 450.912 353.323 450.912 355.276 L 450.912 355.276 L 450.912 362.551 Z  M 447.953 358.391 L 447.953 357.493 L 446.801 357.532 L 446.801 357.532 Q 445.502 357.571 444.867 358.001 L 444.867 358.001 L 444.867 358.001 Q 444.232 358.43 444.232 359.309 L 444.232 359.309 L 444.232 359.309 Q 444.232 360.569 445.678 360.569 L 445.678 360.569 L 445.678 360.569 Q 446.713 360.569 447.333 359.973 L 447.333 359.973 L 447.333 359.973 Q 447.953 359.378 447.953 358.391 L 447.953 358.391 Z  M 458.578 360.374 L 458.578 360.374 L 458.578 360.374 Q 459.359 360.374 460.453 360.032 L 460.453 360.032 L 460.453 362.249 L 460.453 362.249 Q 459.34 362.747 457.719 362.747 L 457.719 362.747 L 457.719 362.747 Q 455.931 362.747 455.116 361.843 L 455.116 361.843 L 455.116 361.843 Q 454.301 360.94 454.301 359.133 L 454.301 359.133 L 454.301 353.87 L 452.875 353.87 L 452.875 352.61 L 454.515 351.614 L 455.375 349.309 L 457.279 349.309 L 457.279 351.633 L 460.336 351.633 L 460.336 353.87 L 457.279 353.87 L 457.279 359.133 L 457.279 359.133 Q 457.279 359.768 457.636 360.071 L 457.636 360.071 L 457.636 360.071 Q 457.992 360.374 458.578 360.374 Z  M 469.359 348.274 L 469.359 362.551 L 466.342 362.551 L 466.342 354.29 L 466.371 352.932 L 466.42 351.448 L 466.42 351.448 Q 465.668 352.2 465.375 352.434 L 465.375 352.434 L 463.734 353.753 L 462.279 351.936 L 466.879 348.274 L 469.359 348.274 Z " fill-rule="evenodd" fill="rgb(0,0,0)"/></g><g id="Bhead"><path d="M 579.834 210.585 L 652.056 210.585 C 655.996 210.585 659.195 213.784 659.195 217.725 L 659.195 240.446 C 659.195 244.386 655.996 247.585 652.056 247.585 L 579.834 247.585 C 575.894 247.585 572.695 244.386 572.695 240.446 L 572.695 217.725 C 572.695 213.784 575.894 210.585 579.834 210.585 Z" style="stroke:none;fill:#FFF3A5;stroke-linecap:square;stroke-miterlimit:3;"/><path d="M 579.834 210.585 L 652.056 210.585 C 655.996 210.585 659.195 213.784 659.195 217.725 L 659.195 240.446 C 659.195 244.386 655.996 247.585 652.056 247.585 L 579.834 247.585 C 575.894 247.585 572.695 244.386 572.695 240.446 L 572.695 217.725 C 572.695 213.784 575.894 210.585 579.834 210.585 Z" style="fill:none;stroke:#000000;stroke-width:1.6855342301554246;stroke-linecap:square;stroke-miterlimit:3;"/><path d=" M 600.888 223.294 L 600.888 237.571 L 597.87 237.571 L 597.87 231.409 L 592.216 231.409 L 592.216 237.571 L 589.188 237.571 L 589.188 223.294 L 592.216 223.294 L 592.216 228.89 L 597.87 228.89 L 597.87 223.294 L 600.888 223.294 Z  M 612.714 235.071 L 612.714 237.571 L 604.491 237.571 L 604.491 223.294 L 612.714 223.294 L 612.714 225.774 L 607.518 225.774 L 607.518 228.909 L 612.352 228.909 L 612.352 231.39 L 607.518 231.39 L 607.518 235.071 L 612.714 235.071 Z  M 627.694 237.571 L 624.432 237.571 L 623.397 234.173 L 618.192 234.173 L 617.157 237.571 L 613.895 237.571 L 618.934 223.235 L 622.636 223.235 L 627.694 237.571 Z  M 618.954 231.634 L 622.675 231.634 L 622.675 231.634 Q 621.239 227.015 621.058 226.409 L 621.058 226.409 L 621.058 226.409 Q 620.878 225.804 620.8 225.452 L 620.8 225.452 L 620.8 225.452 Q 620.477 226.702 618.954 231.634 L 618.954 231.634 Z  M 641.337 230.296 L 641.337 230.296 L 641.337 230.296 Q 641.337 233.821 639.33 235.696 L 639.33 235.696 L 639.33 235.696 Q 637.323 237.571 633.534 237.571 L 633.534 237.571 L 629.491 237.571 L 629.491 223.294 L 633.973 223.294 L 633.973 223.294 Q 637.47 223.294 639.403 225.14 L 639.403 225.14 L 639.403 225.14 Q 641.337 226.985 641.337 230.296 Z  M 638.192 230.374 L 638.192 230.374 L 638.192 230.374 Q 638.192 225.774 634.13 225.774 L 634.13 225.774 L 632.518 225.774 L 632.518 235.071 L 633.817 235.071 L 633.817 235.071 Q 638.192 235.071 638.192 230.374 Z " fill-rule="evenodd" fill="rgb(0,0,0)"/></g><g id="c1"><path d=" M 152.116 313.793 C 152.116 301.536 162.067 291.585 174.323 291.585 C 186.58 291.585 196.531 301.536 196.531 313.793 C 196.531 326.049 186.58 336 174.323 336 C 162.067 336 152.116 326.049 152.116 313.793 Z " fill="rgb(195,215,247)" vector-effect="non-scaling-stroke" stroke-width="2" stroke="rgb(0,0,0)" stroke-linejoin="miter" stroke-linecap="square" stroke-miterlimit="3"/><path d=" M 175.755 306.052 L 175.755 323.115 L 172.462 323.115 L 172.462 310.025 L 168.149 311.572 L 168.149 308.736 L 175.579 306.052 L 175.755 306.052 Z " fill="rgb(0,0,0)"/></g><g id="c2"><path d=" M 215.323 313.793 C 215.323 301.536 225.274 291.585 237.531 291.585 C 249.787 291.585 259.738 301.536 259.738 313.793 C 259.738 326.049 249.787 336 237.531 336 C 225.274 336 215.323 326.049 215.323 313.793 Z " fill="rgb(195,215,247)" vector-effect="non-scaling-stroke" stroke-width="2" stroke="rgb(0,0,0)" stroke-linejoin="miter" stroke-linecap="square" stroke-miterlimit="3"/><path d=" M 242.138 320.502 L 242.138 323.115 L 230.501 323.115 L 230.501 320.888 L 236.021 314.959 L 236.021 314.959 Q 236.665 314.256 237.111 313.681 L 237.111 313.681 L 237.111 313.681 Q 237.556 313.107 237.831 312.633 L 237.831 312.633 L 237.831 312.633 Q 238.107 312.158 238.23 311.748 L 238.23 311.748 L 238.23 311.748 Q 238.353 311.338 238.353 310.951 L 238.353 310.951 L 238.353 310.951 Q 238.353 310.377 238.189 309.931 L 238.189 309.931 L 238.189 309.931 Q 238.025 309.486 237.726 309.175 L 237.726 309.175 L 237.726 309.175 Q 237.427 308.865 237.011 308.701 L 237.011 308.701 L 237.011 308.701 Q 236.595 308.537 236.091 308.537 L 236.091 308.537 L 236.091 308.537 Q 234.743 308.537 234.081 309.287 L 234.081 309.287 L 234.081 309.287 Q 233.419 310.037 233.419 311.384 L 233.419 311.384 L 230.15 311.384 L 230.15 311.384 Q 230.15 310.248 230.583 309.234 L 230.583 309.234 L 230.583 309.234 Q 231.017 308.22 231.808 307.459 L 231.808 307.459 L 231.808 307.459 Q 232.599 306.697 233.718 306.258 L 233.718 306.258 L 233.718 306.258 Q 234.837 305.818 236.197 305.818 L 236.197 305.818 L 236.197 305.818 Q 237.497 305.818 238.499 306.181 L 238.499 306.181 L 238.499 306.181 Q 239.501 306.545 240.175 307.201 L 240.175 307.201 L 240.175 307.201 Q 240.849 307.857 241.2 308.777 L 241.2 308.777 L 241.2 308.777 Q 241.552 309.697 241.552 310.81 L 241.552 310.81 L 241.552 310.81 Q 241.552 311.654 241.288 312.422 L 241.288 312.422 L 241.288 312.422 Q 241.025 313.189 240.538 313.939 L 240.538 313.939 L 240.538 313.939 Q 240.052 314.689 239.372 315.468 L 239.372 315.468 L 239.372 315.468 Q 238.693 316.248 237.861 317.103 L 237.861 317.103 L 234.65 320.502 L 242.138 320.502 Z " fill="rgb(0,0,0)"/></g><g id="C3"><path d=" M 278.531 313.793 C 278.531 301.536 288.481 291.585 300.738 291.585 C 312.994 291.585 322.945 301.536 322.945 313.793 C 322.945 326.049 312.994 336 300.738 336 C 288.481 336 278.531 326.049 278.531 313.793 Z " fill="rgb(195,215,247)" vector-effect="non-scaling-stroke" stroke-width="2" stroke="rgb(0,0,0)" stroke-linejoin="miter" stroke-linecap="square" stroke-miterlimit="3"/><path d=" M 297.47 315.685 L 297.47 313.154 L 299.24 313.154 L 299.24 313.154 Q 300.576 313.154 301.22 312.48 L 301.22 312.48 L 301.22 312.48 Q 301.865 311.806 301.865 310.717 L 301.865 310.717 L 301.865 310.717 Q 301.865 310.213 301.718 309.797 L 301.718 309.797 L 301.718 309.797 Q 301.572 309.381 301.279 309.082 L 301.279 309.082 L 301.279 309.082 Q 300.986 308.783 300.535 308.619 L 300.535 308.619 L 300.535 308.619 Q 300.084 308.455 299.486 308.455 L 299.486 308.455 L 299.486 308.455 Q 298.994 308.455 298.566 308.595 L 298.566 308.595 L 298.566 308.595 Q 298.138 308.736 297.816 309 L 297.816 309 L 297.816 309 Q 297.494 309.263 297.306 309.638 L 297.306 309.638 L 297.306 309.638 Q 297.119 310.013 297.119 310.482 L 297.119 310.482 L 293.861 310.482 L 293.861 310.482 Q 293.861 309.439 294.289 308.584 L 294.289 308.584 L 294.289 308.584 Q 294.716 307.728 295.466 307.113 L 295.466 307.113 L 295.466 307.113 Q 296.216 306.498 297.23 306.158 L 297.23 306.158 L 297.23 306.158 Q 298.244 305.818 299.416 305.818 L 299.416 305.818 L 299.416 305.818 Q 300.681 305.818 301.736 306.129 L 301.736 306.129 L 301.736 306.129 Q 302.791 306.439 303.541 307.054 L 303.541 307.054 L 303.541 307.054 Q 304.291 307.67 304.707 308.578 L 304.707 308.578 L 304.707 308.578 Q 305.123 309.486 305.123 310.681 L 305.123 310.681 L 305.123 310.681 Q 305.123 311.232 304.959 311.765 L 304.959 311.765 L 304.959 311.765 Q 304.794 312.299 304.478 312.779 L 304.478 312.779 L 304.478 312.779 Q 304.162 313.259 303.693 313.664 L 303.693 313.664 L 303.693 313.664 Q 303.224 314.068 302.615 314.361 L 302.615 314.361 L 302.615 314.361 Q 303.33 314.619 303.851 315.017 L 303.851 315.017 L 303.851 315.017 Q 304.373 315.416 304.712 315.925 L 304.712 315.925 L 304.712 315.925 Q 305.052 316.435 305.216 317.045 L 305.216 317.045 L 305.216 317.045 Q 305.38 317.654 305.38 318.334 L 305.38 318.334 L 305.38 318.334 Q 305.38 319.529 304.923 320.467 L 304.923 320.467 L 304.923 320.467 Q 304.466 321.404 303.669 322.043 L 303.669 322.043 L 303.669 322.043 Q 302.873 322.681 301.777 323.015 L 301.777 323.015 L 301.777 323.015 Q 300.681 323.349 299.416 323.349 L 299.416 323.349 L 299.416 323.349 Q 298.326 323.349 297.289 323.05 L 297.289 323.05 L 297.289 323.05 Q 296.252 322.752 295.443 322.148 L 295.443 322.148 L 295.443 322.148 Q 294.634 321.545 294.148 320.631 L 294.148 320.631 L 294.148 320.631 Q 293.662 319.717 293.662 318.474 L 293.662 318.474 L 296.919 318.474 L 296.919 318.474 Q 296.919 318.967 297.107 319.383 L 297.107 319.383 L 297.107 319.383 Q 297.294 319.799 297.64 320.097 L 297.64 320.097 L 297.64 320.097 Q 297.986 320.396 298.455 320.566 L 298.455 320.566 L 298.455 320.566 Q 298.923 320.736 299.486 320.736 L 299.486 320.736 L 299.486 320.736 Q 300.728 320.736 301.431 320.08 L 301.431 320.08 L 301.431 320.08 Q 302.134 319.424 302.134 318.299 L 302.134 318.299 L 302.134 318.299 Q 302.134 317.607 301.935 317.115 L 301.935 317.115 L 301.935 317.115 Q 301.736 316.623 301.355 316.306 L 301.355 316.306 L 301.355 316.306 Q 300.974 315.99 300.441 315.838 L 300.441 315.838 L 300.441 315.838 Q 299.908 315.685 299.24 315.685 L 299.24 315.685 L 297.47 315.685 Z " fill="rgb(0,0,0)"/></g><g id="C4"><path d=" M 341.738 313.793 C 341.738 301.536 351.689 291.585 363.945 291.585 C 376.202 291.585 386.152 301.536 386.152 313.793 C 386.152 326.049 376.202 336 363.945 336 C 351.689 336 341.738 326.049 341.738 313.793 Z " fill="rgb(195,215,247)" vector-effect="non-scaling-stroke" stroke-width="2" stroke="rgb(0,0,0)" stroke-linejoin="miter" stroke-linecap="square" stroke-miterlimit="3"/><path d=" M 366.912 306.052 L 366.912 316.775 L 368.892 316.775 L 368.892 319.412 L 366.912 319.412 L 366.912 323.115 L 363.654 323.115 L 363.654 319.412 L 356.564 319.412 L 356.435 317.373 L 363.607 306.052 L 366.912 306.052 Z  M 363.338 310.998 L 359.635 316.775 L 363.654 316.775 L 363.654 310.435 L 363.338 310.998 Z " fill-rule="evenodd" fill="rgb(0,0,0)"/></g><g id="C4"><path d=" M 594.159 313.793 C 594.159 301.536 604.109 291.585 616.366 291.585 C 628.622 291.585 638.573 301.536 638.573 313.793 C 638.573 326.049 628.622 336 616.366 336 C 604.109 336 594.159 326.049 594.159 313.793 Z " fill="rgb(195,215,247)" vector-effect="non-scaling-stroke" stroke-width="2" stroke="rgb(0,0,0)" stroke-linejoin="miter" stroke-linecap="square" stroke-miterlimit="3"/><path d=" M 620.528 310.588 L 620.528 310.588 L 620.528 310.588 Q 620.528 311.83 619.901 312.797 L 619.901 312.797 L 619.901 312.797 Q 619.274 313.763 618.184 314.338 L 618.184 314.338 L 618.184 314.338 Q 619.426 314.924 620.159 315.978 L 620.159 315.978 L 620.159 315.978 Q 620.891 317.033 620.891 318.451 L 620.891 318.451 L 620.891 318.451 Q 620.891 319.658 620.452 320.572 L 620.452 320.572 L 620.452 320.572 Q 620.012 321.486 619.245 322.101 L 619.245 322.101 L 619.245 322.101 Q 618.477 322.717 617.434 323.033 L 617.434 323.033 L 617.434 323.033 Q 616.391 323.349 615.184 323.349 L 615.184 323.349 L 615.184 323.349 Q 613.965 323.349 612.917 323.033 L 612.917 323.033 L 612.917 323.033 Q 611.868 322.717 611.094 322.101 L 611.094 322.101 L 611.094 322.101 Q 610.321 321.486 609.882 320.572 L 609.882 320.572 L 609.882 320.572 Q 609.442 319.658 609.442 318.451 L 609.442 318.451 L 609.442 318.451 Q 609.442 317.748 609.635 317.121 L 609.635 317.121 L 609.635 317.121 Q 609.829 316.494 610.18 315.972 L 610.18 315.972 L 610.18 315.972 Q 610.532 315.451 611.03 315.035 L 611.03 315.035 L 611.03 315.035 Q 611.528 314.619 612.149 314.326 L 612.149 314.326 L 612.149 314.326 Q 611.059 313.763 610.438 312.797 L 610.438 312.797 L 610.438 312.797 Q 609.817 311.83 609.817 310.588 L 609.817 310.588 L 609.817 310.588 Q 609.817 309.427 610.215 308.543 L 610.215 308.543 L 610.215 308.543 Q 610.614 307.658 611.323 307.049 L 611.323 307.049 L 611.323 307.049 Q 612.032 306.439 613.01 306.129 L 613.01 306.129 L 613.01 306.129 Q 613.989 305.818 615.149 305.818 L 615.149 305.818 L 615.149 305.818 Q 616.309 305.818 617.294 306.129 L 617.294 306.129 L 617.294 306.129 Q 618.278 306.439 618.999 307.049 L 618.999 307.049 L 618.999 307.049 Q 619.719 307.658 620.124 308.543 L 620.124 308.543 L 620.124 308.543 Q 620.528 309.427 620.528 310.588 Z  M 617.622 318.228 L 617.622 318.228 L 617.622 318.228 Q 617.622 317.642 617.446 317.174 L 617.446 317.174 L 617.446 317.174 Q 617.27 316.705 616.948 316.371 L 616.948 316.371 L 616.948 316.371 Q 616.626 316.037 616.174 315.861 L 616.174 315.861 L 616.174 315.861 Q 615.723 315.685 615.161 315.685 L 615.161 315.685 L 615.161 315.685 Q 614.598 315.685 614.147 315.861 L 614.147 315.861 L 614.147 315.861 Q 613.696 316.037 613.38 316.371 L 613.38 316.371 L 613.38 316.371 Q 613.063 316.705 612.887 317.174 L 612.887 317.174 L 612.887 317.174 Q 612.712 317.642 612.712 318.228 L 612.712 318.228 L 612.712 318.228 Q 612.712 319.4 613.38 320.068 L 613.38 320.068 L 613.38 320.068 Q 614.048 320.736 615.184 320.736 L 615.184 320.736 L 615.184 320.736 Q 615.723 320.736 616.169 320.566 L 616.169 320.566 L 616.169 320.566 Q 616.614 320.396 616.936 320.068 L 616.936 320.068 L 616.936 320.068 Q 617.258 319.74 617.44 319.277 L 617.44 319.277 L 617.44 319.277 Q 617.622 318.814 617.622 318.228 Z  M 617.282 310.74 L 617.282 310.74 L 617.282 310.74 Q 617.282 310.224 617.13 309.802 L 617.13 309.802 L 617.13 309.802 Q 616.977 309.381 616.702 309.082 L 616.702 309.082 L 616.702 309.082 Q 616.426 308.783 616.034 308.619 L 616.034 308.619 L 616.034 308.619 Q 615.641 308.455 615.149 308.455 L 615.149 308.455 L 615.149 308.455 Q 614.153 308.455 613.614 309.064 L 613.614 309.064 L 613.614 309.064 Q 613.075 309.674 613.075 310.74 L 613.075 310.74 L 613.075 310.74 Q 613.075 311.256 613.215 311.683 L 613.215 311.683 L 613.215 311.683 Q 613.356 312.111 613.632 312.416 L 613.632 312.416 L 613.632 312.416 Q 613.907 312.72 614.299 312.89 L 614.299 312.89 L 614.299 312.89 Q 614.692 313.06 615.184 313.06 L 615.184 313.06 L 615.184 313.06 Q 615.676 313.06 616.063 312.89 L 616.063 312.89 L 616.063 312.89 Q 616.45 312.72 616.719 312.416 L 616.719 312.416 L 616.719 312.416 Q 616.989 312.111 617.135 311.683 L 617.135 311.683 L 617.135 311.683 Q 617.282 311.256 617.282 310.74 Z " fill-rule="evenodd" fill="rgb(0,0,0)"/></g><g id="C5"><path d=" M 304.709 402.793 C 304.709 390.536 314.66 380.585 326.917 380.585 C 339.173 380.585 349.124 390.536 349.124 402.793 C 349.124 415.049 339.173 425 326.917 425 C 314.66 425 304.709 415.049 304.709 402.793 Z " fill="rgb(209,209,209)" vector-effect="non-scaling-stroke" stroke-width="2" stroke="rgb(0,0,0)" stroke-linejoin="miter" stroke-linecap="square" stroke-miterlimit="3"/><path d=" M 323.134 404.357 L 320.532 403.713 L 321.505 395.052 L 330.973 395.052 L 330.973 397.818 L 324.188 397.818 L 323.778 401.568 L 323.778 401.568 Q 324.141 401.357 324.809 401.134 L 324.809 401.134 L 324.809 401.134 Q 325.477 400.912 326.344 400.912 L 326.344 400.912 L 326.344 400.912 Q 327.575 400.912 328.542 401.304 L 328.542 401.304 L 328.542 401.304 Q 329.509 401.697 330.171 402.435 L 330.171 402.435 L 330.171 402.435 Q 330.833 403.174 331.184 404.24 L 331.184 404.24 L 331.184 404.24 Q 331.536 405.306 331.536 406.654 L 331.536 406.654 L 331.536 406.654 Q 331.536 407.802 331.196 408.834 L 331.196 408.834 L 331.196 408.834 Q 330.856 409.865 330.153 410.65 L 330.153 410.65 L 330.153 410.65 Q 329.45 411.435 328.384 411.892 L 328.384 411.892 L 328.384 411.892 Q 327.317 412.349 325.864 412.349 L 325.864 412.349 L 325.864 412.349 Q 324.762 412.349 323.737 412.021 L 323.737 412.021 L 323.737 412.021 Q 322.712 411.693 321.915 411.06 L 321.915 411.06 L 321.915 411.06 Q 321.118 410.427 320.62 409.508 L 320.62 409.508 L 320.62 409.508 Q 320.122 408.588 320.087 407.404 L 320.087 407.404 L 323.298 407.404 L 323.298 407.404 Q 323.415 408.517 324.1 409.127 L 324.1 409.127 L 324.1 409.127 Q 324.786 409.736 325.852 409.736 L 325.852 409.736 L 325.852 409.736 Q 326.509 409.736 326.971 409.49 L 326.971 409.49 L 326.971 409.49 Q 327.434 409.244 327.721 408.81 L 327.721 408.81 L 327.721 408.81 Q 328.009 408.377 328.143 407.779 L 328.143 407.779 L 328.143 407.779 Q 328.278 407.181 328.278 406.49 L 328.278 406.49 L 328.278 406.49 Q 328.278 405.81 328.108 405.242 L 328.108 405.242 L 328.108 405.242 Q 327.938 404.674 327.587 404.263 L 327.587 404.263 L 327.587 404.263 Q 327.235 403.853 326.708 403.631 L 326.708 403.631 L 326.708 403.631 Q 326.18 403.408 325.466 403.408 L 325.466 403.408 L 325.466 403.408 Q 324.985 403.408 324.634 403.49 L 324.634 403.49 L 324.634 403.49 Q 324.282 403.572 324.012 403.701 L 324.012 403.701 L 324.012 403.701 Q 323.743 403.83 323.532 404 L 323.532 404 L 323.532 404 Q 323.321 404.17 323.134 404.357 L 323.134 404.357 Z " fill="rgb(0,0,0)"/></g><g id="C6"><path d=" M 366.323 402.793 C 366.323 390.536 376.274 380.585 388.531 380.585 C 400.787 380.585 410.738 390.536 410.738 402.793 C 410.738 415.049 400.787 425 388.531 425 C 376.274 425 366.323 415.049 366.323 402.793 Z " fill="rgb(209,209,209)" vector-effect="non-scaling-stroke" stroke-width="2" stroke="rgb(0,0,0)" stroke-linejoin="miter" stroke-linecap="square" stroke-miterlimit="3"/><path d=" M 390.197 394.912 L 390.63 394.912 L 390.63 397.619 L 390.443 397.619 L 390.443 397.619 Q 389.154 397.619 388.163 397.959 L 388.163 397.959 L 388.163 397.959 Q 387.173 398.299 386.476 398.92 L 386.476 398.92 L 386.476 398.92 Q 385.779 399.541 385.374 400.408 L 385.374 400.408 L 385.374 400.408 Q 384.97 401.275 384.865 402.342 L 384.865 402.342 L 384.865 402.342 Q 385.134 402.049 385.486 401.761 L 385.486 401.761 L 385.486 401.761 Q 385.837 401.474 386.277 401.246 L 386.277 401.246 L 386.277 401.246 Q 386.716 401.017 387.232 400.877 L 387.232 400.877 L 387.232 400.877 Q 387.747 400.736 388.345 400.736 L 388.345 400.736 L 388.345 400.736 Q 389.564 400.736 390.472 401.199 L 390.472 401.199 L 390.472 401.199 Q 391.38 401.662 391.99 402.453 L 391.99 402.453 L 391.99 402.453 Q 392.599 403.244 392.898 404.293 L 392.898 404.293 L 392.898 404.293 Q 393.197 405.342 393.197 406.502 L 393.197 406.502 L 393.197 406.502 Q 393.197 407.744 392.798 408.81 L 392.798 408.81 L 392.798 408.81 Q 392.4 409.877 391.661 410.662 L 391.661 410.662 L 391.661 410.662 Q 390.923 411.447 389.868 411.898 L 389.868 411.898 L 389.868 411.898 Q 388.814 412.349 387.501 412.349 L 387.501 412.349 L 387.501 412.349 Q 386.13 412.349 385.029 411.84 L 385.029 411.84 L 385.029 411.84 Q 383.927 411.33 383.159 410.427 L 383.159 410.427 L 383.159 410.427 Q 382.392 409.525 381.976 408.289 L 381.976 408.289 L 381.976 408.289 Q 381.56 407.052 381.56 405.588 L 381.56 405.588 L 381.56 404.334 L 381.56 404.334 Q 381.56 402.306 382.111 400.578 L 382.111 400.578 L 382.111 400.578 Q 382.661 398.849 383.751 397.59 L 383.751 397.59 L 383.751 397.59 Q 384.841 396.33 386.458 395.621 L 386.458 395.621 L 386.458 395.621 Q 388.075 394.912 390.197 394.912 L 390.197 394.912 Z  M 387.396 403.349 L 387.396 403.349 L 387.396 403.349 Q 386.517 403.349 385.843 403.818 L 385.843 403.818 L 385.843 403.818 Q 385.169 404.287 384.829 405.025 L 384.829 405.025 L 384.829 405.986 L 384.829 405.986 Q 384.829 406.924 385.023 407.627 L 385.023 407.627 L 385.023 407.627 Q 385.216 408.33 385.568 408.793 L 385.568 408.793 L 385.568 408.793 Q 385.919 409.256 386.4 409.49 L 386.4 409.49 L 386.4 409.49 Q 386.88 409.724 387.443 409.724 L 387.443 409.724 L 387.443 409.724 Q 388.017 409.724 388.486 409.484 L 388.486 409.484 L 388.486 409.484 Q 388.954 409.244 389.282 408.822 L 389.282 408.822 L 389.282 408.822 Q 389.611 408.4 389.786 407.82 L 389.786 407.82 L 389.786 407.82 Q 389.962 407.24 389.962 406.549 L 389.962 406.549 L 389.962 406.549 Q 389.962 405.857 389.786 405.271 L 389.786 405.271 L 389.786 405.271 Q 389.611 404.685 389.282 404.258 L 389.282 404.258 L 389.282 404.258 Q 388.954 403.83 388.48 403.59 L 388.48 403.59 L 388.48 403.59 Q 388.005 403.349 387.396 403.349 Z " fill-rule="evenodd" fill="rgb(0,0,0)"/></g><g id="C8"><path d=" M 427.937 402.793 C 427.937 390.536 437.888 380.585 450.144 380.585 C 462.401 380.585 472.352 390.536 472.352 402.793 C 472.352 415.049 462.401 425 450.144 425 C 437.888 425 427.937 415.049 427.937 402.793 Z " fill="rgb(209,209,209)" vector-effect="non-scaling-stroke" stroke-width="2" stroke="rgb(0,0,0)" stroke-linejoin="miter" stroke-linecap="square" stroke-miterlimit="3"/><path d=" M 454.74 395.052 L 454.74 396.869 L 448.096 412.115 L 444.662 412.115 L 451.318 397.713 L 442.752 397.713 L 442.752 395.052 L 454.74 395.052 Z " fill="rgb(0,0,0)"/></g><line x1="48" y1="204" x2="751" y2="204" vector-effect="non-scaling-stroke" stroke-width="3" stroke="rgb(0,0,0)" stroke-linejoin="miter" stroke-linecap="square" stroke-miterlimit="3"/></g></svg>