<?xml version="1.0" standalone="no"?><!-- Generator: Gravit.io --><svg xmlns="http://www.w3.org/2000/svg" xmlns:xlink="http://www.w3.org/1999/xlink" style="isolation:isolate" viewBox="0 0 800 470" width="800" height="470"><defs><clipPath id="_clipPath_yADIgUErQSxAz6wnwyawFaxHNGe7Q4zf"><rect width="800" height="470"/></clipPath></defs><g clip-path="url(#_clipPath_yADIgUErQSxAz6wnwyawFaxHNGe7Q4zf)"><line x1="104.207" y1="81.138" x2="295" y2="81.138" vector-effect="non-scaling-stroke" stroke-width="2" stroke="rgb(0,0,0)" stroke-linejoin="miter" stroke-linecap="square" stroke-miterlimit="3"/><line x1="255.801" y1="140.138" x2="408.451" y2="140.138" vector-effect="non-scaling-stroke" stroke-width="2" stroke="rgb(0,0,0)" stroke-linejoin="miter" stroke-linecap="square" stroke-miterlimit="3"/><line x1="376" y1="195.896" x2="517.762" y2="195.896" vector-effect="non-scaling-stroke" stroke-width="2" stroke="rgb(0,0,0)" stroke-linejoin="miter" stroke-linecap="square" stroke-miterlimit="3"/><line x1="256.801" y1="140.138" x2="228.829" y2="81.138" vector-effect="non-scaling-stroke" stroke-width="2" stroke="rgb(0,0,0)" stroke-linejoin="miter" stroke-linecap="square" stroke-miterlimit="3"/><line x1="365.118" y1="190.896" x2="333.323" y2="139.189" vector-effect="non-scaling-stroke" stroke-width="2" stroke="rgb(0,0,0)" stroke-linejoin="miter" stroke-linecap="square" stroke-miterlimit="3"/><g id="Bmaster"><path d="M 251.505 15.931 L 336.153 15.931 C 340.39 15.931 343.829 19.37 343.829 23.607 L 343.829 45.255 C 343.829 49.491 340.39 52.931 336.153 52.931 L 251.505 52.931 C 247.269 52.931 243.829 49.491 243.829 45.255 L 243.829 23.607 C 243.829 19.37 247.269 15.931 251.505 15.931 Z" style="stroke:none;fill:#9FC4FF;stroke-miterlimit:10;"/><path d="M 251.505 15.931 L 336.153 15.931 C 340.39 15.931 343.829 19.37 343.829 23.607 L 343.829 45.255 C 343.829 49.491 340.39 52.931 336.153 52.931 L 251.505 52.931 C 247.269 52.931 243.829 49.491 243.829 45.255 L 243.829 23.607 C 243.829 19.37 247.269 15.931 251.505 15.931 Z" style="fill:none;stroke:#000000;stroke-width:1.6855342301554246;stroke-linecap:square;stroke-miterlimit:3;"/><path d=" M 269.047 36.211 L 269.047 41.69 L 266.069 41.69 L 266.069 35.313 L 266.069 35.313 Q 266.069 34.131 265.673 33.54 L 265.673 33.54 L 265.673 33.54 Q 265.278 32.949 264.428 32.949 L 264.428 32.949 L 264.428 32.949 Q 263.285 32.949 262.768 33.789 L 262.768 33.789 L 262.768 33.789 Q 262.25 34.629 262.25 36.553 L 262.25 36.553 L 262.25 41.69 L 259.272 41.69 L 259.272 30.772 L 261.547 30.772 L 261.947 32.168 L 262.113 32.168 L 262.113 32.168 Q 262.553 31.416 263.383 30.991 L 263.383 30.991 L 263.383 30.991 Q 264.213 30.567 265.287 30.567 L 265.287 30.567 L 265.287 30.567 Q 267.738 30.567 268.608 32.168 L 268.608 32.168 L 268.871 32.168 L 268.871 32.168 Q 269.311 31.406 270.165 30.986 L 270.165 30.986 L 270.165 30.986 Q 271.02 30.567 272.094 30.567 L 272.094 30.567 L 272.094 30.567 Q 273.949 30.567 274.902 31.519 L 274.902 31.519 L 274.902 31.519 Q 275.854 32.471 275.854 34.57 L 275.854 34.57 L 275.854 41.69 L 272.865 41.69 L 272.865 35.313 L 272.865 35.313 Q 272.865 34.131 272.47 33.54 L 272.47 33.54 L 272.47 33.54 Q 272.074 32.949 271.225 32.949 L 271.225 32.949 L 271.225 32.949 Q 270.131 32.949 269.589 33.731 L 269.589 33.731 L 269.589 33.731 Q 269.047 34.512 269.047 36.211 L 269.047 36.211 Z  M 287.924 41.69 L 285.844 41.69 L 285.268 40.205 L 285.19 40.205 L 285.19 40.205 Q 284.438 41.153 283.642 41.519 L 283.642 41.519 L 283.642 41.519 Q 282.846 41.885 281.567 41.885 L 281.567 41.885 L 281.567 41.885 Q 279.994 41.885 279.091 40.986 L 279.091 40.986 L 279.091 40.986 Q 278.188 40.088 278.188 38.428 L 278.188 38.428 L 278.188 38.428 Q 278.188 36.69 279.404 35.864 L 279.404 35.864 L 279.404 35.864 Q 280.619 35.039 283.07 34.951 L 283.07 34.951 L 284.965 34.893 L 284.965 34.414 L 284.965 34.414 Q 284.965 32.754 283.266 32.754 L 283.266 32.754 L 283.266 32.754 Q 281.957 32.754 280.19 33.545 L 280.19 33.545 L 279.203 31.533 L 279.203 31.533 Q 281.088 30.547 283.383 30.547 L 283.383 30.547 L 283.383 30.547 Q 285.58 30.547 286.752 31.504 L 286.752 31.504 L 286.752 31.504 Q 287.924 32.461 287.924 34.414 L 287.924 34.414 L 287.924 41.69 Z  M 284.965 37.529 L 284.965 36.631 L 283.813 36.67 L 283.813 36.67 Q 282.514 36.709 281.879 37.139 L 281.879 37.139 L 281.879 37.139 Q 281.244 37.569 281.244 38.447 L 281.244 38.447 L 281.244 38.447 Q 281.244 39.707 282.69 39.707 L 282.69 39.707 L 282.69 39.707 Q 283.725 39.707 284.345 39.111 L 284.345 39.111 L 284.345 39.111 Q 284.965 38.516 284.965 37.529 L 284.965 37.529 Z  M 298.608 38.447 L 298.608 38.447 L 298.608 38.447 Q 298.608 40.127 297.441 41.006 L 297.441 41.006 L 297.441 41.006 Q 296.274 41.885 293.949 41.885 L 293.949 41.885 L 293.949 41.885 Q 292.758 41.885 291.918 41.724 L 291.918 41.724 L 291.918 41.724 Q 291.078 41.563 290.346 41.25 L 290.346 41.25 L 290.346 38.789 L 290.346 38.789 Q 291.176 39.18 292.216 39.444 L 292.216 39.444 L 292.216 39.444 Q 293.256 39.707 294.047 39.707 L 294.047 39.707 L 294.047 39.707 Q 295.668 39.707 295.668 38.77 L 295.668 38.77 L 295.668 38.77 Q 295.668 38.418 295.453 38.198 L 295.453 38.198 L 295.453 38.198 Q 295.238 37.979 294.711 37.7 L 294.711 37.7 L 294.711 37.7 Q 294.184 37.422 293.305 37.051 L 293.305 37.051 L 293.305 37.051 Q 292.045 36.524 291.454 36.074 L 291.454 36.074 L 291.454 36.074 Q 290.863 35.625 290.595 35.044 L 290.595 35.044 L 290.595 35.044 Q 290.326 34.463 290.326 33.613 L 290.326 33.613 L 290.326 33.613 Q 290.326 32.158 291.454 31.362 L 291.454 31.362 L 291.454 31.362 Q 292.582 30.567 294.653 30.567 L 294.653 30.567 L 294.653 30.567 Q 296.625 30.567 298.49 31.426 L 298.49 31.426 L 297.592 33.574 L 297.592 33.574 Q 296.772 33.223 296.059 32.998 L 296.059 32.998 L 296.059 32.998 Q 295.346 32.774 294.604 32.774 L 294.604 32.774 L 294.604 32.774 Q 293.285 32.774 293.285 33.486 L 293.285 33.486 L 293.285 33.486 Q 293.285 33.887 293.71 34.18 L 293.71 34.18 L 293.71 34.18 Q 294.135 34.473 295.57 35.049 L 295.57 35.049 L 295.57 35.049 Q 296.85 35.567 297.445 36.016 L 297.445 36.016 L 297.445 36.016 Q 298.041 36.465 298.324 37.051 L 298.324 37.051 L 298.324 37.051 Q 298.608 37.637 298.608 38.447 Z  M 305.531 39.512 L 305.531 39.512 L 305.531 39.512 Q 306.313 39.512 307.406 39.17 L 307.406 39.17 L 307.406 41.387 L 307.406 41.387 Q 306.293 41.885 304.672 41.885 L 304.672 41.885 L 304.672 41.885 Q 302.885 41.885 302.07 40.982 L 302.07 40.982 L 302.07 40.982 Q 301.254 40.078 301.254 38.272 L 301.254 38.272 L 301.254 33.008 L 299.828 33.008 L 299.828 31.748 L 301.469 30.752 L 302.328 28.447 L 304.233 28.447 L 304.233 30.772 L 307.289 30.772 L 307.289 33.008 L 304.233 33.008 L 304.233 38.272 L 304.233 38.272 Q 304.233 38.906 304.589 39.209 L 304.589 39.209 L 304.589 39.209 Q 304.945 39.512 305.531 39.512 Z  M 314.135 32.686 L 314.135 32.686 L 314.135 32.686 Q 313.188 32.686 312.651 33.286 L 312.651 33.286 L 312.651 33.286 Q 312.113 33.887 312.035 34.99 L 312.035 34.99 L 316.215 34.99 L 316.215 34.99 Q 316.195 33.887 315.639 33.286 L 315.639 33.286 L 315.639 33.286 Q 315.082 32.686 314.135 32.686 Z  M 314.555 41.885 L 314.555 41.885 L 314.555 41.885 Q 311.918 41.885 310.434 40.43 L 310.434 40.43 L 310.434 40.43 Q 308.949 38.975 308.949 36.309 L 308.949 36.309 L 308.949 36.309 Q 308.949 33.565 310.321 32.066 L 310.321 32.066 L 310.321 32.066 Q 311.694 30.567 314.115 30.567 L 314.115 30.567 L 314.115 30.567 Q 316.43 30.567 317.719 31.885 L 317.719 31.885 L 317.719 31.885 Q 319.008 33.203 319.008 35.528 L 319.008 35.528 L 319.008 36.973 L 311.967 36.973 L 311.967 36.973 Q 312.016 38.242 312.719 38.955 L 312.719 38.955 L 312.719 38.955 Q 313.422 39.668 314.692 39.668 L 314.692 39.668 L 314.692 39.668 Q 315.678 39.668 316.557 39.463 L 316.557 39.463 L 316.557 39.463 Q 317.436 39.258 318.393 38.809 L 318.393 38.809 L 318.393 41.113 L 318.393 41.113 Q 317.612 41.504 316.723 41.694 L 316.723 41.694 L 316.723 41.694 Q 315.834 41.885 314.555 41.885 Z  M 327.524 30.567 L 327.524 30.567 L 327.524 30.567 Q 328.129 30.567 328.529 30.654 L 328.529 30.654 L 328.305 33.447 L 328.305 33.447 Q 327.944 33.35 327.426 33.35 L 327.426 33.35 L 327.426 33.35 Q 326 33.35 325.204 34.082 L 325.204 34.082 L 325.204 34.082 Q 324.408 34.815 324.408 36.133 L 324.408 36.133 L 324.408 41.69 L 321.43 41.69 L 321.43 30.772 L 323.686 30.772 L 324.125 32.608 L 324.272 32.608 L 324.272 32.608 Q 324.779 31.69 325.644 31.128 L 325.644 31.128 L 325.644 31.128 Q 326.508 30.567 327.524 30.567 Z " fill-rule="evenodd" fill="rgb(0,0,0)"/></g><g id="Bmaster"><path d="M 474.414 129.396 L 559.062 129.396 C 563.298 129.396 566.738 132.836 566.738 137.072 L 566.738 158.72 C 566.738 162.957 563.298 166.396 559.062 166.396 L 474.414 166.396 C 470.178 166.396 466.738 162.957 466.738 158.72 L 466.738 137.072 C 466.738 132.836 470.178 129.396 474.414 129.396 Z" style="stroke:none;fill:#D3F0C1;stroke-linecap:square;stroke-miterlimit:3;"/><path d="M 474.414 129.396 L 559.062 129.396 C 563.298 129.396 566.738 132.836 566.738 137.072 L 566.738 158.72 C 566.738 162.957 563.298 166.396 559.062 166.396 L 474.414 166.396 C 470.178 166.396 466.738 162.957 466.738 158.72 L 466.738 137.072 C 466.738 132.836 470.178 129.396 474.414 129.396 Z" style="fill:none;stroke:#000000;stroke-width:1.6855342301554246;stroke-linecap:square;stroke-miterlimit:3;"/><path d=" M 498.967 144.237 L 498.967 146.473 L 496.388 146.473 L 496.388 155.155 L 493.41 155.155 L 493.41 146.473 L 491.769 146.473 L 491.769 145.038 L 493.41 144.237 L 493.41 143.436 L 493.41 143.436 Q 493.41 141.571 494.328 140.712 L 494.328 140.712 L 494.328 140.712 Q 495.246 139.852 497.267 139.852 L 497.267 139.852 L 497.267 139.852 Q 498.81 139.852 500.011 140.311 L 500.011 140.311 L 499.25 142.499 L 499.25 142.499 Q 498.351 142.216 497.59 142.216 L 497.59 142.216 L 497.59 142.216 Q 496.955 142.216 496.672 142.592 L 496.672 142.592 L 496.672 142.592 Q 496.388 142.968 496.388 143.554 L 496.388 143.554 L 496.388 144.237 L 498.967 144.237 Z  M 505.197 146.151 L 505.197 146.151 L 505.197 146.151 Q 504.25 146.151 503.713 146.752 L 503.713 146.752 L 503.713 146.752 Q 503.176 147.352 503.097 148.456 L 503.097 148.456 L 507.277 148.456 L 507.277 148.456 Q 507.258 147.352 506.701 146.752 L 506.701 146.752 L 506.701 146.752 Q 506.144 146.151 505.197 146.151 Z  M 505.617 155.35 L 505.617 155.35 L 505.617 155.35 Q 502.98 155.35 501.496 153.895 L 501.496 153.895 L 501.496 153.895 Q 500.011 152.44 500.011 149.774 L 500.011 149.774 L 500.011 149.774 Q 500.011 147.03 501.384 145.531 L 501.384 145.531 L 501.384 145.531 Q 502.756 144.032 505.177 144.032 L 505.177 144.032 L 505.177 144.032 Q 507.492 144.032 508.781 145.35 L 508.781 145.35 L 508.781 145.35 Q 510.07 146.669 510.07 148.993 L 510.07 148.993 L 510.07 150.438 L 503.029 150.438 L 503.029 150.438 Q 503.078 151.708 503.781 152.421 L 503.781 152.421 L 503.781 152.421 Q 504.484 153.134 505.754 153.134 L 505.754 153.134 L 505.754 153.134 Q 506.74 153.134 507.619 152.929 L 507.619 152.929 L 507.619 152.929 Q 508.498 152.723 509.455 152.274 L 509.455 152.274 L 509.455 154.579 L 509.455 154.579 Q 508.674 154.97 507.785 155.16 L 507.785 155.16 L 507.785 155.16 Q 506.896 155.35 505.617 155.35 Z  M 521.506 155.155 L 519.426 155.155 L 518.849 153.671 L 518.771 153.671 L 518.771 153.671 Q 518.019 154.618 517.223 154.984 L 517.223 154.984 L 517.223 154.984 Q 516.427 155.35 515.148 155.35 L 515.148 155.35 L 515.148 155.35 Q 513.576 155.35 512.673 154.452 L 512.673 154.452 L 512.673 154.452 Q 511.769 153.554 511.769 151.893 L 511.769 151.893 L 511.769 151.893 Q 511.769 150.155 512.985 149.33 L 512.985 149.33 L 512.985 149.33 Q 514.201 148.505 516.652 148.417 L 516.652 148.417 L 518.547 148.358 L 518.547 147.88 L 518.547 147.88 Q 518.547 146.22 516.847 146.22 L 516.847 146.22 L 516.847 146.22 Q 515.539 146.22 513.771 147.011 L 513.771 147.011 L 512.785 144.999 L 512.785 144.999 Q 514.67 144.013 516.965 144.013 L 516.965 144.013 L 516.965 144.013 Q 519.162 144.013 520.334 144.97 L 520.334 144.97 L 520.334 144.97 Q 521.506 145.927 521.506 147.88 L 521.506 147.88 L 521.506 155.155 Z  M 518.547 150.995 L 518.547 150.097 L 517.394 150.136 L 517.394 150.136 Q 516.095 150.175 515.461 150.604 L 515.461 150.604 L 515.461 150.604 Q 514.826 151.034 514.826 151.913 L 514.826 151.913 L 514.826 151.913 Q 514.826 153.173 516.271 153.173 L 516.271 153.173 L 516.271 153.173 Q 517.306 153.173 517.927 152.577 L 517.927 152.577 L 517.927 152.577 Q 518.547 151.981 518.547 150.995 L 518.547 150.995 Z  M 529.172 152.977 L 529.172 152.977 L 529.172 152.977 Q 529.953 152.977 531.047 152.636 L 531.047 152.636 L 531.047 154.852 L 531.047 154.852 Q 529.933 155.35 528.312 155.35 L 528.312 155.35 L 528.312 155.35 Q 526.525 155.35 525.71 154.447 L 525.71 154.447 L 525.71 154.447 Q 524.894 153.544 524.894 151.737 L 524.894 151.737 L 524.894 146.473 L 523.469 146.473 L 523.469 145.214 L 525.109 144.218 L 525.969 141.913 L 527.873 141.913 L 527.873 144.237 L 530.929 144.237 L 530.929 146.473 L 527.873 146.473 L 527.873 151.737 L 527.873 151.737 Q 527.873 152.372 528.229 152.675 L 528.229 152.675 L 528.229 152.675 Q 528.586 152.977 529.172 152.977 Z  M 542.472 152.616 L 542.472 155.155 L 532.492 155.155 L 532.492 153.056 L 536.076 149.432 L 536.076 149.432 Q 537.668 147.802 538.156 147.172 L 538.156 147.172 L 538.156 147.172 Q 538.644 146.542 538.859 146.005 L 538.859 146.005 L 538.859 146.005 Q 539.074 145.468 539.074 144.891 L 539.074 144.891 L 539.074 144.891 Q 539.074 144.032 538.6 143.612 L 538.6 143.612 L 538.6 143.612 Q 538.127 143.192 537.336 143.192 L 537.336 143.192 L 537.336 143.192 Q 536.506 143.192 535.724 143.573 L 535.724 143.573 L 535.724 143.573 Q 534.943 143.954 534.094 144.657 L 534.094 144.657 L 532.453 142.714 L 532.453 142.714 Q 533.508 141.815 534.201 141.444 L 534.201 141.444 L 534.201 141.444 Q 534.894 141.073 535.715 140.873 L 535.715 140.873 L 535.715 140.873 Q 536.535 140.673 537.551 140.673 L 537.551 140.673 L 537.551 140.673 Q 538.888 140.673 539.914 141.161 L 539.914 141.161 L 539.914 141.161 Q 540.939 141.649 541.506 142.528 L 541.506 142.528 L 541.506 142.528 Q 542.072 143.407 542.072 144.54 L 542.072 144.54 L 542.072 144.54 Q 542.072 145.526 541.725 146.39 L 541.725 146.39 L 541.725 146.39 Q 541.379 147.255 540.651 148.163 L 540.651 148.163 L 540.651 148.163 Q 539.924 149.071 538.088 150.751 L 538.088 150.751 L 536.252 152.479 L 536.252 152.616 L 542.472 152.616 Z " fill-rule="evenodd" fill="rgb(0,0,0)"/></g><g id="Bfeat1"><path d="M 363.999 74.638 L 448.647 74.638 C 452.884 74.638 456.323 78.078 456.323 82.314 L 456.323 103.962 C 456.323 108.199 452.884 111.638 448.647 111.638 L 363.999 111.638 C 359.763 111.638 356.323 108.199 356.323 103.962 L 356.323 82.314 C 356.323 78.078 359.763 74.638 363.999 74.638 Z" style="stroke:none;fill:#D1D1D1;stroke-linecap:square;stroke-miterlimit:3;"/><path d="M 363.999 74.638 L 448.647 74.638 C 452.884 74.638 456.323 78.078 456.323 82.314 L 456.323 103.962 C 456.323 108.199 452.884 111.638 448.647 111.638 L 363.999 111.638 C 359.763 111.638 356.323 108.199 356.323 103.962 L 356.323 82.314 C 356.323 78.078 359.763 74.638 363.999 74.638 Z" style="fill:none;stroke:#000000;stroke-width:1.6855342301554246;stroke-linecap:square;stroke-miterlimit:3;"/><path d=" M 388.552 92.979 L 388.552 95.215 L 385.974 95.215 L 385.974 103.897 L 382.995 103.897 L 382.995 95.215 L 381.355 95.215 L 381.355 93.78 L 382.995 92.979 L 382.995 92.178 L 382.995 92.178 Q 382.995 90.313 383.913 89.454 L 383.913 89.454 L 383.913 89.454 Q 384.831 88.594 386.853 88.594 L 386.853 88.594 L 386.853 88.594 Q 388.396 88.594 389.597 89.053 L 389.597 89.053 L 388.835 91.241 L 388.835 91.241 Q 387.937 90.957 387.175 90.957 L 387.175 90.957 L 387.175 90.957 Q 386.54 90.957 386.257 91.333 L 386.257 91.333 L 386.257 91.333 Q 385.974 91.709 385.974 92.295 L 385.974 92.295 L 385.974 92.979 L 388.552 92.979 Z  M 394.782 94.893 L 394.782 94.893 L 394.782 94.893 Q 393.835 94.893 393.298 95.494 L 393.298 95.494 L 393.298 95.494 Q 392.761 96.094 392.683 97.198 L 392.683 97.198 L 396.862 97.198 L 396.862 97.198 Q 396.843 96.094 396.286 95.494 L 396.286 95.494 L 396.286 95.494 Q 395.73 94.893 394.782 94.893 Z  M 395.202 104.092 L 395.202 104.092 L 395.202 104.092 Q 392.565 104.092 391.081 102.637 L 391.081 102.637 L 391.081 102.637 Q 389.597 101.182 389.597 98.516 L 389.597 98.516 L 389.597 98.516 Q 389.597 95.772 390.969 94.273 L 390.969 94.273 L 390.969 94.273 Q 392.341 92.774 394.763 92.774 L 394.763 92.774 L 394.763 92.774 Q 397.077 92.774 398.366 94.092 L 398.366 94.092 L 398.366 94.092 Q 399.655 95.411 399.655 97.735 L 399.655 97.735 L 399.655 99.18 L 392.614 99.18 L 392.614 99.18 Q 392.663 100.45 393.366 101.163 L 393.366 101.163 L 393.366 101.163 Q 394.069 101.875 395.339 101.875 L 395.339 101.875 L 395.339 101.875 Q 396.325 101.875 397.204 101.67 L 397.204 101.67 L 397.204 101.67 Q 398.083 101.465 399.04 101.016 L 399.04 101.016 L 399.04 103.321 L 399.04 103.321 Q 398.259 103.711 397.37 103.902 L 397.37 103.902 L 397.37 103.902 Q 396.481 104.092 395.202 104.092 Z  M 411.091 103.897 L 409.011 103.897 L 408.435 102.413 L 408.356 102.413 L 408.356 102.413 Q 407.605 103.36 406.809 103.726 L 406.809 103.726 L 406.809 103.726 Q 406.013 104.092 404.733 104.092 L 404.733 104.092 L 404.733 104.092 Q 403.161 104.092 402.258 103.194 L 402.258 103.194 L 402.258 103.194 Q 401.355 102.295 401.355 100.635 L 401.355 100.635 L 401.355 100.635 Q 401.355 98.897 402.57 98.072 L 402.57 98.072 L 402.57 98.072 Q 403.786 97.247 406.237 97.159 L 406.237 97.159 L 408.132 97.1 L 408.132 96.622 L 408.132 96.622 Q 408.132 94.961 406.433 94.961 L 406.433 94.961 L 406.433 94.961 Q 405.124 94.961 403.356 95.752 L 403.356 95.752 L 402.37 93.741 L 402.37 93.741 Q 404.255 92.754 406.55 92.754 L 406.55 92.754 L 406.55 92.754 Q 408.747 92.754 409.919 93.711 L 409.919 93.711 L 409.919 93.711 Q 411.091 94.668 411.091 96.622 L 411.091 96.622 L 411.091 103.897 Z  M 408.132 99.737 L 408.132 98.838 L 406.98 98.877 L 406.98 98.877 Q 405.681 98.916 405.046 99.346 L 405.046 99.346 L 405.046 99.346 Q 404.411 99.776 404.411 100.655 L 404.411 100.655 L 404.411 100.655 Q 404.411 101.915 405.856 101.915 L 405.856 101.915 L 405.856 101.915 Q 406.892 101.915 407.512 101.319 L 407.512 101.319 L 407.512 101.319 Q 408.132 100.723 408.132 99.737 L 408.132 99.737 Z  M 418.757 101.719 L 418.757 101.719 L 418.757 101.719 Q 419.538 101.719 420.632 101.377 L 420.632 101.377 L 420.632 103.594 L 420.632 103.594 Q 419.519 104.092 417.897 104.092 L 417.897 104.092 L 417.897 104.092 Q 416.11 104.092 415.295 103.189 L 415.295 103.189 L 415.295 103.189 Q 414.48 102.286 414.48 100.479 L 414.48 100.479 L 414.48 95.215 L 413.054 95.215 L 413.054 93.956 L 414.694 92.959 L 415.554 90.655 L 417.458 90.655 L 417.458 92.979 L 420.515 92.979 L 420.515 95.215 L 417.458 95.215 L 417.458 100.479 L 417.458 100.479 Q 417.458 101.114 417.814 101.416 L 417.814 101.416 L 417.814 101.416 Q 418.171 101.719 418.757 101.719 Z  M 429.538 89.62 L 429.538 103.897 L 426.521 103.897 L 426.521 95.635 L 426.55 94.278 L 426.599 92.793 L 426.599 92.793 Q 425.847 93.545 425.554 93.78 L 425.554 93.78 L 423.913 95.098 L 422.458 93.282 L 427.058 89.62 L 429.538 89.62 Z " fill-rule="evenodd" fill="rgb(0,0,0)"/></g><g id="Bhead"><path d="M 479.651 91.396 L 551.873 91.396 C 555.813 91.396 559.012 94.595 559.012 98.536 L 559.012 121.257 C 559.012 125.197 555.813 128.396 551.873 128.396 L 479.651 128.396 C 475.711 128.396 472.512 125.197 472.512 121.257 L 472.512 98.536 C 472.512 94.595 475.711 91.396 479.651 91.396 Z" style="stroke:none;fill:#FFF3A5;stroke-linecap:square;stroke-miterlimit:3;"/><path d="M 479.651 91.396 L 551.873 91.396 C 555.813 91.396 559.012 94.595 559.012 98.536 L 559.012 121.257 C 559.012 125.197 555.813 128.396 551.873 128.396 L 479.651 128.396 C 475.711 128.396 472.512 125.197 472.512 121.257 L 472.512 98.536 C 472.512 94.595 475.711 91.396 479.651 91.396 Z" style="fill:none;stroke:#000000;stroke-width:1.6855342301554246;stroke-linecap:square;stroke-miterlimit:3;"/><path d=" M 500.705 104.105 L 500.705 118.382 L 497.687 118.382 L 497.687 112.22 L 492.033 112.22 L 492.033 118.382 L 489.005 118.382 L 489.005 104.105 L 492.033 104.105 L 492.033 109.701 L 497.687 109.701 L 497.687 104.105 L 500.705 104.105 Z  M 512.531 115.882 L 512.531 118.382 L 504.308 118.382 L 504.308 104.105 L 512.531 104.105 L 512.531 106.585 L 507.335 106.585 L 507.335 109.72 L 512.169 109.72 L 512.169 112.201 L 507.335 112.201 L 507.335 115.882 L 512.531 115.882 Z  M 527.511 118.382 L 524.25 118.382 L 523.214 114.984 L 518.009 114.984 L 516.974 118.382 L 513.712 118.382 L 518.751 104.046 L 522.453 104.046 L 527.511 118.382 Z  M 518.771 112.445 L 522.492 112.445 L 522.492 112.445 Q 521.056 107.826 520.875 107.22 L 520.875 107.22 L 520.875 107.22 Q 520.695 106.615 520.617 106.263 L 520.617 106.263 L 520.617 106.263 Q 520.294 107.513 518.771 112.445 L 518.771 112.445 Z  M 541.154 111.107 L 541.154 111.107 L 541.154 111.107 Q 541.154 114.632 539.147 116.507 L 539.147 116.507 L 539.147 116.507 Q 537.14 118.382 533.351 118.382 L 533.351 118.382 L 529.308 118.382 L 529.308 104.105 L 533.791 104.105 L 533.791 104.105 Q 537.287 104.105 539.22 105.951 L 539.22 105.951 L 539.22 105.951 Q 541.154 107.796 541.154 111.107 Z  M 538.009 111.185 L 538.009 111.185 L 538.009 111.185 Q 538.009 106.585 533.947 106.585 L 533.947 106.585 L 532.335 106.585 L 532.335 115.882 L 533.634 115.882 L 533.634 115.882 Q 538.009 115.882 538.009 111.185 Z " fill-rule="evenodd" fill="rgb(0,0,0)"/></g><g id="c1"><path d=" M 82 81.138 C 82 68.882 91.951 58.931 104.207 58.931 C 116.464 58.931 126.415 68.882 126.415 81.138 C 126.415 93.395 116.464 103.345 104.207 103.345 C 91.951 103.345 82 93.395 82 81.138 Z " fill="rgb(195,215,247)" vector-effect="non-scaling-stroke" stroke-width="2" stroke="rgb(0,0,0)" stroke-linejoin="miter" stroke-linecap="square" stroke-miterlimit="3"/><path d=" M 105.639 73.398 L 105.639 90.46 L 102.346 90.46 L 102.346 77.371 L 98.033 78.917 L 98.033 76.082 L 105.463 73.398 L 105.639 73.398 Z " fill="rgb(0,0,0)"/></g><g id="c2"><path d=" M 145.207 81.138 C 145.207 68.882 155.158 58.931 167.415 58.931 C 179.671 58.931 189.622 68.882 189.622 81.138 C 189.622 93.395 179.671 103.345 167.415 103.345 C 155.158 103.345 145.207 93.395 145.207 81.138 Z " fill="rgb(195,215,247)" vector-effect="non-scaling-stroke" stroke-width="2" stroke="rgb(0,0,0)" stroke-linejoin="miter" stroke-linecap="square" stroke-miterlimit="3"/><path d=" M 172.022 87.847 L 172.022 90.46 L 160.385 90.46 L 160.385 88.234 L 165.905 82.304 L 165.905 82.304 Q 166.549 81.601 166.995 81.027 L 166.995 81.027 L 166.995 81.027 Q 167.44 80.453 167.715 79.978 L 167.715 79.978 L 167.715 79.978 Q 167.991 79.503 168.114 79.093 L 168.114 79.093 L 168.114 79.093 Q 168.237 78.683 168.237 78.296 L 168.237 78.296 L 168.237 78.296 Q 168.237 77.722 168.073 77.277 L 168.073 77.277 L 168.073 77.277 Q 167.909 76.832 167.61 76.521 L 167.61 76.521 L 167.61 76.521 Q 167.311 76.21 166.895 76.046 L 166.895 76.046 L 166.895 76.046 Q 166.479 75.882 165.975 75.882 L 165.975 75.882 L 165.975 75.882 Q 164.628 75.882 163.965 76.632 L 163.965 76.632 L 163.965 76.632 Q 163.303 77.382 163.303 78.73 L 163.303 78.73 L 160.034 78.73 L 160.034 78.73 Q 160.034 77.593 160.467 76.58 L 160.467 76.58 L 160.467 76.58 Q 160.901 75.566 161.692 74.804 L 161.692 74.804 L 161.692 74.804 Q 162.483 74.042 163.602 73.603 L 163.602 73.603 L 163.602 73.603 Q 164.721 73.164 166.081 73.164 L 166.081 73.164 L 166.081 73.164 Q 167.381 73.164 168.383 73.527 L 168.383 73.527 L 168.383 73.527 Q 169.385 73.89 170.059 74.546 L 170.059 74.546 L 170.059 74.546 Q 170.733 75.203 171.085 76.123 L 171.085 76.123 L 171.085 76.123 Q 171.436 77.042 171.436 78.156 L 171.436 78.156 L 171.436 78.156 Q 171.436 78.999 171.172 79.767 L 171.172 79.767 L 171.172 79.767 Q 170.909 80.535 170.422 81.285 L 170.422 81.285 L 170.422 81.285 Q 169.936 82.035 169.256 82.814 L 169.256 82.814 L 169.256 82.814 Q 168.577 83.593 167.745 84.449 L 167.745 84.449 L 164.534 87.847 L 172.022 87.847 Z " fill="rgb(0,0,0)"/></g><g id="C3"><path d=" M 208.415 81.138 C 208.415 68.882 218.365 58.931 230.622 58.931 C 242.879 58.931 252.829 68.882 252.829 81.138 C 252.829 93.395 242.879 103.345 230.622 103.345 C 218.365 103.345 208.415 93.395 208.415 81.138 Z " fill="rgb(195,215,247)" vector-effect="non-scaling-stroke" stroke-width="2" stroke="rgb(0,0,0)" stroke-linejoin="miter" stroke-linecap="square" stroke-miterlimit="3"/><path d=" M 227.354 83.031 L 227.354 80.499 L 229.124 80.499 L 229.124 80.499 Q 230.46 80.499 231.104 79.826 L 231.104 79.826 L 231.104 79.826 Q 231.749 79.152 231.749 78.062 L 231.749 78.062 L 231.749 78.062 Q 231.749 77.558 231.602 77.142 L 231.602 77.142 L 231.602 77.142 Q 231.456 76.726 231.163 76.427 L 231.163 76.427 L 231.163 76.427 Q 230.87 76.128 230.419 75.964 L 230.419 75.964 L 230.419 75.964 Q 229.968 75.8 229.37 75.8 L 229.37 75.8 L 229.37 75.8 Q 228.878 75.8 228.45 75.941 L 228.45 75.941 L 228.45 75.941 Q 228.022 76.082 227.7 76.345 L 227.7 76.345 L 227.7 76.345 Q 227.378 76.609 227.19 76.984 L 227.19 76.984 L 227.19 76.984 Q 227.003 77.359 227.003 77.828 L 227.003 77.828 L 223.745 77.828 L 223.745 77.828 Q 223.745 76.785 224.173 75.929 L 224.173 75.929 L 224.173 75.929 Q 224.6 75.074 225.35 74.458 L 225.35 74.458 L 225.35 74.458 Q 226.1 73.843 227.114 73.503 L 227.114 73.503 L 227.114 73.503 Q 228.128 73.164 229.3 73.164 L 229.3 73.164 L 229.3 73.164 Q 230.565 73.164 231.62 73.474 L 231.62 73.474 L 231.62 73.474 Q 232.675 73.785 233.425 74.4 L 233.425 74.4 L 233.425 74.4 Q 234.175 75.015 234.591 75.923 L 234.591 75.923 L 234.591 75.923 Q 235.007 76.832 235.007 78.027 L 235.007 78.027 L 235.007 78.027 Q 235.007 78.578 234.843 79.111 L 234.843 79.111 L 234.843 79.111 Q 234.679 79.644 234.362 80.124 L 234.362 80.124 L 234.362 80.124 Q 234.046 80.605 233.577 81.009 L 233.577 81.009 L 233.577 81.009 Q 233.108 81.414 232.499 81.707 L 232.499 81.707 L 232.499 81.707 Q 233.214 81.964 233.735 82.363 L 233.735 82.363 L 233.735 82.363 Q 234.257 82.761 234.597 83.271 L 234.597 83.271 L 234.597 83.271 Q 234.936 83.781 235.1 84.39 L 235.1 84.39 L 235.1 84.39 Q 235.265 84.999 235.265 85.679 L 235.265 85.679 L 235.265 85.679 Q 235.265 86.874 234.808 87.812 L 234.808 87.812 L 234.808 87.812 Q 234.35 88.749 233.554 89.388 L 233.554 89.388 L 233.554 89.388 Q 232.757 90.027 231.661 90.361 L 231.661 90.361 L 231.661 90.361 Q 230.565 90.695 229.3 90.695 L 229.3 90.695 L 229.3 90.695 Q 228.21 90.695 227.173 90.396 L 227.173 90.396 L 227.173 90.396 Q 226.136 90.097 225.327 89.494 L 225.327 89.494 L 225.327 89.494 Q 224.518 88.89 224.032 87.976 L 224.032 87.976 L 224.032 87.976 Q 223.546 87.062 223.546 85.82 L 223.546 85.82 L 226.804 85.82 L 226.804 85.82 Q 226.804 86.312 226.991 86.728 L 226.991 86.728 L 226.991 86.728 Q 227.179 87.144 227.524 87.443 L 227.524 87.443 L 227.524 87.443 Q 227.87 87.742 228.339 87.912 L 228.339 87.912 L 228.339 87.912 Q 228.808 88.082 229.37 88.082 L 229.37 88.082 L 229.37 88.082 Q 230.612 88.082 231.315 87.425 L 231.315 87.425 L 231.315 87.425 Q 232.018 86.769 232.018 85.644 L 232.018 85.644 L 232.018 85.644 Q 232.018 84.953 231.819 84.46 L 231.819 84.46 L 231.819 84.46 Q 231.62 83.968 231.239 83.652 L 231.239 83.652 L 231.239 83.652 Q 230.858 83.335 230.325 83.183 L 230.325 83.183 L 230.325 83.183 Q 229.792 83.031 229.124 83.031 L 229.124 83.031 L 227.354 83.031 Z " fill="rgb(0,0,0)"/></g><g id="C4"><path d=" M 271.622 81.138 C 271.622 68.882 281.573 58.931 293.829 58.931 C 306.086 58.931 316.037 68.882 316.037 81.138 C 316.037 93.395 306.086 103.345 293.829 103.345 C 281.573 103.345 271.622 93.395 271.622 81.138 Z " fill="rgb(195,215,247)" vector-effect="non-scaling-stroke" stroke-width="2" stroke="rgb(0,0,0)" stroke-linejoin="miter" stroke-linecap="square" stroke-miterlimit="3"/><path d=" M 296.796 73.398 L 296.796 84.121 L 298.777 84.121 L 298.777 86.757 L 296.796 86.757 L 296.796 90.46 L 293.538 90.46 L 293.538 86.757 L 286.448 86.757 L 286.32 84.718 L 293.491 73.398 L 296.796 73.398 Z  M 293.222 78.343 L 289.519 84.121 L 293.538 84.121 L 293.538 77.781 L 293.222 78.343 Z " fill-rule="evenodd" fill="rgb(0,0,0)"/></g><g id="C5"><path d=" M 234.594 140.138 C 234.594 127.882 244.544 117.931 256.801 117.931 C 269.057 117.931 279.008 127.882 279.008 140.138 C 279.008 152.395 269.057 162.345 256.801 162.345 C 244.544 162.345 234.594 152.395 234.594 140.138 Z " fill="rgb(209,209,209)" vector-effect="non-scaling-stroke" stroke-width="2" stroke="rgb(0,0,0)" stroke-linejoin="miter" stroke-linecap="square" stroke-miterlimit="3"/><path d=" M 253.018 141.703 L 250.416 141.058 L 251.389 132.398 L 260.857 132.398 L 260.857 135.164 L 254.072 135.164 L 253.662 138.914 L 253.662 138.914 Q 254.025 138.703 254.693 138.48 L 254.693 138.48 L 254.693 138.48 Q 255.361 138.257 256.229 138.257 L 256.229 138.257 L 256.229 138.257 Q 257.459 138.257 258.426 138.65 L 258.426 138.65 L 258.426 138.65 Q 259.393 139.042 260.055 139.781 L 260.055 139.781 L 260.055 139.781 Q 260.717 140.519 261.068 141.585 L 261.068 141.585 L 261.068 141.585 Q 261.42 142.652 261.42 143.999 L 261.42 143.999 L 261.42 143.999 Q 261.42 145.148 261.08 146.179 L 261.08 146.179 L 261.08 146.179 Q 260.74 147.21 260.037 147.996 L 260.037 147.996 L 260.037 147.996 Q 259.334 148.781 258.268 149.238 L 258.268 149.238 L 258.268 149.238 Q 257.201 149.695 255.748 149.695 L 255.748 149.695 L 255.748 149.695 Q 254.647 149.695 253.621 149.367 L 253.621 149.367 L 253.621 149.367 Q 252.596 149.039 251.799 148.406 L 251.799 148.406 L 251.799 148.406 Q 251.002 147.773 250.504 146.853 L 250.504 146.853 L 250.504 146.853 Q 250.006 145.933 249.971 144.749 L 249.971 144.749 L 253.182 144.749 L 253.182 144.749 Q 253.299 145.863 253.984 146.472 L 253.984 146.472 L 253.984 146.472 Q 254.67 147.082 255.736 147.082 L 255.736 147.082 L 255.736 147.082 Q 256.393 147.082 256.856 146.835 L 256.856 146.835 L 256.856 146.835 Q 257.318 146.589 257.606 146.156 L 257.606 146.156 L 257.606 146.156 Q 257.893 145.722 258.027 145.124 L 258.027 145.124 L 258.027 145.124 Q 258.162 144.527 258.162 143.835 L 258.162 143.835 L 258.162 143.835 Q 258.162 143.156 257.992 142.587 L 257.992 142.587 L 257.992 142.587 Q 257.822 142.019 257.471 141.609 L 257.471 141.609 L 257.471 141.609 Q 257.119 141.199 256.592 140.976 L 256.592 140.976 L 256.592 140.976 Q 256.065 140.753 255.35 140.753 L 255.35 140.753 L 255.35 140.753 Q 254.869 140.753 254.518 140.835 L 254.518 140.835 L 254.518 140.835 Q 254.166 140.917 253.897 141.046 L 253.897 141.046 L 253.897 141.046 Q 253.627 141.175 253.416 141.345 L 253.416 141.345 L 253.416 141.345 Q 253.205 141.515 253.018 141.703 L 253.018 141.703 Z " fill="rgb(0,0,0)"/></g><g id="C6"><path d=" M 309.207 140.138 C 309.207 127.882 319.158 117.931 331.415 117.931 C 343.671 117.931 353.622 127.882 353.622 140.138 C 353.622 152.395 343.671 162.345 331.415 162.345 C 319.158 162.345 309.207 152.395 309.207 140.138 Z " fill="rgb(209,209,209)" vector-effect="non-scaling-stroke" stroke-width="2" stroke="rgb(0,0,0)" stroke-linejoin="miter" stroke-linecap="square" stroke-miterlimit="3"/><path d=" M 333.081 132.257 L 333.514 132.257 L 333.514 134.964 L 333.327 134.964 L 333.327 134.964 Q 332.038 134.964 331.047 135.304 L 331.047 135.304 L 331.047 135.304 Q 330.057 135.644 329.36 136.265 L 329.36 136.265 L 329.36 136.265 Q 328.663 136.886 328.258 137.753 L 328.258 137.753 L 328.258 137.753 Q 327.854 138.621 327.749 139.687 L 327.749 139.687 L 327.749 139.687 Q 328.018 139.394 328.37 139.107 L 328.37 139.107 L 328.37 139.107 Q 328.721 138.82 329.161 138.591 L 329.161 138.591 L 329.161 138.591 Q 329.6 138.363 330.116 138.222 L 330.116 138.222 L 330.116 138.222 Q 330.631 138.082 331.229 138.082 L 331.229 138.082 L 331.229 138.082 Q 332.448 138.082 333.356 138.544 L 333.356 138.544 L 333.356 138.544 Q 334.264 139.007 334.874 139.798 L 334.874 139.798 L 334.874 139.798 Q 335.483 140.589 335.782 141.638 L 335.782 141.638 L 335.782 141.638 Q 336.081 142.687 336.081 143.847 L 336.081 143.847 L 336.081 143.847 Q 336.081 145.089 335.682 146.156 L 335.682 146.156 L 335.682 146.156 Q 335.284 147.222 334.546 148.007 L 334.546 148.007 L 334.546 148.007 Q 333.807 148.792 332.753 149.244 L 332.753 149.244 L 332.753 149.244 Q 331.698 149.695 330.385 149.695 L 330.385 149.695 L 330.385 149.695 Q 329.014 149.695 327.913 149.185 L 327.913 149.185 L 327.913 149.185 Q 326.811 148.675 326.044 147.773 L 326.044 147.773 L 326.044 147.773 Q 325.276 146.871 324.86 145.634 L 324.86 145.634 L 324.86 145.634 Q 324.444 144.398 324.444 142.933 L 324.444 142.933 L 324.444 141.679 L 324.444 141.679 Q 324.444 139.652 324.995 137.923 L 324.995 137.923 L 324.995 137.923 Q 325.546 136.195 326.635 134.935 L 326.635 134.935 L 326.635 134.935 Q 327.725 133.675 329.342 132.966 L 329.342 132.966 L 329.342 132.966 Q 330.96 132.257 333.081 132.257 L 333.081 132.257 Z  M 330.28 140.695 L 330.28 140.695 L 330.28 140.695 Q 329.401 140.695 328.727 141.164 L 328.727 141.164 L 328.727 141.164 Q 328.053 141.632 327.713 142.371 L 327.713 142.371 L 327.713 143.332 L 327.713 143.332 Q 327.713 144.269 327.907 144.972 L 327.907 144.972 L 327.907 144.972 Q 328.1 145.675 328.452 146.138 L 328.452 146.138 L 328.452 146.138 Q 328.803 146.601 329.284 146.835 L 329.284 146.835 L 329.284 146.835 Q 329.764 147.07 330.327 147.07 L 330.327 147.07 L 330.327 147.07 Q 330.901 147.07 331.37 146.83 L 331.37 146.83 L 331.37 146.83 Q 331.838 146.589 332.167 146.167 L 332.167 146.167 L 332.167 146.167 Q 332.495 145.746 332.671 145.165 L 332.671 145.165 L 332.671 145.165 Q 332.846 144.585 332.846 143.894 L 332.846 143.894 L 332.846 143.894 Q 332.846 143.203 332.671 142.617 L 332.671 142.617 L 332.671 142.617 Q 332.495 142.031 332.167 141.603 L 332.167 141.603 L 332.167 141.603 Q 331.838 141.175 331.364 140.935 L 331.364 140.935 L 331.364 140.935 Q 330.889 140.695 330.28 140.695 Z " fill-rule="evenodd" fill="rgb(0,0,0)"/></g><g id="C8"><path d=" M 383.821 140.138 C 383.821 127.882 393.772 117.931 406.028 117.931 C 418.285 117.931 428.236 127.882 428.236 140.138 C 428.236 152.395 418.285 162.345 406.028 162.345 C 393.772 162.345 383.821 152.395 383.821 140.138 Z " fill="rgb(209,209,209)" vector-effect="non-scaling-stroke" stroke-width="2" stroke="rgb(0,0,0)" stroke-linejoin="miter" stroke-linecap="square" stroke-miterlimit="3"/><path d=" M 410.624 132.398 L 410.624 134.214 L 403.98 149.46 L 400.546 149.46 L 407.202 135.058 L 398.636 135.058 L 398.636 132.398 L 410.624 132.398 Z " fill="rgb(0,0,0)"/></g><line x1="259.071" y1="430.862" x2="402.551" y2="430.862" vector-effect="non-scaling-stroke" stroke-width="2" stroke="rgb(0,0,0)" stroke-linejoin="miter" stroke-linecap="square" stroke-miterlimit="3"/><line x1="259.071" y1="430.862" x2="230.829" y2="337.155" vector-effect="non-scaling-stroke" stroke-width="2" stroke="rgb(0,0,0)" stroke-linejoin="miter" stroke-linecap="square" stroke-miterlimit="3"/><g id="C5"><path d=" M 237.087 430.155 C 237.087 417.898 247.038 407.947 259.295 407.947 C 271.551 407.947 281.502 417.898 281.502 430.155 C 281.502 442.411 271.551 452.362 259.295 452.362 C 247.038 452.362 237.087 442.411 237.087 430.155 Z " fill="rgb(209,209,209)" vector-effect="non-scaling-stroke" stroke-width="2" stroke="rgb(0,0,0)" stroke-linejoin="miter" stroke-linecap="square" stroke-miterlimit="3"/><path d=" M 255.512 431.719 L 252.91 431.074 L 253.883 422.414 L 263.351 422.414 L 263.351 425.18 L 256.566 425.18 L 256.156 428.93 L 256.156 428.93 Q 256.519 428.719 257.187 428.496 L 257.187 428.496 L 257.187 428.496 Q 257.855 428.274 258.722 428.274 L 258.722 428.274 L 258.722 428.274 Q 259.953 428.274 260.92 428.666 L 260.92 428.666 L 260.92 428.666 Q 261.887 429.059 262.549 429.797 L 262.549 429.797 L 262.549 429.797 Q 263.211 430.535 263.562 431.602 L 263.562 431.602 L 263.562 431.602 Q 263.914 432.668 263.914 434.016 L 263.914 434.016 L 263.914 434.016 Q 263.914 435.164 263.574 436.196 L 263.574 436.196 L 263.574 436.196 Q 263.234 437.227 262.531 438.012 L 262.531 438.012 L 262.531 438.012 Q 261.828 438.797 260.762 439.254 L 260.762 439.254 L 260.762 439.254 Q 259.695 439.711 258.242 439.711 L 258.242 439.711 L 258.242 439.711 Q 257.14 439.711 256.115 439.383 L 256.115 439.383 L 256.115 439.383 Q 255.09 439.055 254.293 438.422 L 254.293 438.422 L 254.293 438.422 Q 253.496 437.789 252.998 436.869 L 252.998 436.869 L 252.998 436.869 Q 252.5 435.949 252.465 434.766 L 252.465 434.766 L 255.676 434.766 L 255.676 434.766 Q 255.793 435.879 256.478 436.489 L 256.478 436.489 L 256.478 436.489 Q 257.164 437.098 258.23 437.098 L 258.23 437.098 L 258.23 437.098 Q 258.887 437.098 259.349 436.852 L 259.349 436.852 L 259.349 436.852 Q 259.812 436.606 260.099 436.172 L 260.099 436.172 L 260.099 436.172 Q 260.387 435.739 260.521 435.141 L 260.521 435.141 L 260.521 435.141 Q 260.656 434.543 260.656 433.852 L 260.656 433.852 L 260.656 433.852 Q 260.656 433.172 260.486 432.604 L 260.486 432.604 L 260.486 432.604 Q 260.316 432.035 259.965 431.625 L 259.965 431.625 L 259.965 431.625 Q 259.613 431.215 259.086 430.992 L 259.086 430.992 L 259.086 430.992 Q 258.558 430.77 257.844 430.77 L 257.844 430.77 L 257.844 430.77 Q 257.363 430.77 257.012 430.852 L 257.012 430.852 L 257.012 430.852 Q 256.66 430.934 256.39 431.063 L 256.39 431.063 L 256.39 431.063 Q 256.121 431.192 255.91 431.362 L 255.91 431.362 L 255.91 431.362 Q 255.699 431.531 255.512 431.719 L 255.512 431.719 Z " fill="rgb(0,0,0)"/></g><g id="C6"><path d=" M 308.947 431.862 C 308.947 419.605 318.898 409.655 331.155 409.655 C 343.411 409.655 353.362 419.605 353.362 431.862 C 353.362 444.118 343.411 454.069 331.155 454.069 C 318.898 454.069 308.947 444.118 308.947 431.862 Z " fill="rgb(209,209,209)" vector-effect="non-scaling-stroke" stroke-width="2" stroke="rgb(0,0,0)" stroke-linejoin="miter" stroke-linecap="square" stroke-miterlimit="3"/><path d=" M 332.821 423.981 L 333.254 423.981 L 333.254 426.688 L 333.067 426.688 L 333.067 426.688 Q 331.778 426.688 330.788 427.028 L 330.788 427.028 L 330.788 427.028 Q 329.797 427.368 329.1 427.989 L 329.1 427.989 L 329.1 427.989 Q 328.403 428.61 327.999 429.477 L 327.999 429.477 L 327.999 429.477 Q 327.594 430.344 327.489 431.411 L 327.489 431.411 L 327.489 431.411 Q 327.758 431.118 328.11 430.831 L 328.11 430.831 L 328.11 430.831 Q 328.461 430.543 328.901 430.315 L 328.901 430.315 L 328.901 430.315 Q 329.34 430.086 329.856 429.946 L 329.856 429.946 L 329.856 429.946 Q 330.372 429.805 330.969 429.805 L 330.969 429.805 L 330.969 429.805 Q 332.188 429.805 333.096 430.268 L 333.096 430.268 L 333.096 430.268 Q 334.004 430.731 334.614 431.522 L 334.614 431.522 L 334.614 431.522 Q 335.223 432.313 335.522 433.362 L 335.522 433.362 L 335.522 433.362 Q 335.821 434.411 335.821 435.571 L 335.821 435.571 L 335.821 435.571 Q 335.821 436.813 335.422 437.879 L 335.422 437.879 L 335.422 437.879 Q 335.024 438.946 334.286 439.731 L 334.286 439.731 L 334.286 439.731 Q 333.547 440.516 332.493 440.967 L 332.493 440.967 L 332.493 440.967 Q 331.438 441.418 330.126 441.418 L 330.126 441.418 L 330.126 441.418 Q 328.754 441.418 327.653 440.909 L 327.653 440.909 L 327.653 440.909 Q 326.551 440.399 325.784 439.497 L 325.784 439.497 L 325.784 439.497 Q 325.016 438.594 324.6 437.358 L 324.6 437.358 L 324.6 437.358 Q 324.184 436.122 324.184 434.657 L 324.184 434.657 L 324.184 433.403 L 324.184 433.403 Q 324.184 431.376 324.735 429.647 L 324.735 429.647 L 324.735 429.647 Q 325.286 427.918 326.376 426.659 L 326.376 426.659 L 326.376 426.659 Q 327.465 425.399 329.083 424.69 L 329.083 424.69 L 329.083 424.69 Q 330.7 423.981 332.821 423.981 L 332.821 423.981 Z  M 330.02 432.418 L 330.02 432.418 L 330.02 432.418 Q 329.141 432.418 328.467 432.887 L 328.467 432.887 L 328.467 432.887 Q 327.793 433.356 327.454 434.094 L 327.454 434.094 L 327.454 435.055 L 327.454 435.055 Q 327.454 435.993 327.647 436.696 L 327.647 436.696 L 327.647 436.696 Q 327.84 437.399 328.192 437.862 L 328.192 437.862 L 328.192 437.862 Q 328.543 438.325 329.024 438.559 L 329.024 438.559 L 329.024 438.559 Q 329.504 438.793 330.067 438.793 L 330.067 438.793 L 330.067 438.793 Q 330.641 438.793 331.11 438.553 L 331.11 438.553 L 331.11 438.553 Q 331.579 438.313 331.907 437.891 L 331.907 437.891 L 331.907 437.891 Q 332.235 437.469 332.411 436.889 L 332.411 436.889 L 332.411 436.889 Q 332.586 436.309 332.586 435.618 L 332.586 435.618 L 332.586 435.618 Q 332.586 434.926 332.411 434.34 L 332.411 434.34 L 332.411 434.34 Q 332.235 433.754 331.907 433.327 L 331.907 433.327 L 331.907 433.327 Q 331.579 432.899 331.104 432.659 L 331.104 432.659 L 331.104 432.659 Q 330.629 432.418 330.02 432.418 Z " fill-rule="evenodd" fill="rgb(0,0,0)"/></g><g id="C8"><path d=" M 382.215 431.862 C 382.215 419.605 392.166 409.655 404.423 409.655 C 416.679 409.655 426.63 419.605 426.63 431.862 C 426.63 444.118 416.679 454.069 404.423 454.069 C 392.166 454.069 382.215 444.118 382.215 431.862 Z " fill="rgb(209,209,209)" vector-effect="non-scaling-stroke" stroke-width="2" stroke="rgb(0,0,0)" stroke-linejoin="miter" stroke-linecap="square" stroke-miterlimit="3"/><path d=" M 408.018 424.122 L 408.018 425.938 L 401.374 441.184 L 397.94 441.184 L 404.597 426.782 L 396.03 426.782 L 396.03 424.122 L 408.018 424.122 Z " fill="rgb(0,0,0)"/></g><line x1="104.207" y1="337.155" x2="449" y2="337.155" vector-effect="non-scaling-stroke" stroke-width="2" stroke="rgb(0,0,0)" stroke-linejoin="miter" stroke-linecap="square" stroke-miterlimit="3"/><g id="Bmaster"><path d="M 250.684 270.845 L 335.332 270.845 C 339.569 270.845 343.008 274.285 343.008 278.522 L 343.008 300.169 C 343.008 304.406 339.569 307.845 335.332 307.845 L 250.684 307.845 C 246.448 307.845 243.008 304.406 243.008 300.169 L 243.008 278.522 C 243.008 274.285 246.448 270.845 250.684 270.845 Z" style="stroke:none;fill:#9FC4FF;stroke-linecap:square;stroke-miterlimit:3;"/><path d="M 250.684 270.845 L 335.332 270.845 C 339.569 270.845 343.008 274.285 343.008 278.522 L 343.008 300.169 C 343.008 304.406 339.569 307.845 335.332 307.845 L 250.684 307.845 C 246.448 307.845 243.008 304.406 243.008 300.169 L 243.008 278.522 C 243.008 274.285 246.448 270.845 250.684 270.845 Z" style="fill:none;stroke:#000000;stroke-width:1.6855342301554246;stroke-linecap:square;stroke-miterlimit:3;"/><path d=" M 269.226 292.227 L 269.226 297.706 L 266.247 297.706 L 266.247 291.329 L 266.247 291.329 Q 266.247 290.147 265.852 289.557 L 265.852 289.557 L 265.852 289.557 Q 265.456 288.966 264.607 288.966 L 264.607 288.966 L 264.607 288.966 Q 263.464 288.966 262.947 289.806 L 262.947 289.806 L 262.947 289.806 Q 262.429 290.645 262.429 292.569 L 262.429 292.569 L 262.429 297.706 L 259.451 297.706 L 259.451 286.788 L 261.726 286.788 L 262.126 288.185 L 262.292 288.185 L 262.292 288.185 Q 262.732 287.433 263.562 287.008 L 263.562 287.008 L 263.562 287.008 Q 264.392 286.583 265.466 286.583 L 265.466 286.583 L 265.466 286.583 Q 267.917 286.583 268.786 288.185 L 268.786 288.185 L 269.05 288.185 L 269.05 288.185 Q 269.49 287.423 270.344 287.003 L 270.344 287.003 L 270.344 287.003 Q 271.199 286.583 272.273 286.583 L 272.273 286.583 L 272.273 286.583 Q 274.128 286.583 275.08 287.535 L 275.08 287.535 L 275.08 287.535 Q 276.033 288.487 276.033 290.587 L 276.033 290.587 L 276.033 297.706 L 273.044 297.706 L 273.044 291.329 L 273.044 291.329 Q 273.044 290.147 272.649 289.557 L 272.649 289.557 L 272.649 289.557 Q 272.253 288.966 271.404 288.966 L 271.404 288.966 L 271.404 288.966 Q 270.31 288.966 269.768 289.747 L 269.768 289.747 L 269.768 289.747 Q 269.226 290.528 269.226 292.227 L 269.226 292.227 Z  M 288.103 297.706 L 286.023 297.706 L 285.447 296.222 L 285.369 296.222 L 285.369 296.222 Q 284.617 297.169 283.821 297.535 L 283.821 297.535 L 283.821 297.535 Q 283.025 297.901 281.745 297.901 L 281.745 297.901 L 281.745 297.901 Q 280.173 297.901 279.27 297.003 L 279.27 297.003 L 279.27 297.003 Q 278.367 296.104 278.367 294.444 L 278.367 294.444 L 278.367 294.444 Q 278.367 292.706 279.582 291.881 L 279.582 291.881 L 279.582 291.881 Q 280.798 291.056 283.249 290.968 L 283.249 290.968 L 285.144 290.909 L 285.144 290.431 L 285.144 290.431 Q 285.144 288.77 283.445 288.77 L 283.445 288.77 L 283.445 288.77 Q 282.136 288.77 280.369 289.561 L 280.369 289.561 L 279.382 287.55 L 279.382 287.55 Q 281.267 286.563 283.562 286.563 L 283.562 286.563 L 283.562 286.563 Q 285.759 286.563 286.931 287.52 L 286.931 287.52 L 286.931 287.52 Q 288.103 288.477 288.103 290.431 L 288.103 290.431 L 288.103 297.706 Z  M 285.144 293.546 L 285.144 292.647 L 283.992 292.686 L 283.992 292.686 Q 282.693 292.726 282.058 293.155 L 282.058 293.155 L 282.058 293.155 Q 281.423 293.585 281.423 294.464 L 281.423 294.464 L 281.423 294.464 Q 281.423 295.724 282.869 295.724 L 282.869 295.724 L 282.869 295.724 Q 283.904 295.724 284.524 295.128 L 284.524 295.128 L 284.524 295.128 Q 285.144 294.532 285.144 293.546 L 285.144 293.546 Z  M 298.786 294.464 L 298.786 294.464 L 298.786 294.464 Q 298.786 296.143 297.619 297.022 L 297.619 297.022 L 297.619 297.022 Q 296.452 297.901 294.128 297.901 L 294.128 297.901 L 294.128 297.901 Q 292.937 297.901 292.097 297.74 L 292.097 297.74 L 292.097 297.74 Q 291.257 297.579 290.525 297.267 L 290.525 297.267 L 290.525 294.806 L 290.525 294.806 Q 291.355 295.196 292.395 295.46 L 292.395 295.46 L 292.395 295.46 Q 293.435 295.724 294.226 295.724 L 294.226 295.724 L 294.226 295.724 Q 295.847 295.724 295.847 294.786 L 295.847 294.786 L 295.847 294.786 Q 295.847 294.435 295.632 294.215 L 295.632 294.215 L 295.632 294.215 Q 295.417 293.995 294.89 293.717 L 294.89 293.717 L 294.89 293.717 Q 294.363 293.438 293.484 293.067 L 293.484 293.067 L 293.484 293.067 Q 292.224 292.54 291.633 292.091 L 291.633 292.091 L 291.633 292.091 Q 291.042 291.642 290.774 291.06 L 290.774 291.06 L 290.774 291.06 Q 290.505 290.479 290.505 289.63 L 290.505 289.63 L 290.505 289.63 Q 290.505 288.175 291.633 287.379 L 291.633 287.379 L 291.633 287.379 Q 292.761 286.583 294.831 286.583 L 294.831 286.583 L 294.831 286.583 Q 296.804 286.583 298.669 287.442 L 298.669 287.442 L 297.771 289.591 L 297.771 289.591 Q 296.951 289.239 296.238 289.015 L 296.238 289.015 L 296.238 289.015 Q 295.525 288.79 294.783 288.79 L 294.783 288.79 L 294.783 288.79 Q 293.464 288.79 293.464 289.503 L 293.464 289.503 L 293.464 289.503 Q 293.464 289.903 293.889 290.196 L 293.889 290.196 L 293.889 290.196 Q 294.314 290.489 295.749 291.065 L 295.749 291.065 L 295.749 291.065 Q 297.029 291.583 297.624 292.032 L 297.624 292.032 L 297.624 292.032 Q 298.22 292.481 298.503 293.067 L 298.503 293.067 L 298.503 293.067 Q 298.786 293.653 298.786 294.464 Z  M 305.71 295.528 L 305.71 295.528 L 305.71 295.528 Q 306.492 295.528 307.585 295.186 L 307.585 295.186 L 307.585 297.403 L 307.585 297.403 Q 306.472 297.901 304.851 297.901 L 304.851 297.901 L 304.851 297.901 Q 303.064 297.901 302.248 296.998 L 302.248 296.998 L 302.248 296.998 Q 301.433 296.095 301.433 294.288 L 301.433 294.288 L 301.433 289.024 L 300.007 289.024 L 300.007 287.765 L 301.648 286.768 L 302.507 284.464 L 304.411 284.464 L 304.411 286.788 L 307.468 286.788 L 307.468 289.024 L 304.411 289.024 L 304.411 294.288 L 304.411 294.288 Q 304.411 294.923 304.768 295.226 L 304.768 295.226 L 304.768 295.226 Q 305.124 295.528 305.71 295.528 Z  M 314.314 288.702 L 314.314 288.702 L 314.314 288.702 Q 313.367 288.702 312.829 289.303 L 312.829 289.303 L 312.829 289.303 Q 312.292 289.903 312.214 291.007 L 312.214 291.007 L 316.394 291.007 L 316.394 291.007 Q 316.374 289.903 315.818 289.303 L 315.818 289.303 L 315.818 289.303 Q 315.261 288.702 314.314 288.702 Z  M 314.734 297.901 L 314.734 297.901 L 314.734 297.901 Q 312.097 297.901 310.613 296.446 L 310.613 296.446 L 310.613 296.446 Q 309.128 294.991 309.128 292.325 L 309.128 292.325 L 309.128 292.325 Q 309.128 289.581 310.5 288.082 L 310.5 288.082 L 310.5 288.082 Q 311.872 286.583 314.294 286.583 L 314.294 286.583 L 314.294 286.583 Q 316.609 286.583 317.898 287.901 L 317.898 287.901 L 317.898 287.901 Q 319.187 289.22 319.187 291.544 L 319.187 291.544 L 319.187 292.989 L 312.146 292.989 L 312.146 292.989 Q 312.195 294.259 312.898 294.972 L 312.898 294.972 L 312.898 294.972 Q 313.601 295.685 314.87 295.685 L 314.87 295.685 L 314.87 295.685 Q 315.857 295.685 316.736 295.479 L 316.736 295.479 L 316.736 295.479 Q 317.615 295.274 318.572 294.825 L 318.572 294.825 L 318.572 297.13 L 318.572 297.13 Q 317.79 297.52 316.902 297.711 L 316.902 297.711 L 316.902 297.711 Q 316.013 297.901 314.734 297.901 Z  M 327.702 286.583 L 327.702 286.583 L 327.702 286.583 Q 328.308 286.583 328.708 286.671 L 328.708 286.671 L 328.484 289.464 L 328.484 289.464 Q 328.122 289.366 327.605 289.366 L 327.605 289.366 L 327.605 289.366 Q 326.179 289.366 325.383 290.099 L 325.383 290.099 L 325.383 290.099 Q 324.587 290.831 324.587 292.149 L 324.587 292.149 L 324.587 297.706 L 321.609 297.706 L 321.609 286.788 L 323.865 286.788 L 324.304 288.624 L 324.451 288.624 L 324.451 288.624 Q 324.958 287.706 325.823 287.144 L 325.823 287.144 L 325.823 287.144 Q 326.687 286.583 327.702 286.583 Z " fill-rule="evenodd" fill="rgb(0,0,0)"/></g><g id="Bfeat1"><path d="M 361.099 367.655 L 445.747 367.655 C 449.983 367.655 453.423 371.094 453.423 375.331 L 453.423 396.978 C 453.423 401.215 449.983 404.655 445.747 404.655 L 361.099 404.655 C 356.862 404.655 353.423 401.215 353.423 396.978 L 353.423 375.331 C 353.423 371.094 356.862 367.655 361.099 367.655 Z" style="stroke:none;fill:#D1D1D1;stroke-linecap:square;stroke-miterlimit:3;"/><path d="M 361.099 367.655 L 445.747 367.655 C 449.983 367.655 453.423 371.094 453.423 375.331 L 453.423 396.978 C 453.423 401.215 449.983 404.655 445.747 404.655 L 361.099 404.655 C 356.862 404.655 353.423 401.215 353.423 396.978 L 353.423 375.331 C 353.423 371.094 356.862 367.655 361.099 367.655 Z" style="fill:none;stroke:#000000;stroke-width:1.6855342301554246;stroke-linecap:square;stroke-miterlimit:3;"/><path d=" M 383.651 382.995 L 383.651 385.232 L 381.073 385.232 L 381.073 393.913 L 378.095 393.913 L 378.095 385.232 L 376.454 385.232 L 376.454 383.796 L 378.095 382.995 L 378.095 382.195 L 378.095 382.195 Q 378.095 380.329 379.013 379.47 L 379.013 379.47 L 379.013 379.47 Q 379.931 378.611 381.952 378.611 L 381.952 378.611 L 381.952 378.611 Q 383.495 378.611 384.696 379.07 L 384.696 379.07 L 383.935 381.257 L 383.935 381.257 Q 383.036 380.974 382.274 380.974 L 382.274 380.974 L 382.274 380.974 Q 381.64 380.974 381.356 381.35 L 381.356 381.35 L 381.356 381.35 Q 381.073 381.726 381.073 382.312 L 381.073 382.312 L 381.073 382.995 L 383.651 382.995 Z  M 389.882 384.909 L 389.882 384.909 L 389.882 384.909 Q 388.935 384.909 388.397 385.51 L 388.397 385.51 L 388.397 385.51 Q 387.86 386.111 387.782 387.214 L 387.782 387.214 L 391.962 387.214 L 391.962 387.214 Q 391.942 386.111 391.386 385.51 L 391.386 385.51 L 391.386 385.51 Q 390.829 384.909 389.882 384.909 Z  M 390.302 394.109 L 390.302 394.109 L 390.302 394.109 Q 387.665 394.109 386.181 392.654 L 386.181 392.654 L 386.181 392.654 Q 384.696 391.198 384.696 388.532 L 384.696 388.532 L 384.696 388.532 Q 384.696 385.788 386.068 384.289 L 386.068 384.289 L 386.068 384.289 Q 387.44 382.79 389.862 382.79 L 389.862 382.79 L 389.862 382.79 Q 392.177 382.79 393.466 384.109 L 393.466 384.109 L 393.466 384.109 Q 394.755 385.427 394.755 387.751 L 394.755 387.751 L 394.755 389.197 L 387.714 389.197 L 387.714 389.197 Q 387.763 390.466 388.466 391.179 L 388.466 391.179 L 388.466 391.179 Q 389.169 391.892 390.438 391.892 L 390.438 391.892 L 390.438 391.892 Q 391.425 391.892 392.304 391.687 L 392.304 391.687 L 392.304 391.687 Q 393.183 391.482 394.14 391.032 L 394.14 391.032 L 394.14 393.337 L 394.14 393.337 Q 393.358 393.728 392.47 393.918 L 392.47 393.918 L 392.47 393.918 Q 391.581 394.109 390.302 394.109 Z  M 406.19 393.913 L 404.11 393.913 L 403.534 392.429 L 403.456 392.429 L 403.456 392.429 Q 402.704 393.376 401.908 393.742 L 401.908 393.742 L 401.908 393.742 Q 401.112 394.109 399.833 394.109 L 399.833 394.109 L 399.833 394.109 Q 398.261 394.109 397.357 393.21 L 397.357 393.21 L 397.357 393.21 Q 396.454 392.312 396.454 390.652 L 396.454 390.652 L 396.454 390.652 Q 396.454 388.913 397.67 388.088 L 397.67 388.088 L 397.67 388.088 Q 398.886 387.263 401.337 387.175 L 401.337 387.175 L 403.231 387.116 L 403.231 386.638 L 403.231 386.638 Q 403.231 384.978 401.532 384.978 L 401.532 384.978 L 401.532 384.978 Q 400.224 384.978 398.456 385.769 L 398.456 385.769 L 397.47 383.757 L 397.47 383.757 Q 399.354 382.771 401.649 382.771 L 401.649 382.771 L 401.649 382.771 Q 403.847 382.771 405.018 383.728 L 405.018 383.728 L 405.018 383.728 Q 406.19 384.685 406.19 386.638 L 406.19 386.638 L 406.19 393.913 Z  M 403.231 389.753 L 403.231 388.855 L 402.079 388.894 L 402.079 388.894 Q 400.78 388.933 400.145 389.363 L 400.145 389.363 L 400.145 389.363 Q 399.511 389.792 399.511 390.671 L 399.511 390.671 L 399.511 390.671 Q 399.511 391.931 400.956 391.931 L 400.956 391.931 L 400.956 391.931 Q 401.991 391.931 402.611 391.335 L 402.611 391.335 L 402.611 391.335 Q 403.231 390.739 403.231 389.753 L 403.231 389.753 Z  M 413.856 391.736 L 413.856 391.736 L 413.856 391.736 Q 414.638 391.736 415.731 391.394 L 415.731 391.394 L 415.731 393.611 L 415.731 393.611 Q 414.618 394.109 412.997 394.109 L 412.997 394.109 L 412.997 394.109 Q 411.21 394.109 410.394 393.205 L 410.394 393.205 L 410.394 393.205 Q 409.579 392.302 409.579 390.495 L 409.579 390.495 L 409.579 385.232 L 408.153 385.232 L 408.153 383.972 L 409.794 382.976 L 410.653 380.671 L 412.558 380.671 L 412.558 382.995 L 415.614 382.995 L 415.614 385.232 L 412.558 385.232 L 412.558 390.495 L 412.558 390.495 Q 412.558 391.13 412.914 391.433 L 412.914 391.433 L 412.914 391.433 Q 413.27 391.736 413.856 391.736 Z  M 424.638 379.636 L 424.638 393.913 L 421.62 393.913 L 421.62 385.652 L 421.649 384.294 L 421.698 382.81 L 421.698 382.81 Q 420.946 383.562 420.653 383.796 L 420.653 383.796 L 419.013 385.114 L 417.558 383.298 L 422.157 379.636 L 424.638 379.636 Z " fill-rule="evenodd" fill="rgb(0,0,0)"/></g><g id="c1"><path d=" M 82 337.155 C 82 324.898 91.951 314.947 104.207 314.947 C 116.464 314.947 126.415 324.898 126.415 337.155 C 126.415 349.411 116.464 359.362 104.207 359.362 C 91.951 359.362 82 349.411 82 337.155 Z " fill="rgb(195,215,247)" vector-effect="non-scaling-stroke" stroke-width="2" stroke="rgb(0,0,0)" stroke-linejoin="miter" stroke-linecap="square" stroke-miterlimit="3"/><path d=" M 105.639 329.414 L 105.639 346.477 L 102.346 346.477 L 102.346 333.387 L 98.033 334.934 L 98.033 332.098 L 105.463 329.414 L 105.639 329.414 Z " fill="rgb(0,0,0)"/></g><g id="c2"><path d=" M 145.207 337.155 C 145.207 324.898 155.158 314.947 167.415 314.947 C 179.671 314.947 189.622 324.898 189.622 337.155 C 189.622 349.411 179.671 359.362 167.415 359.362 C 155.158 359.362 145.207 349.411 145.207 337.155 Z " fill="rgb(195,215,247)" vector-effect="non-scaling-stroke" stroke-width="2" stroke="rgb(0,0,0)" stroke-linejoin="miter" stroke-linecap="square" stroke-miterlimit="3"/><path d=" M 172.022 343.864 L 172.022 346.477 L 160.385 346.477 L 160.385 344.25 L 165.905 338.321 L 165.905 338.321 Q 166.549 337.617 166.995 337.043 L 166.995 337.043 L 166.995 337.043 Q 167.44 336.469 167.715 335.994 L 167.715 335.994 L 167.715 335.994 Q 167.991 335.52 168.114 335.11 L 168.114 335.11 L 168.114 335.11 Q 168.237 334.699 168.237 334.313 L 168.237 334.313 L 168.237 334.313 Q 168.237 333.739 168.073 333.293 L 168.073 333.293 L 168.073 333.293 Q 167.909 332.848 167.61 332.537 L 167.61 332.537 L 167.61 332.537 Q 167.311 332.227 166.895 332.063 L 166.895 332.063 L 166.895 332.063 Q 166.479 331.899 165.975 331.899 L 165.975 331.899 L 165.975 331.899 Q 164.628 331.899 163.965 332.649 L 163.965 332.649 L 163.965 332.649 Q 163.303 333.399 163.303 334.746 L 163.303 334.746 L 160.034 334.746 L 160.034 334.746 Q 160.034 333.61 160.467 332.596 L 160.467 332.596 L 160.467 332.596 Q 160.901 331.582 161.692 330.821 L 161.692 330.821 L 161.692 330.821 Q 162.483 330.059 163.602 329.619 L 163.602 329.619 L 163.602 329.619 Q 164.721 329.18 166.081 329.18 L 166.081 329.18 L 166.081 329.18 Q 167.381 329.18 168.383 329.543 L 168.383 329.543 L 168.383 329.543 Q 169.385 329.906 170.059 330.563 L 170.059 330.563 L 170.059 330.563 Q 170.733 331.219 171.085 332.139 L 171.085 332.139 L 171.085 332.139 Q 171.436 333.059 171.436 334.172 L 171.436 334.172 L 171.436 334.172 Q 171.436 335.016 171.172 335.783 L 171.172 335.783 L 171.172 335.783 Q 170.909 336.551 170.422 337.301 L 170.422 337.301 L 170.422 337.301 Q 169.936 338.051 169.256 338.83 L 169.256 338.83 L 169.256 338.83 Q 168.577 339.61 167.745 340.465 L 167.745 340.465 L 164.534 343.864 L 172.022 343.864 Z " fill="rgb(0,0,0)"/></g><g id="C3"><path d=" M 208.415 337.155 C 208.415 324.898 218.365 314.947 230.622 314.947 C 242.879 314.947 252.829 324.898 252.829 337.155 C 252.829 349.411 242.879 359.362 230.622 359.362 C 218.365 359.362 208.415 349.411 208.415 337.155 Z " fill="rgb(195,215,247)" vector-effect="non-scaling-stroke" stroke-width="2" stroke="rgb(0,0,0)" stroke-linejoin="miter" stroke-linecap="square" stroke-miterlimit="3"/><path d=" M 227.354 339.047 L 227.354 336.516 L 229.124 336.516 L 229.124 336.516 Q 230.46 336.516 231.104 335.842 L 231.104 335.842 L 231.104 335.842 Q 231.749 335.168 231.749 334.078 L 231.749 334.078 L 231.749 334.078 Q 231.749 333.574 231.602 333.158 L 231.602 333.158 L 231.602 333.158 Q 231.456 332.742 231.163 332.444 L 231.163 332.444 L 231.163 332.444 Q 230.87 332.145 230.419 331.981 L 230.419 331.981 L 230.419 331.981 Q 229.968 331.817 229.37 331.817 L 229.37 331.817 L 229.37 331.817 Q 228.878 331.817 228.45 331.957 L 228.45 331.957 L 228.45 331.957 Q 228.022 332.098 227.7 332.362 L 227.7 332.362 L 227.7 332.362 Q 227.378 332.625 227.19 333 L 227.19 333 L 227.19 333 Q 227.003 333.375 227.003 333.844 L 227.003 333.844 L 223.745 333.844 L 223.745 333.844 Q 223.745 332.801 224.173 331.946 L 224.173 331.946 L 224.173 331.946 Q 224.6 331.09 225.35 330.475 L 225.35 330.475 L 225.35 330.475 Q 226.1 329.86 227.114 329.52 L 227.114 329.52 L 227.114 329.52 Q 228.128 329.18 229.3 329.18 L 229.3 329.18 L 229.3 329.18 Q 230.565 329.18 231.62 329.49 L 231.62 329.49 L 231.62 329.49 Q 232.675 329.801 233.425 330.416 L 233.425 330.416 L 233.425 330.416 Q 234.175 331.031 234.591 331.94 L 234.591 331.94 L 234.591 331.94 Q 235.007 332.848 235.007 334.043 L 235.007 334.043 L 235.007 334.043 Q 235.007 334.594 234.843 335.127 L 234.843 335.127 L 234.843 335.127 Q 234.679 335.66 234.362 336.141 L 234.362 336.141 L 234.362 336.141 Q 234.046 336.621 233.577 337.026 L 233.577 337.026 L 233.577 337.026 Q 233.108 337.43 232.499 337.723 L 232.499 337.723 L 232.499 337.723 Q 233.214 337.981 233.735 338.379 L 233.735 338.379 L 233.735 338.379 Q 234.257 338.778 234.597 339.287 L 234.597 339.287 L 234.597 339.287 Q 234.936 339.797 235.1 340.406 L 235.1 340.406 L 235.1 340.406 Q 235.265 341.016 235.265 341.696 L 235.265 341.696 L 235.265 341.696 Q 235.265 342.891 234.808 343.828 L 234.808 343.828 L 234.808 343.828 Q 234.35 344.766 233.554 345.405 L 233.554 345.405 L 233.554 345.405 Q 232.757 346.043 231.661 346.377 L 231.661 346.377 L 231.661 346.377 Q 230.565 346.711 229.3 346.711 L 229.3 346.711 L 229.3 346.711 Q 228.21 346.711 227.173 346.412 L 227.173 346.412 L 227.173 346.412 Q 226.136 346.114 225.327 345.51 L 225.327 345.51 L 225.327 345.51 Q 224.518 344.906 224.032 343.992 L 224.032 343.992 L 224.032 343.992 Q 223.546 343.078 223.546 341.836 L 223.546 341.836 L 226.804 341.836 L 226.804 341.836 Q 226.804 342.328 226.991 342.744 L 226.991 342.744 L 226.991 342.744 Q 227.179 343.16 227.524 343.459 L 227.524 343.459 L 227.524 343.459 Q 227.87 343.758 228.339 343.928 L 228.339 343.928 L 228.339 343.928 Q 228.808 344.098 229.37 344.098 L 229.37 344.098 L 229.37 344.098 Q 230.612 344.098 231.315 343.442 L 231.315 343.442 L 231.315 343.442 Q 232.018 342.785 232.018 341.66 L 232.018 341.66 L 232.018 341.66 Q 232.018 340.969 231.819 340.477 L 231.819 340.477 L 231.819 340.477 Q 231.62 339.985 231.239 339.668 L 231.239 339.668 L 231.239 339.668 Q 230.858 339.352 230.325 339.199 L 230.325 339.199 L 230.325 339.199 Q 229.792 339.047 229.124 339.047 L 229.124 339.047 L 227.354 339.047 Z " fill="rgb(0,0,0)"/></g><g id="C4"><path d=" M 271.622 337.155 C 271.622 324.898 281.573 314.947 293.829 314.947 C 306.086 314.947 316.037 324.898 316.037 337.155 C 316.037 349.411 306.086 359.362 293.829 359.362 C 281.573 359.362 271.622 349.411 271.622 337.155 Z " fill="rgb(195,215,247)" vector-effect="non-scaling-stroke" stroke-width="2" stroke="rgb(0,0,0)" stroke-linejoin="miter" stroke-linecap="square" stroke-miterlimit="3"/><path d=" M 296.796 329.414 L 296.796 340.137 L 298.777 340.137 L 298.777 342.774 L 296.796 342.774 L 296.796 346.477 L 293.538 346.477 L 293.538 342.774 L 286.448 342.774 L 286.32 340.735 L 293.491 329.414 L 296.796 329.414 Z  M 293.222 334.36 L 289.519 340.137 L 293.538 340.137 L 293.538 333.797 L 293.222 334.36 Z " fill-rule="evenodd" fill="rgb(0,0,0)"/></g><path d=" M 48 223 L 682 223 L 751 223" fill="none" vector-effect="non-scaling-stroke" stroke-width="3" stroke="rgb(0,0,0)" stroke-linejoin="miter" stroke-linecap="square" stroke-miterlimit="3"/><g id="C11"><path d=" M 352.693 193.896 C 352.693 181.64 362.644 171.689 374.9 171.689 C 387.157 171.689 397.108 181.64 397.108 193.896 C 397.108 206.153 387.157 216.104 374.9 216.104 C 362.644 216.104 352.693 206.153 352.693 193.896 Z " fill="rgb(211,240,193)" vector-effect="non-scaling-stroke" stroke-width="2" stroke="rgb(0,0,0)" stroke-linejoin="miter" stroke-linecap="square" stroke-miterlimit="3"/><path d=" M 379.063 190.691 L 379.063 190.691 L 379.063 190.691 Q 379.063 191.933 378.436 192.9 L 378.436 192.9 L 378.436 192.9 Q 377.809 193.867 376.719 194.441 L 376.719 194.441 L 376.719 194.441 Q 377.961 195.027 378.693 196.082 L 378.693 196.082 L 378.693 196.082 Q 379.426 197.137 379.426 198.555 L 379.426 198.555 L 379.426 198.555 Q 379.426 199.762 378.986 200.676 L 378.986 200.676 L 378.986 200.676 Q 378.547 201.59 377.779 202.205 L 377.779 202.205 L 377.779 202.205 Q 377.012 202.82 375.969 203.137 L 375.969 203.137 L 375.969 203.137 Q 374.926 203.453 373.719 203.453 L 373.719 203.453 L 373.719 203.453 Q 372.5 203.453 371.451 203.137 L 371.451 203.137 L 371.451 203.137 Q 370.402 202.82 369.629 202.205 L 369.629 202.205 L 369.629 202.205 Q 368.856 201.59 368.416 200.676 L 368.416 200.676 L 368.416 200.676 Q 367.977 199.762 367.977 198.555 L 367.977 198.555 L 367.977 198.555 Q 367.977 197.851 368.17 197.224 L 368.17 197.224 L 368.17 197.224 Q 368.363 196.598 368.715 196.076 L 368.715 196.076 L 368.715 196.076 Q 369.066 195.555 369.565 195.139 L 369.565 195.139 L 369.565 195.139 Q 370.063 194.723 370.684 194.43 L 370.684 194.43 L 370.684 194.43 Q 369.594 193.867 368.973 192.9 L 368.973 192.9 L 368.973 192.9 Q 368.352 191.933 368.352 190.691 L 368.352 190.691 L 368.352 190.691 Q 368.352 189.531 368.75 188.646 L 368.75 188.646 L 368.75 188.646 Q 369.149 187.762 369.858 187.152 L 369.858 187.152 L 369.858 187.152 Q 370.566 186.543 371.545 186.232 L 371.545 186.232 L 371.545 186.232 Q 372.524 185.922 373.684 185.922 L 373.684 185.922 L 373.684 185.922 Q 374.844 185.922 375.828 186.232 L 375.828 186.232 L 375.828 186.232 Q 376.813 186.543 377.533 187.152 L 377.533 187.152 L 377.533 187.152 Q 378.254 187.762 378.658 188.646 L 378.658 188.646 L 378.658 188.646 Q 379.063 189.531 379.063 190.691 Z  M 376.156 198.332 L 376.156 198.332 L 376.156 198.332 Q 376.156 197.746 375.981 197.277 L 375.981 197.277 L 375.981 197.277 Q 375.805 196.808 375.483 196.474 L 375.483 196.474 L 375.483 196.474 Q 375.16 196.14 374.709 195.965 L 374.709 195.965 L 374.709 195.965 Q 374.258 195.789 373.695 195.789 L 373.695 195.789 L 373.695 195.789 Q 373.133 195.789 372.682 195.965 L 372.682 195.965 L 372.682 195.965 Q 372.231 196.14 371.914 196.474 L 371.914 196.474 L 371.914 196.474 Q 371.598 196.808 371.422 197.277 L 371.422 197.277 L 371.422 197.277 Q 371.246 197.746 371.246 198.332 L 371.246 198.332 L 371.246 198.332 Q 371.246 199.504 371.914 200.172 L 371.914 200.172 L 371.914 200.172 Q 372.582 200.84 373.719 200.84 L 373.719 200.84 L 373.719 200.84 Q 374.258 200.84 374.703 200.67 L 374.703 200.67 L 374.703 200.67 Q 375.149 200.5 375.471 200.172 L 375.471 200.172 L 375.471 200.172 Q 375.793 199.844 375.975 199.381 L 375.975 199.381 L 375.975 199.381 Q 376.156 198.918 376.156 198.332 Z  M 375.816 190.844 L 375.816 190.844 L 375.816 190.844 Q 375.816 190.328 375.664 189.906 L 375.664 189.906 L 375.664 189.906 Q 375.512 189.484 375.236 189.185 L 375.236 189.185 L 375.236 189.185 Q 374.961 188.887 374.568 188.723 L 374.568 188.723 L 374.568 188.723 Q 374.176 188.558 373.684 188.558 L 373.684 188.558 L 373.684 188.558 Q 372.688 188.558 372.149 189.168 L 372.149 189.168 L 372.149 189.168 Q 371.609 189.777 371.609 190.844 L 371.609 190.844 L 371.609 190.844 Q 371.609 191.359 371.75 191.787 L 371.75 191.787 L 371.75 191.787 Q 371.891 192.215 372.166 192.519 L 372.166 192.519 L 372.166 192.519 Q 372.441 192.824 372.834 192.994 L 372.834 192.994 L 372.834 192.994 Q 373.227 193.164 373.719 193.164 L 373.719 193.164 L 373.719 193.164 Q 374.211 193.164 374.598 192.994 L 374.598 192.994 L 374.598 192.994 Q 374.984 192.824 375.254 192.519 L 375.254 192.519 L 375.254 192.519 Q 375.524 192.215 375.67 191.787 L 375.67 191.787 L 375.67 191.787 Q 375.816 191.359 375.816 190.844 Z " fill-rule="evenodd" fill="rgb(0,0,0)"/></g><g id="C11"><path d=" M 494.555 193.896 C 494.555 181.64 504.506 171.689 516.762 171.689 C 529.019 171.689 538.97 181.64 538.97 193.896 C 538.97 206.153 529.019 216.104 516.762 216.104 C 504.506 216.104 494.555 206.153 494.555 193.896 Z " fill="rgb(211,240,193)" vector-effect="non-scaling-stroke" stroke-width="2" stroke="rgb(0,0,0)" stroke-linejoin="miter" stroke-linecap="square" stroke-miterlimit="3"/><path d=" M 512.229 200.629 L 512.452 200.629 L 512.452 200.629 Q 513.764 200.629 514.725 200.348 L 514.725 200.348 L 514.725 200.348 Q 515.686 200.066 516.336 199.533 L 516.336 199.533 L 516.336 199.533 Q 516.987 199 517.344 198.232 L 517.344 198.232 L 517.344 198.232 Q 517.702 197.465 517.807 196.492 L 517.807 196.492 L 517.807 196.492 Q 517.315 196.984 516.542 197.336 L 516.542 197.336 L 516.542 197.336 Q 515.768 197.687 514.667 197.687 L 514.667 197.687 L 514.667 197.687 Q 513.448 197.687 512.522 197.242 L 512.522 197.242 L 512.522 197.242 Q 511.596 196.797 510.969 196.023 L 510.969 196.023 L 510.969 196.023 Q 510.342 195.25 510.02 194.201 L 510.02 194.201 L 510.02 194.201 Q 509.698 193.152 509.698 191.945 L 509.698 191.945 L 509.698 191.945 Q 509.698 190.703 510.09 189.607 L 510.09 189.607 L 510.09 189.607 Q 510.483 188.512 511.221 187.691 L 511.221 187.691 L 511.221 187.691 Q 511.959 186.871 513.008 186.396 L 513.008 186.396 L 513.008 186.396 Q 514.057 185.922 515.37 185.922 L 515.37 185.922 L 515.37 185.922 Q 516.706 185.922 517.772 186.437 L 517.772 186.437 L 517.772 186.437 Q 518.838 186.953 519.583 187.879 L 519.583 187.879 L 519.583 187.879 Q 520.327 188.805 520.719 190.082 L 520.719 190.082 L 520.719 190.082 Q 521.112 191.359 521.112 192.883 L 521.112 192.883 L 521.112 194.008 L 521.112 194.008 Q 521.112 196.047 520.608 197.758 L 520.608 197.758 L 520.608 197.758 Q 520.104 199.469 519.049 200.717 L 519.049 200.717 L 519.049 200.717 Q 517.995 201.965 516.366 202.662 L 516.366 202.662 L 516.366 202.662 Q 514.737 203.359 512.475 203.359 L 512.475 203.359 L 512.229 203.359 L 512.229 200.629 Z  M 515.44 195.168 L 515.44 195.168 L 515.44 195.168 Q 515.885 195.168 516.266 195.039 L 516.266 195.039 L 516.266 195.039 Q 516.647 194.91 516.958 194.681 L 516.958 194.681 L 516.958 194.681 Q 517.268 194.453 517.497 194.142 L 517.497 194.142 L 517.497 194.142 Q 517.725 193.832 517.866 193.469 L 517.866 193.469 L 517.866 192.308 L 517.866 192.308 Q 517.866 191.371 517.672 190.668 L 517.672 190.668 L 517.672 190.668 Q 517.479 189.965 517.139 189.496 L 517.139 189.496 L 517.139 189.496 Q 516.799 189.027 516.342 188.793 L 516.342 188.793 L 516.342 188.793 Q 515.885 188.558 515.358 188.558 L 515.358 188.558 L 515.358 188.558 Q 514.784 188.558 514.333 188.834 L 514.333 188.834 L 514.333 188.834 Q 513.881 189.109 513.577 189.572 L 513.577 189.572 L 513.577 189.572 Q 513.272 190.035 513.108 190.639 L 513.108 190.639 L 513.108 190.639 Q 512.944 191.242 512.944 191.898 L 512.944 191.898 L 512.944 191.898 Q 512.944 192.555 513.096 193.152 L 513.096 193.152 L 513.096 193.152 Q 513.249 193.75 513.559 194.195 L 513.559 194.195 L 513.559 194.195 Q 513.87 194.64 514.338 194.904 L 514.338 194.904 L 514.338 194.904 Q 514.807 195.168 515.44 195.168 Z " fill-rule="evenodd" fill="rgb(0,0,0)"/></g><g id="Bmaster"><path d="M 407.676 271.475 L 492.324 271.475 C 496.56 271.475 500 274.914 500 279.151 L 500 300.798 C 500 305.035 496.56 308.475 492.324 308.475 L 407.676 308.475 C 403.44 308.475 400 305.035 400 300.798 L 400 279.151 C 400 274.914 403.44 271.475 407.676 271.475 Z" style="stroke:none;fill:#D3F0C1;stroke-linecap:square;stroke-miterlimit:3;"/><path d="M 407.676 271.475 L 492.324 271.475 C 496.56 271.475 500 274.914 500 279.151 L 500 300.798 C 500 305.035 496.56 308.475 492.324 308.475 L 407.676 308.475 C 403.44 308.475 400 305.035 400 300.798 L 400 279.151 C 400 274.914 403.44 271.475 407.676 271.475 Z" style="fill:none;stroke:#000000;stroke-width:1.6855342301554246;stroke-linecap:square;stroke-miterlimit:3;"/><path d=" M 432.229 286.315 L 432.229 288.552 L 429.65 288.552 L 429.65 297.233 L 426.672 297.233 L 426.672 288.552 L 425.031 288.552 L 425.031 287.116 L 426.672 286.315 L 426.672 285.515 L 426.672 285.515 Q 426.672 283.649 427.59 282.79 L 427.59 282.79 L 427.59 282.79 Q 428.508 281.931 430.529 281.931 L 430.529 281.931 L 430.529 281.931 Q 432.072 281.931 433.273 282.39 L 433.273 282.39 L 432.512 284.577 L 432.512 284.577 Q 431.613 284.294 430.852 284.294 L 430.852 284.294 L 430.852 284.294 Q 430.217 284.294 429.934 284.67 L 429.934 284.67 L 429.934 284.67 Q 429.65 285.046 429.65 285.632 L 429.65 285.632 L 429.65 286.315 L 432.229 286.315 Z  M 438.459 288.229 L 438.459 288.229 L 438.459 288.229 Q 437.512 288.229 436.975 288.83 L 436.975 288.83 L 436.975 288.83 Q 436.437 289.431 436.359 290.534 L 436.359 290.534 L 440.539 290.534 L 440.539 290.534 Q 440.52 289.431 439.963 288.83 L 439.963 288.83 L 439.963 288.83 Q 439.406 288.229 438.459 288.229 Z  M 438.879 297.429 L 438.879 297.429 L 438.879 297.429 Q 436.242 297.429 434.758 295.974 L 434.758 295.974 L 434.758 295.974 Q 433.273 294.518 433.273 291.852 L 433.273 291.852 L 433.273 291.852 Q 433.273 289.108 434.646 287.609 L 434.646 287.609 L 434.646 287.609 Q 436.018 286.11 438.439 286.11 L 438.439 286.11 L 438.439 286.11 Q 440.754 286.11 442.043 287.429 L 442.043 287.429 L 442.043 287.429 Q 443.332 288.747 443.332 291.071 L 443.332 291.071 L 443.332 292.517 L 436.291 292.517 L 436.291 292.517 Q 436.34 293.786 437.043 294.499 L 437.043 294.499 L 437.043 294.499 Q 437.746 295.212 439.016 295.212 L 439.016 295.212 L 439.016 295.212 Q 440.002 295.212 440.881 295.007 L 440.881 295.007 L 440.881 295.007 Q 441.76 294.802 442.717 294.352 L 442.717 294.352 L 442.717 296.657 L 442.717 296.657 Q 441.936 297.048 441.047 297.238 L 441.047 297.238 L 441.047 297.238 Q 440.158 297.429 438.879 297.429 Z  M 454.768 297.233 L 452.687 297.233 L 452.111 295.749 L 452.033 295.749 L 452.033 295.749 Q 451.281 296.696 450.485 297.062 L 450.485 297.062 L 450.485 297.062 Q 449.689 297.429 448.41 297.429 L 448.41 297.429 L 448.41 297.429 Q 446.838 297.429 445.935 296.53 L 445.935 296.53 L 445.935 296.53 Q 445.031 295.632 445.031 293.972 L 445.031 293.972 L 445.031 293.972 Q 445.031 292.233 446.247 291.408 L 446.247 291.408 L 446.247 291.408 Q 447.463 290.583 449.914 290.495 L 449.914 290.495 L 451.809 290.436 L 451.809 289.958 L 451.809 289.958 Q 451.809 288.298 450.109 288.298 L 450.109 288.298 L 450.109 288.298 Q 448.801 288.298 447.033 289.089 L 447.033 289.089 L 446.047 287.077 L 446.047 287.077 Q 447.932 286.091 450.227 286.091 L 450.227 286.091 L 450.227 286.091 Q 452.424 286.091 453.596 287.048 L 453.596 287.048 L 453.596 287.048 Q 454.768 288.005 454.768 289.958 L 454.768 289.958 L 454.768 297.233 Z  M 451.809 293.073 L 451.809 292.175 L 450.656 292.214 L 450.656 292.214 Q 449.357 292.253 448.723 292.683 L 448.723 292.683 L 448.723 292.683 Q 448.088 293.112 448.088 293.991 L 448.088 293.991 L 448.088 293.991 Q 448.088 295.251 449.533 295.251 L 449.533 295.251 L 449.533 295.251 Q 450.568 295.251 451.188 294.655 L 451.188 294.655 L 451.188 294.655 Q 451.809 294.06 451.809 293.073 L 451.809 293.073 Z  M 462.434 295.056 L 462.434 295.056 L 462.434 295.056 Q 463.215 295.056 464.309 294.714 L 464.309 294.714 L 464.309 296.931 L 464.309 296.931 Q 463.195 297.429 461.574 297.429 L 461.574 297.429 L 461.574 297.429 Q 459.787 297.429 458.972 296.525 L 458.972 296.525 L 458.972 296.525 Q 458.156 295.622 458.156 293.815 L 458.156 293.815 L 458.156 288.552 L 456.73 288.552 L 456.73 287.292 L 458.371 286.296 L 459.23 283.991 L 461.135 283.991 L 461.135 286.315 L 464.191 286.315 L 464.191 288.552 L 461.135 288.552 L 461.135 293.815 L 461.135 293.815 Q 461.135 294.45 461.491 294.753 L 461.491 294.753 L 461.491 294.753 Q 461.848 295.056 462.434 295.056 Z  M 475.734 294.694 L 475.734 297.233 L 465.754 297.233 L 465.754 295.134 L 469.338 291.511 L 469.338 291.511 Q 470.93 289.88 471.418 289.25 L 471.418 289.25 L 471.418 289.25 Q 471.906 288.62 472.121 288.083 L 472.121 288.083 L 472.121 288.083 Q 472.336 287.546 472.336 286.97 L 472.336 286.97 L 472.336 286.97 Q 472.336 286.11 471.862 285.69 L 471.862 285.69 L 471.862 285.69 Q 471.389 285.27 470.598 285.27 L 470.598 285.27 L 470.598 285.27 Q 469.768 285.27 468.986 285.651 L 468.986 285.651 L 468.986 285.651 Q 468.205 286.032 467.355 286.735 L 467.355 286.735 L 465.715 284.792 L 465.715 284.792 Q 466.77 283.893 467.463 283.522 L 467.463 283.522 L 467.463 283.522 Q 468.156 283.151 468.977 282.951 L 468.977 282.951 L 468.977 282.951 Q 469.797 282.751 470.812 282.751 L 470.812 282.751 L 470.812 282.751 Q 472.15 282.751 473.176 283.239 L 473.176 283.239 L 473.176 283.239 Q 474.201 283.727 474.768 284.606 L 474.768 284.606 L 474.768 284.606 Q 475.334 285.485 475.334 286.618 L 475.334 286.618 L 475.334 286.618 Q 475.334 287.604 474.987 288.469 L 474.987 288.469 L 474.987 288.469 Q 474.641 289.333 473.913 290.241 L 473.913 290.241 L 473.913 290.241 Q 473.186 291.149 471.35 292.829 L 471.35 292.829 L 469.514 294.558 L 469.514 294.694 L 475.734 294.694 Z " fill-rule="evenodd" fill="rgb(0,0,0)"/></g><g id="Bhead"><path d="M 414.247 233.216 L 486.468 233.216 C 490.409 233.216 493.608 236.415 493.608 240.356 L 493.608 263.077 C 493.608 267.017 490.409 270.216 486.468 270.216 L 414.247 270.216 C 410.307 270.216 407.108 267.017 407.108 263.077 L 407.108 240.356 C 407.108 236.415 410.307 233.216 414.247 233.216 Z" style="stroke:none;fill:#FFF3A5;stroke-linecap:square;stroke-miterlimit:3;"/><path d="M 414.247 233.216 L 486.468 233.216 C 490.409 233.216 493.608 236.415 493.608 240.356 L 493.608 263.077 C 493.608 267.017 490.409 270.216 486.468 270.216 L 414.247 270.216 C 410.307 270.216 407.108 267.017 407.108 263.077 L 407.108 240.356 C 407.108 236.415 410.307 233.216 414.247 233.216 Z" style="fill:none;stroke:#000000;stroke-width:1.6855342301554246;stroke-linecap:square;stroke-miterlimit:3;"/><path d=" M 435.3 246.925 L 435.3 261.202 L 432.282 261.202 L 432.282 255.04 L 426.628 255.04 L 426.628 261.202 L 423.601 261.202 L 423.601 246.925 L 426.628 246.925 L 426.628 252.521 L 432.282 252.521 L 432.282 246.925 L 435.3 246.925 Z  M 447.126 258.702 L 447.126 261.202 L 438.903 261.202 L 438.903 246.925 L 447.126 246.925 L 447.126 249.405 L 441.931 249.405 L 441.931 252.54 L 446.765 252.54 L 446.765 255.021 L 441.931 255.021 L 441.931 258.702 L 447.126 258.702 Z  M 462.107 261.202 L 458.845 261.202 L 457.81 257.804 L 452.605 257.804 L 451.57 261.202 L 448.308 261.202 L 453.347 246.866 L 457.048 246.866 L 462.107 261.202 Z  M 453.366 255.265 L 457.087 255.265 L 457.087 255.265 Q 455.652 250.646 455.471 250.04 L 455.471 250.04 L 455.471 250.04 Q 455.29 249.435 455.212 249.083 L 455.212 249.083 L 455.212 249.083 Q 454.89 250.333 453.366 255.265 L 453.366 255.265 Z  M 475.749 253.927 L 475.749 253.927 L 475.749 253.927 Q 475.749 257.452 473.742 259.327 L 473.742 259.327 L 473.742 259.327 Q 471.736 261.202 467.946 261.202 L 467.946 261.202 L 463.903 261.202 L 463.903 246.925 L 468.386 246.925 L 468.386 246.925 Q 471.882 246.925 473.816 248.771 L 473.816 248.771 L 473.816 248.771 Q 475.749 250.616 475.749 253.927 Z  M 472.605 254.005 L 472.605 254.005 L 472.605 254.005 Q 472.605 249.405 468.542 249.405 L 468.542 249.405 L 466.931 249.405 L 466.931 258.702 L 468.23 258.702 L 468.23 258.702 Q 472.605 258.702 472.605 254.005 Z " fill-rule="evenodd" fill="rgb(0,0,0)"/></g><g id="C11"><path d=" M 427.793 337.155 C 427.793 324.898 437.743 314.947 450 314.947 C 462.257 314.947 472.207 324.898 472.207 337.155 C 472.207 349.411 462.257 359.362 450 359.362 C 437.743 359.362 427.793 349.411 427.793 337.155 Z " fill="rgb(211,240,193)" vector-effect="non-scaling-stroke" stroke-width="2" stroke="rgb(0,0,0)" stroke-linejoin="miter" stroke-linecap="square" stroke-miterlimit="3"/><path d=" M 444.23 329.414 L 444.23 346.477 L 440.937 346.477 L 440.937 333.387 L 436.625 334.934 L 436.625 332.098 L 444.055 329.414 L 444.23 329.414 Z  M 458.633 329.414 L 458.633 346.477 L 455.34 346.477 L 455.34 333.387 L 451.027 334.934 L 451.027 332.098 L 458.457 329.414 L 458.633 329.414 Z " fill-rule="evenodd" fill="rgb(0,0,0)"/></g><g id="C11"><path d=" M 360.008 337.155 C 360.008 324.898 369.959 314.947 382.215 314.947 C 394.472 314.947 404.423 324.898 404.423 337.155 C 404.423 349.411 394.472 359.362 382.215 359.362 C 369.959 359.362 360.008 349.411 360.008 337.155 Z " fill="rgb(211,240,193)" vector-effect="non-scaling-stroke" stroke-width="2" stroke="rgb(0,0,0)" stroke-linejoin="miter" stroke-linecap="square" stroke-miterlimit="3"/><path d=" M 376.446 329.414 L 376.446 346.477 L 373.153 346.477 L 373.153 333.387 L 368.84 334.934 L 368.84 332.098 L 376.27 329.414 L 376.446 329.414 Z  M 393.977 335.906 L 393.977 339.985 L 393.977 339.985 Q 393.977 341.637 393.596 342.897 L 393.596 342.897 L 393.596 342.897 Q 393.215 344.156 392.501 345.006 L 392.501 345.006 L 392.501 345.006 Q 391.786 345.856 390.755 346.289 L 390.755 346.289 L 390.755 346.289 Q 389.723 346.723 388.434 346.723 L 388.434 346.723 L 388.434 346.723 Q 387.157 346.723 386.126 346.289 L 386.126 346.289 L 386.126 346.289 Q 385.094 345.856 384.374 345.006 L 384.374 345.006 L 384.374 345.006 Q 383.653 344.156 383.26 342.897 L 383.26 342.897 L 383.26 342.897 Q 382.868 341.637 382.868 339.985 L 382.868 339.985 L 382.868 335.906 L 382.868 335.906 Q 382.868 334.254 383.255 332.994 L 383.255 332.994 L 383.255 332.994 Q 383.641 331.735 384.362 330.885 L 384.362 330.885 L 384.362 330.885 Q 385.083 330.035 386.108 329.602 L 386.108 329.602 L 386.108 329.602 Q 387.133 329.168 388.411 329.168 L 388.411 329.168 L 388.411 329.168 Q 389.7 329.168 390.731 329.602 L 390.731 329.602 L 390.731 329.602 Q 391.762 330.035 392.483 330.885 L 392.483 330.885 L 392.483 330.885 Q 393.204 331.735 393.59 332.994 L 393.59 332.994 L 393.59 332.994 Q 393.977 334.254 393.977 335.906 L 393.977 335.906 Z  M 386.149 335.391 L 386.149 338.578 L 390.696 335.192 L 390.696 335.192 Q 390.661 333.469 390.098 332.637 L 390.098 332.637 L 390.098 332.637 Q 389.536 331.805 388.411 331.805 L 388.411 331.805 L 388.411 331.805 Q 387.274 331.805 386.712 332.684 L 386.712 332.684 L 386.712 332.684 Q 386.149 333.563 386.149 335.391 L 386.149 335.391 Z  M 390.696 340.477 L 390.696 337.406 L 386.149 340.781 L 386.149 340.781 Q 386.208 342.469 386.77 343.283 L 386.77 343.283 L 386.77 343.283 Q 387.333 344.098 388.434 344.098 L 388.434 344.098 L 388.434 344.098 Q 389.583 344.098 390.139 343.207 L 390.139 343.207 L 390.139 343.207 Q 390.696 342.317 390.696 340.477 L 390.696 340.477 Z " fill-rule="evenodd" fill="rgb(0,0,0)"/></g><rect x="601" y="190.896" width="108.805" height="68.466" transform="matrix(1,0,0,1,0,0)" fill="rgb(239,255,117)"/><path d=" M 668.522 229.78 L 668.522 244.057 L 665.505 244.057 L 665.505 235.795 L 665.534 234.438 L 665.583 232.954 L 665.583 232.954 Q 664.831 233.706 664.538 233.94 L 664.538 233.94 L 662.897 235.258 L 661.442 233.442 L 666.042 229.78 L 668.522 229.78 Z  M 679.938 229.78 L 679.938 244.057 L 676.921 244.057 L 676.921 235.795 L 676.95 234.438 L 676.999 232.954 L 676.999 232.954 Q 676.247 233.706 675.954 233.94 L 675.954 233.94 L 674.313 235.258 L 672.858 233.442 L 677.458 229.78 L 679.938 229.78 Z  M 642.79 236.196 L 633.093 236.196 L 633.093 234.057 L 642.79 234.057 L 642.79 236.196 Z  M 642.79 239.975 L 633.093 239.975 L 633.093 237.836 L 642.79 237.836 L 642.79 239.975 Z  M 644.509 242.075 L 644.509 239.741 L 651.188 236.997 L 644.509 233.901 L 644.509 231.557 L 654.206 236.401 L 654.206 237.797 L 644.509 242.075 Z  M 626.345 235.874 L 626.345 235.874 L 626.345 235.874 Q 626.345 240.092 624.567 242.172 L 624.567 242.172 L 624.567 242.172 Q 622.79 244.252 619.186 244.252 L 619.186 244.252 L 619.186 244.252 Q 617.917 244.252 617.263 244.116 L 617.263 244.116 L 617.263 241.694 L 617.263 241.694 Q 618.083 241.899 618.981 241.899 L 618.981 241.899 L 618.981 241.899 Q 620.495 241.899 621.472 241.455 L 621.472 241.455 L 621.472 241.455 Q 622.448 241.01 622.966 240.058 L 622.966 240.058 L 622.966 240.058 Q 623.483 239.106 623.561 237.436 L 623.561 237.436 L 623.444 237.436 L 623.444 237.436 Q 622.878 238.354 622.136 238.725 L 622.136 238.725 L 622.136 238.725 Q 621.394 239.096 620.28 239.096 L 620.28 239.096 L 620.28 239.096 Q 618.415 239.096 617.341 237.9 L 617.341 237.9 L 617.341 237.9 Q 616.267 236.704 616.267 234.575 L 616.267 234.575 L 616.267 234.575 Q 616.267 232.28 617.57 230.947 L 617.57 230.947 L 617.57 230.947 Q 618.874 229.614 621.12 229.614 L 621.12 229.614 L 621.12 229.614 Q 622.702 229.614 623.889 230.356 L 623.889 230.356 L 623.889 230.356 Q 625.075 231.098 625.71 232.509 L 625.71 232.509 L 625.71 232.509 Q 626.345 233.92 626.345 235.874 Z  M 621.179 232.036 L 621.179 232.036 L 621.179 232.036 Q 620.241 232.036 619.714 232.68 L 619.714 232.68 L 619.714 232.68 Q 619.186 233.325 619.186 234.536 L 619.186 234.536 L 619.186 234.536 Q 619.186 235.571 619.665 236.176 L 619.665 236.176 L 619.665 236.176 Q 620.144 236.782 621.12 236.782 L 621.12 236.782 L 621.12 236.782 Q 622.038 236.782 622.692 236.181 L 622.692 236.181 L 622.692 236.181 Q 623.347 235.581 623.347 234.799 L 623.347 234.799 L 623.347 234.799 Q 623.347 233.637 622.736 232.836 L 622.736 232.836 L 622.736 232.836 Q 622.126 232.036 621.179 232.036 Z  M 668.522 202.544 L 668.522 216.821 L 665.505 216.821 L 665.505 208.559 L 665.534 207.202 L 665.583 205.717 L 665.583 205.717 Q 664.831 206.469 664.538 206.704 L 664.538 206.704 L 662.897 208.022 L 661.442 206.206 L 666.042 202.544 L 668.522 202.544 Z  M 682.38 209.682 L 682.38 209.682 L 682.38 209.682 Q 682.38 213.422 681.154 215.219 L 681.154 215.219 L 681.154 215.219 Q 679.929 217.016 677.38 217.016 L 677.38 217.016 L 677.38 217.016 Q 674.909 217.016 673.654 215.161 L 673.654 215.161 L 673.654 215.161 Q 672.399 213.305 672.399 209.682 L 672.399 209.682 L 672.399 209.682 Q 672.399 205.903 673.62 204.111 L 673.62 204.111 L 673.62 204.111 Q 674.841 202.319 677.38 202.319 L 677.38 202.319 L 677.38 202.319 Q 679.851 202.319 681.115 204.194 L 681.115 204.194 L 681.115 204.194 Q 682.38 206.069 682.38 209.682 Z  M 675.397 209.682 L 675.397 209.682 L 675.397 209.682 Q 675.397 212.309 675.852 213.447 L 675.852 213.447 L 675.852 213.447 Q 676.306 214.585 677.38 214.585 L 677.38 214.585 L 677.38 214.585 Q 678.435 214.585 678.903 213.432 L 678.903 213.432 L 678.903 213.432 Q 679.372 212.28 679.372 209.682 L 679.372 209.682 L 679.372 209.682 Q 679.372 207.055 678.898 205.908 L 678.898 205.908 L 678.898 205.908 Q 678.425 204.76 677.38 204.76 L 677.38 204.76 L 677.38 204.76 Q 676.315 204.76 675.856 205.908 L 675.856 205.908 L 675.856 205.908 Q 675.397 207.055 675.397 209.682 Z  M 642.79 208.96 L 633.093 208.96 L 633.093 206.821 L 642.79 206.821 L 642.79 208.96 Z  M 642.79 212.739 L 633.093 212.739 L 633.093 210.6 L 642.79 210.6 L 642.79 212.739 Z  M 644.509 214.838 L 644.509 212.504 L 651.188 209.76 L 644.509 206.665 L 644.509 204.321 L 654.206 209.165 L 654.206 210.561 L 644.509 214.838 Z  M 621.345 202.358 L 621.345 202.358 L 621.345 202.358 Q 623.395 202.358 624.65 203.291 L 624.65 203.291 L 624.65 203.291 Q 625.905 204.223 625.905 205.805 L 625.905 205.805 L 625.905 205.805 Q 625.905 206.899 625.3 207.753 L 625.3 207.753 L 625.3 207.753 Q 624.694 208.608 623.347 209.282 L 623.347 209.282 L 623.347 209.282 Q 624.948 210.141 625.646 211.074 L 625.646 211.074 L 625.646 211.074 Q 626.345 212.006 626.345 213.12 L 626.345 213.12 L 626.345 213.12 Q 626.345 214.877 624.968 215.947 L 624.968 215.947 L 624.968 215.947 Q 623.591 217.016 621.345 217.016 L 621.345 217.016 L 621.345 217.016 Q 619.001 217.016 617.663 216.02 L 617.663 216.02 L 617.663 216.02 Q 616.325 215.024 616.325 213.198 L 616.325 213.198 L 616.325 213.198 Q 616.325 211.977 616.975 211.03 L 616.975 211.03 L 616.975 211.03 Q 617.624 210.083 619.06 209.36 L 619.06 209.36 L 619.06 209.36 Q 617.839 208.588 617.302 207.71 L 617.302 207.71 L 617.302 207.71 Q 616.765 206.831 616.765 205.786 L 616.765 205.786 L 616.765 205.786 Q 616.765 204.252 618.034 203.305 L 618.034 203.305 L 618.034 203.305 Q 619.304 202.358 621.345 202.358 Z  M 619.118 213.022 L 619.118 213.022 L 619.118 213.022 Q 619.118 213.862 619.704 214.331 L 619.704 214.331 L 619.704 214.331 Q 620.29 214.799 621.306 214.799 L 621.306 214.799 L 621.306 214.799 Q 622.429 214.799 622.985 214.316 L 622.985 214.316 L 622.985 214.316 Q 623.542 213.833 623.542 213.042 L 623.542 213.042 L 623.542 213.042 Q 623.542 212.387 622.99 211.816 L 622.99 211.816 L 622.99 211.816 Q 622.438 211.245 621.198 210.6 L 621.198 210.6 L 621.198 210.6 Q 619.118 211.557 619.118 213.022 Z  M 621.325 204.565 L 621.325 204.565 L 621.325 204.565 Q 620.554 204.565 620.08 204.96 L 620.08 204.96 L 620.08 204.96 Q 619.606 205.356 619.606 206.02 L 619.606 206.02 L 619.606 206.02 Q 619.606 206.606 619.982 207.07 L 619.982 207.07 L 619.982 207.07 Q 620.358 207.534 621.345 208.022 L 621.345 208.022 L 621.345 208.022 Q 622.302 207.573 622.683 207.104 L 622.683 207.104 L 622.683 207.104 Q 623.063 206.635 623.063 206.02 L 623.063 206.02 L 623.063 206.02 Q 623.063 205.346 622.575 204.956 L 622.575 204.956 L 622.575 204.956 Q 622.087 204.565 621.325 204.565 Z " fill-rule="evenodd" fill="rgb(0,0,0)"/></g></svg>