<?xml version="1.0" standalone="no"?><!-- Generator: Gravit.io --><svg xmlns="http://www.w3.org/2000/svg" xmlns:xlink="http://www.w3.org/1999/xlink" style="isolation:isolate" viewBox="0 0 800 400" width="800" height="400"><defs><clipPath id="_clipPath_q3dzlytJ0ugg2fk3pBOuDq9BiIhDjV7A"><rect width="800" height="400"/></clipPath></defs><g clip-path="url(#_clipPath_q3dzlytJ0ugg2fk3pBOuDq9BiIhDjV7A)"><line x1="180.951" y1="94.793" x2="371.744" y2="94.793" vector-effect="non-scaling-stroke" stroke-width="2" stroke="rgb(0,0,0)" stroke-linejoin="miter" stroke-linecap="square" stroke-miterlimit="3"/><line x1="332.545" y1="153.793" x2="481" y2="153.793" vector-effect="non-scaling-stroke" stroke-width="2" stroke="rgb(0,0,0)" stroke-linejoin="miter" stroke-linecap="square" stroke-miterlimit="3"/><line x1="333.545" y1="153.793" x2="305.573" y2="94.793" vector-effect="non-scaling-stroke" stroke-width="2" stroke="rgb(0,0,0)" stroke-linejoin="miter" stroke-linecap="square" stroke-miterlimit="3"/><g id="Bmaster"><path d="M 328.249 28.585 L 412.897 28.585 C 417.134 28.585 420.573 32.025 420.573 36.261 L 420.573 57.909 C 420.573 62.146 417.134 65.585 412.897 65.585 L 328.249 65.585 C 324.013 65.585 320.573 62.146 320.573 57.909 L 320.573 36.261 C 320.573 32.025 324.013 28.585 328.249 28.585 Z" style="stroke:none;fill:#9FC4FF;stroke-miterlimit:10;"/><path d="M 328.249 28.585 L 412.897 28.585 C 417.134 28.585 420.573 32.025 420.573 36.261 L 420.573 57.909 C 420.573 62.146 417.134 65.585 412.897 65.585 L 328.249 65.585 C 324.013 65.585 320.573 62.146 320.573 57.909 L 320.573 36.261 C 320.573 32.025 324.013 28.585 328.249 28.585 Z" style="fill:none;stroke:#000000;stroke-width:1.6855342301554246;stroke-linecap:square;stroke-miterlimit:3;"/><path d=" M 345.791 48.866 L 345.791 54.344 L 342.812 54.344 L 342.812 47.967 L 342.812 47.967 Q 342.812 46.786 342.417 46.195 L 342.417 46.195 L 342.417 46.195 Q 342.021 45.604 341.172 45.604 L 341.172 45.604 L 341.172 45.604 Q 340.029 45.604 339.512 46.444 L 339.512 46.444 L 339.512 46.444 Q 338.994 47.284 338.994 49.207 L 338.994 49.207 L 338.994 54.344 L 336.016 54.344 L 336.016 43.426 L 338.291 43.426 L 338.691 44.823 L 338.857 44.823 L 338.857 44.823 Q 339.297 44.071 340.127 43.646 L 340.127 43.646 L 340.127 43.646 Q 340.957 43.221 342.031 43.221 L 342.031 43.221 L 342.031 43.221 Q 344.482 43.221 345.352 44.823 L 345.352 44.823 L 345.615 44.823 L 345.615 44.823 Q 346.055 44.061 346.909 43.641 L 346.909 43.641 L 346.909 43.641 Q 347.764 43.221 348.838 43.221 L 348.838 43.221 L 348.838 43.221 Q 350.693 43.221 351.645 44.173 L 351.645 44.173 L 351.645 44.173 Q 352.598 45.125 352.598 47.225 L 352.598 47.225 L 352.598 54.344 L 349.609 54.344 L 349.609 47.967 L 349.609 47.967 Q 349.609 46.786 349.214 46.195 L 349.214 46.195 L 349.214 46.195 Q 348.818 45.604 347.969 45.604 L 347.969 45.604 L 347.969 45.604 Q 346.875 45.604 346.333 46.385 L 346.333 46.385 L 346.333 46.385 Q 345.791 47.166 345.791 48.866 L 345.791 48.866 Z  M 364.668 54.344 L 362.588 54.344 L 362.012 52.86 L 361.934 52.86 L 361.934 52.86 Q 361.182 53.807 360.386 54.173 L 360.386 54.173 L 360.386 54.173 Q 359.59 54.539 358.311 54.539 L 358.311 54.539 L 358.311 54.539 Q 356.738 54.539 355.835 53.641 L 355.835 53.641 L 355.835 53.641 Q 354.932 52.743 354.932 51.082 L 354.932 51.082 L 354.932 51.082 Q 354.932 49.344 356.147 48.519 L 356.147 48.519 L 356.147 48.519 Q 357.363 47.694 359.814 47.606 L 359.814 47.606 L 361.709 47.547 L 361.709 47.069 L 361.709 47.069 Q 361.709 45.409 360.01 45.409 L 360.01 45.409 L 360.01 45.409 Q 358.701 45.409 356.934 46.2 L 356.934 46.2 L 355.947 44.188 L 355.947 44.188 Q 357.832 43.202 360.127 43.202 L 360.127 43.202 L 360.127 43.202 Q 362.324 43.202 363.496 44.159 L 363.496 44.159 L 363.496 44.159 Q 364.668 45.116 364.668 47.069 L 364.668 47.069 L 364.668 54.344 Z  M 361.709 50.184 L 361.709 49.286 L 360.557 49.325 L 360.557 49.325 Q 359.258 49.364 358.623 49.793 L 358.623 49.793 L 358.623 49.793 Q 357.988 50.223 357.988 51.102 L 357.988 51.102 L 357.988 51.102 Q 357.988 52.362 359.434 52.362 L 359.434 52.362 L 359.434 52.362 Q 360.469 52.362 361.089 51.766 L 361.089 51.766 L 361.089 51.766 Q 361.709 51.17 361.709 50.184 L 361.709 50.184 Z  M 375.352 51.102 L 375.352 51.102 L 375.352 51.102 Q 375.352 52.782 374.185 53.661 L 374.185 53.661 L 374.185 53.661 Q 373.018 54.539 370.693 54.539 L 370.693 54.539 L 370.693 54.539 Q 369.502 54.539 368.662 54.378 L 368.662 54.378 L 368.662 54.378 Q 367.822 54.217 367.09 53.905 L 367.09 53.905 L 367.09 51.444 L 367.09 51.444 Q 367.92 51.834 368.96 52.098 L 368.96 52.098 L 368.96 52.098 Q 370 52.362 370.791 52.362 L 370.791 52.362 L 370.791 52.362 Q 372.412 52.362 372.412 51.424 L 372.412 51.424 L 372.412 51.424 Q 372.412 51.073 372.197 50.853 L 372.197 50.853 L 372.197 50.853 Q 371.982 50.633 371.455 50.355 L 371.455 50.355 L 371.455 50.355 Q 370.928 50.077 370.049 49.705 L 370.049 49.705 L 370.049 49.705 Q 368.789 49.178 368.198 48.729 L 368.198 48.729 L 368.198 48.729 Q 367.607 48.28 367.339 47.699 L 367.339 47.699 L 367.339 47.699 Q 367.07 47.118 367.07 46.268 L 367.07 46.268 L 367.07 46.268 Q 367.07 44.813 368.198 44.017 L 368.198 44.017 L 368.198 44.017 Q 369.326 43.221 371.396 43.221 L 371.396 43.221 L 371.396 43.221 Q 373.369 43.221 375.234 44.08 L 375.234 44.08 L 374.336 46.229 L 374.336 46.229 Q 373.516 45.877 372.803 45.653 L 372.803 45.653 L 372.803 45.653 Q 372.09 45.428 371.348 45.428 L 371.348 45.428 L 371.348 45.428 Q 370.029 45.428 370.029 46.141 L 370.029 46.141 L 370.029 46.141 Q 370.029 46.541 370.454 46.834 L 370.454 46.834 L 370.454 46.834 Q 370.879 47.127 372.314 47.704 L 372.314 47.704 L 372.314 47.704 Q 373.594 48.221 374.189 48.67 L 374.189 48.67 L 374.189 48.67 Q 374.785 49.12 375.068 49.705 L 375.068 49.705 L 375.068 49.705 Q 375.352 50.291 375.352 51.102 Z  M 382.275 52.166 L 382.275 52.166 L 382.275 52.166 Q 383.057 52.166 384.15 51.825 L 384.15 51.825 L 384.15 54.041 L 384.15 54.041 Q 383.037 54.539 381.416 54.539 L 381.416 54.539 L 381.416 54.539 Q 379.629 54.539 378.813 53.636 L 378.813 53.636 L 378.813 53.636 Q 377.998 52.733 377.998 50.926 L 377.998 50.926 L 377.998 45.663 L 376.572 45.663 L 376.572 44.403 L 378.213 43.407 L 379.072 41.102 L 380.977 41.102 L 380.977 43.426 L 384.033 43.426 L 384.033 45.663 L 380.977 45.663 L 380.977 50.926 L 380.977 50.926 Q 380.977 51.561 381.333 51.864 L 381.333 51.864 L 381.333 51.864 Q 381.689 52.166 382.275 52.166 Z  M 390.879 45.34 L 390.879 45.34 L 390.879 45.34 Q 389.932 45.34 389.394 45.941 L 389.394 45.941 L 389.394 45.941 Q 388.857 46.541 388.779 47.645 L 388.779 47.645 L 392.959 47.645 L 392.959 47.645 Q 392.939 46.541 392.383 45.941 L 392.383 45.941 L 392.383 45.941 Q 391.826 45.34 390.879 45.34 Z  M 391.299 54.539 L 391.299 54.539 L 391.299 54.539 Q 388.662 54.539 387.178 53.084 L 387.178 53.084 L 387.178 53.084 Q 385.693 51.629 385.693 48.963 L 385.693 48.963 L 385.693 48.963 Q 385.693 46.219 387.065 44.72 L 387.065 44.72 L 387.065 44.72 Q 388.437 43.221 390.859 43.221 L 390.859 43.221 L 390.859 43.221 Q 393.174 43.221 394.463 44.539 L 394.463 44.539 L 394.463 44.539 Q 395.752 45.858 395.752 48.182 L 395.752 48.182 L 395.752 49.627 L 388.711 49.627 L 388.711 49.627 Q 388.76 50.897 389.463 51.61 L 389.463 51.61 L 389.463 51.61 Q 390.166 52.323 391.436 52.323 L 391.436 52.323 L 391.436 52.323 Q 392.422 52.323 393.301 52.118 L 393.301 52.118 L 393.301 52.118 Q 394.18 51.913 395.137 51.463 L 395.137 51.463 L 395.137 53.768 L 395.137 53.768 Q 394.355 54.159 393.467 54.349 L 393.467 54.349 L 393.467 54.349 Q 392.578 54.539 391.299 54.539 Z  M 404.268 43.221 L 404.268 43.221 L 404.268 43.221 Q 404.873 43.221 405.273 43.309 L 405.273 43.309 L 405.049 46.102 L 405.049 46.102 Q 404.687 46.004 404.17 46.004 L 404.17 46.004 L 404.17 46.004 Q 402.744 46.004 401.948 46.737 L 401.948 46.737 L 401.948 46.737 Q 401.152 47.469 401.152 48.788 L 401.152 48.788 L 401.152 54.344 L 398.174 54.344 L 398.174 43.426 L 400.43 43.426 L 400.869 45.262 L 401.016 45.262 L 401.016 45.262 Q 401.523 44.344 402.388 43.783 L 402.388 43.783 L 402.388 43.783 Q 403.252 43.221 404.268 43.221 Z " fill-rule="evenodd" fill="rgb(0,0,0)"/></g><g id="Bfeat1"><path d="M 440.835 89.585 L 525.482 89.585 C 529.719 89.585 533.159 93.025 533.159 97.261 L 533.159 118.909 C 533.159 123.146 529.719 126.585 525.482 126.585 L 440.835 126.585 C 436.598 126.585 433.159 123.146 433.159 118.909 L 433.159 97.261 C 433.159 93.025 436.598 89.585 440.835 89.585 Z" style="stroke:none;fill:#D1D1D1;stroke-linecap:square;stroke-miterlimit:3;"/><path d="M 440.835 89.585 L 525.482 89.585 C 529.719 89.585 533.159 93.025 533.159 97.261 L 533.159 118.909 C 533.159 123.146 529.719 126.585 525.482 126.585 L 440.835 126.585 C 436.598 126.585 433.159 123.146 433.159 118.909 L 433.159 97.261 C 433.159 93.025 436.598 89.585 440.835 89.585 Z" style="fill:none;stroke:#000000;stroke-width:1.6855342301554246;stroke-linecap:square;stroke-miterlimit:3;"/><path d=" M 463.387 104.926 L 463.387 107.163 L 460.809 107.163 L 460.809 115.844 L 457.83 115.844 L 457.83 107.163 L 456.19 107.163 L 456.19 105.727 L 457.83 104.926 L 457.83 104.125 L 457.83 104.125 Q 457.83 102.26 458.748 101.401 L 458.748 101.401 L 458.748 101.401 Q 459.666 100.541 461.688 100.541 L 461.688 100.541 L 461.688 100.541 Q 463.231 100.541 464.432 101 L 464.432 101 L 463.67 103.188 L 463.67 103.188 Q 462.772 102.905 462.01 102.905 L 462.01 102.905 L 462.01 102.905 Q 461.375 102.905 461.092 103.281 L 461.092 103.281 L 461.092 103.281 Q 460.809 103.657 460.809 104.243 L 460.809 104.243 L 460.809 104.926 L 463.387 104.926 Z  M 469.618 106.84 L 469.618 106.84 L 469.618 106.84 Q 468.67 106.84 468.133 107.441 L 468.133 107.441 L 468.133 107.441 Q 467.596 108.041 467.518 109.145 L 467.518 109.145 L 471.698 109.145 L 471.698 109.145 Q 471.678 108.041 471.121 107.441 L 471.121 107.441 L 471.121 107.441 Q 470.565 106.84 469.618 106.84 Z  M 470.037 116.039 L 470.037 116.039 L 470.037 116.039 Q 467.401 116.039 465.916 114.584 L 465.916 114.584 L 465.916 114.584 Q 464.432 113.129 464.432 110.463 L 464.432 110.463 L 464.432 110.463 Q 464.432 107.719 465.804 106.22 L 465.804 106.22 L 465.804 106.22 Q 467.176 104.721 469.598 104.721 L 469.598 104.721 L 469.598 104.721 Q 471.912 104.721 473.202 106.039 L 473.202 106.039 L 473.202 106.039 Q 474.491 107.358 474.491 109.682 L 474.491 109.682 L 474.491 111.127 L 467.45 111.127 L 467.45 111.127 Q 467.498 112.397 468.202 113.11 L 468.202 113.11 L 468.202 113.11 Q 468.905 113.823 470.174 113.823 L 470.174 113.823 L 470.174 113.823 Q 471.161 113.823 472.039 113.618 L 472.039 113.618 L 472.039 113.618 Q 472.918 113.413 473.875 112.963 L 473.875 112.963 L 473.875 115.268 L 473.875 115.268 Q 473.094 115.659 472.205 115.849 L 472.205 115.849 L 472.205 115.849 Q 471.317 116.039 470.037 116.039 Z  M 485.926 115.844 L 483.846 115.844 L 483.27 114.36 L 483.192 114.36 L 483.192 114.36 Q 482.44 115.307 481.644 115.673 L 481.644 115.673 L 481.644 115.673 Q 480.848 116.039 479.569 116.039 L 479.569 116.039 L 479.569 116.039 Q 477.996 116.039 477.093 115.141 L 477.093 115.141 L 477.093 115.141 Q 476.19 114.243 476.19 112.582 L 476.19 112.582 L 476.19 112.582 Q 476.19 110.844 477.406 110.019 L 477.406 110.019 L 477.406 110.019 Q 478.621 109.194 481.073 109.106 L 481.073 109.106 L 482.967 109.047 L 482.967 108.569 L 482.967 108.569 Q 482.967 106.909 481.268 106.909 L 481.268 106.909 L 481.268 106.909 Q 479.959 106.909 478.192 107.7 L 478.192 107.7 L 477.205 105.688 L 477.205 105.688 Q 479.09 104.702 481.385 104.702 L 481.385 104.702 L 481.385 104.702 Q 483.582 104.702 484.754 105.659 L 484.754 105.659 L 484.754 105.659 Q 485.926 106.616 485.926 108.569 L 485.926 108.569 L 485.926 115.844 Z  M 482.967 111.684 L 482.967 110.786 L 481.815 110.825 L 481.815 110.825 Q 480.516 110.864 479.881 111.293 L 479.881 111.293 L 479.881 111.293 Q 479.246 111.723 479.246 112.602 L 479.246 112.602 L 479.246 112.602 Q 479.246 113.862 480.692 113.862 L 480.692 113.862 L 480.692 113.862 Q 481.727 113.862 482.347 113.266 L 482.347 113.266 L 482.347 113.266 Q 482.967 112.67 482.967 111.684 L 482.967 111.684 Z  M 493.592 113.666 L 493.592 113.666 L 493.592 113.666 Q 494.373 113.666 495.467 113.325 L 495.467 113.325 L 495.467 115.541 L 495.467 115.541 Q 494.354 116.039 492.733 116.039 L 492.733 116.039 L 492.733 116.039 Q 490.946 116.039 490.13 115.136 L 490.13 115.136 L 490.13 115.136 Q 489.315 114.233 489.315 112.426 L 489.315 112.426 L 489.315 107.163 L 487.889 107.163 L 487.889 105.903 L 489.53 104.907 L 490.389 102.602 L 492.293 102.602 L 492.293 104.926 L 495.35 104.926 L 495.35 107.163 L 492.293 107.163 L 492.293 112.426 L 492.293 112.426 Q 492.293 113.061 492.65 113.364 L 492.65 113.364 L 492.65 113.364 Q 493.006 113.666 493.592 113.666 Z  M 504.373 101.567 L 504.373 115.844 L 501.356 115.844 L 501.356 107.582 L 501.385 106.225 L 501.434 104.741 L 501.434 104.741 Q 500.682 105.493 500.389 105.727 L 500.389 105.727 L 498.748 107.045 L 497.293 105.229 L 501.893 101.567 L 504.373 101.567 Z " fill-rule="evenodd" fill="rgb(0,0,0)"/></g><g id="Bhead"><path d="M 446.662 52.585 L 518.883 52.585 C 522.823 52.585 526.022 55.784 526.022 59.725 L 526.022 82.446 C 526.022 86.386 522.823 89.585 518.883 89.585 L 446.662 89.585 C 442.721 89.585 439.522 86.386 439.522 82.446 L 439.522 59.725 C 439.522 55.784 442.721 52.585 446.662 52.585 Z" style="stroke:none;fill:#FFF3A5;stroke-linecap:square;stroke-miterlimit:3;"/><path d="M 446.662 52.585 L 518.883 52.585 C 522.823 52.585 526.022 55.784 526.022 59.725 L 526.022 82.446 C 526.022 86.386 522.823 89.585 518.883 89.585 L 446.662 89.585 C 442.721 89.585 439.522 86.386 439.522 82.446 L 439.522 59.725 C 439.522 55.784 442.721 52.585 446.662 52.585 Z" style="fill:none;stroke:#000000;stroke-width:1.6855342301554246;stroke-linecap:square;stroke-miterlimit:3;"/><path d=" M 467.715 65.294 L 467.715 79.571 L 464.697 79.571 L 464.697 73.409 L 459.043 73.409 L 459.043 79.571 L 456.016 79.571 L 456.016 65.294 L 459.043 65.294 L 459.043 70.89 L 464.697 70.89 L 464.697 65.294 L 467.715 65.294 Z  M 479.541 77.071 L 479.541 79.571 L 471.318 79.571 L 471.318 65.294 L 479.541 65.294 L 479.541 67.774 L 474.346 67.774 L 474.346 70.909 L 479.18 70.909 L 479.18 73.39 L 474.346 73.39 L 474.346 77.071 L 479.541 77.071 Z  M 494.521 79.571 L 491.26 79.571 L 490.225 76.173 L 485.019 76.173 L 483.984 79.571 L 480.723 79.571 L 485.762 65.235 L 489.463 65.235 L 494.521 79.571 Z  M 485.781 73.634 L 489.502 73.634 L 489.502 73.634 Q 488.066 69.015 487.886 68.409 L 487.886 68.409 L 487.886 68.409 Q 487.705 67.804 487.627 67.452 L 487.627 67.452 L 487.627 67.452 Q 487.305 68.702 485.781 73.634 L 485.781 73.634 Z  M 508.164 72.296 L 508.164 72.296 L 508.164 72.296 Q 508.164 75.821 506.157 77.696 L 506.157 77.696 L 506.157 77.696 Q 504.15 79.571 500.361 79.571 L 500.361 79.571 L 496.318 79.571 L 496.318 65.294 L 500.801 65.294 L 500.801 65.294 Q 504.297 65.294 506.23 67.14 L 506.23 67.14 L 506.23 67.14 Q 508.164 68.985 508.164 72.296 Z  M 505.019 72.374 L 505.019 72.374 L 505.019 72.374 Q 505.019 67.774 500.957 67.774 L 500.957 67.774 L 499.346 67.774 L 499.346 77.071 L 500.644 77.071 L 500.644 77.071 Q 505.019 77.071 505.019 72.374 Z " fill-rule="evenodd" fill="rgb(0,0,0)"/></g><g id="c1"><path d=" M 158.744 94.793 C 158.744 82.536 168.695 72.585 180.951 72.585 C 193.208 72.585 203.159 82.536 203.159 94.793 C 203.159 107.049 193.208 117 180.951 117 C 168.695 117 158.744 107.049 158.744 94.793 Z " fill="rgb(195,215,247)" vector-effect="non-scaling-stroke" stroke-width="2" stroke="rgb(0,0,0)" stroke-linejoin="miter" stroke-linecap="square" stroke-miterlimit="3"/><path d=" M 182.383 87.052 L 182.383 104.115 L 179.09 104.115 L 179.09 91.025 L 174.777 92.572 L 174.777 89.736 L 182.207 87.052 L 182.383 87.052 Z " fill="rgb(0,0,0)"/></g><g id="c2"><path d=" M 221.951 94.793 C 221.951 82.536 231.902 72.585 244.159 72.585 C 256.415 72.585 266.366 82.536 266.366 94.793 C 266.366 107.049 256.415 117 244.159 117 C 231.902 117 221.951 107.049 221.951 94.793 Z " fill="rgb(195,215,247)" vector-effect="non-scaling-stroke" stroke-width="2" stroke="rgb(0,0,0)" stroke-linejoin="miter" stroke-linecap="square" stroke-miterlimit="3"/><path d=" M 248.766 101.502 L 248.766 104.115 L 237.129 104.115 L 237.129 101.888 L 242.649 95.959 L 242.649 95.959 Q 243.293 95.256 243.739 94.681 L 243.739 94.681 L 243.739 94.681 Q 244.184 94.107 244.459 93.633 L 244.459 93.633 L 244.459 93.633 Q 244.735 93.158 244.858 92.748 L 244.858 92.748 L 244.858 92.748 Q 244.981 92.338 244.981 91.951 L 244.981 91.951 L 244.981 91.951 Q 244.981 91.377 244.817 90.931 L 244.817 90.931 L 244.817 90.931 Q 244.653 90.486 244.354 90.175 L 244.354 90.175 L 244.354 90.175 Q 244.055 89.865 243.639 89.701 L 243.639 89.701 L 243.639 89.701 Q 243.223 89.537 242.719 89.537 L 242.719 89.537 L 242.719 89.537 Q 241.371 89.537 240.709 90.287 L 240.709 90.287 L 240.709 90.287 Q 240.047 91.037 240.047 92.384 L 240.047 92.384 L 236.778 92.384 L 236.778 92.384 Q 236.778 91.248 237.211 90.234 L 237.211 90.234 L 237.211 90.234 Q 237.645 89.22 238.436 88.459 L 238.436 88.459 L 238.436 88.459 Q 239.227 87.697 240.346 87.258 L 240.346 87.258 L 240.346 87.258 Q 241.465 86.818 242.825 86.818 L 242.825 86.818 L 242.825 86.818 Q 244.125 86.818 245.127 87.181 L 245.127 87.181 L 245.127 87.181 Q 246.129 87.545 246.803 88.201 L 246.803 88.201 L 246.803 88.201 Q 247.477 88.857 247.828 89.777 L 247.828 89.777 L 247.828 89.777 Q 248.18 90.697 248.18 91.81 L 248.18 91.81 L 248.18 91.81 Q 248.18 92.654 247.916 93.422 L 247.916 93.422 L 247.916 93.422 Q 247.653 94.189 247.166 94.939 L 247.166 94.939 L 247.166 94.939 Q 246.68 95.689 246 96.468 L 246 96.468 L 246 96.468 Q 245.321 97.248 244.489 98.103 L 244.489 98.103 L 241.278 101.502 L 248.766 101.502 Z " fill="rgb(0,0,0)"/></g><g id="C3"><path d=" M 285.159 94.793 C 285.159 82.536 295.109 72.585 307.366 72.585 C 319.622 72.585 329.573 82.536 329.573 94.793 C 329.573 107.049 319.622 117 307.366 117 C 295.109 117 285.159 107.049 285.159 94.793 Z " fill="rgb(195,215,247)" vector-effect="non-scaling-stroke" stroke-width="2" stroke="rgb(0,0,0)" stroke-linejoin="miter" stroke-linecap="square" stroke-miterlimit="3"/><path d=" M 304.098 96.685 L 304.098 94.154 L 305.868 94.154 L 305.868 94.154 Q 307.204 94.154 307.848 93.48 L 307.848 93.48 L 307.848 93.48 Q 308.493 92.806 308.493 91.717 L 308.493 91.717 L 308.493 91.717 Q 308.493 91.213 308.346 90.797 L 308.346 90.797 L 308.346 90.797 Q 308.2 90.381 307.907 90.082 L 307.907 90.082 L 307.907 90.082 Q 307.614 89.783 307.163 89.619 L 307.163 89.619 L 307.163 89.619 Q 306.712 89.455 306.114 89.455 L 306.114 89.455 L 306.114 89.455 Q 305.622 89.455 305.194 89.595 L 305.194 89.595 L 305.194 89.595 Q 304.766 89.736 304.444 90 L 304.444 90 L 304.444 90 Q 304.122 90.263 303.934 90.638 L 303.934 90.638 L 303.934 90.638 Q 303.747 91.013 303.747 91.482 L 303.747 91.482 L 300.489 91.482 L 300.489 91.482 Q 300.489 90.439 300.917 89.584 L 300.917 89.584 L 300.917 89.584 Q 301.344 88.728 302.094 88.113 L 302.094 88.113 L 302.094 88.113 Q 302.844 87.498 303.858 87.158 L 303.858 87.158 L 303.858 87.158 Q 304.872 86.818 306.044 86.818 L 306.044 86.818 L 306.044 86.818 Q 307.309 86.818 308.364 87.129 L 308.364 87.129 L 308.364 87.129 Q 309.419 87.439 310.169 88.054 L 310.169 88.054 L 310.169 88.054 Q 310.919 88.67 311.335 89.578 L 311.335 89.578 L 311.335 89.578 Q 311.751 90.486 311.751 91.681 L 311.751 91.681 L 311.751 91.681 Q 311.751 92.232 311.587 92.765 L 311.587 92.765 L 311.587 92.765 Q 311.423 93.299 311.106 93.779 L 311.106 93.779 L 311.106 93.779 Q 310.79 94.259 310.321 94.664 L 310.321 94.664 L 310.321 94.664 Q 309.852 95.068 309.243 95.361 L 309.243 95.361 L 309.243 95.361 Q 309.958 95.619 310.479 96.017 L 310.479 96.017 L 310.479 96.017 Q 311.001 96.416 311.34 96.925 L 311.34 96.925 L 311.34 96.925 Q 311.68 97.435 311.844 98.045 L 311.844 98.045 L 311.844 98.045 Q 312.008 98.654 312.008 99.334 L 312.008 99.334 L 312.008 99.334 Q 312.008 100.529 311.551 101.467 L 311.551 101.467 L 311.551 101.467 Q 311.094 102.404 310.298 103.043 L 310.298 103.043 L 310.298 103.043 Q 309.501 103.681 308.405 104.015 L 308.405 104.015 L 308.405 104.015 Q 307.309 104.349 306.044 104.349 L 306.044 104.349 L 306.044 104.349 Q 304.954 104.349 303.917 104.05 L 303.917 104.05 L 303.917 104.05 Q 302.88 103.752 302.071 103.148 L 302.071 103.148 L 302.071 103.148 Q 301.262 102.545 300.776 101.631 L 300.776 101.631 L 300.776 101.631 Q 300.29 100.717 300.29 99.474 L 300.29 99.474 L 303.548 99.474 L 303.548 99.474 Q 303.548 99.967 303.735 100.383 L 303.735 100.383 L 303.735 100.383 Q 303.923 100.799 304.268 101.097 L 304.268 101.097 L 304.268 101.097 Q 304.614 101.396 305.083 101.566 L 305.083 101.566 L 305.083 101.566 Q 305.551 101.736 306.114 101.736 L 306.114 101.736 L 306.114 101.736 Q 307.356 101.736 308.059 101.08 L 308.059 101.08 L 308.059 101.08 Q 308.762 100.424 308.762 99.299 L 308.762 99.299 L 308.762 99.299 Q 308.762 98.607 308.563 98.115 L 308.563 98.115 L 308.563 98.115 Q 308.364 97.623 307.983 97.306 L 307.983 97.306 L 307.983 97.306 Q 307.602 96.99 307.069 96.838 L 307.069 96.838 L 307.069 96.838 Q 306.536 96.685 305.868 96.685 L 305.868 96.685 L 304.098 96.685 Z " fill="rgb(0,0,0)"/></g><g id="C4"><path d=" M 348.366 94.793 C 348.366 82.536 358.317 72.585 370.573 72.585 C 382.83 72.585 392.781 82.536 392.781 94.793 C 392.781 107.049 382.83 117 370.573 117 C 358.317 117 348.366 107.049 348.366 94.793 Z " fill="rgb(195,215,247)" vector-effect="non-scaling-stroke" stroke-width="2" stroke="rgb(0,0,0)" stroke-linejoin="miter" stroke-linecap="square" stroke-miterlimit="3"/><path d=" M 373.54 87.052 L 373.54 97.775 L 375.52 97.775 L 375.52 100.412 L 373.54 100.412 L 373.54 104.115 L 370.282 104.115 L 370.282 100.412 L 363.192 100.412 L 363.063 98.373 L 370.235 87.052 L 373.54 87.052 Z  M 369.966 91.998 L 366.263 97.775 L 370.282 97.775 L 370.282 91.435 L 369.966 91.998 Z " fill-rule="evenodd" fill="rgb(0,0,0)"/></g><g id="C5"><path d=" M 311.337 153.793 C 311.337 141.536 321.288 131.585 333.545 131.585 C 345.801 131.585 355.752 141.536 355.752 153.793 C 355.752 166.049 345.801 176 333.545 176 C 321.288 176 311.337 166.049 311.337 153.793 Z " fill="rgb(209,209,209)" vector-effect="non-scaling-stroke" stroke-width="2" stroke="rgb(0,0,0)" stroke-linejoin="miter" stroke-linecap="square" stroke-miterlimit="3"/><path d=" M 329.762 155.357 L 327.16 154.713 L 328.133 146.052 L 337.601 146.052 L 337.601 148.818 L 330.816 148.818 L 330.406 152.568 L 330.406 152.568 Q 330.769 152.357 331.437 152.134 L 331.437 152.134 L 331.437 152.134 Q 332.105 151.912 332.972 151.912 L 332.972 151.912 L 332.972 151.912 Q 334.203 151.912 335.17 152.304 L 335.17 152.304 L 335.17 152.304 Q 336.137 152.697 336.799 153.435 L 336.799 153.435 L 336.799 153.435 Q 337.461 154.174 337.812 155.24 L 337.812 155.24 L 337.812 155.24 Q 338.164 156.306 338.164 157.654 L 338.164 157.654 L 338.164 157.654 Q 338.164 158.802 337.824 159.834 L 337.824 159.834 L 337.824 159.834 Q 337.484 160.865 336.781 161.65 L 336.781 161.65 L 336.781 161.65 Q 336.078 162.435 335.012 162.892 L 335.012 162.892 L 335.012 162.892 Q 333.945 163.349 332.492 163.349 L 332.492 163.349 L 332.492 163.349 Q 331.39 163.349 330.365 163.021 L 330.365 163.021 L 330.365 163.021 Q 329.34 162.693 328.543 162.06 L 328.543 162.06 L 328.543 162.06 Q 327.746 161.427 327.248 160.508 L 327.248 160.508 L 327.248 160.508 Q 326.75 159.588 326.715 158.404 L 326.715 158.404 L 329.926 158.404 L 329.926 158.404 Q 330.043 159.517 330.728 160.127 L 330.728 160.127 L 330.728 160.127 Q 331.414 160.736 332.48 160.736 L 332.48 160.736 L 332.48 160.736 Q 333.137 160.736 333.599 160.49 L 333.599 160.49 L 333.599 160.49 Q 334.062 160.244 334.349 159.81 L 334.349 159.81 L 334.349 159.81 Q 334.637 159.377 334.771 158.779 L 334.771 158.779 L 334.771 158.779 Q 334.906 158.181 334.906 157.49 L 334.906 157.49 L 334.906 157.49 Q 334.906 156.81 334.736 156.242 L 334.736 156.242 L 334.736 156.242 Q 334.566 155.674 334.215 155.263 L 334.215 155.263 L 334.215 155.263 Q 333.863 154.853 333.336 154.631 L 333.336 154.631 L 333.336 154.631 Q 332.808 154.408 332.094 154.408 L 332.094 154.408 L 332.094 154.408 Q 331.613 154.408 331.262 154.49 L 331.262 154.49 L 331.262 154.49 Q 330.91 154.572 330.64 154.701 L 330.64 154.701 L 330.64 154.701 Q 330.371 154.83 330.16 155 L 330.16 155 L 330.16 155 Q 329.949 155.17 329.762 155.357 L 329.762 155.357 Z " fill="rgb(0,0,0)"/></g><g id="C6"><path d=" M 385.951 153.793 C 385.951 141.536 395.902 131.585 408.159 131.585 C 420.415 131.585 430.366 141.536 430.366 153.793 C 430.366 166.049 420.415 176 408.159 176 C 395.902 176 385.951 166.049 385.951 153.793 Z " fill="rgb(209,209,209)" vector-effect="non-scaling-stroke" stroke-width="2" stroke="rgb(0,0,0)" stroke-linejoin="miter" stroke-linecap="square" stroke-miterlimit="3"/><path d=" M 409.825 145.912 L 410.258 145.912 L 410.258 148.619 L 410.071 148.619 L 410.071 148.619 Q 408.782 148.619 407.791 148.959 L 407.791 148.959 L 407.791 148.959 Q 406.801 149.299 406.104 149.92 L 406.104 149.92 L 406.104 149.92 Q 405.407 150.541 405.002 151.408 L 405.002 151.408 L 405.002 151.408 Q 404.598 152.275 404.493 153.342 L 404.493 153.342 L 404.493 153.342 Q 404.762 153.049 405.114 152.761 L 405.114 152.761 L 405.114 152.761 Q 405.465 152.474 405.905 152.246 L 405.905 152.246 L 405.905 152.246 Q 406.344 152.017 406.86 151.877 L 406.86 151.877 L 406.86 151.877 Q 407.375 151.736 407.973 151.736 L 407.973 151.736 L 407.973 151.736 Q 409.192 151.736 410.1 152.199 L 410.1 152.199 L 410.1 152.199 Q 411.008 152.662 411.618 153.453 L 411.618 153.453 L 411.618 153.453 Q 412.227 154.244 412.526 155.293 L 412.526 155.293 L 412.526 155.293 Q 412.825 156.342 412.825 157.502 L 412.825 157.502 L 412.825 157.502 Q 412.825 158.744 412.426 159.81 L 412.426 159.81 L 412.426 159.81 Q 412.028 160.877 411.289 161.662 L 411.289 161.662 L 411.289 161.662 Q 410.551 162.447 409.496 162.898 L 409.496 162.898 L 409.496 162.898 Q 408.442 163.349 407.129 163.349 L 407.129 163.349 L 407.129 163.349 Q 405.758 163.349 404.657 162.84 L 404.657 162.84 L 404.657 162.84 Q 403.555 162.33 402.787 161.427 L 402.787 161.427 L 402.787 161.427 Q 402.02 160.525 401.604 159.289 L 401.604 159.289 L 401.604 159.289 Q 401.188 158.052 401.188 156.588 L 401.188 156.588 L 401.188 155.334 L 401.188 155.334 Q 401.188 153.306 401.739 151.578 L 401.739 151.578 L 401.739 151.578 Q 402.289 149.849 403.379 148.59 L 403.379 148.59 L 403.379 148.59 Q 404.469 147.33 406.086 146.621 L 406.086 146.621 L 406.086 146.621 Q 407.703 145.912 409.825 145.912 L 409.825 145.912 Z  M 407.024 154.349 L 407.024 154.349 L 407.024 154.349 Q 406.145 154.349 405.471 154.818 L 405.471 154.818 L 405.471 154.818 Q 404.797 155.287 404.457 156.025 L 404.457 156.025 L 404.457 156.986 L 404.457 156.986 Q 404.457 157.924 404.651 158.627 L 404.651 158.627 L 404.651 158.627 Q 404.844 159.33 405.196 159.793 L 405.196 159.793 L 405.196 159.793 Q 405.547 160.256 406.028 160.49 L 406.028 160.49 L 406.028 160.49 Q 406.508 160.724 407.071 160.724 L 407.071 160.724 L 407.071 160.724 Q 407.645 160.724 408.114 160.484 L 408.114 160.484 L 408.114 160.484 Q 408.582 160.244 408.911 159.822 L 408.911 159.822 L 408.911 159.822 Q 409.239 159.4 409.414 158.82 L 409.414 158.82 L 409.414 158.82 Q 409.59 158.24 409.59 157.549 L 409.59 157.549 L 409.59 157.549 Q 409.59 156.857 409.414 156.271 L 409.414 156.271 L 409.414 156.271 Q 409.239 155.685 408.911 155.258 L 408.911 155.258 L 408.911 155.258 Q 408.582 154.83 408.108 154.59 L 408.108 154.59 L 408.108 154.59 Q 407.633 154.349 407.024 154.349 Z " fill-rule="evenodd" fill="rgb(0,0,0)"/></g><g id="C8"><path d=" M 460.565 153.793 C 460.565 141.536 470.516 131.585 482.772 131.585 C 495.029 131.585 504.98 141.536 504.98 153.793 C 504.98 166.049 495.029 176 482.772 176 C 470.516 176 460.565 166.049 460.565 153.793 Z " fill="rgb(209,209,209)" vector-effect="non-scaling-stroke" stroke-width="2" stroke="rgb(0,0,0)" stroke-linejoin="miter" stroke-linecap="square" stroke-miterlimit="3"/><path d=" M 487.368 146.052 L 487.368 147.869 L 480.724 163.115 L 477.29 163.115 L 483.946 148.713 L 475.38 148.713 L 475.38 146.052 L 487.368 146.052 Z " fill="rgb(0,0,0)"/></g><line x1="397.545" y1="356.207" x2="546" y2="356.207" vector-effect="non-scaling-stroke" stroke-width="2" stroke="rgb(0,0,0)" stroke-linejoin="miter" stroke-linecap="square" stroke-miterlimit="3"/><line x1="398.545" y1="356.207" x2="370.573" y2="297.207" vector-effect="non-scaling-stroke" stroke-width="2" stroke="rgb(0,0,0)" stroke-linejoin="miter" stroke-linecap="square" stroke-miterlimit="3"/><g id="C5"><path d=" M 376.337 356.207 C 376.337 343.951 386.288 334 398.545 334 C 410.801 334 420.752 343.951 420.752 356.207 C 420.752 368.464 410.801 378.415 398.545 378.415 C 386.288 378.415 376.337 368.464 376.337 356.207 Z " fill="rgb(209,209,209)" vector-effect="non-scaling-stroke" stroke-width="2" stroke="rgb(0,0,0)" stroke-linejoin="miter" stroke-linecap="square" stroke-miterlimit="3"/><path d=" M 402.707 353.002 L 402.707 353.002 L 402.707 353.002 Q 402.707 354.244 402.08 355.211 L 402.08 355.211 L 402.08 355.211 Q 401.453 356.178 400.363 356.752 L 400.363 356.752 L 400.363 356.752 Q 401.605 357.338 402.338 358.393 L 402.338 358.393 L 402.338 358.393 Q 403.07 359.448 403.07 360.866 L 403.07 360.866 L 403.07 360.866 Q 403.07 362.073 402.631 362.987 L 402.631 362.987 L 402.631 362.987 Q 402.191 363.901 401.424 364.516 L 401.424 364.516 L 401.424 364.516 Q 400.656 365.131 399.613 365.448 L 399.613 365.448 L 399.613 365.448 Q 398.57 365.764 397.363 365.764 L 397.363 365.764 L 397.363 365.764 Q 396.144 365.764 395.096 365.448 L 395.096 365.448 L 395.096 365.448 Q 394.047 365.131 393.273 364.516 L 393.273 364.516 L 393.273 364.516 Q 392.5 363.901 392.06 362.987 L 392.06 362.987 L 392.06 362.987 Q 391.621 362.073 391.621 360.866 L 391.621 360.866 L 391.621 360.866 Q 391.621 360.162 391.814 359.535 L 391.814 359.535 L 391.814 359.535 Q 392.008 358.908 392.359 358.387 L 392.359 358.387 L 392.359 358.387 Q 392.711 357.866 393.209 357.45 L 393.209 357.45 L 393.209 357.45 Q 393.707 357.033 394.328 356.741 L 394.328 356.741 L 394.328 356.741 Q 393.238 356.178 392.617 355.211 L 392.617 355.211 L 392.617 355.211 Q 391.996 354.244 391.996 353.002 L 391.996 353.002 L 391.996 353.002 Q 391.996 351.842 392.394 350.957 L 392.394 350.957 L 392.394 350.957 Q 392.793 350.073 393.502 349.463 L 393.502 349.463 L 393.502 349.463 Q 394.211 348.854 395.189 348.543 L 395.189 348.543 L 395.189 348.543 Q 396.168 348.233 397.328 348.233 L 397.328 348.233 L 397.328 348.233 Q 398.488 348.233 399.472 348.543 L 399.472 348.543 L 399.472 348.543 Q 400.457 348.854 401.178 349.463 L 401.178 349.463 L 401.178 349.463 Q 401.898 350.073 402.303 350.957 L 402.303 350.957 L 402.303 350.957 Q 402.707 351.842 402.707 353.002 Z  M 399.801 360.643 L 399.801 360.643 L 399.801 360.643 Q 399.801 360.057 399.625 359.588 L 399.625 359.588 L 399.625 359.588 Q 399.449 359.119 399.127 358.785 L 399.127 358.785 L 399.127 358.785 Q 398.805 358.451 398.353 358.276 L 398.353 358.276 L 398.353 358.276 Q 397.902 358.1 397.34 358.1 L 397.34 358.1 L 397.34 358.1 Q 396.777 358.1 396.326 358.276 L 396.326 358.276 L 396.326 358.276 Q 395.875 358.451 395.558 358.785 L 395.558 358.785 L 395.558 358.785 Q 395.242 359.119 395.066 359.588 L 395.066 359.588 L 395.066 359.588 Q 394.89 360.057 394.89 360.643 L 394.89 360.643 L 394.89 360.643 Q 394.89 361.815 395.558 362.483 L 395.558 362.483 L 395.558 362.483 Q 396.226 363.151 397.363 363.151 L 397.363 363.151 L 397.363 363.151 Q 397.902 363.151 398.347 362.981 L 398.347 362.981 L 398.347 362.981 Q 398.793 362.811 399.115 362.483 L 399.115 362.483 L 399.115 362.483 Q 399.437 362.155 399.619 361.692 L 399.619 361.692 L 399.619 361.692 Q 399.801 361.229 399.801 360.643 Z  M 399.461 353.155 L 399.461 353.155 L 399.461 353.155 Q 399.461 352.639 399.308 352.217 L 399.308 352.217 L 399.308 352.217 Q 399.156 351.795 398.881 351.496 L 398.881 351.496 L 398.881 351.496 Q 398.605 351.198 398.213 351.033 L 398.213 351.033 L 398.213 351.033 Q 397.82 350.869 397.328 350.869 L 397.328 350.869 L 397.328 350.869 Q 396.332 350.869 395.793 351.479 L 395.793 351.479 L 395.793 351.479 Q 395.254 352.088 395.254 353.155 L 395.254 353.155 L 395.254 353.155 Q 395.254 353.67 395.394 354.098 L 395.394 354.098 L 395.394 354.098 Q 395.535 354.526 395.81 354.83 L 395.81 354.83 L 395.81 354.83 Q 396.086 355.135 396.478 355.305 L 396.478 355.305 L 396.478 355.305 Q 396.871 355.475 397.363 355.475 L 397.363 355.475 L 397.363 355.475 Q 397.855 355.475 398.242 355.305 L 398.242 355.305 L 398.242 355.305 Q 398.629 355.135 398.898 354.83 L 398.898 354.83 L 398.898 354.83 Q 399.168 354.526 399.314 354.098 L 399.314 354.098 L 399.314 354.098 Q 399.461 353.67 399.461 353.155 Z " fill-rule="evenodd" fill="rgb(0,0,0)"/></g><g id="C6"><path d=" M 450.951 356.207 C 450.951 343.951 460.902 334 473.159 334 C 485.415 334 495.366 343.951 495.366 356.207 C 495.366 368.464 485.415 378.415 473.159 378.415 C 460.902 378.415 450.951 368.464 450.951 356.207 Z " fill="rgb(209,209,209)" vector-effect="non-scaling-stroke" stroke-width="2" stroke="rgb(0,0,0)" stroke-linejoin="miter" stroke-linecap="square" stroke-miterlimit="3"/><path d=" M 468.625 362.94 L 468.848 362.94 L 468.848 362.94 Q 470.161 362.94 471.121 362.658 L 471.121 362.658 L 471.121 362.658 Q 472.082 362.377 472.733 361.844 L 472.733 361.844 L 472.733 361.844 Q 473.383 361.311 473.741 360.543 L 473.741 360.543 L 473.741 360.543 Q 474.098 359.776 474.203 358.803 L 474.203 358.803 L 474.203 358.803 Q 473.711 359.295 472.938 359.647 L 472.938 359.647 L 472.938 359.647 Q 472.164 359.998 471.063 359.998 L 471.063 359.998 L 471.063 359.998 Q 469.844 359.998 468.918 359.553 L 468.918 359.553 L 468.918 359.553 Q 467.993 359.108 467.366 358.334 L 467.366 358.334 L 467.366 358.334 Q 466.739 357.561 466.416 356.512 L 466.416 356.512 L 466.416 356.512 Q 466.094 355.463 466.094 354.256 L 466.094 354.256 L 466.094 354.256 Q 466.094 353.014 466.487 351.918 L 466.487 351.918 L 466.487 351.918 Q 466.879 350.823 467.618 350.002 L 467.618 350.002 L 467.618 350.002 Q 468.356 349.182 469.405 348.707 L 469.405 348.707 L 469.405 348.707 Q 470.453 348.233 471.766 348.233 L 471.766 348.233 L 471.766 348.233 Q 473.102 348.233 474.168 348.748 L 474.168 348.748 L 474.168 348.748 Q 475.235 349.264 475.979 350.19 L 475.979 350.19 L 475.979 350.19 Q 476.723 351.116 477.116 352.393 L 477.116 352.393 L 477.116 352.393 Q 477.508 353.67 477.508 355.194 L 477.508 355.194 L 477.508 356.319 L 477.508 356.319 Q 477.508 358.358 477.004 360.069 L 477.004 360.069 L 477.004 360.069 Q 476.5 361.78 475.446 363.028 L 475.446 363.028 L 475.446 363.028 Q 474.391 364.276 472.762 364.973 L 472.762 364.973 L 472.762 364.973 Q 471.133 365.67 468.871 365.67 L 468.871 365.67 L 468.625 365.67 L 468.625 362.94 Z  M 471.836 357.479 L 471.836 357.479 L 471.836 357.479 Q 472.282 357.479 472.662 357.35 L 472.662 357.35 L 472.662 357.35 Q 473.043 357.221 473.354 356.992 L 473.354 356.992 L 473.354 356.992 Q 473.664 356.764 473.893 356.453 L 473.893 356.453 L 473.893 356.453 Q 474.121 356.143 474.262 355.78 L 474.262 355.78 L 474.262 354.619 L 474.262 354.619 Q 474.262 353.682 474.069 352.979 L 474.069 352.979 L 474.069 352.979 Q 473.875 352.276 473.536 351.807 L 473.536 351.807 L 473.536 351.807 Q 473.196 351.338 472.739 351.104 L 472.739 351.104 L 472.739 351.104 Q 472.282 350.869 471.754 350.869 L 471.754 350.869 L 471.754 350.869 Q 471.18 350.869 470.729 351.145 L 470.729 351.145 L 470.729 351.145 Q 470.278 351.42 469.973 351.883 L 469.973 351.883 L 469.973 351.883 Q 469.668 352.346 469.504 352.95 L 469.504 352.95 L 469.504 352.95 Q 469.34 353.553 469.34 354.209 L 469.34 354.209 L 469.34 354.209 Q 469.34 354.866 469.493 355.463 L 469.493 355.463 L 469.493 355.463 Q 469.645 356.061 469.955 356.506 L 469.955 356.506 L 469.955 356.506 Q 470.266 356.951 470.735 357.215 L 470.735 357.215 L 470.735 357.215 Q 471.203 357.479 471.836 357.479 Z " fill-rule="evenodd" fill="rgb(0,0,0)"/></g><g id="C8"><path d=" M 525.565 356.207 C 525.565 343.951 535.516 334 547.772 334 C 560.029 334 569.98 343.951 569.98 356.207 C 569.98 368.464 560.029 378.415 547.772 378.415 C 535.516 378.415 525.565 368.464 525.565 356.207 Z " fill="rgb(209,209,209)" vector-effect="non-scaling-stroke" stroke-width="2" stroke="rgb(0,0,0)" stroke-linejoin="miter" stroke-linecap="square" stroke-miterlimit="3"/><path d=" M 542.186 348.467 L 542.186 365.53 L 538.893 365.53 L 538.893 352.44 L 534.581 353.987 L 534.581 351.151 L 542.011 348.467 L 542.186 348.467 Z  M 559.718 354.959 L 559.718 359.037 L 559.718 359.037 Q 559.718 360.69 559.337 361.95 L 559.337 361.95 L 559.337 361.95 Q 558.956 363.209 558.241 364.059 L 558.241 364.059 L 558.241 364.059 Q 557.526 364.908 556.495 365.342 L 556.495 365.342 L 556.495 365.342 Q 555.464 365.776 554.175 365.776 L 554.175 365.776 L 554.175 365.776 Q 552.897 365.776 551.866 365.342 L 551.866 365.342 L 551.866 365.342 Q 550.835 364.908 550.114 364.059 L 550.114 364.059 L 550.114 364.059 Q 549.393 363.209 549.001 361.95 L 549.001 361.95 L 549.001 361.95 Q 548.608 360.69 548.608 359.037 L 548.608 359.037 L 548.608 354.959 L 548.608 354.959 Q 548.608 353.307 548.995 352.047 L 548.995 352.047 L 548.995 352.047 Q 549.382 350.787 550.102 349.938 L 550.102 349.938 L 550.102 349.938 Q 550.823 349.088 551.849 348.655 L 551.849 348.655 L 551.849 348.655 Q 552.874 348.221 554.151 348.221 L 554.151 348.221 L 554.151 348.221 Q 555.44 348.221 556.472 348.655 L 556.472 348.655 L 556.472 348.655 Q 557.503 349.088 558.224 349.938 L 558.224 349.938 L 558.224 349.938 Q 558.944 350.787 559.331 352.047 L 559.331 352.047 L 559.331 352.047 Q 559.718 353.307 559.718 354.959 L 559.718 354.959 Z  M 551.89 354.444 L 551.89 357.631 L 556.436 354.244 L 556.436 354.244 Q 556.401 352.522 555.839 351.69 L 555.839 351.69 L 555.839 351.69 Q 555.276 350.858 554.151 350.858 L 554.151 350.858 L 554.151 350.858 Q 553.015 350.858 552.452 351.737 L 552.452 351.737 L 552.452 351.737 Q 551.89 352.616 551.89 354.444 L 551.89 354.444 Z  M 556.436 359.53 L 556.436 356.459 L 551.89 359.834 L 551.89 359.834 Q 551.948 361.522 552.511 362.336 L 552.511 362.336 L 552.511 362.336 Q 553.073 363.151 554.175 363.151 L 554.175 363.151 L 554.175 363.151 Q 555.323 363.151 555.88 362.26 L 555.88 362.26 L 555.88 362.26 Q 556.436 361.369 556.436 359.53 L 556.436 359.53 Z " fill-rule="evenodd" fill="rgb(0,0,0)"/></g><line x1="180.951" y1="297.207" x2="371.628" y2="297.207" vector-effect="non-scaling-stroke" stroke-width="2" stroke="rgb(0,0,0)" stroke-linejoin="miter" stroke-linecap="square" stroke-miterlimit="3"/><g id="Bmaster"><path d="M 328.428 232 L 413.076 232 C 417.313 232 420.752 235.44 420.752 239.676 L 420.752 261.324 C 420.752 265.56 417.313 269 413.076 269 L 328.428 269 C 324.192 269 320.752 265.56 320.752 261.324 L 320.752 239.676 C 320.752 235.44 324.192 232 328.428 232 Z" style="stroke:none;fill:#9FC4FF;stroke-linecap:square;stroke-miterlimit:3;"/><path d="M 328.428 232 L 413.076 232 C 417.313 232 420.752 235.44 420.752 239.676 L 420.752 261.324 C 420.752 265.56 417.313 269 413.076 269 L 328.428 269 C 324.192 269 320.752 265.56 320.752 261.324 L 320.752 239.676 C 320.752 235.44 324.192 232 328.428 232 Z" style="fill:none;stroke:#000000;stroke-width:1.6855342301554246;stroke-linecap:square;stroke-miterlimit:3;"/><path d=" M 345.97 252.28 L 345.97 257.759 L 342.991 257.759 L 342.991 251.382 L 342.991 251.382 Q 342.991 250.2 342.596 249.609 L 342.596 249.609 L 342.596 249.609 Q 342.2 249.019 341.351 249.019 L 341.351 249.019 L 341.351 249.019 Q 340.208 249.019 339.691 249.858 L 339.691 249.858 L 339.691 249.858 Q 339.173 250.698 339.173 252.622 L 339.173 252.622 L 339.173 257.759 L 336.194 257.759 L 336.194 246.841 L 338.47 246.841 L 338.87 248.237 L 339.036 248.237 L 339.036 248.237 Q 339.476 247.485 340.306 247.061 L 340.306 247.061 L 340.306 247.061 Q 341.136 246.636 342.21 246.636 L 342.21 246.636 L 342.21 246.636 Q 344.661 246.636 345.53 248.237 L 345.53 248.237 L 345.794 248.237 L 345.794 248.237 Q 346.234 247.476 347.088 247.056 L 347.088 247.056 L 347.088 247.056 Q 347.943 246.636 349.017 246.636 L 349.017 246.636 L 349.017 246.636 Q 350.872 246.636 351.824 247.588 L 351.824 247.588 L 351.824 247.588 Q 352.776 248.54 352.776 250.64 L 352.776 250.64 L 352.776 257.759 L 349.788 257.759 L 349.788 251.382 L 349.788 251.382 Q 349.788 250.2 349.393 249.609 L 349.393 249.609 L 349.393 249.609 Q 348.997 249.019 348.148 249.019 L 348.148 249.019 L 348.148 249.019 Q 347.054 249.019 346.512 249.8 L 346.512 249.8 L 346.512 249.8 Q 345.97 250.581 345.97 252.28 L 345.97 252.28 Z  M 364.847 257.759 L 362.767 257.759 L 362.191 256.274 L 362.112 256.274 L 362.112 256.274 Q 361.36 257.222 360.565 257.588 L 360.565 257.588 L 360.565 257.588 Q 359.769 257.954 358.489 257.954 L 358.489 257.954 L 358.489 257.954 Q 356.917 257.954 356.014 257.056 L 356.014 257.056 L 356.014 257.056 Q 355.11 256.157 355.11 254.497 L 355.11 254.497 L 355.11 254.497 Q 355.11 252.759 356.326 251.934 L 356.326 251.934 L 356.326 251.934 Q 357.542 251.108 359.993 251.021 L 359.993 251.021 L 361.888 250.962 L 361.888 250.483 L 361.888 250.483 Q 361.888 248.823 360.189 248.823 L 360.189 248.823 L 360.189 248.823 Q 358.88 248.823 357.112 249.614 L 357.112 249.614 L 356.126 247.603 L 356.126 247.603 Q 358.011 246.616 360.306 246.616 L 360.306 246.616 L 360.306 246.616 Q 362.503 246.616 363.675 247.573 L 363.675 247.573 L 363.675 247.573 Q 364.847 248.53 364.847 250.483 L 364.847 250.483 L 364.847 257.759 Z  M 361.888 253.599 L 361.888 252.7 L 360.735 252.739 L 360.735 252.739 Q 359.437 252.778 358.802 253.208 L 358.802 253.208 L 358.802 253.208 Q 358.167 253.638 358.167 254.517 L 358.167 254.517 L 358.167 254.517 Q 358.167 255.776 359.612 255.776 L 359.612 255.776 L 359.612 255.776 Q 360.648 255.776 361.268 255.181 L 361.268 255.181 L 361.268 255.181 Q 361.888 254.585 361.888 253.599 L 361.888 253.599 Z  M 375.53 254.517 L 375.53 254.517 L 375.53 254.517 Q 375.53 256.196 374.363 257.075 L 374.363 257.075 L 374.363 257.075 Q 373.196 257.954 370.872 257.954 L 370.872 257.954 L 370.872 257.954 Q 369.681 257.954 368.841 257.793 L 368.841 257.793 L 368.841 257.793 Q 368.001 257.632 367.269 257.319 L 367.269 257.319 L 367.269 254.858 L 367.269 254.858 Q 368.099 255.249 369.139 255.513 L 369.139 255.513 L 369.139 255.513 Q 370.179 255.776 370.97 255.776 L 370.97 255.776 L 370.97 255.776 Q 372.591 255.776 372.591 254.839 L 372.591 254.839 L 372.591 254.839 Q 372.591 254.487 372.376 254.268 L 372.376 254.268 L 372.376 254.268 Q 372.161 254.048 371.634 253.77 L 371.634 253.77 L 371.634 253.77 Q 371.107 253.491 370.228 253.12 L 370.228 253.12 L 370.228 253.12 Q 368.968 252.593 368.377 252.144 L 368.377 252.144 L 368.377 252.144 Q 367.786 251.694 367.518 251.113 L 367.518 251.113 L 367.518 251.113 Q 367.249 250.532 367.249 249.683 L 367.249 249.683 L 367.249 249.683 Q 367.249 248.228 368.377 247.432 L 368.377 247.432 L 368.377 247.432 Q 369.505 246.636 371.575 246.636 L 371.575 246.636 L 371.575 246.636 Q 373.548 246.636 375.413 247.495 L 375.413 247.495 L 374.515 249.644 L 374.515 249.644 Q 373.694 249.292 372.982 249.067 L 372.982 249.067 L 372.982 249.067 Q 372.269 248.843 371.526 248.843 L 371.526 248.843 L 371.526 248.843 Q 370.208 248.843 370.208 249.556 L 370.208 249.556 L 370.208 249.556 Q 370.208 249.956 370.633 250.249 L 370.633 250.249 L 370.633 250.249 Q 371.058 250.542 372.493 251.118 L 372.493 251.118 L 372.493 251.118 Q 373.773 251.636 374.368 252.085 L 374.368 252.085 L 374.368 252.085 Q 374.964 252.534 375.247 253.12 L 375.247 253.12 L 375.247 253.12 Q 375.53 253.706 375.53 254.517 Z  M 382.454 255.581 L 382.454 255.581 L 382.454 255.581 Q 383.235 255.581 384.329 255.239 L 384.329 255.239 L 384.329 257.456 L 384.329 257.456 Q 383.216 257.954 381.595 257.954 L 381.595 257.954 L 381.595 257.954 Q 379.808 257.954 378.992 257.051 L 378.992 257.051 L 378.992 257.051 Q 378.177 256.147 378.177 254.341 L 378.177 254.341 L 378.177 249.077 L 376.751 249.077 L 376.751 247.817 L 378.392 246.821 L 379.251 244.517 L 381.155 244.517 L 381.155 246.841 L 384.212 246.841 L 384.212 249.077 L 381.155 249.077 L 381.155 254.341 L 381.155 254.341 Q 381.155 254.976 381.512 255.278 L 381.512 255.278 L 381.512 255.278 Q 381.868 255.581 382.454 255.581 Z  M 391.058 248.755 L 391.058 248.755 L 391.058 248.755 Q 390.11 248.755 389.573 249.355 L 389.573 249.355 L 389.573 249.355 Q 389.036 249.956 388.958 251.06 L 388.958 251.06 L 393.138 251.06 L 393.138 251.06 Q 393.118 249.956 392.562 249.355 L 392.562 249.355 L 392.562 249.355 Q 392.005 248.755 391.058 248.755 Z  M 391.478 257.954 L 391.478 257.954 L 391.478 257.954 Q 388.841 257.954 387.357 256.499 L 387.357 256.499 L 387.357 256.499 Q 385.872 255.044 385.872 252.378 L 385.872 252.378 L 385.872 252.378 Q 385.872 249.634 387.244 248.135 L 387.244 248.135 L 387.244 248.135 Q 388.616 246.636 391.038 246.636 L 391.038 246.636 L 391.038 246.636 Q 393.353 246.636 394.642 247.954 L 394.642 247.954 L 394.642 247.954 Q 395.931 249.272 395.931 251.597 L 395.931 251.597 L 395.931 253.042 L 388.89 253.042 L 388.89 253.042 Q 388.939 254.312 389.642 255.024 L 389.642 255.024 L 389.642 255.024 Q 390.345 255.737 391.614 255.737 L 391.614 255.737 L 391.614 255.737 Q 392.601 255.737 393.48 255.532 L 393.48 255.532 L 393.48 255.532 Q 394.359 255.327 395.316 254.878 L 395.316 254.878 L 395.316 257.183 L 395.316 257.183 Q 394.534 257.573 393.646 257.764 L 393.646 257.764 L 393.646 257.764 Q 392.757 257.954 391.478 257.954 Z  M 404.446 246.636 L 404.446 246.636 L 404.446 246.636 Q 405.052 246.636 405.452 246.724 L 405.452 246.724 L 405.228 249.517 L 405.228 249.517 Q 404.866 249.419 404.349 249.419 L 404.349 249.419 L 404.349 249.419 Q 402.923 249.419 402.127 250.151 L 402.127 250.151 L 402.127 250.151 Q 401.331 250.884 401.331 252.202 L 401.331 252.202 L 401.331 257.759 L 398.353 257.759 L 398.353 246.841 L 400.609 246.841 L 401.048 248.677 L 401.194 248.677 L 401.194 248.677 Q 401.702 247.759 402.567 247.197 L 402.567 247.197 L 402.567 247.197 Q 403.431 246.636 404.446 246.636 Z " fill-rule="evenodd" fill="rgb(0,0,0)"/></g><g id="Bfeat1"><path d="M 505.448 291 L 590.096 291 C 594.333 291 597.772 294.44 597.772 298.676 L 597.772 320.324 C 597.772 324.56 594.333 328 590.096 328 L 505.448 328 C 501.212 328 497.772 324.56 497.772 320.324 L 497.772 298.676 C 497.772 294.44 501.212 291 505.448 291 Z" style="stroke:none;fill:#D1D1D1;stroke-linecap:square;stroke-miterlimit:3;"/><path d="M 505.448 291 L 590.096 291 C 594.333 291 597.772 294.44 597.772 298.676 L 597.772 320.324 C 597.772 324.56 594.333 328 590.096 328 L 505.448 328 C 501.212 328 497.772 324.56 497.772 320.324 L 497.772 298.676 C 497.772 294.44 501.212 291 505.448 291 Z" style="fill:none;stroke:#000000;stroke-width:1.6855342301554246;stroke-linecap:square;stroke-miterlimit:3;"/><path d=" M 528.001 306.341 L 528.001 308.577 L 525.423 308.577 L 525.423 317.259 L 522.444 317.259 L 522.444 308.577 L 520.804 308.577 L 520.804 307.142 L 522.444 306.341 L 522.444 305.54 L 522.444 305.54 Q 522.444 303.675 523.362 302.815 L 523.362 302.815 L 523.362 302.815 Q 524.28 301.956 526.302 301.956 L 526.302 301.956 L 526.302 301.956 Q 527.845 301.956 529.046 302.415 L 529.046 302.415 L 528.284 304.603 L 528.284 304.603 Q 527.386 304.319 526.624 304.319 L 526.624 304.319 L 526.624 304.319 Q 525.989 304.319 525.706 304.695 L 525.706 304.695 L 525.706 304.695 Q 525.423 305.071 525.423 305.657 L 525.423 305.657 L 525.423 306.341 L 528.001 306.341 Z  M 534.231 308.255 L 534.231 308.255 L 534.231 308.255 Q 533.284 308.255 532.747 308.855 L 532.747 308.855 L 532.747 308.855 Q 532.21 309.456 532.132 310.56 L 532.132 310.56 L 536.311 310.56 L 536.311 310.56 Q 536.292 309.456 535.735 308.855 L 535.735 308.855 L 535.735 308.855 Q 535.179 308.255 534.231 308.255 Z  M 534.651 317.454 L 534.651 317.454 L 534.651 317.454 Q 532.015 317.454 530.53 315.999 L 530.53 315.999 L 530.53 315.999 Q 529.046 314.544 529.046 311.878 L 529.046 311.878 L 529.046 311.878 Q 529.046 309.134 530.418 307.635 L 530.418 307.635 L 530.418 307.635 Q 531.79 306.136 534.212 306.136 L 534.212 306.136 L 534.212 306.136 Q 536.526 306.136 537.815 307.454 L 537.815 307.454 L 537.815 307.454 Q 539.104 308.772 539.104 311.097 L 539.104 311.097 L 539.104 312.542 L 532.063 312.542 L 532.063 312.542 Q 532.112 313.812 532.815 314.524 L 532.815 314.524 L 532.815 314.524 Q 533.518 315.237 534.788 315.237 L 534.788 315.237 L 534.788 315.237 Q 535.774 315.237 536.653 315.032 L 536.653 315.032 L 536.653 315.032 Q 537.532 314.827 538.489 314.378 L 538.489 314.378 L 538.489 316.683 L 538.489 316.683 Q 537.708 317.073 536.819 317.264 L 536.819 317.264 L 536.819 317.264 Q 535.931 317.454 534.651 317.454 Z  M 550.54 317.259 L 548.46 317.259 L 547.884 315.774 L 547.806 315.774 L 547.806 315.774 Q 547.054 316.722 546.258 317.088 L 546.258 317.088 L 546.258 317.088 Q 545.462 317.454 544.183 317.454 L 544.183 317.454 L 544.183 317.454 Q 542.61 317.454 541.707 316.556 L 541.707 316.556 L 541.707 316.556 Q 540.804 315.657 540.804 313.997 L 540.804 313.997 L 540.804 313.997 Q 540.804 312.259 542.019 311.434 L 542.019 311.434 L 542.019 311.434 Q 543.235 310.608 545.686 310.521 L 545.686 310.521 L 547.581 310.462 L 547.581 309.983 L 547.581 309.983 Q 547.581 308.323 545.882 308.323 L 545.882 308.323 L 545.882 308.323 Q 544.573 308.323 542.806 309.114 L 542.806 309.114 L 541.819 307.103 L 541.819 307.103 Q 543.704 306.116 545.999 306.116 L 545.999 306.116 L 545.999 306.116 Q 548.196 306.116 549.368 307.073 L 549.368 307.073 L 549.368 307.073 Q 550.54 308.03 550.54 309.983 L 550.54 309.983 L 550.54 317.259 Z  M 547.581 313.099 L 547.581 312.2 L 546.429 312.239 L 546.429 312.239 Q 545.13 312.278 544.495 312.708 L 544.495 312.708 L 544.495 312.708 Q 543.86 313.138 543.86 314.017 L 543.86 314.017 L 543.86 314.017 Q 543.86 315.276 545.306 315.276 L 545.306 315.276 L 545.306 315.276 Q 546.341 315.276 546.961 314.681 L 546.961 314.681 L 546.961 314.681 Q 547.581 314.085 547.581 313.099 L 547.581 313.099 Z  M 558.206 315.081 L 558.206 315.081 L 558.206 315.081 Q 558.987 315.081 560.081 314.739 L 560.081 314.739 L 560.081 316.956 L 560.081 316.956 Q 558.968 317.454 557.347 317.454 L 557.347 317.454 L 557.347 317.454 Q 555.559 317.454 554.744 316.551 L 554.744 316.551 L 554.744 316.551 Q 553.929 315.647 553.929 313.841 L 553.929 313.841 L 553.929 308.577 L 552.503 308.577 L 552.503 307.317 L 554.143 306.321 L 555.003 304.017 L 556.907 304.017 L 556.907 306.341 L 559.964 306.341 L 559.964 308.577 L 556.907 308.577 L 556.907 313.841 L 556.907 313.841 Q 556.907 314.476 557.264 314.778 L 557.264 314.778 L 557.264 314.778 Q 557.62 315.081 558.206 315.081 Z  M 568.987 302.981 L 568.987 317.259 L 565.97 317.259 L 565.97 308.997 L 565.999 307.64 L 566.048 306.155 L 566.048 306.155 Q 565.296 306.907 565.003 307.142 L 565.003 307.142 L 563.362 308.46 L 561.907 306.644 L 566.507 302.981 L 568.987 302.981 Z " fill-rule="evenodd" fill="rgb(0,0,0)"/></g><g id="Bhead"><path d="M 511.462 253 L 583.684 253 C 587.624 253 590.823 256.199 590.823 260.139 L 590.823 282.861 C 590.823 286.801 587.624 290 583.684 290 L 511.462 290 C 507.522 290 504.323 286.801 504.323 282.861 L 504.323 260.139 C 504.323 256.199 507.522 253 511.462 253 Z" style="stroke:none;fill:#FFF3A5;stroke-linecap:square;stroke-miterlimit:3;"/><path d="M 511.462 253 L 583.684 253 C 587.624 253 590.823 256.199 590.823 260.139 L 590.823 282.861 C 590.823 286.801 587.624 290 583.684 290 L 511.462 290 C 507.522 290 504.323 286.801 504.323 282.861 L 504.323 260.139 C 504.323 256.199 507.522 253 511.462 253 Z" style="fill:none;stroke:#000000;stroke-width:1.6855342301554246;stroke-linecap:square;stroke-miterlimit:3;"/><path d=" M 532.516 265.709 L 532.516 279.986 L 529.498 279.986 L 529.498 273.824 L 523.844 273.824 L 523.844 279.986 L 520.816 279.986 L 520.816 265.709 L 523.844 265.709 L 523.844 271.304 L 529.498 271.304 L 529.498 265.709 L 532.516 265.709 Z  M 544.342 277.486 L 544.342 279.986 L 536.119 279.986 L 536.119 265.709 L 544.342 265.709 L 544.342 268.189 L 539.146 268.189 L 539.146 271.324 L 543.98 271.324 L 543.98 273.804 L 539.146 273.804 L 539.146 277.486 L 544.342 277.486 Z  M 559.322 279.986 L 556.061 279.986 L 555.025 276.588 L 549.82 276.588 L 548.785 279.986 L 545.523 279.986 L 550.562 265.65 L 554.264 265.65 L 559.322 279.986 Z  M 550.582 274.048 L 554.303 274.048 L 554.303 274.048 Q 552.867 269.429 552.686 268.824 L 552.686 268.824 L 552.686 268.824 Q 552.506 268.218 552.428 267.867 L 552.428 267.867 L 552.428 267.867 Q 552.105 269.117 550.582 274.048 L 550.582 274.048 Z  M 572.965 272.711 L 572.965 272.711 L 572.965 272.711 Q 572.965 276.236 570.958 278.111 L 570.958 278.111 L 570.958 278.111 Q 568.951 279.986 565.162 279.986 L 565.162 279.986 L 561.119 279.986 L 561.119 265.709 L 565.602 265.709 L 565.602 265.709 Q 569.098 265.709 571.031 267.554 L 571.031 267.554 L 571.031 267.554 Q 572.965 269.4 572.965 272.711 Z  M 569.82 272.789 L 569.82 272.789 L 569.82 272.789 Q 569.82 268.189 565.758 268.189 L 565.758 268.189 L 564.146 268.189 L 564.146 277.486 L 565.445 277.486 L 565.445 277.486 Q 569.82 277.486 569.82 272.789 Z " fill-rule="evenodd" fill="rgb(0,0,0)"/></g><g id="c1"><path d=" M 158.744 297.207 C 158.744 284.951 168.695 275 180.951 275 C 193.208 275 203.159 284.951 203.159 297.207 C 203.159 309.464 193.208 319.415 180.951 319.415 C 168.695 319.415 158.744 309.464 158.744 297.207 Z " fill="rgb(195,215,247)" vector-effect="non-scaling-stroke" stroke-width="2" stroke="rgb(0,0,0)" stroke-linejoin="miter" stroke-linecap="square" stroke-miterlimit="3"/><path d=" M 182.383 289.467 L 182.383 306.53 L 179.09 306.53 L 179.09 293.44 L 174.777 294.987 L 174.777 292.151 L 182.207 289.467 L 182.383 289.467 Z " fill="rgb(0,0,0)"/></g><g id="c2"><path d=" M 221.951 297.207 C 221.951 284.951 231.902 275 244.159 275 C 256.415 275 266.366 284.951 266.366 297.207 C 266.366 309.464 256.415 319.415 244.159 319.415 C 231.902 319.415 221.951 309.464 221.951 297.207 Z " fill="rgb(195,215,247)" vector-effect="non-scaling-stroke" stroke-width="2" stroke="rgb(0,0,0)" stroke-linejoin="miter" stroke-linecap="square" stroke-miterlimit="3"/><path d=" M 248.766 303.916 L 248.766 306.53 L 237.129 306.53 L 237.129 304.303 L 242.649 298.373 L 242.649 298.373 Q 243.293 297.67 243.739 297.096 L 243.739 297.096 L 243.739 297.096 Q 244.184 296.522 244.459 296.047 L 244.459 296.047 L 244.459 296.047 Q 244.735 295.573 244.858 295.162 L 244.858 295.162 L 244.858 295.162 Q 244.981 294.752 244.981 294.366 L 244.981 294.366 L 244.981 294.366 Q 244.981 293.791 244.817 293.346 L 244.817 293.346 L 244.817 293.346 Q 244.653 292.901 244.354 292.59 L 244.354 292.59 L 244.354 292.59 Q 244.055 292.28 243.639 292.116 L 243.639 292.116 L 243.639 292.116 Q 243.223 291.951 242.719 291.951 L 242.719 291.951 L 242.719 291.951 Q 241.371 291.951 240.709 292.701 L 240.709 292.701 L 240.709 292.701 Q 240.047 293.451 240.047 294.799 L 240.047 294.799 L 236.778 294.799 L 236.778 294.799 Q 236.778 293.662 237.211 292.649 L 237.211 292.649 L 237.211 292.649 Q 237.645 291.635 238.436 290.873 L 238.436 290.873 L 238.436 290.873 Q 239.227 290.112 240.346 289.672 L 240.346 289.672 L 240.346 289.672 Q 241.465 289.233 242.825 289.233 L 242.825 289.233 L 242.825 289.233 Q 244.125 289.233 245.127 289.596 L 245.127 289.596 L 245.127 289.596 Q 246.129 289.959 246.803 290.616 L 246.803 290.616 L 246.803 290.616 Q 247.477 291.272 247.828 292.192 L 247.828 292.192 L 247.828 292.192 Q 248.18 293.112 248.18 294.225 L 248.18 294.225 L 248.18 294.225 Q 248.18 295.069 247.916 295.836 L 247.916 295.836 L 247.916 295.836 Q 247.653 296.604 247.166 297.354 L 247.166 297.354 L 247.166 297.354 Q 246.68 298.104 246 298.883 L 246 298.883 L 246 298.883 Q 245.321 299.662 244.489 300.518 L 244.489 300.518 L 241.278 303.916 L 248.766 303.916 Z " fill="rgb(0,0,0)"/></g><g id="C3"><path d=" M 285.159 297.207 C 285.159 284.951 295.109 275 307.366 275 C 319.622 275 329.573 284.951 329.573 297.207 C 329.573 309.464 319.622 319.415 307.366 319.415 C 295.109 319.415 285.159 309.464 285.159 297.207 Z " fill="rgb(195,215,247)" vector-effect="non-scaling-stroke" stroke-width="2" stroke="rgb(0,0,0)" stroke-linejoin="miter" stroke-linecap="square" stroke-miterlimit="3"/><path d=" M 304.098 299.1 L 304.098 296.569 L 305.868 296.569 L 305.868 296.569 Q 307.204 296.569 307.848 295.895 L 307.848 295.895 L 307.848 295.895 Q 308.493 295.221 308.493 294.131 L 308.493 294.131 L 308.493 294.131 Q 308.493 293.627 308.346 293.211 L 308.346 293.211 L 308.346 293.211 Q 308.2 292.795 307.907 292.496 L 307.907 292.496 L 307.907 292.496 Q 307.614 292.198 307.163 292.033 L 307.163 292.033 L 307.163 292.033 Q 306.712 291.869 306.114 291.869 L 306.114 291.869 L 306.114 291.869 Q 305.622 291.869 305.194 292.01 L 305.194 292.01 L 305.194 292.01 Q 304.766 292.151 304.444 292.414 L 304.444 292.414 L 304.444 292.414 Q 304.122 292.678 303.934 293.053 L 303.934 293.053 L 303.934 293.053 Q 303.747 293.428 303.747 293.897 L 303.747 293.897 L 300.489 293.897 L 300.489 293.897 Q 300.489 292.854 300.917 291.998 L 300.917 291.998 L 300.917 291.998 Q 301.344 291.143 302.094 290.528 L 302.094 290.528 L 302.094 290.528 Q 302.844 289.912 303.858 289.573 L 303.858 289.573 L 303.858 289.573 Q 304.872 289.233 306.044 289.233 L 306.044 289.233 L 306.044 289.233 Q 307.309 289.233 308.364 289.543 L 308.364 289.543 L 308.364 289.543 Q 309.419 289.854 310.169 290.469 L 310.169 290.469 L 310.169 290.469 Q 310.919 291.084 311.335 291.992 L 311.335 291.992 L 311.335 291.992 Q 311.751 292.901 311.751 294.096 L 311.751 294.096 L 311.751 294.096 Q 311.751 294.647 311.587 295.18 L 311.587 295.18 L 311.587 295.18 Q 311.423 295.713 311.106 296.194 L 311.106 296.194 L 311.106 296.194 Q 310.79 296.674 310.321 297.078 L 310.321 297.078 L 310.321 297.078 Q 309.852 297.483 309.243 297.776 L 309.243 297.776 L 309.243 297.776 Q 309.958 298.033 310.479 298.432 L 310.479 298.432 L 310.479 298.432 Q 311.001 298.83 311.34 299.34 L 311.34 299.34 L 311.34 299.34 Q 311.68 299.85 311.844 300.459 L 311.844 300.459 L 311.844 300.459 Q 312.008 301.069 312.008 301.748 L 312.008 301.748 L 312.008 301.748 Q 312.008 302.944 311.551 303.881 L 311.551 303.881 L 311.551 303.881 Q 311.094 304.819 310.298 305.457 L 310.298 305.457 L 310.298 305.457 Q 309.501 306.096 308.405 306.43 L 308.405 306.43 L 308.405 306.43 Q 307.309 306.764 306.044 306.764 L 306.044 306.764 L 306.044 306.764 Q 304.954 306.764 303.917 306.465 L 303.917 306.465 L 303.917 306.465 Q 302.88 306.166 302.071 305.563 L 302.071 305.563 L 302.071 305.563 Q 301.262 304.959 300.776 304.045 L 300.776 304.045 L 300.776 304.045 Q 300.29 303.131 300.29 301.889 L 300.29 301.889 L 303.548 301.889 L 303.548 301.889 Q 303.548 302.381 303.735 302.797 L 303.735 302.797 L 303.735 302.797 Q 303.923 303.213 304.268 303.512 L 304.268 303.512 L 304.268 303.512 Q 304.614 303.811 305.083 303.981 L 305.083 303.981 L 305.083 303.981 Q 305.551 304.151 306.114 304.151 L 306.114 304.151 L 306.114 304.151 Q 307.356 304.151 308.059 303.494 L 308.059 303.494 L 308.059 303.494 Q 308.762 302.838 308.762 301.713 L 308.762 301.713 L 308.762 301.713 Q 308.762 301.022 308.563 300.53 L 308.563 300.53 L 308.563 300.53 Q 308.364 300.037 307.983 299.721 L 307.983 299.721 L 307.983 299.721 Q 307.602 299.405 307.069 299.252 L 307.069 299.252 L 307.069 299.252 Q 306.536 299.1 305.868 299.1 L 305.868 299.1 L 304.098 299.1 Z " fill="rgb(0,0,0)"/></g><g id="C4"><path d=" M 348.366 297.207 C 348.366 284.951 358.317 275 370.573 275 C 382.83 275 392.781 284.951 392.781 297.207 C 392.781 309.464 382.83 319.415 370.573 319.415 C 358.317 319.415 348.366 309.464 348.366 297.207 Z " fill="rgb(195,215,247)" vector-effect="non-scaling-stroke" stroke-width="2" stroke="rgb(0,0,0)" stroke-linejoin="miter" stroke-linecap="square" stroke-miterlimit="3"/><path d=" M 373.54 289.467 L 373.54 300.19 L 375.52 300.19 L 375.52 302.826 L 373.54 302.826 L 373.54 306.53 L 370.282 306.53 L 370.282 302.826 L 363.192 302.826 L 363.063 300.787 L 370.235 289.467 L 373.54 289.467 Z  M 369.966 294.412 L 366.263 300.19 L 370.282 300.19 L 370.282 293.85 L 369.966 294.412 Z " fill-rule="evenodd" fill="rgb(0,0,0)"/></g><line x1="48" y1="204" x2="751" y2="204" vector-effect="non-scaling-stroke" stroke-width="3" stroke="rgb(0,0,0)" stroke-linejoin="miter" stroke-linecap="square" stroke-miterlimit="3"/></g></svg>