<?xml version="1.0" standalone="no"?><!-- Generator: Gravit.io --><svg xmlns="http://www.w3.org/2000/svg" xmlns:xlink="http://www.w3.org/1999/xlink" style="isolation:isolate" viewBox="0 0 800 400" width="800" height="400"><defs><clipPath id="_clipPath_ULPvfdKCg9FC1bG728I0DvhoRvIFgR8Y"><rect width="800" height="400"/></clipPath></defs><g clip-path="url(#_clipPath_ULPvfdKCg9FC1bG728I0DvhoRvIFgR8Y)"><line x1="185.376" y1="100.242" x2="376.169" y2="100.242" vector-effect="non-scaling-stroke" stroke-width="2" stroke="rgb(0,0,0)" stroke-linejoin="miter" stroke-linecap="square" stroke-miterlimit="3"/><line x1="336.97" y1="159.242" x2="485.425" y2="159.242" vector-effect="non-scaling-stroke" stroke-width="2" stroke="rgb(0,0,0)" stroke-linejoin="miter" stroke-linecap="square" stroke-miterlimit="3"/><line x1="337.97" y1="159.242" x2="309.998" y2="100.242" vector-effect="non-scaling-stroke" stroke-width="2" stroke="rgb(0,0,0)" stroke-linejoin="miter" stroke-linecap="square" stroke-miterlimit="3"/><g id="Bmaster"><path d="M 332.674 34.034 L 417.322 34.034 C 421.558 34.034 424.998 37.474 424.998 41.711 L 424.998 63.358 C 424.998 67.595 421.558 71.034 417.322 71.034 L 332.674 71.034 C 328.438 71.034 324.998 67.595 324.998 63.358 L 324.998 41.711 C 324.998 37.474 328.438 34.034 332.674 34.034 Z" style="stroke:none;fill:#9FC4FF;stroke-miterlimit:10;"/><path d="M 332.674 34.034 L 417.322 34.034 C 421.558 34.034 424.998 37.474 424.998 41.711 L 424.998 63.358 C 424.998 67.595 421.558 71.034 417.322 71.034 L 332.674 71.034 C 328.438 71.034 324.998 67.595 324.998 63.358 L 324.998 41.711 C 324.998 37.474 328.438 34.034 332.674 34.034 Z" style="fill:none;stroke:#000000;stroke-width:1.6855342301554246;stroke-linecap:square;stroke-miterlimit:3;"/><path d=" M 350.216 54.315 L 350.216 59.793 L 347.237 59.793 L 347.237 53.416 L 347.237 53.416 Q 347.237 52.235 346.842 51.644 L 346.842 51.644 L 346.842 51.644 Q 346.446 51.053 345.597 51.053 L 345.597 51.053 L 345.597 51.053 Q 344.454 51.053 343.936 51.893 L 343.936 51.893 L 343.936 51.893 Q 343.419 52.733 343.419 54.657 L 343.419 54.657 L 343.419 59.793 L 340.44 59.793 L 340.44 48.875 L 342.716 48.875 L 343.116 50.272 L 343.282 50.272 L 343.282 50.272 Q 343.722 49.52 344.552 49.095 L 344.552 49.095 L 344.552 49.095 Q 345.382 48.67 346.456 48.67 L 346.456 48.67 L 346.456 48.67 Q 348.907 48.67 349.776 50.272 L 349.776 50.272 L 350.04 50.272 L 350.04 50.272 Q 350.479 49.51 351.334 49.09 L 351.334 49.09 L 351.334 49.09 Q 352.188 48.67 353.263 48.67 L 353.263 48.67 L 353.263 48.67 Q 355.118 48.67 356.07 49.622 L 356.07 49.622 L 356.07 49.622 Q 357.022 50.575 357.022 52.674 L 357.022 52.674 L 357.022 59.793 L 354.034 59.793 L 354.034 53.416 L 354.034 53.416 Q 354.034 52.235 353.639 51.644 L 353.639 51.644 L 353.639 51.644 Q 353.243 51.053 352.394 51.053 L 352.394 51.053 L 352.394 51.053 Q 351.3 51.053 350.758 51.834 L 350.758 51.834 L 350.758 51.834 Q 350.216 52.616 350.216 54.315 L 350.216 54.315 Z  M 369.093 59.793 L 367.013 59.793 L 366.436 58.309 L 366.358 58.309 L 366.358 58.309 Q 365.606 59.256 364.811 59.622 L 364.811 59.622 L 364.811 59.622 Q 364.015 59.989 362.735 59.989 L 362.735 59.989 L 362.735 59.989 Q 361.163 59.989 360.26 59.09 L 360.26 59.09 L 360.26 59.09 Q 359.356 58.192 359.356 56.532 L 359.356 56.532 L 359.356 56.532 Q 359.356 54.793 360.572 53.968 L 360.572 53.968 L 360.572 53.968 Q 361.788 53.143 364.239 53.055 L 364.239 53.055 L 366.134 52.996 L 366.134 52.518 L 366.134 52.518 Q 366.134 50.858 364.435 50.858 L 364.435 50.858 L 364.435 50.858 Q 363.126 50.858 361.358 51.649 L 361.358 51.649 L 360.372 49.637 L 360.372 49.637 Q 362.257 48.651 364.552 48.651 L 364.552 48.651 L 364.552 48.651 Q 366.749 48.651 367.921 49.608 L 367.921 49.608 L 367.921 49.608 Q 369.093 50.565 369.093 52.518 L 369.093 52.518 L 369.093 59.793 Z  M 366.134 55.633 L 366.134 54.735 L 364.981 54.774 L 364.981 54.774 Q 363.683 54.813 363.048 55.242 L 363.048 55.242 L 363.048 55.242 Q 362.413 55.672 362.413 56.551 L 362.413 56.551 L 362.413 56.551 Q 362.413 57.811 363.858 57.811 L 363.858 57.811 L 363.858 57.811 Q 364.894 57.811 365.514 57.215 L 365.514 57.215 L 365.514 57.215 Q 366.134 56.619 366.134 55.633 L 366.134 55.633 Z  M 379.776 56.551 L 379.776 56.551 L 379.776 56.551 Q 379.776 58.231 378.609 59.11 L 378.609 59.11 L 378.609 59.11 Q 377.442 59.989 375.118 59.989 L 375.118 59.989 L 375.118 59.989 Q 373.927 59.989 373.087 59.827 L 373.087 59.827 L 373.087 59.827 Q 372.247 59.666 371.515 59.354 L 371.515 59.354 L 371.515 56.893 L 371.515 56.893 Q 372.345 57.284 373.385 57.547 L 373.385 57.547 L 373.385 57.547 Q 374.425 57.811 375.216 57.811 L 375.216 57.811 L 375.216 57.811 Q 376.837 57.811 376.837 56.873 L 376.837 56.873 L 376.837 56.873 Q 376.837 56.522 376.622 56.302 L 376.622 56.302 L 376.622 56.302 Q 376.407 56.082 375.88 55.804 L 375.88 55.804 L 375.88 55.804 Q 375.352 55.526 374.474 55.155 L 374.474 55.155 L 374.474 55.155 Q 373.214 54.627 372.623 54.178 L 372.623 54.178 L 372.623 54.178 Q 372.032 53.729 371.764 53.148 L 371.764 53.148 L 371.764 53.148 Q 371.495 52.567 371.495 51.717 L 371.495 51.717 L 371.495 51.717 Q 371.495 50.262 372.623 49.466 L 372.623 49.466 L 372.623 49.466 Q 373.751 48.67 375.821 48.67 L 375.821 48.67 L 375.821 48.67 Q 377.794 48.67 379.659 49.53 L 379.659 49.53 L 378.761 51.678 L 378.761 51.678 Q 377.94 51.326 377.227 51.102 L 377.227 51.102 L 377.227 51.102 Q 376.515 50.877 375.772 50.877 L 375.772 50.877 L 375.772 50.877 Q 374.454 50.877 374.454 51.59 L 374.454 51.59 L 374.454 51.59 Q 374.454 51.991 374.879 52.284 L 374.879 52.284 L 374.879 52.284 Q 375.304 52.576 376.739 53.153 L 376.739 53.153 L 376.739 53.153 Q 378.019 53.67 378.614 54.119 L 378.614 54.119 L 378.614 54.119 Q 379.21 54.569 379.493 55.155 L 379.493 55.155 L 379.493 55.155 Q 379.776 55.741 379.776 56.551 Z  M 386.7 57.616 L 386.7 57.616 L 386.7 57.616 Q 387.481 57.616 388.575 57.274 L 388.575 57.274 L 388.575 59.491 L 388.575 59.491 Q 387.462 59.989 385.841 59.989 L 385.841 59.989 L 385.841 59.989 Q 384.054 59.989 383.238 59.085 L 383.238 59.085 L 383.238 59.085 Q 382.423 58.182 382.423 56.375 L 382.423 56.375 L 382.423 51.112 L 380.997 51.112 L 380.997 49.852 L 382.638 48.856 L 383.497 46.551 L 385.401 46.551 L 385.401 48.875 L 388.458 48.875 L 388.458 51.112 L 385.401 51.112 L 385.401 56.375 L 385.401 56.375 Q 385.401 57.01 385.758 57.313 L 385.758 57.313 L 385.758 57.313 Q 386.114 57.616 386.7 57.616 Z  M 395.304 50.789 L 395.304 50.789 L 395.304 50.789 Q 394.356 50.789 393.819 51.39 L 393.819 51.39 L 393.819 51.39 Q 393.282 51.991 393.204 53.094 L 393.204 53.094 L 397.384 53.094 L 397.384 53.094 Q 397.364 51.991 396.808 51.39 L 396.808 51.39 L 396.808 51.39 Q 396.251 50.789 395.304 50.789 Z  M 395.724 59.989 L 395.724 59.989 L 395.724 59.989 Q 393.087 59.989 391.602 58.534 L 391.602 58.534 L 391.602 58.534 Q 390.118 57.078 390.118 54.412 L 390.118 54.412 L 390.118 54.412 Q 390.118 51.668 391.49 50.169 L 391.49 50.169 L 391.49 50.169 Q 392.862 48.67 395.284 48.67 L 395.284 48.67 L 395.284 48.67 Q 397.599 48.67 398.888 49.989 L 398.888 49.989 L 398.888 49.989 Q 400.177 51.307 400.177 53.631 L 400.177 53.631 L 400.177 55.076 L 393.136 55.076 L 393.136 55.076 Q 393.185 56.346 393.888 57.059 L 393.888 57.059 L 393.888 57.059 Q 394.591 57.772 395.86 57.772 L 395.86 57.772 L 395.86 57.772 Q 396.847 57.772 397.726 57.567 L 397.726 57.567 L 397.726 57.567 Q 398.604 57.362 399.561 56.912 L 399.561 56.912 L 399.561 59.217 L 399.561 59.217 Q 398.78 59.608 397.892 59.798 L 397.892 59.798 L 397.892 59.798 Q 397.003 59.989 395.724 59.989 Z  M 408.692 48.67 L 408.692 48.67 L 408.692 48.67 Q 409.298 48.67 409.698 48.758 L 409.698 48.758 L 409.474 51.551 L 409.474 51.551 Q 409.112 51.453 408.595 51.453 L 408.595 51.453 L 408.595 51.453 Q 407.169 51.453 406.373 52.186 L 406.373 52.186 L 406.373 52.186 Q 405.577 52.918 405.577 54.237 L 405.577 54.237 L 405.577 59.793 L 402.599 59.793 L 402.599 48.875 L 404.854 48.875 L 405.294 50.711 L 405.44 50.711 L 405.44 50.711 Q 405.948 49.793 406.812 49.232 L 406.812 49.232 L 406.812 49.232 Q 407.677 48.67 408.692 48.67 Z " fill-rule="evenodd" fill="rgb(0,0,0)"/></g><g id="Bfeat1"><path d="M 445.259 95.034 L 529.907 95.034 C 534.144 95.034 537.583 98.474 537.583 102.711 L 537.583 124.358 C 537.583 128.595 534.144 132.034 529.907 132.034 L 445.259 132.034 C 441.023 132.034 437.583 128.595 437.583 124.358 L 437.583 102.711 C 437.583 98.474 441.023 95.034 445.259 95.034 Z" style="stroke:none;fill:#D1D1D1;stroke-linecap:square;stroke-miterlimit:3;"/><path d="M 445.259 95.034 L 529.907 95.034 C 534.144 95.034 537.583 98.474 537.583 102.711 L 537.583 124.358 C 537.583 128.595 534.144 132.034 529.907 132.034 L 445.259 132.034 C 441.023 132.034 437.583 128.595 437.583 124.358 L 437.583 102.711 C 437.583 98.474 441.023 95.034 445.259 95.034 Z" style="fill:none;stroke:#000000;stroke-width:1.6855342301554246;stroke-linecap:square;stroke-miterlimit:3;"/><path d=" M 467.812 110.375 L 467.812 112.612 L 465.234 112.612 L 465.234 121.293 L 462.255 121.293 L 462.255 112.612 L 460.615 112.612 L 460.615 111.176 L 462.255 110.375 L 462.255 109.575 L 462.255 109.575 Q 462.255 107.709 463.173 106.85 L 463.173 106.85 L 463.173 106.85 Q 464.091 105.991 466.113 105.991 L 466.113 105.991 L 466.113 105.991 Q 467.656 105.991 468.857 106.45 L 468.857 106.45 L 468.095 108.637 L 468.095 108.637 Q 467.197 108.354 466.435 108.354 L 466.435 108.354 L 466.435 108.354 Q 465.8 108.354 465.517 108.73 L 465.517 108.73 L 465.517 108.73 Q 465.234 109.106 465.234 109.692 L 465.234 109.692 L 465.234 110.375 L 467.812 110.375 Z  M 474.042 112.289 L 474.042 112.289 L 474.042 112.289 Q 473.095 112.289 472.558 112.89 L 472.558 112.89 L 472.558 112.89 Q 472.021 113.491 471.943 114.594 L 471.943 114.594 L 476.122 114.594 L 476.122 114.594 Q 476.103 113.491 475.546 112.89 L 475.546 112.89 L 475.546 112.89 Q 474.99 112.289 474.042 112.289 Z  M 474.462 121.489 L 474.462 121.489 L 474.462 121.489 Q 471.826 121.489 470.341 120.034 L 470.341 120.034 L 470.341 120.034 Q 468.857 118.578 468.857 115.912 L 468.857 115.912 L 468.857 115.912 Q 468.857 113.168 470.229 111.669 L 470.229 111.669 L 470.229 111.669 Q 471.601 110.17 474.023 110.17 L 474.023 110.17 L 474.023 110.17 Q 476.337 110.17 477.626 111.489 L 477.626 111.489 L 477.626 111.489 Q 478.915 112.807 478.915 115.131 L 478.915 115.131 L 478.915 116.576 L 471.874 116.576 L 471.874 116.576 Q 471.923 117.846 472.626 118.559 L 472.626 118.559 L 472.626 118.559 Q 473.329 119.272 474.599 119.272 L 474.599 119.272 L 474.599 119.272 Q 475.585 119.272 476.464 119.067 L 476.464 119.067 L 476.464 119.067 Q 477.343 118.862 478.3 118.412 L 478.3 118.412 L 478.3 120.717 L 478.3 120.717 Q 477.519 121.108 476.63 121.298 L 476.63 121.298 L 476.63 121.298 Q 475.742 121.489 474.462 121.489 Z  M 490.351 121.293 L 488.271 121.293 L 487.695 119.809 L 487.617 119.809 L 487.617 119.809 Q 486.865 120.756 486.069 121.122 L 486.069 121.122 L 486.069 121.122 Q 485.273 121.489 483.994 121.489 L 483.994 121.489 L 483.994 121.489 Q 482.421 121.489 481.518 120.59 L 481.518 120.59 L 481.518 120.59 Q 480.615 119.692 480.615 118.032 L 480.615 118.032 L 480.615 118.032 Q 480.615 116.293 481.83 115.468 L 481.83 115.468 L 481.83 115.468 Q 483.046 114.643 485.497 114.555 L 485.497 114.555 L 487.392 114.496 L 487.392 114.018 L 487.392 114.018 Q 487.392 112.358 485.693 112.358 L 485.693 112.358 L 485.693 112.358 Q 484.384 112.358 482.617 113.149 L 482.617 113.149 L 481.63 111.137 L 481.63 111.137 Q 483.515 110.151 485.81 110.151 L 485.81 110.151 L 485.81 110.151 Q 488.007 110.151 489.179 111.108 L 489.179 111.108 L 489.179 111.108 Q 490.351 112.065 490.351 114.018 L 490.351 114.018 L 490.351 121.293 Z  M 487.392 117.133 L 487.392 116.235 L 486.24 116.274 L 486.24 116.274 Q 484.941 116.313 484.306 116.742 L 484.306 116.742 L 484.306 116.742 Q 483.671 117.172 483.671 118.051 L 483.671 118.051 L 483.671 118.051 Q 483.671 119.311 485.117 119.311 L 485.117 119.311 L 485.117 119.311 Q 486.152 119.311 486.772 118.715 L 486.772 118.715 L 486.772 118.715 Q 487.392 118.119 487.392 117.133 L 487.392 117.133 Z  M 498.017 119.116 L 498.017 119.116 L 498.017 119.116 Q 498.798 119.116 499.892 118.774 L 499.892 118.774 L 499.892 120.991 L 499.892 120.991 Q 498.779 121.489 497.158 121.489 L 497.158 121.489 L 497.158 121.489 Q 495.37 121.489 494.555 120.585 L 494.555 120.585 L 494.555 120.585 Q 493.74 119.682 493.74 117.875 L 493.74 117.875 L 493.74 112.612 L 492.314 112.612 L 492.314 111.352 L 493.954 110.356 L 494.814 108.051 L 496.718 108.051 L 496.718 110.375 L 499.775 110.375 L 499.775 112.612 L 496.718 112.612 L 496.718 117.875 L 496.718 117.875 Q 496.718 118.51 497.075 118.813 L 497.075 118.813 L 497.075 118.813 Q 497.431 119.116 498.017 119.116 Z  M 508.798 107.016 L 508.798 121.293 L 505.781 121.293 L 505.781 113.032 L 505.81 111.674 L 505.859 110.19 L 505.859 110.19 Q 505.107 110.942 504.814 111.176 L 504.814 111.176 L 503.173 112.494 L 501.718 110.678 L 506.318 107.016 L 508.798 107.016 Z " fill-rule="evenodd" fill="rgb(0,0,0)"/></g><g id="Bhead"><path d="M 451.086 58.034 L 523.308 58.034 C 527.248 58.034 530.447 61.233 530.447 65.174 L 530.447 87.895 C 530.447 91.836 527.248 95.034 523.308 95.034 L 451.086 95.034 C 447.146 95.034 443.947 91.836 443.947 87.895 L 443.947 65.174 C 443.947 61.233 447.146 58.034 451.086 58.034 Z" style="stroke:none;fill:#FFF3A5;stroke-linecap:square;stroke-miterlimit:3;"/><path d="M 451.086 58.034 L 523.308 58.034 C 527.248 58.034 530.447 61.233 530.447 65.174 L 530.447 87.895 C 530.447 91.836 527.248 95.034 523.308 95.034 L 451.086 95.034 C 447.146 95.034 443.947 91.836 443.947 87.895 L 443.947 65.174 C 443.947 61.233 447.146 58.034 451.086 58.034 Z" style="fill:none;stroke:#000000;stroke-width:1.6855342301554246;stroke-linecap:square;stroke-miterlimit:3;"/><path d=" M 472.14 70.743 L 472.14 85.02 L 469.122 85.02 L 469.122 78.858 L 463.468 78.858 L 463.468 85.02 L 460.44 85.02 L 460.44 70.743 L 463.468 70.743 L 463.468 76.339 L 469.122 76.339 L 469.122 70.743 L 472.14 70.743 Z  M 483.966 82.52 L 483.966 85.02 L 475.743 85.02 L 475.743 70.743 L 483.966 70.743 L 483.966 73.224 L 478.77 73.224 L 478.77 76.358 L 483.604 76.358 L 483.604 78.839 L 478.77 78.839 L 478.77 82.52 L 483.966 82.52 Z  M 498.946 85.02 L 495.684 85.02 L 494.649 81.622 L 489.444 81.622 L 488.409 85.02 L 485.147 85.02 L 490.186 70.684 L 493.888 70.684 L 498.946 85.02 Z  M 490.206 79.083 L 493.927 79.083 L 493.927 79.083 Q 492.491 74.464 492.31 73.858 L 492.31 73.858 L 492.31 73.858 Q 492.13 73.253 492.052 72.901 L 492.052 72.901 L 492.052 72.901 Q 491.729 74.151 490.206 79.083 L 490.206 79.083 Z  M 512.589 77.745 L 512.589 77.745 L 512.589 77.745 Q 512.589 81.27 510.582 83.145 L 510.582 83.145 L 510.582 83.145 Q 508.575 85.02 504.786 85.02 L 504.786 85.02 L 500.743 85.02 L 500.743 70.743 L 505.225 70.743 L 505.225 70.743 Q 508.722 70.743 510.655 72.589 L 510.655 72.589 L 510.655 72.589 Q 512.589 74.434 512.589 77.745 Z  M 509.444 77.823 L 509.444 77.823 L 509.444 77.823 Q 509.444 73.224 505.382 73.224 L 505.382 73.224 L 503.77 73.224 L 503.77 82.52 L 505.069 82.52 L 505.069 82.52 Q 509.444 82.52 509.444 77.823 Z " fill-rule="evenodd" fill="rgb(0,0,0)"/></g><g id="c1"><path d=" M 163.169 100.242 C 163.169 87.985 173.119 78.034 185.376 78.034 C 197.633 78.034 207.583 87.985 207.583 100.242 C 207.583 112.498 197.633 122.449 185.376 122.449 C 173.119 122.449 163.169 112.498 163.169 100.242 Z " fill="rgb(195,215,247)" vector-effect="non-scaling-stroke" stroke-width="2" stroke="rgb(0,0,0)" stroke-linejoin="miter" stroke-linecap="square" stroke-miterlimit="3"/><path d=" M 186.808 92.502 L 186.808 109.564 L 183.515 109.564 L 183.515 96.474 L 179.202 98.021 L 179.202 95.185 L 186.632 92.502 L 186.808 92.502 Z " fill="rgb(0,0,0)"/></g><g id="c2"><path d=" M 226.376 100.242 C 226.376 87.985 236.327 78.034 248.583 78.034 C 260.84 78.034 270.791 87.985 270.791 100.242 C 270.791 112.498 260.84 122.449 248.583 122.449 C 236.327 122.449 226.376 112.498 226.376 100.242 Z " fill="rgb(195,215,247)" vector-effect="non-scaling-stroke" stroke-width="2" stroke="rgb(0,0,0)" stroke-linejoin="miter" stroke-linecap="square" stroke-miterlimit="3"/><path d=" M 253.191 106.951 L 253.191 109.564 L 241.554 109.564 L 241.554 107.338 L 247.074 101.408 L 247.074 101.408 Q 247.718 100.705 248.163 100.13 L 248.163 100.13 L 248.163 100.13 Q 248.609 99.556 248.884 99.082 L 248.884 99.082 L 248.884 99.082 Q 249.16 98.607 249.283 98.197 L 249.283 98.197 L 249.283 98.197 Q 249.406 97.787 249.406 97.4 L 249.406 97.4 L 249.406 97.4 Q 249.406 96.826 249.242 96.38 L 249.242 96.38 L 249.242 96.38 Q 249.078 95.935 248.779 95.625 L 248.779 95.625 L 248.779 95.625 Q 248.48 95.314 248.064 95.15 L 248.064 95.15 L 248.064 95.15 Q 247.648 94.986 247.144 94.986 L 247.144 94.986 L 247.144 94.986 Q 245.796 94.986 245.134 95.736 L 245.134 95.736 L 245.134 95.736 Q 244.472 96.486 244.472 97.834 L 244.472 97.834 L 241.203 97.834 L 241.203 97.834 Q 241.203 96.697 241.636 95.683 L 241.636 95.683 L 241.636 95.683 Q 242.07 94.67 242.861 93.908 L 242.861 93.908 L 242.861 93.908 Q 243.652 93.146 244.771 92.707 L 244.771 92.707 L 244.771 92.707 Q 245.89 92.267 247.249 92.267 L 247.249 92.267 L 247.249 92.267 Q 248.55 92.267 249.552 92.63 L 249.552 92.63 L 249.552 92.63 Q 250.554 92.994 251.228 93.65 L 251.228 93.65 L 251.228 93.65 Q 251.902 94.306 252.253 95.226 L 252.253 95.226 L 252.253 95.226 Q 252.605 96.146 252.605 97.259 L 252.605 97.259 L 252.605 97.259 Q 252.605 98.103 252.341 98.871 L 252.341 98.871 L 252.341 98.871 Q 252.078 99.638 251.591 100.388 L 251.591 100.388 L 251.591 100.388 Q 251.105 101.138 250.425 101.918 L 250.425 101.918 L 250.425 101.918 Q 249.745 102.697 248.913 103.552 L 248.913 103.552 L 245.703 106.951 L 253.191 106.951 Z " fill="rgb(0,0,0)"/></g><g id="C3"><path d=" M 289.583 100.242 C 289.583 87.985 299.534 78.034 311.791 78.034 C 324.047 78.034 333.998 87.985 333.998 100.242 C 333.998 112.498 324.047 122.449 311.791 122.449 C 299.534 122.449 289.583 112.498 289.583 100.242 Z " fill="rgb(195,215,247)" vector-effect="non-scaling-stroke" stroke-width="2" stroke="rgb(0,0,0)" stroke-linejoin="miter" stroke-linecap="square" stroke-miterlimit="3"/><path d=" M 308.523 102.134 L 308.523 99.603 L 310.293 99.603 L 310.293 99.603 Q 311.629 99.603 312.273 98.929 L 312.273 98.929 L 312.273 98.929 Q 312.918 98.255 312.918 97.166 L 312.918 97.166 L 312.918 97.166 Q 312.918 96.662 312.771 96.246 L 312.771 96.246 L 312.771 96.246 Q 312.625 95.83 312.332 95.531 L 312.332 95.531 L 312.332 95.531 Q 312.039 95.232 311.588 95.068 L 311.588 95.068 L 311.588 95.068 Q 311.136 94.904 310.539 94.904 L 310.539 94.904 L 310.539 94.904 Q 310.047 94.904 309.619 95.045 L 309.619 95.045 L 309.619 95.045 Q 309.191 95.185 308.869 95.449 L 308.869 95.449 L 308.869 95.449 Q 308.547 95.713 308.359 96.088 L 308.359 96.088 L 308.359 96.088 Q 308.172 96.463 308.172 96.931 L 308.172 96.931 L 304.914 96.931 L 304.914 96.931 Q 304.914 95.888 305.341 95.033 L 305.341 95.033 L 305.341 95.033 Q 305.769 94.177 306.519 93.562 L 306.519 93.562 L 306.519 93.562 Q 307.269 92.947 308.283 92.607 L 308.283 92.607 L 308.283 92.607 Q 309.297 92.267 310.468 92.267 L 310.468 92.267 L 310.468 92.267 Q 311.734 92.267 312.789 92.578 L 312.789 92.578 L 312.789 92.578 Q 313.843 92.888 314.593 93.504 L 314.593 93.504 L 314.593 93.504 Q 315.343 94.119 315.759 95.027 L 315.759 95.027 L 315.759 95.027 Q 316.175 95.935 316.175 97.13 L 316.175 97.13 L 316.175 97.13 Q 316.175 97.681 316.011 98.214 L 316.011 98.214 L 316.011 98.214 Q 315.847 98.748 315.531 99.228 L 315.531 99.228 L 315.531 99.228 Q 315.215 99.709 314.746 100.113 L 314.746 100.113 L 314.746 100.113 Q 314.277 100.517 313.668 100.81 L 313.668 100.81 L 313.668 100.81 Q 314.382 101.068 314.904 101.466 L 314.904 101.466 L 314.904 101.466 Q 315.425 101.865 315.765 102.375 L 315.765 102.375 L 315.765 102.375 Q 316.105 102.884 316.269 103.494 L 316.269 103.494 L 316.269 103.494 Q 316.433 104.103 316.433 104.783 L 316.433 104.783 L 316.433 104.783 Q 316.433 105.978 315.976 106.916 L 315.976 106.916 L 315.976 106.916 Q 315.519 107.853 314.722 108.492 L 314.722 108.492 L 314.722 108.492 Q 313.925 109.13 312.83 109.464 L 312.83 109.464 L 312.83 109.464 Q 311.734 109.798 310.468 109.798 L 310.468 109.798 L 310.468 109.798 Q 309.379 109.798 308.341 109.5 L 308.341 109.5 L 308.341 109.5 Q 307.304 109.201 306.496 108.597 L 306.496 108.597 L 306.496 108.597 Q 305.687 107.994 305.201 107.08 L 305.201 107.08 L 305.201 107.08 Q 304.715 106.166 304.715 104.923 L 304.715 104.923 L 307.972 104.923 L 307.972 104.923 Q 307.972 105.416 308.16 105.832 L 308.16 105.832 L 308.16 105.832 Q 308.347 106.248 308.693 106.546 L 308.693 106.546 L 308.693 106.546 Q 309.039 106.845 309.507 107.015 L 309.507 107.015 L 309.507 107.015 Q 309.976 107.185 310.539 107.185 L 310.539 107.185 L 310.539 107.185 Q 311.781 107.185 312.484 106.529 L 312.484 106.529 L 312.484 106.529 Q 313.187 105.873 313.187 104.748 L 313.187 104.748 L 313.187 104.748 Q 313.187 104.056 312.988 103.564 L 312.988 103.564 L 312.988 103.564 Q 312.789 103.072 312.408 102.755 L 312.408 102.755 L 312.408 102.755 Q 312.027 102.439 311.494 102.287 L 311.494 102.287 L 311.494 102.287 Q 310.961 102.134 310.293 102.134 L 310.293 102.134 L 308.523 102.134 Z " fill="rgb(0,0,0)"/></g><g id="C4"><path d=" M 352.791 100.242 C 352.791 87.985 362.741 78.034 374.998 78.034 C 387.255 78.034 397.205 87.985 397.205 100.242 C 397.205 112.498 387.255 122.449 374.998 122.449 C 362.741 122.449 352.791 112.498 352.791 100.242 Z " fill="rgb(195,215,247)" vector-effect="non-scaling-stroke" stroke-width="2" stroke="rgb(0,0,0)" stroke-linejoin="miter" stroke-linecap="square" stroke-miterlimit="3"/><path d=" M 377.965 92.502 L 377.965 103.224 L 379.945 103.224 L 379.945 105.861 L 377.965 105.861 L 377.965 109.564 L 374.707 109.564 L 374.707 105.861 L 367.617 105.861 L 367.488 103.822 L 374.66 92.502 L 377.965 92.502 Z  M 374.391 97.447 L 370.687 103.224 L 374.707 103.224 L 374.707 96.884 L 374.391 97.447 Z " fill-rule="evenodd" fill="rgb(0,0,0)"/></g><g id="C5"><path d=" M 315.762 159.242 C 315.762 146.985 325.713 137.034 337.97 137.034 C 350.226 137.034 360.177 146.985 360.177 159.242 C 360.177 171.498 350.226 181.449 337.97 181.449 C 325.713 181.449 315.762 171.498 315.762 159.242 Z " fill="rgb(209,209,209)" vector-effect="non-scaling-stroke" stroke-width="2" stroke="rgb(0,0,0)" stroke-linejoin="miter" stroke-linecap="square" stroke-miterlimit="3"/><path d=" M 334.186 160.806 L 331.585 160.162 L 332.557 151.502 L 342.026 151.502 L 342.026 154.267 L 335.241 154.267 L 334.831 158.017 L 334.831 158.017 Q 335.194 157.806 335.862 157.584 L 335.862 157.584 L 335.862 157.584 Q 336.53 157.361 337.397 157.361 L 337.397 157.361 L 337.397 157.361 Q 338.628 157.361 339.595 157.754 L 339.595 157.754 L 339.595 157.754 Q 340.561 158.146 341.223 158.884 L 341.223 158.884 L 341.223 158.884 Q 341.886 159.623 342.237 160.689 L 342.237 160.689 L 342.237 160.689 Q 342.589 161.755 342.589 163.103 L 342.589 163.103 L 342.589 163.103 Q 342.589 164.252 342.249 165.283 L 342.249 165.283 L 342.249 165.283 Q 341.909 166.314 341.206 167.099 L 341.206 167.099 L 341.206 167.099 Q 340.503 167.884 339.436 168.341 L 339.436 168.341 L 339.436 168.341 Q 338.37 168.798 336.917 168.798 L 336.917 168.798 L 336.917 168.798 Q 335.815 168.798 334.79 168.47 L 334.79 168.47 L 334.79 168.47 Q 333.764 168.142 332.968 167.509 L 332.968 167.509 L 332.968 167.509 Q 332.171 166.877 331.673 165.957 L 331.673 165.957 L 331.673 165.957 Q 331.175 165.037 331.139 163.853 L 331.139 163.853 L 334.35 163.853 L 334.35 163.853 Q 334.468 164.966 335.153 165.576 L 335.153 165.576 L 335.153 165.576 Q 335.839 166.185 336.905 166.185 L 336.905 166.185 L 336.905 166.185 Q 337.561 166.185 338.024 165.939 L 338.024 165.939 L 338.024 165.939 Q 338.487 165.693 338.774 165.259 L 338.774 165.259 L 338.774 165.259 Q 339.061 164.826 339.196 164.228 L 339.196 164.228 L 339.196 164.228 Q 339.331 163.63 339.331 162.939 L 339.331 162.939 L 339.331 162.939 Q 339.331 162.259 339.161 161.691 L 339.161 161.691 L 339.161 161.691 Q 338.991 161.123 338.639 160.713 L 338.639 160.713 L 338.639 160.713 Q 338.288 160.302 337.761 160.08 L 337.761 160.08 L 337.761 160.08 Q 337.233 159.857 336.518 159.857 L 336.518 159.857 L 336.518 159.857 Q 336.038 159.857 335.686 159.939 L 335.686 159.939 L 335.686 159.939 Q 335.335 160.021 335.065 160.15 L 335.065 160.15 L 335.065 160.15 Q 334.796 160.279 334.585 160.449 L 334.585 160.449 L 334.585 160.449 Q 334.374 160.619 334.186 160.806 L 334.186 160.806 Z " fill="rgb(0,0,0)"/></g><g id="C6"><path d=" M 390.376 159.242 C 390.376 146.985 400.327 137.034 412.583 137.034 C 424.84 137.034 434.791 146.985 434.791 159.242 C 434.791 171.498 424.84 181.449 412.583 181.449 C 400.327 181.449 390.376 171.498 390.376 159.242 Z " fill="rgb(209,209,209)" vector-effect="non-scaling-stroke" stroke-width="2" stroke="rgb(0,0,0)" stroke-linejoin="miter" stroke-linecap="square" stroke-miterlimit="3"/><path d=" M 414.249 151.361 L 414.683 151.361 L 414.683 154.068 L 414.495 154.068 L 414.495 154.068 Q 413.206 154.068 412.216 154.408 L 412.216 154.408 L 412.216 154.408 Q 411.226 154.748 410.529 155.369 L 410.529 155.369 L 410.529 155.369 Q 409.831 155.99 409.427 156.857 L 409.427 156.857 L 409.427 156.857 Q 409.023 157.724 408.917 158.791 L 408.917 158.791 L 408.917 158.791 Q 409.187 158.498 409.538 158.211 L 409.538 158.211 L 409.538 158.211 Q 409.89 157.923 410.329 157.695 L 410.329 157.695 L 410.329 157.695 Q 410.769 157.466 411.285 157.326 L 411.285 157.326 L 411.285 157.326 Q 411.8 157.185 412.398 157.185 L 412.398 157.185 L 412.398 157.185 Q 413.617 157.185 414.525 157.648 L 414.525 157.648 L 414.525 157.648 Q 415.433 158.111 416.042 158.902 L 416.042 158.902 L 416.042 158.902 Q 416.652 159.693 416.951 160.742 L 416.951 160.742 L 416.951 160.742 Q 417.249 161.791 417.249 162.951 L 417.249 162.951 L 417.249 162.951 Q 417.249 164.193 416.851 165.259 L 416.851 165.259 L 416.851 165.259 Q 416.453 166.326 415.714 167.111 L 415.714 167.111 L 415.714 167.111 Q 414.976 167.896 413.921 168.347 L 413.921 168.347 L 413.921 168.347 Q 412.867 168.798 411.554 168.798 L 411.554 168.798 L 411.554 168.798 Q 410.183 168.798 409.081 168.289 L 409.081 168.289 L 409.081 168.289 Q 407.98 167.779 407.212 166.877 L 407.212 166.877 L 407.212 166.877 Q 406.445 165.974 406.029 164.738 L 406.029 164.738 L 406.029 164.738 Q 405.613 163.502 405.613 162.037 L 405.613 162.037 L 405.613 160.783 L 405.613 160.783 Q 405.613 158.755 406.163 157.027 L 406.163 157.027 L 406.163 157.027 Q 406.714 155.298 407.804 154.039 L 407.804 154.039 L 407.804 154.039 Q 408.894 152.779 410.511 152.07 L 410.511 152.07 L 410.511 152.07 Q 412.128 151.361 414.249 151.361 L 414.249 151.361 Z  M 411.449 159.798 L 411.449 159.798 L 411.449 159.798 Q 410.57 159.798 409.896 160.267 L 409.896 160.267 L 409.896 160.267 Q 409.222 160.736 408.882 161.474 L 408.882 161.474 L 408.882 162.435 L 408.882 162.435 Q 408.882 163.373 409.076 164.076 L 409.076 164.076 L 409.076 164.076 Q 409.269 164.779 409.62 165.242 L 409.62 165.242 L 409.62 165.242 Q 409.972 165.705 410.453 165.939 L 410.453 165.939 L 410.453 165.939 Q 410.933 166.173 411.495 166.173 L 411.495 166.173 L 411.495 166.173 Q 412.07 166.173 412.538 165.933 L 412.538 165.933 L 412.538 165.933 Q 413.007 165.693 413.335 165.271 L 413.335 165.271 L 413.335 165.271 Q 413.663 164.849 413.839 164.269 L 413.839 164.269 L 413.839 164.269 Q 414.015 163.689 414.015 162.998 L 414.015 162.998 L 414.015 162.998 Q 414.015 162.306 413.839 161.72 L 413.839 161.72 L 413.839 161.72 Q 413.663 161.134 413.335 160.707 L 413.335 160.707 L 413.335 160.707 Q 413.007 160.279 412.533 160.039 L 412.533 160.039 L 412.533 160.039 Q 412.058 159.798 411.449 159.798 Z " fill-rule="evenodd" fill="rgb(0,0,0)"/></g><g id="C8"><path d=" M 464.99 159.242 C 464.99 146.985 474.941 137.034 487.197 137.034 C 499.454 137.034 509.404 146.985 509.404 159.242 C 509.404 171.498 499.454 181.449 487.197 181.449 C 474.941 181.449 464.99 171.498 464.99 159.242 Z " fill="rgb(209,209,209)" vector-effect="non-scaling-stroke" stroke-width="2" stroke="rgb(0,0,0)" stroke-linejoin="miter" stroke-linecap="square" stroke-miterlimit="3"/><path d=" M 491.793 151.502 L 491.793 153.318 L 485.148 168.564 L 481.715 168.564 L 488.371 154.162 L 479.805 154.162 L 479.805 151.502 L 491.793 151.502 Z " fill="rgb(0,0,0)"/></g><line x1="342.393" y1="351.758" x2="490.533" y2="351.758" vector-effect="non-scaling-stroke" stroke-width="2" stroke="rgb(0,0,0)" stroke-linejoin="miter" stroke-linecap="square" stroke-miterlimit="3"/><line x1="340.077" y1="351.758" x2="312.106" y2="292.758" vector-effect="non-scaling-stroke" stroke-width="2" stroke="rgb(0,0,0)" stroke-linejoin="miter" stroke-linecap="square" stroke-miterlimit="3"/><g id="C5"><path d=" M 320.87 351.758 C 320.87 339.502 330.821 329.551 343.077 329.551 C 355.334 329.551 365.285 339.502 365.285 351.758 C 365.285 364.015 355.334 373.966 343.077 373.966 C 330.821 373.966 320.87 364.015 320.87 351.758 Z " fill="rgb(209,209,209)" vector-effect="non-scaling-stroke" stroke-width="2" stroke="rgb(0,0,0)" stroke-linejoin="miter" stroke-linecap="square" stroke-miterlimit="3"/><path d=" M 339.294 353.323 L 336.693 352.678 L 337.665 344.018 L 347.134 344.018 L 347.134 346.784 L 340.349 346.784 L 339.939 350.534 L 339.939 350.534 Q 340.302 350.323 340.97 350.1 L 340.97 350.1 L 340.97 350.1 Q 341.638 349.877 342.505 349.877 L 342.505 349.877 L 342.505 349.877 Q 343.735 349.877 344.702 350.27 L 344.702 350.27 L 344.702 350.27 Q 345.669 350.662 346.331 351.401 L 346.331 351.401 L 346.331 351.401 Q 346.993 352.139 347.345 353.205 L 347.345 353.205 L 347.345 353.205 Q 347.696 354.272 347.696 355.62 L 347.696 355.62 L 347.696 355.62 Q 347.696 356.768 347.357 357.799 L 347.357 357.799 L 347.357 357.799 Q 347.017 358.83 346.314 359.616 L 346.314 359.616 L 346.314 359.616 Q 345.61 360.401 344.544 360.858 L 344.544 360.858 L 344.544 360.858 Q 343.478 361.315 342.025 361.315 L 342.025 361.315 L 342.025 361.315 Q 340.923 361.315 339.898 360.987 L 339.898 360.987 L 339.898 360.987 Q 338.872 360.659 338.075 360.026 L 338.075 360.026 L 338.075 360.026 Q 337.278 359.393 336.78 358.473 L 336.78 358.473 L 336.78 358.473 Q 336.282 357.553 336.247 356.37 L 336.247 356.37 L 339.458 356.37 L 339.458 356.37 Q 339.575 357.483 340.261 358.092 L 340.261 358.092 L 340.261 358.092 Q 340.946 358.702 342.013 358.702 L 342.013 358.702 L 342.013 358.702 Q 342.669 358.702 343.132 358.455 L 343.132 358.455 L 343.132 358.455 Q 343.595 358.209 343.882 357.776 L 343.882 357.776 L 343.882 357.776 Q 344.169 357.342 344.304 356.745 L 344.304 356.745 L 344.304 356.745 Q 344.439 356.147 344.439 355.455 L 344.439 355.455 L 344.439 355.455 Q 344.439 354.776 344.269 354.207 L 344.269 354.207 L 344.269 354.207 Q 344.099 353.639 343.747 353.229 L 343.747 353.229 L 343.747 353.229 Q 343.396 352.819 342.868 352.596 L 342.868 352.596 L 342.868 352.596 Q 342.341 352.373 341.626 352.373 L 341.626 352.373 L 341.626 352.373 Q 341.146 352.373 340.794 352.455 L 340.794 352.455 L 340.794 352.455 Q 340.443 352.537 340.173 352.666 L 340.173 352.666 L 340.173 352.666 Q 339.903 352.795 339.693 352.965 L 339.693 352.965 L 339.693 352.965 Q 339.482 353.135 339.294 353.323 L 339.294 353.323 Z " fill="rgb(0,0,0)"/></g><g id="C8"><path d=" M 470.098 351.758 C 470.098 339.502 480.048 329.551 492.305 329.551 C 504.561 329.551 514.512 339.502 514.512 351.758 C 514.512 364.015 504.561 373.966 492.305 373.966 C 480.048 373.966 470.098 364.015 470.098 351.758 Z " fill="rgb(209,209,209)" vector-effect="non-scaling-stroke" stroke-width="2" stroke="rgb(0,0,0)" stroke-linejoin="miter" stroke-linecap="square" stroke-miterlimit="3"/><path d=" M 486.772 358.491 L 486.994 358.491 L 486.994 358.491 Q 488.307 358.491 489.268 358.209 L 489.268 358.209 L 489.268 358.209 Q 490.229 357.928 490.879 357.395 L 490.879 357.395 L 490.879 357.395 Q 491.53 356.862 491.887 356.094 L 491.887 356.094 L 491.887 356.094 Q 492.244 355.327 492.35 354.354 L 492.35 354.354 L 492.35 354.354 Q 491.858 354.846 491.084 355.198 L 491.084 355.198 L 491.084 355.198 Q 490.311 355.549 489.209 355.549 L 489.209 355.549 L 489.209 355.549 Q 487.99 355.549 487.065 355.104 L 487.065 355.104 L 487.065 355.104 Q 486.139 354.659 485.512 353.885 L 485.512 353.885 L 485.512 353.885 Q 484.885 353.112 484.563 352.063 L 484.563 352.063 L 484.563 352.063 Q 484.24 351.014 484.24 349.807 L 484.24 349.807 L 484.24 349.807 Q 484.24 348.565 484.633 347.469 L 484.633 347.469 L 484.633 347.469 Q 485.026 346.373 485.764 345.553 L 485.764 345.553 L 485.764 345.553 Q 486.502 344.733 487.551 344.258 L 487.551 344.258 L 487.551 344.258 Q 488.6 343.784 489.912 343.784 L 489.912 343.784 L 489.912 343.784 Q 491.248 343.784 492.315 344.299 L 492.315 344.299 L 492.315 344.299 Q 493.381 344.815 494.125 345.741 L 494.125 345.741 L 494.125 345.741 Q 494.869 346.666 495.262 347.944 L 495.262 347.944 L 495.262 347.944 Q 495.655 349.221 495.655 350.745 L 495.655 350.745 L 495.655 351.87 L 495.655 351.87 Q 495.655 353.909 495.151 355.62 L 495.151 355.62 L 495.151 355.62 Q 494.647 357.33 493.592 358.579 L 493.592 358.579 L 493.592 358.579 Q 492.537 359.827 490.908 360.524 L 490.908 360.524 L 490.908 360.524 Q 489.28 361.221 487.018 361.221 L 487.018 361.221 L 486.772 361.221 L 486.772 358.491 Z  M 489.983 353.03 L 489.983 353.03 L 489.983 353.03 Q 490.428 353.03 490.809 352.901 L 490.809 352.901 L 490.809 352.901 Q 491.19 352.772 491.5 352.543 L 491.5 352.543 L 491.5 352.543 Q 491.811 352.315 492.039 352.004 L 492.039 352.004 L 492.039 352.004 Q 492.268 351.694 492.408 351.33 L 492.408 351.33 L 492.408 350.17 L 492.408 350.17 Q 492.408 349.233 492.215 348.53 L 492.215 348.53 L 492.215 348.53 Q 492.022 347.827 491.682 347.358 L 491.682 347.358 L 491.682 347.358 Q 491.342 346.889 490.885 346.655 L 490.885 346.655 L 490.885 346.655 Q 490.428 346.42 489.901 346.42 L 489.901 346.42 L 489.901 346.42 Q 489.326 346.42 488.875 346.696 L 488.875 346.696 L 488.875 346.696 Q 488.424 346.971 488.119 347.434 L 488.119 347.434 L 488.119 347.434 Q 487.815 347.897 487.651 348.5 L 487.651 348.5 L 487.651 348.5 Q 487.487 349.104 487.487 349.76 L 487.487 349.76 L 487.487 349.76 Q 487.487 350.416 487.639 351.014 L 487.639 351.014 L 487.639 351.014 Q 487.791 351.612 488.102 352.057 L 488.102 352.057 L 488.102 352.057 Q 488.412 352.502 488.881 352.766 L 488.881 352.766 L 488.881 352.766 Q 489.35 353.03 489.983 353.03 Z " fill-rule="evenodd" fill="rgb(0,0,0)"/></g><line x1="185.484" y1="292.758" x2="376.161" y2="292.758" vector-effect="non-scaling-stroke" stroke-width="2" stroke="rgb(0,0,0)" stroke-linejoin="miter" stroke-linecap="square" stroke-miterlimit="3"/><g id="Bmaster"><path d="M 331.961 226.449 L 416.609 226.449 C 420.845 226.449 424.285 229.889 424.285 234.125 L 424.285 255.773 C 424.285 260.01 420.845 263.449 416.609 263.449 L 331.961 263.449 C 327.724 263.449 324.285 260.01 324.285 255.773 L 324.285 234.125 C 324.285 229.889 327.724 226.449 331.961 226.449 Z" style="stroke:none;fill:#9FC4FF;stroke-linecap:square;stroke-miterlimit:3;"/><path d="M 331.961 226.449 L 416.609 226.449 C 420.845 226.449 424.285 229.889 424.285 234.125 L 424.285 255.773 C 424.285 260.01 420.845 263.449 416.609 263.449 L 331.961 263.449 C 327.724 263.449 324.285 260.01 324.285 255.773 L 324.285 234.125 C 324.285 229.889 327.724 226.449 331.961 226.449 Z" style="fill:none;stroke:#000000;stroke-width:1.6855342301554246;stroke-linecap:square;stroke-miterlimit:3;"/><path d=" M 350.502 247.831 L 350.502 253.31 L 347.524 253.31 L 347.524 246.933 L 347.524 246.933 Q 347.524 245.751 347.128 245.16 L 347.128 245.16 L 347.128 245.16 Q 346.733 244.569 345.883 244.569 L 345.883 244.569 L 345.883 244.569 Q 344.741 244.569 344.223 245.409 L 344.223 245.409 L 344.223 245.409 Q 343.706 246.249 343.706 248.173 L 343.706 248.173 L 343.706 253.31 L 340.727 253.31 L 340.727 242.392 L 343.002 242.392 L 343.403 243.788 L 343.569 243.788 L 343.569 243.788 Q 344.008 243.036 344.838 242.611 L 344.838 242.611 L 344.838 242.611 Q 345.668 242.187 346.743 242.187 L 346.743 242.187 L 346.743 242.187 Q 349.194 242.187 350.063 243.788 L 350.063 243.788 L 350.327 243.788 L 350.327 243.788 Q 350.766 243.026 351.621 242.607 L 351.621 242.607 L 351.621 242.607 Q 352.475 242.187 353.549 242.187 L 353.549 242.187 L 353.549 242.187 Q 355.405 242.187 356.357 243.139 L 356.357 243.139 L 356.357 243.139 Q 357.309 244.091 357.309 246.191 L 357.309 246.191 L 357.309 253.31 L 354.321 253.31 L 354.321 246.933 L 354.321 246.933 Q 354.321 245.751 353.925 245.16 L 353.925 245.16 L 353.925 245.16 Q 353.53 244.569 352.68 244.569 L 352.68 244.569 L 352.68 244.569 Q 351.586 244.569 351.044 245.351 L 351.044 245.351 L 351.044 245.351 Q 350.502 246.132 350.502 247.831 L 350.502 247.831 Z  M 369.379 253.31 L 367.299 253.31 L 366.723 251.825 L 366.645 251.825 L 366.645 251.825 Q 365.893 252.773 365.097 253.139 L 365.097 253.139 L 365.097 253.139 Q 364.301 253.505 363.022 253.505 L 363.022 253.505 L 363.022 253.505 Q 361.45 253.505 360.546 252.607 L 360.546 252.607 L 360.546 252.607 Q 359.643 251.708 359.643 250.048 L 359.643 250.048 L 359.643 250.048 Q 359.643 248.31 360.859 247.484 L 360.859 247.484 L 360.859 247.484 Q 362.075 246.659 364.526 246.571 L 364.526 246.571 L 366.42 246.513 L 366.42 246.034 L 366.42 246.034 Q 366.42 244.374 364.721 244.374 L 364.721 244.374 L 364.721 244.374 Q 363.413 244.374 361.645 245.165 L 361.645 245.165 L 360.659 243.153 L 360.659 243.153 Q 362.543 242.167 364.838 242.167 L 364.838 242.167 L 364.838 242.167 Q 367.036 242.167 368.207 243.124 L 368.207 243.124 L 368.207 243.124 Q 369.379 244.081 369.379 246.034 L 369.379 246.034 L 369.379 253.31 Z  M 366.42 249.15 L 366.42 248.251 L 365.268 248.29 L 365.268 248.29 Q 363.969 248.329 363.334 248.759 L 363.334 248.759 L 363.334 248.759 Q 362.7 249.189 362.7 250.067 L 362.7 250.067 L 362.7 250.067 Q 362.7 251.327 364.145 251.327 L 364.145 251.327 L 364.145 251.327 Q 365.18 251.327 365.8 250.732 L 365.8 250.732 L 365.8 250.732 Q 366.42 250.136 366.42 249.15 L 366.42 249.15 Z  M 380.063 250.067 L 380.063 250.067 L 380.063 250.067 Q 380.063 251.747 378.896 252.626 L 378.896 252.626 L 378.896 252.626 Q 377.729 253.505 375.405 253.505 L 375.405 253.505 L 375.405 253.505 Q 374.213 253.505 373.373 253.344 L 373.373 253.344 L 373.373 253.344 Q 372.534 253.183 371.801 252.87 L 371.801 252.87 L 371.801 250.409 L 371.801 250.409 Q 372.631 250.8 373.671 251.064 L 373.671 251.064 L 373.671 251.064 Q 374.711 251.327 375.502 251.327 L 375.502 251.327 L 375.502 251.327 Q 377.123 251.327 377.123 250.39 L 377.123 250.39 L 377.123 250.39 Q 377.123 250.038 376.909 249.818 L 376.909 249.818 L 376.909 249.818 Q 376.694 249.599 376.166 249.32 L 376.166 249.32 L 376.166 249.32 Q 375.639 249.042 374.76 248.671 L 374.76 248.671 L 374.76 248.671 Q 373.5 248.144 372.91 247.694 L 372.91 247.694 L 372.91 247.694 Q 372.319 247.245 372.05 246.664 L 372.05 246.664 L 372.05 246.664 Q 371.782 246.083 371.782 245.233 L 371.782 245.233 L 371.782 245.233 Q 371.782 243.778 372.91 242.983 L 372.91 242.983 L 372.91 242.983 Q 374.038 242.187 376.108 242.187 L 376.108 242.187 L 376.108 242.187 Q 378.081 242.187 379.946 243.046 L 379.946 243.046 L 379.047 245.194 L 379.047 245.194 Q 378.227 244.843 377.514 244.618 L 377.514 244.618 L 377.514 244.618 Q 376.801 244.394 376.059 244.394 L 376.059 244.394 L 376.059 244.394 Q 374.741 244.394 374.741 245.107 L 374.741 245.107 L 374.741 245.107 Q 374.741 245.507 375.165 245.8 L 375.165 245.8 L 375.165 245.8 Q 375.59 246.093 377.026 246.669 L 377.026 246.669 L 377.026 246.669 Q 378.305 247.187 378.901 247.636 L 378.901 247.636 L 378.901 247.636 Q 379.497 248.085 379.78 248.671 L 379.78 248.671 L 379.78 248.671 Q 380.063 249.257 380.063 250.067 Z  M 386.987 251.132 L 386.987 251.132 L 386.987 251.132 Q 387.768 251.132 388.862 250.79 L 388.862 250.79 L 388.862 253.007 L 388.862 253.007 Q 387.748 253.505 386.127 253.505 L 386.127 253.505 L 386.127 253.505 Q 384.34 253.505 383.525 252.602 L 383.525 252.602 L 383.525 252.602 Q 382.709 251.698 382.709 249.892 L 382.709 249.892 L 382.709 244.628 L 381.284 244.628 L 381.284 243.368 L 382.924 242.372 L 383.784 240.067 L 385.688 240.067 L 385.688 242.392 L 388.745 242.392 L 388.745 244.628 L 385.688 244.628 L 385.688 249.892 L 385.688 249.892 Q 385.688 250.526 386.044 250.829 L 386.044 250.829 L 386.044 250.829 Q 386.401 251.132 386.987 251.132 Z  M 395.59 244.306 L 395.59 244.306 L 395.59 244.306 Q 394.643 244.306 394.106 244.906 L 394.106 244.906 L 394.106 244.906 Q 393.569 245.507 393.491 246.61 L 393.491 246.61 L 397.67 246.61 L 397.67 246.61 Q 397.651 245.507 397.094 244.906 L 397.094 244.906 L 397.094 244.906 Q 396.538 244.306 395.59 244.306 Z  M 396.01 253.505 L 396.01 253.505 L 396.01 253.505 Q 393.373 253.505 391.889 252.05 L 391.889 252.05 L 391.889 252.05 Q 390.405 250.595 390.405 247.929 L 390.405 247.929 L 390.405 247.929 Q 390.405 245.185 391.777 243.686 L 391.777 243.686 L 391.777 243.686 Q 393.149 242.187 395.571 242.187 L 395.571 242.187 L 395.571 242.187 Q 397.885 242.187 399.174 243.505 L 399.174 243.505 L 399.174 243.505 Q 400.463 244.823 400.463 247.148 L 400.463 247.148 L 400.463 248.593 L 393.422 248.593 L 393.422 248.593 Q 393.471 249.862 394.174 250.575 L 394.174 250.575 L 394.174 250.575 Q 394.877 251.288 396.147 251.288 L 396.147 251.288 L 396.147 251.288 Q 397.133 251.288 398.012 251.083 L 398.012 251.083 L 398.012 251.083 Q 398.891 250.878 399.848 250.429 L 399.848 250.429 L 399.848 252.733 L 399.848 252.733 Q 399.067 253.124 398.178 253.315 L 398.178 253.315 L 398.178 253.315 Q 397.289 253.505 396.01 253.505 Z  M 408.979 242.187 L 408.979 242.187 L 408.979 242.187 Q 409.584 242.187 409.985 242.275 L 409.985 242.275 L 409.76 245.067 L 409.76 245.067 Q 409.399 244.97 408.881 244.97 L 408.881 244.97 L 408.881 244.97 Q 407.456 244.97 406.66 245.702 L 406.66 245.702 L 406.66 245.702 Q 405.864 246.435 405.864 247.753 L 405.864 247.753 L 405.864 253.31 L 402.885 253.31 L 402.885 242.392 L 405.141 242.392 L 405.581 244.228 L 405.727 244.228 L 405.727 244.228 Q 406.235 243.31 407.099 242.748 L 407.099 242.748 L 407.099 242.748 Q 407.963 242.187 408.979 242.187 Z " fill-rule="evenodd" fill="rgb(0,0,0)"/></g><g id="Bfeat1"><path d="M 449.981 286.551 L 534.629 286.551 C 538.865 286.551 542.305 289.99 542.305 294.227 L 542.305 315.875 C 542.305 320.111 538.865 323.551 534.629 323.551 L 449.981 323.551 C 445.744 323.551 442.305 320.111 442.305 315.875 L 442.305 294.227 C 442.305 289.99 445.744 286.551 449.981 286.551 Z" style="stroke:none;fill:#D1D1D1;stroke-linecap:square;stroke-miterlimit:3;"/><path d="M 449.981 286.551 L 534.629 286.551 C 538.865 286.551 542.305 289.99 542.305 294.227 L 542.305 315.875 C 542.305 320.111 538.865 323.551 534.629 323.551 L 449.981 323.551 C 445.744 323.551 442.305 320.111 442.305 315.875 L 442.305 294.227 C 442.305 289.99 445.744 286.551 449.981 286.551 Z" style="fill:none;stroke:#000000;stroke-width:1.6855342301554246;stroke-linecap:square;stroke-miterlimit:3;"/><path d=" M 472.533 301.892 L 472.533 304.128 L 469.955 304.128 L 469.955 312.81 L 466.977 312.81 L 466.977 304.128 L 465.336 304.128 L 465.336 302.692 L 466.977 301.892 L 466.977 301.091 L 466.977 301.091 Q 466.977 299.226 467.895 298.366 L 467.895 298.366 L 467.895 298.366 Q 468.813 297.507 470.834 297.507 L 470.834 297.507 L 470.834 297.507 Q 472.377 297.507 473.578 297.966 L 473.578 297.966 L 472.817 300.153 L 472.817 300.153 Q 471.918 299.87 471.156 299.87 L 471.156 299.87 L 471.156 299.87 Q 470.522 299.87 470.239 300.246 L 470.239 300.246 L 470.239 300.246 Q 469.955 300.622 469.955 301.208 L 469.955 301.208 L 469.955 301.892 L 472.533 301.892 Z  M 478.764 303.806 L 478.764 303.806 L 478.764 303.806 Q 477.817 303.806 477.28 304.406 L 477.28 304.406 L 477.28 304.406 Q 476.742 305.007 476.664 306.11 L 476.664 306.11 L 480.844 306.11 L 480.844 306.11 Q 480.824 305.007 480.268 304.406 L 480.268 304.406 L 480.268 304.406 Q 479.711 303.806 478.764 303.806 Z  M 479.184 313.005 L 479.184 313.005 L 479.184 313.005 Q 476.547 313.005 475.063 311.55 L 475.063 311.55 L 475.063 311.55 Q 473.578 310.095 473.578 307.429 L 473.578 307.429 L 473.578 307.429 Q 473.578 304.685 474.95 303.186 L 474.95 303.186 L 474.95 303.186 Q 476.322 301.687 478.744 301.687 L 478.744 301.687 L 478.744 301.687 Q 481.059 301.687 482.348 303.005 L 482.348 303.005 L 482.348 303.005 Q 483.637 304.323 483.637 306.648 L 483.637 306.648 L 483.637 308.093 L 476.596 308.093 L 476.596 308.093 Q 476.645 309.362 477.348 310.075 L 477.348 310.075 L 477.348 310.075 Q 478.051 310.788 479.321 310.788 L 479.321 310.788 L 479.321 310.788 Q 480.307 310.788 481.186 310.583 L 481.186 310.583 L 481.186 310.583 Q 482.065 310.378 483.022 309.929 L 483.022 309.929 L 483.022 312.233 L 483.022 312.233 Q 482.24 312.624 481.352 312.815 L 481.352 312.815 L 481.352 312.815 Q 480.463 313.005 479.184 313.005 Z  M 495.072 312.81 L 492.992 312.81 L 492.416 311.325 L 492.338 311.325 L 492.338 311.325 Q 491.586 312.273 490.79 312.639 L 490.79 312.639 L 490.79 312.639 Q 489.994 313.005 488.715 313.005 L 488.715 313.005 L 488.715 313.005 Q 487.143 313.005 486.239 312.107 L 486.239 312.107 L 486.239 312.107 Q 485.336 311.208 485.336 309.548 L 485.336 309.548 L 485.336 309.548 Q 485.336 307.81 486.552 306.984 L 486.552 306.984 L 486.552 306.984 Q 487.768 306.159 490.219 306.071 L 490.219 306.071 L 492.114 306.013 L 492.114 305.534 L 492.114 305.534 Q 492.114 303.874 490.414 303.874 L 490.414 303.874 L 490.414 303.874 Q 489.106 303.874 487.338 304.665 L 487.338 304.665 L 486.352 302.653 L 486.352 302.653 Q 488.237 301.667 490.531 301.667 L 490.531 301.667 L 490.531 301.667 Q 492.729 301.667 493.901 302.624 L 493.901 302.624 L 493.901 302.624 Q 495.072 303.581 495.072 305.534 L 495.072 305.534 L 495.072 312.81 Z  M 492.114 308.65 L 492.114 307.751 L 490.961 307.79 L 490.961 307.79 Q 489.662 307.829 489.028 308.259 L 489.028 308.259 L 489.028 308.259 Q 488.393 308.689 488.393 309.567 L 488.393 309.567 L 488.393 309.567 Q 488.393 310.827 489.838 310.827 L 489.838 310.827 L 489.838 310.827 Q 490.873 310.827 491.493 310.232 L 491.493 310.232 L 491.493 310.232 Q 492.114 309.636 492.114 308.65 L 492.114 308.65 Z  M 502.739 310.632 L 502.739 310.632 L 502.739 310.632 Q 503.52 310.632 504.614 310.29 L 504.614 310.29 L 504.614 312.507 L 504.614 312.507 Q 503.5 313.005 501.879 313.005 L 501.879 313.005 L 501.879 313.005 Q 500.092 313.005 499.277 312.102 L 499.277 312.102 L 499.277 312.102 Q 498.461 311.198 498.461 309.392 L 498.461 309.392 L 498.461 304.128 L 497.035 304.128 L 497.035 302.868 L 498.676 301.872 L 499.535 299.567 L 501.44 299.567 L 501.44 301.892 L 504.496 301.892 L 504.496 304.128 L 501.44 304.128 L 501.44 309.392 L 501.44 309.392 Q 501.44 310.026 501.796 310.329 L 501.796 310.329 L 501.796 310.329 Q 502.153 310.632 502.739 310.632 Z  M 513.52 298.532 L 513.52 312.81 L 510.502 312.81 L 510.502 304.548 L 510.531 303.191 L 510.58 301.706 L 510.58 301.706 Q 509.828 302.458 509.535 302.692 L 509.535 302.692 L 507.895 304.011 L 506.44 302.194 L 511.039 298.532 L 513.52 298.532 Z " fill-rule="evenodd" fill="rgb(0,0,0)"/></g><g id="Bhead"><path d="M 455.995 248.551 L 528.217 248.551 C 532.157 248.551 535.356 251.75 535.356 255.69 L 535.356 278.412 C 535.356 282.352 532.157 285.551 528.217 285.551 L 455.995 285.551 C 452.055 285.551 448.856 282.352 448.856 278.412 L 448.856 255.69 C 448.856 251.75 452.055 248.551 455.995 248.551 Z" style="stroke:none;fill:#FFF3A5;stroke-linecap:square;stroke-miterlimit:3;"/><path d="M 455.995 248.551 L 528.217 248.551 C 532.157 248.551 535.356 251.75 535.356 255.69 L 535.356 278.412 C 535.356 282.352 532.157 285.551 528.217 285.551 L 455.995 285.551 C 452.055 285.551 448.856 282.352 448.856 278.412 L 448.856 255.69 C 448.856 251.75 452.055 248.551 455.995 248.551 Z" style="fill:none;stroke:#000000;stroke-width:1.6855342301554246;stroke-linecap:square;stroke-miterlimit:3;"/><path d=" M 477.048 261.259 L 477.048 275.537 L 474.031 275.537 L 474.031 269.375 L 468.376 269.375 L 468.376 275.537 L 465.349 275.537 L 465.349 261.259 L 468.376 261.259 L 468.376 266.855 L 474.031 266.855 L 474.031 261.259 L 477.048 261.259 Z  M 488.874 273.037 L 488.874 275.537 L 480.652 275.537 L 480.652 261.259 L 488.874 261.259 L 488.874 263.74 L 483.679 263.74 L 483.679 266.875 L 488.513 266.875 L 488.513 269.355 L 483.679 269.355 L 483.679 273.037 L 488.874 273.037 Z  M 503.855 275.537 L 500.593 275.537 L 499.558 272.138 L 494.353 272.138 L 493.318 275.537 L 490.056 275.537 L 495.095 261.201 L 498.796 261.201 L 503.855 275.537 Z  M 495.115 269.599 L 498.835 269.599 L 498.835 269.599 Q 497.4 264.98 497.219 264.375 L 497.219 264.375 L 497.219 264.375 Q 497.038 263.769 496.96 263.418 L 496.96 263.418 L 496.96 263.418 Q 496.638 264.668 495.115 269.599 L 495.115 269.599 Z  M 517.497 268.261 L 517.497 268.261 L 517.497 268.261 Q 517.497 271.787 515.491 273.662 L 515.491 273.662 L 515.491 273.662 Q 513.484 275.537 509.695 275.537 L 509.695 275.537 L 505.652 275.537 L 505.652 261.259 L 510.134 261.259 L 510.134 261.259 Q 513.63 261.259 515.564 263.105 L 515.564 263.105 L 515.564 263.105 Q 517.497 264.951 517.497 268.261 Z  M 514.353 268.34 L 514.353 268.34 L 514.353 268.34 Q 514.353 263.74 510.29 263.74 L 510.29 263.74 L 508.679 263.74 L 508.679 273.037 L 509.978 273.037 L 509.978 273.037 Q 514.353 273.037 514.353 268.34 Z " fill-rule="evenodd" fill="rgb(0,0,0)"/></g><g id="c1"><path d=" M 163.276 292.758 C 163.276 280.502 173.227 270.551 185.484 270.551 C 197.74 270.551 207.691 280.502 207.691 292.758 C 207.691 305.015 197.74 314.966 185.484 314.966 C 173.227 314.966 163.276 305.015 163.276 292.758 Z " fill="rgb(195,215,247)" vector-effect="non-scaling-stroke" stroke-width="2" stroke="rgb(0,0,0)" stroke-linejoin="miter" stroke-linecap="square" stroke-miterlimit="3"/><path d=" M 186.915 285.018 L 186.915 302.08 L 183.622 302.08 L 183.622 288.991 L 179.31 290.537 L 179.31 287.702 L 186.74 285.018 L 186.915 285.018 Z " fill="rgb(0,0,0)"/></g><g id="c2"><path d=" M 226.484 292.758 C 226.484 280.502 236.435 270.551 248.691 270.551 C 260.948 270.551 270.898 280.502 270.898 292.758 C 270.898 305.015 260.948 314.966 248.691 314.966 C 236.435 314.966 226.484 305.015 226.484 292.758 Z " fill="rgb(195,215,247)" vector-effect="non-scaling-stroke" stroke-width="2" stroke="rgb(0,0,0)" stroke-linejoin="miter" stroke-linecap="square" stroke-miterlimit="3"/><path d=" M 253.299 299.467 L 253.299 302.08 L 241.662 302.08 L 241.662 299.854 L 247.181 293.924 L 247.181 293.924 Q 247.826 293.221 248.271 292.647 L 248.271 292.647 L 248.271 292.647 Q 248.716 292.073 248.992 291.598 L 248.992 291.598 L 248.992 291.598 Q 249.267 291.123 249.39 290.713 L 249.39 290.713 L 249.39 290.713 Q 249.513 290.303 249.513 289.916 L 249.513 289.916 L 249.513 289.916 Q 249.513 289.342 249.349 288.897 L 249.349 288.897 L 249.349 288.897 Q 249.185 288.452 248.886 288.141 L 248.886 288.141 L 248.886 288.141 Q 248.588 287.83 248.172 287.666 L 248.172 287.666 L 248.172 287.666 Q 247.756 287.502 247.252 287.502 L 247.252 287.502 L 247.252 287.502 Q 245.904 287.502 245.242 288.252 L 245.242 288.252 L 245.242 288.252 Q 244.58 289.002 244.58 290.35 L 244.58 290.35 L 241.31 290.35 L 241.31 290.35 Q 241.31 289.213 241.744 288.2 L 241.744 288.2 L 241.744 288.2 Q 242.177 287.186 242.968 286.424 L 242.968 286.424 L 242.968 286.424 Q 243.759 285.662 244.879 285.223 L 244.879 285.223 L 244.879 285.223 Q 245.998 284.784 247.357 284.784 L 247.357 284.784 L 247.357 284.784 Q 248.658 284.784 249.66 285.147 L 249.66 285.147 L 249.66 285.147 Q 250.662 285.51 251.336 286.166 L 251.336 286.166 L 251.336 286.166 Q 252.009 286.823 252.361 287.743 L 252.361 287.743 L 252.361 287.743 Q 252.713 288.662 252.713 289.776 L 252.713 289.776 L 252.713 289.776 Q 252.713 290.62 252.449 291.387 L 252.449 291.387 L 252.449 291.387 Q 252.185 292.155 251.699 292.905 L 251.699 292.905 L 251.699 292.905 Q 251.213 293.655 250.533 294.434 L 250.533 294.434 L 250.533 294.434 Q 249.853 295.213 249.021 296.069 L 249.021 296.069 L 245.81 299.467 L 253.299 299.467 Z " fill="rgb(0,0,0)"/></g><g id="C3"><path d=" M 289.691 292.758 C 289.691 280.502 299.642 270.551 311.898 270.551 C 324.155 270.551 334.106 280.502 334.106 292.758 C 334.106 305.015 324.155 314.966 311.898 314.966 C 299.642 314.966 289.691 305.015 289.691 292.758 Z " fill="rgb(195,215,247)" vector-effect="non-scaling-stroke" stroke-width="2" stroke="rgb(0,0,0)" stroke-linejoin="miter" stroke-linecap="square" stroke-miterlimit="3"/><path d=" M 308.631 294.651 L 308.631 292.12 L 310.4 292.12 L 310.4 292.12 Q 311.736 292.12 312.381 291.446 L 312.381 291.446 L 312.381 291.446 Q 313.025 290.772 313.025 289.682 L 313.025 289.682 L 313.025 289.682 Q 313.025 289.178 312.879 288.762 L 312.879 288.762 L 312.879 288.762 Q 312.732 288.346 312.439 288.047 L 312.439 288.047 L 312.439 288.047 Q 312.146 287.748 311.695 287.584 L 311.695 287.584 L 311.695 287.584 Q 311.244 287.42 310.646 287.42 L 310.646 287.42 L 310.646 287.42 Q 310.154 287.42 309.727 287.561 L 309.727 287.561 L 309.727 287.561 Q 309.299 287.702 308.977 287.965 L 308.977 287.965 L 308.977 287.965 Q 308.654 288.229 308.467 288.604 L 308.467 288.604 L 308.467 288.604 Q 308.279 288.979 308.279 289.448 L 308.279 289.448 L 305.021 289.448 L 305.021 289.448 Q 305.021 288.405 305.449 287.549 L 305.449 287.549 L 305.449 287.549 Q 305.877 286.694 306.627 286.079 L 306.627 286.079 L 306.627 286.079 Q 307.377 285.463 308.391 285.123 L 308.391 285.123 L 308.391 285.123 Q 309.404 284.784 310.576 284.784 L 310.576 284.784 L 310.576 284.784 Q 311.842 284.784 312.896 285.094 L 312.896 285.094 L 312.896 285.094 Q 313.951 285.405 314.701 286.02 L 314.701 286.02 L 314.701 286.02 Q 315.451 286.635 315.867 287.543 L 315.867 287.543 L 315.867 287.543 Q 316.283 288.452 316.283 289.647 L 316.283 289.647 L 316.283 289.647 Q 316.283 290.198 316.119 290.731 L 316.119 290.731 L 316.119 290.731 Q 315.955 291.264 315.639 291.745 L 315.639 291.745 L 315.639 291.745 Q 315.322 292.225 314.853 292.629 L 314.853 292.629 L 314.853 292.629 Q 314.385 293.034 313.775 293.327 L 313.775 293.327 L 313.775 293.327 Q 314.49 293.584 315.012 293.983 L 315.012 293.983 L 315.012 293.983 Q 315.533 294.381 315.873 294.891 L 315.873 294.891 L 315.873 294.891 Q 316.213 295.401 316.377 296.01 L 316.377 296.01 L 316.377 296.01 Q 316.541 296.62 316.541 297.299 L 316.541 297.299 L 316.541 297.299 Q 316.541 298.495 316.084 299.432 L 316.084 299.432 L 316.084 299.432 Q 315.627 300.37 314.83 301.008 L 314.83 301.008 L 314.83 301.008 Q 314.033 301.647 312.937 301.981 L 312.937 301.981 L 312.937 301.981 Q 311.842 302.315 310.576 302.315 L 310.576 302.315 L 310.576 302.315 Q 309.486 302.315 308.449 302.016 L 308.449 302.016 L 308.449 302.016 Q 307.412 301.717 306.603 301.114 L 306.603 301.114 L 306.603 301.114 Q 305.795 300.51 305.309 299.596 L 305.309 299.596 L 305.309 299.596 Q 304.822 298.682 304.822 297.44 L 304.822 297.44 L 308.08 297.44 L 308.08 297.44 Q 308.08 297.932 308.268 298.348 L 308.268 298.348 L 308.268 298.348 Q 308.455 298.764 308.801 299.063 L 308.801 299.063 L 308.801 299.063 Q 309.146 299.362 309.615 299.532 L 309.615 299.532 L 309.615 299.532 Q 310.084 299.702 310.646 299.702 L 310.646 299.702 L 310.646 299.702 Q 311.889 299.702 312.592 299.045 L 312.592 299.045 L 312.592 299.045 Q 313.295 298.389 313.295 297.264 L 313.295 297.264 L 313.295 297.264 Q 313.295 296.573 313.096 296.08 L 313.096 296.08 L 313.096 296.08 Q 312.896 295.588 312.516 295.272 L 312.516 295.272 L 312.516 295.272 Q 312.135 294.955 311.602 294.803 L 311.602 294.803 L 311.602 294.803 Q 311.068 294.651 310.4 294.651 L 310.4 294.651 L 308.631 294.651 Z " fill="rgb(0,0,0)"/></g><g id="C4"><path d=" M 352.898 292.758 C 352.898 280.502 362.849 270.551 375.106 270.551 C 387.362 270.551 397.313 280.502 397.313 292.758 C 397.313 305.015 387.362 314.966 375.106 314.966 C 362.849 314.966 352.898 305.015 352.898 292.758 Z " fill="rgb(195,215,247)" vector-effect="non-scaling-stroke" stroke-width="2" stroke="rgb(0,0,0)" stroke-linejoin="miter" stroke-linecap="square" stroke-miterlimit="3"/><path d=" M 378.073 285.018 L 378.073 295.741 L 380.053 295.741 L 380.053 298.377 L 378.073 298.377 L 378.073 302.08 L 374.815 302.08 L 374.815 298.377 L 367.725 298.377 L 367.596 296.338 L 374.768 285.018 L 378.073 285.018 Z  M 374.498 289.963 L 370.795 295.741 L 374.815 295.741 L 374.815 289.401 L 374.498 289.963 Z " fill-rule="evenodd" fill="rgb(0,0,0)"/></g><path d=" M 48 204 L 682 204 L 751 204" fill="none" vector-effect="non-scaling-stroke" stroke-width="3" stroke="rgb(0,0,0)" stroke-linejoin="miter" stroke-linecap="square" stroke-miterlimit="3"/><rect x="565" y="184.793" width="105" height="35.685" transform="matrix(1,0,0,1,0,0)" fill="rgb(239,255,117)"/><path d=" M 654.999 203.435 L 654.999 203.435 L 654.999 203.435 Q 654.999 207.654 653.222 209.734 L 653.222 209.734 L 653.222 209.734 Q 651.445 211.814 647.841 211.814 L 647.841 211.814 L 647.841 211.814 Q 646.572 211.814 645.917 211.677 L 645.917 211.677 L 645.917 209.255 L 645.917 209.255 Q 646.738 209.461 647.636 209.461 L 647.636 209.461 L 647.636 209.461 Q 649.15 209.461 650.126 209.016 L 650.126 209.016 L 650.126 209.016 Q 651.103 208.572 651.62 207.62 L 651.62 207.62 L 651.62 207.62 Q 652.138 206.668 652.216 204.998 L 652.216 204.998 L 652.099 204.998 L 652.099 204.998 Q 651.532 205.916 650.79 206.287 L 650.79 206.287 L 650.79 206.287 Q 650.048 206.658 648.935 206.658 L 648.935 206.658 L 648.935 206.658 Q 647.07 206.658 645.995 205.462 L 645.995 205.462 L 645.995 205.462 Q 644.921 204.265 644.921 202.136 L 644.921 202.136 L 644.921 202.136 Q 644.921 199.841 646.225 198.508 L 646.225 198.508 L 646.225 198.508 Q 647.529 197.175 649.775 197.175 L 649.775 197.175 L 649.775 197.175 Q 651.357 197.175 652.543 197.918 L 652.543 197.918 L 652.543 197.918 Q 653.73 198.66 654.364 200.071 L 654.364 200.071 L 654.364 200.071 Q 654.999 201.482 654.999 203.435 Z  M 649.833 199.597 L 649.833 199.597 L 649.833 199.597 Q 648.896 199.597 648.368 200.242 L 648.368 200.242 L 648.368 200.242 Q 647.841 200.886 647.841 202.097 L 647.841 202.097 L 647.841 202.097 Q 647.841 203.132 648.32 203.738 L 648.32 203.738 L 648.32 203.738 Q 648.798 204.343 649.775 204.343 L 649.775 204.343 L 649.775 204.343 Q 650.693 204.343 651.347 203.743 L 651.347 203.743 L 651.347 203.743 Q 652.001 203.142 652.001 202.361 L 652.001 202.361 L 652.001 202.361 Q 652.001 201.199 651.391 200.398 L 651.391 200.398 L 651.391 200.398 Q 650.78 199.597 649.833 199.597 Z  M 638.222 203.757 L 628.525 203.757 L 628.525 201.619 L 638.222 201.619 L 638.222 203.757 Z  M 638.222 207.537 L 628.525 207.537 L 628.525 205.398 L 638.222 205.398 L 638.222 207.537 Z  M 616.435 211.619 L 613.271 211.619 L 618.632 199.9 L 611.591 199.9 L 611.591 197.361 L 621.835 197.361 L 621.835 199.255 L 616.435 211.619 Z  M 599.081 209.402 L 599.081 205.642 L 595.302 205.642 L 595.302 203.504 L 599.081 203.504 L 599.081 199.695 L 601.22 199.695 L 601.22 203.504 L 604.999 203.504 L 604.999 205.642 L 601.22 205.642 L 601.22 209.402 L 599.081 209.402 Z  M 578.534 205.554 L 578.534 205.554 L 578.534 205.554 Q 578.534 201.316 580.326 199.246 L 580.326 199.246 L 580.326 199.246 Q 582.118 197.175 585.693 197.175 L 585.693 197.175 L 585.693 197.175 Q 586.913 197.175 587.607 197.322 L 587.607 197.322 L 587.607 199.734 L 587.607 199.734 Q 586.738 199.539 585.888 199.539 L 585.888 199.539 L 585.888 199.539 Q 584.335 199.539 583.354 200.007 L 583.354 200.007 L 583.354 200.007 Q 582.372 200.476 581.884 201.394 L 581.884 201.394 L 581.884 201.394 Q 581.396 202.312 581.308 204.002 L 581.308 204.002 L 581.435 204.002 L 581.435 204.002 Q 582.402 202.341 584.53 202.341 L 584.53 202.341 L 584.53 202.341 Q 586.445 202.341 587.529 203.543 L 587.529 203.543 L 587.529 203.543 Q 588.613 204.744 588.613 206.863 L 588.613 206.863 L 588.613 206.863 Q 588.613 209.148 587.323 210.481 L 587.323 210.481 L 587.323 210.481 Q 586.034 211.814 583.749 211.814 L 583.749 211.814 L 583.749 211.814 Q 582.167 211.814 580.99 211.082 L 580.99 211.082 L 580.99 211.082 Q 579.814 210.349 579.174 208.943 L 579.174 208.943 L 579.174 208.943 Q 578.534 207.537 578.534 205.554 Z  M 583.691 209.402 L 583.691 209.402 L 583.691 209.402 Q 584.657 209.402 585.175 208.753 L 585.175 208.753 L 585.175 208.753 Q 585.693 208.103 585.693 206.902 L 585.693 206.902 L 585.693 206.902 Q 585.693 205.857 585.209 205.256 L 585.209 205.256 L 585.209 205.256 Q 584.726 204.656 583.749 204.656 L 583.749 204.656 L 583.749 204.656 Q 582.831 204.656 582.182 205.252 L 582.182 205.252 L 582.182 205.252 Q 581.532 205.847 581.532 206.638 L 581.532 206.638 L 581.532 206.638 Q 581.532 207.8 582.143 208.601 L 582.143 208.601 L 582.143 208.601 Q 582.753 209.402 583.691 209.402 Z " fill-rule="evenodd" fill="rgb(0,0,0)"/></g></svg>