<?xml version="1.0" standalone="no"?><!-- Generator: Gravit.io --><svg xmlns="http://www.w3.org/2000/svg" xmlns:xlink="http://www.w3.org/1999/xlink" style="isolation:isolate" viewBox="0 0 800 350" width="800" height="350"><defs><clipPath id="_clipPath_tSNw2Q4pHEA3JTYhwoWPwvpsReK1c3Sh"><rect width="800" height="350"/></clipPath></defs><g clip-path="url(#_clipPath_tSNw2Q4pHEA3JTYhwoWPwvpsReK1c3Sh)"><line x1="56.207" y1="202" x2="694" y2="202" vector-effect="non-scaling-stroke" stroke-width="2" stroke="rgb(0,0,0)" stroke-linejoin="miter" stroke-linecap="square" stroke-miterlimit="3"/><line x1="273.801" y1="280" x2="396.859" y2="280" vector-effect="non-scaling-stroke" stroke-width="2" stroke="rgb(0,0,0)" stroke-linejoin="miter" stroke-linecap="square" stroke-miterlimit="3"/><line x1="244.678" y1="111.793" x2="314.024" y2="111.793" vector-effect="non-scaling-stroke" stroke-width="2" stroke="rgb(0,0,0)" stroke-linejoin="miter" stroke-linecap="square" stroke-miterlimit="3"/><line x1="273.801" y1="280" x2="245.829" y2="202" vector-effect="non-scaling-stroke" stroke-width="2" stroke="rgb(0,0,0)" stroke-linejoin="miter" stroke-linecap="square" stroke-miterlimit="3"/><line x1="397.028" y1="280" x2="426.207" y2="202" vector-effect="non-scaling-stroke" stroke-width="2" stroke="rgb(0,0,0)" stroke-linejoin="miter" stroke-linecap="square" stroke-miterlimit="3"/><line x1="183" y1="202" x2="244.594" y2="111.793" vector-effect="non-scaling-stroke" stroke-width="2" stroke="rgb(0,0,0)" stroke-linejoin="miter" stroke-linecap="square" stroke-miterlimit="3"/><g id="Bmaster" style="opacity:0.6;"><path d="M 564.091 99.793 L 648.739 99.793 C 652.975 99.793 656.415 103.232 656.415 107.469 L 656.415 129.117 C 656.415 133.353 652.975 136.793 648.739 136.793 L 564.091 136.793 C 559.854 136.793 556.415 133.353 556.415 129.117 L 556.415 107.469 C 556.415 103.232 559.854 99.793 564.091 99.793 Z" style="stroke:none;fill:#9FC4FF;stroke-miterlimit:10;"/><path d="M 564.091 99.793 L 648.739 99.793 C 652.975 99.793 656.415 103.232 656.415 107.469 L 656.415 129.117 C 656.415 133.353 652.975 136.793 648.739 136.793 L 564.091 136.793 C 559.854 136.793 556.415 133.353 556.415 129.117 L 556.415 107.469 C 556.415 103.232 559.854 99.793 564.091 99.793 Z" style="fill:none;stroke:#000000;stroke-width:1.6855342301554246;stroke-linecap:square;stroke-dasharray:6;stroke-miterlimit:3;"/><path d=" M 581.632 120.073 L 581.632 125.551 L 578.654 125.551 L 578.654 119.175 L 578.654 119.175 Q 578.654 117.993 578.258 117.402 L 578.258 117.402 L 578.258 117.402 Q 577.863 116.811 577.013 116.811 L 577.013 116.811 L 577.013 116.811 Q 575.871 116.811 575.353 117.651 L 575.353 117.651 L 575.353 117.651 Q 574.836 118.491 574.836 120.415 L 574.836 120.415 L 574.836 125.551 L 571.857 125.551 L 571.857 114.633 L 574.132 114.633 L 574.533 116.03 L 574.699 116.03 L 574.699 116.03 Q 575.138 115.278 575.968 114.853 L 575.968 114.853 L 575.968 114.853 Q 576.798 114.428 577.873 114.428 L 577.873 114.428 L 577.873 114.428 Q 580.324 114.428 581.193 116.03 L 581.193 116.03 L 581.457 116.03 L 581.457 116.03 Q 581.896 115.268 582.751 114.848 L 582.751 114.848 L 582.751 114.848 Q 583.605 114.428 584.679 114.428 L 584.679 114.428 L 584.679 114.428 Q 586.535 114.428 587.487 115.381 L 587.487 115.381 L 587.487 115.381 Q 588.439 116.333 588.439 118.432 L 588.439 118.432 L 588.439 125.551 L 585.451 125.551 L 585.451 119.175 L 585.451 119.175 Q 585.451 117.993 585.055 117.402 L 585.055 117.402 L 585.055 117.402 Q 584.66 116.811 583.81 116.811 L 583.81 116.811 L 583.81 116.811 Q 582.716 116.811 582.174 117.592 L 582.174 117.592 L 582.174 117.592 Q 581.632 118.374 581.632 120.073 L 581.632 120.073 Z  M 600.509 125.551 L 598.429 125.551 L 597.853 124.067 L 597.775 124.067 L 597.775 124.067 Q 597.023 125.014 596.227 125.381 L 596.227 125.381 L 596.227 125.381 Q 595.431 125.747 594.152 125.747 L 594.152 125.747 L 594.152 125.747 Q 592.58 125.747 591.676 124.848 L 591.676 124.848 L 591.676 124.848 Q 590.773 123.95 590.773 122.29 L 590.773 122.29 L 590.773 122.29 Q 590.773 120.551 591.989 119.726 L 591.989 119.726 L 591.989 119.726 Q 593.205 118.901 595.656 118.813 L 595.656 118.813 L 597.55 118.755 L 597.55 118.276 L 597.55 118.276 Q 597.55 116.616 595.851 116.616 L 595.851 116.616 L 595.851 116.616 Q 594.543 116.616 592.775 117.407 L 592.775 117.407 L 591.789 115.395 L 591.789 115.395 Q 593.673 114.409 595.968 114.409 L 595.968 114.409 L 595.968 114.409 Q 598.166 114.409 599.337 115.366 L 599.337 115.366 L 599.337 115.366 Q 600.509 116.323 600.509 118.276 L 600.509 118.276 L 600.509 125.551 Z  M 597.55 121.391 L 597.55 120.493 L 596.398 120.532 L 596.398 120.532 Q 595.099 120.571 594.464 121.001 L 594.464 121.001 L 594.464 121.001 Q 593.83 121.43 593.83 122.309 L 593.83 122.309 L 593.83 122.309 Q 593.83 123.569 595.275 123.569 L 595.275 123.569 L 595.275 123.569 Q 596.31 123.569 596.93 122.973 L 596.93 122.973 L 596.93 122.973 Q 597.55 122.378 597.55 121.391 L 597.55 121.391 Z  M 611.193 122.309 L 611.193 122.309 L 611.193 122.309 Q 611.193 123.989 610.026 124.868 L 610.026 124.868 L 610.026 124.868 Q 608.859 125.747 606.535 125.747 L 606.535 125.747 L 606.535 125.747 Q 605.343 125.747 604.504 125.586 L 604.504 125.586 L 604.504 125.586 Q 603.664 125.425 602.931 125.112 L 602.931 125.112 L 602.931 122.651 L 602.931 122.651 Q 603.761 123.042 604.801 123.305 L 604.801 123.305 L 604.801 123.305 Q 605.841 123.569 606.632 123.569 L 606.632 123.569 L 606.632 123.569 Q 608.254 123.569 608.254 122.632 L 608.254 122.632 L 608.254 122.632 Q 608.254 122.28 608.039 122.06 L 608.039 122.06 L 608.039 122.06 Q 607.824 121.841 607.296 121.562 L 607.296 121.562 L 607.296 121.562 Q 606.769 121.284 605.89 120.913 L 605.89 120.913 L 605.89 120.913 Q 604.63 120.385 604.04 119.936 L 604.04 119.936 L 604.04 119.936 Q 603.449 119.487 603.18 118.906 L 603.18 118.906 L 603.18 118.906 Q 602.912 118.325 602.912 117.475 L 602.912 117.475 L 602.912 117.475 Q 602.912 116.02 604.04 115.224 L 604.04 115.224 L 604.04 115.224 Q 605.168 114.428 607.238 114.428 L 607.238 114.428 L 607.238 114.428 Q 609.211 114.428 611.076 115.288 L 611.076 115.288 L 610.177 117.436 L 610.177 117.436 Q 609.357 117.085 608.644 116.86 L 608.644 116.86 L 608.644 116.86 Q 607.931 116.635 607.189 116.635 L 607.189 116.635 L 607.189 116.635 Q 605.871 116.635 605.871 117.348 L 605.871 117.348 L 605.871 117.348 Q 605.871 117.749 606.296 118.042 L 606.296 118.042 L 606.296 118.042 Q 606.72 118.335 608.156 118.911 L 608.156 118.911 L 608.156 118.911 Q 609.435 119.428 610.031 119.878 L 610.031 119.878 L 610.031 119.878 Q 610.627 120.327 610.91 120.913 L 610.91 120.913 L 610.91 120.913 Q 611.193 121.499 611.193 122.309 Z  M 618.117 123.374 L 618.117 123.374 L 618.117 123.374 Q 618.898 123.374 619.992 123.032 L 619.992 123.032 L 619.992 125.249 L 619.992 125.249 Q 618.879 125.747 617.257 125.747 L 617.257 125.747 L 617.257 125.747 Q 615.47 125.747 614.655 124.843 L 614.655 124.843 L 614.655 124.843 Q 613.839 123.94 613.839 122.133 L 613.839 122.133 L 613.839 116.87 L 612.414 116.87 L 612.414 115.61 L 614.054 114.614 L 614.914 112.309 L 616.818 112.309 L 616.818 114.633 L 619.875 114.633 L 619.875 116.87 L 616.818 116.87 L 616.818 122.133 L 616.818 122.133 Q 616.818 122.768 617.174 123.071 L 617.174 123.071 L 617.174 123.071 Q 617.531 123.374 618.117 123.374 Z  M 626.72 116.548 L 626.72 116.548 L 626.72 116.548 Q 625.773 116.548 625.236 117.148 L 625.236 117.148 L 625.236 117.148 Q 624.699 117.749 624.621 118.852 L 624.621 118.852 L 628.8 118.852 L 628.8 118.852 Q 628.781 117.749 628.224 117.148 L 628.224 117.148 L 628.224 117.148 Q 627.668 116.548 626.72 116.548 Z  M 627.14 125.747 L 627.14 125.747 L 627.14 125.747 Q 624.504 125.747 623.019 124.292 L 623.019 124.292 L 623.019 124.292 Q 621.535 122.837 621.535 120.171 L 621.535 120.171 L 621.535 120.171 Q 621.535 117.426 622.907 115.927 L 622.907 115.927 L 622.907 115.927 Q 624.279 114.428 626.701 114.428 L 626.701 114.428 L 626.701 114.428 Q 629.015 114.428 630.304 115.747 L 630.304 115.747 L 630.304 115.747 Q 631.593 117.065 631.593 119.389 L 631.593 119.389 L 631.593 120.835 L 624.552 120.835 L 624.552 120.835 Q 624.601 122.104 625.304 122.817 L 625.304 122.817 L 625.304 122.817 Q 626.007 123.53 627.277 123.53 L 627.277 123.53 L 627.277 123.53 Q 628.263 123.53 629.142 123.325 L 629.142 123.325 L 629.142 123.325 Q 630.021 123.12 630.978 122.671 L 630.978 122.671 L 630.978 124.975 L 630.978 124.975 Q 630.197 125.366 629.308 125.556 L 629.308 125.556 L 629.308 125.556 Q 628.42 125.747 627.14 125.747 Z  M 640.109 114.428 L 640.109 114.428 L 640.109 114.428 Q 640.714 114.428 641.115 114.516 L 641.115 114.516 L 640.89 117.309 L 640.89 117.309 Q 640.529 117.212 640.011 117.212 L 640.011 117.212 L 640.011 117.212 Q 638.586 117.212 637.79 117.944 L 637.79 117.944 L 637.79 117.944 Q 636.994 118.676 636.994 119.995 L 636.994 119.995 L 636.994 125.551 L 634.015 125.551 L 634.015 114.633 L 636.271 114.633 L 636.711 116.469 L 636.857 116.469 L 636.857 116.469 Q 637.365 115.551 638.229 114.99 L 638.229 114.99 L 638.229 114.99 Q 639.093 114.428 640.109 114.428 Z " fill-rule="evenodd" fill="rgb(0,0,0)"/></g><g id="Btest"><path d="M 271.501 47.793 L 356.149 47.793 C 360.386 47.793 363.825 51.232 363.825 55.469 L 363.825 77.117 C 363.825 81.353 360.386 84.793 356.149 84.793 L 271.501 84.793 C 267.265 84.793 263.825 81.353 263.825 77.117 L 263.825 55.469 C 263.825 51.232 267.265 47.793 271.501 47.793 Z" style="stroke:none;fill:#D3F0C1;stroke-linecap:square;stroke-miterlimit:3;"/><path d="M 271.501 47.793 L 356.149 47.793 C 360.386 47.793 363.825 51.232 363.825 55.469 L 363.825 77.117 C 363.825 81.353 360.386 84.793 356.149 84.793 L 271.501 84.793 C 267.265 84.793 263.825 81.353 263.825 77.117 L 263.825 55.469 C 263.825 51.232 267.265 47.793 271.501 47.793 Z" style="fill:none;stroke:#000000;stroke-width:1.6855342301554246;stroke-linecap:square;stroke-miterlimit:3;"/><path d=" M 290.735 68.27 L 293.44 59.774 L 296.497 59.774 L 291.644 74.051 L 288.343 74.051 L 283.499 59.774 L 286.556 59.774 L 289.241 68.27 L 289.241 68.27 Q 289.466 69.022 289.705 70.023 L 289.705 70.023 L 289.705 70.023 Q 289.944 71.024 290.003 71.415 L 290.003 71.415 L 290.003 71.415 Q 290.11 70.516 290.735 68.27 L 290.735 68.27 Z  M 304.759 59.774 L 304.759 74.051 L 301.741 74.051 L 301.741 65.79 L 301.771 64.432 L 301.819 62.948 L 301.819 62.948 Q 301.067 63.7 300.774 63.934 L 300.774 63.934 L 299.134 65.253 L 297.679 63.436 L 302.278 59.774 L 304.759 59.774 Z  M 309.056 72.655 L 309.056 72.655 L 309.056 72.655 Q 309.056 71.835 309.495 71.415 L 309.495 71.415 L 309.495 71.415 Q 309.935 70.995 310.774 70.995 L 310.774 70.995 L 310.774 70.995 Q 311.585 70.995 312.029 71.425 L 312.029 71.425 L 312.029 71.425 Q 312.474 71.854 312.474 72.655 L 312.474 72.655 L 312.474 72.655 Q 312.474 73.426 312.024 73.871 L 312.024 73.871 L 312.024 73.871 Q 311.575 74.315 310.774 74.315 L 310.774 74.315 L 310.774 74.315 Q 309.954 74.315 309.505 73.881 L 309.505 73.881 L 309.505 73.881 Q 309.056 73.446 309.056 72.655 Z  M 324.319 66.913 L 324.319 66.913 L 324.319 66.913 Q 324.319 70.653 323.094 72.45 L 323.094 72.45 L 323.094 72.45 Q 321.868 74.247 319.319 74.247 L 319.319 74.247 L 319.319 74.247 Q 316.849 74.247 315.594 72.391 L 315.594 72.391 L 315.594 72.391 Q 314.339 70.536 314.339 66.913 L 314.339 66.913 L 314.339 66.913 Q 314.339 63.133 315.56 61.342 L 315.56 61.342 L 315.56 61.342 Q 316.78 59.55 319.319 59.55 L 319.319 59.55 L 319.319 59.55 Q 321.79 59.55 323.055 61.425 L 323.055 61.425 L 323.055 61.425 Q 324.319 63.3 324.319 66.913 Z  M 317.337 66.913 L 317.337 66.913 L 317.337 66.913 Q 317.337 69.54 317.791 70.677 L 317.791 70.677 L 317.791 70.677 Q 318.245 71.815 319.319 71.815 L 319.319 71.815 L 319.319 71.815 Q 320.374 71.815 320.843 70.663 L 320.843 70.663 L 320.843 70.663 Q 321.312 69.51 321.312 66.913 L 321.312 66.913 L 321.312 66.913 Q 321.312 64.286 320.838 63.138 L 320.838 63.138 L 320.838 63.138 Q 320.364 61.991 319.319 61.991 L 319.319 61.991 L 319.319 61.991 Q 318.255 61.991 317.796 63.138 L 317.796 63.138 L 317.796 63.138 Q 317.337 64.286 317.337 66.913 Z  M 326.175 72.655 L 326.175 72.655 L 326.175 72.655 Q 326.175 71.835 326.614 71.415 L 326.614 71.415 L 326.614 71.415 Q 327.054 70.995 327.894 70.995 L 327.894 70.995 L 327.894 70.995 Q 328.704 70.995 329.148 71.425 L 329.148 71.425 L 329.148 71.425 Q 329.593 71.854 329.593 72.655 L 329.593 72.655 L 329.593 72.655 Q 329.593 73.426 329.144 73.871 L 329.144 73.871 L 329.144 73.871 Q 328.694 74.315 327.894 74.315 L 327.894 74.315 L 327.894 74.315 Q 327.073 74.315 326.624 73.881 L 326.624 73.881 L 326.624 73.881 Q 326.175 73.446 326.175 72.655 Z  M 341.438 66.913 L 341.438 66.913 L 341.438 66.913 Q 341.438 70.653 340.213 72.45 L 340.213 72.45 L 340.213 72.45 Q 338.987 74.247 336.438 74.247 L 336.438 74.247 L 336.438 74.247 Q 333.968 74.247 332.713 72.391 L 332.713 72.391 L 332.713 72.391 Q 331.458 70.536 331.458 66.913 L 331.458 66.913 L 331.458 66.913 Q 331.458 63.133 332.679 61.342 L 332.679 61.342 L 332.679 61.342 Q 333.899 59.55 336.438 59.55 L 336.438 59.55 L 336.438 59.55 Q 338.909 59.55 340.174 61.425 L 340.174 61.425 L 340.174 61.425 Q 341.438 63.3 341.438 66.913 Z  M 334.456 66.913 L 334.456 66.913 L 334.456 66.913 Q 334.456 69.54 334.91 70.677 L 334.91 70.677 L 334.91 70.677 Q 335.364 71.815 336.438 71.815 L 336.438 71.815 L 336.438 71.815 Q 337.493 71.815 337.962 70.663 L 337.962 70.663 L 337.962 70.663 Q 338.431 69.51 338.431 66.913 L 338.431 66.913 L 338.431 66.913 Q 338.431 64.286 337.957 63.138 L 337.957 63.138 L 337.957 63.138 Q 337.483 61.991 336.438 61.991 L 336.438 61.991 L 336.438 61.991 Q 335.374 61.991 334.915 63.138 L 334.915 63.138 L 334.915 63.138 Q 334.456 64.286 334.456 66.913 Z " fill-rule="evenodd" fill="rgb(0,0,0)"/></g><g id="Bfeat1"><path d="M 383.883 137.793 L 468.531 137.793 C 472.768 137.793 476.207 141.232 476.207 145.469 L 476.207 167.117 C 476.207 171.353 472.768 174.793 468.531 174.793 L 383.883 174.793 C 379.647 174.793 376.207 171.353 376.207 167.117 L 376.207 145.469 C 376.207 141.232 379.647 137.793 383.883 137.793 Z" style="stroke:none;fill:#D1D1D1;stroke-linecap:square;stroke-miterlimit:3;"/><path d="M 383.883 137.793 L 468.531 137.793 C 472.768 137.793 476.207 141.232 476.207 145.469 L 476.207 167.117 C 476.207 171.353 472.768 174.793 468.531 174.793 L 383.883 174.793 C 379.647 174.793 376.207 171.353 376.207 167.117 L 376.207 145.469 C 376.207 141.232 379.647 137.793 383.883 137.793 Z" style="fill:none;stroke:#000000;stroke-width:1.6855342301554246;stroke-linecap:square;stroke-miterlimit:3;"/><path d=" M 406.436 153.133 L 406.436 155.37 L 403.858 155.37 L 403.858 164.051 L 400.879 164.051 L 400.879 155.37 L 399.239 155.37 L 399.239 153.934 L 400.879 153.133 L 400.879 152.333 L 400.879 152.333 Q 400.879 150.467 401.797 149.608 L 401.797 149.608 L 401.797 149.608 Q 402.715 148.749 404.737 148.749 L 404.737 148.749 L 404.737 148.749 Q 406.28 148.749 407.481 149.208 L 407.481 149.208 L 406.719 151.395 L 406.719 151.395 Q 405.821 151.112 405.059 151.112 L 405.059 151.112 L 405.059 151.112 Q 404.424 151.112 404.141 151.488 L 404.141 151.488 L 404.141 151.488 Q 403.858 151.864 403.858 152.45 L 403.858 152.45 L 403.858 153.133 L 406.436 153.133 Z  M 412.666 155.048 L 412.666 155.048 L 412.666 155.048 Q 411.719 155.048 411.182 155.648 L 411.182 155.648 L 411.182 155.648 Q 410.645 156.249 410.567 157.352 L 410.567 157.352 L 414.746 157.352 L 414.746 157.352 Q 414.727 156.249 414.17 155.648 L 414.17 155.648 L 414.17 155.648 Q 413.614 155.048 412.666 155.048 Z  M 413.086 164.247 L 413.086 164.247 L 413.086 164.247 Q 410.45 164.247 408.965 162.792 L 408.965 162.792 L 408.965 162.792 Q 407.481 161.337 407.481 158.671 L 407.481 158.671 L 407.481 158.671 Q 407.481 155.926 408.853 154.427 L 408.853 154.427 L 408.853 154.427 Q 410.225 152.928 412.647 152.928 L 412.647 152.928 L 412.647 152.928 Q 414.961 152.928 416.25 154.247 L 416.25 154.247 L 416.25 154.247 Q 417.539 155.565 417.539 157.889 L 417.539 157.889 L 417.539 159.335 L 410.498 159.335 L 410.498 159.335 Q 410.547 160.604 411.25 161.317 L 411.25 161.317 L 411.25 161.317 Q 411.953 162.03 413.223 162.03 L 413.223 162.03 L 413.223 162.03 Q 414.209 162.03 415.088 161.825 L 415.088 161.825 L 415.088 161.825 Q 415.967 161.62 416.924 161.171 L 416.924 161.171 L 416.924 163.475 L 416.924 163.475 Q 416.143 163.866 415.254 164.056 L 415.254 164.056 L 415.254 164.056 Q 414.366 164.247 413.086 164.247 Z  M 428.975 164.051 L 426.895 164.051 L 426.319 162.567 L 426.241 162.567 L 426.241 162.567 Q 425.489 163.514 424.693 163.881 L 424.693 163.881 L 424.693 163.881 Q 423.897 164.247 422.617 164.247 L 422.617 164.247 L 422.617 164.247 Q 421.045 164.247 420.142 163.348 L 420.142 163.348 L 420.142 163.348 Q 419.239 162.45 419.239 160.79 L 419.239 160.79 L 419.239 160.79 Q 419.239 159.051 420.454 158.226 L 420.454 158.226 L 420.454 158.226 Q 421.67 157.401 424.121 157.313 L 424.121 157.313 L 426.016 157.255 L 426.016 156.776 L 426.016 156.776 Q 426.016 155.116 424.317 155.116 L 424.317 155.116 L 424.317 155.116 Q 423.008 155.116 421.241 155.907 L 421.241 155.907 L 420.254 153.895 L 420.254 153.895 Q 422.139 152.909 424.434 152.909 L 424.434 152.909 L 424.434 152.909 Q 426.631 152.909 427.803 153.866 L 427.803 153.866 L 427.803 153.866 Q 428.975 154.823 428.975 156.776 L 428.975 156.776 L 428.975 164.051 Z  M 426.016 159.891 L 426.016 158.993 L 424.864 159.032 L 424.864 159.032 Q 423.565 159.071 422.93 159.501 L 422.93 159.501 L 422.93 159.501 Q 422.295 159.93 422.295 160.809 L 422.295 160.809 L 422.295 160.809 Q 422.295 162.069 423.741 162.069 L 423.741 162.069 L 423.741 162.069 Q 424.776 162.069 425.396 161.473 L 425.396 161.473 L 425.396 161.473 Q 426.016 160.878 426.016 159.891 L 426.016 159.891 Z  M 436.641 161.874 L 436.641 161.874 L 436.641 161.874 Q 437.422 161.874 438.516 161.532 L 438.516 161.532 L 438.516 163.749 L 438.516 163.749 Q 437.403 164.247 435.782 164.247 L 435.782 164.247 L 435.782 164.247 Q 433.994 164.247 433.179 163.343 L 433.179 163.343 L 433.179 163.343 Q 432.364 162.44 432.364 160.633 L 432.364 160.633 L 432.364 155.37 L 430.938 155.37 L 430.938 154.11 L 432.578 153.114 L 433.438 150.809 L 435.342 150.809 L 435.342 153.133 L 438.399 153.133 L 438.399 155.37 L 435.342 155.37 L 435.342 160.633 L 435.342 160.633 Q 435.342 161.268 435.699 161.571 L 435.699 161.571 L 435.699 161.571 Q 436.055 161.874 436.641 161.874 Z  M 447.422 149.774 L 447.422 164.051 L 444.405 164.051 L 444.405 155.79 L 444.434 154.432 L 444.483 152.948 L 444.483 152.948 Q 443.731 153.7 443.438 153.934 L 443.438 153.934 L 441.797 155.253 L 440.342 153.436 L 444.942 149.774 L 447.422 149.774 Z " fill-rule="evenodd" fill="rgb(0,0,0)"/></g><g id="Bfeat1"><path d="M 383.883 137.793 L 468.531 137.793 C 472.768 137.793 476.207 141.232 476.207 145.469 L 476.207 167.117 C 476.207 171.353 472.768 174.793 468.531 174.793 L 383.883 174.793 C 379.647 174.793 376.207 171.353 376.207 167.117 L 376.207 145.469 C 376.207 141.232 379.647 137.793 383.883 137.793 Z" style="stroke:none;fill:#D1D1D1;stroke-linecap:square;stroke-miterlimit:3;"/><path d="M 383.883 137.793 L 468.531 137.793 C 472.768 137.793 476.207 141.232 476.207 145.469 L 476.207 167.117 C 476.207 171.353 472.768 174.793 468.531 174.793 L 383.883 174.793 C 379.647 174.793 376.207 171.353 376.207 167.117 L 376.207 145.469 C 376.207 141.232 379.647 137.793 383.883 137.793 Z" style="fill:none;stroke:#000000;stroke-width:1.6855342301554246;stroke-linecap:square;stroke-miterlimit:3;"/><path d=" M 406.436 153.133 L 406.436 155.37 L 403.858 155.37 L 403.858 164.051 L 400.879 164.051 L 400.879 155.37 L 399.239 155.37 L 399.239 153.934 L 400.879 153.133 L 400.879 152.333 L 400.879 152.333 Q 400.879 150.467 401.797 149.608 L 401.797 149.608 L 401.797 149.608 Q 402.715 148.749 404.737 148.749 L 404.737 148.749 L 404.737 148.749 Q 406.28 148.749 407.481 149.208 L 407.481 149.208 L 406.719 151.395 L 406.719 151.395 Q 405.821 151.112 405.059 151.112 L 405.059 151.112 L 405.059 151.112 Q 404.424 151.112 404.141 151.488 L 404.141 151.488 L 404.141 151.488 Q 403.858 151.864 403.858 152.45 L 403.858 152.45 L 403.858 153.133 L 406.436 153.133 Z  M 412.666 155.048 L 412.666 155.048 L 412.666 155.048 Q 411.719 155.048 411.182 155.648 L 411.182 155.648 L 411.182 155.648 Q 410.645 156.249 410.567 157.352 L 410.567 157.352 L 414.746 157.352 L 414.746 157.352 Q 414.727 156.249 414.17 155.648 L 414.17 155.648 L 414.17 155.648 Q 413.614 155.048 412.666 155.048 Z  M 413.086 164.247 L 413.086 164.247 L 413.086 164.247 Q 410.45 164.247 408.965 162.792 L 408.965 162.792 L 408.965 162.792 Q 407.481 161.337 407.481 158.671 L 407.481 158.671 L 407.481 158.671 Q 407.481 155.926 408.853 154.427 L 408.853 154.427 L 408.853 154.427 Q 410.225 152.928 412.647 152.928 L 412.647 152.928 L 412.647 152.928 Q 414.961 152.928 416.25 154.247 L 416.25 154.247 L 416.25 154.247 Q 417.539 155.565 417.539 157.889 L 417.539 157.889 L 417.539 159.335 L 410.498 159.335 L 410.498 159.335 Q 410.547 160.604 411.25 161.317 L 411.25 161.317 L 411.25 161.317 Q 411.953 162.03 413.223 162.03 L 413.223 162.03 L 413.223 162.03 Q 414.209 162.03 415.088 161.825 L 415.088 161.825 L 415.088 161.825 Q 415.967 161.62 416.924 161.171 L 416.924 161.171 L 416.924 163.475 L 416.924 163.475 Q 416.143 163.866 415.254 164.056 L 415.254 164.056 L 415.254 164.056 Q 414.366 164.247 413.086 164.247 Z  M 428.975 164.051 L 426.895 164.051 L 426.319 162.567 L 426.241 162.567 L 426.241 162.567 Q 425.489 163.514 424.693 163.881 L 424.693 163.881 L 424.693 163.881 Q 423.897 164.247 422.617 164.247 L 422.617 164.247 L 422.617 164.247 Q 421.045 164.247 420.142 163.348 L 420.142 163.348 L 420.142 163.348 Q 419.239 162.45 419.239 160.79 L 419.239 160.79 L 419.239 160.79 Q 419.239 159.051 420.454 158.226 L 420.454 158.226 L 420.454 158.226 Q 421.67 157.401 424.121 157.313 L 424.121 157.313 L 426.016 157.255 L 426.016 156.776 L 426.016 156.776 Q 426.016 155.116 424.317 155.116 L 424.317 155.116 L 424.317 155.116 Q 423.008 155.116 421.241 155.907 L 421.241 155.907 L 420.254 153.895 L 420.254 153.895 Q 422.139 152.909 424.434 152.909 L 424.434 152.909 L 424.434 152.909 Q 426.631 152.909 427.803 153.866 L 427.803 153.866 L 427.803 153.866 Q 428.975 154.823 428.975 156.776 L 428.975 156.776 L 428.975 164.051 Z  M 426.016 159.891 L 426.016 158.993 L 424.864 159.032 L 424.864 159.032 Q 423.565 159.071 422.93 159.501 L 422.93 159.501 L 422.93 159.501 Q 422.295 159.93 422.295 160.809 L 422.295 160.809 L 422.295 160.809 Q 422.295 162.069 423.741 162.069 L 423.741 162.069 L 423.741 162.069 Q 424.776 162.069 425.396 161.473 L 425.396 161.473 L 425.396 161.473 Q 426.016 160.878 426.016 159.891 L 426.016 159.891 Z  M 436.641 161.874 L 436.641 161.874 L 436.641 161.874 Q 437.422 161.874 438.516 161.532 L 438.516 161.532 L 438.516 163.749 L 438.516 163.749 Q 437.403 164.247 435.782 164.247 L 435.782 164.247 L 435.782 164.247 Q 433.994 164.247 433.179 163.343 L 433.179 163.343 L 433.179 163.343 Q 432.364 162.44 432.364 160.633 L 432.364 160.633 L 432.364 155.37 L 430.938 155.37 L 430.938 154.11 L 432.578 153.114 L 433.438 150.809 L 435.342 150.809 L 435.342 153.133 L 438.399 153.133 L 438.399 155.37 L 435.342 155.37 L 435.342 160.633 L 435.342 160.633 Q 435.342 161.268 435.699 161.571 L 435.699 161.571 L 435.699 161.571 Q 436.055 161.874 436.641 161.874 Z  M 447.422 149.774 L 447.422 164.051 L 444.405 164.051 L 444.405 155.79 L 444.434 154.432 L 444.483 152.948 L 444.483 152.948 Q 443.731 153.7 443.438 153.934 L 443.438 153.934 L 441.797 155.253 L 440.342 153.436 L 444.942 149.774 L 447.422 149.774 Z " fill-rule="evenodd" fill="rgb(0,0,0)"/></g><g id="Bhead" style="opacity:0.6;"><path d="M 569.261 62.793 L 641.483 62.793 C 645.423 62.793 648.622 65.992 648.622 69.932 L 648.622 92.653 C 648.622 96.594 645.423 99.793 641.483 99.793 L 569.261 99.793 C 565.321 99.793 562.122 96.594 562.122 92.653 L 562.122 69.932 C 562.122 65.992 565.321 62.793 569.261 62.793 Z" style="stroke:none;fill:#FFF3A5;stroke-linecap:square;stroke-miterlimit:3;"/><path d="M 569.261 62.793 L 641.483 62.793 C 645.423 62.793 648.622 65.992 648.622 69.932 L 648.622 92.653 C 648.622 96.594 645.423 99.793 641.483 99.793 L 569.261 99.793 C 565.321 99.793 562.122 96.594 562.122 92.653 L 562.122 69.932 C 562.122 65.992 565.321 62.793 569.261 62.793 Z" style="fill:none;stroke:#000000;stroke-width:1.6855342301554246;stroke-linecap:square;stroke-dasharray:6;stroke-miterlimit:3;"/><path d=" M 590.314 75.501 L 590.314 89.779 L 587.297 89.779 L 587.297 83.617 L 581.642 83.617 L 581.642 89.779 L 578.615 89.779 L 578.615 75.501 L 581.642 75.501 L 581.642 81.097 L 587.297 81.097 L 587.297 75.501 L 590.314 75.501 Z  M 602.141 87.279 L 602.141 89.779 L 593.918 89.779 L 593.918 75.501 L 602.141 75.501 L 602.141 77.982 L 596.945 77.982 L 596.945 81.117 L 601.779 81.117 L 601.779 83.597 L 596.945 83.597 L 596.945 87.279 L 602.141 87.279 Z  M 617.121 89.779 L 613.859 89.779 L 612.824 86.38 L 607.619 86.38 L 606.584 89.779 L 603.322 89.779 L 608.361 75.443 L 612.062 75.443 L 617.121 89.779 Z  M 608.381 83.841 L 612.101 83.841 L 612.101 83.841 Q 610.666 79.222 610.485 78.617 L 610.485 78.617 L 610.485 78.617 Q 610.305 78.011 610.226 77.659 L 610.226 77.659 L 610.226 77.659 Q 609.904 78.909 608.381 83.841 L 608.381 83.841 Z  M 630.764 82.503 L 630.764 82.503 L 630.764 82.503 Q 630.764 86.029 628.757 87.904 L 628.757 87.904 L 628.757 87.904 Q 626.75 89.779 622.961 89.779 L 622.961 89.779 L 618.918 89.779 L 618.918 75.501 L 623.4 75.501 L 623.4 75.501 Q 626.896 75.501 628.83 77.347 L 628.83 77.347 L 628.83 77.347 Q 630.764 79.193 630.764 82.503 Z  M 627.619 82.581 L 627.619 82.581 L 627.619 82.581 Q 627.619 77.982 623.557 77.982 L 623.557 77.982 L 621.945 77.982 L 621.945 87.279 L 623.244 87.279 L 623.244 87.279 Q 627.619 87.279 627.619 82.581 Z " fill-rule="evenodd" fill="rgb(0,0,0)"/></g><g id="Bmaster"><path d="M 673.883 137.793 L 758.531 137.793 C 762.768 137.793 766.207 141.232 766.207 145.469 L 766.207 167.117 C 766.207 171.353 762.768 174.793 758.531 174.793 L 673.883 174.793 C 669.647 174.793 666.207 171.353 666.207 167.117 L 666.207 145.469 C 666.207 141.232 669.647 137.793 673.883 137.793 Z" style="stroke:none;fill:#9FC4FF;stroke-linecap:square;stroke-miterlimit:3;"/><path d="M 673.883 137.793 L 758.531 137.793 C 762.768 137.793 766.207 141.232 766.207 145.469 L 766.207 167.117 C 766.207 171.353 762.768 174.793 758.531 174.793 L 673.883 174.793 C 669.647 174.793 666.207 171.353 666.207 167.117 L 666.207 145.469 C 666.207 141.232 669.647 137.793 673.883 137.793 Z" style="fill:none;stroke:#000000;stroke-width:1.6855342301554246;stroke-linecap:square;stroke-miterlimit:3;"/><path d=" M 691.425 158.073 L 691.425 163.551 L 688.447 163.551 L 688.447 157.175 L 688.447 157.175 Q 688.447 155.993 688.051 155.402 L 688.051 155.402 L 688.051 155.402 Q 687.656 154.811 686.806 154.811 L 686.806 154.811 L 686.806 154.811 Q 685.663 154.811 685.146 155.651 L 685.146 155.651 L 685.146 155.651 Q 684.628 156.491 684.628 158.415 L 684.628 158.415 L 684.628 163.551 L 681.65 163.551 L 681.65 152.633 L 683.925 152.633 L 684.325 154.03 L 684.492 154.03 L 684.492 154.03 Q 684.931 153.278 685.761 152.853 L 685.761 152.853 L 685.761 152.853 Q 686.591 152.428 687.665 152.428 L 687.665 152.428 L 687.665 152.428 Q 690.117 152.428 690.986 154.03 L 690.986 154.03 L 691.249 154.03 L 691.249 154.03 Q 691.689 153.268 692.543 152.848 L 692.543 152.848 L 692.543 152.848 Q 693.398 152.428 694.472 152.428 L 694.472 152.428 L 694.472 152.428 Q 696.327 152.428 697.28 153.381 L 697.28 153.381 L 697.28 153.381 Q 698.232 154.333 698.232 156.432 L 698.232 156.432 L 698.232 163.551 L 695.243 163.551 L 695.243 157.175 L 695.243 157.175 Q 695.243 155.993 694.848 155.402 L 694.848 155.402 L 694.848 155.402 Q 694.452 154.811 693.603 154.811 L 693.603 154.811 L 693.603 154.811 Q 692.509 154.811 691.967 155.592 L 691.967 155.592 L 691.967 155.592 Q 691.425 156.374 691.425 158.073 L 691.425 158.073 Z  M 710.302 163.551 L 708.222 163.551 L 707.646 162.067 L 707.568 162.067 L 707.568 162.067 Q 706.816 163.014 706.02 163.381 L 706.02 163.381 L 706.02 163.381 Q 705.224 163.747 703.945 163.747 L 703.945 163.747 L 703.945 163.747 Q 702.372 163.747 701.469 162.848 L 701.469 162.848 L 701.469 162.848 Q 700.566 161.95 700.566 160.29 L 700.566 160.29 L 700.566 160.29 Q 700.566 158.551 701.782 157.726 L 701.782 157.726 L 701.782 157.726 Q 702.997 156.901 705.449 156.813 L 705.449 156.813 L 707.343 156.755 L 707.343 156.276 L 707.343 156.276 Q 707.343 154.616 705.644 154.616 L 705.644 154.616 L 705.644 154.616 Q 704.335 154.616 702.568 155.407 L 702.568 155.407 L 701.581 153.395 L 701.581 153.395 Q 703.466 152.409 705.761 152.409 L 705.761 152.409 L 705.761 152.409 Q 707.958 152.409 709.13 153.366 L 709.13 153.366 L 709.13 153.366 Q 710.302 154.323 710.302 156.276 L 710.302 156.276 L 710.302 163.551 Z  M 707.343 159.391 L 707.343 158.493 L 706.191 158.532 L 706.191 158.532 Q 704.892 158.571 704.257 159.001 L 704.257 159.001 L 704.257 159.001 Q 703.622 159.43 703.622 160.309 L 703.622 160.309 L 703.622 160.309 Q 703.622 161.569 705.068 161.569 L 705.068 161.569 L 705.068 161.569 Q 706.103 161.569 706.723 160.973 L 706.723 160.973 L 706.723 160.973 Q 707.343 160.378 707.343 159.391 L 707.343 159.391 Z  M 720.986 160.309 L 720.986 160.309 L 720.986 160.309 Q 720.986 161.989 719.819 162.868 L 719.819 162.868 L 719.819 162.868 Q 718.652 163.747 716.327 163.747 L 716.327 163.747 L 716.327 163.747 Q 715.136 163.747 714.296 163.586 L 714.296 163.586 L 714.296 163.586 Q 713.456 163.425 712.724 163.112 L 712.724 163.112 L 712.724 160.651 L 712.724 160.651 Q 713.554 161.042 714.594 161.305 L 714.594 161.305 L 714.594 161.305 Q 715.634 161.569 716.425 161.569 L 716.425 161.569 L 716.425 161.569 Q 718.046 161.569 718.046 160.632 L 718.046 160.632 L 718.046 160.632 Q 718.046 160.28 717.831 160.06 L 717.831 160.06 L 717.831 160.06 Q 717.617 159.841 717.089 159.562 L 717.089 159.562 L 717.089 159.562 Q 716.562 159.284 715.683 158.913 L 715.683 158.913 L 715.683 158.913 Q 714.423 158.385 713.832 157.936 L 713.832 157.936 L 713.832 157.936 Q 713.242 157.487 712.973 156.906 L 712.973 156.906 L 712.973 156.906 Q 712.704 156.325 712.704 155.475 L 712.704 155.475 L 712.704 155.475 Q 712.704 154.02 713.832 153.224 L 713.832 153.224 L 713.832 153.224 Q 714.96 152.428 717.031 152.428 L 717.031 152.428 L 717.031 152.428 Q 719.003 152.428 720.868 153.288 L 720.868 153.288 L 719.97 155.436 L 719.97 155.436 Q 719.15 155.085 718.437 154.86 L 718.437 154.86 L 718.437 154.86 Q 717.724 154.635 716.982 154.635 L 716.982 154.635 L 716.982 154.635 Q 715.663 154.635 715.663 155.348 L 715.663 155.348 L 715.663 155.348 Q 715.663 155.749 716.088 156.042 L 716.088 156.042 L 716.088 156.042 Q 716.513 156.335 717.949 156.911 L 717.949 156.911 L 717.949 156.911 Q 719.228 157.428 719.824 157.878 L 719.824 157.878 L 719.824 157.878 Q 720.419 158.327 720.702 158.913 L 720.702 158.913 L 720.702 158.913 Q 720.986 159.499 720.986 160.309 Z  M 727.909 161.374 L 727.909 161.374 L 727.909 161.374 Q 728.691 161.374 729.784 161.032 L 729.784 161.032 L 729.784 163.249 L 729.784 163.249 Q 728.671 163.747 727.05 163.747 L 727.05 163.747 L 727.05 163.747 Q 725.263 163.747 724.448 162.843 L 724.448 162.843 L 724.448 162.843 Q 723.632 161.94 723.632 160.133 L 723.632 160.133 L 723.632 154.87 L 722.206 154.87 L 722.206 153.61 L 723.847 152.614 L 724.706 150.309 L 726.611 150.309 L 726.611 152.633 L 729.667 152.633 L 729.667 154.87 L 726.611 154.87 L 726.611 160.133 L 726.611 160.133 Q 726.611 160.768 726.967 161.071 L 726.967 161.071 L 726.967 161.071 Q 727.324 161.374 727.909 161.374 Z  M 736.513 154.548 L 736.513 154.548 L 736.513 154.548 Q 735.566 154.548 735.029 155.148 L 735.029 155.148 L 735.029 155.148 Q 734.492 155.749 734.413 156.852 L 734.413 156.852 L 738.593 156.852 L 738.593 156.852 Q 738.574 155.749 738.017 155.148 L 738.017 155.148 L 738.017 155.148 Q 737.46 154.548 736.513 154.548 Z  M 736.933 163.747 L 736.933 163.747 L 736.933 163.747 Q 734.296 163.747 732.812 162.292 L 732.812 162.292 L 732.812 162.292 Q 731.327 160.837 731.327 158.171 L 731.327 158.171 L 731.327 158.171 Q 731.327 155.426 732.7 153.927 L 732.7 153.927 L 732.7 153.927 Q 734.072 152.428 736.493 152.428 L 736.493 152.428 L 736.493 152.428 Q 738.808 152.428 740.097 153.747 L 740.097 153.747 L 740.097 153.747 Q 741.386 155.065 741.386 157.389 L 741.386 157.389 L 741.386 158.835 L 734.345 158.835 L 734.345 158.835 Q 734.394 160.104 735.097 160.817 L 735.097 160.817 L 735.097 160.817 Q 735.8 161.53 737.07 161.53 L 737.07 161.53 L 737.07 161.53 Q 738.056 161.53 738.935 161.325 L 738.935 161.325 L 738.935 161.325 Q 739.814 161.12 740.771 160.671 L 740.771 160.671 L 740.771 162.975 L 740.771 162.975 Q 739.99 163.366 739.101 163.556 L 739.101 163.556 L 739.101 163.556 Q 738.212 163.747 736.933 163.747 Z  M 749.902 152.428 L 749.902 152.428 L 749.902 152.428 Q 750.507 152.428 750.908 152.516 L 750.908 152.516 L 750.683 155.309 L 750.683 155.309 Q 750.322 155.212 749.804 155.212 L 749.804 155.212 L 749.804 155.212 Q 748.378 155.212 747.582 155.944 L 747.582 155.944 L 747.582 155.944 Q 746.786 156.676 746.786 157.995 L 746.786 157.995 L 746.786 163.551 L 743.808 163.551 L 743.808 152.633 L 746.064 152.633 L 746.503 154.469 L 746.65 154.469 L 746.65 154.469 Q 747.158 153.551 748.022 152.99 L 748.022 152.99 L 748.022 152.99 Q 748.886 152.428 749.902 152.428 Z " fill-rule="evenodd" fill="rgb(0,0,0)"/></g><g id="Bhead"><path d="M 679.054 100.793 L 751.275 100.793 C 755.216 100.793 758.415 103.992 758.415 107.932 L 758.415 130.653 C 758.415 134.594 755.216 137.793 751.275 137.793 L 679.054 137.793 C 675.114 137.793 671.915 134.594 671.915 130.653 L 671.915 107.932 C 671.915 103.992 675.114 100.793 679.054 100.793 Z" style="stroke:none;fill:#FFF3A5;stroke-linecap:square;stroke-miterlimit:3;"/><path d="M 679.054 100.793 L 751.275 100.793 C 755.216 100.793 758.415 103.992 758.415 107.932 L 758.415 130.653 C 758.415 134.594 755.216 137.793 751.275 137.793 L 679.054 137.793 C 675.114 137.793 671.915 134.594 671.915 130.653 L 671.915 107.932 C 671.915 103.992 675.114 100.793 679.054 100.793 Z" style="fill:none;stroke:#000000;stroke-width:1.6855342301554246;stroke-linecap:square;stroke-miterlimit:3;"/><path d=" M 700.107 113.501 L 700.107 127.779 L 697.089 127.779 L 697.089 121.617 L 691.435 121.617 L 691.435 127.779 L 688.408 127.779 L 688.408 113.501 L 691.435 113.501 L 691.435 119.097 L 697.089 119.097 L 697.089 113.501 L 700.107 113.501 Z  M 711.933 125.279 L 711.933 127.779 L 703.711 127.779 L 703.711 113.501 L 711.933 113.501 L 711.933 115.982 L 706.738 115.982 L 706.738 119.117 L 711.572 119.117 L 711.572 121.597 L 706.738 121.597 L 706.738 125.279 L 711.933 125.279 Z  M 726.914 127.779 L 723.652 127.779 L 722.617 124.38 L 717.412 124.38 L 716.377 127.779 L 713.115 127.779 L 718.154 113.443 L 721.855 113.443 L 726.914 127.779 Z  M 718.173 121.841 L 721.894 121.841 L 721.894 121.841 Q 720.459 117.222 720.278 116.617 L 720.278 116.617 L 720.278 116.617 Q 720.097 116.011 720.019 115.659 L 720.019 115.659 L 720.019 115.659 Q 719.697 116.909 718.173 121.841 L 718.173 121.841 Z  M 740.556 120.503 L 740.556 120.503 L 740.556 120.503 Q 740.556 124.029 738.549 125.904 L 738.549 125.904 L 738.549 125.904 Q 736.543 127.779 732.754 127.779 L 732.754 127.779 L 728.711 127.779 L 728.711 113.501 L 733.193 113.501 L 733.193 113.501 Q 736.689 113.501 738.623 115.347 L 738.623 115.347 L 738.623 115.347 Q 740.556 117.193 740.556 120.503 Z  M 737.412 120.581 L 737.412 120.581 L 737.412 120.581 Q 737.412 115.982 733.349 115.982 L 733.349 115.982 L 731.738 115.982 L 731.738 125.279 L 733.037 125.279 L 733.037 125.279 Q 737.412 125.279 737.412 120.581 Z " fill-rule="evenodd" fill="rgb(0,0,0)"/></g><g id="c1"><path d=" M 34 202 C 34 189.743 43.951 179.793 56.207 179.793 C 68.464 179.793 78.415 189.743 78.415 202 C 78.415 214.257 68.464 224.207 56.207 224.207 C 43.951 224.207 34 214.257 34 202 Z " fill="rgb(195,215,247)" vector-effect="non-scaling-stroke" stroke-width="2" stroke="rgb(0,0,0)" stroke-linejoin="miter" stroke-linecap="square" stroke-miterlimit="3"/><path d=" M 57.639 194.26 L 57.639 211.322 L 54.346 211.322 L 54.346 198.232 L 50.033 199.779 L 50.033 196.943 L 57.463 194.26 L 57.639 194.26 Z " fill="rgb(0,0,0)"/></g><g id="c2"><path d=" M 97.207 202 C 97.207 189.743 107.158 179.793 119.415 179.793 C 131.671 179.793 141.622 189.743 141.622 202 C 141.622 214.257 131.671 224.207 119.415 224.207 C 107.158 224.207 97.207 214.257 97.207 202 Z " fill="rgb(195,215,247)" vector-effect="non-scaling-stroke" stroke-width="2" stroke="rgb(0,0,0)" stroke-linejoin="miter" stroke-linecap="square" stroke-miterlimit="3"/><path d=" M 124.022 208.709 L 124.022 211.322 L 112.385 211.322 L 112.385 209.096 L 117.905 203.166 L 117.905 203.166 Q 118.549 202.463 118.995 201.889 L 118.995 201.889 L 118.995 201.889 Q 119.44 201.314 119.715 200.84 L 119.715 200.84 L 119.715 200.84 Q 119.991 200.365 120.114 199.955 L 120.114 199.955 L 120.114 199.955 Q 120.237 199.545 120.237 199.158 L 120.237 199.158 L 120.237 199.158 Q 120.237 198.584 120.073 198.139 L 120.073 198.139 L 120.073 198.139 Q 119.909 197.693 119.61 197.383 L 119.61 197.383 L 119.61 197.383 Q 119.311 197.072 118.895 196.908 L 118.895 196.908 L 118.895 196.908 Q 118.479 196.744 117.975 196.744 L 117.975 196.744 L 117.975 196.744 Q 116.628 196.744 115.965 197.494 L 115.965 197.494 L 115.965 197.494 Q 115.303 198.244 115.303 199.592 L 115.303 199.592 L 112.034 199.592 L 112.034 199.592 Q 112.034 198.455 112.467 197.441 L 112.467 197.441 L 112.467 197.441 Q 112.901 196.428 113.692 195.666 L 113.692 195.666 L 113.692 195.666 Q 114.483 194.904 115.602 194.465 L 115.602 194.465 L 115.602 194.465 Q 116.721 194.025 118.081 194.025 L 118.081 194.025 L 118.081 194.025 Q 119.381 194.025 120.383 194.389 L 120.383 194.389 L 120.383 194.389 Q 121.385 194.752 122.059 195.408 L 122.059 195.408 L 122.059 195.408 Q 122.733 196.064 123.085 196.984 L 123.085 196.984 L 123.085 196.984 Q 123.436 197.904 123.436 199.018 L 123.436 199.018 L 123.436 199.018 Q 123.436 199.861 123.172 200.629 L 123.172 200.629 L 123.172 200.629 Q 122.909 201.396 122.422 202.146 L 122.422 202.146 L 122.422 202.146 Q 121.936 202.896 121.256 203.676 L 121.256 203.676 L 121.256 203.676 Q 120.577 204.455 119.745 205.311 L 119.745 205.311 L 116.534 208.709 L 124.022 208.709 Z " fill="rgb(0,0,0)"/></g><g id="C3"><path d=" M 160.415 202 C 160.415 189.743 170.365 179.793 182.622 179.793 C 194.879 179.793 204.829 189.743 204.829 202 C 204.829 214.257 194.879 224.207 182.622 224.207 C 170.365 224.207 160.415 214.257 160.415 202 Z " fill="rgb(195,215,247)" vector-effect="non-scaling-stroke" stroke-width="2" stroke="rgb(0,0,0)" stroke-linejoin="miter" stroke-linecap="square" stroke-miterlimit="3"/><path d=" M 179.354 203.893 L 179.354 201.361 L 181.124 201.361 L 181.124 201.361 Q 182.46 201.361 183.104 200.688 L 183.104 200.688 L 183.104 200.688 Q 183.749 200.014 183.749 198.924 L 183.749 198.924 L 183.749 198.924 Q 183.749 198.42 183.602 198.004 L 183.602 198.004 L 183.602 198.004 Q 183.456 197.588 183.163 197.289 L 183.163 197.289 L 183.163 197.289 Q 182.87 196.99 182.419 196.826 L 182.419 196.826 L 182.419 196.826 Q 181.968 196.662 181.37 196.662 L 181.37 196.662 L 181.37 196.662 Q 180.878 196.662 180.45 196.803 L 180.45 196.803 L 180.45 196.803 Q 180.022 196.943 179.7 197.207 L 179.7 197.207 L 179.7 197.207 Q 179.378 197.471 179.19 197.846 L 179.19 197.846 L 179.19 197.846 Q 179.003 198.221 179.003 198.689 L 179.003 198.689 L 175.745 198.689 L 175.745 198.689 Q 175.745 197.646 176.173 196.791 L 176.173 196.791 L 176.173 196.791 Q 176.6 195.936 177.35 195.32 L 177.35 195.32 L 177.35 195.32 Q 178.1 194.705 179.114 194.365 L 179.114 194.365 L 179.114 194.365 Q 180.128 194.025 181.3 194.025 L 181.3 194.025 L 181.3 194.025 Q 182.565 194.025 183.62 194.336 L 183.62 194.336 L 183.62 194.336 Q 184.675 194.646 185.425 195.262 L 185.425 195.262 L 185.425 195.262 Q 186.175 195.877 186.591 196.785 L 186.591 196.785 L 186.591 196.785 Q 187.007 197.693 187.007 198.889 L 187.007 198.889 L 187.007 198.889 Q 187.007 199.439 186.843 199.973 L 186.843 199.973 L 186.843 199.973 Q 186.679 200.506 186.362 200.986 L 186.362 200.986 L 186.362 200.986 Q 186.046 201.467 185.577 201.871 L 185.577 201.871 L 185.577 201.871 Q 185.108 202.275 184.499 202.568 L 184.499 202.568 L 184.499 202.568 Q 185.214 202.826 185.735 203.225 L 185.735 203.225 L 185.735 203.225 Q 186.257 203.623 186.597 204.133 L 186.597 204.133 L 186.597 204.133 Q 186.936 204.643 187.1 205.252 L 187.1 205.252 L 187.1 205.252 Q 187.265 205.861 187.265 206.541 L 187.265 206.541 L 187.265 206.541 Q 187.265 207.736 186.808 208.674 L 186.808 208.674 L 186.808 208.674 Q 186.35 209.611 185.554 210.25 L 185.554 210.25 L 185.554 210.25 Q 184.757 210.889 183.661 211.223 L 183.661 211.223 L 183.661 211.223 Q 182.565 211.557 181.3 211.557 L 181.3 211.557 L 181.3 211.557 Q 180.21 211.557 179.173 211.258 L 179.173 211.258 L 179.173 211.258 Q 178.136 210.959 177.327 210.355 L 177.327 210.355 L 177.327 210.355 Q 176.518 209.752 176.032 208.838 L 176.032 208.838 L 176.032 208.838 Q 175.546 207.924 175.546 206.682 L 175.546 206.682 L 178.804 206.682 L 178.804 206.682 Q 178.804 207.174 178.991 207.59 L 178.991 207.59 L 178.991 207.59 Q 179.179 208.006 179.524 208.305 L 179.524 208.305 L 179.524 208.305 Q 179.87 208.604 180.339 208.773 L 180.339 208.773 L 180.339 208.773 Q 180.808 208.943 181.37 208.943 L 181.37 208.943 L 181.37 208.943 Q 182.612 208.943 183.315 208.287 L 183.315 208.287 L 183.315 208.287 Q 184.018 207.631 184.018 206.506 L 184.018 206.506 L 184.018 206.506 Q 184.018 205.814 183.819 205.322 L 183.819 205.322 L 183.819 205.322 Q 183.62 204.83 183.239 204.514 L 183.239 204.514 L 183.239 204.514 Q 182.858 204.197 182.325 204.045 L 182.325 204.045 L 182.325 204.045 Q 181.792 203.893 181.124 203.893 L 181.124 203.893 L 179.354 203.893 Z " fill="rgb(0,0,0)"/></g><g id="C4"><path d=" M 223.622 202 C 223.622 189.743 233.573 179.793 245.829 179.793 C 258.086 179.793 268.037 189.743 268.037 202 C 268.037 214.257 258.086 224.207 245.829 224.207 C 233.573 224.207 223.622 214.257 223.622 202 Z " fill="rgb(195,215,247)" vector-effect="non-scaling-stroke" stroke-width="2" stroke="rgb(0,0,0)" stroke-linejoin="miter" stroke-linecap="square" stroke-miterlimit="3"/><path d=" M 248.796 194.26 L 248.796 204.982 L 250.777 204.982 L 250.777 207.619 L 248.796 207.619 L 248.796 211.322 L 245.538 211.322 L 245.538 207.619 L 238.448 207.619 L 238.32 205.58 L 245.491 194.26 L 248.796 194.26 Z  M 245.222 199.205 L 241.519 204.982 L 245.538 204.982 L 245.538 198.643 L 245.222 199.205 Z " fill-rule="evenodd" fill="rgb(0,0,0)"/></g><g id="C5"><path d=" M 251.594 280 C 251.594 267.743 261.544 257.793 273.801 257.793 C 286.057 257.793 296.008 267.743 296.008 280 C 296.008 292.257 286.057 302.207 273.801 302.207 C 261.544 302.207 251.594 292.257 251.594 280 Z " fill="rgb(209,209,209)" vector-effect="non-scaling-stroke" stroke-width="2" stroke="rgb(0,0,0)" stroke-linejoin="miter" stroke-linecap="square" stroke-miterlimit="3"/><path d=" M 270.018 281.564 L 267.416 280.92 L 268.389 272.26 L 277.857 272.26 L 277.857 275.025 L 271.072 275.025 L 270.662 278.775 L 270.662 278.775 Q 271.025 278.564 271.693 278.342 L 271.693 278.342 L 271.693 278.342 Q 272.361 278.119 273.229 278.119 L 273.229 278.119 L 273.229 278.119 Q 274.459 278.119 275.426 278.512 L 275.426 278.512 L 275.426 278.512 Q 276.393 278.904 277.055 279.643 L 277.055 279.643 L 277.055 279.643 Q 277.717 280.381 278.068 281.447 L 278.068 281.447 L 278.068 281.447 Q 278.42 282.514 278.42 283.861 L 278.42 283.861 L 278.42 283.861 Q 278.42 285.01 278.08 286.041 L 278.08 286.041 L 278.08 286.041 Q 277.74 287.072 277.037 287.857 L 277.037 287.857 L 277.037 287.857 Q 276.334 288.643 275.268 289.1 L 275.268 289.1 L 275.268 289.1 Q 274.201 289.557 272.748 289.557 L 272.748 289.557 L 272.748 289.557 Q 271.647 289.557 270.621 289.229 L 270.621 289.229 L 270.621 289.229 Q 269.596 288.9 268.799 288.268 L 268.799 288.268 L 268.799 288.268 Q 268.002 287.635 267.504 286.715 L 267.504 286.715 L 267.504 286.715 Q 267.006 285.795 266.971 284.611 L 266.971 284.611 L 270.182 284.611 L 270.182 284.611 Q 270.299 285.725 270.984 286.334 L 270.984 286.334 L 270.984 286.334 Q 271.67 286.943 272.736 286.943 L 272.736 286.943 L 272.736 286.943 Q 273.393 286.943 273.856 286.697 L 273.856 286.697 L 273.856 286.697 Q 274.318 286.451 274.606 286.018 L 274.606 286.018 L 274.606 286.018 Q 274.893 285.584 275.027 284.986 L 275.027 284.986 L 275.027 284.986 Q 275.162 284.389 275.162 283.697 L 275.162 283.697 L 275.162 283.697 Q 275.162 283.018 274.992 282.449 L 274.992 282.449 L 274.992 282.449 Q 274.822 281.881 274.471 281.471 L 274.471 281.471 L 274.471 281.471 Q 274.119 281.061 273.592 280.838 L 273.592 280.838 L 273.592 280.838 Q 273.065 280.615 272.35 280.615 L 272.35 280.615 L 272.35 280.615 Q 271.869 280.615 271.518 280.697 L 271.518 280.697 L 271.518 280.697 Q 271.166 280.779 270.897 280.908 L 270.897 280.908 L 270.897 280.908 Q 270.627 281.037 270.416 281.207 L 270.416 281.207 L 270.416 281.207 Q 270.205 281.377 270.018 281.564 L 270.018 281.564 Z " fill="rgb(0,0,0)"/></g><g id="C6"><path d=" M 313.207 280 C 313.207 267.743 323.158 257.793 335.415 257.793 C 347.671 257.793 357.622 267.743 357.622 280 C 357.622 292.257 347.671 302.207 335.415 302.207 C 323.158 302.207 313.207 292.257 313.207 280 Z " fill="rgb(209,209,209)" vector-effect="non-scaling-stroke" stroke-width="2" stroke="rgb(0,0,0)" stroke-linejoin="miter" stroke-linecap="square" stroke-miterlimit="3"/><path d=" M 337.081 272.119 L 337.514 272.119 L 337.514 274.826 L 337.327 274.826 L 337.327 274.826 Q 336.038 274.826 335.047 275.166 L 335.047 275.166 L 335.047 275.166 Q 334.057 275.506 333.36 276.127 L 333.36 276.127 L 333.36 276.127 Q 332.663 276.748 332.258 277.615 L 332.258 277.615 L 332.258 277.615 Q 331.854 278.482 331.749 279.549 L 331.749 279.549 L 331.749 279.549 Q 332.018 279.256 332.37 278.969 L 332.37 278.969 L 332.37 278.969 Q 332.721 278.682 333.161 278.453 L 333.161 278.453 L 333.161 278.453 Q 333.6 278.225 334.116 278.084 L 334.116 278.084 L 334.116 278.084 Q 334.631 277.943 335.229 277.943 L 335.229 277.943 L 335.229 277.943 Q 336.448 277.943 337.356 278.406 L 337.356 278.406 L 337.356 278.406 Q 338.264 278.869 338.874 279.66 L 338.874 279.66 L 338.874 279.66 Q 339.483 280.451 339.782 281.5 L 339.782 281.5 L 339.782 281.5 Q 340.081 282.549 340.081 283.709 L 340.081 283.709 L 340.081 283.709 Q 340.081 284.951 339.682 286.018 L 339.682 286.018 L 339.682 286.018 Q 339.284 287.084 338.546 287.869 L 338.546 287.869 L 338.546 287.869 Q 337.807 288.654 336.753 289.105 L 336.753 289.105 L 336.753 289.105 Q 335.698 289.557 334.385 289.557 L 334.385 289.557 L 334.385 289.557 Q 333.014 289.557 331.913 289.047 L 331.913 289.047 L 331.913 289.047 Q 330.811 288.537 330.044 287.635 L 330.044 287.635 L 330.044 287.635 Q 329.276 286.732 328.86 285.496 L 328.86 285.496 L 328.86 285.496 Q 328.444 284.26 328.444 282.795 L 328.444 282.795 L 328.444 281.541 L 328.444 281.541 Q 328.444 279.514 328.995 277.785 L 328.995 277.785 L 328.995 277.785 Q 329.546 276.057 330.635 274.797 L 330.635 274.797 L 330.635 274.797 Q 331.725 273.537 333.342 272.828 L 333.342 272.828 L 333.342 272.828 Q 334.96 272.119 337.081 272.119 L 337.081 272.119 Z  M 334.28 280.557 L 334.28 280.557 L 334.28 280.557 Q 333.401 280.557 332.727 281.025 L 332.727 281.025 L 332.727 281.025 Q 332.053 281.494 331.713 282.232 L 331.713 282.232 L 331.713 283.193 L 331.713 283.193 Q 331.713 284.131 331.907 284.834 L 331.907 284.834 L 331.907 284.834 Q 332.1 285.537 332.452 286 L 332.452 286 L 332.452 286 Q 332.803 286.463 333.284 286.697 L 333.284 286.697 L 333.284 286.697 Q 333.764 286.932 334.327 286.932 L 334.327 286.932 L 334.327 286.932 Q 334.901 286.932 335.37 286.691 L 335.37 286.691 L 335.37 286.691 Q 335.838 286.451 336.167 286.029 L 336.167 286.029 L 336.167 286.029 Q 336.495 285.607 336.671 285.027 L 336.671 285.027 L 336.671 285.027 Q 336.846 284.447 336.846 283.756 L 336.846 283.756 L 336.846 283.756 Q 336.846 283.064 336.671 282.479 L 336.671 282.479 L 336.671 282.479 Q 336.495 281.893 336.167 281.465 L 336.167 281.465 L 336.167 281.465 Q 335.838 281.037 335.364 280.797 L 335.364 280.797 L 335.364 280.797 Q 334.889 280.557 334.28 280.557 Z " fill-rule="evenodd" fill="rgb(0,0,0)"/></g><g id="C7"><path d=" M 310.325 202 C 310.325 189.743 320.276 179.793 332.533 179.793 C 344.789 179.793 354.74 189.743 354.74 202 C 354.74 214.257 344.789 224.207 332.533 224.207 C 320.276 224.207 310.325 214.257 310.325 202 Z " fill="rgb(195,215,247)" vector-effect="non-scaling-stroke" stroke-width="2" stroke="rgb(0,0,0)" stroke-linejoin="miter" stroke-linecap="square" stroke-miterlimit="3"/><path d=" M 337.128 194.26 L 337.128 196.076 L 330.484 211.322 L 327.05 211.322 L 333.706 196.92 L 325.14 196.92 L 325.14 194.26 L 337.128 194.26 Z " fill="rgb(0,0,0)"/></g><g id="C8"><path d=" M 374.821 280 C 374.821 267.743 384.772 257.793 397.028 257.793 C 409.285 257.793 419.236 267.743 419.236 280 C 419.236 292.257 409.285 302.207 397.028 302.207 C 384.772 302.207 374.821 292.257 374.821 280 Z " fill="rgb(209,209,209)" vector-effect="non-scaling-stroke" stroke-width="2" stroke="rgb(0,0,0)" stroke-linejoin="miter" stroke-linecap="square" stroke-miterlimit="3"/><path d=" M 401.191 276.795 L 401.191 276.795 L 401.191 276.795 Q 401.191 278.037 400.564 279.004 L 400.564 279.004 L 400.564 279.004 Q 399.937 279.971 398.847 280.545 L 398.847 280.545 L 398.847 280.545 Q 400.089 281.131 400.821 282.186 L 400.821 282.186 L 400.821 282.186 Q 401.554 283.24 401.554 284.658 L 401.554 284.658 L 401.554 284.658 Q 401.554 285.865 401.114 286.779 L 401.114 286.779 L 401.114 286.779 Q 400.675 287.693 399.907 288.309 L 399.907 288.309 L 399.907 288.309 Q 399.14 288.924 398.097 289.24 L 398.097 289.24 L 398.097 289.24 Q 397.054 289.557 395.847 289.557 L 395.847 289.557 L 395.847 289.557 Q 394.628 289.557 393.579 289.24 L 393.579 289.24 L 393.579 289.24 Q 392.53 288.924 391.757 288.309 L 391.757 288.309 L 391.757 288.309 Q 390.984 287.693 390.544 286.779 L 390.544 286.779 L 390.544 286.779 Q 390.105 285.865 390.105 284.658 L 390.105 284.658 L 390.105 284.658 Q 390.105 283.955 390.298 283.328 L 390.298 283.328 L 390.298 283.328 Q 390.491 282.701 390.843 282.18 L 390.843 282.18 L 390.843 282.18 Q 391.194 281.658 391.693 281.242 L 391.693 281.242 L 391.693 281.242 Q 392.191 280.826 392.812 280.533 L 392.812 280.533 L 392.812 280.533 Q 391.722 279.971 391.101 279.004 L 391.101 279.004 L 391.101 279.004 Q 390.48 278.037 390.48 276.795 L 390.48 276.795 L 390.48 276.795 Q 390.48 275.635 390.878 274.75 L 390.878 274.75 L 390.878 274.75 Q 391.276 273.865 391.985 273.256 L 391.985 273.256 L 391.985 273.256 Q 392.694 272.646 393.673 272.336 L 393.673 272.336 L 393.673 272.336 Q 394.651 272.025 395.812 272.025 L 395.812 272.025 L 395.812 272.025 Q 396.972 272.025 397.956 272.336 L 397.956 272.336 L 397.956 272.336 Q 398.941 272.646 399.661 273.256 L 399.661 273.256 L 399.661 273.256 Q 400.382 273.865 400.786 274.75 L 400.786 274.75 L 400.786 274.75 Q 401.191 275.635 401.191 276.795 Z  M 398.284 284.436 L 398.284 284.436 L 398.284 284.436 Q 398.284 283.85 398.109 283.381 L 398.109 283.381 L 398.109 283.381 Q 397.933 282.912 397.61 282.578 L 397.61 282.578 L 397.61 282.578 Q 397.288 282.244 396.837 282.068 L 396.837 282.068 L 396.837 282.068 Q 396.386 281.893 395.823 281.893 L 395.823 281.893 L 395.823 281.893 Q 395.261 281.893 394.81 282.068 L 394.81 282.068 L 394.81 282.068 Q 394.359 282.244 394.042 282.578 L 394.042 282.578 L 394.042 282.578 Q 393.726 282.912 393.55 283.381 L 393.55 283.381 L 393.55 283.381 Q 393.374 283.85 393.374 284.436 L 393.374 284.436 L 393.374 284.436 Q 393.374 285.607 394.042 286.275 L 394.042 286.275 L 394.042 286.275 Q 394.71 286.943 395.847 286.943 L 395.847 286.943 L 395.847 286.943 Q 396.386 286.943 396.831 286.773 L 396.831 286.773 L 396.831 286.773 Q 397.276 286.604 397.599 286.275 L 397.599 286.275 L 397.599 286.275 Q 397.921 285.947 398.103 285.484 L 398.103 285.484 L 398.103 285.484 Q 398.284 285.021 398.284 284.436 Z  M 397.944 276.947 L 397.944 276.947 L 397.944 276.947 Q 397.944 276.432 397.792 276.01 L 397.792 276.01 L 397.792 276.01 Q 397.64 275.588 397.364 275.289 L 397.364 275.289 L 397.364 275.289 Q 397.089 274.99 396.696 274.826 L 396.696 274.826 L 396.696 274.826 Q 396.304 274.662 395.812 274.662 L 395.812 274.662 L 395.812 274.662 Q 394.816 274.662 394.276 275.271 L 394.276 275.271 L 394.276 275.271 Q 393.737 275.881 393.737 276.947 L 393.737 276.947 L 393.737 276.947 Q 393.737 277.463 393.878 277.891 L 393.878 277.891 L 393.878 277.891 Q 394.019 278.318 394.294 278.623 L 394.294 278.623 L 394.294 278.623 Q 394.569 278.928 394.962 279.098 L 394.962 279.098 L 394.962 279.098 Q 395.355 279.268 395.847 279.268 L 395.847 279.268 L 395.847 279.268 Q 396.339 279.268 396.726 279.098 L 396.726 279.098 L 396.726 279.098 Q 397.112 278.928 397.382 278.623 L 397.382 278.623 L 397.382 278.623 Q 397.651 278.318 397.798 277.891 L 397.798 277.891 L 397.798 277.891 Q 397.944 277.463 397.944 276.947 Z " fill-rule="evenodd" fill="rgb(0,0,0)"/></g><g id="C9"><path d=" M 403 202 C 403 189.743 412.951 179.793 425.207 179.793 C 437.464 179.793 447.415 189.743 447.415 202 C 447.415 214.257 437.464 224.207 425.207 224.207 C 412.951 224.207 403 214.257 403 202 Z " fill="rgb(195,215,247)" vector-effect="non-scaling-stroke" stroke-width="2" stroke="rgb(0,0,0)" stroke-linejoin="miter" stroke-linecap="square" stroke-miterlimit="3"/><path d=" M 420.674 208.732 L 420.897 208.732 L 420.897 208.732 Q 422.209 208.732 423.17 208.451 L 423.17 208.451 L 423.17 208.451 Q 424.131 208.17 424.782 207.637 L 424.782 207.637 L 424.782 207.637 Q 425.432 207.104 425.789 206.336 L 425.789 206.336 L 425.789 206.336 Q 426.147 205.568 426.252 204.596 L 426.252 204.596 L 426.252 204.596 Q 425.76 205.088 424.987 205.439 L 424.987 205.439 L 424.987 205.439 Q 424.213 205.791 423.112 205.791 L 423.112 205.791 L 423.112 205.791 Q 421.893 205.791 420.967 205.346 L 420.967 205.346 L 420.967 205.346 Q 420.041 204.9 419.414 204.127 L 419.414 204.127 L 419.414 204.127 Q 418.787 203.354 418.465 202.305 L 418.465 202.305 L 418.465 202.305 Q 418.143 201.256 418.143 200.049 L 418.143 200.049 L 418.143 200.049 Q 418.143 198.807 418.535 197.711 L 418.535 197.711 L 418.535 197.711 Q 418.928 196.615 419.666 195.795 L 419.666 195.795 L 419.666 195.795 Q 420.405 194.975 421.453 194.5 L 421.453 194.5 L 421.453 194.5 Q 422.502 194.025 423.815 194.025 L 423.815 194.025 L 423.815 194.025 Q 425.151 194.025 426.217 194.541 L 426.217 194.541 L 426.217 194.541 Q 427.283 195.057 428.028 195.982 L 428.028 195.982 L 428.028 195.982 Q 428.772 196.908 429.164 198.186 L 429.164 198.186 L 429.164 198.186 Q 429.557 199.463 429.557 200.986 L 429.557 200.986 L 429.557 202.111 L 429.557 202.111 Q 429.557 204.15 429.053 205.861 L 429.053 205.861 L 429.053 205.861 Q 428.549 207.572 427.494 208.82 L 427.494 208.82 L 427.494 208.82 Q 426.44 210.068 424.811 210.766 L 424.811 210.766 L 424.811 210.766 Q 423.182 211.463 420.92 211.463 L 420.92 211.463 L 420.674 211.463 L 420.674 208.732 Z  M 423.885 203.271 L 423.885 203.271 L 423.885 203.271 Q 424.33 203.271 424.711 203.143 L 424.711 203.143 L 424.711 203.143 Q 425.092 203.014 425.403 202.785 L 425.403 202.785 L 425.403 202.785 Q 425.713 202.557 425.942 202.246 L 425.942 202.246 L 425.942 202.246 Q 426.17 201.936 426.311 201.572 L 426.311 201.572 L 426.311 200.412 L 426.311 200.412 Q 426.311 199.475 426.117 198.771 L 426.117 198.771 L 426.117 198.771 Q 425.924 198.068 425.584 197.6 L 425.584 197.6 L 425.584 197.6 Q 425.244 197.131 424.787 196.896 L 424.787 196.896 L 424.787 196.896 Q 424.33 196.662 423.803 196.662 L 423.803 196.662 L 423.803 196.662 Q 423.229 196.662 422.778 196.938 L 422.778 196.938 L 422.778 196.938 Q 422.326 197.213 422.022 197.676 L 422.022 197.676 L 422.022 197.676 Q 421.717 198.139 421.553 198.742 L 421.553 198.742 L 421.553 198.742 Q 421.389 199.346 421.389 200.002 L 421.389 200.002 L 421.389 200.002 Q 421.389 200.658 421.541 201.256 L 421.541 201.256 L 421.541 201.256 Q 421.694 201.854 422.004 202.299 L 422.004 202.299 L 422.004 202.299 Q 422.315 202.744 422.783 203.008 L 422.783 203.008 L 422.783 203.008 Q 423.252 203.271 423.885 203.271 Z " fill-rule="evenodd" fill="rgb(0,0,0)"/></g><g id="C10"><path d=" M 495.675 202 C 495.675 189.743 505.626 179.793 517.882 179.793 C 530.139 179.793 540.089 189.743 540.089 202 C 540.089 214.257 530.139 224.207 517.882 224.207 C 505.626 224.207 495.675 214.257 495.675 202 Z " fill="rgb(195,215,247)" vector-effect="non-scaling-stroke" stroke-width="2" stroke="rgb(0,0,0)" stroke-linejoin="miter" stroke-linecap="square" stroke-miterlimit="3"/><path d=" M 512.113 194.26 L 512.113 211.322 L 508.82 211.322 L 508.82 198.232 L 504.507 199.779 L 504.507 196.943 L 511.937 194.26 L 512.113 194.26 Z  M 529.644 200.752 L 529.644 204.83 L 529.644 204.83 Q 529.644 206.482 529.263 207.742 L 529.263 207.742 L 529.263 207.742 Q 528.882 209.002 528.167 209.852 L 528.167 209.852 L 528.167 209.852 Q 527.452 210.701 526.421 211.135 L 526.421 211.135 L 526.421 211.135 Q 525.39 211.568 524.101 211.568 L 524.101 211.568 L 524.101 211.568 Q 522.824 211.568 521.792 211.135 L 521.792 211.135 L 521.792 211.135 Q 520.761 210.701 520.04 209.852 L 520.04 209.852 L 520.04 209.852 Q 519.32 209.002 518.927 207.742 L 518.927 207.742 L 518.927 207.742 Q 518.534 206.482 518.534 204.83 L 518.534 204.83 L 518.534 200.752 L 518.534 200.752 Q 518.534 199.1 518.921 197.84 L 518.921 197.84 L 518.921 197.84 Q 519.308 196.58 520.029 195.73 L 520.029 195.73 L 520.029 195.73 Q 520.749 194.881 521.775 194.447 L 521.775 194.447 L 521.775 194.447 Q 522.8 194.014 524.077 194.014 L 524.077 194.014 L 524.077 194.014 Q 525.366 194.014 526.398 194.447 L 526.398 194.447 L 526.398 194.447 Q 527.429 194.881 528.15 195.73 L 528.15 195.73 L 528.15 195.73 Q 528.87 196.58 529.257 197.84 L 529.257 197.84 L 529.257 197.84 Q 529.644 199.1 529.644 200.752 L 529.644 200.752 Z  M 521.816 200.236 L 521.816 203.424 L 526.363 200.037 L 526.363 200.037 Q 526.327 198.314 525.765 197.482 L 525.765 197.482 L 525.765 197.482 Q 525.202 196.65 524.077 196.65 L 524.077 196.65 L 524.077 196.65 Q 522.941 196.65 522.378 197.529 L 522.378 197.529 L 522.378 197.529 Q 521.816 198.408 521.816 200.236 L 521.816 200.236 Z  M 526.363 205.322 L 526.363 202.252 L 521.816 205.627 L 521.816 205.627 Q 521.874 207.314 522.437 208.129 L 522.437 208.129 L 522.437 208.129 Q 522.999 208.943 524.101 208.943 L 524.101 208.943 L 524.101 208.943 Q 525.249 208.943 525.806 208.053 L 525.806 208.053 L 525.806 208.053 Q 526.363 207.162 526.363 205.322 L 526.363 205.322 Z " fill-rule="evenodd" fill="rgb(0,0,0)"/></g><g id="C11"><path d=" M 222.386 111.793 C 222.386 99.536 232.337 89.585 244.594 89.585 C 256.85 89.585 266.801 99.536 266.801 111.793 C 266.801 124.049 256.85 134 244.594 134 C 232.337 134 222.386 124.049 222.386 111.793 Z " fill="rgb(211,240,193)" vector-effect="non-scaling-stroke" stroke-width="2" stroke="rgb(0,0,0)" stroke-linejoin="miter" stroke-linecap="square" stroke-miterlimit="3"/><path d=" M 238.824 104.052 L 238.824 121.115 L 235.531 121.115 L 235.531 108.025 L 231.219 109.572 L 231.219 106.736 L 238.648 104.052 L 238.824 104.052 Z  M 253.226 104.052 L 253.226 121.115 L 249.933 121.115 L 249.933 108.025 L 245.621 109.572 L 245.621 106.736 L 253.051 104.052 L 253.226 104.052 Z " fill-rule="evenodd" fill="rgb(0,0,0)"/></g><g id="C12"><path d=" M 291.618 111.793 C 291.618 99.536 301.569 89.585 313.825 89.585 C 326.082 89.585 336.033 99.536 336.033 111.793 C 336.033 124.049 326.082 134 313.825 134 C 301.569 134 291.618 124.049 291.618 111.793 Z " fill="rgb(211,240,193)" vector-effect="non-scaling-stroke" stroke-width="2" stroke="rgb(0,0,0)" stroke-linejoin="miter" stroke-linecap="square" stroke-miterlimit="3"/><path d=" M 308.056 104.052 L 308.056 121.115 L 304.763 121.115 L 304.763 108.025 L 300.45 109.572 L 300.45 106.736 L 307.88 104.052 L 308.056 104.052 Z  M 325.634 118.502 L 325.634 121.115 L 313.997 121.115 L 313.997 118.888 L 319.517 112.959 L 319.517 112.959 Q 320.161 112.256 320.606 111.681 L 320.606 111.681 L 320.606 111.681 Q 321.052 111.107 321.327 110.633 L 321.327 110.633 L 321.327 110.633 Q 321.603 110.158 321.726 109.748 L 321.726 109.748 L 321.726 109.748 Q 321.849 109.338 321.849 108.951 L 321.849 108.951 L 321.849 108.951 Q 321.849 108.377 321.685 107.931 L 321.685 107.931 L 321.685 107.931 Q 321.521 107.486 321.222 107.175 L 321.222 107.175 L 321.222 107.175 Q 320.923 106.865 320.507 106.701 L 320.507 106.701 L 320.507 106.701 Q 320.091 106.537 319.587 106.537 L 319.587 106.537 L 319.587 106.537 Q 318.239 106.537 317.577 107.287 L 317.577 107.287 L 317.577 107.287 Q 316.915 108.037 316.915 109.384 L 316.915 109.384 L 313.646 109.384 L 313.646 109.384 Q 313.646 108.248 314.079 107.234 L 314.079 107.234 L 314.079 107.234 Q 314.513 106.22 315.304 105.459 L 315.304 105.459 L 315.304 105.459 Q 316.095 104.697 317.214 104.258 L 317.214 104.258 L 317.214 104.258 Q 318.333 103.818 319.692 103.818 L 319.692 103.818 L 319.692 103.818 Q 320.993 103.818 321.995 104.181 L 321.995 104.181 L 321.995 104.181 Q 322.997 104.545 323.671 105.201 L 323.671 105.201 L 323.671 105.201 Q 324.345 105.857 324.696 106.777 L 324.696 106.777 L 324.696 106.777 Q 325.048 107.697 325.048 108.81 L 325.048 108.81 L 325.048 108.81 Q 325.048 109.654 324.784 110.422 L 324.784 110.422 L 324.784 110.422 Q 324.521 111.189 324.034 111.939 L 324.034 111.939 L 324.034 111.939 Q 323.548 112.689 322.868 113.468 L 322.868 113.468 L 322.868 113.468 Q 322.188 114.248 321.356 115.103 L 321.356 115.103 L 318.146 118.502 L 325.634 118.502 Z " fill-rule="evenodd" fill="rgb(0,0,0)"/></g><g id="C13"><path d=" M 584.207 202 C 584.207 189.743 594.158 179.793 606.415 179.793 C 618.671 179.793 628.622 189.743 628.622 202 C 628.622 214.257 618.671 224.207 606.415 224.207 C 594.158 224.207 584.207 214.257 584.207 202 Z " fill="rgb(195,215,247)" vector-effect="non-scaling-stroke" stroke-width="2" stroke="rgb(0,0,0)" stroke-linejoin="miter" stroke-linecap="square" stroke-miterlimit="3"/><path d=" M 600.645 194.26 L 600.645 211.322 L 597.352 211.322 L 597.352 198.232 L 593.04 199.779 L 593.04 196.943 L 600.469 194.26 L 600.645 194.26 Z  M 610.348 203.893 L 610.348 201.361 L 612.118 201.361 L 612.118 201.361 Q 613.454 201.361 614.098 200.688 L 614.098 200.688 L 614.098 200.688 Q 614.743 200.014 614.743 198.924 L 614.743 198.924 L 614.743 198.924 Q 614.743 198.42 614.596 198.004 L 614.596 198.004 L 614.596 198.004 Q 614.45 197.588 614.157 197.289 L 614.157 197.289 L 614.157 197.289 Q 613.864 196.99 613.413 196.826 L 613.413 196.826 L 613.413 196.826 Q 612.962 196.662 612.364 196.662 L 612.364 196.662 L 612.364 196.662 Q 611.872 196.662 611.444 196.803 L 611.444 196.803 L 611.444 196.803 Q 611.016 196.943 610.694 197.207 L 610.694 197.207 L 610.694 197.207 Q 610.372 197.471 610.184 197.846 L 610.184 197.846 L 610.184 197.846 Q 609.997 198.221 609.997 198.689 L 609.997 198.689 L 606.739 198.689 L 606.739 198.689 Q 606.739 197.646 607.167 196.791 L 607.167 196.791 L 607.167 196.791 Q 607.594 195.936 608.344 195.32 L 608.344 195.32 L 608.344 195.32 Q 609.094 194.705 610.108 194.365 L 610.108 194.365 L 610.108 194.365 Q 611.122 194.025 612.294 194.025 L 612.294 194.025 L 612.294 194.025 Q 613.559 194.025 614.614 194.336 L 614.614 194.336 L 614.614 194.336 Q 615.669 194.646 616.419 195.262 L 616.419 195.262 L 616.419 195.262 Q 617.169 195.877 617.585 196.785 L 617.585 196.785 L 617.585 196.785 Q 618.001 197.693 618.001 198.889 L 618.001 198.889 L 618.001 198.889 Q 618.001 199.439 617.837 199.973 L 617.837 199.973 L 617.837 199.973 Q 617.672 200.506 617.356 200.986 L 617.356 200.986 L 617.356 200.986 Q 617.04 201.467 616.571 201.871 L 616.571 201.871 L 616.571 201.871 Q 616.102 202.275 615.493 202.568 L 615.493 202.568 L 615.493 202.568 Q 616.208 202.826 616.729 203.225 L 616.729 203.225 L 616.729 203.225 Q 617.251 203.623 617.59 204.133 L 617.59 204.133 L 617.59 204.133 Q 617.93 204.643 618.094 205.252 L 618.094 205.252 L 618.094 205.252 Q 618.258 205.861 618.258 206.541 L 618.258 206.541 L 618.258 206.541 Q 618.258 207.736 617.801 208.674 L 617.801 208.674 L 617.801 208.674 Q 617.344 209.611 616.547 210.25 L 616.547 210.25 L 616.547 210.25 Q 615.751 210.889 614.655 211.223 L 614.655 211.223 L 614.655 211.223 Q 613.559 211.557 612.294 211.557 L 612.294 211.557 L 612.294 211.557 Q 611.204 211.557 610.167 211.258 L 610.167 211.258 L 610.167 211.258 Q 609.129 210.959 608.321 210.355 L 608.321 210.355 L 608.321 210.355 Q 607.512 209.752 607.026 208.838 L 607.026 208.838 L 607.026 208.838 Q 606.54 207.924 606.54 206.682 L 606.54 206.682 L 609.797 206.682 L 609.797 206.682 Q 609.797 207.174 609.985 207.59 L 609.985 207.59 L 609.985 207.59 Q 610.172 208.006 610.518 208.305 L 610.518 208.305 L 610.518 208.305 Q 610.864 208.604 611.333 208.773 L 611.333 208.773 L 611.333 208.773 Q 611.801 208.943 612.364 208.943 L 612.364 208.943 L 612.364 208.943 Q 613.606 208.943 614.309 208.287 L 614.309 208.287 L 614.309 208.287 Q 615.012 207.631 615.012 206.506 L 615.012 206.506 L 615.012 206.506 Q 615.012 205.814 614.813 205.322 L 614.813 205.322 L 614.813 205.322 Q 614.614 204.83 614.233 204.514 L 614.233 204.514 L 614.233 204.514 Q 613.852 204.197 613.319 204.045 L 613.319 204.045 L 613.319 204.045 Q 612.786 203.893 612.118 203.893 L 612.118 203.893 L 610.348 203.893 Z " fill-rule="evenodd" fill="rgb(0,0,0)"/></g><g id="C13"><path d=" M 694 202 C 694 189.743 703.951 179.793 716.207 179.793 C 728.464 179.793 738.415 189.743 738.415 202 C 738.415 214.257 728.464 224.207 716.207 224.207 C 703.951 224.207 694 214.257 694 202 Z " fill="rgb(195,215,247)" vector-effect="non-scaling-stroke" stroke-width="2" stroke="rgb(0,0,0)" stroke-linejoin="miter" stroke-linecap="square" stroke-miterlimit="3"/><path d=" M 710.438 194.26 L 710.438 211.322 L 707.145 211.322 L 707.145 198.232 L 702.832 199.779 L 702.832 196.943 L 710.262 194.26 L 710.438 194.26 Z  M 726.375 194.26 L 726.375 204.982 L 728.356 204.982 L 728.356 207.619 L 726.375 207.619 L 726.375 211.322 L 723.117 211.322 L 723.117 207.619 L 716.028 207.619 L 715.899 205.58 L 723.071 194.26 L 726.375 194.26 Z  M 722.801 199.205 L 719.098 204.982 L 723.117 204.982 L 723.117 198.643 L 722.801 199.205 Z " fill-rule="evenodd" fill="rgb(0,0,0)"/></g><g id="Btest"><path d="M 564.091 137.793 L 648.739 137.793 C 652.975 137.793 656.415 141.232 656.415 145.469 L 656.415 167.117 C 656.415 171.353 652.975 174.793 648.739 174.793 L 564.091 174.793 C 559.854 174.793 556.415 171.353 556.415 167.117 L 556.415 145.469 C 556.415 141.232 559.854 137.793 564.091 137.793 Z" style="stroke:none;fill:#D3F0C1;stroke-linecap:square;stroke-miterlimit:3;"/><path d="M 564.091 137.793 L 648.739 137.793 C 652.975 137.793 656.415 141.232 656.415 145.469 L 656.415 167.117 C 656.415 171.353 652.975 174.793 648.739 174.793 L 564.091 174.793 C 559.854 174.793 556.415 171.353 556.415 167.117 L 556.415 145.469 C 556.415 141.232 559.854 137.793 564.091 137.793 Z" style="fill:none;stroke:#000000;stroke-width:1.6855342301554246;stroke-linecap:square;stroke-miterlimit:3;"/><path d=" M 583.325 158.27 L 586.03 149.774 L 589.087 149.774 L 584.233 164.051 L 580.932 164.051 L 576.088 149.774 L 579.145 149.774 L 581.831 158.27 L 581.831 158.27 Q 582.055 159.022 582.295 160.023 L 582.295 160.023 L 582.295 160.023 Q 582.534 161.024 582.592 161.415 L 582.592 161.415 L 582.592 161.415 Q 582.7 160.516 583.325 158.27 L 583.325 158.27 Z  M 597.348 149.774 L 597.348 164.051 L 594.331 164.051 L 594.331 155.79 L 594.36 154.432 L 594.409 152.948 L 594.409 152.948 Q 593.657 153.7 593.364 153.934 L 593.364 153.934 L 591.723 155.253 L 590.268 153.436 L 594.868 149.774 L 597.348 149.774 Z  M 601.645 162.655 L 601.645 162.655 L 601.645 162.655 Q 601.645 161.835 602.085 161.415 L 602.085 161.415 L 602.085 161.415 Q 602.524 160.995 603.364 160.995 L 603.364 160.995 L 603.364 160.995 Q 604.174 160.995 604.619 161.425 L 604.619 161.425 L 604.619 161.425 Q 605.063 161.854 605.063 162.655 L 605.063 162.655 L 605.063 162.655 Q 605.063 163.426 604.614 163.871 L 604.614 163.871 L 604.614 163.871 Q 604.165 164.315 603.364 164.315 L 603.364 164.315 L 603.364 164.315 Q 602.544 164.315 602.094 163.881 L 602.094 163.881 L 602.094 163.881 Q 601.645 163.446 601.645 162.655 Z  M 616.909 156.913 L 616.909 156.913 L 616.909 156.913 Q 616.909 160.653 615.683 162.45 L 615.683 162.45 L 615.683 162.45 Q 614.458 164.247 611.909 164.247 L 611.909 164.247 L 611.909 164.247 Q 609.438 164.247 608.183 162.391 L 608.183 162.391 L 608.183 162.391 Q 606.928 160.536 606.928 156.913 L 606.928 156.913 L 606.928 156.913 Q 606.928 153.133 608.149 151.342 L 608.149 151.342 L 608.149 151.342 Q 609.37 149.55 611.909 149.55 L 611.909 149.55 L 611.909 149.55 Q 614.379 149.55 615.644 151.425 L 615.644 151.425 L 615.644 151.425 Q 616.909 153.3 616.909 156.913 Z  M 609.926 156.913 L 609.926 156.913 L 609.926 156.913 Q 609.926 159.54 610.38 160.677 L 610.38 160.677 L 610.38 160.677 Q 610.835 161.815 611.909 161.815 L 611.909 161.815 L 611.909 161.815 Q 612.963 161.815 613.432 160.663 L 613.432 160.663 L 613.432 160.663 Q 613.901 159.51 613.901 156.913 L 613.901 156.913 L 613.901 156.913 Q 613.901 154.286 613.427 153.138 L 613.427 153.138 L 613.427 153.138 Q 612.954 151.991 611.909 151.991 L 611.909 151.991 L 611.909 151.991 Q 610.844 151.991 610.385 153.138 L 610.385 153.138 L 610.385 153.138 Q 609.926 154.286 609.926 156.913 Z  M 618.764 162.655 L 618.764 162.655 L 618.764 162.655 Q 618.764 161.835 619.204 161.415 L 619.204 161.415 L 619.204 161.415 Q 619.643 160.995 620.483 160.995 L 620.483 160.995 L 620.483 160.995 Q 621.294 160.995 621.738 161.425 L 621.738 161.425 L 621.738 161.425 Q 622.182 161.854 622.182 162.655 L 622.182 162.655 L 622.182 162.655 Q 622.182 163.426 621.733 163.871 L 621.733 163.871 L 621.733 163.871 Q 621.284 164.315 620.483 164.315 L 620.483 164.315 L 620.483 164.315 Q 619.663 164.315 619.213 163.881 L 619.213 163.881 L 619.213 163.881 Q 618.764 163.446 618.764 162.655 Z  M 634.028 156.913 L 634.028 156.913 L 634.028 156.913 Q 634.028 160.653 632.802 162.45 L 632.802 162.45 L 632.802 162.45 Q 631.577 164.247 629.028 164.247 L 629.028 164.247 L 629.028 164.247 Q 626.557 164.247 625.302 162.391 L 625.302 162.391 L 625.302 162.391 Q 624.047 160.536 624.047 156.913 L 624.047 156.913 L 624.047 156.913 Q 624.047 153.133 625.268 151.342 L 625.268 151.342 L 625.268 151.342 Q 626.489 149.55 629.028 149.55 L 629.028 149.55 L 629.028 149.55 Q 631.499 149.55 632.763 151.425 L 632.763 151.425 L 632.763 151.425 Q 634.028 153.3 634.028 156.913 Z  M 627.046 156.913 L 627.046 156.913 L 627.046 156.913 Q 627.046 159.54 627.5 160.677 L 627.5 160.677 L 627.5 160.677 Q 627.954 161.815 629.028 161.815 L 629.028 161.815 L 629.028 161.815 Q 630.083 161.815 630.551 160.663 L 630.551 160.663 L 630.551 160.663 Q 631.02 159.51 631.02 156.913 L 631.02 156.913 L 631.02 156.913 Q 631.02 154.286 630.546 153.138 L 630.546 153.138 L 630.546 153.138 Q 630.073 151.991 629.028 151.991 L 629.028 151.991 L 629.028 151.991 Q 627.963 151.991 627.504 153.138 L 627.504 153.138 L 627.504 153.138 Q 627.046 154.286 627.046 156.913 Z " fill-rule="evenodd" fill="rgb(0,0,0)"/></g><path d=" M 624 57 C 645 28 709 44 716 84" fill="none" vector-effect="non-scaling-stroke" stroke-width="2" stroke="rgb(200,13,0)" stroke-linejoin="miter" stroke-linecap="square" stroke-miterlimit="3"/><path d=" M 621.388 48.7 C 623.731 45.578 628.167 44.946 631.288 47.289 C 634.41 49.631 635.042 54.067 632.699 57.188 C 630.357 60.31 625.921 60.942 622.8 58.6 C 619.678 56.257 619.046 51.821 621.388 48.7 Z " fill="rgb(200,13,0)" stroke="none"/><path d=" M 707.932 79.428 L 717.522 91.999 L 721.825 76.784 L 715.936 83.663 L 707.932 79.428 Z " fill="rgb(200,13,0)" stroke="none"/></g></svg>