<?xml version="1.0" standalone="no"?><!-- Generator: Gravit.io --><svg xmlns="http://www.w3.org/2000/svg" xmlns:xlink="http://www.w3.org/1999/xlink" style="isolation:isolate" viewBox="0 0 800 400" width="800" height="400"><defs><clipPath id="_clipPath_Q3LGYIbRxmPBVGCBJMtAYbKnCJfuwMNw"><rect width="800" height="400"/></clipPath></defs><g clip-path="url(#_clipPath_Q3LGYIbRxmPBVGCBJMtAYbKnCJfuwMNw)"><line x1="101" y1="154.707" x2="652" y2="154.707" vector-effect="non-scaling-stroke" stroke-width="2" stroke="rgb(0,0,0)" stroke-linejoin="miter" stroke-linecap="square" stroke-miterlimit="3"/><line x1="318.594" y1="232.707" x2="511.043" y2="232.707" vector-effect="non-scaling-stroke" stroke-width="2" stroke="rgb(0,0,0)" stroke-linejoin="miter" stroke-linecap="square" stroke-miterlimit="3"/><line x1="258.593" y1="309.293" x2="327.939" y2="309.293" vector-effect="non-scaling-stroke" stroke-width="2" stroke="rgb(0,0,0)" stroke-linejoin="miter" stroke-linecap="square" stroke-miterlimit="3"/><line x1="318.594" y1="232.707" x2="290.622" y2="154.707" vector-effect="non-scaling-stroke" stroke-width="2" stroke="rgb(0,0,0)" stroke-linejoin="miter" stroke-linecap="square" stroke-miterlimit="3"/><line x1="441.821" y1="232.707" x2="471" y2="154.707" vector-effect="non-scaling-stroke" stroke-width="2" stroke="rgb(0,0,0)" stroke-linejoin="miter" stroke-linecap="square" stroke-miterlimit="3"/><line x1="326.354" y1="316.293" x2="383.207" y2="232.707" vector-effect="non-scaling-stroke" stroke-width="2" stroke="rgb(0,0,0)" stroke-linejoin="miter" stroke-linecap="square" stroke-miterlimit="3"/><line x1="471" y1="145.896" x2="501.043" y2="106.5" vector-effect="non-scaling-stroke" stroke-width="2" stroke-dasharray="6" stroke="rgb(0,0,0)" stroke-linejoin="miter" stroke-linecap="square" stroke-miterlimit="3"/><line x1="562.043" y1="145.896" x2="533.043" y2="106.5" vector-effect="non-scaling-stroke" stroke-width="2" stroke-dasharray="6" stroke="rgb(0,0,0)" stroke-linejoin="miter" stroke-linecap="square" stroke-miterlimit="3"/><line x1="164.207" y1="154.707" x2="258.508" y2="309.293" vector-effect="non-scaling-stroke" stroke-width="2" stroke="rgb(0,0,0)" stroke-linejoin="miter" stroke-linecap="square" stroke-miterlimit="3"/><g id="Bmaster"><path d="M 608.883 90.5 L 693.531 90.5 C 697.768 90.5 701.207 93.94 701.207 98.176 L 701.207 119.824 C 701.207 124.06 697.768 127.5 693.531 127.5 L 608.883 127.5 C 604.647 127.5 601.207 124.06 601.207 119.824 L 601.207 98.176 C 601.207 93.94 604.647 90.5 608.883 90.5 Z" style="stroke:none;fill:#9FC4FF;stroke-miterlimit:10;"/><path d="M 608.883 90.5 L 693.531 90.5 C 697.768 90.5 701.207 93.94 701.207 98.176 L 701.207 119.824 C 701.207 124.06 697.768 127.5 693.531 127.5 L 608.883 127.5 C 604.647 127.5 601.207 124.06 601.207 119.824 L 601.207 98.176 C 601.207 93.94 604.647 90.5 608.883 90.5 Z" style="fill:none;stroke:#000000;stroke-width:1.6855342301554246;stroke-linecap:square;stroke-miterlimit:3;"/><path d=" M 626.425 110.78 L 626.425 116.259 L 623.447 116.259 L 623.447 109.882 L 623.447 109.882 Q 623.447 108.7 623.051 108.109 L 623.051 108.109 L 623.051 108.109 Q 622.656 107.519 621.806 107.519 L 621.806 107.519 L 621.806 107.519 Q 620.663 107.519 620.146 108.358 L 620.146 108.358 L 620.146 108.358 Q 619.628 109.198 619.628 111.122 L 619.628 111.122 L 619.628 116.259 L 616.65 116.259 L 616.65 105.341 L 618.925 105.341 L 619.325 106.737 L 619.492 106.737 L 619.492 106.737 Q 619.931 105.985 620.761 105.561 L 620.761 105.561 L 620.761 105.561 Q 621.591 105.136 622.665 105.136 L 622.665 105.136 L 622.665 105.136 Q 625.117 105.136 625.986 106.737 L 625.986 106.737 L 626.249 106.737 L 626.249 106.737 Q 626.689 105.976 627.543 105.556 L 627.543 105.556 L 627.543 105.556 Q 628.398 105.136 629.472 105.136 L 629.472 105.136 L 629.472 105.136 Q 631.327 105.136 632.28 106.088 L 632.28 106.088 L 632.28 106.088 Q 633.232 107.04 633.232 109.14 L 633.232 109.14 L 633.232 116.259 L 630.243 116.259 L 630.243 109.882 L 630.243 109.882 Q 630.243 108.7 629.848 108.109 L 629.848 108.109 L 629.848 108.109 Q 629.452 107.519 628.603 107.519 L 628.603 107.519 L 628.603 107.519 Q 627.509 107.519 626.967 108.3 L 626.967 108.3 L 626.967 108.3 Q 626.425 109.081 626.425 110.78 L 626.425 110.78 Z  M 645.302 116.259 L 643.222 116.259 L 642.646 114.774 L 642.568 114.774 L 642.568 114.774 Q 641.816 115.722 641.02 116.088 L 641.02 116.088 L 641.02 116.088 Q 640.224 116.454 638.945 116.454 L 638.945 116.454 L 638.945 116.454 Q 637.372 116.454 636.469 115.556 L 636.469 115.556 L 636.469 115.556 Q 635.566 114.657 635.566 112.997 L 635.566 112.997 L 635.566 112.997 Q 635.566 111.259 636.782 110.434 L 636.782 110.434 L 636.782 110.434 Q 637.997 109.608 640.449 109.521 L 640.449 109.521 L 642.343 109.462 L 642.343 108.983 L 642.343 108.983 Q 642.343 107.323 640.644 107.323 L 640.644 107.323 L 640.644 107.323 Q 639.335 107.323 637.568 108.114 L 637.568 108.114 L 636.581 106.103 L 636.581 106.103 Q 638.466 105.116 640.761 105.116 L 640.761 105.116 L 640.761 105.116 Q 642.958 105.116 644.13 106.073 L 644.13 106.073 L 644.13 106.073 Q 645.302 107.03 645.302 108.983 L 645.302 108.983 L 645.302 116.259 Z  M 642.343 112.099 L 642.343 111.2 L 641.191 111.239 L 641.191 111.239 Q 639.892 111.278 639.257 111.708 L 639.257 111.708 L 639.257 111.708 Q 638.622 112.138 638.622 113.017 L 638.622 113.017 L 638.622 113.017 Q 638.622 114.276 640.068 114.276 L 640.068 114.276 L 640.068 114.276 Q 641.103 114.276 641.723 113.681 L 641.723 113.681 L 641.723 113.681 Q 642.343 113.085 642.343 112.099 L 642.343 112.099 Z  M 655.986 113.017 L 655.986 113.017 L 655.986 113.017 Q 655.986 114.696 654.819 115.575 L 654.819 115.575 L 654.819 115.575 Q 653.652 116.454 651.327 116.454 L 651.327 116.454 L 651.327 116.454 Q 650.136 116.454 649.296 116.293 L 649.296 116.293 L 649.296 116.293 Q 648.456 116.132 647.724 115.819 L 647.724 115.819 L 647.724 113.358 L 647.724 113.358 Q 648.554 113.749 649.594 114.013 L 649.594 114.013 L 649.594 114.013 Q 650.634 114.276 651.425 114.276 L 651.425 114.276 L 651.425 114.276 Q 653.046 114.276 653.046 113.339 L 653.046 113.339 L 653.046 113.339 Q 653.046 112.987 652.831 112.768 L 652.831 112.768 L 652.831 112.768 Q 652.617 112.548 652.089 112.27 L 652.089 112.27 L 652.089 112.27 Q 651.562 111.991 650.683 111.62 L 650.683 111.62 L 650.683 111.62 Q 649.423 111.093 648.832 110.644 L 648.832 110.644 L 648.832 110.644 Q 648.242 110.194 647.973 109.613 L 647.973 109.613 L 647.973 109.613 Q 647.704 109.032 647.704 108.183 L 647.704 108.183 L 647.704 108.183 Q 647.704 106.728 648.832 105.932 L 648.832 105.932 L 648.832 105.932 Q 649.96 105.136 652.031 105.136 L 652.031 105.136 L 652.031 105.136 Q 654.003 105.136 655.868 105.995 L 655.868 105.995 L 654.97 108.144 L 654.97 108.144 Q 654.15 107.792 653.437 107.567 L 653.437 107.567 L 653.437 107.567 Q 652.724 107.343 651.982 107.343 L 651.982 107.343 L 651.982 107.343 Q 650.663 107.343 650.663 108.056 L 650.663 108.056 L 650.663 108.056 Q 650.663 108.456 651.088 108.749 L 651.088 108.749 L 651.088 108.749 Q 651.513 109.042 652.949 109.618 L 652.949 109.618 L 652.949 109.618 Q 654.228 110.136 654.824 110.585 L 654.824 110.585 L 654.824 110.585 Q 655.419 111.034 655.702 111.62 L 655.702 111.62 L 655.702 111.62 Q 655.986 112.206 655.986 113.017 Z  M 662.909 114.081 L 662.909 114.081 L 662.909 114.081 Q 663.691 114.081 664.784 113.739 L 664.784 113.739 L 664.784 115.956 L 664.784 115.956 Q 663.671 116.454 662.05 116.454 L 662.05 116.454 L 662.05 116.454 Q 660.263 116.454 659.448 115.551 L 659.448 115.551 L 659.448 115.551 Q 658.632 114.647 658.632 112.841 L 658.632 112.841 L 658.632 107.577 L 657.206 107.577 L 657.206 106.317 L 658.847 105.321 L 659.706 103.017 L 661.611 103.017 L 661.611 105.341 L 664.667 105.341 L 664.667 107.577 L 661.611 107.577 L 661.611 112.841 L 661.611 112.841 Q 661.611 113.476 661.967 113.778 L 661.967 113.778 L 661.967 113.778 Q 662.324 114.081 662.909 114.081 Z  M 671.513 107.255 L 671.513 107.255 L 671.513 107.255 Q 670.566 107.255 670.029 107.855 L 670.029 107.855 L 670.029 107.855 Q 669.492 108.456 669.413 109.56 L 669.413 109.56 L 673.593 109.56 L 673.593 109.56 Q 673.574 108.456 673.017 107.855 L 673.017 107.855 L 673.017 107.855 Q 672.46 107.255 671.513 107.255 Z  M 671.933 116.454 L 671.933 116.454 L 671.933 116.454 Q 669.296 116.454 667.812 114.999 L 667.812 114.999 L 667.812 114.999 Q 666.327 113.544 666.327 110.878 L 666.327 110.878 L 666.327 110.878 Q 666.327 108.134 667.7 106.635 L 667.7 106.635 L 667.7 106.635 Q 669.072 105.136 671.493 105.136 L 671.493 105.136 L 671.493 105.136 Q 673.808 105.136 675.097 106.454 L 675.097 106.454 L 675.097 106.454 Q 676.386 107.772 676.386 110.097 L 676.386 110.097 L 676.386 111.542 L 669.345 111.542 L 669.345 111.542 Q 669.394 112.812 670.097 113.524 L 670.097 113.524 L 670.097 113.524 Q 670.8 114.237 672.07 114.237 L 672.07 114.237 L 672.07 114.237 Q 673.056 114.237 673.935 114.032 L 673.935 114.032 L 673.935 114.032 Q 674.814 113.827 675.771 113.378 L 675.771 113.378 L 675.771 115.683 L 675.771 115.683 Q 674.99 116.073 674.101 116.264 L 674.101 116.264 L 674.101 116.264 Q 673.212 116.454 671.933 116.454 Z  M 684.902 105.136 L 684.902 105.136 L 684.902 105.136 Q 685.507 105.136 685.908 105.224 L 685.908 105.224 L 685.683 108.017 L 685.683 108.017 Q 685.322 107.919 684.804 107.919 L 684.804 107.919 L 684.804 107.919 Q 683.378 107.919 682.582 108.651 L 682.582 108.651 L 682.582 108.651 Q 681.786 109.384 681.786 110.702 L 681.786 110.702 L 681.786 116.259 L 678.808 116.259 L 678.808 105.341 L 681.064 105.341 L 681.503 107.177 L 681.65 107.177 L 681.65 107.177 Q 682.158 106.259 683.022 105.697 L 683.022 105.697 L 683.022 105.697 Q 683.886 105.136 684.902 105.136 Z " fill-rule="evenodd" fill="rgb(0,0,0)"/></g><g id="Btest"><path d="M 285.416 336.5 L 370.064 336.5 C 374.3 336.5 377.74 339.94 377.74 344.176 L 377.74 365.824 C 377.74 370.06 374.3 373.5 370.064 373.5 L 285.416 373.5 C 281.179 373.5 277.74 370.06 277.74 365.824 L 277.74 344.176 C 277.74 339.94 281.179 336.5 285.416 336.5 Z" style="stroke:none;fill:#D3F0C1;stroke-linecap:square;stroke-miterlimit:3;"/><path d="M 285.416 336.5 L 370.064 336.5 C 374.3 336.5 377.74 339.94 377.74 344.176 L 377.74 365.824 C 377.74 370.06 374.3 373.5 370.064 373.5 L 285.416 373.5 C 281.179 373.5 277.74 370.06 277.74 365.824 L 277.74 344.176 C 277.74 339.94 281.179 336.5 285.416 336.5 Z" style="fill:none;stroke:#000000;stroke-width:1.6855342301554246;stroke-linecap:square;stroke-miterlimit:3;"/><path d=" M 302.363 360.581 L 302.363 360.581 L 302.363 360.581 Q 303.144 360.581 304.238 360.239 L 304.238 360.239 L 304.238 362.456 L 304.238 362.456 Q 303.125 362.954 301.504 362.954 L 301.504 362.954 L 301.504 362.954 Q 299.716 362.954 298.901 362.051 L 298.901 362.051 L 298.901 362.051 Q 298.086 361.147 298.086 359.341 L 298.086 359.341 L 298.086 354.077 L 296.66 354.077 L 296.66 352.817 L 298.3 351.821 L 299.16 349.517 L 301.064 349.517 L 301.064 351.841 L 304.121 351.841 L 304.121 354.077 L 301.064 354.077 L 301.064 359.341 L 301.064 359.341 Q 301.064 359.976 301.421 360.278 L 301.421 360.278 L 301.421 360.278 Q 301.777 360.581 302.363 360.581 Z  M 316.22 357.28 L 316.22 362.759 L 313.242 362.759 L 313.242 356.382 L 313.242 356.382 Q 313.242 355.2 312.846 354.609 L 312.846 354.609 L 312.846 354.609 Q 312.451 354.019 311.601 354.019 L 311.601 354.019 L 311.601 354.019 Q 310.459 354.019 309.941 354.858 L 309.941 354.858 L 309.941 354.858 Q 309.423 355.698 309.423 357.622 L 309.423 357.622 L 309.423 362.759 L 306.445 362.759 L 306.445 351.841 L 308.72 351.841 L 309.121 353.237 L 309.287 353.237 L 309.287 353.237 Q 309.726 352.485 310.556 352.061 L 310.556 352.061 L 310.556 352.061 Q 311.386 351.636 312.461 351.636 L 312.461 351.636 L 312.461 351.636 Q 314.912 351.636 315.781 353.237 L 315.781 353.237 L 316.045 353.237 L 316.045 353.237 Q 316.484 352.476 317.338 352.056 L 317.338 352.056 L 317.338 352.056 Q 318.193 351.636 319.267 351.636 L 319.267 351.636 L 319.267 351.636 Q 321.123 351.636 322.075 352.588 L 322.075 352.588 L 322.075 352.588 Q 323.027 353.54 323.027 355.64 L 323.027 355.64 L 323.027 362.759 L 320.039 362.759 L 320.039 356.382 L 320.039 356.382 Q 320.039 355.2 319.643 354.609 L 319.643 354.609 L 319.643 354.609 Q 319.248 354.019 318.398 354.019 L 318.398 354.019 L 318.398 354.019 Q 317.304 354.019 316.762 354.8 L 316.762 354.8 L 316.762 354.8 Q 316.22 355.581 316.22 357.28 L 316.22 357.28 Z  M 335.097 362.759 L 333.017 362.759 L 332.441 361.274 L 332.363 361.274 L 332.363 361.274 Q 331.611 362.222 330.815 362.588 L 330.815 362.588 L 330.815 362.588 Q 330.019 362.954 328.74 362.954 L 328.74 362.954 L 328.74 362.954 Q 327.168 362.954 326.264 362.056 L 326.264 362.056 L 326.264 362.056 Q 325.361 361.157 325.361 359.497 L 325.361 359.497 L 325.361 359.497 Q 325.361 357.759 326.577 356.934 L 326.577 356.934 L 326.577 356.934 Q 327.793 356.108 330.244 356.021 L 330.244 356.021 L 332.138 355.962 L 332.138 355.483 L 332.138 355.483 Q 332.138 353.823 330.439 353.823 L 330.439 353.823 L 330.439 353.823 Q 329.13 353.823 327.363 354.614 L 327.363 354.614 L 326.377 352.603 L 326.377 352.603 Q 328.261 351.616 330.556 351.616 L 330.556 351.616 L 330.556 351.616 Q 332.754 351.616 333.925 352.573 L 333.925 352.573 L 333.925 352.573 Q 335.097 353.53 335.097 355.483 L 335.097 355.483 L 335.097 362.759 Z  M 332.138 358.599 L 332.138 357.7 L 330.986 357.739 L 330.986 357.739 Q 329.687 357.778 329.052 358.208 L 329.052 358.208 L 329.052 358.208 Q 328.418 358.638 328.418 359.517 L 328.418 359.517 L 328.418 359.517 Q 328.418 360.776 329.863 360.776 L 329.863 360.776 L 329.863 360.776 Q 330.898 360.776 331.518 360.181 L 331.518 360.181 L 331.518 360.181 Q 332.138 359.585 332.138 358.599 L 332.138 358.599 Z  M 342.06 348.481 L 344.765 348.481 L 339.443 362.759 L 336.738 362.759 L 342.06 348.481 Z  M 353.125 348.481 L 353.125 362.759 L 350.107 362.759 L 350.107 354.497 L 350.136 353.14 L 350.185 351.655 L 350.185 351.655 Q 349.433 352.407 349.14 352.642 L 349.14 352.642 L 347.5 353.96 L 346.045 352.144 L 350.644 348.481 L 353.125 348.481 Z " fill-rule="evenodd" fill="rgb(0,0,0)"/></g><g id="Bfeat1"><path d="M 467.186 262.5 L 551.834 262.5 C 556.071 262.5 559.51 265.94 559.51 270.176 L 559.51 291.824 C 559.51 296.06 556.071 299.5 551.834 299.5 L 467.186 299.5 C 462.95 299.5 459.51 296.06 459.51 291.824 L 459.51 270.176 C 459.51 265.94 462.95 262.5 467.186 262.5 Z" style="stroke:none;fill:#D1D1D1;stroke-linecap:square;stroke-miterlimit:3;"/><path d="M 467.186 262.5 L 551.834 262.5 C 556.071 262.5 559.51 265.94 559.51 270.176 L 559.51 291.824 C 559.51 296.06 556.071 299.5 551.834 299.5 L 467.186 299.5 C 462.95 299.5 459.51 296.06 459.51 291.824 L 459.51 270.176 C 459.51 265.94 462.95 262.5 467.186 262.5 Z" style="fill:none;stroke:#000000;stroke-width:1.6855342301554246;stroke-linecap:square;stroke-miterlimit:3;"/><path d=" M 483.633 286.581 L 483.633 286.581 L 483.633 286.581 Q 484.414 286.581 485.508 286.239 L 485.508 286.239 L 485.508 288.456 L 485.508 288.456 Q 484.395 288.954 482.774 288.954 L 482.774 288.954 L 482.774 288.954 Q 480.987 288.954 480.171 288.051 L 480.171 288.051 L 480.171 288.051 Q 479.356 287.147 479.356 285.341 L 479.356 285.341 L 479.356 280.077 L 477.93 280.077 L 477.93 278.817 L 479.571 277.821 L 480.43 275.517 L 482.334 275.517 L 482.334 277.841 L 485.391 277.841 L 485.391 280.077 L 482.334 280.077 L 482.334 285.341 L 482.334 285.341 Q 482.334 285.976 482.691 286.278 L 482.691 286.278 L 482.691 286.278 Q 483.047 286.581 483.633 286.581 Z  M 497.491 283.28 L 497.491 288.759 L 494.512 288.759 L 494.512 282.382 L 494.512 282.382 Q 494.512 281.2 494.117 280.609 L 494.117 280.609 L 494.117 280.609 Q 493.721 280.019 492.871 280.019 L 492.871 280.019 L 492.871 280.019 Q 491.729 280.019 491.211 280.858 L 491.211 280.858 L 491.211 280.858 Q 490.694 281.698 490.694 283.622 L 490.694 283.622 L 490.694 288.759 L 487.715 288.759 L 487.715 277.841 L 489.991 277.841 L 490.391 279.237 L 490.557 279.237 L 490.557 279.237 Q 490.996 278.485 491.827 278.061 L 491.827 278.061 L 491.827 278.061 Q 492.657 277.636 493.731 277.636 L 493.731 277.636 L 493.731 277.636 Q 496.182 277.636 497.051 279.237 L 497.051 279.237 L 497.315 279.237 L 497.315 279.237 Q 497.754 278.476 498.609 278.056 L 498.609 278.056 L 498.609 278.056 Q 499.463 277.636 500.537 277.636 L 500.537 277.636 L 500.537 277.636 Q 502.393 277.636 503.345 278.588 L 503.345 278.588 L 503.345 278.588 Q 504.297 279.54 504.297 281.64 L 504.297 281.64 L 504.297 288.759 L 501.309 288.759 L 501.309 282.382 L 501.309 282.382 Q 501.309 281.2 500.913 280.609 L 500.913 280.609 L 500.913 280.609 Q 500.518 280.019 499.668 280.019 L 499.668 280.019 L 499.668 280.019 Q 498.575 280.019 498.033 280.8 L 498.033 280.8 L 498.033 280.8 Q 497.491 281.581 497.491 283.28 L 497.491 283.28 Z  M 516.368 288.759 L 514.287 288.759 L 513.711 287.274 L 513.633 287.274 L 513.633 287.274 Q 512.881 288.222 512.085 288.588 L 512.085 288.588 L 512.085 288.588 Q 511.289 288.954 510.01 288.954 L 510.01 288.954 L 510.01 288.954 Q 508.438 288.954 507.535 288.056 L 507.535 288.056 L 507.535 288.056 Q 506.631 287.157 506.631 285.497 L 506.631 285.497 L 506.631 285.497 Q 506.631 283.759 507.847 282.934 L 507.847 282.934 L 507.847 282.934 Q 509.063 282.108 511.514 282.021 L 511.514 282.021 L 513.409 281.962 L 513.409 281.483 L 513.409 281.483 Q 513.409 279.823 511.709 279.823 L 511.709 279.823 L 511.709 279.823 Q 510.401 279.823 508.633 280.614 L 508.633 280.614 L 507.647 278.603 L 507.647 278.603 Q 509.532 277.616 511.827 277.616 L 511.827 277.616 L 511.827 277.616 Q 514.024 277.616 515.196 278.573 L 515.196 278.573 L 515.196 278.573 Q 516.368 279.53 516.368 281.483 L 516.368 281.483 L 516.368 288.759 Z  M 513.409 284.599 L 513.409 283.7 L 512.256 283.739 L 512.256 283.739 Q 510.957 283.778 510.323 284.208 L 510.323 284.208 L 510.323 284.208 Q 509.688 284.638 509.688 285.517 L 509.688 285.517 L 509.688 285.517 Q 509.688 286.776 511.133 286.776 L 511.133 286.776 L 511.133 286.776 Q 512.168 286.776 512.788 286.181 L 512.788 286.181 L 512.788 286.181 Q 513.409 285.585 513.409 284.599 L 513.409 284.599 Z  M 523.33 274.481 L 526.036 274.481 L 520.713 288.759 L 518.008 288.759 L 523.33 274.481 Z  M 536.914 286.22 L 536.914 288.759 L 526.934 288.759 L 526.934 286.659 L 530.518 283.036 L 530.518 283.036 Q 532.11 281.405 532.598 280.775 L 532.598 280.775 L 532.598 280.775 Q 533.086 280.146 533.301 279.608 L 533.301 279.608 L 533.301 279.608 Q 533.516 279.071 533.516 278.495 L 533.516 278.495 L 533.516 278.495 Q 533.516 277.636 533.042 277.216 L 533.042 277.216 L 533.042 277.216 Q 532.569 276.796 531.778 276.796 L 531.778 276.796 L 531.778 276.796 Q 530.948 276.796 530.166 277.177 L 530.166 277.177 L 530.166 277.177 Q 529.385 277.558 528.536 278.261 L 528.536 278.261 L 526.895 276.317 L 526.895 276.317 Q 527.95 275.419 528.643 275.048 L 528.643 275.048 L 528.643 275.048 Q 529.336 274.677 530.157 274.477 L 530.157 274.477 L 530.157 274.477 Q 530.977 274.276 531.993 274.276 L 531.993 274.276 L 531.993 274.276 Q 533.33 274.276 534.356 274.765 L 534.356 274.765 L 534.356 274.765 Q 535.381 275.253 535.948 276.132 L 535.948 276.132 L 535.948 276.132 Q 536.514 277.011 536.514 278.144 L 536.514 278.144 L 536.514 278.144 Q 536.514 279.13 536.167 279.994 L 536.167 279.994 L 536.167 279.994 Q 535.821 280.858 535.093 281.767 L 535.093 281.767 L 535.093 281.767 Q 534.366 282.675 532.53 284.354 L 532.53 284.354 L 530.694 286.083 L 530.694 286.22 L 536.914 286.22 Z " fill-rule="evenodd" fill="rgb(0,0,0)"/></g><g id="Bhead"><path d="M 480.149 26.5 L 552.371 26.5 C 556.311 26.5 559.51 29.699 559.51 33.639 L 559.51 56.361 C 559.51 60.301 556.311 63.5 552.371 63.5 L 480.149 63.5 C 476.209 63.5 473.01 60.301 473.01 56.361 L 473.01 33.639 C 473.01 29.699 476.209 26.5 480.149 26.5 Z" style="stroke:none;fill:#FFF3A5;stroke-linecap:square;stroke-miterlimit:3;opacity:0.65;"/><path d="M 480.149 26.5 L 552.371 26.5 C 556.311 26.5 559.51 29.699 559.51 33.639 L 559.51 56.361 C 559.51 60.301 556.311 63.5 552.371 63.5 L 480.149 63.5 C 476.209 63.5 473.01 60.301 473.01 56.361 L 473.01 33.639 C 473.01 29.699 476.209 26.5 480.149 26.5 Z" style="fill:none;stroke:#000000;stroke-width:1.6855342301554246;stroke-linecap:square;stroke-dasharray:6;stroke-miterlimit:3;"/><path d=" M 495.989 42.568 L 495.989 44.804 L 493.411 44.804 L 493.411 53.486 L 490.432 53.486 L 490.432 44.804 L 488.791 44.804 L 488.791 43.369 L 490.432 42.568 L 490.432 41.767 L 490.432 41.767 Q 490.432 39.902 491.35 39.043 L 491.35 39.043 L 491.35 39.043 Q 492.268 38.183 494.289 38.183 L 494.289 38.183 L 494.289 38.183 Q 495.832 38.183 497.034 38.642 L 497.034 38.642 L 496.272 40.83 L 496.272 40.83 Q 495.373 40.546 494.612 40.546 L 494.612 40.546 L 494.612 40.546 Q 493.977 40.546 493.694 40.922 L 493.694 40.922 L 493.694 40.922 Q 493.411 41.298 493.411 41.884 L 493.411 41.884 L 493.411 42.568 L 495.989 42.568 Z  M 502.219 44.482 L 502.219 44.482 L 502.219 44.482 Q 501.272 44.482 500.735 45.083 L 500.735 45.083 L 500.735 45.083 Q 500.198 45.683 500.12 46.787 L 500.12 46.787 L 504.299 46.787 L 504.299 46.787 Q 504.28 45.683 503.723 45.083 L 503.723 45.083 L 503.723 45.083 Q 503.166 44.482 502.219 44.482 Z  M 502.639 53.681 L 502.639 53.681 L 502.639 53.681 Q 500.002 53.681 498.518 52.226 L 498.518 52.226 L 498.518 52.226 Q 497.034 50.771 497.034 48.105 L 497.034 48.105 L 497.034 48.105 Q 497.034 45.361 498.406 43.862 L 498.406 43.862 L 498.406 43.862 Q 499.778 42.363 502.2 42.363 L 502.2 42.363 L 502.2 42.363 Q 504.514 42.363 505.803 43.681 L 505.803 43.681 L 505.803 43.681 Q 507.092 45 507.092 47.324 L 507.092 47.324 L 507.092 48.769 L 500.051 48.769 L 500.051 48.769 Q 500.1 50.039 500.803 50.752 L 500.803 50.752 L 500.803 50.752 Q 501.506 51.464 502.776 51.464 L 502.776 51.464 L 502.776 51.464 Q 503.762 51.464 504.641 51.259 L 504.641 51.259 L 504.641 51.259 Q 505.52 51.054 506.477 50.605 L 506.477 50.605 L 506.477 52.91 L 506.477 52.91 Q 505.696 53.3 504.807 53.491 L 504.807 53.491 L 504.807 53.491 Q 503.918 53.681 502.639 53.681 Z  M 518.528 53.486 L 516.448 53.486 L 515.871 52.002 L 515.793 52.002 L 515.793 52.002 Q 515.041 52.949 514.246 53.315 L 514.246 53.315 L 514.246 53.315 Q 513.45 53.681 512.17 53.681 L 512.17 53.681 L 512.17 53.681 Q 510.598 53.681 509.695 52.783 L 509.695 52.783 L 509.695 52.783 Q 508.791 51.884 508.791 50.224 L 508.791 50.224 L 508.791 50.224 Q 508.791 48.486 510.007 47.661 L 510.007 47.661 L 510.007 47.661 Q 511.223 46.836 513.674 46.748 L 513.674 46.748 L 515.569 46.689 L 515.569 46.211 L 515.569 46.211 Q 515.569 44.55 513.87 44.55 L 513.87 44.55 L 513.87 44.55 Q 512.561 44.55 510.793 45.341 L 510.793 45.341 L 509.807 43.33 L 509.807 43.33 Q 511.692 42.343 513.987 42.343 L 513.987 42.343 L 513.987 42.343 Q 516.184 42.343 517.356 43.3 L 517.356 43.3 L 517.356 43.3 Q 518.528 44.257 518.528 46.211 L 518.528 46.211 L 518.528 53.486 Z  M 515.569 49.326 L 515.569 48.427 L 514.416 48.466 L 514.416 48.466 Q 513.118 48.505 512.483 48.935 L 512.483 48.935 L 512.483 48.935 Q 511.848 49.365 511.848 50.244 L 511.848 50.244 L 511.848 50.244 Q 511.848 51.504 513.293 51.504 L 513.293 51.504 L 513.293 51.504 Q 514.329 51.504 514.949 50.908 L 514.949 50.908 L 514.949 50.908 Q 515.569 50.312 515.569 49.326 L 515.569 49.326 Z  M 526.194 51.308 L 526.194 51.308 L 526.194 51.308 Q 526.975 51.308 528.069 50.966 L 528.069 50.966 L 528.069 53.183 L 528.069 53.183 Q 526.955 53.681 525.334 53.681 L 525.334 53.681 L 525.334 53.681 Q 523.547 53.681 522.732 52.778 L 522.732 52.778 L 522.732 52.778 Q 521.916 51.875 521.916 50.068 L 521.916 50.068 L 521.916 44.804 L 520.491 44.804 L 520.491 43.545 L 522.131 42.548 L 522.991 40.244 L 524.895 40.244 L 524.895 42.568 L 527.952 42.568 L 527.952 44.804 L 524.895 44.804 L 524.895 50.068 L 524.895 50.068 Q 524.895 50.703 525.251 51.005 L 525.251 51.005 L 525.251 51.005 Q 525.608 51.308 526.194 51.308 Z  M 536.975 39.209 L 536.975 53.486 L 533.957 53.486 L 533.957 45.224 L 533.987 43.867 L 534.036 42.382 L 534.036 42.382 Q 533.284 43.134 532.991 43.369 L 532.991 43.369 L 531.35 44.687 L 529.895 42.871 L 534.495 39.209 L 536.975 39.209 Z " fill-rule="evenodd" fill="rgb(0,0,0)"/></g><g id="c1"><path d=" M 78.793 154.707 C 78.793 142.451 88.743 132.5 101 132.5 C 113.257 132.5 123.207 142.451 123.207 154.707 C 123.207 166.964 113.257 176.915 101 176.915 C 88.743 176.915 78.793 166.964 78.793 154.707 Z " fill="rgb(195,215,247)" vector-effect="non-scaling-stroke" stroke-width="2" stroke="rgb(0,0,0)" stroke-linejoin="miter" stroke-linecap="square" stroke-miterlimit="3"/><path d=" M 102.432 146.967 L 102.432 164.03 L 99.139 164.03 L 99.139 150.94 L 94.826 152.487 L 94.826 149.651 L 102.256 146.967 L 102.432 146.967 Z " fill="rgb(0,0,0)"/></g><g id="c2"><path d=" M 142 154.707 C 142 142.451 151.951 132.5 164.207 132.5 C 176.464 132.5 186.415 142.451 186.415 154.707 C 186.415 166.964 176.464 176.915 164.207 176.915 C 151.951 176.915 142 166.964 142 154.707 Z " fill="rgb(195,215,247)" vector-effect="non-scaling-stroke" stroke-width="2" stroke="rgb(0,0,0)" stroke-linejoin="miter" stroke-linecap="square" stroke-miterlimit="3"/><path d=" M 168.815 161.416 L 168.815 164.03 L 157.178 164.03 L 157.178 161.803 L 162.698 155.873 L 162.698 155.873 Q 163.342 155.17 163.787 154.596 L 163.787 154.596 L 163.787 154.596 Q 164.233 154.022 164.508 153.547 L 164.508 153.547 L 164.508 153.547 Q 164.783 153.073 164.907 152.662 L 164.907 152.662 L 164.907 152.662 Q 165.03 152.252 165.03 151.866 L 165.03 151.866 L 165.03 151.866 Q 165.03 151.291 164.866 150.846 L 164.866 150.846 L 164.866 150.846 Q 164.701 150.401 164.403 150.09 L 164.403 150.09 L 164.403 150.09 Q 164.104 149.78 163.688 149.616 L 163.688 149.616 L 163.688 149.616 Q 163.272 149.451 162.768 149.451 L 162.768 149.451 L 162.768 149.451 Q 161.42 149.451 160.758 150.201 L 160.758 150.201 L 160.758 150.201 Q 160.096 150.951 160.096 152.299 L 160.096 152.299 L 156.826 152.299 L 156.826 152.299 Q 156.826 151.162 157.26 150.149 L 157.26 150.149 L 157.26 150.149 Q 157.694 149.135 158.485 148.373 L 158.485 148.373 L 158.485 148.373 Q 159.276 147.612 160.395 147.172 L 160.395 147.172 L 160.395 147.172 Q 161.514 146.733 162.873 146.733 L 162.873 146.733 L 162.873 146.733 Q 164.174 146.733 165.176 147.096 L 165.176 147.096 L 165.176 147.096 Q 166.178 147.459 166.852 148.116 L 166.852 148.116 L 166.852 148.116 Q 167.526 148.772 167.877 149.692 L 167.877 149.692 L 167.877 149.692 Q 168.229 150.612 168.229 151.725 L 168.229 151.725 L 168.229 151.725 Q 168.229 152.569 167.965 153.336 L 167.965 153.336 L 167.965 153.336 Q 167.701 154.104 167.215 154.854 L 167.215 154.854 L 167.215 154.854 Q 166.729 155.604 166.049 156.383 L 166.049 156.383 L 166.049 156.383 Q 165.369 157.162 164.537 158.018 L 164.537 158.018 L 161.326 161.416 L 168.815 161.416 Z " fill="rgb(0,0,0)"/></g><g id="C3"><path d=" M 205.207 154.707 C 205.207 142.451 215.158 132.5 227.415 132.5 C 239.671 132.5 249.622 142.451 249.622 154.707 C 249.622 166.964 239.671 176.915 227.415 176.915 C 215.158 176.915 205.207 166.964 205.207 154.707 Z " fill="rgb(195,215,247)" vector-effect="non-scaling-stroke" stroke-width="2" stroke="rgb(0,0,0)" stroke-linejoin="miter" stroke-linecap="square" stroke-miterlimit="3"/><path d=" M 224.147 156.6 L 224.147 154.069 L 225.917 154.069 L 225.917 154.069 Q 227.253 154.069 227.897 153.395 L 227.897 153.395 L 227.897 153.395 Q 228.542 152.721 228.542 151.631 L 228.542 151.631 L 228.542 151.631 Q 228.542 151.127 228.395 150.711 L 228.395 150.711 L 228.395 150.711 Q 228.249 150.295 227.956 149.996 L 227.956 149.996 L 227.956 149.996 Q 227.663 149.698 227.212 149.533 L 227.212 149.533 L 227.212 149.533 Q 226.76 149.369 226.163 149.369 L 226.163 149.369 L 226.163 149.369 Q 225.671 149.369 225.243 149.51 L 225.243 149.51 L 225.243 149.51 Q 224.815 149.651 224.493 149.914 L 224.493 149.914 L 224.493 149.914 Q 224.171 150.178 223.983 150.553 L 223.983 150.553 L 223.983 150.553 Q 223.796 150.928 223.796 151.397 L 223.796 151.397 L 220.538 151.397 L 220.538 151.397 Q 220.538 150.354 220.965 149.498 L 220.965 149.498 L 220.965 149.498 Q 221.393 148.643 222.143 148.028 L 222.143 148.028 L 222.143 148.028 Q 222.893 147.412 223.907 147.073 L 223.907 147.073 L 223.907 147.073 Q 224.921 146.733 226.092 146.733 L 226.092 146.733 L 226.092 146.733 Q 227.358 146.733 228.413 147.043 L 228.413 147.043 L 228.413 147.043 Q 229.467 147.354 230.217 147.969 L 230.217 147.969 L 230.217 147.969 Q 230.967 148.584 231.383 149.492 L 231.383 149.492 L 231.383 149.492 Q 231.799 150.401 231.799 151.596 L 231.799 151.596 L 231.799 151.596 Q 231.799 152.147 231.635 152.68 L 231.635 152.68 L 231.635 152.68 Q 231.471 153.213 231.155 153.694 L 231.155 153.694 L 231.155 153.694 Q 230.838 154.174 230.37 154.578 L 230.37 154.578 L 230.37 154.578 Q 229.901 154.983 229.292 155.276 L 229.292 155.276 L 229.292 155.276 Q 230.006 155.533 230.528 155.932 L 230.528 155.932 L 230.528 155.932 Q 231.049 156.33 231.389 156.84 L 231.389 156.84 L 231.389 156.84 Q 231.729 157.35 231.893 157.959 L 231.893 157.959 L 231.893 157.959 Q 232.057 158.569 232.057 159.248 L 232.057 159.248 L 232.057 159.248 Q 232.057 160.444 231.6 161.381 L 231.6 161.381 L 231.6 161.381 Q 231.143 162.319 230.346 162.957 L 230.346 162.957 L 230.346 162.957 Q 229.549 163.596 228.454 163.93 L 228.454 163.93 L 228.454 163.93 Q 227.358 164.264 226.092 164.264 L 226.092 164.264 L 226.092 164.264 Q 225.003 164.264 223.965 163.965 L 223.965 163.965 L 223.965 163.965 Q 222.928 163.666 222.12 163.063 L 222.12 163.063 L 222.12 163.063 Q 221.311 162.459 220.825 161.545 L 220.825 161.545 L 220.825 161.545 Q 220.338 160.631 220.338 159.389 L 220.338 159.389 L 223.596 159.389 L 223.596 159.389 Q 223.596 159.881 223.784 160.297 L 223.784 160.297 L 223.784 160.297 Q 223.971 160.713 224.317 161.012 L 224.317 161.012 L 224.317 161.012 Q 224.663 161.311 225.131 161.481 L 225.131 161.481 L 225.131 161.481 Q 225.6 161.651 226.163 161.651 L 226.163 161.651 L 226.163 161.651 Q 227.405 161.651 228.108 160.994 L 228.108 160.994 L 228.108 160.994 Q 228.811 160.338 228.811 159.213 L 228.811 159.213 L 228.811 159.213 Q 228.811 158.522 228.612 158.03 L 228.612 158.03 L 228.612 158.03 Q 228.413 157.537 228.032 157.221 L 228.032 157.221 L 228.032 157.221 Q 227.651 156.905 227.118 156.752 L 227.118 156.752 L 227.118 156.752 Q 226.585 156.6 225.917 156.6 L 225.917 156.6 L 224.147 156.6 Z " fill="rgb(0,0,0)"/></g><g id="C4"><path d=" M 268.415 154.707 C 268.415 142.451 278.365 132.5 290.622 132.5 C 302.879 132.5 312.829 142.451 312.829 154.707 C 312.829 166.964 302.879 176.915 290.622 176.915 C 278.365 176.915 268.415 166.964 268.415 154.707 Z " fill="rgb(195,215,247)" vector-effect="non-scaling-stroke" stroke-width="2" stroke="rgb(0,0,0)" stroke-linejoin="miter" stroke-linecap="square" stroke-miterlimit="3"/><path d=" M 286.839 156.272 L 284.237 155.627 L 285.21 146.967 L 294.679 146.967 L 294.679 149.733 L 287.893 149.733 L 287.483 153.483 L 287.483 153.483 Q 287.847 153.272 288.515 153.049 L 288.515 153.049 L 288.515 153.049 Q 289.183 152.826 290.05 152.826 L 290.05 152.826 L 290.05 152.826 Q 291.28 152.826 292.247 153.219 L 292.247 153.219 L 292.247 153.219 Q 293.214 153.612 293.876 154.35 L 293.876 154.35 L 293.876 154.35 Q 294.538 155.088 294.89 156.155 L 294.89 156.155 L 294.89 156.155 Q 295.241 157.221 295.241 158.569 L 295.241 158.569 L 295.241 158.569 Q 295.241 159.717 294.901 160.748 L 294.901 160.748 L 294.901 160.748 Q 294.561 161.78 293.858 162.565 L 293.858 162.565 L 293.858 162.565 Q 293.155 163.35 292.089 163.807 L 292.089 163.807 L 292.089 163.807 Q 291.022 164.264 289.569 164.264 L 289.569 164.264 L 289.569 164.264 Q 288.468 164.264 287.442 163.936 L 287.442 163.936 L 287.442 163.936 Q 286.417 163.608 285.62 162.975 L 285.62 162.975 L 285.62 162.975 Q 284.823 162.342 284.325 161.422 L 284.325 161.422 L 284.325 161.422 Q 283.827 160.502 283.792 159.319 L 283.792 159.319 L 287.003 159.319 L 287.003 159.319 Q 287.12 160.432 287.806 161.041 L 287.806 161.041 L 287.806 161.041 Q 288.491 161.651 289.558 161.651 L 289.558 161.651 L 289.558 161.651 Q 290.214 161.651 290.677 161.405 L 290.677 161.405 L 290.677 161.405 Q 291.14 161.158 291.427 160.725 L 291.427 160.725 L 291.427 160.725 Q 291.714 160.291 291.849 159.694 L 291.849 159.694 L 291.849 159.694 Q 291.983 159.096 291.983 158.405 L 291.983 158.405 L 291.983 158.405 Q 291.983 157.725 291.813 157.157 L 291.813 157.157 L 291.813 157.157 Q 291.643 156.588 291.292 156.178 L 291.292 156.178 L 291.292 156.178 Q 290.94 155.768 290.413 155.545 L 290.413 155.545 L 290.413 155.545 Q 289.886 155.323 289.171 155.323 L 289.171 155.323 L 289.171 155.323 Q 288.69 155.323 288.339 155.405 L 288.339 155.405 L 288.339 155.405 Q 287.987 155.487 287.718 155.616 L 287.718 155.616 L 287.718 155.616 Q 287.448 155.744 287.237 155.914 L 287.237 155.914 L 287.237 155.914 Q 287.026 156.084 286.839 156.272 L 286.839 156.272 Z " fill="rgb(0,0,0)"/></g><g id="C5"><path d=" M 296.386 232.707 C 296.386 220.451 306.337 210.5 318.594 210.5 C 330.85 210.5 340.801 220.451 340.801 232.707 C 340.801 244.964 330.85 254.915 318.594 254.915 C 306.337 254.915 296.386 244.964 296.386 232.707 Z " fill="rgb(209,209,209)" vector-effect="non-scaling-stroke" stroke-width="2" stroke="rgb(0,0,0)" stroke-linejoin="miter" stroke-linecap="square" stroke-miterlimit="3"/><path d=" M 320.26 224.826 L 320.693 224.826 L 320.693 227.533 L 320.506 227.533 L 320.506 227.533 Q 319.217 227.533 318.226 227.873 L 318.226 227.873 L 318.226 227.873 Q 317.236 228.213 316.539 228.834 L 316.539 228.834 L 316.539 228.834 Q 315.842 229.455 315.437 230.323 L 315.437 230.323 L 315.437 230.323 Q 315.033 231.19 314.927 232.256 L 314.927 232.256 L 314.927 232.256 Q 315.197 231.963 315.549 231.676 L 315.549 231.676 L 315.549 231.676 Q 315.9 231.389 316.34 231.16 L 316.34 231.16 L 316.34 231.16 Q 316.779 230.932 317.295 230.791 L 317.295 230.791 L 317.295 230.791 Q 317.81 230.651 318.408 230.651 L 318.408 230.651 L 318.408 230.651 Q 319.627 230.651 320.535 231.114 L 320.535 231.114 L 320.535 231.114 Q 321.443 231.576 322.052 232.367 L 322.052 232.367 L 322.052 232.367 Q 322.662 233.158 322.961 234.207 L 322.961 234.207 L 322.961 234.207 Q 323.26 235.256 323.26 236.416 L 323.26 236.416 L 323.26 236.416 Q 323.26 237.658 322.861 238.725 L 322.861 238.725 L 322.861 238.725 Q 322.463 239.791 321.724 240.576 L 321.724 240.576 L 321.724 240.576 Q 320.986 241.362 319.931 241.813 L 319.931 241.813 L 319.931 241.813 Q 318.877 242.264 317.564 242.264 L 317.564 242.264 L 317.564 242.264 Q 316.193 242.264 315.092 241.754 L 315.092 241.754 L 315.092 241.754 Q 313.99 241.244 313.222 240.342 L 313.222 240.342 L 313.222 240.342 Q 312.455 239.44 312.039 238.203 L 312.039 238.203 L 312.039 238.203 Q 311.623 236.967 311.623 235.502 L 311.623 235.502 L 311.623 234.248 L 311.623 234.248 Q 311.623 232.221 312.174 230.492 L 312.174 230.492 L 312.174 230.492 Q 312.724 228.764 313.814 227.504 L 313.814 227.504 L 313.814 227.504 Q 314.904 226.244 316.521 225.535 L 316.521 225.535 L 316.521 225.535 Q 318.138 224.826 320.26 224.826 L 320.26 224.826 Z  M 317.459 233.264 L 317.459 233.264 L 317.459 233.264 Q 316.58 233.264 315.906 233.733 L 315.906 233.733 L 315.906 233.733 Q 315.232 234.201 314.892 234.94 L 314.892 234.94 L 314.892 235.901 L 314.892 235.901 Q 314.892 236.838 315.086 237.541 L 315.086 237.541 L 315.086 237.541 Q 315.279 238.244 315.631 238.707 L 315.631 238.707 L 315.631 238.707 Q 315.982 239.17 316.463 239.405 L 316.463 239.405 L 316.463 239.405 Q 316.943 239.639 317.506 239.639 L 317.506 239.639 L 317.506 239.639 Q 318.08 239.639 318.549 239.399 L 318.549 239.399 L 318.549 239.399 Q 319.017 239.158 319.345 238.737 L 319.345 238.737 L 319.345 238.737 Q 319.674 238.315 319.849 237.735 L 319.849 237.735 L 319.849 237.735 Q 320.025 237.155 320.025 236.463 L 320.025 236.463 L 320.025 236.463 Q 320.025 235.772 319.849 235.186 L 319.849 235.186 L 319.849 235.186 Q 319.674 234.6 319.345 234.172 L 319.345 234.172 L 319.345 234.172 Q 319.017 233.744 318.543 233.504 L 318.543 233.504 L 318.543 233.504 Q 318.068 233.264 317.459 233.264 Z " fill-rule="evenodd" fill="rgb(0,0,0)"/></g><g id="C6"><path d=" M 358 232.707 C 358 220.451 367.951 210.5 380.207 210.5 C 392.464 210.5 402.415 220.451 402.415 232.707 C 402.415 244.964 392.464 254.915 380.207 254.915 C 367.951 254.915 358 244.964 358 232.707 Z " fill="rgb(209,209,209)" vector-effect="non-scaling-stroke" stroke-width="2" stroke="rgb(0,0,0)" stroke-linejoin="miter" stroke-linecap="square" stroke-miterlimit="3"/><path d=" M 375.674 239.44 L 375.897 239.44 L 375.897 239.44 Q 377.209 239.44 378.17 239.158 L 378.17 239.158 L 378.17 239.158 Q 379.131 238.877 379.782 238.344 L 379.782 238.344 L 379.782 238.344 Q 380.432 237.811 380.789 237.043 L 380.789 237.043 L 380.789 237.043 Q 381.147 236.276 381.252 235.303 L 381.252 235.303 L 381.252 235.303 Q 380.76 235.795 379.987 236.147 L 379.987 236.147 L 379.987 236.147 Q 379.213 236.498 378.112 236.498 L 378.112 236.498 L 378.112 236.498 Q 376.893 236.498 375.967 236.053 L 375.967 236.053 L 375.967 236.053 Q 375.041 235.608 374.414 234.834 L 374.414 234.834 L 374.414 234.834 Q 373.787 234.061 373.465 233.012 L 373.465 233.012 L 373.465 233.012 Q 373.143 231.963 373.143 230.756 L 373.143 230.756 L 373.143 230.756 Q 373.143 229.514 373.535 228.418 L 373.535 228.418 L 373.535 228.418 Q 373.928 227.323 374.666 226.502 L 374.666 226.502 L 374.666 226.502 Q 375.405 225.682 376.453 225.207 L 376.453 225.207 L 376.453 225.207 Q 377.502 224.733 378.815 224.733 L 378.815 224.733 L 378.815 224.733 Q 380.151 224.733 381.217 225.248 L 381.217 225.248 L 381.217 225.248 Q 382.283 225.764 383.028 226.69 L 383.028 226.69 L 383.028 226.69 Q 383.772 227.616 384.164 228.893 L 384.164 228.893 L 384.164 228.893 Q 384.557 230.17 384.557 231.694 L 384.557 231.694 L 384.557 232.819 L 384.557 232.819 Q 384.557 234.858 384.053 236.569 L 384.053 236.569 L 384.053 236.569 Q 383.549 238.28 382.494 239.528 L 382.494 239.528 L 382.494 239.528 Q 381.44 240.776 379.811 241.473 L 379.811 241.473 L 379.811 241.473 Q 378.182 242.17 375.92 242.17 L 375.92 242.17 L 375.674 242.17 L 375.674 239.44 Z  M 378.885 233.979 L 378.885 233.979 L 378.885 233.979 Q 379.33 233.979 379.711 233.85 L 379.711 233.85 L 379.711 233.85 Q 380.092 233.721 380.403 233.492 L 380.403 233.492 L 380.403 233.492 Q 380.713 233.264 380.942 232.953 L 380.942 232.953 L 380.942 232.953 Q 381.17 232.643 381.311 232.28 L 381.311 232.28 L 381.311 231.119 L 381.311 231.119 Q 381.311 230.182 381.117 229.479 L 381.117 229.479 L 381.117 229.479 Q 380.924 228.776 380.584 228.307 L 380.584 228.307 L 380.584 228.307 Q 380.244 227.838 379.787 227.604 L 379.787 227.604 L 379.787 227.604 Q 379.33 227.369 378.803 227.369 L 378.803 227.369 L 378.803 227.369 Q 378.229 227.369 377.778 227.645 L 377.778 227.645 L 377.778 227.645 Q 377.326 227.92 377.022 228.383 L 377.022 228.383 L 377.022 228.383 Q 376.717 228.846 376.553 229.45 L 376.553 229.45 L 376.553 229.45 Q 376.389 230.053 376.389 230.709 L 376.389 230.709 L 376.389 230.709 Q 376.389 231.366 376.541 231.963 L 376.541 231.963 L 376.541 231.963 Q 376.694 232.561 377.004 233.006 L 377.004 233.006 L 377.004 233.006 Q 377.315 233.451 377.783 233.715 L 377.783 233.715 L 377.783 233.715 Q 378.252 233.979 378.885 233.979 Z " fill-rule="evenodd" fill="rgb(0,0,0)"/></g><g id="C7"><path d=" M 355.118 154.707 C 355.118 142.451 365.069 132.5 377.325 132.5 C 389.582 132.5 399.533 142.451 399.533 154.707 C 399.533 166.964 389.582 176.915 377.325 176.915 C 365.069 176.915 355.118 166.964 355.118 154.707 Z " fill="rgb(195,215,247)" vector-effect="non-scaling-stroke" stroke-width="2" stroke="rgb(0,0,0)" stroke-linejoin="miter" stroke-linecap="square" stroke-miterlimit="3"/><path d=" M 381.921 146.967 L 381.921 148.783 L 375.276 164.03 L 371.843 164.03 L 378.499 149.627 L 369.933 149.627 L 369.933 146.967 L 381.921 146.967 Z " fill="rgb(0,0,0)"/></g><g id="C8"><path d=" M 419.614 232.707 C 419.614 220.451 429.565 210.5 441.821 210.5 C 454.078 210.5 464.028 220.451 464.028 232.707 C 464.028 244.964 454.078 254.915 441.821 254.915 C 429.565 254.915 419.614 244.964 419.614 232.707 Z " fill="rgb(209,209,209)" vector-effect="non-scaling-stroke" stroke-width="2" stroke="rgb(0,0,0)" stroke-linejoin="miter" stroke-linecap="square" stroke-miterlimit="3"/><path d=" M 436.235 224.967 L 436.235 242.03 L 432.942 242.03 L 432.942 228.94 L 428.63 230.487 L 428.63 227.651 L 436.059 224.967 L 436.235 224.967 Z  M 453.766 231.459 L 453.766 235.537 L 453.766 235.537 Q 453.766 237.19 453.386 238.45 L 453.386 238.45 L 453.386 238.45 Q 453.005 239.709 452.29 240.559 L 452.29 240.559 L 452.29 240.559 Q 451.575 241.408 450.544 241.842 L 450.544 241.842 L 450.544 241.842 Q 449.513 242.276 448.223 242.276 L 448.223 242.276 L 448.223 242.276 Q 446.946 242.276 445.915 241.842 L 445.915 241.842 L 445.915 241.842 Q 444.884 241.408 444.163 240.559 L 444.163 240.559 L 444.163 240.559 Q 443.442 239.709 443.05 238.45 L 443.05 238.45 L 443.05 238.45 Q 442.657 237.19 442.657 235.537 L 442.657 235.537 L 442.657 231.459 L 442.657 231.459 Q 442.657 229.807 443.044 228.547 L 443.044 228.547 L 443.044 228.547 Q 443.431 227.287 444.151 226.438 L 444.151 226.438 L 444.151 226.438 Q 444.872 225.588 445.897 225.155 L 445.897 225.155 L 445.897 225.155 Q 446.923 224.721 448.2 224.721 L 448.2 224.721 L 448.2 224.721 Q 449.489 224.721 450.52 225.155 L 450.52 225.155 L 450.52 225.155 Q 451.552 225.588 452.272 226.438 L 452.272 226.438 L 452.272 226.438 Q 452.993 227.287 453.38 228.547 L 453.38 228.547 L 453.38 228.547 Q 453.766 229.807 453.766 231.459 L 453.766 231.459 Z  M 445.938 230.944 L 445.938 234.131 L 450.485 230.744 L 450.485 230.744 Q 450.45 229.022 449.888 228.19 L 449.888 228.19 L 449.888 228.19 Q 449.325 227.358 448.2 227.358 L 448.2 227.358 L 448.2 227.358 Q 447.063 227.358 446.501 228.237 L 446.501 228.237 L 446.501 228.237 Q 445.938 229.116 445.938 230.944 L 445.938 230.944 Z  M 450.485 236.03 L 450.485 232.959 L 445.938 236.334 L 445.938 236.334 Q 445.997 238.022 446.559 238.836 L 446.559 238.836 L 446.559 238.836 Q 447.122 239.651 448.223 239.651 L 448.223 239.651 L 448.223 239.651 Q 449.372 239.651 449.929 238.76 L 449.929 238.76 L 449.929 238.76 Q 450.485 237.869 450.485 236.03 L 450.485 236.03 Z " fill-rule="evenodd" fill="rgb(0,0,0)"/></g><g id="C8"><path d=" M 488.628 232.707 C 488.628 220.451 498.579 210.5 510.835 210.5 C 523.092 210.5 533.043 220.451 533.043 232.707 C 533.043 244.964 523.092 254.915 510.835 254.915 C 498.579 254.915 488.628 244.964 488.628 232.707 Z " fill="rgb(209,209,209)" vector-effect="non-scaling-stroke" stroke-width="2" stroke="rgb(0,0,0)" stroke-linejoin="miter" stroke-linecap="square" stroke-miterlimit="3"/><path d=" M 505.249 224.967 L 505.249 242.03 L 501.956 242.03 L 501.956 228.94 L 497.644 230.487 L 497.644 227.651 L 505.074 224.967 L 505.249 224.967 Z  M 514.437 234.272 L 511.835 233.627 L 512.808 224.967 L 522.277 224.967 L 522.277 227.733 L 515.492 227.733 L 515.081 231.483 L 515.081 231.483 Q 515.445 231.272 516.113 231.049 L 516.113 231.049 L 516.113 231.049 Q 516.781 230.826 517.648 230.826 L 517.648 230.826 L 517.648 230.826 Q 518.878 230.826 519.845 231.219 L 519.845 231.219 L 519.845 231.219 Q 520.812 231.612 521.474 232.35 L 521.474 232.35 L 521.474 232.35 Q 522.136 233.088 522.488 234.155 L 522.488 234.155 L 522.488 234.155 Q 522.839 235.221 522.839 236.569 L 522.839 236.569 L 522.839 236.569 Q 522.839 237.717 522.499 238.748 L 522.499 238.748 L 522.499 238.748 Q 522.16 239.78 521.456 240.565 L 521.456 240.565 L 521.456 240.565 Q 520.753 241.35 519.687 241.807 L 519.687 241.807 L 519.687 241.807 Q 518.621 242.264 517.167 242.264 L 517.167 242.264 L 517.167 242.264 Q 516.066 242.264 515.04 241.936 L 515.04 241.936 L 515.04 241.936 Q 514.015 241.608 513.218 240.975 L 513.218 240.975 L 513.218 240.975 Q 512.421 240.342 511.923 239.422 L 511.923 239.422 L 511.923 239.422 Q 511.425 238.502 511.39 237.319 L 511.39 237.319 L 514.601 237.319 L 514.601 237.319 Q 514.718 238.432 515.404 239.041 L 515.404 239.041 L 515.404 239.041 Q 516.089 239.651 517.156 239.651 L 517.156 239.651 L 517.156 239.651 Q 517.812 239.651 518.275 239.405 L 518.275 239.405 L 518.275 239.405 Q 518.738 239.158 519.025 238.725 L 519.025 238.725 L 519.025 238.725 Q 519.312 238.291 519.447 237.694 L 519.447 237.694 L 519.447 237.694 Q 519.581 237.096 519.581 236.405 L 519.581 236.405 L 519.581 236.405 Q 519.581 235.725 519.412 235.157 L 519.412 235.157 L 519.412 235.157 Q 519.242 234.588 518.89 234.178 L 518.89 234.178 L 518.89 234.178 Q 518.538 233.768 518.011 233.545 L 518.011 233.545 L 518.011 233.545 Q 517.484 233.323 516.769 233.323 L 516.769 233.323 L 516.769 233.323 Q 516.288 233.323 515.937 233.405 L 515.937 233.405 L 515.937 233.405 Q 515.585 233.487 515.316 233.616 L 515.316 233.616 L 515.316 233.616 Q 515.046 233.744 514.835 233.914 L 514.835 233.914 L 514.835 233.914 Q 514.624 234.084 514.437 234.272 L 514.437 234.272 Z " fill-rule="evenodd" fill="rgb(0,0,0)"/></g><g id="C9"><path d=" M 447.793 154.707 C 447.793 142.451 457.743 132.5 470 132.5 C 482.257 132.5 492.207 142.451 492.207 154.707 C 492.207 166.964 482.257 176.915 470 176.915 C 457.743 176.915 447.793 166.964 447.793 154.707 Z " fill="rgb(195,215,247)" vector-effect="non-scaling-stroke" stroke-width="2" stroke="rgb(0,0,0)" stroke-linejoin="miter" stroke-linecap="square" stroke-miterlimit="3"/><path d=" M 465.414 146.967 L 465.414 164.03 L 462.121 164.03 L 462.121 150.94 L 457.809 152.487 L 457.809 149.651 L 465.238 146.967 L 465.414 146.967 Z  M 479.816 146.967 L 479.816 164.03 L 476.523 164.03 L 476.523 150.94 L 472.211 152.487 L 472.211 149.651 L 479.641 146.967 L 479.816 146.967 Z " fill-rule="evenodd" fill="rgb(0,0,0)"/></g><g id="C10"><path d=" M 540.467 154.707 C 540.467 142.451 550.418 132.5 562.675 132.5 C 574.931 132.5 584.882 142.451 584.882 154.707 C 584.882 166.964 574.931 176.915 562.675 176.915 C 550.418 176.915 540.467 166.964 540.467 154.707 Z " fill="rgb(195,215,247)" vector-effect="non-scaling-stroke" stroke-width="2" stroke="rgb(0,0,0)" stroke-linejoin="miter" stroke-linecap="square" stroke-miterlimit="3"/><path d=" M 556.905 146.967 L 556.905 164.03 L 553.612 164.03 L 553.612 150.94 L 549.3 152.487 L 549.3 149.651 L 556.729 146.967 L 556.905 146.967 Z  M 566.608 156.6 L 566.608 154.069 L 568.378 154.069 L 568.378 154.069 Q 569.714 154.069 570.358 153.395 L 570.358 153.395 L 570.358 153.395 Q 571.003 152.721 571.003 151.631 L 571.003 151.631 L 571.003 151.631 Q 571.003 151.127 570.856 150.711 L 570.856 150.711 L 570.856 150.711 Q 570.71 150.295 570.417 149.996 L 570.417 149.996 L 570.417 149.996 Q 570.124 149.698 569.673 149.533 L 569.673 149.533 L 569.673 149.533 Q 569.222 149.369 568.624 149.369 L 568.624 149.369 L 568.624 149.369 Q 568.132 149.369 567.704 149.51 L 567.704 149.51 L 567.704 149.51 Q 567.276 149.651 566.954 149.914 L 566.954 149.914 L 566.954 149.914 Q 566.632 150.178 566.444 150.553 L 566.444 150.553 L 566.444 150.553 Q 566.257 150.928 566.257 151.397 L 566.257 151.397 L 562.999 151.397 L 562.999 151.397 Q 562.999 150.354 563.427 149.498 L 563.427 149.498 L 563.427 149.498 Q 563.854 148.643 564.604 148.028 L 564.604 148.028 L 564.604 148.028 Q 565.354 147.412 566.368 147.073 L 566.368 147.073 L 566.368 147.073 Q 567.382 146.733 568.554 146.733 L 568.554 146.733 L 568.554 146.733 Q 569.819 146.733 570.874 147.043 L 570.874 147.043 L 570.874 147.043 Q 571.929 147.354 572.679 147.969 L 572.679 147.969 L 572.679 147.969 Q 573.429 148.584 573.845 149.492 L 573.845 149.492 L 573.845 149.492 Q 574.261 150.401 574.261 151.596 L 574.261 151.596 L 574.261 151.596 Q 574.261 152.147 574.097 152.68 L 574.097 152.68 L 574.097 152.68 Q 573.933 153.213 573.616 153.694 L 573.616 153.694 L 573.616 153.694 Q 573.3 154.174 572.831 154.578 L 572.831 154.578 L 572.831 154.578 Q 572.362 154.983 571.753 155.276 L 571.753 155.276 L 571.753 155.276 Q 572.468 155.533 572.989 155.932 L 572.989 155.932 L 572.989 155.932 Q 573.511 156.33 573.851 156.84 L 573.851 156.84 L 573.851 156.84 Q 574.19 157.35 574.354 157.959 L 574.354 157.959 L 574.354 157.959 Q 574.519 158.569 574.519 159.248 L 574.519 159.248 L 574.519 159.248 Q 574.519 160.444 574.062 161.381 L 574.062 161.381 L 574.062 161.381 Q 573.604 162.319 572.808 162.957 L 572.808 162.957 L 572.808 162.957 Q 572.011 163.596 570.915 163.93 L 570.915 163.93 L 570.915 163.93 Q 569.819 164.264 568.554 164.264 L 568.554 164.264 L 568.554 164.264 Q 567.464 164.264 566.427 163.965 L 566.427 163.965 L 566.427 163.965 Q 565.39 163.666 564.581 163.063 L 564.581 163.063 L 564.581 163.063 Q 563.772 162.459 563.286 161.545 L 563.286 161.545 L 563.286 161.545 Q 562.8 160.631 562.8 159.389 L 562.8 159.389 L 566.058 159.389 L 566.058 159.389 Q 566.058 159.881 566.245 160.297 L 566.245 160.297 L 566.245 160.297 Q 566.433 160.713 566.778 161.012 L 566.778 161.012 L 566.778 161.012 Q 567.124 161.311 567.593 161.481 L 567.593 161.481 L 567.593 161.481 Q 568.062 161.651 568.624 161.651 L 568.624 161.651 L 568.624 161.651 Q 569.866 161.651 570.569 160.994 L 570.569 160.994 L 570.569 160.994 Q 571.272 160.338 571.272 159.213 L 571.272 159.213 L 571.272 159.213 Q 571.272 158.522 571.073 158.03 L 571.073 158.03 L 571.073 158.03 Q 570.874 157.537 570.493 157.221 L 570.493 157.221 L 570.493 157.221 Q 570.112 156.905 569.579 156.752 L 569.579 156.752 L 569.579 156.752 Q 569.046 156.6 568.378 156.6 L 568.378 156.6 L 566.608 156.6 Z " fill-rule="evenodd" fill="rgb(0,0,0)"/></g><g id="C10"><path d=" M 494.053 90.5 C 494.053 78.243 504.004 68.293 516.26 68.293 C 528.517 68.293 538.467 78.243 538.467 90.5 C 538.467 102.757 528.517 112.707 516.26 112.707 C 504.004 112.707 494.053 102.757 494.053 90.5 Z " fill="rgb(255,243,165)" fill-opacity="0.65" vector-effect="non-scaling-stroke" stroke-width="2" stroke-dasharray="6" stroke="rgb(0,0,0)" stroke-linejoin="miter" stroke-linecap="square" stroke-miterlimit="3"/><path d=" M 510.491 82.76 L 510.491 99.822 L 507.198 99.822 L 507.198 86.732 L 502.885 88.279 L 502.885 85.443 L 510.315 82.76 L 510.491 82.76 Z  M 528.069 97.209 L 528.069 99.822 L 516.432 99.822 L 516.432 97.596 L 521.952 91.666 L 521.952 91.666 Q 522.596 90.963 523.041 90.389 L 523.041 90.389 L 523.041 90.389 Q 523.487 89.814 523.762 89.34 L 523.762 89.34 L 523.762 89.34 Q 524.037 88.865 524.161 88.455 L 524.161 88.455 L 524.161 88.455 Q 524.284 88.045 524.284 87.658 L 524.284 87.658 L 524.284 87.658 Q 524.284 87.084 524.12 86.639 L 524.12 86.639 L 524.12 86.639 Q 523.955 86.193 523.657 85.883 L 523.657 85.883 L 523.657 85.883 Q 523.358 85.572 522.942 85.408 L 522.942 85.408 L 522.942 85.408 Q 522.526 85.244 522.022 85.244 L 522.022 85.244 L 522.022 85.244 Q 520.674 85.244 520.012 85.994 L 520.012 85.994 L 520.012 85.994 Q 519.35 86.744 519.35 88.092 L 519.35 88.092 L 516.08 88.092 L 516.08 88.092 Q 516.08 86.955 516.514 85.941 L 516.514 85.941 L 516.514 85.941 Q 516.948 84.928 517.739 84.166 L 517.739 84.166 L 517.739 84.166 Q 518.53 83.404 519.649 82.965 L 519.649 82.965 L 519.649 82.965 Q 520.768 82.525 522.127 82.525 L 522.127 82.525 L 522.127 82.525 Q 523.428 82.525 524.43 82.889 L 524.43 82.889 L 524.43 82.889 Q 525.432 83.252 526.106 83.908 L 526.106 83.908 L 526.106 83.908 Q 526.78 84.564 527.131 85.484 L 527.131 85.484 L 527.131 85.484 Q 527.483 86.404 527.483 87.518 L 527.483 87.518 L 527.483 87.518 Q 527.483 88.361 527.219 89.129 L 527.219 89.129 L 527.219 89.129 Q 526.955 89.896 526.469 90.646 L 526.469 90.646 L 526.469 90.646 Q 525.983 91.396 525.303 92.176 L 525.303 92.176 L 525.303 92.176 Q 524.623 92.955 523.791 93.811 L 523.791 93.811 L 520.58 97.209 L 528.069 97.209 Z " fill-rule="evenodd" fill="rgb(0,0,0)"/></g><g id="C11"><path d=" M 236.301 309.293 C 236.301 297.036 246.252 287.085 258.508 287.085 C 270.765 287.085 280.715 297.036 280.715 309.293 C 280.715 321.549 270.765 331.5 258.508 331.5 C 246.252 331.5 236.301 321.549 236.301 309.293 Z " fill="rgb(211,240,193)" vector-effect="non-scaling-stroke" stroke-width="2" stroke="rgb(0,0,0)" stroke-linejoin="miter" stroke-linecap="square" stroke-miterlimit="3"/><path d=" M 261.475 301.552 L 261.475 312.275 L 263.455 312.275 L 263.455 314.912 L 261.475 314.912 L 261.475 318.615 L 258.217 318.615 L 258.217 314.912 L 251.127 314.912 L 250.998 312.873 L 258.17 301.552 L 261.475 301.552 Z  M 257.901 306.498 L 254.198 312.275 L 258.217 312.275 L 258.217 305.935 L 257.901 306.498 Z " fill-rule="evenodd" fill="rgb(0,0,0)"/></g><g id="C12"><path d=" M 305.533 309.293 C 305.533 297.036 315.483 287.085 327.74 287.085 C 339.996 287.085 349.947 297.036 349.947 309.293 C 349.947 321.549 339.996 331.5 327.74 331.5 C 315.483 331.5 305.533 321.549 305.533 309.293 Z " fill="rgb(211,240,193)" vector-effect="non-scaling-stroke" stroke-width="2" stroke="rgb(0,0,0)" stroke-linejoin="miter" stroke-linecap="square" stroke-miterlimit="3"/><path d=" M 331.902 306.088 L 331.902 306.088 L 331.902 306.088 Q 331.902 307.33 331.275 308.297 L 331.275 308.297 L 331.275 308.297 Q 330.648 309.263 329.558 309.838 L 329.558 309.838 L 329.558 309.838 Q 330.8 310.424 331.533 311.478 L 331.533 311.478 L 331.533 311.478 Q 332.265 312.533 332.265 313.951 L 332.265 313.951 L 332.265 313.951 Q 332.265 315.158 331.826 316.072 L 331.826 316.072 L 331.826 316.072 Q 331.386 316.986 330.619 317.601 L 330.619 317.601 L 330.619 317.601 Q 329.851 318.217 328.808 318.533 L 328.808 318.533 L 328.808 318.533 Q 327.765 318.849 326.558 318.849 L 326.558 318.849 L 326.558 318.849 Q 325.339 318.849 324.291 318.533 L 324.291 318.533 L 324.291 318.533 Q 323.242 318.217 322.468 317.601 L 322.468 317.601 L 322.468 317.601 Q 321.695 316.986 321.255 316.072 L 321.255 316.072 L 321.255 316.072 Q 320.816 315.158 320.816 313.951 L 320.816 313.951 L 320.816 313.951 Q 320.816 313.248 321.009 312.621 L 321.009 312.621 L 321.009 312.621 Q 321.203 311.994 321.554 311.472 L 321.554 311.472 L 321.554 311.472 Q 321.906 310.951 322.404 310.535 L 322.404 310.535 L 322.404 310.535 Q 322.902 310.119 323.523 309.826 L 323.523 309.826 L 323.523 309.826 Q 322.433 309.263 321.812 308.297 L 321.812 308.297 L 321.812 308.297 Q 321.191 307.33 321.191 306.088 L 321.191 306.088 L 321.191 306.088 Q 321.191 304.927 321.589 304.043 L 321.589 304.043 L 321.589 304.043 Q 321.988 303.158 322.697 302.549 L 322.697 302.549 L 322.697 302.549 Q 323.406 301.939 324.384 301.629 L 324.384 301.629 L 324.384 301.629 Q 325.363 301.318 326.523 301.318 L 326.523 301.318 L 326.523 301.318 Q 327.683 301.318 328.668 301.629 L 328.668 301.629 L 328.668 301.629 Q 329.652 301.939 330.373 302.549 L 330.373 302.549 L 330.373 302.549 Q 331.093 303.158 331.498 304.043 L 331.498 304.043 L 331.498 304.043 Q 331.902 304.927 331.902 306.088 Z  M 328.996 313.728 L 328.996 313.728 L 328.996 313.728 Q 328.996 313.142 328.82 312.674 L 328.82 312.674 L 328.82 312.674 Q 328.644 312.205 328.322 311.871 L 328.322 311.871 L 328.322 311.871 Q 328 311.537 327.548 311.361 L 327.548 311.361 L 327.548 311.361 Q 327.097 311.185 326.535 311.185 L 326.535 311.185 L 326.535 311.185 Q 325.972 311.185 325.521 311.361 L 325.521 311.361 L 325.521 311.361 Q 325.07 311.537 324.754 311.871 L 324.754 311.871 L 324.754 311.871 Q 324.437 312.205 324.261 312.674 L 324.261 312.674 L 324.261 312.674 Q 324.086 313.142 324.086 313.728 L 324.086 313.728 L 324.086 313.728 Q 324.086 314.9 324.754 315.568 L 324.754 315.568 L 324.754 315.568 Q 325.421 316.236 326.558 316.236 L 326.558 316.236 L 326.558 316.236 Q 327.097 316.236 327.543 316.066 L 327.543 316.066 L 327.543 316.066 Q 327.988 315.896 328.31 315.568 L 328.31 315.568 L 328.31 315.568 Q 328.632 315.24 328.814 314.777 L 328.814 314.777 L 328.814 314.777 Q 328.996 314.314 328.996 313.728 Z  M 328.656 306.24 L 328.656 306.24 L 328.656 306.24 Q 328.656 305.724 328.504 305.302 L 328.504 305.302 L 328.504 305.302 Q 328.351 304.881 328.076 304.582 L 328.076 304.582 L 328.076 304.582 Q 327.8 304.283 327.408 304.119 L 327.408 304.119 L 327.408 304.119 Q 327.015 303.955 326.523 303.955 L 326.523 303.955 L 326.523 303.955 Q 325.527 303.955 324.988 304.564 L 324.988 304.564 L 324.988 304.564 Q 324.449 305.174 324.449 306.24 L 324.449 306.24 L 324.449 306.24 Q 324.449 306.756 324.589 307.183 L 324.589 307.183 L 324.589 307.183 Q 324.73 307.611 325.005 307.916 L 325.005 307.916 L 325.005 307.916 Q 325.281 308.22 325.673 308.39 L 325.673 308.39 L 325.673 308.39 Q 326.066 308.56 326.558 308.56 L 326.558 308.56 L 326.558 308.56 Q 327.05 308.56 327.437 308.39 L 327.437 308.39 L 327.437 308.39 Q 327.824 308.22 328.093 307.916 L 328.093 307.916 L 328.093 307.916 Q 328.363 307.611 328.509 307.183 L 328.509 307.183 L 328.509 307.183 Q 328.656 306.756 328.656 306.24 Z " fill-rule="evenodd" fill="rgb(0,0,0)"/></g><g id="C13"><path d=" M 629 154.707 C 629 142.451 638.951 132.5 651.207 132.5 C 663.464 132.5 673.415 142.451 673.415 154.707 C 673.415 166.964 663.464 176.915 651.207 176.915 C 638.951 176.915 629 166.964 629 154.707 Z " fill="rgb(195,215,247)" vector-effect="non-scaling-stroke" stroke-width="2" stroke="rgb(0,0,0)" stroke-linejoin="miter" stroke-linecap="square" stroke-miterlimit="3"/><path d=" M 645.438 146.967 L 645.438 164.03 L 642.145 164.03 L 642.145 150.94 L 637.832 152.487 L 637.832 149.651 L 645.262 146.967 L 645.438 146.967 Z  M 661.375 146.967 L 661.375 157.69 L 663.356 157.69 L 663.356 160.326 L 661.375 160.326 L 661.375 164.03 L 658.117 164.03 L 658.117 160.326 L 651.028 160.326 L 650.899 158.287 L 658.071 146.967 L 661.375 146.967 Z  M 657.801 151.912 L 654.098 157.69 L 658.117 157.69 L 658.117 151.35 L 657.801 151.912 Z " fill-rule="evenodd" fill="rgb(0,0,0)"/></g></g></svg>