<?xml version="1.0" standalone="no"?><!-- Generator: Gravit.io --><svg xmlns="http://www.w3.org/2000/svg" xmlns:xlink="http://www.w3.org/1999/xlink" style="isolation:isolate" viewBox="0 0 800 500" width="800" height="500"><defs><clipPath id="_clipPath_8RYKafLOzj2kpyk5XkRalcyVjnvXegyt"><rect width="800" height="500"/></clipPath></defs><g clip-path="url(#_clipPath_8RYKafLOzj2kpyk5XkRalcyVjnvXegyt)"><rect x="0" y="146" width="800" height="354" transform="matrix(1,0,0,1,0,0)" fill="rgb(255,255,255)"/><rect x="0" y="0" width="800" height="146" transform="matrix(1,0,0,1,0,0)" fill="rgb(236,236,236)"/><path d="M 331.269 397 L 575.731 397 C 584.71 397 592 404.29 592 413.269 L 592 440.731 C 592 449.71 584.71 457 575.731 457 L 331.269 457 C 322.29 457 315 449.71 315 440.731 L 315 413.269 C 315 404.29 322.29 397 331.269 397 Z" style="stroke:none;fill:#D98888;stroke-miterlimit:10;opacity:0.68;"/><path d="M 331.269 397 L 575.731 397 C 584.71 397 592 404.29 592 413.269 L 592 440.731 C 592 449.71 584.71 457 575.731 457 L 331.269 457 C 322.29 457 315 449.71 315 440.731 L 315 413.269 C 315 404.29 322.29 397 331.269 397 Z" style="fill:none;stroke:#000000;stroke-width:1.6855342301554246;stroke-linecap:square;stroke-miterlimit:3;"/><path d=" M 489.482 419.563 L 489.482 434.759 L 486.504 434.759 L 486.504 419.563 L 489.482 419.563 Z  M 494.98 429.28 L 494.98 429.28 L 494.98 429.28 Q 494.98 430.901 495.513 431.731 L 495.513 431.731 L 495.513 431.731 Q 496.045 432.562 497.246 432.562 L 497.246 432.562 L 497.246 432.562 Q 498.438 432.562 498.96 431.736 L 498.96 431.736 L 498.96 431.736 Q 499.482 430.911 499.482 429.28 L 499.482 429.28 L 499.482 429.28 Q 499.482 427.659 498.955 426.849 L 498.955 426.849 L 498.955 426.849 Q 498.428 426.038 497.227 426.038 L 497.227 426.038 L 497.227 426.038 Q 496.035 426.038 495.508 426.844 L 495.508 426.844 L 495.508 426.844 Q 494.98 427.649 494.98 429.28 Z  M 502.529 429.28 L 502.529 429.28 L 502.529 429.28 Q 502.529 431.946 501.123 433.45 L 501.123 433.45 L 501.123 433.45 Q 499.717 434.954 497.207 434.954 L 497.207 434.954 L 497.207 434.954 Q 495.635 434.954 494.434 434.266 L 494.434 434.266 L 494.434 434.266 Q 493.232 433.577 492.588 432.288 L 492.588 432.288 L 492.588 432.288 Q 491.943 430.999 491.943 429.28 L 491.943 429.28 L 491.943 429.28 Q 491.943 426.604 493.34 425.12 L 493.34 425.12 L 493.34 425.12 Q 494.736 423.636 497.266 423.636 L 497.266 423.636 L 497.266 423.636 Q 498.838 423.636 500.039 424.319 L 500.039 424.319 L 500.039 424.319 Q 501.24 425.003 501.885 426.282 L 501.885 426.282 L 501.885 426.282 Q 502.529 427.562 502.529 429.28 Z  M 509.424 434.954 L 509.424 434.954 L 509.424 434.954 Q 504.326 434.954 504.326 429.358 L 504.326 429.358 L 504.326 429.358 Q 504.326 426.575 505.713 425.105 L 505.713 425.105 L 505.713 425.105 Q 507.1 423.636 509.688 423.636 L 509.688 423.636 L 509.688 423.636 Q 511.582 423.636 513.086 424.378 L 513.086 424.378 L 512.207 426.683 L 512.207 426.683 Q 511.504 426.399 510.898 426.219 L 510.898 426.219 L 510.898 426.219 Q 510.293 426.038 509.688 426.038 L 509.688 426.038 L 509.688 426.038 Q 507.363 426.038 507.363 429.339 L 507.363 429.339 L 507.363 429.339 Q 507.363 432.542 509.688 432.542 L 509.688 432.542 L 509.688 432.542 Q 510.547 432.542 511.279 432.313 L 511.279 432.313 L 511.279 432.313 Q 512.012 432.083 512.744 431.595 L 512.744 431.595 L 512.744 434.144 L 512.744 434.144 Q 512.021 434.603 511.284 434.778 L 511.284 434.778 L 511.284 434.778 Q 510.547 434.954 509.424 434.954 Z  M 524.287 434.759 L 522.207 434.759 L 521.631 433.274 L 521.553 433.274 L 521.553 433.274 Q 520.801 434.222 520.005 434.588 L 520.005 434.588 L 520.005 434.588 Q 519.209 434.954 517.93 434.954 L 517.93 434.954 L 517.93 434.954 Q 516.357 434.954 515.454 434.056 L 515.454 434.056 L 515.454 434.056 Q 514.551 433.157 514.551 431.497 L 514.551 431.497 L 514.551 431.497 Q 514.551 429.759 515.767 428.934 L 515.767 428.934 L 515.767 428.934 Q 516.982 428.108 519.434 428.021 L 519.434 428.021 L 521.328 427.962 L 521.328 427.483 L 521.328 427.483 Q 521.328 425.823 519.629 425.823 L 519.629 425.823 L 519.629 425.823 Q 518.32 425.823 516.553 426.614 L 516.553 426.614 L 515.566 424.603 L 515.566 424.603 Q 517.451 423.616 519.746 423.616 L 519.746 423.616 L 519.746 423.616 Q 521.943 423.616 523.115 424.573 L 523.115 424.573 L 523.115 424.573 Q 524.287 425.53 524.287 427.483 L 524.287 427.483 L 524.287 434.759 Z  M 521.328 430.599 L 521.328 429.7 L 520.176 429.739 L 520.176 429.739 Q 518.877 429.778 518.242 430.208 L 518.242 430.208 L 518.242 430.208 Q 517.607 430.638 517.607 431.517 L 517.607 431.517 L 517.607 431.517 Q 517.607 432.776 519.053 432.776 L 519.053 432.776 L 519.053 432.776 Q 520.088 432.776 520.708 432.181 L 520.708 432.181 L 520.708 432.181 Q 521.328 431.585 521.328 430.599 L 521.328 430.599 Z  M 530.332 419.563 L 530.332 434.759 L 527.354 434.759 L 527.354 419.563 L 530.332 419.563 Z  M 377.93 422.962 L 377.93 426.819 L 378.906 426.819 L 378.906 426.819 Q 380.342 426.819 381.025 426.341 L 381.025 426.341 L 381.025 426.341 Q 381.709 425.862 381.709 424.837 L 381.709 424.837 L 381.709 424.837 Q 381.709 423.821 381.011 423.392 L 381.011 423.392 L 381.011 423.392 Q 380.313 422.962 378.848 422.962 L 378.848 422.962 L 377.93 422.962 Z  M 379.541 429.28 L 377.93 429.28 L 377.93 434.759 L 374.902 434.759 L 374.902 420.481 L 379.063 420.481 L 379.063 420.481 Q 381.973 420.481 383.369 421.541 L 383.369 421.541 L 383.369 421.541 Q 384.766 422.601 384.766 424.759 L 384.766 424.759 L 384.766 424.759 Q 384.766 426.019 384.072 427 L 384.072 427 L 384.072 427 Q 383.379 427.981 382.109 428.538 L 382.109 428.538 L 382.109 428.538 Q 385.332 433.353 386.309 434.759 L 386.309 434.759 L 382.949 434.759 L 379.541 429.28 Z  M 392.393 425.755 L 392.393 425.755 L 392.393 425.755 Q 391.445 425.755 390.908 426.355 L 390.908 426.355 L 390.908 426.355 Q 390.371 426.956 390.293 428.06 L 390.293 428.06 L 394.473 428.06 L 394.473 428.06 Q 394.453 426.956 393.896 426.355 L 393.896 426.355 L 393.896 426.355 Q 393.34 425.755 392.393 425.755 Z  M 392.813 434.954 L 392.813 434.954 L 392.813 434.954 Q 390.176 434.954 388.691 433.499 L 388.691 433.499 L 388.691 433.499 Q 387.207 432.044 387.207 429.378 L 387.207 429.378 L 387.207 429.378 Q 387.207 426.634 388.579 425.135 L 388.579 425.135 L 388.579 425.135 Q 389.951 423.636 392.373 423.636 L 392.373 423.636 L 392.373 423.636 Q 394.688 423.636 395.977 424.954 L 395.977 424.954 L 395.977 424.954 Q 397.266 426.272 397.266 428.597 L 397.266 428.597 L 397.266 430.042 L 390.225 430.042 L 390.225 430.042 Q 390.273 431.312 390.977 432.024 L 390.977 432.024 L 390.977 432.024 Q 391.68 432.737 392.949 432.737 L 392.949 432.737 L 392.949 432.737 Q 393.936 432.737 394.814 432.532 L 394.814 432.532 L 394.814 432.532 Q 395.693 432.327 396.65 431.878 L 396.65 431.878 L 396.65 434.183 L 396.65 434.183 Q 395.869 434.573 394.98 434.764 L 394.98 434.764 L 394.98 434.764 Q 394.092 434.954 392.813 434.954 Z  M 392.656 422.64 L 390.674 422.64 L 390.674 422.376 L 390.674 422.376 Q 392.354 420.423 392.969 419.437 L 392.969 419.437 L 396.309 419.437 L 396.309 419.642 L 396.309 419.642 Q 395.801 420.149 394.575 421.15 L 394.575 421.15 L 394.575 421.15 Q 393.35 422.151 392.656 422.64 L 392.656 422.64 Z  M 405.684 434.954 L 405.684 434.954 L 405.684 434.954 Q 403.76 434.954 402.666 433.558 L 402.666 433.558 L 402.51 433.558 L 402.51 433.558 Q 402.666 434.925 402.666 435.14 L 402.666 435.14 L 402.666 439.563 L 399.688 439.563 L 399.688 423.841 L 402.109 423.841 L 402.529 425.257 L 402.666 425.257 L 402.666 425.257 Q 403.711 423.636 405.762 423.636 L 405.762 423.636 L 405.762 423.636 Q 407.695 423.636 408.789 425.13 L 408.789 425.13 L 408.789 425.13 Q 409.883 426.624 409.883 429.28 L 409.883 429.28 L 409.883 429.28 Q 409.883 431.028 409.37 432.317 L 409.37 432.317 L 409.37 432.317 Q 408.857 433.606 407.91 434.28 L 407.91 434.28 L 407.91 434.28 Q 406.963 434.954 405.684 434.954 Z  M 404.805 426.019 L 404.805 426.019 L 404.805 426.019 Q 403.701 426.019 403.193 426.697 L 403.193 426.697 L 403.193 426.697 Q 402.686 427.376 402.666 428.938 L 402.666 428.938 L 402.666 429.261 L 402.666 429.261 Q 402.666 431.019 403.188 431.78 L 403.188 431.78 L 403.188 431.78 Q 403.711 432.542 404.844 432.542 L 404.844 432.542 L 404.844 432.542 Q 406.846 432.542 406.846 429.241 L 406.846 429.241 L 406.846 429.241 Q 406.846 427.63 406.353 426.824 L 406.353 426.824 L 406.353 426.824 Q 405.859 426.019 404.805 426.019 Z  M 416.865 425.755 L 416.865 425.755 L 416.865 425.755 Q 415.918 425.755 415.381 426.355 L 415.381 426.355 L 415.381 426.355 Q 414.844 426.956 414.766 428.06 L 414.766 428.06 L 418.945 428.06 L 418.945 428.06 Q 418.926 426.956 418.369 426.355 L 418.369 426.355 L 418.369 426.355 Q 417.813 425.755 416.865 425.755 Z  M 417.285 434.954 L 417.285 434.954 L 417.285 434.954 Q 414.648 434.954 413.164 433.499 L 413.164 433.499 L 413.164 433.499 Q 411.68 432.044 411.68 429.378 L 411.68 429.378 L 411.68 429.378 Q 411.68 426.634 413.052 425.135 L 413.052 425.135 L 413.052 425.135 Q 414.424 423.636 416.846 423.636 L 416.846 423.636 L 416.846 423.636 Q 419.16 423.636 420.449 424.954 L 420.449 424.954 L 420.449 424.954 Q 421.738 426.272 421.738 428.597 L 421.738 428.597 L 421.738 430.042 L 414.697 430.042 L 414.697 430.042 Q 414.746 431.312 415.449 432.024 L 415.449 432.024 L 415.449 432.024 Q 416.152 432.737 417.422 432.737 L 417.422 432.737 L 417.422 432.737 Q 418.408 432.737 419.287 432.532 L 419.287 432.532 L 419.287 432.532 Q 420.166 432.327 421.123 431.878 L 421.123 431.878 L 421.123 434.183 L 421.123 434.183 Q 420.342 434.573 419.453 434.764 L 419.453 434.764 L 419.453 434.764 Q 418.564 434.954 417.285 434.954 Z  M 430.254 423.636 L 430.254 423.636 L 430.254 423.636 Q 430.859 423.636 431.26 423.724 L 431.26 423.724 L 431.035 426.517 L 431.035 426.517 Q 430.674 426.419 430.156 426.419 L 430.156 426.419 L 430.156 426.419 Q 428.73 426.419 427.935 427.151 L 427.935 427.151 L 427.935 427.151 Q 427.139 427.884 427.139 429.202 L 427.139 429.202 L 427.139 434.759 L 424.16 434.759 L 424.16 423.841 L 426.416 423.841 L 426.855 425.677 L 427.002 425.677 L 427.002 425.677 Q 427.51 424.759 428.374 424.197 L 428.374 424.197 L 428.374 424.197 Q 429.238 423.636 430.254 423.636 Z  M 437.842 432.581 L 437.842 432.581 L 437.842 432.581 Q 438.623 432.581 439.717 432.239 L 439.717 432.239 L 439.717 434.456 L 439.717 434.456 Q 438.604 434.954 436.982 434.954 L 436.982 434.954 L 436.982 434.954 Q 435.195 434.954 434.38 434.051 L 434.38 434.051 L 434.38 434.051 Q 433.564 433.147 433.564 431.341 L 433.564 431.341 L 433.564 426.077 L 432.139 426.077 L 432.139 424.817 L 433.779 423.821 L 434.639 421.517 L 436.543 421.517 L 436.543 423.841 L 439.6 423.841 L 439.6 426.077 L 436.543 426.077 L 436.543 431.341 L 436.543 431.341 Q 436.543 431.976 436.899 432.278 L 436.899 432.278 L 436.899 432.278 Q 437.256 432.581 437.842 432.581 Z  M 444.297 429.28 L 444.297 429.28 L 444.297 429.28 Q 444.297 430.901 444.829 431.731 L 444.829 431.731 L 444.829 431.731 Q 445.361 432.562 446.563 432.562 L 446.563 432.562 L 446.563 432.562 Q 447.754 432.562 448.276 431.736 L 448.276 431.736 L 448.276 431.736 Q 448.799 430.911 448.799 429.28 L 448.799 429.28 L 448.799 429.28 Q 448.799 427.659 448.271 426.849 L 448.271 426.849 L 448.271 426.849 Q 447.744 426.038 446.543 426.038 L 446.543 426.038 L 446.543 426.038 Q 445.352 426.038 444.824 426.844 L 444.824 426.844 L 444.824 426.844 Q 444.297 427.649 444.297 429.28 Z  M 451.846 429.28 L 451.846 429.28 L 451.846 429.28 Q 451.846 431.946 450.439 433.45 L 450.439 433.45 L 450.439 433.45 Q 449.033 434.954 446.523 434.954 L 446.523 434.954 L 446.523 434.954 Q 444.951 434.954 443.75 434.266 L 443.75 434.266 L 443.75 434.266 Q 442.549 433.577 441.904 432.288 L 441.904 432.288 L 441.904 432.288 Q 441.26 430.999 441.26 429.28 L 441.26 429.28 L 441.26 429.28 Q 441.26 426.604 442.656 425.12 L 442.656 425.12 L 442.656 425.12 Q 444.053 423.636 446.582 423.636 L 446.582 423.636 L 446.582 423.636 Q 448.154 423.636 449.355 424.319 L 449.355 424.319 L 449.355 424.319 Q 450.557 425.003 451.201 426.282 L 451.201 426.282 L 451.201 426.282 Q 451.846 427.562 451.846 429.28 Z  M 454.18 421.019 L 454.18 421.019 L 454.18 421.019 Q 454.18 419.563 455.801 419.563 L 455.801 419.563 L 455.801 419.563 Q 457.422 419.563 457.422 421.019 L 457.422 421.019 L 457.422 421.019 Q 457.422 421.712 457.017 422.098 L 457.017 422.098 L 457.017 422.098 Q 456.611 422.483 455.801 422.483 L 455.801 422.483 L 455.801 422.483 Q 454.18 422.483 454.18 421.019 Z  M 457.285 423.841 L 457.285 434.759 L 454.307 434.759 L 454.307 423.841 L 457.285 423.841 Z  M 466.504 423.636 L 466.504 423.636 L 466.504 423.636 Q 467.109 423.636 467.51 423.724 L 467.51 423.724 L 467.285 426.517 L 467.285 426.517 Q 466.924 426.419 466.406 426.419 L 466.406 426.419 L 466.406 426.419 Q 464.98 426.419 464.185 427.151 L 464.185 427.151 L 464.185 427.151 Q 463.389 427.884 463.389 429.202 L 463.389 429.202 L 463.389 434.759 L 460.41 434.759 L 460.41 423.841 L 462.666 423.841 L 463.105 425.677 L 463.252 425.677 L 463.252 425.677 Q 463.76 424.759 464.624 424.197 L 464.624 424.197 L 464.624 424.197 Q 465.488 423.636 466.504 423.636 Z  M 474.014 425.755 L 474.014 425.755 L 474.014 425.755 Q 473.066 425.755 472.529 426.355 L 472.529 426.355 L 472.529 426.355 Q 471.992 426.956 471.914 428.06 L 471.914 428.06 L 476.094 428.06 L 476.094 428.06 Q 476.074 426.956 475.518 426.355 L 475.518 426.355 L 475.518 426.355 Q 474.961 425.755 474.014 425.755 Z  M 474.434 434.954 L 474.434 434.954 L 474.434 434.954 Q 471.797 434.954 470.313 433.499 L 470.313 433.499 L 470.313 433.499 Q 468.828 432.044 468.828 429.378 L 468.828 429.378 L 468.828 429.378 Q 468.828 426.634 470.2 425.135 L 470.2 425.135 L 470.2 425.135 Q 471.572 423.636 473.994 423.636 L 473.994 423.636 L 473.994 423.636 Q 476.309 423.636 477.598 424.954 L 477.598 424.954 L 477.598 424.954 Q 478.887 426.272 478.887 428.597 L 478.887 428.597 L 478.887 430.042 L 471.846 430.042 L 471.846 430.042 Q 471.895 431.312 472.598 432.024 L 472.598 432.024 L 472.598 432.024 Q 473.301 432.737 474.57 432.737 L 474.57 432.737 L 474.57 432.737 Q 475.557 432.737 476.436 432.532 L 476.436 432.532 L 476.436 432.532 Q 477.314 432.327 478.271 431.878 L 478.271 431.878 L 478.271 434.183 L 478.271 434.183 Q 477.49 434.573 476.602 434.764 L 476.602 434.764 L 476.602 434.764 Q 475.713 434.954 474.434 434.954 Z " fill-rule="evenodd" fill="rgb(0,0,0)"/><path d="M 331.269 293 L 575.731 293 C 584.71 293 592 300.29 592 309.269 L 592 336.731 C 592 345.71 584.71 353 575.731 353 L 331.269 353 C 322.29 353 315 345.71 315 336.731 L 315 309.269 C 315 300.29 322.29 293 331.269 293 Z" style="stroke:none;fill:#FFEE7D;stroke-linecap:square;stroke-miterlimit:3;opacity:0.69;"/><path d="M 331.269 293 L 575.731 293 C 584.71 293 592 300.29 592 309.269 L 592 336.731 C 592 345.71 584.71 353 575.731 353 L 331.269 353 C 322.29 353 315 345.71 315 336.731 L 315 309.269 C 315 300.29 322.29 293 331.269 293 Z" style="fill:none;stroke:#000000;stroke-width:1.6855342301554246;stroke-linecap:square;stroke-miterlimit:3;"/><path d=" M 464.063 315.563 L 464.063 330.759 L 461.084 330.759 L 461.084 315.563 L 464.063 315.563 Z  M 469.561 325.28 L 469.561 325.28 L 469.561 325.28 Q 469.561 326.901 470.093 327.731 L 470.093 327.731 L 470.093 327.731 Q 470.625 328.562 471.826 328.562 L 471.826 328.562 L 471.826 328.562 Q 473.018 328.562 473.54 327.736 L 473.54 327.736 L 473.54 327.736 Q 474.063 326.911 474.063 325.28 L 474.063 325.28 L 474.063 325.28 Q 474.063 323.659 473.535 322.849 L 473.535 322.849 L 473.535 322.849 Q 473.008 322.038 471.807 322.038 L 471.807 322.038 L 471.807 322.038 Q 470.615 322.038 470.088 322.844 L 470.088 322.844 L 470.088 322.844 Q 469.561 323.649 469.561 325.28 Z  M 477.109 325.28 L 477.109 325.28 L 477.109 325.28 Q 477.109 327.946 475.703 329.45 L 475.703 329.45 L 475.703 329.45 Q 474.297 330.954 471.787 330.954 L 471.787 330.954 L 471.787 330.954 Q 470.215 330.954 469.014 330.266 L 469.014 330.266 L 469.014 330.266 Q 467.813 329.577 467.168 328.288 L 467.168 328.288 L 467.168 328.288 Q 466.523 326.999 466.523 325.28 L 466.523 325.28 L 466.523 325.28 Q 466.523 322.604 467.92 321.12 L 467.92 321.12 L 467.92 321.12 Q 469.316 319.636 471.846 319.636 L 471.846 319.636 L 471.846 319.636 Q 473.418 319.636 474.619 320.319 L 474.619 320.319 L 474.619 320.319 Q 475.82 321.003 476.465 322.282 L 476.465 322.282 L 476.465 322.282 Q 477.109 323.562 477.109 325.28 Z  M 484.004 330.954 L 484.004 330.954 L 484.004 330.954 Q 478.906 330.954 478.906 325.358 L 478.906 325.358 L 478.906 325.358 Q 478.906 322.575 480.293 321.105 L 480.293 321.105 L 480.293 321.105 Q 481.68 319.636 484.268 319.636 L 484.268 319.636 L 484.268 319.636 Q 486.162 319.636 487.666 320.378 L 487.666 320.378 L 486.787 322.683 L 486.787 322.683 Q 486.084 322.399 485.479 322.219 L 485.479 322.219 L 485.479 322.219 Q 484.873 322.038 484.268 322.038 L 484.268 322.038 L 484.268 322.038 Q 481.943 322.038 481.943 325.339 L 481.943 325.339 L 481.943 325.339 Q 481.943 328.542 484.268 328.542 L 484.268 328.542 L 484.268 328.542 Q 485.127 328.542 485.859 328.313 L 485.859 328.313 L 485.859 328.313 Q 486.592 328.083 487.324 327.595 L 487.324 327.595 L 487.324 330.144 L 487.324 330.144 Q 486.602 330.603 485.864 330.778 L 485.864 330.778 L 485.864 330.778 Q 485.127 330.954 484.004 330.954 Z  M 498.867 330.759 L 496.787 330.759 L 496.211 329.274 L 496.133 329.274 L 496.133 329.274 Q 495.381 330.222 494.585 330.588 L 494.585 330.588 L 494.585 330.588 Q 493.789 330.954 492.51 330.954 L 492.51 330.954 L 492.51 330.954 Q 490.938 330.954 490.034 330.056 L 490.034 330.056 L 490.034 330.056 Q 489.131 329.157 489.131 327.497 L 489.131 327.497 L 489.131 327.497 Q 489.131 325.759 490.347 324.934 L 490.347 324.934 L 490.347 324.934 Q 491.563 324.108 494.014 324.021 L 494.014 324.021 L 495.908 323.962 L 495.908 323.483 L 495.908 323.483 Q 495.908 321.823 494.209 321.823 L 494.209 321.823 L 494.209 321.823 Q 492.9 321.823 491.133 322.614 L 491.133 322.614 L 490.146 320.603 L 490.146 320.603 Q 492.031 319.616 494.326 319.616 L 494.326 319.616 L 494.326 319.616 Q 496.523 319.616 497.695 320.573 L 497.695 320.573 L 497.695 320.573 Q 498.867 321.53 498.867 323.483 L 498.867 323.483 L 498.867 330.759 Z  M 495.908 326.599 L 495.908 325.7 L 494.756 325.739 L 494.756 325.739 Q 493.457 325.778 492.822 326.208 L 492.822 326.208 L 492.822 326.208 Q 492.188 326.638 492.188 327.517 L 492.188 327.517 L 492.188 327.517 Q 492.188 328.776 493.633 328.776 L 493.633 328.776 L 493.633 328.776 Q 494.668 328.776 495.288 328.181 L 495.288 328.181 L 495.288 328.181 Q 495.908 327.585 495.908 326.599 L 495.908 326.599 Z  M 504.912 315.563 L 504.912 330.759 L 501.934 330.759 L 501.934 315.563 L 504.912 315.563 Z  M 403.35 330.759 L 400.322 330.759 L 400.322 316.481 L 403.35 316.481 L 403.35 330.759 Z  M 416.787 323.64 L 416.787 330.759 L 413.809 330.759 L 413.809 324.382 L 413.809 324.382 Q 413.809 323.2 413.389 322.609 L 413.389 322.609 L 413.389 322.609 Q 412.969 322.019 412.051 322.019 L 412.051 322.019 L 412.051 322.019 Q 410.801 322.019 410.244 322.854 L 410.244 322.854 L 410.244 322.854 Q 409.688 323.688 409.688 325.622 L 409.688 325.622 L 409.688 330.759 L 406.709 330.759 L 406.709 319.841 L 408.984 319.841 L 409.385 321.237 L 409.551 321.237 L 409.551 321.237 Q 410.049 320.446 410.923 320.041 L 410.923 320.041 L 410.923 320.041 Q 411.797 319.636 412.91 319.636 L 412.91 319.636 L 412.91 319.636 Q 414.814 319.636 415.801 320.666 L 415.801 320.666 L 415.801 320.666 Q 416.787 321.696 416.787 323.64 L 416.787 323.64 Z  M 423.311 330.954 L 423.311 330.954 L 423.311 330.954 Q 421.387 330.954 420.288 329.46 L 420.288 329.46 L 420.288 329.46 Q 419.189 327.966 419.189 325.319 L 419.189 325.319 L 419.189 325.319 Q 419.189 322.634 420.308 321.135 L 420.308 321.135 L 420.308 321.135 Q 421.426 319.636 423.389 319.636 L 423.389 319.636 L 423.389 319.636 Q 425.449 319.636 426.533 321.237 L 426.533 321.237 L 426.631 321.237 L 426.631 321.237 Q 426.406 320.017 426.406 319.06 L 426.406 319.06 L 426.406 315.563 L 429.395 315.563 L 429.395 330.759 L 427.109 330.759 L 426.533 329.343 L 426.406 329.343 L 426.406 329.343 Q 425.391 330.954 423.311 330.954 Z  M 424.355 328.581 L 424.355 328.581 L 424.355 328.581 Q 425.498 328.581 426.03 327.917 L 426.03 327.917 L 426.03 327.917 Q 426.563 327.253 426.611 325.661 L 426.611 325.661 L 426.611 325.339 L 426.611 325.339 Q 426.611 323.581 426.069 322.819 L 426.069 322.819 L 426.069 322.819 Q 425.527 322.058 424.307 322.058 L 424.307 322.058 L 424.307 322.058 Q 423.311 322.058 422.759 322.902 L 422.759 322.902 L 422.759 322.902 Q 422.207 323.747 422.207 325.358 L 422.207 325.358 L 422.207 325.358 Q 422.207 326.97 422.764 327.775 L 422.764 327.775 L 422.764 327.775 Q 423.32 328.581 424.355 328.581 Z  M 437.031 321.755 L 437.031 321.755 L 437.031 321.755 Q 436.084 321.755 435.547 322.355 L 435.547 322.355 L 435.547 322.355 Q 435.01 322.956 434.932 324.06 L 434.932 324.06 L 439.111 324.06 L 439.111 324.06 Q 439.092 322.956 438.535 322.355 L 438.535 322.355 L 438.535 322.355 Q 437.979 321.755 437.031 321.755 Z  M 437.451 330.954 L 437.451 330.954 L 437.451 330.954 Q 434.814 330.954 433.33 329.499 L 433.33 329.499 L 433.33 329.499 Q 431.846 328.044 431.846 325.378 L 431.846 325.378 L 431.846 325.378 Q 431.846 322.634 433.218 321.135 L 433.218 321.135 L 433.218 321.135 Q 434.59 319.636 437.012 319.636 L 437.012 319.636 L 437.012 319.636 Q 439.326 319.636 440.615 320.954 L 440.615 320.954 L 440.615 320.954 Q 441.904 322.272 441.904 324.597 L 441.904 324.597 L 441.904 326.042 L 434.863 326.042 L 434.863 326.042 Q 434.912 327.312 435.615 328.024 L 435.615 328.024 L 435.615 328.024 Q 436.318 328.737 437.588 328.737 L 437.588 328.737 L 437.588 328.737 Q 438.574 328.737 439.453 328.532 L 439.453 328.532 L 439.453 328.532 Q 440.332 328.327 441.289 327.878 L 441.289 327.878 L 441.289 330.183 L 441.289 330.183 Q 440.508 330.573 439.619 330.764 L 439.619 330.764 L 439.619 330.764 Q 438.73 330.954 437.451 330.954 Z  M 442.861 330.759 L 446.563 325.183 L 443.047 319.841 L 446.426 319.841 L 448.545 323.317 L 450.684 319.841 L 454.063 319.841 L 450.508 325.183 L 454.229 330.759 L 450.84 330.759 L 448.545 327.019 L 446.24 330.759 L 442.861 330.759 Z " fill-rule="evenodd" fill="rgb(0,0,0)"/><path d="M 331.269 189 L 575.731 189 C 584.71 189 592 196.29 592 205.269 L 592 232.731 C 592 241.71 584.71 249 575.731 249 L 331.269 249 C 322.29 249 315 241.71 315 232.731 L 315 205.269 C 315 196.29 322.29 189 331.269 189 Z" style="stroke:none;fill:#A9E185;stroke-linecap:square;stroke-miterlimit:3;opacity:0.51;"/><path d="M 331.269 189 L 575.731 189 C 584.71 189 592 196.29 592 205.269 L 592 232.731 C 592 241.71 584.71 249 575.731 249 L 331.269 249 C 322.29 249 315 241.71 315 232.731 L 315 205.269 C 315 196.29 322.29 189 331.269 189 Z" style="fill:none;stroke:#000000;stroke-width:1.6855342301554246;stroke-linecap:square;stroke-miterlimit:3;"/><path d=" M 489.976 211.563 L 489.976 226.759 L 486.997 226.759 L 486.997 211.563 L 489.976 211.563 Z  M 495.474 221.28 L 495.474 221.28 L 495.474 221.28 Q 495.474 222.901 496.006 223.731 L 496.006 223.731 L 496.006 223.731 Q 496.538 224.562 497.739 224.562 L 497.739 224.562 L 497.739 224.562 Q 498.931 224.562 499.453 223.736 L 499.453 223.736 L 499.453 223.736 Q 499.976 222.911 499.976 221.28 L 499.976 221.28 L 499.976 221.28 Q 499.976 219.659 499.448 218.849 L 499.448 218.849 L 499.448 218.849 Q 498.921 218.038 497.72 218.038 L 497.72 218.038 L 497.72 218.038 Q 496.528 218.038 496.001 218.844 L 496.001 218.844 L 496.001 218.844 Q 495.474 219.649 495.474 221.28 Z  M 503.022 221.28 L 503.022 221.28 L 503.022 221.28 Q 503.022 223.946 501.616 225.45 L 501.616 225.45 L 501.616 225.45 Q 500.21 226.954 497.7 226.954 L 497.7 226.954 L 497.7 226.954 Q 496.128 226.954 494.927 226.266 L 494.927 226.266 L 494.927 226.266 Q 493.726 225.577 493.081 224.288 L 493.081 224.288 L 493.081 224.288 Q 492.437 222.999 492.437 221.28 L 492.437 221.28 L 492.437 221.28 Q 492.437 218.604 493.833 217.12 L 493.833 217.12 L 493.833 217.12 Q 495.229 215.636 497.759 215.636 L 497.759 215.636 L 497.759 215.636 Q 499.331 215.636 500.532 216.319 L 500.532 216.319 L 500.532 216.319 Q 501.733 217.003 502.378 218.282 L 502.378 218.282 L 502.378 218.282 Q 503.022 219.562 503.022 221.28 Z  M 509.917 226.954 L 509.917 226.954 L 509.917 226.954 Q 504.819 226.954 504.819 221.358 L 504.819 221.358 L 504.819 221.358 Q 504.819 218.575 506.206 217.105 L 506.206 217.105 L 506.206 217.105 Q 507.593 215.636 510.181 215.636 L 510.181 215.636 L 510.181 215.636 Q 512.075 215.636 513.579 216.378 L 513.579 216.378 L 512.7 218.683 L 512.7 218.683 Q 511.997 218.399 511.392 218.219 L 511.392 218.219 L 511.392 218.219 Q 510.786 218.038 510.181 218.038 L 510.181 218.038 L 510.181 218.038 Q 507.856 218.038 507.856 221.339 L 507.856 221.339 L 507.856 221.339 Q 507.856 224.542 510.181 224.542 L 510.181 224.542 L 510.181 224.542 Q 511.04 224.542 511.772 224.313 L 511.772 224.313 L 511.772 224.313 Q 512.505 224.083 513.237 223.595 L 513.237 223.595 L 513.237 226.144 L 513.237 226.144 Q 512.515 226.603 511.777 226.778 L 511.777 226.778 L 511.777 226.778 Q 511.04 226.954 509.917 226.954 Z  M 524.78 226.759 L 522.7 226.759 L 522.124 225.274 L 522.046 225.274 L 522.046 225.274 Q 521.294 226.222 520.498 226.588 L 520.498 226.588 L 520.498 226.588 Q 519.702 226.954 518.423 226.954 L 518.423 226.954 L 518.423 226.954 Q 516.851 226.954 515.947 226.056 L 515.947 226.056 L 515.947 226.056 Q 515.044 225.157 515.044 223.497 L 515.044 223.497 L 515.044 223.497 Q 515.044 221.759 516.26 220.934 L 516.26 220.934 L 516.26 220.934 Q 517.476 220.108 519.927 220.021 L 519.927 220.021 L 521.821 219.962 L 521.821 219.483 L 521.821 219.483 Q 521.821 217.823 520.122 217.823 L 520.122 217.823 L 520.122 217.823 Q 518.813 217.823 517.046 218.614 L 517.046 218.614 L 516.06 216.603 L 516.06 216.603 Q 517.944 215.616 520.239 215.616 L 520.239 215.616 L 520.239 215.616 Q 522.437 215.616 523.608 216.573 L 523.608 216.573 L 523.608 216.573 Q 524.78 217.53 524.78 219.483 L 524.78 219.483 L 524.78 226.759 Z  M 521.821 222.599 L 521.821 221.7 L 520.669 221.739 L 520.669 221.739 Q 519.37 221.778 518.735 222.208 L 518.735 222.208 L 518.735 222.208 Q 518.101 222.638 518.101 223.517 L 518.101 223.517 L 518.101 223.517 Q 518.101 224.776 519.546 224.776 L 519.546 224.776 L 519.546 224.776 Q 520.581 224.776 521.201 224.181 L 521.201 224.181 L 521.201 224.181 Q 521.821 223.585 521.821 222.599 L 521.821 222.599 Z  M 530.825 211.563 L 530.825 226.759 L 527.847 226.759 L 527.847 211.563 L 530.825 211.563 Z  M 377.437 214.962 L 377.437 218.819 L 378.413 218.819 L 378.413 218.819 Q 379.849 218.819 380.532 218.341 L 380.532 218.341 L 380.532 218.341 Q 381.216 217.862 381.216 216.837 L 381.216 216.837 L 381.216 216.837 Q 381.216 215.821 380.518 215.392 L 380.518 215.392 L 380.518 215.392 Q 379.819 214.962 378.354 214.962 L 378.354 214.962 L 377.437 214.962 Z  M 379.048 221.28 L 377.437 221.28 L 377.437 226.759 L 374.409 226.759 L 374.409 212.481 L 378.569 212.481 L 378.569 212.481 Q 381.479 212.481 382.876 213.541 L 382.876 213.541 L 382.876 213.541 Q 384.272 214.601 384.272 216.759 L 384.272 216.759 L 384.272 216.759 Q 384.272 218.019 383.579 219 L 383.579 219 L 383.579 219 Q 382.886 219.981 381.616 220.538 L 381.616 220.538 L 381.616 220.538 Q 384.839 225.353 385.815 226.759 L 385.815 226.759 L 382.456 226.759 L 379.048 221.28 Z  M 391.899 217.755 L 391.899 217.755 L 391.899 217.755 Q 390.952 217.755 390.415 218.355 L 390.415 218.355 L 390.415 218.355 Q 389.878 218.956 389.8 220.06 L 389.8 220.06 L 393.979 220.06 L 393.979 220.06 Q 393.96 218.956 393.403 218.355 L 393.403 218.355 L 393.403 218.355 Q 392.847 217.755 391.899 217.755 Z  M 392.319 226.954 L 392.319 226.954 L 392.319 226.954 Q 389.683 226.954 388.198 225.499 L 388.198 225.499 L 388.198 225.499 Q 386.714 224.044 386.714 221.378 L 386.714 221.378 L 386.714 221.378 Q 386.714 218.634 388.086 217.135 L 388.086 217.135 L 388.086 217.135 Q 389.458 215.636 391.88 215.636 L 391.88 215.636 L 391.88 215.636 Q 394.194 215.636 395.483 216.954 L 395.483 216.954 L 395.483 216.954 Q 396.772 218.272 396.772 220.597 L 396.772 220.597 L 396.772 222.042 L 389.731 222.042 L 389.731 222.042 Q 389.78 223.312 390.483 224.024 L 390.483 224.024 L 390.483 224.024 Q 391.187 224.737 392.456 224.737 L 392.456 224.737 L 392.456 224.737 Q 393.442 224.737 394.321 224.532 L 394.321 224.532 L 394.321 224.532 Q 395.2 224.327 396.157 223.878 L 396.157 223.878 L 396.157 226.183 L 396.157 226.183 Q 395.376 226.573 394.487 226.764 L 394.487 226.764 L 394.487 226.764 Q 393.599 226.954 392.319 226.954 Z  M 405.19 226.954 L 405.19 226.954 L 405.19 226.954 Q 403.267 226.954 402.173 225.558 L 402.173 225.558 L 402.017 225.558 L 402.017 225.558 Q 402.173 226.925 402.173 227.14 L 402.173 227.14 L 402.173 231.563 L 399.194 231.563 L 399.194 215.841 L 401.616 215.841 L 402.036 217.257 L 402.173 217.257 L 402.173 217.257 Q 403.218 215.636 405.269 215.636 L 405.269 215.636 L 405.269 215.636 Q 407.202 215.636 408.296 217.13 L 408.296 217.13 L 408.296 217.13 Q 409.39 218.624 409.39 221.28 L 409.39 221.28 L 409.39 221.28 Q 409.39 223.028 408.877 224.317 L 408.877 224.317 L 408.877 224.317 Q 408.364 225.606 407.417 226.28 L 407.417 226.28 L 407.417 226.28 Q 406.47 226.954 405.19 226.954 Z  M 404.312 218.019 L 404.312 218.019 L 404.312 218.019 Q 403.208 218.019 402.7 218.697 L 402.7 218.697 L 402.7 218.697 Q 402.192 219.376 402.173 220.938 L 402.173 220.938 L 402.173 221.261 L 402.173 221.261 Q 402.173 223.019 402.695 223.78 L 402.695 223.78 L 402.695 223.78 Q 403.218 224.542 404.351 224.542 L 404.351 224.542 L 404.351 224.542 Q 406.353 224.542 406.353 221.241 L 406.353 221.241 L 406.353 221.241 Q 406.353 219.63 405.859 218.824 L 405.859 218.824 L 405.859 218.824 Q 405.366 218.019 404.312 218.019 Z  M 414.224 221.28 L 414.224 221.28 L 414.224 221.28 Q 414.224 222.901 414.756 223.731 L 414.756 223.731 L 414.756 223.731 Q 415.288 224.562 416.489 224.562 L 416.489 224.562 L 416.489 224.562 Q 417.681 224.562 418.203 223.736 L 418.203 223.736 L 418.203 223.736 Q 418.726 222.911 418.726 221.28 L 418.726 221.28 L 418.726 221.28 Q 418.726 219.659 418.198 218.849 L 418.198 218.849 L 418.198 218.849 Q 417.671 218.038 416.47 218.038 L 416.47 218.038 L 416.47 218.038 Q 415.278 218.038 414.751 218.844 L 414.751 218.844 L 414.751 218.844 Q 414.224 219.649 414.224 221.28 Z  M 421.772 221.28 L 421.772 221.28 L 421.772 221.28 Q 421.772 223.946 420.366 225.45 L 420.366 225.45 L 420.366 225.45 Q 418.96 226.954 416.45 226.954 L 416.45 226.954 L 416.45 226.954 Q 414.878 226.954 413.677 226.266 L 413.677 226.266 L 413.677 226.266 Q 412.476 225.577 411.831 224.288 L 411.831 224.288 L 411.831 224.288 Q 411.187 222.999 411.187 221.28 L 411.187 221.28 L 411.187 221.28 Q 411.187 218.604 412.583 217.12 L 412.583 217.12 L 412.583 217.12 Q 413.979 215.636 416.509 215.636 L 416.509 215.636 L 416.509 215.636 Q 418.081 215.636 419.282 216.319 L 419.282 216.319 L 419.282 216.319 Q 420.483 217.003 421.128 218.282 L 421.128 218.282 L 421.128 218.282 Q 421.772 219.562 421.772 221.28 Z  M 431.851 223.517 L 431.851 223.517 L 431.851 223.517 Q 431.851 225.196 430.684 226.075 L 430.684 226.075 L 430.684 226.075 Q 429.517 226.954 427.192 226.954 L 427.192 226.954 L 427.192 226.954 Q 426.001 226.954 425.161 226.793 L 425.161 226.793 L 425.161 226.793 Q 424.321 226.632 423.589 226.319 L 423.589 226.319 L 423.589 223.858 L 423.589 223.858 Q 424.419 224.249 425.459 224.513 L 425.459 224.513 L 425.459 224.513 Q 426.499 224.776 427.29 224.776 L 427.29 224.776 L 427.29 224.776 Q 428.911 224.776 428.911 223.839 L 428.911 223.839 L 428.911 223.839 Q 428.911 223.487 428.696 223.268 L 428.696 223.268 L 428.696 223.268 Q 428.481 223.048 427.954 222.77 L 427.954 222.77 L 427.954 222.77 Q 427.427 222.491 426.548 222.12 L 426.548 222.12 L 426.548 222.12 Q 425.288 221.593 424.697 221.144 L 424.697 221.144 L 424.697 221.144 Q 424.106 220.694 423.838 220.113 L 423.838 220.113 L 423.838 220.113 Q 423.569 219.532 423.569 218.683 L 423.569 218.683 L 423.569 218.683 Q 423.569 217.228 424.697 216.432 L 424.697 216.432 L 424.697 216.432 Q 425.825 215.636 427.896 215.636 L 427.896 215.636 L 427.896 215.636 Q 429.868 215.636 431.733 216.495 L 431.733 216.495 L 430.835 218.644 L 430.835 218.644 Q 430.015 218.292 429.302 218.067 L 429.302 218.067 L 429.302 218.067 Q 428.589 217.843 427.847 217.843 L 427.847 217.843 L 427.847 217.843 Q 426.528 217.843 426.528 218.556 L 426.528 218.556 L 426.528 218.556 Q 426.528 218.956 426.953 219.249 L 426.953 219.249 L 426.953 219.249 Q 427.378 219.542 428.813 220.118 L 428.813 220.118 L 428.813 220.118 Q 430.093 220.636 430.688 221.085 L 430.688 221.085 L 430.688 221.085 Q 431.284 221.534 431.567 222.12 L 431.567 222.12 L 431.567 222.12 Q 431.851 222.706 431.851 223.517 Z  M 434.048 213.019 L 434.048 213.019 L 434.048 213.019 Q 434.048 211.563 435.669 211.563 L 435.669 211.563 L 435.669 211.563 Q 437.29 211.563 437.29 213.019 L 437.29 213.019 L 437.29 213.019 Q 437.29 213.712 436.885 214.098 L 436.885 214.098 L 436.885 214.098 Q 436.479 214.483 435.669 214.483 L 435.669 214.483 L 435.669 214.483 Q 434.048 214.483 434.048 213.019 Z  M 437.153 215.841 L 437.153 226.759 L 434.175 226.759 L 434.175 215.841 L 437.153 215.841 Z  M 444.878 224.581 L 444.878 224.581 L 444.878 224.581 Q 445.659 224.581 446.753 224.239 L 446.753 224.239 L 446.753 226.456 L 446.753 226.456 Q 445.64 226.954 444.019 226.954 L 444.019 226.954 L 444.019 226.954 Q 442.231 226.954 441.416 226.051 L 441.416 226.051 L 441.416 226.051 Q 440.601 225.147 440.601 223.341 L 440.601 223.341 L 440.601 218.077 L 439.175 218.077 L 439.175 216.817 L 440.815 215.821 L 441.675 213.517 L 443.579 213.517 L 443.579 215.841 L 446.636 215.841 L 446.636 218.077 L 443.579 218.077 L 443.579 223.341 L 443.579 223.341 Q 443.579 223.976 443.936 224.278 L 443.936 224.278 L 443.936 224.278 Q 444.292 224.581 444.878 224.581 Z  M 451.333 221.28 L 451.333 221.28 L 451.333 221.28 Q 451.333 222.901 451.865 223.731 L 451.865 223.731 L 451.865 223.731 Q 452.397 224.562 453.599 224.562 L 453.599 224.562 L 453.599 224.562 Q 454.79 224.562 455.313 223.736 L 455.313 223.736 L 455.313 223.736 Q 455.835 222.911 455.835 221.28 L 455.835 221.28 L 455.835 221.28 Q 455.835 219.659 455.308 218.849 L 455.308 218.849 L 455.308 218.849 Q 454.78 218.038 453.579 218.038 L 453.579 218.038 L 453.579 218.038 Q 452.388 218.038 451.86 218.844 L 451.86 218.844 L 451.86 218.844 Q 451.333 219.649 451.333 221.28 Z  M 458.882 221.28 L 458.882 221.28 L 458.882 221.28 Q 458.882 223.946 457.476 225.45 L 457.476 225.45 L 457.476 225.45 Q 456.069 226.954 453.56 226.954 L 453.56 226.954 L 453.56 226.954 Q 451.987 226.954 450.786 226.266 L 450.786 226.266 L 450.786 226.266 Q 449.585 225.577 448.94 224.288 L 448.94 224.288 L 448.94 224.288 Q 448.296 222.999 448.296 221.28 L 448.296 221.28 L 448.296 221.28 Q 448.296 218.604 449.692 217.12 L 449.692 217.12 L 449.692 217.12 Q 451.089 215.636 453.618 215.636 L 453.618 215.636 L 453.618 215.636 Q 455.19 215.636 456.392 216.319 L 456.392 216.319 L 456.392 216.319 Q 457.593 217.003 458.237 218.282 L 458.237 218.282 L 458.237 218.282 Q 458.882 219.562 458.882 221.28 Z  M 467.437 215.636 L 467.437 215.636 L 467.437 215.636 Q 468.042 215.636 468.442 215.724 L 468.442 215.724 L 468.218 218.517 L 468.218 218.517 Q 467.856 218.419 467.339 218.419 L 467.339 218.419 L 467.339 218.419 Q 465.913 218.419 465.117 219.151 L 465.117 219.151 L 465.117 219.151 Q 464.321 219.884 464.321 221.202 L 464.321 221.202 L 464.321 226.759 L 461.343 226.759 L 461.343 215.841 L 463.599 215.841 L 464.038 217.677 L 464.185 217.677 L 464.185 217.677 Q 464.692 216.759 465.557 216.197 L 465.557 216.197 L 465.557 216.197 Q 466.421 215.636 467.437 215.636 Z  M 473.198 226.681 L 468.862 215.841 L 472.124 215.841 L 474.185 221.983 L 474.185 221.983 Q 474.448 222.784 474.546 223.878 L 474.546 223.878 L 474.604 223.878 L 474.604 223.878 Q 474.712 222.872 475.024 221.983 L 475.024 221.983 L 477.046 215.841 L 480.239 215.841 L 475.62 228.155 L 475.62 228.155 Q 474.985 229.864 473.809 230.714 L 473.809 230.714 L 473.809 230.714 Q 472.632 231.563 471.06 231.563 L 471.06 231.563 L 471.06 231.563 Q 470.288 231.563 469.546 231.397 L 469.546 231.397 L 469.546 229.034 L 469.546 229.034 Q 470.083 229.161 470.718 229.161 L 470.718 229.161 L 470.718 229.161 Q 471.509 229.161 472.1 228.678 L 472.1 228.678 L 472.1 228.678 Q 472.69 228.194 473.022 227.218 L 473.022 227.218 L 473.198 226.681 Z " fill-rule="evenodd" fill="rgb(0,0,0)"/><path d="M 331.269 43 L 575.731 43 C 584.71 43 592 50.29 592 59.269 L 592 86.731 C 592 95.71 584.71 103 575.731 103 L 331.269 103 C 322.29 103 315 95.71 315 86.731 L 315 59.269 C 315 50.29 322.29 43 331.269 43 Z" style="stroke:none;fill:#9FC4FF;stroke-linecap:square;stroke-miterlimit:3;"/><path d="M 331.269 43 L 575.731 43 C 584.71 43 592 50.29 592 59.269 L 592 86.731 C 592 95.71 584.71 103 575.731 103 L 331.269 103 C 322.29 103 315 95.71 315 86.731 L 315 59.269 C 315 50.29 322.29 43 331.269 43 Z" style="fill:none;stroke:#000000;stroke-width:1.6855342301554246;stroke-linecap:square;stroke-miterlimit:3;"/><path d=" M 478.286 80.954 L 478.286 80.954 L 478.286 80.954 Q 476.362 80.954 475.264 79.46 L 475.264 79.46 L 475.264 79.46 Q 474.165 77.966 474.165 75.319 L 474.165 75.319 L 474.165 75.319 Q 474.165 72.634 475.283 71.135 L 475.283 71.135 L 475.283 71.135 Q 476.401 69.636 478.364 69.636 L 478.364 69.636 L 478.364 69.636 Q 480.425 69.636 481.509 71.237 L 481.509 71.237 L 481.606 71.237 L 481.606 71.237 Q 481.382 70.017 481.382 69.06 L 481.382 69.06 L 481.382 65.563 L 484.37 65.563 L 484.37 80.759 L 482.085 80.759 L 481.509 79.343 L 481.382 79.343 L 481.382 79.343 Q 480.366 80.954 478.286 80.954 Z  M 479.331 78.581 L 479.331 78.581 L 479.331 78.581 Q 480.474 78.581 481.006 77.917 L 481.006 77.917 L 481.006 77.917 Q 481.538 77.253 481.587 75.661 L 481.587 75.661 L 481.587 75.339 L 481.587 75.339 Q 481.587 73.581 481.045 72.819 L 481.045 72.819 L 481.045 72.819 Q 480.503 72.058 479.282 72.058 L 479.282 72.058 L 479.282 72.058 Q 478.286 72.058 477.734 72.902 L 477.734 72.902 L 477.734 72.902 Q 477.183 73.747 477.183 75.358 L 477.183 75.358 L 477.183 75.358 Q 477.183 76.97 477.739 77.775 L 477.739 77.775 L 477.739 77.775 Q 478.296 78.581 479.331 78.581 Z  M 487.358 67.019 L 487.358 67.019 L 487.358 67.019 Q 487.358 65.563 488.979 65.563 L 488.979 65.563 L 488.979 65.563 Q 490.601 65.563 490.601 67.019 L 490.601 67.019 L 490.601 67.019 Q 490.601 67.712 490.195 68.098 L 490.195 68.098 L 490.195 68.098 Q 489.79 68.483 488.979 68.483 L 488.979 68.483 L 488.979 68.483 Q 487.358 68.483 487.358 67.019 Z  M 490.464 69.841 L 490.464 80.759 L 487.485 80.759 L 487.485 69.841 L 490.464 69.841 Z  M 501.206 77.517 L 501.206 77.517 L 501.206 77.517 Q 501.206 79.196 500.039 80.075 L 500.039 80.075 L 500.039 80.075 Q 498.872 80.954 496.548 80.954 L 496.548 80.954 L 496.548 80.954 Q 495.356 80.954 494.517 80.793 L 494.517 80.793 L 494.517 80.793 Q 493.677 80.632 492.944 80.319 L 492.944 80.319 L 492.944 77.858 L 492.944 77.858 Q 493.774 78.249 494.814 78.513 L 494.814 78.513 L 494.814 78.513 Q 495.854 78.776 496.646 78.776 L 496.646 78.776 L 496.646 78.776 Q 498.267 78.776 498.267 77.839 L 498.267 77.839 L 498.267 77.839 Q 498.267 77.487 498.052 77.268 L 498.052 77.268 L 498.052 77.268 Q 497.837 77.048 497.31 76.77 L 497.31 76.77 L 497.31 76.77 Q 496.782 76.491 495.903 76.12 L 495.903 76.12 L 495.903 76.12 Q 494.644 75.593 494.053 75.144 L 494.053 75.144 L 494.053 75.144 Q 493.462 74.694 493.193 74.113 L 493.193 74.113 L 493.193 74.113 Q 492.925 73.532 492.925 72.683 L 492.925 72.683 L 492.925 72.683 Q 492.925 71.228 494.053 70.432 L 494.053 70.432 L 494.053 70.432 Q 495.181 69.636 497.251 69.636 L 497.251 69.636 L 497.251 69.636 Q 499.224 69.636 501.089 70.495 L 501.089 70.495 L 500.19 72.644 L 500.19 72.644 Q 499.37 72.292 498.657 72.067 L 498.657 72.067 L 498.657 72.067 Q 497.944 71.843 497.202 71.843 L 497.202 71.843 L 497.202 71.843 Q 495.884 71.843 495.884 72.556 L 495.884 72.556 L 495.884 72.556 Q 495.884 72.956 496.309 73.249 L 496.309 73.249 L 496.309 73.249 Q 496.733 73.542 498.169 74.118 L 498.169 74.118 L 498.169 74.118 Q 499.448 74.636 500.044 75.085 L 500.044 75.085 L 500.044 75.085 Q 500.64 75.534 500.923 76.12 L 500.923 76.12 L 500.923 76.12 Q 501.206 76.706 501.206 77.517 Z  M 508.13 78.581 L 508.13 78.581 L 508.13 78.581 Q 508.911 78.581 510.005 78.239 L 510.005 78.239 L 510.005 80.456 L 510.005 80.456 Q 508.892 80.954 507.271 80.954 L 507.271 80.954 L 507.271 80.954 Q 505.483 80.954 504.668 80.051 L 504.668 80.051 L 504.668 80.051 Q 503.853 79.147 503.853 77.341 L 503.853 77.341 L 503.853 72.077 L 502.427 72.077 L 502.427 70.817 L 504.067 69.821 L 504.927 67.517 L 506.831 67.517 L 506.831 69.841 L 509.888 69.841 L 509.888 72.077 L 506.831 72.077 L 506.831 77.341 L 506.831 77.341 Q 506.831 77.976 507.187 78.278 L 507.187 78.278 L 507.187 78.278 Q 507.544 78.581 508.13 78.581 Z  M 521.226 80.759 L 519.146 80.759 L 518.569 79.274 L 518.491 79.274 L 518.491 79.274 Q 517.739 80.222 516.943 80.588 L 516.943 80.588 L 516.943 80.588 Q 516.147 80.954 514.868 80.954 L 514.868 80.954 L 514.868 80.954 Q 513.296 80.954 512.393 80.056 L 512.393 80.056 L 512.393 80.056 Q 511.489 79.157 511.489 77.497 L 511.489 77.497 L 511.489 77.497 Q 511.489 75.759 512.705 74.934 L 512.705 74.934 L 512.705 74.934 Q 513.921 74.108 516.372 74.021 L 516.372 74.021 L 518.267 73.962 L 518.267 73.483 L 518.267 73.483 Q 518.267 71.823 516.567 71.823 L 516.567 71.823 L 516.567 71.823 Q 515.259 71.823 513.491 72.614 L 513.491 72.614 L 512.505 70.603 L 512.505 70.603 Q 514.39 69.616 516.685 69.616 L 516.685 69.616 L 516.685 69.616 Q 518.882 69.616 520.054 70.573 L 520.054 70.573 L 520.054 70.573 Q 521.226 71.53 521.226 73.483 L 521.226 73.483 L 521.226 80.759 Z  M 518.267 76.599 L 518.267 75.7 L 517.114 75.739 L 517.114 75.739 Q 515.815 75.778 515.181 76.208 L 515.181 76.208 L 515.181 76.208 Q 514.546 76.638 514.546 77.517 L 514.546 77.517 L 514.546 77.517 Q 514.546 78.776 515.991 78.776 L 515.991 78.776 L 515.991 78.776 Q 517.026 78.776 517.646 78.181 L 517.646 78.181 L 517.646 78.181 Q 518.267 77.585 518.267 76.599 L 518.267 76.599 Z  M 534.37 73.64 L 534.37 80.759 L 531.392 80.759 L 531.392 74.382 L 531.392 74.382 Q 531.392 73.2 530.972 72.609 L 530.972 72.609 L 530.972 72.609 Q 530.552 72.019 529.634 72.019 L 529.634 72.019 L 529.634 72.019 Q 528.384 72.019 527.827 72.854 L 527.827 72.854 L 527.827 72.854 Q 527.271 73.688 527.271 75.622 L 527.271 75.622 L 527.271 80.759 L 524.292 80.759 L 524.292 69.841 L 526.567 69.841 L 526.968 71.237 L 527.134 71.237 L 527.134 71.237 Q 527.632 70.446 528.506 70.041 L 528.506 70.041 L 528.506 70.041 Q 529.38 69.636 530.493 69.636 L 530.493 69.636 L 530.493 69.636 Q 532.397 69.636 533.384 70.666 L 533.384 70.666 L 533.384 70.666 Q 534.37 71.696 534.37 73.64 L 534.37 73.64 Z  M 542.036 78.581 L 542.036 78.581 L 542.036 78.581 Q 542.817 78.581 543.911 78.239 L 543.911 78.239 L 543.911 80.456 L 543.911 80.456 Q 542.798 80.954 541.177 80.954 L 541.177 80.954 L 541.177 80.954 Q 539.39 80.954 538.574 80.051 L 538.574 80.051 L 538.574 80.051 Q 537.759 79.147 537.759 77.341 L 537.759 77.341 L 537.759 72.077 L 536.333 72.077 L 536.333 70.817 L 537.974 69.821 L 538.833 67.517 L 540.737 67.517 L 540.737 69.841 L 543.794 69.841 L 543.794 72.077 L 540.737 72.077 L 540.737 77.341 L 540.737 77.341 Q 540.737 77.976 541.094 78.278 L 541.094 78.278 L 541.094 78.278 Q 541.45 78.581 542.036 78.581 Z  M 365.269 68.962 L 365.269 72.819 L 366.245 72.819 L 366.245 72.819 Q 367.681 72.819 368.364 72.341 L 368.364 72.341 L 368.364 72.341 Q 369.048 71.862 369.048 70.837 L 369.048 70.837 L 369.048 70.837 Q 369.048 69.821 368.35 69.392 L 368.35 69.392 L 368.35 69.392 Q 367.651 68.962 366.187 68.962 L 366.187 68.962 L 365.269 68.962 Z  M 366.88 75.28 L 365.269 75.28 L 365.269 80.759 L 362.241 80.759 L 362.241 66.481 L 366.401 66.481 L 366.401 66.481 Q 369.312 66.481 370.708 67.541 L 370.708 67.541 L 370.708 67.541 Q 372.104 68.601 372.104 70.759 L 372.104 70.759 L 372.104 70.759 Q 372.104 72.019 371.411 73 L 371.411 73 L 371.411 73 Q 370.718 73.981 369.448 74.538 L 369.448 74.538 L 369.448 74.538 Q 372.671 79.353 373.647 80.759 L 373.647 80.759 L 370.288 80.759 L 366.88 75.28 Z  M 379.731 71.755 L 379.731 71.755 L 379.731 71.755 Q 378.784 71.755 378.247 72.355 L 378.247 72.355 L 378.247 72.355 Q 377.71 72.956 377.632 74.06 L 377.632 74.06 L 381.812 74.06 L 381.812 74.06 Q 381.792 72.956 381.235 72.355 L 381.235 72.355 L 381.235 72.355 Q 380.679 71.755 379.731 71.755 Z  M 380.151 80.954 L 380.151 80.954 L 380.151 80.954 Q 377.515 80.954 376.03 79.499 L 376.03 79.499 L 376.03 79.499 Q 374.546 78.044 374.546 75.378 L 374.546 75.378 L 374.546 75.378 Q 374.546 72.634 375.918 71.135 L 375.918 71.135 L 375.918 71.135 Q 377.29 69.636 379.712 69.636 L 379.712 69.636 L 379.712 69.636 Q 382.026 69.636 383.315 70.954 L 383.315 70.954 L 383.315 70.954 Q 384.604 72.272 384.604 74.597 L 384.604 74.597 L 384.604 76.042 L 377.563 76.042 L 377.563 76.042 Q 377.612 77.312 378.315 78.024 L 378.315 78.024 L 378.315 78.024 Q 379.019 78.737 380.288 78.737 L 380.288 78.737 L 380.288 78.737 Q 381.274 78.737 382.153 78.532 L 382.153 78.532 L 382.153 78.532 Q 383.032 78.327 383.989 77.878 L 383.989 77.878 L 383.989 80.183 L 383.989 80.183 Q 383.208 80.573 382.319 80.764 L 382.319 80.764 L 382.319 80.764 Q 381.431 80.954 380.151 80.954 Z  M 393.022 80.954 L 393.022 80.954 L 393.022 80.954 Q 391.099 80.954 390.005 79.558 L 390.005 79.558 L 389.849 79.558 L 389.849 79.558 Q 390.005 80.925 390.005 81.14 L 390.005 81.14 L 390.005 85.563 L 387.026 85.563 L 387.026 69.841 L 389.448 69.841 L 389.868 71.257 L 390.005 71.257 L 390.005 71.257 Q 391.05 69.636 393.101 69.636 L 393.101 69.636 L 393.101 69.636 Q 395.034 69.636 396.128 71.13 L 396.128 71.13 L 396.128 71.13 Q 397.222 72.624 397.222 75.28 L 397.222 75.28 L 397.222 75.28 Q 397.222 77.028 396.709 78.317 L 396.709 78.317 L 396.709 78.317 Q 396.196 79.606 395.249 80.28 L 395.249 80.28 L 395.249 80.28 Q 394.302 80.954 393.022 80.954 Z  M 392.144 72.019 L 392.144 72.019 L 392.144 72.019 Q 391.04 72.019 390.532 72.697 L 390.532 72.697 L 390.532 72.697 Q 390.024 73.376 390.005 74.938 L 390.005 74.938 L 390.005 75.261 L 390.005 75.261 Q 390.005 77.019 390.527 77.78 L 390.527 77.78 L 390.527 77.78 Q 391.05 78.542 392.183 78.542 L 392.183 78.542 L 392.183 78.542 Q 394.185 78.542 394.185 75.241 L 394.185 75.241 L 394.185 75.241 Q 394.185 73.63 393.691 72.824 L 393.691 72.824 L 393.691 72.824 Q 393.198 72.019 392.144 72.019 Z  M 402.056 75.28 L 402.056 75.28 L 402.056 75.28 Q 402.056 76.901 402.588 77.731 L 402.588 77.731 L 402.588 77.731 Q 403.12 78.562 404.321 78.562 L 404.321 78.562 L 404.321 78.562 Q 405.513 78.562 406.035 77.736 L 406.035 77.736 L 406.035 77.736 Q 406.558 76.911 406.558 75.28 L 406.558 75.28 L 406.558 75.28 Q 406.558 73.659 406.03 72.849 L 406.03 72.849 L 406.03 72.849 Q 405.503 72.038 404.302 72.038 L 404.302 72.038 L 404.302 72.038 Q 403.11 72.038 402.583 72.844 L 402.583 72.844 L 402.583 72.844 Q 402.056 73.649 402.056 75.28 Z  M 409.604 75.28 L 409.604 75.28 L 409.604 75.28 Q 409.604 77.946 408.198 79.45 L 408.198 79.45 L 408.198 79.45 Q 406.792 80.954 404.282 80.954 L 404.282 80.954 L 404.282 80.954 Q 402.71 80.954 401.509 80.266 L 401.509 80.266 L 401.509 80.266 Q 400.308 79.577 399.663 78.288 L 399.663 78.288 L 399.663 78.288 Q 399.019 76.999 399.019 75.28 L 399.019 75.28 L 399.019 75.28 Q 399.019 72.604 400.415 71.12 L 400.415 71.12 L 400.415 71.12 Q 401.812 69.636 404.341 69.636 L 404.341 69.636 L 404.341 69.636 Q 405.913 69.636 407.114 70.319 L 407.114 70.319 L 407.114 70.319 Q 408.315 71.003 408.96 72.282 L 408.96 72.282 L 408.96 72.282 Q 409.604 73.562 409.604 75.28 Z  M 419.683 77.517 L 419.683 77.517 L 419.683 77.517 Q 419.683 79.196 418.516 80.075 L 418.516 80.075 L 418.516 80.075 Q 417.349 80.954 415.024 80.954 L 415.024 80.954 L 415.024 80.954 Q 413.833 80.954 412.993 80.793 L 412.993 80.793 L 412.993 80.793 Q 412.153 80.632 411.421 80.319 L 411.421 80.319 L 411.421 77.858 L 411.421 77.858 Q 412.251 78.249 413.291 78.513 L 413.291 78.513 L 413.291 78.513 Q 414.331 78.776 415.122 78.776 L 415.122 78.776 L 415.122 78.776 Q 416.743 78.776 416.743 77.839 L 416.743 77.839 L 416.743 77.839 Q 416.743 77.487 416.528 77.268 L 416.528 77.268 L 416.528 77.268 Q 416.313 77.048 415.786 76.77 L 415.786 76.77 L 415.786 76.77 Q 415.259 76.491 414.38 76.12 L 414.38 76.12 L 414.38 76.12 Q 413.12 75.593 412.529 75.144 L 412.529 75.144 L 412.529 75.144 Q 411.938 74.694 411.67 74.113 L 411.67 74.113 L 411.67 74.113 Q 411.401 73.532 411.401 72.683 L 411.401 72.683 L 411.401 72.683 Q 411.401 71.228 412.529 70.432 L 412.529 70.432 L 412.529 70.432 Q 413.657 69.636 415.728 69.636 L 415.728 69.636 L 415.728 69.636 Q 417.7 69.636 419.565 70.495 L 419.565 70.495 L 418.667 72.644 L 418.667 72.644 Q 417.847 72.292 417.134 72.067 L 417.134 72.067 L 417.134 72.067 Q 416.421 71.843 415.679 71.843 L 415.679 71.843 L 415.679 71.843 Q 414.36 71.843 414.36 72.556 L 414.36 72.556 L 414.36 72.556 Q 414.36 72.956 414.785 73.249 L 414.785 73.249 L 414.785 73.249 Q 415.21 73.542 416.646 74.118 L 416.646 74.118 L 416.646 74.118 Q 417.925 74.636 418.521 75.085 L 418.521 75.085 L 418.521 75.085 Q 419.116 75.534 419.399 76.12 L 419.399 76.12 L 419.399 76.12 Q 419.683 76.706 419.683 77.517 Z  M 421.88 67.019 L 421.88 67.019 L 421.88 67.019 Q 421.88 65.563 423.501 65.563 L 423.501 65.563 L 423.501 65.563 Q 425.122 65.563 425.122 67.019 L 425.122 67.019 L 425.122 67.019 Q 425.122 67.712 424.717 68.098 L 424.717 68.098 L 424.717 68.098 Q 424.312 68.483 423.501 68.483 L 423.501 68.483 L 423.501 68.483 Q 421.88 68.483 421.88 67.019 Z  M 424.985 69.841 L 424.985 80.759 L 422.007 80.759 L 422.007 69.841 L 424.985 69.841 Z  M 432.71 78.581 L 432.71 78.581 L 432.71 78.581 Q 433.491 78.581 434.585 78.239 L 434.585 78.239 L 434.585 80.456 L 434.585 80.456 Q 433.472 80.954 431.851 80.954 L 431.851 80.954 L 431.851 80.954 Q 430.063 80.954 429.248 80.051 L 429.248 80.051 L 429.248 80.051 Q 428.433 79.147 428.433 77.341 L 428.433 77.341 L 428.433 72.077 L 427.007 72.077 L 427.007 70.817 L 428.647 69.821 L 429.507 67.517 L 431.411 67.517 L 431.411 69.841 L 434.468 69.841 L 434.468 72.077 L 431.411 72.077 L 431.411 77.341 L 431.411 77.341 Q 431.411 77.976 431.768 78.278 L 431.768 78.278 L 431.768 78.278 Q 432.124 78.581 432.71 78.581 Z  M 439.165 75.28 L 439.165 75.28 L 439.165 75.28 Q 439.165 76.901 439.697 77.731 L 439.697 77.731 L 439.697 77.731 Q 440.229 78.562 441.431 78.562 L 441.431 78.562 L 441.431 78.562 Q 442.622 78.562 443.145 77.736 L 443.145 77.736 L 443.145 77.736 Q 443.667 76.911 443.667 75.28 L 443.667 75.28 L 443.667 75.28 Q 443.667 73.659 443.14 72.849 L 443.14 72.849 L 443.14 72.849 Q 442.612 72.038 441.411 72.038 L 441.411 72.038 L 441.411 72.038 Q 440.22 72.038 439.692 72.844 L 439.692 72.844 L 439.692 72.844 Q 439.165 73.649 439.165 75.28 Z  M 446.714 75.28 L 446.714 75.28 L 446.714 75.28 Q 446.714 77.946 445.308 79.45 L 445.308 79.45 L 445.308 79.45 Q 443.901 80.954 441.392 80.954 L 441.392 80.954 L 441.392 80.954 Q 439.819 80.954 438.618 80.266 L 438.618 80.266 L 438.618 80.266 Q 437.417 79.577 436.772 78.288 L 436.772 78.288 L 436.772 78.288 Q 436.128 76.999 436.128 75.28 L 436.128 75.28 L 436.128 75.28 Q 436.128 72.604 437.524 71.12 L 437.524 71.12 L 437.524 71.12 Q 438.921 69.636 441.45 69.636 L 441.45 69.636 L 441.45 69.636 Q 443.022 69.636 444.224 70.319 L 444.224 70.319 L 444.224 70.319 Q 445.425 71.003 446.069 72.282 L 446.069 72.282 L 446.069 72.282 Q 446.714 73.562 446.714 75.28 Z  M 455.269 69.636 L 455.269 69.636 L 455.269 69.636 Q 455.874 69.636 456.274 69.724 L 456.274 69.724 L 456.05 72.517 L 456.05 72.517 Q 455.688 72.419 455.171 72.419 L 455.171 72.419 L 455.171 72.419 Q 453.745 72.419 452.949 73.151 L 452.949 73.151 L 452.949 73.151 Q 452.153 73.884 452.153 75.202 L 452.153 75.202 L 452.153 80.759 L 449.175 80.759 L 449.175 69.841 L 451.431 69.841 L 451.87 71.677 L 452.017 71.677 L 452.017 71.677 Q 452.524 70.759 453.389 70.197 L 453.389 70.197 L 453.389 70.197 Q 454.253 69.636 455.269 69.636 Z  M 461.03 80.681 L 456.694 69.841 L 459.956 69.841 L 462.017 75.983 L 462.017 75.983 Q 462.28 76.784 462.378 77.878 L 462.378 77.878 L 462.437 77.878 L 462.437 77.878 Q 462.544 76.872 462.856 75.983 L 462.856 75.983 L 464.878 69.841 L 468.071 69.841 L 463.452 82.155 L 463.452 82.155 Q 462.817 83.864 461.641 84.714 L 461.641 84.714 L 461.641 84.714 Q 460.464 85.563 458.892 85.563 L 458.892 85.563 L 458.892 85.563 Q 458.12 85.563 457.378 85.397 L 457.378 85.397 L 457.378 83.034 L 457.378 83.034 Q 457.915 83.161 458.55 83.161 L 458.55 83.161 L 458.55 83.161 Q 459.341 83.161 459.932 82.678 L 459.932 82.678 L 459.932 82.678 Q 460.522 82.194 460.854 81.218 L 460.854 81.218 L 461.03 80.681 Z " fill-rule="evenodd" fill="rgb(0,0,0)"/><line x1="1.124" y1="146" x2="799.207" y2="146" vector-effect="non-scaling-stroke" stroke-width="3" stroke="rgb(0,0,0)" stroke-linejoin="miter" stroke-linecap="square" stroke-miterlimit="3"/><path d=" M 58.197 451.051 C 58.197 453.558 56.17 455.585 53.663 455.585 L 26.135 455.585 C 23.629 455.585 21.602 453.558 21.602 451.051 L 21.602 379.975 C 21.602 378.035 23.193 376.444 25.133 376.444 L 54.666 376.444 C 56.606 376.444 58.197 378.035 58.197 379.975 L 58.197 388.846 L 61.641 388.846 L 61.641 379.975 C 61.641 376.117 58.502 373 54.666 373 L 25.133 373 C 21.275 373 18.158 376.139 18.158 379.975 L 18.158 451.073 C 18.158 455.476 21.732 459.05 26.135 459.05 L 53.663 459.05 C 58.066 459.05 61.641 455.476 61.641 451.073 L 61.641 446.692 L 58.197 446.692 L 58.197 451.051 L 58.197 451.051 Z  M 111.466 389.739 L 49.152 389.739 C 45.446 389.739 42.439 392.747 42.439 396.452 L 42.439 438.802 C 42.439 442.507 45.446 445.515 49.152 445.515 L 78.576 445.515 L 78.576 455.084 L 63.777 455.084 L 63.777 458.527 L 96.819 458.527 L 96.819 455.084 L 82.02 455.084 L 82.02 445.515 L 111.445 445.515 C 115.15 445.515 118.158 442.507 118.158 438.802 L 118.158 396.452 C 118.179 392.747 115.172 389.739 111.466 389.739 L 111.466 389.739 Z  M 114.736 438.802 C 114.736 440.611 113.275 442.071 111.466 442.071 L 49.152 442.071 C 47.343 442.071 45.882 440.611 45.882 438.802 L 45.882 396.452 C 45.882 394.643 47.343 393.183 49.152 393.183 L 111.466 393.183 C 113.275 393.183 114.736 394.643 114.736 396.452 L 114.736 438.802 L 114.736 438.802 Z  M 48.411 436.143 L 112.207 436.143 L 112.207 398.392 L 48.411 398.392 L 48.411 436.143 Z  M 50.132 400.114 L 110.486 400.114 L 110.486 434.443 L 50.132 434.443 L 50.132 400.114 Z  M 80.32 397.869 C 81.497 397.869 82.456 396.91 82.456 395.733 C 82.456 394.556 81.497 393.597 80.32 393.597 C 79.143 393.597 78.184 394.556 78.184 395.733 C 78.184 396.91 79.143 397.869 80.32 397.869 Z  M 80.32 395.341 C 80.538 395.341 80.734 395.515 80.734 395.755 C 80.734 395.995 80.56 396.169 80.32 396.169 C 80.08 396.169 79.906 395.995 79.906 395.755 C 79.906 395.515 80.08 395.341 80.32 395.341 Z  M 80.32 436.819 C 78.99 436.819 77.901 437.908 77.901 439.238 C 77.901 440.567 78.99 441.657 80.32 441.657 C 81.649 441.657 82.739 440.567 82.739 439.238 C 82.717 437.887 81.649 436.819 80.32 436.819 Z  M 80.32 439.914 C 79.928 439.914 79.622 439.608 79.622 439.216 C 79.622 438.824 79.928 438.519 80.32 438.519 C 80.712 438.519 81.017 438.824 81.017 439.216 C 81.017 439.608 80.69 439.914 80.32 439.914 Z  M 37.556 449.046 C 37.556 450.376 38.646 451.465 39.976 451.465 C 41.305 451.465 42.395 450.376 42.395 449.046 C 42.395 447.717 41.305 446.627 39.976 446.627 C 38.624 446.649 37.556 447.717 37.556 449.046 Z  M 40.651 449.046 C 40.651 449.438 40.346 449.744 39.954 449.744 C 39.561 449.744 39.256 449.438 39.256 449.046 C 39.256 448.654 39.561 448.349 39.954 448.349 C 40.346 448.349 40.651 448.676 40.651 449.046 Z  M 53.053 388.606 L 53.053 383.418 L 26.135 383.418 L 26.135 393.532 L 41.392 393.532 L 41.392 391.81 L 27.857 391.81 L 27.857 385.14 L 51.331 385.14 L 51.331 388.606 L 53.053 388.606 L 53.053 388.606 Z " fill="rgb(0,0,0)"/><path d=" M 68.163 16.544 C 58.293 16.544 49.332 18.313 42.7 21.298 C 39.388 22.786 36.655 24.59 34.669 26.708 C 32.681 28.822 31.445 31.331 31.445 34.029 L 31.445 51.187 C 31.431 51.295 31.431 51.405 31.445 51.514 L 31.445 68.672 C 31.431 68.78 31.431 68.89 31.445 68.999 L 31.445 84.735 C 31.445 87.433 32.681 89.94 34.669 92.058 C 36.655 94.173 39.388 95.978 42.7 97.466 C 49.332 100.45 58.293 102.22 68.163 102.22 C 78.033 102.22 86.994 100.45 93.626 97.466 C 96.938 95.978 99.671 94.173 101.657 92.058 C 103.645 89.94 104.881 87.431 104.881 84.735 L 104.881 34.029 C 104.881 31.331 103.645 28.824 101.657 26.706 C 99.671 24.59 96.938 22.786 93.626 21.298 C 86.994 18.313 78.033 16.544 68.163 16.544 Z  M 68.163 20.041 C 77.608 20.041 86.125 21.81 92.15 24.522 C 95.161 25.874 97.539 27.46 99.088 29.112 C 100.641 30.764 101.384 32.382 101.384 34.029 C 101.384 35.674 100.639 37.293 99.088 38.947 C 97.539 40.6 95.161 42.184 92.15 43.535 C 86.125 46.247 77.608 48.017 68.163 48.017 C 58.718 48.017 50.201 46.247 44.175 43.535 C 41.165 42.184 38.787 40.598 37.236 38.947 C 35.687 37.293 34.942 35.672 34.942 34.029 C 34.942 32.383 35.687 30.764 37.237 29.11 C 38.787 27.458 41.165 25.874 44.175 24.521 C 50.201 21.812 58.718 20.041 68.163 20.041 Z  M 34.942 41.624 C 36.902 43.624 39.524 45.331 42.701 46.76 C 49.332 49.744 58.293 51.514 68.163 51.514 C 78.033 51.514 86.994 49.744 93.626 46.76 C 96.801 45.333 99.424 43.624 101.384 41.624 L 101.384 51.514 C 101.384 53.159 100.639 54.778 99.088 56.432 C 97.539 58.084 95.161 59.669 92.15 61.022 C 86.125 63.732 77.608 65.502 68.163 65.502 C 58.718 65.502 50.201 63.732 44.175 61.02 C 41.165 59.669 38.787 58.083 37.236 56.43 C 35.687 54.778 34.942 53.161 34.942 51.514 C 34.955 51.405 34.955 51.294 34.942 51.185 L 34.942 41.624 Z  M 34.942 59.109 C 36.902 61.109 39.524 62.816 42.701 64.244 C 49.332 67.229 58.293 68.999 68.163 68.999 C 78.033 68.999 86.994 67.229 93.626 64.244 C 96.801 62.818 99.424 61.109 101.384 59.109 L 101.384 68.999 C 101.384 70.644 100.639 72.263 99.088 73.917 C 97.539 75.569 95.161 77.153 92.15 78.505 C 86.125 81.219 77.608 82.986 68.163 82.986 C 58.718 82.986 50.201 81.217 44.175 78.505 C 41.165 77.153 38.787 75.568 37.236 73.917 C 35.687 72.261 34.942 70.642 34.942 68.999 C 34.955 68.889 34.955 68.779 34.942 68.67 L 34.942 59.109 Z  M 34.942 76.594 C 36.902 78.594 39.524 80.301 42.701 81.729 C 49.332 84.714 58.293 86.483 68.163 86.483 C 78.033 86.483 86.994 84.714 93.626 81.729 C 96.801 80.302 99.424 78.594 101.384 76.594 L 101.384 84.735 C 101.384 86.38 100.639 87.999 99.088 89.653 C 97.539 91.306 95.161 92.89 92.15 94.241 C 86.125 96.955 77.608 98.723 68.163 98.723 C 58.718 98.723 50.201 96.953 44.175 94.241 C 41.165 92.89 38.787 91.304 37.236 89.653 C 35.687 87.999 34.942 86.378 34.942 84.735 L 34.942 76.594 Z " fill="rgb(0,0,0)"/><path d=" M 34.482 112.58 L 34.482 116.438 L 35.459 116.438 L 35.459 116.438 Q 36.894 116.438 37.578 115.959 L 37.578 115.959 L 37.578 115.959 Q 38.261 115.48 38.261 114.455 L 38.261 114.455 L 38.261 114.455 Q 38.261 113.439 37.563 113.01 L 37.563 113.01 L 37.563 113.01 Q 36.865 112.58 35.4 112.58 L 35.4 112.58 L 34.482 112.58 Z  M 36.093 118.898 L 34.482 118.898 L 34.482 124.377 L 31.455 124.377 L 31.455 110.1 L 35.615 110.1 L 35.615 110.1 Q 38.525 110.1 39.921 111.159 L 39.921 111.159 L 39.921 111.159 Q 41.318 112.219 41.318 114.377 L 41.318 114.377 L 41.318 114.377 Q 41.318 115.637 40.625 116.618 L 40.625 116.618 L 40.625 116.618 Q 39.931 117.6 38.662 118.156 L 38.662 118.156 L 38.662 118.156 Q 41.884 122.971 42.861 124.377 L 42.861 124.377 L 39.502 124.377 L 36.093 118.898 Z  M 48.945 115.373 L 48.945 115.373 L 48.945 115.373 Q 47.998 115.373 47.461 115.974 L 47.461 115.974 L 47.461 115.974 Q 46.923 116.574 46.845 117.678 L 46.845 117.678 L 51.025 117.678 L 51.025 117.678 Q 51.005 116.574 50.449 115.974 L 50.449 115.974 L 50.449 115.974 Q 49.892 115.373 48.945 115.373 Z  M 49.365 124.572 L 49.365 124.572 L 49.365 124.572 Q 46.728 124.572 45.244 123.117 L 45.244 123.117 L 45.244 123.117 Q 43.759 121.662 43.759 118.996 L 43.759 118.996 L 43.759 118.996 Q 43.759 116.252 45.131 114.753 L 45.131 114.753 L 45.131 114.753 Q 46.504 113.254 48.925 113.254 L 48.925 113.254 L 48.925 113.254 Q 51.24 113.254 52.529 114.572 L 52.529 114.572 L 52.529 114.572 Q 53.818 115.891 53.818 118.215 L 53.818 118.215 L 53.818 119.66 L 46.777 119.66 L 46.777 119.66 Q 46.826 120.93 47.529 121.643 L 47.529 121.643 L 47.529 121.643 Q 48.232 122.355 49.502 122.355 L 49.502 122.355 L 49.502 122.355 Q 50.488 122.355 51.367 122.15 L 51.367 122.15 L 51.367 122.15 Q 52.246 121.945 53.203 121.496 L 53.203 121.496 L 53.203 123.801 L 53.203 123.801 Q 52.421 124.191 51.533 124.382 L 51.533 124.382 L 51.533 124.382 Q 50.644 124.572 49.365 124.572 Z  M 66.015 118.898 L 66.015 124.377 L 63.037 124.377 L 63.037 118 L 63.037 118 Q 63.037 116.818 62.641 116.228 L 62.641 116.228 L 62.641 116.228 Q 62.246 115.637 61.396 115.637 L 61.396 115.637 L 61.396 115.637 Q 60.254 115.637 59.736 116.477 L 59.736 116.477 L 59.736 116.477 Q 59.218 117.316 59.218 119.24 L 59.218 119.24 L 59.218 124.377 L 56.24 124.377 L 56.24 113.459 L 58.515 113.459 L 58.916 114.855 L 59.082 114.855 L 59.082 114.855 Q 59.521 114.104 60.351 113.679 L 60.351 113.679 L 60.351 113.679 Q 61.181 113.254 62.255 113.254 L 62.255 113.254 L 62.255 113.254 Q 64.707 113.254 65.576 114.855 L 65.576 114.855 L 65.839 114.855 L 65.839 114.855 Q 66.279 114.094 67.133 113.674 L 67.133 113.674 L 67.133 113.674 Q 67.988 113.254 69.062 113.254 L 69.062 113.254 L 69.062 113.254 Q 70.918 113.254 71.87 114.206 L 71.87 114.206 L 71.87 114.206 Q 72.822 115.158 72.822 117.258 L 72.822 117.258 L 72.822 124.377 L 69.834 124.377 L 69.834 118 L 69.834 118 Q 69.834 116.818 69.438 116.228 L 69.438 116.228 L 69.438 116.228 Q 69.043 115.637 68.193 115.637 L 68.193 115.637 L 68.193 115.637 Q 67.099 115.637 66.557 116.418 L 66.557 116.418 L 66.557 116.418 Q 66.015 117.199 66.015 118.898 L 66.015 118.898 Z  M 78.252 118.898 L 78.252 118.898 L 78.252 118.898 Q 78.252 120.52 78.784 121.35 L 78.784 121.35 L 78.784 121.35 Q 79.316 122.18 80.517 122.18 L 80.517 122.18 L 80.517 122.18 Q 81.709 122.18 82.231 121.354 L 82.231 121.354 L 82.231 121.354 Q 82.754 120.529 82.754 118.898 L 82.754 118.898 L 82.754 118.898 Q 82.754 117.277 82.226 116.467 L 82.226 116.467 L 82.226 116.467 Q 81.699 115.656 80.498 115.656 L 80.498 115.656 L 80.498 115.656 Q 79.306 115.656 78.779 116.462 L 78.779 116.462 L 78.779 116.462 Q 78.252 117.268 78.252 118.898 Z  M 85.8 118.898 L 85.8 118.898 L 85.8 118.898 Q 85.8 121.564 84.394 123.068 L 84.394 123.068 L 84.394 123.068 Q 82.988 124.572 80.478 124.572 L 80.478 124.572 L 80.478 124.572 Q 78.906 124.572 77.705 123.884 L 77.705 123.884 L 77.705 123.884 Q 76.504 123.195 75.859 121.906 L 75.859 121.906 L 75.859 121.906 Q 75.214 120.617 75.214 118.898 L 75.214 118.898 L 75.214 118.898 Q 75.214 116.223 76.611 114.738 L 76.611 114.738 L 76.611 114.738 Q 78.007 113.254 80.537 113.254 L 80.537 113.254 L 80.537 113.254 Q 82.109 113.254 83.31 113.938 L 83.31 113.938 L 83.31 113.938 Q 84.511 114.621 85.156 115.9 L 85.156 115.9 L 85.156 115.9 Q 85.8 117.18 85.8 118.898 Z  M 92.861 122.199 L 92.861 122.199 L 92.861 122.199 Q 93.642 122.199 94.736 121.857 L 94.736 121.857 L 94.736 124.074 L 94.736 124.074 Q 93.623 124.572 92.002 124.572 L 92.002 124.572 L 92.002 124.572 Q 90.214 124.572 89.399 123.669 L 89.399 123.669 L 89.399 123.669 Q 88.584 122.766 88.584 120.959 L 88.584 120.959 L 88.584 115.695 L 87.158 115.695 L 87.158 114.436 L 88.798 113.439 L 89.658 111.135 L 91.562 111.135 L 91.562 113.459 L 94.619 113.459 L 94.619 115.695 L 91.562 115.695 L 91.562 120.959 L 91.562 120.959 Q 91.562 121.594 91.919 121.896 L 91.919 121.896 L 91.919 121.896 Q 92.275 122.199 92.861 122.199 Z  M 101.464 115.373 L 101.464 115.373 L 101.464 115.373 Q 100.517 115.373 99.98 115.974 L 99.98 115.974 L 99.98 115.974 Q 99.443 116.574 99.365 117.678 L 99.365 117.678 L 103.545 117.678 L 103.545 117.678 Q 103.525 116.574 102.968 115.974 L 102.968 115.974 L 102.968 115.974 Q 102.412 115.373 101.464 115.373 Z  M 101.884 124.572 L 101.884 124.572 L 101.884 124.572 Q 99.248 124.572 97.763 123.117 L 97.763 123.117 L 97.763 123.117 Q 96.279 121.662 96.279 118.996 L 96.279 118.996 L 96.279 118.996 Q 96.279 116.252 97.651 114.753 L 97.651 114.753 L 97.651 114.753 Q 99.023 113.254 101.445 113.254 L 101.445 113.254 L 101.445 113.254 Q 103.759 113.254 105.048 114.572 L 105.048 114.572 L 105.048 114.572 Q 106.337 115.891 106.337 118.215 L 106.337 118.215 L 106.337 119.66 L 99.296 119.66 L 99.296 119.66 Q 99.345 120.93 100.048 121.643 L 100.048 121.643 L 100.048 121.643 Q 100.752 122.355 102.021 122.355 L 102.021 122.355 L 102.021 122.355 Q 103.007 122.355 103.886 122.15 L 103.886 122.15 L 103.886 122.15 Q 104.765 121.945 105.722 121.496 L 105.722 121.496 L 105.722 123.801 L 105.722 123.801 Q 104.941 124.191 104.052 124.382 L 104.052 124.382 L 104.052 124.382 Q 103.164 124.572 101.884 124.572 Z " fill-rule="evenodd" fill="rgb(0,0,0)"/><path d=" M 52.273 483.427 L 43.455 483.427 L 43.455 469.15 L 46.482 469.15 L 46.482 480.927 L 52.273 480.927 L 52.273 483.427 Z  M 56.892 477.949 L 56.892 477.949 L 56.892 477.949 Q 56.892 479.57 57.424 480.4 L 57.424 480.4 L 57.424 480.4 Q 57.957 481.23 59.158 481.23 L 59.158 481.23 L 59.158 481.23 Q 60.349 481.23 60.872 480.405 L 60.872 480.405 L 60.872 480.405 Q 61.394 479.58 61.394 477.949 L 61.394 477.949 L 61.394 477.949 Q 61.394 476.328 60.867 475.517 L 60.867 475.517 L 60.867 475.517 Q 60.339 474.707 59.138 474.707 L 59.138 474.707 L 59.138 474.707 Q 57.947 474.707 57.42 475.512 L 57.42 475.512 L 57.42 475.512 Q 56.892 476.318 56.892 477.949 Z  M 64.441 477.949 L 64.441 477.949 L 64.441 477.949 Q 64.441 480.615 63.035 482.119 L 63.035 482.119 L 63.035 482.119 Q 61.629 483.623 59.119 483.623 L 59.119 483.623 L 59.119 483.623 Q 57.546 483.623 56.345 482.934 L 56.345 482.934 L 56.345 482.934 Q 55.144 482.246 54.5 480.957 L 54.5 480.957 L 54.5 480.957 Q 53.855 479.668 53.855 477.949 L 53.855 477.949 L 53.855 477.949 Q 53.855 475.273 55.252 473.789 L 55.252 473.789 L 55.252 473.789 Q 56.648 472.304 59.177 472.304 L 59.177 472.304 L 59.177 472.304 Q 60.75 472.304 61.951 472.988 L 61.951 472.988 L 61.951 472.988 Q 63.152 473.672 63.796 474.951 L 63.796 474.951 L 63.796 474.951 Q 64.441 476.23 64.441 477.949 Z  M 71.336 483.623 L 71.336 483.623 L 71.336 483.623 Q 66.238 483.623 66.238 478.027 L 66.238 478.027 L 66.238 478.027 Q 66.238 475.244 67.625 473.774 L 67.625 473.774 L 67.625 473.774 Q 69.011 472.304 71.599 472.304 L 71.599 472.304 L 71.599 472.304 Q 73.494 472.304 74.998 473.047 L 74.998 473.047 L 74.119 475.351 L 74.119 475.351 Q 73.416 475.068 72.81 474.887 L 72.81 474.887 L 72.81 474.887 Q 72.205 474.707 71.599 474.707 L 71.599 474.707 L 71.599 474.707 Q 69.275 474.707 69.275 478.007 L 69.275 478.007 L 69.275 478.007 Q 69.275 481.211 71.599 481.211 L 71.599 481.211 L 71.599 481.211 Q 72.459 481.211 73.191 480.981 L 73.191 480.981 L 73.191 480.981 Q 73.923 480.752 74.656 480.263 L 74.656 480.263 L 74.656 482.812 L 74.656 482.812 Q 73.933 483.271 73.196 483.447 L 73.196 483.447 L 73.196 483.447 Q 72.459 483.623 71.336 483.623 Z  M 86.199 483.427 L 84.119 483.427 L 83.543 481.943 L 83.464 481.943 L 83.464 481.943 Q 82.712 482.89 81.917 483.257 L 81.917 483.257 L 81.917 483.257 Q 81.121 483.623 79.841 483.623 L 79.841 483.623 L 79.841 483.623 Q 78.269 483.623 77.366 482.724 L 77.366 482.724 L 77.366 482.724 Q 76.462 481.826 76.462 480.166 L 76.462 480.166 L 76.462 480.166 Q 76.462 478.427 77.678 477.602 L 77.678 477.602 L 77.678 477.602 Q 78.894 476.777 81.345 476.689 L 81.345 476.689 L 83.24 476.631 L 83.24 476.152 L 83.24 476.152 Q 83.24 474.492 81.541 474.492 L 81.541 474.492 L 81.541 474.492 Q 80.232 474.492 78.464 475.283 L 78.464 475.283 L 77.478 473.271 L 77.478 473.271 Q 79.363 472.285 81.658 472.285 L 81.658 472.285 L 81.658 472.285 Q 83.855 472.285 85.027 473.242 L 85.027 473.242 L 85.027 473.242 Q 86.199 474.199 86.199 476.152 L 86.199 476.152 L 86.199 483.427 Z  M 83.24 479.267 L 83.24 478.369 L 82.087 478.408 L 82.087 478.408 Q 80.789 478.447 80.154 478.877 L 80.154 478.877 L 80.154 478.877 Q 79.519 479.306 79.519 480.185 L 79.519 480.185 L 79.519 480.185 Q 79.519 481.445 80.964 481.445 L 80.964 481.445 L 80.964 481.445 Q 82 481.445 82.62 480.849 L 82.62 480.849 L 82.62 480.849 Q 83.24 480.254 83.24 479.267 L 83.24 479.267 Z  M 92.244 468.232 L 92.244 483.427 L 89.265 483.427 L 89.265 468.232 L 92.244 468.232 Z " fill-rule="evenodd" fill="rgb(0,0,0)"/><line x1="633" y1="444.948" x2="633" y2="86.618" vector-effect="non-scaling-stroke" stroke-width="3" stroke="rgb(20,106,47)" stroke-linejoin="round" stroke-linecap="square" stroke-miterlimit="3"/><path d=" M 626.072 440.42 C 626.072 436.596 629.176 433.492 633 433.492 C 636.824 433.492 639.928 436.596 639.928 440.42 C 639.928 444.244 636.824 447.348 633 447.348 C 629.176 447.348 626.072 444.244 626.072 440.42 Z " fill="rgb(20,106,47)" stroke="none"/><path d=" M 641.66 93.603 L 633 76.283 L 624.34 93.603 Z " fill="rgb(20,106,47)" stroke="none"/></g></svg>