<?xml version="1.0" standalone="no"?><!-- Generator: Gravit.io --><svg xmlns="http://www.w3.org/2000/svg" xmlns:xlink="http://www.w3.org/1999/xlink" style="isolation:isolate" viewBox="0 0 800 400" width="800" height="400"><defs><clipPath id="_clipPath_sX4DXAl6gSVlsvJLADaemAU0vmhPEwvC"><rect width="800" height="400"/></clipPath></defs><g clip-path="url(#_clipPath_sX4DXAl6gSVlsvJLADaemAU0vmhPEwvC)"><path d=" M 279.899 83.837 L 309.917 137.361 L 398.979 137.209" fill="none" vector-effect="non-scaling-stroke" stroke-width="2" stroke="rgb(0,0,0)" stroke-linejoin="miter" stroke-linecap="square" stroke-miterlimit="3"/><g id="Bmaster"><path d="M 449.5 285.226 L 597.399 285.226 C 602.887 285.226 607.342 289.681 607.342 295.169 L 607.342 312.283 C 607.342 317.771 602.887 322.226 597.399 322.226 L 449.5 322.226 C 444.013 322.226 439.557 317.771 439.557 312.283 L 439.557 295.169 C 439.557 289.681 444.013 285.226 449.5 285.226 Z" style="stroke:none;fill:#9FC4FF;stroke-miterlimit:10;"/><path d="M 449.5 285.226 L 597.399 285.226 C 602.887 285.226 607.342 289.681 607.342 295.169 L 607.342 312.283 C 607.342 317.771 602.887 322.226 597.399 322.226 L 449.5 322.226 C 444.013 322.226 439.557 317.771 439.557 312.283 L 439.557 295.169 C 439.557 289.681 444.013 285.226 449.5 285.226 Z" style="fill:none;stroke:#000000;stroke-width:1.7165048661891558;stroke-linecap:square;stroke-miterlimit:3;"/><path d=" M 456.838 305.506 L 456.838 305.506 L 456.838 305.506 Q 456.838 307.127 457.39 307.957 L 457.39 307.957 L 457.39 307.957 Q 457.942 308.787 459.188 308.787 L 459.188 308.787 L 459.188 308.787 Q 460.423 308.787 460.965 307.962 L 460.965 307.962 L 460.965 307.962 Q 461.507 307.137 461.507 305.506 L 461.507 305.506 L 461.507 305.506 Q 461.507 303.885 460.96 303.074 L 460.96 303.074 L 460.96 303.074 Q 460.413 302.264 459.168 302.264 L 459.168 302.264 L 459.168 302.264 Q 457.932 302.264 457.385 303.07 L 457.385 303.07 L 457.385 303.07 Q 456.838 303.875 456.838 305.506 Z  M 464.667 305.506 L 464.667 305.506 L 464.667 305.506 Q 464.667 308.172 463.209 309.676 L 463.209 309.676 L 463.209 309.676 Q 461.75 311.18 459.147 311.18 L 459.147 311.18 L 459.147 311.18 Q 457.517 311.18 456.271 310.491 L 456.271 310.491 L 456.271 310.491 Q 455.025 309.803 454.357 308.514 L 454.357 308.514 L 454.357 308.514 Q 453.688 307.225 453.688 305.506 L 453.688 305.506 L 453.688 305.506 Q 453.688 302.83 455.137 301.346 L 455.137 301.346 L 455.137 301.346 Q 456.585 299.862 459.208 299.862 L 459.208 299.862 L 459.208 299.862 Q 460.839 299.862 462.084 300.545 L 462.084 300.545 L 462.084 300.545 Q 463.33 301.229 463.998 302.508 L 463.998 302.508 L 463.998 302.508 Q 464.667 303.787 464.667 305.506 Z  M 473.539 299.862 L 473.539 299.862 L 473.539 299.862 Q 474.167 299.862 474.582 299.949 L 474.582 299.949 L 474.349 302.742 L 474.349 302.742 Q 473.974 302.645 473.438 302.645 L 473.438 302.645 L 473.438 302.645 Q 471.959 302.645 471.134 303.377 L 471.134 303.377 L 471.134 303.377 Q 470.308 304.11 470.308 305.428 L 470.308 305.428 L 470.308 310.985 L 467.219 310.985 L 467.219 300.067 L 469.559 300.067 L 470.014 301.903 L 470.166 301.903 L 470.166 301.903 Q 470.693 300.985 471.589 300.423 L 471.589 300.423 L 471.589 300.423 Q 472.486 299.862 473.539 299.862 Z  M 476.506 297.244 L 476.506 297.244 L 476.506 297.244 Q 476.506 295.789 478.188 295.789 L 478.188 295.789 L 478.188 295.789 Q 479.869 295.789 479.869 297.244 L 479.869 297.244 L 479.869 297.244 Q 479.869 297.938 479.448 298.323 L 479.448 298.323 L 479.448 298.323 Q 479.028 298.709 478.188 298.709 L 478.188 298.709 L 478.188 298.709 Q 476.506 298.709 476.506 297.244 Z  M 479.727 300.067 L 479.727 310.985 L 476.638 310.985 L 476.638 300.067 L 479.727 300.067 L 479.727 300.067 Z  M 488.872 300.067 L 492.822 300.067 L 492.822 301.58 L 491.05 302.02 L 491.05 302.02 Q 491.536 302.752 491.536 303.66 L 491.536 303.66 L 491.536 303.66 Q 491.536 305.418 490.265 306.4 L 490.265 306.4 L 490.265 306.4 Q 488.994 307.381 486.735 307.381 L 486.735 307.381 L 486.178 307.352 L 485.723 307.303 L 485.723 307.303 Q 485.247 307.655 485.247 308.084 L 485.247 308.084 L 485.247 308.084 Q 485.247 308.729 486.948 308.729 L 486.948 308.729 L 488.872 308.729 L 488.872 308.729 Q 490.736 308.729 491.713 309.5 L 491.713 309.5 L 491.713 309.5 Q 492.691 310.272 492.691 311.766 L 492.691 311.766 L 492.691 311.766 Q 492.691 313.68 491.035 314.735 L 491.035 314.735 L 491.035 314.735 Q 489.379 315.789 486.28 315.789 L 486.28 315.789 L 486.28 315.789 Q 483.91 315.789 482.659 314.993 L 482.659 314.993 L 482.659 314.993 Q 481.408 314.197 481.408 312.762 L 481.408 312.762 L 481.408 312.762 Q 481.408 311.776 482.046 311.112 L 482.046 311.112 L 482.046 311.112 Q 482.684 310.447 483.92 310.164 L 483.92 310.164 L 483.92 310.164 Q 483.444 309.969 483.089 309.525 L 483.089 309.525 L 483.089 309.525 Q 482.735 309.08 482.735 308.582 L 482.735 308.582 L 482.735 308.582 Q 482.735 307.957 483.11 307.542 L 483.11 307.542 L 483.11 307.542 Q 483.484 307.127 484.193 306.727 L 484.193 306.727 L 484.193 306.727 Q 483.302 306.356 482.78 305.535 L 482.78 305.535 L 482.78 305.535 Q 482.259 304.715 482.259 303.602 L 482.259 303.602 L 482.259 303.602 Q 482.259 301.815 483.464 300.838 L 483.464 300.838 L 483.464 300.838 Q 484.669 299.862 486.908 299.862 L 486.908 299.862 L 486.908 299.862 Q 487.384 299.862 488.037 299.945 L 488.037 299.945 L 488.037 299.945 Q 488.69 300.028 488.872 300.067 L 488.872 300.067 L 488.872 300.067 Z  M 484.082 312.528 L 484.082 312.528 L 484.082 312.528 Q 484.082 313.143 484.695 313.494 L 484.695 313.494 L 484.695 313.494 Q 485.307 313.846 486.411 313.846 L 486.411 313.846 L 486.411 313.846 Q 488.072 313.846 489.014 313.406 L 489.014 313.406 L 489.014 313.406 Q 489.956 312.967 489.956 312.205 L 489.956 312.205 L 489.956 312.205 Q 489.956 311.59 489.399 311.356 L 489.399 311.356 L 489.399 311.356 Q 488.842 311.121 487.677 311.121 L 487.677 311.121 L 486.077 311.121 L 486.077 311.121 Q 485.226 311.121 484.654 311.507 L 484.654 311.507 L 484.654 311.507 Q 484.082 311.893 484.082 312.528 Z  M 485.206 303.641 L 485.206 303.641 L 485.206 303.641 Q 485.206 304.53 485.626 305.047 L 485.626 305.047 L 485.626 305.047 Q 486.047 305.565 486.908 305.565 L 486.908 305.565 L 486.908 305.565 Q 487.779 305.565 488.184 305.047 L 488.184 305.047 L 488.184 305.047 Q 488.589 304.53 488.589 303.641 L 488.589 303.641 L 488.589 303.641 Q 488.589 301.668 486.908 301.668 L 486.908 301.668 L 486.908 301.668 Q 485.206 301.668 485.206 303.641 Z  M 494.554 297.244 L 494.554 297.244 L 494.554 297.244 Q 494.554 295.789 496.235 295.789 L 496.235 295.789 L 496.235 295.789 Q 497.916 295.789 497.916 297.244 L 497.916 297.244 L 497.916 297.244 Q 497.916 297.938 497.496 298.323 L 497.496 298.323 L 497.496 298.323 Q 497.076 298.709 496.235 298.709 L 496.235 298.709 L 496.235 298.709 Q 494.554 298.709 494.554 297.244 Z  M 497.775 300.067 L 497.775 310.985 L 494.686 310.985 L 494.686 300.067 L 497.775 300.067 L 497.775 300.067 Z  M 511.467 303.865 L 511.467 310.985 L 508.378 310.985 L 508.378 304.608 L 508.378 304.608 Q 508.378 303.426 507.943 302.835 L 507.943 302.835 L 507.943 302.835 Q 507.508 302.244 506.555 302.244 L 506.555 302.244 L 506.555 302.244 Q 505.259 302.244 504.682 303.079 L 504.682 303.079 L 504.682 303.079 Q 504.105 303.914 504.105 305.848 L 504.105 305.848 L 504.105 310.985 L 501.016 310.985 L 501.016 300.067 L 503.375 300.067 L 503.791 301.463 L 503.963 301.463 L 503.963 301.463 Q 504.479 300.672 505.386 300.267 L 505.386 300.267 L 505.386 300.267 Q 506.292 299.862 507.447 299.862 L 507.447 299.862 L 507.447 299.862 Q 509.422 299.862 510.445 300.892 L 510.445 300.892 L 510.445 300.892 Q 511.467 301.922 511.467 303.865 L 511.467 303.865 L 511.467 303.865 Z  M 518.689 296.707 L 521.494 296.707 L 515.974 310.985 L 513.169 310.985 L 518.689 296.707 L 518.689 296.707 Z  M 533.354 305.506 L 533.354 310.985 L 530.265 310.985 L 530.265 304.608 L 530.265 304.608 Q 530.265 303.426 529.854 302.835 L 529.854 302.835 L 529.854 302.835 Q 529.444 302.244 528.563 302.244 L 528.563 302.244 L 528.563 302.244 Q 527.378 302.244 526.841 303.084 L 526.841 303.084 L 526.841 303.084 Q 526.305 303.924 526.305 305.848 L 526.305 305.848 L 526.305 310.985 L 523.216 310.985 L 523.216 300.067 L 525.575 300.067 L 525.991 301.463 L 526.163 301.463 L 526.163 301.463 Q 526.619 300.711 527.48 300.286 L 527.48 300.286 L 527.48 300.286 Q 528.34 299.862 529.454 299.862 L 529.454 299.862 L 529.454 299.862 Q 531.997 299.862 532.898 301.463 L 532.898 301.463 L 533.171 301.463 L 533.171 301.463 Q 533.627 300.701 534.513 300.281 L 534.513 300.281 L 534.513 300.281 Q 535.399 299.862 536.514 299.862 L 536.514 299.862 L 536.514 299.862 Q 538.438 299.862 539.425 300.814 L 539.425 300.814 L 539.425 300.814 Q 540.413 301.766 540.413 303.865 L 540.413 303.865 L 540.413 310.985 L 537.314 310.985 L 537.314 304.608 L 537.314 304.608 Q 537.314 303.426 536.903 302.835 L 536.903 302.835 L 536.903 302.835 Q 536.493 302.244 535.612 302.244 L 535.612 302.244 L 535.612 302.244 Q 534.478 302.244 533.916 303.026 L 533.916 303.026 L 533.916 303.026 Q 533.354 303.807 533.354 305.506 L 533.354 305.506 L 533.354 305.506 Z  M 552.931 310.985 L 550.773 310.985 L 550.176 309.5 L 550.095 309.5 L 550.095 309.5 Q 549.315 310.447 548.49 310.814 L 548.49 310.814 L 548.49 310.814 Q 547.664 311.18 546.337 311.18 L 546.337 311.18 L 546.337 311.18 Q 544.707 311.18 543.77 310.281 L 543.77 310.281 L 543.77 310.281 Q 542.833 309.383 542.833 307.723 L 542.833 307.723 L 542.833 307.723 Q 542.833 305.985 544.094 305.159 L 544.094 305.159 L 544.094 305.159 Q 545.355 304.334 547.897 304.246 L 547.897 304.246 L 549.862 304.188 L 549.862 303.709 L 549.862 303.709 Q 549.862 302.049 548.1 302.049 L 548.1 302.049 L 548.1 302.049 Q 546.743 302.049 544.909 302.84 L 544.909 302.84 L 543.887 300.828 L 543.887 300.828 Q 545.841 299.842 548.221 299.842 L 548.221 299.842 L 548.221 299.842 Q 550.5 299.842 551.715 300.799 L 551.715 300.799 L 551.715 300.799 Q 552.931 301.756 552.931 303.709 L 552.931 303.709 L 552.931 310.985 L 552.931 310.985 Z  M 549.862 306.824 L 549.862 305.926 L 548.667 305.965 L 548.667 305.965 Q 547.32 306.004 546.662 306.434 L 546.662 306.434 L 546.662 306.434 Q 546.003 306.864 546.003 307.742 L 546.003 307.742 L 546.003 307.742 Q 546.003 309.002 547.502 309.002 L 547.502 309.002 L 547.502 309.002 Q 548.576 309.002 549.219 308.406 L 549.219 308.406 L 549.219 308.406 Q 549.862 307.811 549.862 306.824 L 549.862 306.824 L 549.862 306.824 Z  M 564.01 307.742 L 564.01 307.742 L 564.01 307.742 Q 564.01 309.422 562.8 310.301 L 562.8 310.301 L 562.8 310.301 Q 561.59 311.18 559.18 311.18 L 559.18 311.18 L 559.18 311.18 Q 557.944 311.18 557.073 311.019 L 557.073 311.019 L 557.073 311.019 Q 556.202 310.858 555.442 310.545 L 555.442 310.545 L 555.442 308.084 L 555.442 308.084 Q 556.303 308.475 557.382 308.739 L 557.382 308.739 L 557.382 308.739 Q 558.46 309.002 559.281 309.002 L 559.281 309.002 L 559.281 309.002 Q 560.962 309.002 560.962 308.065 L 560.962 308.065 L 560.962 308.065 Q 560.962 307.713 560.739 307.493 L 560.739 307.493 L 560.739 307.493 Q 560.516 307.274 559.969 306.995 L 559.969 306.995 L 559.969 306.995 Q 559.423 306.717 558.511 306.346 L 558.511 306.346 L 558.511 306.346 Q 557.205 305.819 556.592 305.369 L 556.592 305.369 L 556.592 305.369 Q 555.979 304.92 555.701 304.339 L 555.701 304.339 L 555.701 304.339 Q 555.422 303.758 555.422 302.908 L 555.422 302.908 L 555.422 302.908 Q 555.422 301.453 556.592 300.657 L 556.592 300.657 L 556.592 300.657 Q 557.762 299.862 559.909 299.862 L 559.909 299.862 L 559.909 299.862 Q 561.955 299.862 563.889 300.721 L 563.889 300.721 L 562.957 302.869 L 562.957 302.869 Q 562.106 302.518 561.367 302.293 L 561.367 302.293 L 561.367 302.293 Q 560.628 302.069 559.858 302.069 L 559.858 302.069 L 559.858 302.069 Q 558.491 302.069 558.491 302.781 L 558.491 302.781 L 558.491 302.781 Q 558.491 303.182 558.931 303.475 L 558.931 303.475 L 558.931 303.475 Q 559.372 303.768 560.861 304.344 L 560.861 304.344 L 560.861 304.344 Q 562.187 304.862 562.805 305.311 L 562.805 305.311 L 562.805 305.311 Q 563.423 305.76 563.717 306.346 L 563.717 306.346 L 563.717 306.346 Q 564.01 306.932 564.01 307.742 Z  M 571.191 308.807 L 571.191 308.807 L 571.191 308.807 Q 572.001 308.807 573.136 308.465 L 573.136 308.465 L 573.136 310.682 L 573.136 310.682 Q 571.981 311.18 570.3 311.18 L 570.3 311.18 L 570.3 311.18 Q 568.446 311.18 567.601 310.277 L 567.601 310.277 L 567.601 310.277 Q 566.755 309.373 566.755 307.567 L 566.755 307.567 L 566.755 302.303 L 565.276 302.303 L 565.276 301.043 L 566.978 300.047 L 567.869 297.742 L 569.844 297.742 L 569.844 300.067 L 573.014 300.067 L 573.014 302.303 L 569.844 302.303 L 569.844 307.567 L 569.844 307.567 Q 569.844 308.201 570.214 308.504 L 570.214 308.504 L 570.214 308.504 Q 570.583 308.807 571.191 308.807 Z  M 580.114 301.981 L 580.114 301.981 L 580.114 301.981 Q 579.131 301.981 578.574 302.581 L 578.574 302.581 L 578.574 302.581 Q 578.017 303.182 577.936 304.285 L 577.936 304.285 L 582.271 304.285 L 582.271 304.285 Q 582.251 303.182 581.673 302.581 L 581.673 302.581 L 581.673 302.581 Q 581.096 301.981 580.114 301.981 Z  M 580.549 311.18 L 580.549 311.18 L 580.549 311.18 Q 577.815 311.18 576.275 309.725 L 576.275 309.725 L 576.275 309.725 Q 574.736 308.27 574.736 305.604 L 574.736 305.604 L 574.736 305.604 Q 574.736 302.86 576.159 301.361 L 576.159 301.361 L 576.159 301.361 Q 577.582 299.862 580.093 299.862 L 580.093 299.862 L 580.093 299.862 Q 582.494 299.862 583.831 301.18 L 583.831 301.18 L 583.831 301.18 Q 585.167 302.498 585.167 304.822 L 585.167 304.822 L 585.167 306.268 L 577.865 306.268 L 577.865 306.268 Q 577.916 307.537 578.645 308.25 L 578.645 308.25 L 578.645 308.25 Q 579.374 308.963 580.691 308.963 L 580.691 308.963 L 580.691 308.963 Q 581.714 308.963 582.625 308.758 L 582.625 308.758 L 582.625 308.758 Q 583.537 308.553 584.529 308.104 L 584.529 308.104 L 584.529 310.408 L 584.529 310.408 Q 583.719 310.799 582.798 310.989 L 582.798 310.989 L 582.798 310.989 Q 581.876 311.18 580.549 311.18 Z  M 593.999 299.862 L 593.999 299.862 L 593.999 299.862 Q 594.627 299.862 595.042 299.949 L 595.042 299.949 L 594.809 302.742 L 594.809 302.742 Q 594.434 302.645 593.898 302.645 L 593.898 302.645 L 593.898 302.645 Q 592.419 302.645 591.594 303.377 L 591.594 303.377 L 591.594 303.377 Q 590.768 304.11 590.768 305.428 L 590.768 305.428 L 590.768 310.985 L 587.679 310.985 L 587.679 300.067 L 590.019 300.067 L 590.474 301.903 L 590.626 301.903 L 590.626 301.903 Q 591.153 300.985 592.049 300.423 L 592.049 300.423 L 592.049 300.423 Q 592.946 299.862 593.999 299.862 Z " fill-rule="evenodd" fill="rgb(0,0,0)"/></g><line x1="217.207" y1="78.361" x2="343.821" y2="78.361" vector-effect="non-scaling-stroke" stroke-width="2" stroke="rgb(0,0,0)" stroke-linejoin="miter" stroke-linecap="square" stroke-miterlimit="3"/><g id="c1"><path d=" M 195 78.361 C 195 66.105 204.951 56.154 217.207 56.154 C 229.464 56.154 239.415 66.105 239.415 78.361 C 239.415 90.618 229.464 100.568 217.207 100.568 C 204.951 100.568 195 90.618 195 78.361 Z " fill="rgb(195,215,247)" vector-effect="non-scaling-stroke" stroke-width="2" stroke="rgb(0,0,0)" stroke-linejoin="miter" stroke-linecap="square" stroke-miterlimit="3"/><path d=" M 218.639 70.621 L 218.639 87.683 L 215.346 87.683 L 215.346 74.594 L 211.033 76.14 L 211.033 73.304 L 218.463 70.621 L 218.639 70.621 L 218.639 70.621 Z " fill="rgb(0,0,0)"/></g><g id="c2"><path d=" M 258.207 78.361 C 258.207 66.105 268.158 56.154 280.415 56.154 C 292.671 56.154 302.622 66.105 302.622 78.361 C 302.622 90.618 292.671 100.568 280.415 100.568 C 268.158 100.568 258.207 90.618 258.207 78.361 Z " fill="rgb(195,215,247)" vector-effect="non-scaling-stroke" stroke-width="2" stroke="rgb(0,0,0)" stroke-linejoin="miter" stroke-linecap="square" stroke-miterlimit="3"/><path d=" M 285.022 85.07 L 285.022 87.683 L 273.385 87.683 L 273.385 85.457 L 278.905 79.527 L 278.905 79.527 Q 279.549 78.824 279.995 78.25 L 279.995 78.25 L 279.995 78.25 Q 280.44 77.676 280.715 77.201 L 280.715 77.201 L 280.715 77.201 Q 280.991 76.726 281.114 76.316 L 281.114 76.316 L 281.114 76.316 Q 281.237 75.906 281.237 75.519 L 281.237 75.519 L 281.237 75.519 Q 281.237 74.945 281.073 74.5 L 281.073 74.5 L 281.073 74.5 Q 280.909 74.054 280.61 73.744 L 280.61 73.744 L 280.61 73.744 Q 280.311 73.433 279.895 73.269 L 279.895 73.269 L 279.895 73.269 Q 279.479 73.105 278.975 73.105 L 278.975 73.105 L 278.975 73.105 Q 277.628 73.105 276.965 73.855 L 276.965 73.855 L 276.965 73.855 Q 276.303 74.605 276.303 75.953 L 276.303 75.953 L 273.034 75.953 L 273.034 75.953 Q 273.034 74.816 273.467 73.803 L 273.467 73.803 L 273.467 73.803 Q 273.901 72.789 274.692 72.027 L 274.692 72.027 L 274.692 72.027 Q 275.483 71.265 276.602 70.826 L 276.602 70.826 L 276.602 70.826 Q 277.721 70.387 279.081 70.387 L 279.081 70.387 L 279.081 70.387 Q 280.381 70.387 281.383 70.75 L 281.383 70.75 L 281.383 70.75 Q 282.385 71.113 283.059 71.769 L 283.059 71.769 L 283.059 71.769 Q 283.733 72.426 284.085 73.345 L 284.085 73.345 L 284.085 73.345 Q 284.436 74.265 284.436 75.379 L 284.436 75.379 L 284.436 75.379 Q 284.436 76.222 284.172 76.99 L 284.172 76.99 L 284.172 76.99 Q 283.909 77.758 283.422 78.508 L 283.422 78.508 L 283.422 78.508 Q 282.936 79.258 282.256 80.037 L 282.256 80.037 L 282.256 80.037 Q 281.577 80.816 280.745 81.672 L 280.745 81.672 L 277.534 85.07 L 285.022 85.07 L 285.022 85.07 Z " fill="rgb(0,0,0)"/></g><g id="C4"><path d=" M 321.415 78.361 C 321.415 66.105 331.365 56.154 343.622 56.154 C 355.879 56.154 365.829 66.105 365.829 78.361 C 365.829 90.618 355.879 100.568 343.622 100.568 C 331.365 100.568 321.415 90.618 321.415 78.361 Z " fill="rgb(211,240,193)" vector-effect="non-scaling-stroke" stroke-width="2" stroke="rgb(0,0,0)" stroke-linejoin="miter" stroke-linecap="square" stroke-miterlimit="3"/><path d=" M 346.589 70.621 L 346.589 81.344 L 348.569 81.344 L 348.569 83.98 L 346.589 83.98 L 346.589 87.683 L 343.331 87.683 L 343.331 83.98 L 336.241 83.98 L 336.112 81.941 L 343.284 70.621 L 346.589 70.621 L 346.589 70.621 Z  M 343.015 75.566 L 339.311 81.344 L 343.331 81.344 L 343.331 75.004 L 343.015 75.566 L 343.015 75.566 Z " fill-rule="evenodd" fill="rgb(0,0,0)"/></g><line x1="388.037" y1="137.361" x2="514.65" y2="137.361" vector-effect="non-scaling-stroke" stroke-width="2" stroke="rgb(0,0,0)" stroke-linejoin="miter" stroke-linecap="square" stroke-miterlimit="3"/><g id="c1"><path d=" M 365.829 137.361 C 365.829 125.105 375.78 115.154 388.037 115.154 C 400.293 115.154 410.244 125.105 410.244 137.361 C 410.244 149.618 400.293 159.568 388.037 159.568 C 375.78 159.568 365.829 149.618 365.829 137.361 Z " fill="rgb(195,215,247)" vector-effect="non-scaling-stroke" stroke-width="2" stroke="rgb(0,0,0)" stroke-linejoin="miter" stroke-linecap="square" stroke-miterlimit="3"/><path d=" M 384.769 139.254 L 384.769 136.722 L 386.539 136.722 L 386.539 136.722 Q 387.874 136.722 388.519 136.049 L 388.519 136.049 L 388.519 136.049 Q 389.164 135.375 389.164 134.285 L 389.164 134.285 L 389.164 134.285 Q 389.164 133.781 389.017 133.365 L 389.017 133.365 L 389.017 133.365 Q 388.871 132.949 388.578 132.65 L 388.578 132.65 L 388.578 132.65 Q 388.285 132.351 387.833 132.187 L 387.833 132.187 L 387.833 132.187 Q 387.382 132.023 386.785 132.023 L 386.785 132.023 L 386.785 132.023 Q 386.292 132.023 385.865 132.164 L 385.865 132.164 L 385.865 132.164 Q 385.437 132.304 385.115 132.568 L 385.115 132.568 L 385.115 132.568 Q 384.792 132.832 384.605 133.207 L 384.605 133.207 L 384.605 133.207 Q 384.417 133.582 384.417 134.051 L 384.417 134.051 L 381.16 134.051 L 381.16 134.051 Q 381.16 133.008 381.587 132.152 L 381.587 132.152 L 381.587 132.152 Q 382.015 131.297 382.765 130.681 L 382.765 130.681 L 382.765 130.681 Q 383.515 130.066 384.529 129.726 L 384.529 129.726 L 384.529 129.726 Q 385.542 129.387 386.714 129.387 L 386.714 129.387 L 386.714 129.387 Q 387.98 129.387 389.035 129.697 L 389.035 129.697 L 389.035 129.697 Q 390.089 130.008 390.839 130.623 L 390.839 130.623 L 390.839 130.623 Q 391.589 131.238 392.005 132.146 L 392.005 132.146 L 392.005 132.146 Q 392.421 133.054 392.421 134.25 L 392.421 134.25 L 392.421 134.25 Q 392.421 134.801 392.257 135.334 L 392.257 135.334 L 392.257 135.334 Q 392.093 135.867 391.777 136.347 L 391.777 136.347 L 391.777 136.347 Q 391.46 136.828 390.992 137.232 L 390.992 137.232 L 390.992 137.232 Q 390.523 137.637 389.914 137.929 L 389.914 137.929 L 389.914 137.929 Q 390.628 138.187 391.15 138.586 L 391.15 138.586 L 391.15 138.586 Q 391.671 138.984 392.011 139.494 L 392.011 139.494 L 392.011 139.494 Q 392.351 140.004 392.515 140.613 L 392.515 140.613 L 392.515 140.613 Q 392.679 141.222 392.679 141.902 L 392.679 141.902 L 392.679 141.902 Q 392.679 143.097 392.222 144.035 L 392.222 144.035 L 392.222 144.035 Q 391.765 144.972 390.968 145.611 L 390.968 145.611 L 390.968 145.611 Q 390.171 146.25 389.076 146.584 L 389.076 146.584 L 389.076 146.584 Q 387.98 146.918 386.714 146.918 L 386.714 146.918 L 386.714 146.918 Q 385.624 146.918 384.587 146.619 L 384.587 146.619 L 384.587 146.619 Q 383.55 146.32 382.742 145.717 L 382.742 145.717 L 382.742 145.717 Q 381.933 145.113 381.447 144.199 L 381.447 144.199 L 381.447 144.199 Q 380.96 143.285 380.96 142.043 L 380.96 142.043 L 384.218 142.043 L 384.218 142.043 Q 384.218 142.535 384.406 142.951 L 384.406 142.951 L 384.406 142.951 Q 384.593 143.367 384.939 143.666 L 384.939 143.666 L 384.939 143.666 Q 385.285 143.965 385.753 144.135 L 385.753 144.135 L 385.753 144.135 Q 386.222 144.304 386.785 144.304 L 386.785 144.304 L 386.785 144.304 Q 388.027 144.304 388.73 143.648 L 388.73 143.648 L 388.73 143.648 Q 389.433 142.992 389.433 141.867 L 389.433 141.867 L 389.433 141.867 Q 389.433 141.176 389.234 140.683 L 389.234 140.683 L 389.234 140.683 Q 389.035 140.191 388.654 139.875 L 388.654 139.875 L 388.654 139.875 Q 388.273 139.558 387.74 139.406 L 387.74 139.406 L 387.74 139.406 Q 387.207 139.254 386.539 139.254 L 386.539 139.254 L 384.769 139.254 L 384.769 139.254 Z " fill="rgb(0,0,0)"/></g><g id="c2"><path d=" M 429.037 137.361 C 429.037 125.105 438.987 115.154 451.244 115.154 C 463.5 115.154 473.451 125.105 473.451 137.361 C 473.451 149.618 463.5 159.568 451.244 159.568 C 438.987 159.568 429.037 149.618 429.037 137.361 Z " fill="rgb(195,215,247)" vector-effect="non-scaling-stroke" stroke-width="2" stroke="rgb(0,0,0)" stroke-linejoin="miter" stroke-linecap="square" stroke-miterlimit="3"/><path d=" M 447.461 138.926 L 444.859 138.281 L 445.832 129.621 L 455.301 129.621 L 455.301 132.387 L 448.515 132.387 L 448.105 136.137 L 448.105 136.137 Q 448.469 135.926 449.137 135.703 L 449.137 135.703 L 449.137 135.703 Q 449.804 135.48 450.672 135.48 L 450.672 135.48 L 450.672 135.48 Q 451.902 135.48 452.869 135.873 L 452.869 135.873 L 452.869 135.873 Q 453.836 136.265 454.498 137.004 L 454.498 137.004 L 454.498 137.004 Q 455.16 137.742 455.512 138.808 L 455.512 138.808 L 455.512 138.808 Q 455.863 139.875 455.863 141.222 L 455.863 141.222 L 455.863 141.222 Q 455.863 142.371 455.523 143.402 L 455.523 143.402 L 455.523 143.402 Q 455.183 144.433 454.48 145.219 L 454.48 145.219 L 454.48 145.219 Q 453.777 146.004 452.711 146.461 L 452.711 146.461 L 452.711 146.461 Q 451.644 146.918 450.191 146.918 L 450.191 146.918 L 450.191 146.918 Q 449.09 146.918 448.064 146.59 L 448.064 146.59 L 448.064 146.59 Q 447.039 146.262 446.242 145.629 L 446.242 145.629 L 446.242 145.629 Q 445.445 144.996 444.947 144.076 L 444.947 144.076 L 444.947 144.076 Q 444.449 143.156 444.414 141.972 L 444.414 141.972 L 447.625 141.972 L 447.625 141.972 Q 447.742 143.086 448.428 143.695 L 448.428 143.695 L 448.428 143.695 Q 449.113 144.304 450.179 144.304 L 450.179 144.304 L 450.179 144.304 Q 450.836 144.304 451.299 144.058 L 451.299 144.058 L 451.299 144.058 Q 451.762 143.812 452.049 143.379 L 452.049 143.379 L 452.049 143.379 Q 452.336 142.945 452.47 142.347 L 452.47 142.347 L 452.47 142.347 Q 452.605 141.75 452.605 141.058 L 452.605 141.058 L 452.605 141.058 Q 452.605 140.379 452.435 139.81 L 452.435 139.81 L 452.435 139.81 Q 452.265 139.242 451.914 138.832 L 451.914 138.832 L 451.914 138.832 Q 451.562 138.422 451.035 138.199 L 451.035 138.199 L 451.035 138.199 Q 450.508 137.976 449.793 137.976 L 449.793 137.976 L 449.793 137.976 Q 449.312 137.976 448.961 138.058 L 448.961 138.058 L 448.961 138.058 Q 448.609 138.14 448.34 138.269 L 448.34 138.269 L 448.34 138.269 Q 448.07 138.398 447.859 138.568 L 447.859 138.568 L 447.859 138.568 Q 447.648 138.738 447.461 138.926 L 447.461 138.926 L 447.461 138.926 Z " fill="rgb(0,0,0)"/></g><g id="C4"><path d=" M 492.244 137.361 C 492.244 125.105 502.195 115.154 514.451 115.154 C 526.708 115.154 536.659 125.105 536.659 137.361 C 536.659 149.618 526.708 159.568 514.451 159.568 C 502.195 159.568 492.244 149.618 492.244 137.361 Z " fill="rgb(195,215,247)" vector-effect="non-scaling-stroke" stroke-width="2" stroke="rgb(0,0,0)" stroke-linejoin="miter" stroke-linecap="square" stroke-miterlimit="3"/><path d=" M 516.117 129.48 L 516.551 129.48 L 516.551 132.187 L 516.363 132.187 L 516.363 132.187 Q 515.074 132.187 514.084 132.527 L 514.084 132.527 L 514.084 132.527 Q 513.094 132.867 512.397 133.488 L 512.397 133.488 L 512.397 133.488 Q 511.699 134.109 511.295 134.976 L 511.295 134.976 L 511.295 134.976 Q 510.891 135.844 510.785 136.91 L 510.785 136.91 L 510.785 136.91 Q 511.055 136.617 511.406 136.33 L 511.406 136.33 L 511.406 136.33 Q 511.758 136.043 512.197 135.814 L 512.197 135.814 L 512.197 135.814 Q 512.637 135.586 513.152 135.445 L 513.152 135.445 L 513.152 135.445 Q 513.668 135.304 514.266 135.304 L 514.266 135.304 L 514.266 135.304 Q 515.484 135.304 516.393 135.767 L 516.393 135.767 L 516.393 135.767 Q 517.301 136.23 517.91 137.021 L 517.91 137.021 L 517.91 137.021 Q 518.52 137.812 518.818 138.861 L 518.818 138.861 L 518.818 138.861 Q 519.117 139.91 519.117 141.07 L 519.117 141.07 L 519.117 141.07 Q 519.117 142.312 518.719 143.379 L 518.719 143.379 L 518.719 143.379 Q 518.32 144.445 517.582 145.23 L 517.582 145.23 L 517.582 145.23 Q 516.844 146.015 515.789 146.467 L 515.789 146.467 L 515.789 146.467 Q 514.734 146.918 513.422 146.918 L 513.422 146.918 L 513.422 146.918 Q 512.051 146.918 510.949 146.408 L 510.949 146.408 L 510.949 146.408 Q 509.848 145.898 509.08 144.996 L 509.08 144.996 L 509.08 144.996 Q 508.313 144.094 507.897 142.857 L 507.897 142.857 L 507.897 142.857 Q 507.481 141.621 507.481 140.156 L 507.481 140.156 L 507.481 138.902 L 507.481 138.902 Q 507.481 136.875 508.031 135.146 L 508.031 135.146 L 508.031 135.146 Q 508.582 133.418 509.672 132.158 L 509.672 132.158 L 509.672 132.158 Q 510.762 130.898 512.379 130.189 L 512.379 130.189 L 512.379 130.189 Q 513.996 129.48 516.117 129.48 L 516.117 129.48 L 516.117 129.48 Z  M 513.316 137.918 L 513.316 137.918 L 513.316 137.918 Q 512.438 137.918 511.764 138.387 L 511.764 138.387 L 511.764 138.387 Q 511.09 138.855 510.75 139.594 L 510.75 139.594 L 510.75 140.554 L 510.75 140.554 Q 510.75 141.492 510.943 142.195 L 510.943 142.195 L 510.943 142.195 Q 511.137 142.898 511.488 143.361 L 511.488 143.361 L 511.488 143.361 Q 511.84 143.824 512.32 144.058 L 512.32 144.058 L 512.32 144.058 Q 512.801 144.293 513.363 144.293 L 513.363 144.293 L 513.363 144.293 Q 513.938 144.293 514.406 144.053 L 514.406 144.053 L 514.406 144.053 Q 514.875 143.812 515.203 143.39 L 515.203 143.39 L 515.203 143.39 Q 515.531 142.969 515.707 142.388 L 515.707 142.388 L 515.707 142.388 Q 515.883 141.808 515.883 141.117 L 515.883 141.117 L 515.883 141.117 Q 515.883 140.426 515.707 139.84 L 515.707 139.84 L 515.707 139.84 Q 515.531 139.254 515.203 138.826 L 515.203 138.826 L 515.203 138.826 Q 514.875 138.398 514.4 138.158 L 514.4 138.158 L 514.4 138.158 Q 513.926 137.918 513.316 137.918 Z " fill-rule="evenodd" fill="rgb(0,0,0)"/></g><g id="Bhead"><path d="M 479.715 34.361 L 551.937 34.361 C 555.877 34.361 559.076 37.56 559.076 41.5 L 559.076 64.222 C 559.076 68.162 555.877 71.361 551.937 71.361 L 479.715 71.361 C 475.775 71.361 472.576 68.162 472.576 64.222 L 472.576 41.5 C 472.576 37.56 475.775 34.361 479.715 34.361 Z" style="stroke:none;fill:#FFF3A5;stroke-linecap:square;stroke-miterlimit:3;"/><path d="M 479.715 34.361 L 551.937 34.361 C 555.877 34.361 559.076 37.56 559.076 41.5 L 559.076 64.222 C 559.076 68.162 555.877 71.361 551.937 71.361 L 479.715 71.361 C 475.775 71.361 472.576 68.162 472.576 64.222 L 472.576 41.5 C 472.576 37.56 475.775 34.361 479.715 34.361 Z" style="fill:none;stroke:#000000;stroke-width:1.6855342301554246;stroke-linecap:square;stroke-miterlimit:3;"/><path d=" M 500.769 48.07 L 500.769 62.347 L 497.751 62.347 L 497.751 56.185 L 492.097 56.185 L 492.097 62.347 L 489.069 62.347 L 489.069 48.07 L 492.097 48.07 L 492.097 53.665 L 497.751 53.665 L 497.751 48.07 L 500.769 48.07 L 500.769 48.07 Z  M 512.595 59.847 L 512.595 62.347 L 504.372 62.347 L 504.372 48.07 L 512.595 48.07 L 512.595 50.55 L 507.399 50.55 L 507.399 53.685 L 512.233 53.685 L 512.233 56.165 L 507.399 56.165 L 507.399 59.847 L 512.595 59.847 L 512.595 59.847 Z  M 527.575 62.347 L 524.314 62.347 L 523.278 58.949 L 518.073 58.949 L 517.038 62.347 L 513.776 62.347 L 518.816 48.011 L 522.517 48.011 L 527.575 62.347 L 527.575 62.347 Z  M 518.835 56.41 L 522.556 56.41 L 522.556 56.41 Q 521.12 51.79 520.94 51.185 L 520.94 51.185 L 520.94 51.185 Q 520.759 50.579 520.681 50.228 L 520.681 50.228 L 520.681 50.228 Q 520.358 51.478 518.835 56.41 L 518.835 56.41 L 518.835 56.41 Z  M 541.218 55.072 L 541.218 55.072 L 541.218 55.072 Q 541.218 58.597 539.211 60.472 L 539.211 60.472 L 539.211 60.472 Q 537.204 62.347 533.415 62.347 L 533.415 62.347 L 529.372 62.347 L 529.372 48.07 L 533.855 48.07 L 533.855 48.07 Q 537.351 48.07 539.284 49.915 L 539.284 49.915 L 539.284 49.915 Q 541.218 51.761 541.218 55.072 Z  M 538.073 55.15 L 538.073 55.15 L 538.073 55.15 Q 538.073 50.55 534.011 50.55 L 534.011 50.55 L 532.399 50.55 L 532.399 59.847 L 533.698 59.847 L 533.698 59.847 Q 538.073 59.847 538.073 55.15 Z " fill-rule="evenodd" fill="rgb(0,0,0)"/></g><g id="Group"><path d=" M 53.505 13.154 C 43.635 13.154 34.674 14.923 28.042 17.908 C 24.73 19.396 21.997 21.2 20.011 23.318 C 18.023 25.432 16.787 27.941 16.787 30.639 L 16.787 47.797 C 16.773 47.905 16.773 48.015 16.787 48.124 L 16.787 65.281 C 16.773 65.39 16.773 65.5 16.787 65.608 L 16.787 81.345 C 16.787 84.043 18.023 86.55 20.011 88.667 C 21.997 90.783 24.73 92.588 28.042 94.075 C 34.674 97.06 43.635 98.83 53.505 98.83 C 63.375 98.83 72.336 97.06 78.968 94.075 C 82.28 92.588 85.013 90.783 86.999 88.667 C 88.987 86.55 90.223 84.041 90.223 81.345 L 90.223 30.639 C 90.223 27.941 88.987 25.433 86.999 23.316 C 85.013 21.2 82.28 19.396 78.968 17.908 C 72.336 14.923 63.375 13.154 53.505 13.154 Z  M 53.505 16.651 C 62.95 16.651 71.467 18.42 77.493 21.132 C 80.503 22.484 82.881 24.07 84.431 25.722 C 85.983 27.374 86.726 28.992 86.726 30.639 C 86.726 32.284 85.981 33.903 84.431 35.557 C 82.881 37.209 80.503 38.794 77.493 40.145 C 71.467 42.857 62.95 44.627 53.505 44.627 C 44.06 44.627 35.543 42.857 29.518 40.145 C 26.507 38.794 24.129 37.208 22.578 35.557 C 21.029 33.903 20.284 32.282 20.284 30.639 C 20.284 28.993 21.029 27.374 22.58 25.72 C 24.129 24.068 26.507 22.484 29.518 21.13 C 35.543 18.422 44.06 16.651 53.505 16.651 Z  M 20.284 38.234 C 22.244 40.234 24.867 41.941 28.044 43.369 C 34.674 46.354 43.635 48.124 53.505 48.124 C 63.375 48.124 72.336 46.354 78.968 43.369 C 82.144 41.943 84.766 40.234 86.726 38.234 L 86.726 48.124 C 86.726 49.769 85.981 51.388 84.431 53.042 C 82.881 54.694 80.503 56.278 77.493 57.632 C 71.467 60.342 62.95 62.111 53.505 62.111 C 44.06 62.111 35.543 60.342 29.518 57.63 C 26.507 56.278 24.129 54.693 22.578 53.04 C 21.029 51.388 20.284 49.771 20.284 48.124 C 20.298 48.014 20.298 47.904 20.284 47.795 L 20.284 38.234 Z  M 20.284 55.719 C 22.244 57.719 24.867 59.426 28.044 60.854 C 34.674 63.839 43.635 65.608 53.505 65.608 C 63.375 65.608 72.336 63.839 78.968 60.854 C 82.144 59.427 84.766 57.719 86.726 55.719 L 86.726 65.608 C 86.726 67.254 85.981 68.873 84.431 70.527 C 82.881 72.179 80.503 73.763 77.493 75.115 C 71.467 77.829 62.95 79.596 53.505 79.596 C 44.06 79.596 35.543 77.827 29.518 75.115 C 26.507 73.763 24.129 72.177 22.578 70.527 C 21.029 68.871 20.284 67.252 20.284 65.608 C 20.298 65.499 20.298 65.389 20.284 65.28 L 20.284 55.719 Z  M 20.284 73.204 C 22.244 75.204 24.867 76.911 28.044 78.339 C 34.674 81.324 43.635 83.093 53.505 83.093 C 63.375 83.093 72.336 81.324 78.968 78.339 C 82.144 76.912 84.766 75.204 86.726 73.204 L 86.726 81.345 C 86.726 82.99 85.981 84.609 84.431 86.263 C 82.881 87.916 80.503 89.5 77.493 90.851 C 71.467 93.565 62.95 95.333 53.505 95.333 C 44.06 95.333 35.543 93.563 29.518 90.851 C 26.507 89.5 24.129 87.914 22.578 86.263 C 21.029 84.609 20.284 82.988 20.284 81.345 L 20.284 73.204 Z " fill="rgb(0,0,0)"/><path d=" M 19.824 109.19 L 19.824 113.047 L 20.801 113.047 L 20.801 113.047 Q 22.236 113.047 22.92 112.569 L 22.92 112.569 L 22.92 112.569 Q 23.604 112.09 23.604 111.065 L 23.604 111.065 L 23.604 111.065 Q 23.604 110.049 22.905 109.62 L 22.905 109.62 L 22.905 109.62 Q 22.207 109.19 20.742 109.19 L 20.742 109.19 L 19.824 109.19 L 19.824 109.19 Z  M 21.436 115.508 L 19.824 115.508 L 19.824 120.987 L 16.797 120.987 L 16.797 106.709 L 20.957 106.709 L 20.957 106.709 Q 23.867 106.709 25.264 107.769 L 25.264 107.769 L 25.264 107.769 Q 26.66 108.829 26.66 110.987 L 26.66 110.987 L 26.66 110.987 Q 26.66 112.247 25.967 113.228 L 25.967 113.228 L 25.967 113.228 Q 25.273 114.209 24.004 114.766 L 24.004 114.766 L 24.004 114.766 Q 27.227 119.581 28.203 120.987 L 28.203 120.987 L 24.844 120.987 L 21.436 115.508 L 21.436 115.508 Z  M 34.287 111.983 L 34.287 111.983 L 34.287 111.983 Q 33.34 111.983 32.803 112.584 L 32.803 112.584 L 32.803 112.584 Q 32.266 113.184 32.188 114.288 L 32.188 114.288 L 36.367 114.288 L 36.367 114.288 Q 36.348 113.184 35.791 112.584 L 35.791 112.584 L 35.791 112.584 Q 35.234 111.983 34.287 111.983 Z  M 34.707 121.182 L 34.707 121.182 L 34.707 121.182 Q 32.07 121.182 30.586 119.727 L 30.586 119.727 L 30.586 119.727 Q 29.102 118.272 29.102 115.606 L 29.102 115.606 L 29.102 115.606 Q 29.102 112.862 30.474 111.363 L 30.474 111.363 L 30.474 111.363 Q 31.846 109.864 34.268 109.864 L 34.268 109.864 L 34.268 109.864 Q 36.582 109.864 37.871 111.182 L 37.871 111.182 L 37.871 111.182 Q 39.16 112.5 39.16 114.825 L 39.16 114.825 L 39.16 116.27 L 32.119 116.27 L 32.119 116.27 Q 32.168 117.54 32.871 118.252 L 32.871 118.252 L 32.871 118.252 Q 33.574 118.965 34.844 118.965 L 34.844 118.965 L 34.844 118.965 Q 35.83 118.965 36.709 118.76 L 36.709 118.76 L 36.709 118.76 Q 37.588 118.555 38.545 118.106 L 38.545 118.106 L 38.545 120.411 L 38.545 120.411 Q 37.764 120.801 36.875 120.992 L 36.875 120.992 L 36.875 120.992 Q 35.986 121.182 34.707 121.182 Z  M 51.357 115.508 L 51.357 120.987 L 48.379 120.987 L 48.379 114.61 L 48.379 114.61 Q 48.379 113.428 47.983 112.837 L 47.983 112.837 L 47.983 112.837 Q 47.588 112.247 46.738 112.247 L 46.738 112.247 L 46.738 112.247 Q 45.596 112.247 45.078 113.086 L 45.078 113.086 L 45.078 113.086 Q 44.561 113.926 44.561 115.85 L 44.561 115.85 L 44.561 120.987 L 41.582 120.987 L 41.582 110.069 L 43.857 110.069 L 44.258 111.465 L 44.424 111.465 L 44.424 111.465 Q 44.863 110.713 45.693 110.289 L 45.693 110.289 L 45.693 110.289 Q 46.523 109.864 47.598 109.864 L 47.598 109.864 L 47.598 109.864 Q 50.049 109.864 50.918 111.465 L 50.918 111.465 L 51.182 111.465 L 51.182 111.465 Q 51.621 110.704 52.476 110.284 L 52.476 110.284 L 52.476 110.284 Q 53.33 109.864 54.404 109.864 L 54.404 109.864 L 54.404 109.864 Q 56.26 109.864 57.212 110.816 L 57.212 110.816 L 57.212 110.816 Q 58.164 111.768 58.164 113.868 L 58.164 113.868 L 58.164 120.987 L 55.176 120.987 L 55.176 114.61 L 55.176 114.61 Q 55.176 113.428 54.78 112.837 L 54.78 112.837 L 54.78 112.837 Q 54.385 112.247 53.535 112.247 L 53.535 112.247 L 53.535 112.247 Q 52.441 112.247 51.899 113.028 L 51.899 113.028 L 51.899 113.028 Q 51.357 113.809 51.357 115.508 L 51.357 115.508 L 51.357 115.508 Z  M 63.594 115.508 L 63.594 115.508 L 63.594 115.508 Q 63.594 117.129 64.126 117.959 L 64.126 117.959 L 64.126 117.959 Q 64.658 118.79 65.859 118.79 L 65.859 118.79 L 65.859 118.79 Q 67.051 118.79 67.573 117.964 L 67.573 117.964 L 67.573 117.964 Q 68.096 117.139 68.096 115.508 L 68.096 115.508 L 68.096 115.508 Q 68.096 113.887 67.568 113.077 L 67.568 113.077 L 67.568 113.077 Q 67.041 112.266 65.84 112.266 L 65.84 112.266 L 65.84 112.266 Q 64.648 112.266 64.121 113.072 L 64.121 113.072 L 64.121 113.072 Q 63.594 113.877 63.594 115.508 Z  M 71.143 115.508 L 71.143 115.508 L 71.143 115.508 Q 71.143 118.174 69.736 119.678 L 69.736 119.678 L 69.736 119.678 Q 68.33 121.182 65.82 121.182 L 65.82 121.182 L 65.82 121.182 Q 64.248 121.182 63.047 120.494 L 63.047 120.494 L 63.047 120.494 Q 61.846 119.805 61.201 118.516 L 61.201 118.516 L 61.201 118.516 Q 60.557 117.227 60.557 115.508 L 60.557 115.508 L 60.557 115.508 Q 60.557 112.833 61.953 111.348 L 61.953 111.348 L 61.953 111.348 Q 63.35 109.864 65.879 109.864 L 65.879 109.864 L 65.879 109.864 Q 67.451 109.864 68.652 110.547 L 68.652 110.547 L 68.652 110.547 Q 69.854 111.231 70.498 112.51 L 70.498 112.51 L 70.498 112.51 Q 71.143 113.79 71.143 115.508 Z  M 78.203 118.809 L 78.203 118.809 L 78.203 118.809 Q 78.984 118.809 80.078 118.467 L 80.078 118.467 L 80.078 120.684 L 80.078 120.684 Q 78.965 121.182 77.344 121.182 L 77.344 121.182 L 77.344 121.182 Q 75.557 121.182 74.741 120.279 L 74.741 120.279 L 74.741 120.279 Q 73.926 119.375 73.926 117.569 L 73.926 117.569 L 73.926 112.305 L 72.5 112.305 L 72.5 111.045 L 74.141 110.049 L 75 107.745 L 76.904 107.745 L 76.904 110.069 L 79.961 110.069 L 79.961 112.305 L 76.904 112.305 L 76.904 117.569 L 76.904 117.569 Q 76.904 118.204 77.261 118.506 L 77.261 118.506 L 77.261 118.506 Q 77.617 118.809 78.203 118.809 Z  M 86.807 111.983 L 86.807 111.983 L 86.807 111.983 Q 85.859 111.983 85.322 112.584 L 85.322 112.584 L 85.322 112.584 Q 84.785 113.184 84.707 114.288 L 84.707 114.288 L 88.887 114.288 L 88.887 114.288 Q 88.867 113.184 88.311 112.584 L 88.311 112.584 L 88.311 112.584 Q 87.754 111.983 86.807 111.983 Z  M 87.227 121.182 L 87.227 121.182 L 87.227 121.182 Q 84.59 121.182 83.105 119.727 L 83.105 119.727 L 83.105 119.727 Q 81.621 118.272 81.621 115.606 L 81.621 115.606 L 81.621 115.606 Q 81.621 112.862 82.993 111.363 L 82.993 111.363 L 82.993 111.363 Q 84.365 109.864 86.787 109.864 L 86.787 109.864 L 86.787 109.864 Q 89.102 109.864 90.391 111.182 L 90.391 111.182 L 90.391 111.182 Q 91.68 112.5 91.68 114.825 L 91.68 114.825 L 91.68 116.27 L 84.639 116.27 L 84.639 116.27 Q 84.688 117.54 85.391 118.252 L 85.391 118.252 L 85.391 118.252 Q 86.094 118.965 87.363 118.965 L 87.363 118.965 L 87.363 118.965 Q 88.35 118.965 89.229 118.76 L 89.229 118.76 L 89.229 118.76 Q 90.107 118.555 91.064 118.106 L 91.064 118.106 L 91.064 120.411 L 91.064 120.411 Q 90.283 120.801 89.395 120.992 L 89.395 120.992 L 89.395 120.992 Q 88.506 121.182 87.227 121.182 Z " fill-rule="evenodd" fill="rgb(0,0,0)"/></g><g id="Group"><path d=" M 45.039 346.344 C 45.039 348.851 43.012 350.878 40.506 350.878 L 12.977 350.878 C 10.471 350.878 8.444 348.851 8.444 346.344 L 8.444 275.267 C 8.444 273.328 10.035 271.736 11.975 271.736 L 41.508 271.736 C 43.448 271.736 45.039 273.328 45.039 275.267 L 45.039 284.138 L 48.483 284.138 L 48.483 275.267 C 48.483 271.41 45.344 268.293 41.508 268.293 L 11.975 268.293 C 8.117 268.293 5 271.431 5 275.267 L 5 346.366 C 5 350.769 8.575 354.343 12.977 354.343 L 40.506 354.343 C 44.908 354.343 48.483 350.769 48.483 346.366 L 48.483 341.985 L 45.039 341.985 L 45.039 346.344 L 45.039 346.344 Z  M 98.309 285.032 L 35.994 285.032 C 32.289 285.032 29.281 288.04 29.281 291.745 L 29.281 334.095 C 29.281 337.8 32.289 340.808 35.994 340.808 L 65.418 340.808 L 65.418 350.376 L 50.619 350.376 L 50.619 353.82 L 83.662 353.82 L 83.662 350.376 L 68.862 350.376 L 68.862 340.808 L 98.287 340.808 C 101.992 340.808 105 337.8 105 334.095 L 105 291.745 C 105.022 288.04 102.014 285.032 98.309 285.032 L 98.309 285.032 Z  M 101.578 334.095 C 101.578 335.904 100.118 337.364 98.309 337.364 L 35.994 337.364 C 34.185 337.364 32.724 335.904 32.724 334.095 L 32.724 291.745 C 32.724 289.936 34.185 288.476 35.994 288.476 L 98.309 288.476 C 100.118 288.476 101.578 289.936 101.578 291.745 L 101.578 334.095 L 101.578 334.095 Z  M 35.253 331.436 L 99.05 331.436 L 99.05 293.685 L 35.253 293.685 L 35.253 331.436 Z  M 36.975 295.407 L 97.328 295.407 L 97.328 329.736 L 36.975 329.736 L 36.975 295.407 Z  M 67.162 293.162 C 68.339 293.162 69.298 292.203 69.298 291.026 C 69.298 289.849 68.339 288.89 67.162 288.89 C 65.985 288.89 65.026 289.849 65.026 291.026 C 65.026 292.203 65.985 293.162 67.162 293.162 Z  M 67.162 290.634 C 67.38 290.634 67.576 290.808 67.576 291.048 C 67.576 291.287 67.402 291.462 67.162 291.462 C 66.922 291.462 66.748 291.287 66.748 291.048 C 66.748 290.808 66.922 290.634 67.162 290.634 Z  M 67.162 332.111 C 65.833 332.111 64.743 333.201 64.743 334.531 C 64.743 335.86 65.833 336.95 67.162 336.95 C 68.492 336.95 69.581 335.86 69.581 334.531 C 69.56 333.179 68.492 332.111 67.162 332.111 Z  M 67.162 335.206 C 66.77 335.206 66.465 334.901 66.465 334.509 C 66.465 334.116 66.77 333.811 67.162 333.811 C 67.554 333.811 67.86 334.116 67.86 334.509 C 67.86 334.901 67.533 335.206 67.162 335.206 Z  M 24.398 344.339 C 24.398 345.668 25.488 346.758 26.818 346.758 C 28.147 346.758 29.237 345.668 29.237 344.339 C 29.237 343.009 28.147 341.919 26.818 341.919 C 25.466 341.941 24.398 343.009 24.398 344.339 Z  M 27.493 344.339 C 27.493 344.731 27.188 345.036 26.796 345.036 C 26.404 345.036 26.098 344.731 26.098 344.339 C 26.098 343.946 26.404 343.641 26.796 343.641 C 27.188 343.641 27.493 343.968 27.493 344.339 Z  M 39.895 283.899 L 39.895 278.711 L 12.977 278.711 L 12.977 288.824 L 28.234 288.824 L 28.234 287.103 L 14.699 287.103 L 14.699 280.433 L 38.173 280.433 L 38.173 283.899 L 39.895 283.899 L 39.895 283.899 Z " fill="rgb(0,0,0)"/><path d=" M 39.115 378.72 L 30.297 378.72 L 30.297 364.443 L 33.324 364.443 L 33.324 376.22 L 39.115 376.22 L 39.115 378.72 L 39.115 378.72 Z  M 43.734 373.242 L 43.734 373.242 L 43.734 373.242 Q 43.734 374.863 44.267 375.693 L 44.267 375.693 L 44.267 375.693 Q 44.799 376.523 46 376.523 L 46 376.523 L 46 376.523 Q 47.191 376.523 47.714 375.698 L 47.714 375.698 L 47.714 375.698 Q 48.236 374.872 48.236 373.242 L 48.236 373.242 L 48.236 373.242 Q 48.236 371.62 47.709 370.81 L 47.709 370.81 L 47.709 370.81 Q 47.182 369.999 45.98 369.999 L 45.98 369.999 L 45.98 369.999 Q 44.789 369.999 44.262 370.805 L 44.262 370.805 L 44.262 370.805 Q 43.734 371.611 43.734 373.242 Z  M 51.283 373.242 L 51.283 373.242 L 51.283 373.242 Q 51.283 375.908 49.877 377.412 L 49.877 377.412 L 49.877 377.412 Q 48.471 378.915 45.961 378.915 L 45.961 378.915 L 45.961 378.915 Q 44.389 378.915 43.188 378.227 L 43.188 378.227 L 43.188 378.227 Q 41.986 377.538 41.342 376.249 L 41.342 376.249 L 41.342 376.249 Q 40.697 374.96 40.697 373.242 L 40.697 373.242 L 40.697 373.242 Q 40.697 370.566 42.094 369.081 L 42.094 369.081 L 42.094 369.081 Q 43.49 367.597 46.02 367.597 L 46.02 367.597 L 46.02 367.597 Q 47.592 367.597 48.793 368.281 L 48.793 368.281 L 48.793 368.281 Q 49.994 368.964 50.639 370.244 L 50.639 370.244 L 50.639 370.244 Q 51.283 371.523 51.283 373.242 Z  M 58.178 378.915 L 58.178 378.915 L 58.178 378.915 Q 53.08 378.915 53.08 373.32 L 53.08 373.32 L 53.08 373.32 Q 53.08 370.537 54.467 369.067 L 54.467 369.067 L 54.467 369.067 Q 55.854 367.597 58.441 367.597 L 58.441 367.597 L 58.441 367.597 Q 60.336 367.597 61.84 368.339 L 61.84 368.339 L 60.961 370.644 L 60.961 370.644 Q 60.258 370.361 59.652 370.18 L 59.652 370.18 L 59.652 370.18 Q 59.047 369.999 58.441 369.999 L 58.441 369.999 L 58.441 369.999 Q 56.117 369.999 56.117 373.3 L 56.117 373.3 L 56.117 373.3 Q 56.117 376.503 58.441 376.503 L 58.441 376.503 L 58.441 376.503 Q 59.301 376.503 60.033 376.274 L 60.033 376.274 L 60.033 376.274 Q 60.766 376.044 61.498 375.556 L 61.498 375.556 L 61.498 378.105 L 61.498 378.105 Q 60.775 378.564 60.038 378.74 L 60.038 378.74 L 60.038 378.74 Q 59.301 378.915 58.178 378.915 Z  M 73.041 378.72 L 70.961 378.72 L 70.385 377.236 L 70.307 377.236 L 70.307 377.236 Q 69.555 378.183 68.759 378.549 L 68.759 378.549 L 68.759 378.549 Q 67.963 378.915 66.684 378.915 L 66.684 378.915 L 66.684 378.915 Q 65.111 378.915 64.208 378.017 L 64.208 378.017 L 64.208 378.017 Q 63.305 377.119 63.305 375.458 L 63.305 375.458 L 63.305 375.458 Q 63.305 373.72 64.521 372.895 L 64.521 372.895 L 64.521 372.895 Q 65.736 372.07 68.188 371.982 L 68.188 371.982 L 70.082 371.923 L 70.082 371.445 L 70.082 371.445 Q 70.082 369.785 68.383 369.785 L 68.383 369.785 L 68.383 369.785 Q 67.074 369.785 65.307 370.576 L 65.307 370.576 L 64.32 368.564 L 64.32 368.564 Q 66.205 367.578 68.5 367.578 L 68.5 367.578 L 68.5 367.578 Q 70.697 367.578 71.869 368.535 L 71.869 368.535 L 71.869 368.535 Q 73.041 369.492 73.041 371.445 L 73.041 371.445 L 73.041 378.72 L 73.041 378.72 Z  M 70.082 374.56 L 70.082 373.662 L 68.93 373.701 L 68.93 373.701 Q 67.631 373.74 66.996 374.169 L 66.996 374.169 L 66.996 374.169 Q 66.361 374.599 66.361 375.478 L 66.361 375.478 L 66.361 375.478 Q 66.361 376.738 67.807 376.738 L 67.807 376.738 L 67.807 376.738 Q 68.842 376.738 69.462 376.142 L 69.462 376.142 L 69.462 376.142 Q 70.082 375.546 70.082 374.56 L 70.082 374.56 L 70.082 374.56 Z  M 79.086 363.525 L 79.086 378.72 L 76.107 378.72 L 76.107 363.525 L 79.086 363.525 L 79.086 363.525 Z " fill-rule="evenodd" fill="rgb(0,0,0)"/></g><line x1="15" y1="182" x2="782.689" y2="182" vector-effect="non-scaling-stroke" stroke-width="3" stroke="rgb(0,0,0)" stroke-linejoin="miter" stroke-linecap="square" stroke-miterlimit="3"/><g id="Bmaster"><path d="M 473.502 72.361 L 558.15 72.361 C 562.387 72.361 565.826 75.801 565.826 80.037 L 565.826 101.685 C 565.826 105.922 562.387 109.361 558.15 109.361 L 473.502 109.361 C 469.266 109.361 465.826 105.922 465.826 101.685 L 465.826 80.037 C 465.826 75.801 469.266 72.361 473.502 72.361 Z" style="stroke:none;fill:#9FC4FF;stroke-linecap:square;stroke-miterlimit:3;"/><path d="M 473.502 72.361 L 558.15 72.361 C 562.387 72.361 565.826 75.801 565.826 80.037 L 565.826 101.685 C 565.826 105.922 562.387 109.361 558.15 109.361 L 473.502 109.361 C 469.266 109.361 465.826 105.922 465.826 101.685 L 465.826 80.037 C 465.826 75.801 469.266 72.361 473.502 72.361 Z" style="fill:none;stroke:#000000;stroke-width:1.6855342301554246;stroke-linecap:square;stroke-miterlimit:3;"/><path d=" M 492.044 93.743 L 492.044 99.222 L 489.066 99.222 L 489.066 92.845 L 489.066 92.845 Q 489.066 91.663 488.67 91.072 L 488.67 91.072 L 488.67 91.072 Q 488.274 90.481 487.425 90.481 L 487.425 90.481 L 487.425 90.481 Q 486.282 90.481 485.765 91.321 L 485.765 91.321 L 485.765 91.321 Q 485.247 92.161 485.247 94.085 L 485.247 94.085 L 485.247 99.222 L 482.269 99.222 L 482.269 88.304 L 484.544 88.304 L 484.944 89.7 L 485.11 89.7 L 485.11 89.7 Q 485.55 88.948 486.38 88.523 L 486.38 88.523 L 486.38 88.523 Q 487.21 88.099 488.284 88.099 L 488.284 88.099 L 488.284 88.099 Q 490.735 88.099 491.605 89.7 L 491.605 89.7 L 491.868 89.7 L 491.868 89.7 Q 492.308 88.938 493.162 88.519 L 493.162 88.519 L 493.162 88.519 Q 494.017 88.099 495.091 88.099 L 495.091 88.099 L 495.091 88.099 Q 496.946 88.099 497.899 89.051 L 497.899 89.051 L 497.899 89.051 Q 498.851 90.003 498.851 92.103 L 498.851 92.103 L 498.851 99.222 L 495.862 99.222 L 495.862 92.845 L 495.862 92.845 Q 495.862 91.663 495.467 91.072 L 495.467 91.072 L 495.467 91.072 Q 495.071 90.481 494.222 90.481 L 494.222 90.481 L 494.222 90.481 Q 493.128 90.481 492.586 91.263 L 492.586 91.263 L 492.586 91.263 Q 492.044 92.044 492.044 93.743 L 492.044 93.743 L 492.044 93.743 Z  M 510.921 99.222 L 508.841 99.222 L 508.265 97.737 L 508.187 97.737 L 508.187 97.737 Q 507.435 98.685 506.639 99.051 L 506.639 99.051 L 506.639 99.051 Q 505.843 99.417 504.564 99.417 L 504.564 99.417 L 504.564 99.417 Q 502.991 99.417 502.088 98.519 L 502.088 98.519 L 502.088 98.519 Q 501.185 97.62 501.185 95.96 L 501.185 95.96 L 501.185 95.96 Q 501.185 94.222 502.4 93.396 L 502.4 93.396 L 502.4 93.396 Q 503.616 92.571 506.067 92.483 L 506.067 92.483 L 507.962 92.425 L 507.962 91.946 L 507.962 91.946 Q 507.962 90.286 506.263 90.286 L 506.263 90.286 L 506.263 90.286 Q 504.954 90.286 503.187 91.077 L 503.187 91.077 L 502.2 89.065 L 502.2 89.065 Q 504.085 88.079 506.38 88.079 L 506.38 88.079 L 506.38 88.079 Q 508.577 88.079 509.749 89.036 L 509.749 89.036 L 509.749 89.036 Q 510.921 89.993 510.921 91.946 L 510.921 91.946 L 510.921 99.222 L 510.921 99.222 Z  M 507.962 95.062 L 507.962 94.163 L 506.81 94.202 L 506.81 94.202 Q 505.511 94.241 504.876 94.671 L 504.876 94.671 L 504.876 94.671 Q 504.241 95.101 504.241 95.979 L 504.241 95.979 L 504.241 95.979 Q 504.241 97.239 505.687 97.239 L 505.687 97.239 L 505.687 97.239 Q 506.722 97.239 507.342 96.644 L 507.342 96.644 L 507.342 96.644 Q 507.962 96.048 507.962 95.062 L 507.962 95.062 L 507.962 95.062 Z  M 521.605 95.979 L 521.605 95.979 L 521.605 95.979 Q 521.605 97.659 520.438 98.538 L 520.438 98.538 L 520.438 98.538 Q 519.271 99.417 516.946 99.417 L 516.946 99.417 L 516.946 99.417 Q 515.755 99.417 514.915 99.256 L 514.915 99.256 L 514.915 99.256 Q 514.075 99.095 513.343 98.782 L 513.343 98.782 L 513.343 96.321 L 513.343 96.321 Q 514.173 96.712 515.213 96.976 L 515.213 96.976 L 515.213 96.976 Q 516.253 97.239 517.044 97.239 L 517.044 97.239 L 517.044 97.239 Q 518.665 97.239 518.665 96.302 L 518.665 96.302 L 518.665 96.302 Q 518.665 95.95 518.45 95.73 L 518.45 95.73 L 518.45 95.73 Q 518.235 95.511 517.708 95.232 L 517.708 95.232 L 517.708 95.232 Q 517.181 94.954 516.302 94.583 L 516.302 94.583 L 516.302 94.583 Q 515.042 94.056 514.451 93.606 L 514.451 93.606 L 514.451 93.606 Q 513.86 93.157 513.592 92.576 L 513.592 92.576 L 513.592 92.576 Q 513.323 91.995 513.323 91.146 L 513.323 91.146 L 513.323 91.146 Q 513.323 89.69 514.451 88.895 L 514.451 88.895 L 514.451 88.895 Q 515.579 88.099 517.649 88.099 L 517.649 88.099 L 517.649 88.099 Q 519.622 88.099 521.487 88.958 L 521.487 88.958 L 520.589 91.106 L 520.589 91.106 Q 519.769 90.755 519.056 90.53 L 519.056 90.53 L 519.056 90.53 Q 518.343 90.306 517.601 90.306 L 517.601 90.306 L 517.601 90.306 Q 516.282 90.306 516.282 91.019 L 516.282 91.019 L 516.282 91.019 Q 516.282 91.419 516.707 91.712 L 516.707 91.712 L 516.707 91.712 Q 517.132 92.005 518.567 92.581 L 518.567 92.581 L 518.567 92.581 Q 519.847 93.099 520.442 93.548 L 520.442 93.548 L 520.442 93.548 Q 521.038 93.997 521.321 94.583 L 521.321 94.583 L 521.321 94.583 Q 521.605 95.169 521.605 95.979 Z  M 528.528 97.044 L 528.528 97.044 L 528.528 97.044 Q 529.31 97.044 530.403 96.702 L 530.403 96.702 L 530.403 98.919 L 530.403 98.919 Q 529.29 99.417 527.669 99.417 L 527.669 99.417 L 527.669 99.417 Q 525.882 99.417 525.066 98.514 L 525.066 98.514 L 525.066 98.514 Q 524.251 97.61 524.251 95.804 L 524.251 95.804 L 524.251 90.54 L 522.825 90.54 L 522.825 89.28 L 524.466 88.284 L 525.325 85.979 L 527.23 85.979 L 527.23 88.304 L 530.286 88.304 L 530.286 90.54 L 527.23 90.54 L 527.23 95.804 L 527.23 95.804 Q 527.23 96.438 527.586 96.741 L 527.586 96.741 L 527.586 96.741 Q 527.942 97.044 528.528 97.044 Z  M 537.132 90.218 L 537.132 90.218 L 537.132 90.218 Q 536.185 90.218 535.648 90.818 L 535.648 90.818 L 535.648 90.818 Q 535.11 91.419 535.032 92.522 L 535.032 92.522 L 539.212 92.522 L 539.212 92.522 Q 539.192 91.419 538.636 90.818 L 538.636 90.818 L 538.636 90.818 Q 538.079 90.218 537.132 90.218 Z  M 537.552 99.417 L 537.552 99.417 L 537.552 99.417 Q 534.915 99.417 533.431 97.962 L 533.431 97.962 L 533.431 97.962 Q 531.946 96.507 531.946 93.841 L 531.946 93.841 L 531.946 93.841 Q 531.946 91.097 533.318 89.598 L 533.318 89.598 L 533.318 89.598 Q 534.691 88.099 537.112 88.099 L 537.112 88.099 L 537.112 88.099 Q 539.427 88.099 540.716 89.417 L 540.716 89.417 L 540.716 89.417 Q 542.005 90.735 542.005 93.06 L 542.005 93.06 L 542.005 94.505 L 534.964 94.505 L 534.964 94.505 Q 535.013 95.774 535.716 96.487 L 535.716 96.487 L 535.716 96.487 Q 536.419 97.2 537.689 97.2 L 537.689 97.2 L 537.689 97.2 Q 538.675 97.2 539.554 96.995 L 539.554 96.995 L 539.554 96.995 Q 540.433 96.79 541.39 96.341 L 541.39 96.341 L 541.39 98.646 L 541.39 98.646 Q 540.608 99.036 539.72 99.227 L 539.72 99.227 L 539.72 99.227 Q 538.831 99.417 537.552 99.417 Z  M 550.521 88.099 L 550.521 88.099 L 550.521 88.099 Q 551.126 88.099 551.526 88.187 L 551.526 88.187 L 551.302 90.979 L 551.302 90.979 Q 550.941 90.882 550.423 90.882 L 550.423 90.882 L 550.423 90.882 Q 548.997 90.882 548.201 91.614 L 548.201 91.614 L 548.201 91.614 Q 547.405 92.347 547.405 93.665 L 547.405 93.665 L 547.405 99.222 L 544.427 99.222 L 544.427 88.304 L 546.683 88.304 L 547.122 90.14 L 547.269 90.14 L 547.269 90.14 Q 547.776 89.222 548.641 88.66 L 548.641 88.66 L 548.641 88.66 Q 549.505 88.099 550.521 88.099 Z " fill-rule="evenodd" fill="rgb(0,0,0)"/></g><g id="Bmaster"><path d="M 301.298 13.154 L 385.946 13.154 C 390.182 13.154 393.622 16.593 393.622 20.83 L 393.622 42.478 C 393.622 46.714 390.182 50.154 385.946 50.154 L 301.298 50.154 C 297.062 50.154 293.622 46.714 293.622 42.478 L 293.622 20.83 C 293.622 16.593 297.062 13.154 301.298 13.154 Z" style="stroke:none;fill:#D3F0C1;stroke-linecap:square;stroke-miterlimit:3;"/><path d="M 301.298 13.154 L 385.946 13.154 C 390.182 13.154 393.622 16.593 393.622 20.83 L 393.622 42.478 C 393.622 46.714 390.182 50.154 385.946 50.154 L 301.298 50.154 C 297.062 50.154 293.622 46.714 293.622 42.478 L 293.622 20.83 C 293.622 16.593 297.062 13.154 301.298 13.154 Z" style="fill:none;stroke:#000000;stroke-width:1.6855342301554246;stroke-linecap:square;stroke-miterlimit:3;"/><path d=" M 324.35 28.495 L 324.35 30.731 L 321.772 30.731 L 321.772 39.413 L 318.794 39.413 L 318.794 30.731 L 317.153 30.731 L 317.153 29.295 L 318.794 28.495 L 318.794 27.694 L 318.794 27.694 Q 318.794 25.829 319.712 24.969 L 319.712 24.969 L 319.712 24.969 Q 320.63 24.11 322.651 24.11 L 322.651 24.11 L 322.651 24.11 Q 324.194 24.11 325.395 24.569 L 325.395 24.569 L 324.634 26.756 L 324.634 26.756 Q 323.735 26.473 322.974 26.473 L 322.974 26.473 L 322.974 26.473 Q 322.339 26.473 322.056 26.849 L 322.056 26.849 L 322.056 26.849 Q 321.772 27.225 321.772 27.811 L 321.772 27.811 L 321.772 28.495 L 324.35 28.495 L 324.35 28.495 Z  M 330.581 30.409 L 330.581 30.409 L 330.581 30.409 Q 329.634 30.409 329.097 31.009 L 329.097 31.009 L 329.097 31.009 Q 328.559 31.61 328.481 32.713 L 328.481 32.713 L 332.661 32.713 L 332.661 32.713 Q 332.641 31.61 332.085 31.009 L 332.085 31.009 L 332.085 31.009 Q 331.528 30.409 330.581 30.409 Z  M 331.001 39.608 L 331.001 39.608 L 331.001 39.608 Q 328.364 39.608 326.88 38.153 L 326.88 38.153 L 326.88 38.153 Q 325.395 36.698 325.395 34.032 L 325.395 34.032 L 325.395 34.032 Q 325.395 31.288 326.767 29.789 L 326.767 29.789 L 326.767 29.789 Q 328.14 28.29 330.561 28.29 L 330.561 28.29 L 330.561 28.29 Q 332.876 28.29 334.165 29.608 L 334.165 29.608 L 334.165 29.608 Q 335.454 30.926 335.454 33.25 L 335.454 33.25 L 335.454 34.696 L 328.413 34.696 L 328.413 34.696 Q 328.462 35.965 329.165 36.678 L 329.165 36.678 L 329.165 36.678 Q 329.868 37.391 331.138 37.391 L 331.138 37.391 L 331.138 37.391 Q 332.124 37.391 333.003 37.186 L 333.003 37.186 L 333.003 37.186 Q 333.882 36.981 334.839 36.532 L 334.839 36.532 L 334.839 38.836 L 334.839 38.836 Q 334.058 39.227 333.169 39.417 L 333.169 39.417 L 333.169 39.417 Q 332.28 39.608 331.001 39.608 Z  M 346.89 39.413 L 344.809 39.413 L 344.233 37.928 L 344.155 37.928 L 344.155 37.928 Q 343.403 38.875 342.607 39.242 L 342.607 39.242 L 342.607 39.242 Q 341.811 39.608 340.532 39.608 L 340.532 39.608 L 340.532 39.608 Q 338.96 39.608 338.057 38.709 L 338.057 38.709 L 338.057 38.709 Q 337.153 37.811 337.153 36.151 L 337.153 36.151 L 337.153 36.151 Q 337.153 34.413 338.369 33.587 L 338.369 33.587 L 338.369 33.587 Q 339.585 32.762 342.036 32.674 L 342.036 32.674 L 343.931 32.616 L 343.931 32.137 L 343.931 32.137 Q 343.931 30.477 342.231 30.477 L 342.231 30.477 L 342.231 30.477 Q 340.923 30.477 339.155 31.268 L 339.155 31.268 L 338.169 29.256 L 338.169 29.256 Q 340.054 28.27 342.349 28.27 L 342.349 28.27 L 342.349 28.27 Q 344.546 28.27 345.718 29.227 L 345.718 29.227 L 345.718 29.227 Q 346.89 30.184 346.89 32.137 L 346.89 32.137 L 346.89 39.413 L 346.89 39.413 Z  M 343.931 35.252 L 343.931 34.354 L 342.778 34.393 L 342.778 34.393 Q 341.479 34.432 340.845 34.862 L 340.845 34.862 L 340.845 34.862 Q 340.21 35.291 340.21 36.17 L 340.21 36.17 L 340.21 36.17 Q 340.21 37.43 341.655 37.43 L 341.655 37.43 L 341.655 37.43 Q 342.69 37.43 343.31 36.834 L 343.31 36.834 L 343.31 36.834 Q 343.931 36.239 343.931 35.252 L 343.931 35.252 L 343.931 35.252 Z  M 354.556 37.235 L 354.556 37.235 L 354.556 37.235 Q 355.337 37.235 356.431 36.893 L 356.431 36.893 L 356.431 39.11 L 356.431 39.11 Q 355.317 39.608 353.696 39.608 L 353.696 39.608 L 353.696 39.608 Q 351.909 39.608 351.094 38.705 L 351.094 38.705 L 351.094 38.705 Q 350.278 37.801 350.278 35.995 L 350.278 35.995 L 350.278 30.731 L 348.852 30.731 L 348.852 29.471 L 350.493 28.475 L 351.352 26.17 L 353.257 26.17 L 353.257 28.495 L 356.313 28.495 L 356.313 30.731 L 353.257 30.731 L 353.257 35.995 L 353.257 35.995 Q 353.257 36.629 353.613 36.932 L 353.613 36.932 L 353.613 36.932 Q 353.97 37.235 354.556 37.235 Z  M 365.337 25.135 L 365.337 39.413 L 362.319 39.413 L 362.319 31.151 L 362.349 29.793 L 362.397 28.309 L 362.397 28.309 Q 361.645 29.061 361.352 29.295 L 361.352 29.295 L 359.712 30.614 L 358.257 28.797 L 362.856 25.135 L 365.337 25.135 L 365.337 25.135 Z " fill-rule="evenodd" fill="rgb(0,0,0)"/></g><path d=" M 287.523 295.701 L 317.541 349.226 L 406.602 349.073" fill="none" vector-effect="non-scaling-stroke" stroke-width="2" stroke="rgb(0,0,0)" stroke-linejoin="miter" stroke-linecap="square" stroke-miterlimit="3"/><line x1="224.831" y1="290.226" x2="351.445" y2="290.226" vector-effect="non-scaling-stroke" stroke-width="2" stroke="rgb(0,0,0)" stroke-linejoin="miter" stroke-linecap="square" stroke-miterlimit="3"/><g id="c1"><path d=" M 202.623 290.226 C 202.623 277.969 212.574 268.018 224.831 268.018 C 237.087 268.018 247.038 277.969 247.038 290.226 C 247.038 302.482 237.087 312.433 224.831 312.433 C 212.574 312.433 202.623 302.482 202.623 290.226 Z " fill="rgb(195,215,247)" vector-effect="non-scaling-stroke" stroke-width="2" stroke="rgb(0,0,0)" stroke-linejoin="miter" stroke-linecap="square" stroke-miterlimit="3"/><path d=" M 226.262 282.486 L 226.262 299.548 L 222.969 299.548 L 222.969 286.458 L 218.657 288.005 L 218.657 285.169 L 226.087 282.486 L 226.262 282.486 L 226.262 282.486 Z " fill="rgb(0,0,0)"/></g><g id="c2"><path d=" M 265.831 290.226 C 265.831 277.969 275.782 268.018 288.038 268.018 C 300.295 268.018 310.245 277.969 310.245 290.226 C 310.245 302.482 300.295 312.433 288.038 312.433 C 275.782 312.433 265.831 302.482 265.831 290.226 Z " fill="rgb(195,215,247)" vector-effect="non-scaling-stroke" stroke-width="2" stroke="rgb(0,0,0)" stroke-linejoin="miter" stroke-linecap="square" stroke-miterlimit="3"/><path d=" M 292.646 296.935 L 292.646 299.548 L 281.009 299.548 L 281.009 297.322 L 286.528 291.392 L 286.528 291.392 Q 287.173 290.689 287.618 290.114 L 287.618 290.114 L 287.618 290.114 Q 288.064 289.54 288.339 289.066 L 288.339 289.066 L 288.339 289.066 Q 288.614 288.591 288.737 288.181 L 288.737 288.181 L 288.737 288.181 Q 288.86 287.771 288.86 287.384 L 288.86 287.384 L 288.86 287.384 Q 288.86 286.81 288.696 286.364 L 288.696 286.364 L 288.696 286.364 Q 288.532 285.919 288.233 285.609 L 288.233 285.609 L 288.233 285.609 Q 287.935 285.298 287.519 285.134 L 287.519 285.134 L 287.519 285.134 Q 287.103 284.97 286.599 284.97 L 286.599 284.97 L 286.599 284.97 Q 285.251 284.97 284.589 285.72 L 284.589 285.72 L 284.589 285.72 Q 283.927 286.47 283.927 287.818 L 283.927 287.818 L 280.657 287.818 L 280.657 287.818 Q 280.657 286.681 281.091 285.667 L 281.091 285.667 L 281.091 285.667 Q 281.524 284.654 282.315 283.892 L 282.315 283.892 L 282.315 283.892 Q 283.106 283.13 284.226 282.691 L 284.226 282.691 L 284.226 282.691 Q 285.345 282.251 286.704 282.251 L 286.704 282.251 L 286.704 282.251 Q 288.005 282.251 289.007 282.614 L 289.007 282.614 L 289.007 282.614 Q 290.009 282.978 290.683 283.634 L 290.683 283.634 L 290.683 283.634 Q 291.356 284.29 291.708 285.21 L 291.708 285.21 L 291.708 285.21 Q 292.06 286.13 292.06 287.243 L 292.06 287.243 L 292.06 287.243 Q 292.06 288.087 291.796 288.855 L 291.796 288.855 L 291.796 288.855 Q 291.532 289.622 291.046 290.372 L 291.046 290.372 L 291.046 290.372 Q 290.56 291.122 289.88 291.902 L 289.88 291.902 L 289.88 291.902 Q 289.2 292.681 288.368 293.536 L 288.368 293.536 L 285.157 296.935 L 292.646 296.935 L 292.646 296.935 Z " fill="rgb(0,0,0)"/></g><g id="C4"><path d=" M 329.038 290.226 C 329.038 277.969 338.989 268.018 351.245 268.018 C 363.502 268.018 373.453 277.969 373.453 290.226 C 373.453 302.482 363.502 312.433 351.245 312.433 C 338.989 312.433 329.038 302.482 329.038 290.226 Z " fill="rgb(211,240,193)" vector-effect="non-scaling-stroke" stroke-width="2" stroke="rgb(0,0,0)" stroke-linejoin="miter" stroke-linecap="square" stroke-miterlimit="3"/><path d=" M 354.212 282.486 L 354.212 293.208 L 356.193 293.208 L 356.193 295.845 L 354.212 295.845 L 354.212 299.548 L 350.954 299.548 L 350.954 295.845 L 343.865 295.845 L 343.736 293.806 L 350.908 282.486 L 354.212 282.486 L 354.212 282.486 Z  M 350.638 287.431 L 346.935 293.208 L 350.954 293.208 L 350.954 286.868 L 350.638 287.431 L 350.638 287.431 Z " fill-rule="evenodd" fill="rgb(0,0,0)"/></g><line x1="395.66" y1="349.226" x2="522.274" y2="349.226" vector-effect="non-scaling-stroke" stroke-width="2" stroke="rgb(0,0,0)" stroke-linejoin="miter" stroke-linecap="square" stroke-miterlimit="3"/><g id="c1"><path d=" M 373.453 349.226 C 373.453 336.969 383.404 327.018 395.66 327.018 C 407.917 327.018 417.867 336.969 417.867 349.226 C 417.867 361.482 407.917 371.433 395.66 371.433 C 383.404 371.433 373.453 361.482 373.453 349.226 Z " fill="rgb(195,215,247)" vector-effect="non-scaling-stroke" stroke-width="2" stroke="rgb(0,0,0)" stroke-linejoin="miter" stroke-linecap="square" stroke-miterlimit="3"/><path d=" M 392.393 351.118 L 392.393 348.587 L 394.162 348.587 L 394.162 348.587 Q 395.498 348.587 396.143 347.913 L 396.143 347.913 L 396.143 347.913 Q 396.787 347.239 396.787 346.15 L 396.787 346.15 L 396.787 346.15 Q 396.787 345.646 396.641 345.23 L 396.641 345.23 L 396.641 345.23 Q 396.494 344.814 396.201 344.515 L 396.201 344.515 L 396.201 344.515 Q 395.908 344.216 395.457 344.052 L 395.457 344.052 L 395.457 344.052 Q 395.006 343.888 394.408 343.888 L 394.408 343.888 L 394.408 343.888 Q 393.916 343.888 393.488 344.029 L 393.488 344.029 L 393.488 344.029 Q 393.06 344.169 392.738 344.433 L 392.738 344.433 L 392.738 344.433 Q 392.416 344.697 392.228 345.072 L 392.228 345.072 L 392.228 345.072 Q 392.041 345.447 392.041 345.915 L 392.041 345.915 L 388.783 345.915 L 388.783 345.915 Q 388.783 344.872 389.211 344.017 L 389.211 344.017 L 389.211 344.017 Q 389.639 343.161 390.389 342.546 L 390.389 342.546 L 390.389 342.546 Q 391.139 341.931 392.152 341.591 L 392.152 341.591 L 392.152 341.591 Q 393.166 341.251 394.338 341.251 L 394.338 341.251 L 394.338 341.251 Q 395.603 341.251 396.658 341.562 L 396.658 341.562 L 396.658 341.562 Q 397.713 341.872 398.463 342.488 L 398.463 342.488 L 398.463 342.488 Q 399.213 343.103 399.629 344.011 L 399.629 344.011 L 399.629 344.011 Q 400.045 344.919 400.045 346.114 L 400.045 346.114 L 400.045 346.114 Q 400.045 346.665 399.881 347.198 L 399.881 347.198 L 399.881 347.198 Q 399.717 347.732 399.4 348.212 L 399.4 348.212 L 399.4 348.212 Q 399.084 348.693 398.615 349.097 L 398.615 349.097 L 398.615 349.097 Q 398.146 349.501 397.537 349.794 L 397.537 349.794 L 397.537 349.794 Q 398.252 350.052 398.773 350.45 L 398.773 350.45 L 398.773 350.45 Q 399.295 350.849 399.635 351.359 L 399.635 351.359 L 399.635 351.359 Q 399.975 351.868 400.139 352.478 L 400.139 352.478 L 400.139 352.478 Q 400.303 353.087 400.303 353.767 L 400.303 353.767 L 400.303 353.767 Q 400.303 354.962 399.846 355.9 L 399.846 355.9 L 399.846 355.9 Q 399.389 356.837 398.592 357.476 L 398.592 357.476 L 398.592 357.476 Q 397.795 358.114 396.699 358.448 L 396.699 358.448 L 396.699 358.448 Q 395.603 358.782 394.338 358.782 L 394.338 358.782 L 394.338 358.782 Q 393.248 358.782 392.211 358.484 L 392.211 358.484 L 392.211 358.484 Q 391.174 358.185 390.365 357.581 L 390.365 357.581 L 390.365 357.581 Q 389.557 356.978 389.07 356.064 L 389.07 356.064 L 389.07 356.064 Q 388.584 355.15 388.584 353.907 L 388.584 353.907 L 391.842 353.907 L 391.842 353.907 Q 391.842 354.4 392.029 354.816 L 392.029 354.816 L 392.029 354.816 Q 392.217 355.232 392.562 355.53 L 392.562 355.53 L 392.562 355.53 Q 392.908 355.829 393.377 355.999 L 393.377 355.999 L 393.377 355.999 Q 393.846 356.169 394.408 356.169 L 394.408 356.169 L 394.408 356.169 Q 395.65 356.169 396.353 355.513 L 396.353 355.513 L 396.353 355.513 Q 397.057 354.857 397.057 353.732 L 397.057 353.732 L 397.057 353.732 Q 397.057 353.04 396.857 352.548 L 396.857 352.548 L 396.857 352.548 Q 396.658 352.056 396.277 351.739 L 396.277 351.739 L 396.277 351.739 Q 395.896 351.423 395.363 351.271 L 395.363 351.271 L 395.363 351.271 Q 394.83 351.118 394.162 351.118 L 394.162 351.118 L 392.393 351.118 L 392.393 351.118 Z " fill="rgb(0,0,0)"/></g><g id="c2"><path d=" M 436.66 349.226 C 436.66 336.969 446.611 327.018 458.867 327.018 C 471.124 327.018 481.075 336.969 481.075 349.226 C 481.075 361.482 471.124 371.433 458.867 371.433 C 446.611 371.433 436.66 361.482 436.66 349.226 Z " fill="rgb(195,215,247)" vector-effect="non-scaling-stroke" stroke-width="2" stroke="rgb(0,0,0)" stroke-linejoin="miter" stroke-linecap="square" stroke-miterlimit="3"/><path d=" M 455.084 350.79 L 452.483 350.146 L 453.455 341.486 L 462.924 341.486 L 462.924 344.251 L 456.139 344.251 L 455.729 348.001 L 455.729 348.001 Q 456.092 347.79 456.76 347.568 L 456.76 347.568 L 456.76 347.568 Q 457.428 347.345 458.295 347.345 L 458.295 347.345 L 458.295 347.345 Q 459.526 347.345 460.492 347.738 L 460.492 347.738 L 460.492 347.738 Q 461.459 348.13 462.121 348.868 L 462.121 348.868 L 462.121 348.868 Q 462.783 349.607 463.135 350.673 L 463.135 350.673 L 463.135 350.673 Q 463.487 351.739 463.487 353.087 L 463.487 353.087 L 463.487 353.087 Q 463.487 354.236 463.147 355.267 L 463.147 355.267 L 463.147 355.267 Q 462.807 356.298 462.104 357.083 L 462.104 357.083 L 462.104 357.083 Q 461.401 357.868 460.334 358.325 L 460.334 358.325 L 460.334 358.325 Q 459.268 358.782 457.815 358.782 L 457.815 358.782 L 457.815 358.782 Q 456.713 358.782 455.688 358.454 L 455.688 358.454 L 455.688 358.454 Q 454.662 358.126 453.865 357.493 L 453.865 357.493 L 453.865 357.493 Q 453.069 356.861 452.571 355.941 L 452.571 355.941 L 452.571 355.941 Q 452.072 355.021 452.037 353.837 L 452.037 353.837 L 455.248 353.837 L 455.248 353.837 Q 455.365 354.95 456.051 355.56 L 456.051 355.56 L 456.051 355.56 Q 456.737 356.169 457.803 356.169 L 457.803 356.169 L 457.803 356.169 Q 458.459 356.169 458.922 355.923 L 458.922 355.923 L 458.922 355.923 Q 459.385 355.677 459.672 355.243 L 459.672 355.243 L 459.672 355.243 Q 459.959 354.81 460.094 354.212 L 460.094 354.212 L 460.094 354.212 Q 460.229 353.614 460.229 352.923 L 460.229 352.923 L 460.229 352.923 Q 460.229 352.243 460.059 351.675 L 460.059 351.675 L 460.059 351.675 Q 459.889 351.107 459.537 350.697 L 459.537 350.697 L 459.537 350.697 Q 459.186 350.286 458.658 350.064 L 458.658 350.064 L 458.658 350.064 Q 458.131 349.841 457.416 349.841 L 457.416 349.841 L 457.416 349.841 Q 456.936 349.841 456.584 349.923 L 456.584 349.923 L 456.584 349.923 Q 456.233 350.005 455.963 350.134 L 455.963 350.134 L 455.963 350.134 Q 455.694 350.263 455.483 350.433 L 455.483 350.433 L 455.483 350.433 Q 455.272 350.603 455.084 350.79 L 455.084 350.79 L 455.084 350.79 Z " fill="rgb(0,0,0)"/></g><g id="C4"><path d=" M 499.867 349.226 C 499.867 336.969 509.818 327.018 522.075 327.018 C 534.331 327.018 544.282 336.969 544.282 349.226 C 544.282 361.482 534.331 371.433 522.075 371.433 C 509.818 371.433 499.867 361.482 499.867 349.226 Z " fill="rgb(195,215,247)" vector-effect="non-scaling-stroke" stroke-width="2" stroke="rgb(0,0,0)" stroke-linejoin="miter" stroke-linecap="square" stroke-miterlimit="3"/><path d=" M 523.741 341.345 L 524.174 341.345 L 524.174 344.052 L 523.987 344.052 L 523.987 344.052 Q 522.698 344.052 521.708 344.392 L 521.708 344.392 L 521.708 344.392 Q 520.717 344.732 520.02 345.353 L 520.02 345.353 L 520.02 345.353 Q 519.323 345.974 518.918 346.841 L 518.918 346.841 L 518.918 346.841 Q 518.514 347.708 518.409 348.775 L 518.409 348.775 L 518.409 348.775 Q 518.678 348.482 519.03 348.195 L 519.03 348.195 L 519.03 348.195 Q 519.381 347.907 519.821 347.679 L 519.821 347.679 L 519.821 347.679 Q 520.26 347.45 520.776 347.31 L 520.776 347.31 L 520.776 347.31 Q 521.292 347.169 521.889 347.169 L 521.889 347.169 L 521.889 347.169 Q 523.108 347.169 524.016 347.632 L 524.016 347.632 L 524.016 347.632 Q 524.924 348.095 525.534 348.886 L 525.534 348.886 L 525.534 348.886 Q 526.143 349.677 526.442 350.726 L 526.442 350.726 L 526.442 350.726 Q 526.741 351.775 526.741 352.935 L 526.741 352.935 L 526.741 352.935 Q 526.741 354.177 526.342 355.243 L 526.342 355.243 L 526.342 355.243 Q 525.944 356.31 525.206 357.095 L 525.206 357.095 L 525.206 357.095 Q 524.467 357.88 523.413 358.331 L 523.413 358.331 L 523.413 358.331 Q 522.358 358.782 521.045 358.782 L 521.045 358.782 L 521.045 358.782 Q 519.674 358.782 518.573 358.273 L 518.573 358.273 L 518.573 358.273 Q 517.471 357.763 516.704 356.861 L 516.704 356.861 L 516.704 356.861 Q 515.936 355.958 515.52 354.722 L 515.52 354.722 L 515.52 354.722 Q 515.104 353.486 515.104 352.021 L 515.104 352.021 L 515.104 350.767 L 515.104 350.767 Q 515.104 348.739 515.655 347.011 L 515.655 347.011 L 515.655 347.011 Q 516.206 345.282 517.295 344.023 L 517.295 344.023 L 517.295 344.023 Q 518.385 342.763 520.002 342.054 L 520.002 342.054 L 520.002 342.054 Q 521.62 341.345 523.741 341.345 L 523.741 341.345 L 523.741 341.345 Z  M 520.94 349.782 L 520.94 349.782 L 520.94 349.782 Q 520.061 349.782 519.387 350.251 L 519.387 350.251 L 519.387 350.251 Q 518.713 350.72 518.374 351.458 L 518.374 351.458 L 518.374 352.419 L 518.374 352.419 Q 518.374 353.357 518.567 354.06 L 518.567 354.06 L 518.567 354.06 Q 518.76 354.763 519.112 355.226 L 519.112 355.226 L 519.112 355.226 Q 519.463 355.689 519.944 355.923 L 519.944 355.923 L 519.944 355.923 Q 520.424 356.157 520.987 356.157 L 520.987 356.157 L 520.987 356.157 Q 521.561 356.157 522.03 355.917 L 522.03 355.917 L 522.03 355.917 Q 522.499 355.677 522.827 355.255 L 522.827 355.255 L 522.827 355.255 Q 523.155 354.833 523.331 354.253 L 523.331 354.253 L 523.331 354.253 Q 523.506 353.673 523.506 352.982 L 523.506 352.982 L 523.506 352.982 Q 523.506 352.29 523.331 351.704 L 523.331 351.704 L 523.331 351.704 Q 523.155 351.118 522.827 350.691 L 522.827 350.691 L 522.827 350.691 Q 522.499 350.263 522.024 350.023 L 522.024 350.023 L 522.024 350.023 Q 521.549 349.782 520.94 349.782 Z " fill-rule="evenodd" fill="rgb(0,0,0)"/></g><g id="Bhead"><path d="M 487.339 209.226 L 559.561 209.226 C 563.501 209.226 566.7 212.425 566.7 216.365 L 566.7 239.087 C 566.7 243.027 563.501 246.226 559.561 246.226 L 487.339 246.226 C 483.399 246.226 480.2 243.027 480.2 239.087 L 480.2 216.365 C 480.2 212.425 483.399 209.226 487.339 209.226 Z" style="stroke:none;fill:#FFF3A5;stroke-linecap:square;stroke-miterlimit:3;"/><path d="M 487.339 209.226 L 559.561 209.226 C 563.501 209.226 566.7 212.425 566.7 216.365 L 566.7 239.087 C 566.7 243.027 563.501 246.226 559.561 246.226 L 487.339 246.226 C 483.399 246.226 480.2 243.027 480.2 239.087 L 480.2 216.365 C 480.2 212.425 483.399 209.226 487.339 209.226 Z" style="fill:none;stroke:#000000;stroke-width:1.6855342301554246;stroke-linecap:square;stroke-miterlimit:3;"/><path d=" M 508.392 222.934 L 508.392 237.212 L 505.375 237.212 L 505.375 231.05 L 499.72 231.05 L 499.72 237.212 L 496.693 237.212 L 496.693 222.934 L 499.72 222.934 L 499.72 228.53 L 505.375 228.53 L 505.375 222.934 L 508.392 222.934 L 508.392 222.934 Z  M 520.218 234.712 L 520.218 237.212 L 511.996 237.212 L 511.996 222.934 L 520.218 222.934 L 520.218 225.415 L 515.023 225.415 L 515.023 228.55 L 519.857 228.55 L 519.857 231.03 L 515.023 231.03 L 515.023 234.712 L 520.218 234.712 L 520.218 234.712 Z  M 535.199 237.212 L 531.937 237.212 L 530.902 233.813 L 525.697 233.813 L 524.662 237.212 L 521.4 237.212 L 526.439 222.876 L 530.14 222.876 L 535.199 237.212 L 535.199 237.212 Z  M 526.459 231.274 L 530.179 231.274 L 530.179 231.274 Q 528.744 226.655 528.563 226.05 L 528.563 226.05 L 528.563 226.05 Q 528.382 225.444 528.304 225.093 L 528.304 225.093 L 528.304 225.093 Q 527.982 226.343 526.459 231.274 L 526.459 231.274 L 526.459 231.274 Z  M 548.841 229.936 L 548.841 229.936 L 548.841 229.936 Q 548.841 233.462 546.834 235.337 L 546.834 235.337 L 546.834 235.337 Q 544.828 237.212 541.039 237.212 L 541.039 237.212 L 536.996 237.212 L 536.996 222.934 L 541.478 222.934 L 541.478 222.934 Q 544.974 222.934 546.908 224.78 L 546.908 224.78 L 546.908 224.78 Q 548.841 226.626 548.841 229.936 Z  M 545.697 230.014 L 545.697 230.014 L 545.697 230.014 Q 545.697 225.415 541.634 225.415 L 541.634 225.415 L 540.023 225.415 L 540.023 234.712 L 541.322 234.712 L 541.322 234.712 Q 545.697 234.712 545.697 230.014 Z " fill-rule="evenodd" fill="rgb(0,0,0)"/></g><g id="Bmaster"><path d="M 481.126 247.226 L 565.774 247.226 C 570.01 247.226 573.45 250.665 573.45 254.902 L 573.45 276.55 C 573.45 280.786 570.01 284.226 565.774 284.226 L 481.126 284.226 C 476.889 284.226 473.45 280.786 473.45 276.55 L 473.45 254.902 C 473.45 250.665 476.889 247.226 481.126 247.226 Z" style="stroke:none;fill:#9FC4FF;stroke-linecap:square;stroke-miterlimit:3;"/><path d="M 481.126 247.226 L 565.774 247.226 C 570.01 247.226 573.45 250.665 573.45 254.902 L 573.45 276.55 C 573.45 280.786 570.01 284.226 565.774 284.226 L 481.126 284.226 C 476.889 284.226 473.45 280.786 473.45 276.55 L 473.45 254.902 C 473.45 250.665 476.889 247.226 481.126 247.226 Z" style="fill:none;stroke:#000000;stroke-width:1.6855342301554246;stroke-linecap:square;stroke-miterlimit:3;"/><path d=" M 499.668 268.608 L 499.668 274.086 L 496.689 274.086 L 496.689 267.709 L 496.689 267.709 Q 496.689 266.528 496.293 265.937 L 496.293 265.937 L 496.293 265.937 Q 495.898 265.346 495.048 265.346 L 495.048 265.346 L 495.048 265.346 Q 493.906 265.346 493.388 266.186 L 493.388 266.186 L 493.388 266.186 Q 492.871 267.026 492.871 268.95 L 492.871 268.95 L 492.871 274.086 L 489.892 274.086 L 489.892 263.168 L 492.168 263.168 L 492.568 264.565 L 492.734 264.565 L 492.734 264.565 Q 493.173 263.813 494.003 263.388 L 494.003 263.388 L 494.003 263.388 Q 494.834 262.963 495.908 262.963 L 495.908 262.963 L 495.908 262.963 Q 498.359 262.963 499.228 264.565 L 499.228 264.565 L 499.492 264.565 L 499.492 264.565 Q 499.931 263.803 500.786 263.383 L 500.786 263.383 L 500.786 263.383 Q 501.64 262.963 502.714 262.963 L 502.714 262.963 L 502.714 262.963 Q 504.57 262.963 505.522 263.915 L 505.522 263.915 L 505.522 263.915 Q 506.474 264.868 506.474 266.967 L 506.474 266.967 L 506.474 274.086 L 503.486 274.086 L 503.486 267.709 L 503.486 267.709 Q 503.486 266.528 503.09 265.937 L 503.09 265.937 L 503.09 265.937 Q 502.695 265.346 501.845 265.346 L 501.845 265.346 L 501.845 265.346 Q 500.751 265.346 500.209 266.127 L 500.209 266.127 L 500.209 266.127 Q 499.668 266.909 499.668 268.608 L 499.668 268.608 L 499.668 268.608 Z  M 518.544 274.086 L 516.464 274.086 L 515.888 272.602 L 515.81 272.602 L 515.81 272.602 Q 515.058 273.549 514.262 273.915 L 514.262 273.915 L 514.262 273.915 Q 513.466 274.282 512.187 274.282 L 512.187 274.282 L 512.187 274.282 Q 510.615 274.282 509.711 273.383 L 509.711 273.383 L 509.711 273.383 Q 508.808 272.485 508.808 270.825 L 508.808 270.825 L 508.808 270.825 Q 508.808 269.086 510.024 268.261 L 510.024 268.261 L 510.024 268.261 Q 511.24 267.436 513.691 267.348 L 513.691 267.348 L 515.585 267.289 L 515.585 266.811 L 515.585 266.811 Q 515.585 265.151 513.886 265.151 L 513.886 265.151 L 513.886 265.151 Q 512.578 265.151 510.81 265.942 L 510.81 265.942 L 509.824 263.93 L 509.824 263.93 Q 511.709 262.944 514.003 262.944 L 514.003 262.944 L 514.003 262.944 Q 516.201 262.944 517.373 263.901 L 517.373 263.901 L 517.373 263.901 Q 518.544 264.858 518.544 266.811 L 518.544 266.811 L 518.544 274.086 L 518.544 274.086 Z  M 515.585 269.926 L 515.585 269.028 L 514.433 269.067 L 514.433 269.067 Q 513.134 269.106 512.5 269.536 L 512.5 269.536 L 512.5 269.536 Q 511.865 269.965 511.865 270.844 L 511.865 270.844 L 511.865 270.844 Q 511.865 272.104 513.31 272.104 L 513.31 272.104 L 513.31 272.104 Q 514.345 272.104 514.965 271.508 L 514.965 271.508 L 514.965 271.508 Q 515.585 270.913 515.585 269.926 L 515.585 269.926 L 515.585 269.926 Z  M 529.228 270.844 L 529.228 270.844 L 529.228 270.844 Q 529.228 272.524 528.061 273.403 L 528.061 273.403 L 528.061 273.403 Q 526.894 274.282 524.57 274.282 L 524.57 274.282 L 524.57 274.282 Q 523.378 274.282 522.539 274.121 L 522.539 274.121 L 522.539 274.121 Q 521.699 273.959 520.966 273.647 L 520.966 273.647 L 520.966 271.186 L 520.966 271.186 Q 521.796 271.577 522.836 271.84 L 522.836 271.84 L 522.836 271.84 Q 523.876 272.104 524.668 272.104 L 524.668 272.104 L 524.668 272.104 Q 526.289 272.104 526.289 271.166 L 526.289 271.166 L 526.289 271.166 Q 526.289 270.815 526.074 270.595 L 526.074 270.595 L 526.074 270.595 Q 525.859 270.375 525.332 270.097 L 525.332 270.097 L 525.332 270.097 Q 524.804 269.819 523.925 269.448 L 523.925 269.448 L 523.925 269.448 Q 522.666 268.92 522.075 268.471 L 522.075 268.471 L 522.075 268.471 Q 521.484 268.022 521.215 267.441 L 521.215 267.441 L 521.215 267.441 Q 520.947 266.86 520.947 266.01 L 520.947 266.01 L 520.947 266.01 Q 520.947 264.555 522.075 263.759 L 522.075 263.759 L 522.075 263.759 Q 523.203 262.963 525.273 262.963 L 525.273 262.963 L 525.273 262.963 Q 527.246 262.963 529.111 263.823 L 529.111 263.823 L 528.212 265.971 L 528.212 265.971 Q 527.392 265.62 526.679 265.395 L 526.679 265.395 L 526.679 265.395 Q 525.966 265.17 525.224 265.17 L 525.224 265.17 L 525.224 265.17 Q 523.906 265.17 523.906 265.883 L 523.906 265.883 L 523.906 265.883 Q 523.906 266.284 524.331 266.577 L 524.331 266.577 L 524.331 266.577 Q 524.755 266.87 526.191 267.446 L 526.191 267.446 L 526.191 267.446 Q 527.47 267.963 528.066 268.413 L 528.066 268.413 L 528.066 268.413 Q 528.662 268.862 528.945 269.448 L 528.945 269.448 L 528.945 269.448 Q 529.228 270.034 529.228 270.844 Z  M 536.152 271.909 L 536.152 271.909 L 536.152 271.909 Q 536.933 271.909 538.027 271.567 L 538.027 271.567 L 538.027 273.784 L 538.027 273.784 Q 536.914 274.282 535.293 274.282 L 535.293 274.282 L 535.293 274.282 Q 533.505 274.282 532.69 273.378 L 532.69 273.378 L 532.69 273.378 Q 531.875 272.475 531.875 270.668 L 531.875 270.668 L 531.875 265.405 L 530.449 265.405 L 530.449 264.145 L 532.089 263.149 L 532.949 260.844 L 534.853 260.844 L 534.853 263.168 L 537.91 263.168 L 537.91 265.405 L 534.853 265.405 L 534.853 270.668 L 534.853 270.668 Q 534.853 271.303 535.209 271.606 L 535.209 271.606 L 535.209 271.606 Q 535.566 271.909 536.152 271.909 Z  M 544.755 265.082 L 544.755 265.082 L 544.755 265.082 Q 543.808 265.082 543.271 265.683 L 543.271 265.683 L 543.271 265.683 Q 542.734 266.284 542.656 267.387 L 542.656 267.387 L 546.835 267.387 L 546.835 267.387 Q 546.816 266.284 546.259 265.683 L 546.259 265.683 L 546.259 265.683 Q 545.703 265.082 544.755 265.082 Z  M 545.175 274.282 L 545.175 274.282 L 545.175 274.282 Q 542.539 274.282 541.054 272.827 L 541.054 272.827 L 541.054 272.827 Q 539.57 271.372 539.57 268.706 L 539.57 268.706 L 539.57 268.706 Q 539.57 265.961 540.942 264.462 L 540.942 264.462 L 540.942 264.462 Q 542.314 262.963 544.736 262.963 L 544.736 262.963 L 544.736 262.963 Q 547.05 262.963 548.339 264.282 L 548.339 264.282 L 548.339 264.282 Q 549.628 265.6 549.628 267.924 L 549.628 267.924 L 549.628 269.37 L 542.587 269.37 L 542.587 269.37 Q 542.636 270.639 543.339 271.352 L 543.339 271.352 L 543.339 271.352 Q 544.043 272.065 545.312 272.065 L 545.312 272.065 L 545.312 272.065 Q 546.298 272.065 547.177 271.86 L 547.177 271.86 L 547.177 271.86 Q 548.056 271.655 549.013 271.206 L 549.013 271.206 L 549.013 273.51 L 549.013 273.51 Q 548.232 273.901 547.343 274.091 L 547.343 274.091 L 547.343 274.091 Q 546.455 274.282 545.175 274.282 Z  M 558.144 262.963 L 558.144 262.963 L 558.144 262.963 Q 558.75 262.963 559.15 263.051 L 559.15 263.051 L 558.925 265.844 L 558.925 265.844 Q 558.564 265.747 558.046 265.747 L 558.046 265.747 L 558.046 265.747 Q 556.621 265.747 555.825 266.479 L 555.825 266.479 L 555.825 266.479 Q 555.029 267.211 555.029 268.53 L 555.029 268.53 L 555.029 274.086 L 552.05 274.086 L 552.05 263.168 L 554.306 263.168 L 554.746 265.004 L 554.892 265.004 L 554.892 265.004 Q 555.4 264.086 556.264 263.525 L 556.264 263.525 L 556.264 263.525 Q 557.128 262.963 558.144 262.963 Z " fill-rule="evenodd" fill="rgb(0,0,0)"/></g><g id="Bmaster"><path d="M 289.776 225.018 L 412.715 225.018 C 417.749 225.018 421.836 229.105 421.836 234.139 L 421.836 252.898 C 421.836 257.932 417.749 262.018 412.715 262.018 L 289.776 262.018 C 284.742 262.018 280.655 257.932 280.655 252.898 L 280.655 234.139 C 280.655 229.105 284.742 225.018 289.776 225.018 Z" style="stroke:none;fill:#D3F0C1;stroke-linecap:square;stroke-miterlimit:3;"/><path d="M 289.776 225.018 L 412.715 225.018 C 417.749 225.018 421.836 229.105 421.836 234.139 L 421.836 252.898 C 421.836 257.932 417.749 262.018 412.715 262.018 L 289.776 262.018 C 284.742 262.018 280.655 257.932 280.655 252.898 L 280.655 234.139 C 280.655 229.105 284.742 225.018 289.776 225.018 Z" style="fill:none;stroke:#000000;stroke-width:1.6855342301554246;stroke-linecap:square;stroke-miterlimit:3;"/><path d=" M 295.123 245.799 L 295.123 245.799 L 295.123 245.799 Q 295.123 247.42 295.656 248.25 L 295.656 248.25 L 295.656 248.25 Q 296.188 249.08 297.389 249.08 L 297.389 249.08 L 297.389 249.08 Q 298.58 249.08 299.103 248.255 L 299.103 248.255 L 299.103 248.255 Q 299.625 247.43 299.625 245.799 L 299.625 245.799 L 299.625 245.799 Q 299.625 244.178 299.098 243.367 L 299.098 243.367 L 299.098 243.367 Q 298.571 242.557 297.369 242.557 L 297.369 242.557 L 297.369 242.557 Q 296.178 242.557 295.651 243.362 L 295.651 243.362 L 295.651 243.362 Q 295.123 244.168 295.123 245.799 Z  M 302.672 245.799 L 302.672 245.799 L 302.672 245.799 Q 302.672 248.465 301.266 249.969 L 301.266 249.969 L 301.266 249.969 Q 299.86 251.473 297.35 251.473 L 297.35 251.473 L 297.35 251.473 Q 295.778 251.473 294.576 250.784 L 294.576 250.784 L 294.576 250.784 Q 293.375 250.096 292.731 248.807 L 292.731 248.807 L 292.731 248.807 Q 292.086 247.518 292.086 245.799 L 292.086 245.799 L 292.086 245.799 Q 292.086 243.123 293.483 241.639 L 293.483 241.639 L 293.483 241.639 Q 294.879 240.154 297.409 240.154 L 297.409 240.154 L 297.409 240.154 Q 298.981 240.154 300.182 240.838 L 300.182 240.838 L 300.182 240.838 Q 301.383 241.521 302.028 242.801 L 302.028 242.801 L 302.028 242.801 Q 302.672 244.08 302.672 245.799 Z  M 311.227 240.154 L 311.227 240.154 L 311.227 240.154 Q 311.832 240.154 312.233 240.242 L 312.233 240.242 L 312.008 243.035 L 312.008 243.035 Q 311.647 242.937 311.129 242.937 L 311.129 242.937 L 311.129 242.937 Q 309.703 242.937 308.908 243.67 L 308.908 243.67 L 308.908 243.67 Q 308.112 244.402 308.112 245.721 L 308.112 245.721 L 308.112 251.277 L 305.133 251.277 L 305.133 240.359 L 307.389 240.359 L 307.828 242.195 L 307.975 242.195 L 307.975 242.195 Q 308.483 241.277 309.347 240.716 L 309.347 240.716 L 309.347 240.716 Q 310.211 240.154 311.227 240.154 Z  M 314.088 237.537 L 314.088 237.537 L 314.088 237.537 Q 314.088 236.082 315.709 236.082 L 315.709 236.082 L 315.709 236.082 Q 317.33 236.082 317.33 237.537 L 317.33 237.537 L 317.33 237.537 Q 317.33 238.23 316.925 238.616 L 316.925 238.616 L 316.925 238.616 Q 316.52 239.002 315.709 239.002 L 315.709 239.002 L 315.709 239.002 Q 314.088 239.002 314.088 237.537 Z  M 317.194 240.359 L 317.194 251.277 L 314.215 251.277 L 314.215 240.359 L 317.194 240.359 L 317.194 240.359 Z  M 326.012 240.359 L 329.821 240.359 L 329.821 241.873 L 328.112 242.312 L 328.112 242.312 Q 328.58 243.045 328.58 243.953 L 328.58 243.953 L 328.58 243.953 Q 328.58 245.711 327.355 246.692 L 327.355 246.692 L 327.355 246.692 Q 326.129 247.674 323.951 247.674 L 323.951 247.674 L 323.414 247.644 L 322.975 247.596 L 322.975 247.596 Q 322.516 247.947 322.516 248.377 L 322.516 248.377 L 322.516 248.377 Q 322.516 249.021 324.157 249.021 L 324.157 249.021 L 326.012 249.021 L 326.012 249.021 Q 327.809 249.021 328.751 249.793 L 328.751 249.793 L 328.751 249.793 Q 329.694 250.564 329.694 252.059 L 329.694 252.059 L 329.694 252.059 Q 329.694 253.973 328.097 255.027 L 328.097 255.027 L 328.097 255.027 Q 326.5 256.082 323.512 256.082 L 323.512 256.082 L 323.512 256.082 Q 321.227 256.082 320.021 255.286 L 320.021 255.286 L 320.021 255.286 Q 318.815 254.49 318.815 253.055 L 318.815 253.055 L 318.815 253.055 Q 318.815 252.068 319.43 251.404 L 319.43 251.404 L 319.43 251.404 Q 320.045 250.74 321.237 250.457 L 321.237 250.457 L 321.237 250.457 Q 320.778 250.262 320.436 249.817 L 320.436 249.817 L 320.436 249.817 Q 320.094 249.373 320.094 248.875 L 320.094 248.875 L 320.094 248.875 Q 320.094 248.25 320.455 247.835 L 320.455 247.835 L 320.455 247.835 Q 320.817 247.42 321.5 247.019 L 321.5 247.019 L 321.5 247.019 Q 320.641 246.648 320.138 245.828 L 320.138 245.828 L 320.138 245.828 Q 319.635 245.008 319.635 243.894 L 319.635 243.894 L 319.635 243.894 Q 319.635 242.107 320.797 241.131 L 320.797 241.131 L 320.797 241.131 Q 321.959 240.154 324.118 240.154 L 324.118 240.154 L 324.118 240.154 Q 324.576 240.154 325.206 240.237 L 325.206 240.237 L 325.206 240.237 Q 325.836 240.32 326.012 240.359 L 326.012 240.359 L 326.012 240.359 Z  M 321.393 252.82 L 321.393 252.82 L 321.393 252.82 Q 321.393 253.435 321.984 253.787 L 321.984 253.787 L 321.984 253.787 Q 322.575 254.139 323.639 254.139 L 323.639 254.139 L 323.639 254.139 Q 325.241 254.139 326.149 253.699 L 326.149 253.699 L 326.149 253.699 Q 327.057 253.26 327.057 252.498 L 327.057 252.498 L 327.057 252.498 Q 327.057 251.883 326.52 251.648 L 326.52 251.648 L 326.52 251.648 Q 325.983 251.414 324.86 251.414 L 324.86 251.414 L 323.317 251.414 L 323.317 251.414 Q 322.496 251.414 321.945 251.8 L 321.945 251.8 L 321.945 251.8 Q 321.393 252.185 321.393 252.82 Z  M 322.477 243.934 L 322.477 243.934 L 322.477 243.934 Q 322.477 244.822 322.882 245.34 L 322.882 245.34 L 322.882 245.34 Q 323.287 245.857 324.118 245.857 L 324.118 245.857 L 324.118 245.857 Q 324.957 245.857 325.348 245.34 L 325.348 245.34 L 325.348 245.34 Q 325.739 244.822 325.739 243.934 L 325.739 243.934 L 325.739 243.934 Q 325.739 241.961 324.118 241.961 L 324.118 241.961 L 324.118 241.961 Q 322.477 241.961 322.477 243.934 Z  M 331.491 237.537 L 331.491 237.537 L 331.491 237.537 Q 331.491 236.082 333.112 236.082 L 333.112 236.082 L 333.112 236.082 Q 334.733 236.082 334.733 237.537 L 334.733 237.537 L 334.733 237.537 Q 334.733 238.23 334.327 238.616 L 334.327 238.616 L 334.327 238.616 Q 333.922 239.002 333.112 239.002 L 333.112 239.002 L 333.112 239.002 Q 331.491 239.002 331.491 237.537 Z  M 334.596 240.359 L 334.596 251.277 L 331.618 251.277 L 331.618 240.359 L 334.596 240.359 L 334.596 240.359 Z  M 347.799 244.158 L 347.799 251.277 L 344.821 251.277 L 344.821 244.9 L 344.821 244.9 Q 344.821 243.719 344.401 243.128 L 344.401 243.128 L 344.401 243.128 Q 343.981 242.537 343.063 242.537 L 343.063 242.537 L 343.063 242.537 Q 341.813 242.537 341.256 243.372 L 341.256 243.372 L 341.256 243.372 Q 340.7 244.207 340.7 246.141 L 340.7 246.141 L 340.7 251.277 L 337.721 251.277 L 337.721 240.359 L 339.996 240.359 L 340.397 241.756 L 340.563 241.756 L 340.563 241.756 Q 341.061 240.965 341.935 240.56 L 341.935 240.56 L 341.935 240.56 Q 342.809 240.154 343.922 240.154 L 343.922 240.154 L 343.922 240.154 Q 345.826 240.154 346.813 241.185 L 346.813 241.185 L 346.813 241.185 Q 347.799 242.215 347.799 244.158 L 347.799 244.158 L 347.799 244.158 Z  M 354.762 237 L 357.467 237 L 352.145 251.277 L 349.44 251.277 L 354.762 237 L 354.762 237 Z  M 365.162 240.359 L 365.162 242.596 L 362.584 242.596 L 362.584 251.277 L 359.606 251.277 L 359.606 242.596 L 357.965 242.596 L 357.965 241.16 L 359.606 240.359 L 359.606 239.559 L 359.606 239.559 Q 359.606 237.693 360.524 236.834 L 360.524 236.834 L 360.524 236.834 Q 361.442 235.975 363.463 235.975 L 363.463 235.975 L 363.463 235.975 Q 365.006 235.975 366.207 236.434 L 366.207 236.434 L 365.446 238.621 L 365.446 238.621 Q 364.547 238.338 363.785 238.338 L 363.785 238.338 L 363.785 238.338 Q 363.151 238.338 362.868 238.714 L 362.868 238.714 L 362.868 238.714 Q 362.584 239.09 362.584 239.676 L 362.584 239.676 L 362.584 240.359 L 365.162 240.359 L 365.162 240.359 Z  M 371.393 242.273 L 371.393 242.273 L 371.393 242.273 Q 370.446 242.273 369.909 242.874 L 369.909 242.874 L 369.909 242.874 Q 369.371 243.475 369.293 244.578 L 369.293 244.578 L 373.473 244.578 L 373.473 244.578 Q 373.453 243.475 372.897 242.874 L 372.897 242.874 L 372.897 242.874 Q 372.34 242.273 371.393 242.273 Z  M 371.813 251.473 L 371.813 251.473 L 371.813 251.473 Q 369.176 251.473 367.692 250.018 L 367.692 250.018 L 367.692 250.018 Q 366.207 248.562 366.207 245.896 L 366.207 245.896 L 366.207 245.896 Q 366.207 243.152 367.579 241.653 L 367.579 241.653 L 367.579 241.653 Q 368.951 240.154 371.373 240.154 L 371.373 240.154 L 371.373 240.154 Q 373.688 240.154 374.977 241.473 L 374.977 241.473 L 374.977 241.473 Q 376.266 242.791 376.266 245.115 L 376.266 245.115 L 376.266 246.56 L 369.225 246.56 L 369.225 246.56 Q 369.274 247.83 369.977 248.543 L 369.977 248.543 L 369.977 248.543 Q 370.68 249.256 371.95 249.256 L 371.95 249.256 L 371.95 249.256 Q 372.936 249.256 373.815 249.051 L 373.815 249.051 L 373.815 249.051 Q 374.694 248.846 375.651 248.396 L 375.651 248.396 L 375.651 250.701 L 375.651 250.701 Q 374.869 251.092 373.981 251.282 L 373.981 251.282 L 373.981 251.282 Q 373.092 251.473 371.813 251.473 Z  M 387.701 251.277 L 385.621 251.277 L 385.045 249.793 L 384.967 249.793 L 384.967 249.793 Q 384.215 250.74 383.419 251.106 L 383.419 251.106 L 383.419 251.106 Q 382.623 251.473 381.344 251.473 L 381.344 251.473 L 381.344 251.473 Q 379.772 251.473 378.868 250.574 L 378.868 250.574 L 378.868 250.574 Q 377.965 249.676 377.965 248.016 L 377.965 248.016 L 377.965 248.016 Q 377.965 246.277 379.181 245.452 L 379.181 245.452 L 379.181 245.452 Q 380.397 244.627 382.848 244.539 L 382.848 244.539 L 384.743 244.48 L 384.743 244.002 L 384.743 244.002 Q 384.743 242.342 383.043 242.342 L 383.043 242.342 L 383.043 242.342 Q 381.735 242.342 379.967 243.133 L 379.967 243.133 L 378.981 241.121 L 378.981 241.121 Q 380.866 240.135 383.16 240.135 L 383.16 240.135 L 383.16 240.135 Q 385.358 240.135 386.53 241.092 L 386.53 241.092 L 386.53 241.092 Q 387.701 242.049 387.701 244.002 L 387.701 244.002 L 387.701 251.277 L 387.701 251.277 Z  M 384.743 247.117 L 384.743 246.219 L 383.59 246.258 L 383.59 246.258 Q 382.291 246.297 381.657 246.726 L 381.657 246.726 L 381.657 246.726 Q 381.022 247.156 381.022 248.035 L 381.022 248.035 L 381.022 248.035 Q 381.022 249.295 382.467 249.295 L 382.467 249.295 L 382.467 249.295 Q 383.502 249.295 384.122 248.699 L 384.122 248.699 L 384.122 248.699 Q 384.743 248.103 384.743 247.117 L 384.743 247.117 L 384.743 247.117 Z  M 395.368 249.1 L 395.368 249.1 L 395.368 249.1 Q 396.149 249.1 397.243 248.758 L 397.243 248.758 L 397.243 250.975 L 397.243 250.975 Q 396.129 251.473 394.508 251.473 L 394.508 251.473 L 394.508 251.473 Q 392.721 251.473 391.906 250.569 L 391.906 250.569 L 391.906 250.569 Q 391.09 249.666 391.09 247.859 L 391.09 247.859 L 391.09 242.596 L 389.664 242.596 L 389.664 241.336 L 391.305 240.34 L 392.164 238.035 L 394.069 238.035 L 394.069 240.359 L 397.125 240.359 L 397.125 242.596 L 394.069 242.596 L 394.069 247.859 L 394.069 247.859 Q 394.069 248.494 394.425 248.797 L 394.425 248.797 L 394.425 248.797 Q 394.782 249.1 395.368 249.1 Z  M 406.149 237 L 406.149 251.277 L 403.131 251.277 L 403.131 243.016 L 403.16 241.658 L 403.209 240.174 L 403.209 240.174 Q 402.457 240.926 402.164 241.16 L 402.164 241.16 L 400.524 242.478 L 399.069 240.662 L 403.668 237 L 406.149 237 L 406.149 237 Z " fill-rule="evenodd" fill="rgb(0,0,0)"/></g></g></svg>