<?xml version="1.0" standalone="no"?><!-- Generator: Gravit.io --><svg xmlns="http://www.w3.org/2000/svg" xmlns:xlink="http://www.w3.org/1999/xlink" style="isolation:isolate" viewBox="0 0 800 400" width="800" height="400"><defs><clipPath id="_clipPath_ERpunzf8yiXAFEEzXGpq9SGh4vHZbS2t"><rect width="800" height="400"/></clipPath></defs><g clip-path="url(#_clipPath_ERpunzf8yiXAFEEzXGpq9SGh4vHZbS2t)"><line x1="159.207" y1="277.207" x2="224.498" y2="277.207" vector-effect="non-scaling-stroke" stroke-width="2" stroke="rgb(0,0,0)" stroke-linejoin="miter" stroke-linecap="square" stroke-miterlimit="3"/><path d=" M 218.921 277.207 L 248.938 352.939 L 338 352.723" fill="none" vector-effect="non-scaling-stroke" stroke-width="2" stroke="rgb(0,0,0)" stroke-linejoin="miter" stroke-linecap="square" stroke-miterlimit="3"/><path d=" M 604.204 277.122 L 634.222 352.939 L 723.284 352.723" fill="none" vector-effect="non-scaling-stroke" stroke-width="2" stroke="rgb(0,0,0)" stroke-linejoin="miter" stroke-linecap="square" stroke-miterlimit="3"/><g id="Bmaster"><path d="M 150.549 209 L 298.448 209 C 303.935 209 308.391 213.455 308.391 218.943 L 308.391 236.057 C 308.391 241.545 303.935 246 298.448 246 L 150.549 246 C 145.061 246 140.606 241.545 140.606 236.057 L 140.606 218.943 C 140.606 213.455 145.061 209 150.549 209 Z" style="stroke:none;fill:#9FC4FF;stroke-miterlimit:10;"/><path d="M 150.549 209 L 298.448 209 C 303.935 209 308.391 213.455 308.391 218.943 L 308.391 236.057 C 308.391 241.545 303.935 246 298.448 246 L 150.549 246 C 145.061 246 140.606 241.545 140.606 236.057 L 140.606 218.943 C 140.606 213.455 145.061 209 150.549 209 Z" style="fill:none;stroke:#000000;stroke-width:1.7165048661891558;stroke-linecap:square;stroke-miterlimit:3;"/><path d=" M 157.887 229.28 L 157.887 229.28 L 157.887 229.28 Q 157.887 230.901 158.439 231.731 L 158.439 231.731 L 158.439 231.731 Q 158.991 232.562 160.236 232.562 L 160.236 232.562 L 160.236 232.562 Q 161.472 232.562 162.014 231.736 L 162.014 231.736 L 162.014 231.736 Q 162.556 230.911 162.556 229.28 L 162.556 229.28 L 162.556 229.28 Q 162.556 227.659 162.009 226.849 L 162.009 226.849 L 162.009 226.849 Q 161.462 226.038 160.216 226.038 L 160.216 226.038 L 160.216 226.038 Q 158.981 226.038 158.434 226.844 L 158.434 226.844 L 158.434 226.844 Q 157.887 227.649 157.887 229.28 Z  M 165.716 229.28 L 165.716 229.28 L 165.716 229.28 Q 165.716 231.946 164.257 233.45 L 164.257 233.45 L 164.257 233.45 Q 162.799 234.954 160.196 234.954 L 160.196 234.954 L 160.196 234.954 Q 158.565 234.954 157.32 234.266 L 157.32 234.266 L 157.32 234.266 Q 156.074 233.577 155.406 232.288 L 155.406 232.288 L 155.406 232.288 Q 154.737 230.999 154.737 229.28 L 154.737 229.28 L 154.737 229.28 Q 154.737 226.604 156.185 225.12 L 156.185 225.12 L 156.185 225.12 Q 157.634 223.636 160.257 223.636 L 160.257 223.636 L 160.257 223.636 Q 161.887 223.636 163.133 224.319 L 163.133 224.319 L 163.133 224.319 Q 164.379 225.003 165.047 226.282 L 165.047 226.282 L 165.047 226.282 Q 165.716 227.562 165.716 229.28 Z  M 174.588 223.636 L 174.588 223.636 L 174.588 223.636 Q 175.215 223.636 175.631 223.724 L 175.631 223.724 L 175.398 226.517 L 175.398 226.517 Q 175.023 226.419 174.486 226.419 L 174.486 226.419 L 174.486 226.419 Q 173.008 226.419 172.182 227.151 L 172.182 227.151 L 172.182 227.151 Q 171.357 227.884 171.357 229.202 L 171.357 229.202 L 171.357 234.759 L 168.268 234.759 L 168.268 223.841 L 170.607 223.841 L 171.063 225.677 L 171.215 225.677 L 171.215 225.677 Q 171.742 224.759 172.638 224.197 L 172.638 224.197 L 172.638 224.197 Q 173.534 223.636 174.588 223.636 Z  M 177.555 221.019 L 177.555 221.019 L 177.555 221.019 Q 177.555 219.563 179.236 219.563 L 179.236 219.563 L 179.236 219.563 Q 180.917 219.563 180.917 221.019 L 180.917 221.019 L 180.917 221.019 Q 180.917 221.712 180.497 222.098 L 180.497 222.098 L 180.497 222.098 Q 180.077 222.483 179.236 222.483 L 179.236 222.483 L 179.236 222.483 Q 177.555 222.483 177.555 221.019 Z  M 180.776 223.841 L 180.776 234.759 L 177.687 234.759 L 177.687 223.841 L 180.776 223.841 L 180.776 223.841 Z  M 189.921 223.841 L 193.871 223.841 L 193.871 225.354 L 192.099 225.794 L 192.099 225.794 Q 192.585 226.526 192.585 227.435 L 192.585 227.435 L 192.585 227.435 Q 192.585 229.192 191.314 230.174 L 191.314 230.174 L 191.314 230.174 Q 190.043 231.155 187.784 231.155 L 187.784 231.155 L 187.227 231.126 L 186.771 231.077 L 186.771 231.077 Q 186.295 231.429 186.295 231.858 L 186.295 231.858 L 186.295 231.858 Q 186.295 232.503 187.997 232.503 L 187.997 232.503 L 189.921 232.503 L 189.921 232.503 Q 191.785 232.503 192.762 233.274 L 192.762 233.274 L 192.762 233.274 Q 193.739 234.046 193.739 235.54 L 193.739 235.54 L 193.739 235.54 Q 193.739 237.454 192.083 238.509 L 192.083 238.509 L 192.083 238.509 Q 190.427 239.563 187.328 239.563 L 187.328 239.563 L 187.328 239.563 Q 184.958 239.563 183.708 238.768 L 183.708 238.768 L 183.708 238.768 Q 182.457 237.972 182.457 236.536 L 182.457 236.536 L 182.457 236.536 Q 182.457 235.55 183.095 234.886 L 183.095 234.886 L 183.095 234.886 Q 183.733 234.222 184.969 233.938 L 184.969 233.938 L 184.969 233.938 Q 184.493 233.743 184.138 233.299 L 184.138 233.299 L 184.138 233.299 Q 183.784 232.854 183.784 232.356 L 183.784 232.356 L 183.784 232.356 Q 183.784 231.731 184.158 231.316 L 184.158 231.316 L 184.158 231.316 Q 184.533 230.901 185.242 230.501 L 185.242 230.501 L 185.242 230.501 Q 184.351 230.13 183.829 229.31 L 183.829 229.31 L 183.829 229.31 Q 183.308 228.489 183.308 227.376 L 183.308 227.376 L 183.308 227.376 Q 183.308 225.589 184.513 224.612 L 184.513 224.612 L 184.513 224.612 Q 185.718 223.636 187.956 223.636 L 187.956 223.636 L 187.956 223.636 Q 188.432 223.636 189.085 223.719 L 189.085 223.719 L 189.085 223.719 Q 189.739 223.802 189.921 223.841 L 189.921 223.841 L 189.921 223.841 Z  M 185.131 236.302 L 185.131 236.302 L 185.131 236.302 Q 185.131 236.917 185.743 237.269 L 185.743 237.269 L 185.743 237.269 Q 186.356 237.62 187.46 237.62 L 187.46 237.62 L 187.46 237.62 Q 189.121 237.62 190.063 237.181 L 190.063 237.181 L 190.063 237.181 Q 191.005 236.741 191.005 235.979 L 191.005 235.979 L 191.005 235.979 Q 191.005 235.364 190.448 235.13 L 190.448 235.13 L 190.448 235.13 Q 189.891 234.896 188.726 234.896 L 188.726 234.896 L 187.126 234.896 L 187.126 234.896 Q 186.275 234.896 185.703 235.281 L 185.703 235.281 L 185.703 235.281 Q 185.131 235.667 185.131 236.302 Z  M 186.255 227.415 L 186.255 227.415 L 186.255 227.415 Q 186.255 228.304 186.675 228.821 L 186.675 228.821 L 186.675 228.821 Q 187.095 229.339 187.956 229.339 L 187.956 229.339 L 187.956 229.339 Q 188.827 229.339 189.232 228.821 L 189.232 228.821 L 189.232 228.821 Q 189.637 228.304 189.637 227.415 L 189.637 227.415 L 189.637 227.415 Q 189.637 225.442 187.956 225.442 L 187.956 225.442 L 187.956 225.442 Q 186.255 225.442 186.255 227.415 Z  M 195.603 221.019 L 195.603 221.019 L 195.603 221.019 Q 195.603 219.563 197.284 219.563 L 197.284 219.563 L 197.284 219.563 Q 198.965 219.563 198.965 221.019 L 198.965 221.019 L 198.965 221.019 Q 198.965 221.712 198.545 222.098 L 198.545 222.098 L 198.545 222.098 Q 198.125 222.483 197.284 222.483 L 197.284 222.483 L 197.284 222.483 Q 195.603 222.483 195.603 221.019 Z  M 198.823 223.841 L 198.823 234.759 L 195.734 234.759 L 195.734 223.841 L 198.823 223.841 L 198.823 223.841 Z  M 212.516 227.64 L 212.516 234.759 L 209.427 234.759 L 209.427 228.382 L 209.427 228.382 Q 209.427 227.2 208.992 226.609 L 208.992 226.609 L 208.992 226.609 Q 208.556 226.019 207.604 226.019 L 207.604 226.019 L 207.604 226.019 Q 206.308 226.019 205.731 226.854 L 205.731 226.854 L 205.731 226.854 Q 205.153 227.688 205.153 229.622 L 205.153 229.622 L 205.153 234.759 L 202.064 234.759 L 202.064 223.841 L 204.424 223.841 L 204.839 225.237 L 205.011 225.237 L 205.011 225.237 Q 205.528 224.446 206.434 224.041 L 206.434 224.041 L 206.434 224.041 Q 207.341 223.636 208.495 223.636 L 208.495 223.636 L 208.495 223.636 Q 210.47 223.636 211.493 224.666 L 211.493 224.666 L 211.493 224.666 Q 212.516 225.696 212.516 227.64 L 212.516 227.64 L 212.516 227.64 Z  M 219.737 220.481 L 222.543 220.481 L 217.023 234.759 L 214.218 234.759 L 219.737 220.481 L 219.737 220.481 Z  M 234.402 229.28 L 234.402 234.759 L 231.313 234.759 L 231.313 228.382 L 231.313 228.382 Q 231.313 227.2 230.903 226.609 L 230.903 226.609 L 230.903 226.609 Q 230.493 226.019 229.612 226.019 L 229.612 226.019 L 229.612 226.019 Q 228.427 226.019 227.89 226.858 L 227.89 226.858 L 227.89 226.858 Q 227.353 227.698 227.353 229.622 L 227.353 229.622 L 227.353 234.759 L 224.264 234.759 L 224.264 223.841 L 226.624 223.841 L 227.039 225.237 L 227.212 225.237 L 227.212 225.237 Q 227.667 224.485 228.528 224.061 L 228.528 224.061 L 228.528 224.061 Q 229.389 223.636 230.503 223.636 L 230.503 223.636 L 230.503 223.636 Q 233.045 223.636 233.947 225.237 L 233.947 225.237 L 234.22 225.237 L 234.22 225.237 Q 234.676 224.476 235.562 224.056 L 235.562 224.056 L 235.562 224.056 Q 236.448 223.636 237.562 223.636 L 237.562 223.636 L 237.562 223.636 Q 239.486 223.636 240.474 224.588 L 240.474 224.588 L 240.474 224.588 Q 241.461 225.54 241.461 227.64 L 241.461 227.64 L 241.461 234.759 L 238.362 234.759 L 238.362 228.382 L 238.362 228.382 Q 238.362 227.2 237.952 226.609 L 237.952 226.609 L 237.952 226.609 Q 237.542 226.019 236.661 226.019 L 236.661 226.019 L 236.661 226.019 Q 235.526 226.019 234.964 226.8 L 234.964 226.8 L 234.964 226.8 Q 234.402 227.581 234.402 229.28 L 234.402 229.28 L 234.402 229.28 Z  M 253.979 234.759 L 251.822 234.759 L 251.225 233.274 L 251.144 233.274 L 251.144 233.274 Q 250.364 234.222 249.538 234.588 L 249.538 234.588 L 249.538 234.588 Q 248.713 234.954 247.386 234.954 L 247.386 234.954 L 247.386 234.954 Q 245.756 234.954 244.819 234.056 L 244.819 234.056 L 244.819 234.056 Q 243.882 233.157 243.882 231.497 L 243.882 231.497 L 243.882 231.497 Q 243.882 229.759 245.143 228.934 L 245.143 228.934 L 245.143 228.934 Q 246.404 228.108 248.946 228.021 L 248.946 228.021 L 250.911 227.962 L 250.911 227.483 L 250.911 227.483 Q 250.911 225.823 249.148 225.823 L 249.148 225.823 L 249.148 225.823 Q 247.791 225.823 245.958 226.614 L 245.958 226.614 L 244.935 224.603 L 244.935 224.603 Q 246.89 223.616 249.27 223.616 L 249.27 223.616 L 249.27 223.616 Q 251.549 223.616 252.764 224.573 L 252.764 224.573 L 252.764 224.573 Q 253.979 225.53 253.979 227.483 L 253.979 227.483 L 253.979 234.759 L 253.979 234.759 Z  M 250.911 230.599 L 250.911 229.7 L 249.716 229.739 L 249.716 229.739 Q 248.369 229.778 247.71 230.208 L 247.71 230.208 L 247.71 230.208 Q 247.052 230.638 247.052 231.517 L 247.052 231.517 L 247.052 231.517 Q 247.052 232.776 248.551 232.776 L 248.551 232.776 L 248.551 232.776 Q 249.624 232.776 250.268 232.181 L 250.268 232.181 L 250.268 232.181 Q 250.911 231.585 250.911 230.599 L 250.911 230.599 L 250.911 230.599 Z  M 265.059 231.517 L 265.059 231.517 L 265.059 231.517 Q 265.059 233.196 263.849 234.075 L 263.849 234.075 L 263.849 234.075 Q 262.639 234.954 260.228 234.954 L 260.228 234.954 L 260.228 234.954 Q 258.993 234.954 258.122 234.793 L 258.122 234.793 L 258.122 234.793 Q 257.251 234.632 256.491 234.319 L 256.491 234.319 L 256.491 231.858 L 256.491 231.858 Q 257.352 232.249 258.431 232.513 L 258.431 232.513 L 258.431 232.513 Q 259.509 232.776 260.329 232.776 L 260.329 232.776 L 260.329 232.776 Q 262.011 232.776 262.011 231.839 L 262.011 231.839 L 262.011 231.839 Q 262.011 231.487 261.788 231.268 L 261.788 231.268 L 261.788 231.268 Q 261.565 231.048 261.018 230.77 L 261.018 230.77 L 261.018 230.77 Q 260.471 230.491 259.56 230.12 L 259.56 230.12 L 259.56 230.12 Q 258.253 229.593 257.641 229.144 L 257.641 229.144 L 257.641 229.144 Q 257.028 228.694 256.749 228.113 L 256.749 228.113 L 256.749 228.113 Q 256.471 227.532 256.471 226.683 L 256.471 226.683 L 256.471 226.683 Q 256.471 225.228 257.641 224.432 L 257.641 224.432 L 257.641 224.432 Q 258.81 223.636 260.957 223.636 L 260.957 223.636 L 260.957 223.636 Q 263.003 223.636 264.938 224.495 L 264.938 224.495 L 264.006 226.644 L 264.006 226.644 Q 263.155 226.292 262.416 226.067 L 262.416 226.067 L 262.416 226.067 Q 261.676 225.843 260.907 225.843 L 260.907 225.843 L 260.907 225.843 Q 259.54 225.843 259.54 226.556 L 259.54 226.556 L 259.54 226.556 Q 259.54 226.956 259.98 227.249 L 259.98 227.249 L 259.98 227.249 Q 260.421 227.542 261.909 228.118 L 261.909 228.118 L 261.909 228.118 Q 263.236 228.636 263.854 229.085 L 263.854 229.085 L 263.854 229.085 Q 264.472 229.534 264.765 230.12 L 264.765 230.12 L 264.765 230.12 Q 265.059 230.706 265.059 231.517 Z  M 272.24 232.581 L 272.24 232.581 L 272.24 232.581 Q 273.05 232.581 274.184 232.239 L 274.184 232.239 L 274.184 234.456 L 274.184 234.456 Q 273.03 234.954 271.349 234.954 L 271.349 234.954 L 271.349 234.954 Q 269.495 234.954 268.649 234.051 L 268.649 234.051 L 268.649 234.051 Q 267.804 233.147 267.804 231.341 L 267.804 231.341 L 267.804 226.077 L 266.325 226.077 L 266.325 224.817 L 268.027 223.821 L 268.918 221.517 L 270.893 221.517 L 270.893 223.841 L 274.063 223.841 L 274.063 226.077 L 270.893 226.077 L 270.893 231.341 L 270.893 231.341 Q 270.893 231.976 271.262 232.278 L 271.262 232.278 L 271.262 232.278 Q 271.632 232.581 272.24 232.581 Z  M 281.162 225.755 L 281.162 225.755 L 281.162 225.755 Q 280.18 225.755 279.623 226.355 L 279.623 226.355 L 279.623 226.355 Q 279.066 226.956 278.985 228.06 L 278.985 228.06 L 283.32 228.06 L 283.32 228.06 Q 283.299 226.956 282.722 226.355 L 282.722 226.355 L 282.722 226.355 Q 282.145 225.755 281.162 225.755 Z  M 281.598 234.954 L 281.598 234.954 L 281.598 234.954 Q 278.863 234.954 277.324 233.499 L 277.324 233.499 L 277.324 233.499 Q 275.784 232.044 275.784 229.378 L 275.784 229.378 L 275.784 229.378 Q 275.784 226.634 277.207 225.135 L 277.207 225.135 L 277.207 225.135 Q 278.63 223.636 281.142 223.636 L 281.142 223.636 L 281.142 223.636 Q 283.542 223.636 284.879 224.954 L 284.879 224.954 L 284.879 224.954 Q 286.216 226.272 286.216 228.597 L 286.216 228.597 L 286.216 230.042 L 278.914 230.042 L 278.914 230.042 Q 278.965 231.312 279.694 232.024 L 279.694 232.024 L 279.694 232.024 Q 280.423 232.737 281.74 232.737 L 281.74 232.737 L 281.74 232.737 Q 282.763 232.737 283.674 232.532 L 283.674 232.532 L 283.674 232.532 Q 284.586 232.327 285.578 231.878 L 285.578 231.878 L 285.578 234.183 L 285.578 234.183 Q 284.768 234.573 283.846 234.764 L 283.846 234.764 L 283.846 234.764 Q 282.925 234.954 281.598 234.954 Z  M 295.048 223.636 L 295.048 223.636 L 295.048 223.636 Q 295.675 223.636 296.091 223.724 L 296.091 223.724 L 295.858 226.517 L 295.858 226.517 Q 295.483 226.419 294.946 226.419 L 294.946 226.419 L 294.946 226.419 Q 293.468 226.419 292.642 227.151 L 292.642 227.151 L 292.642 227.151 Q 291.817 227.884 291.817 229.202 L 291.817 229.202 L 291.817 234.759 L 288.728 234.759 L 288.728 223.841 L 291.067 223.841 L 291.523 225.677 L 291.675 225.677 L 291.675 225.677 Q 292.202 224.759 293.098 224.197 L 293.098 224.197 L 293.098 224.197 Q 293.994 223.636 295.048 223.636 Z " fill-rule="evenodd" fill="rgb(0,0,0)"/></g><g id="c1"><path d=" M 137 277.207 C 137 264.951 146.951 255 159.207 255 C 171.464 255 181.415 264.951 181.415 277.207 C 181.415 289.464 171.464 299.415 159.207 299.415 C 146.951 299.415 137 289.464 137 277.207 Z " fill="rgb(195,215,247)" vector-effect="non-scaling-stroke" stroke-width="2" stroke="rgb(0,0,0)" stroke-linejoin="miter" stroke-linecap="square" stroke-miterlimit="3"/><path d=" M 160.639 269.467 L 160.639 286.53 L 157.346 286.53 L 157.346 273.44 L 153.033 274.987 L 153.033 272.151 L 160.463 269.467 L 160.639 269.467 L 160.639 269.467 Z " fill="rgb(0,0,0)"/></g><g id="c2"><path d=" M 200.207 277.207 C 200.207 264.951 210.158 255 222.415 255 C 234.671 255 244.622 264.951 244.622 277.207 C 244.622 289.464 234.671 299.415 222.415 299.415 C 210.158 299.415 200.207 289.464 200.207 277.207 Z " fill="rgb(195,215,247)" vector-effect="non-scaling-stroke" stroke-width="2" stroke="rgb(0,0,0)" stroke-linejoin="miter" stroke-linecap="square" stroke-miterlimit="3"/><path d=" M 227.022 283.916 L 227.022 286.53 L 215.385 286.53 L 215.385 284.303 L 220.905 278.373 L 220.905 278.373 Q 221.549 277.67 221.995 277.096 L 221.995 277.096 L 221.995 277.096 Q 222.44 276.522 222.715 276.047 L 222.715 276.047 L 222.715 276.047 Q 222.991 275.573 223.114 275.162 L 223.114 275.162 L 223.114 275.162 Q 223.237 274.752 223.237 274.366 L 223.237 274.366 L 223.237 274.366 Q 223.237 273.791 223.073 273.346 L 223.073 273.346 L 223.073 273.346 Q 222.909 272.901 222.61 272.59 L 222.61 272.59 L 222.61 272.59 Q 222.311 272.28 221.895 272.116 L 221.895 272.116 L 221.895 272.116 Q 221.479 271.951 220.975 271.951 L 220.975 271.951 L 220.975 271.951 Q 219.628 271.951 218.965 272.701 L 218.965 272.701 L 218.965 272.701 Q 218.303 273.451 218.303 274.799 L 218.303 274.799 L 215.034 274.799 L 215.034 274.799 Q 215.034 273.662 215.467 272.649 L 215.467 272.649 L 215.467 272.649 Q 215.901 271.635 216.692 270.873 L 216.692 270.873 L 216.692 270.873 Q 217.483 270.112 218.602 269.672 L 218.602 269.672 L 218.602 269.672 Q 219.721 269.233 221.081 269.233 L 221.081 269.233 L 221.081 269.233 Q 222.381 269.233 223.383 269.596 L 223.383 269.596 L 223.383 269.596 Q 224.385 269.959 225.059 270.616 L 225.059 270.616 L 225.059 270.616 Q 225.733 271.272 226.085 272.192 L 226.085 272.192 L 226.085 272.192 Q 226.436 273.112 226.436 274.225 L 226.436 274.225 L 226.436 274.225 Q 226.436 275.069 226.172 275.836 L 226.172 275.836 L 226.172 275.836 Q 225.909 276.604 225.422 277.354 L 225.422 277.354 L 225.422 277.354 Q 224.936 278.104 224.256 278.883 L 224.256 278.883 L 224.256 278.883 Q 223.577 279.662 222.745 280.518 L 222.745 280.518 L 219.534 283.916 L 227.022 283.916 L 227.022 283.916 Z " fill="rgb(0,0,0)"/></g><g id="Bmaster"><path d="M 297.426 288.793 L 382.074 288.793 C 386.31 288.793 389.75 292.232 389.75 296.469 L 389.75 318.117 C 389.75 322.353 386.31 325.793 382.074 325.793 L 297.426 325.793 C 293.19 325.793 289.75 322.353 289.75 318.117 L 289.75 296.469 C 289.75 292.232 293.19 288.793 297.426 288.793 Z" style="stroke:none;fill:#9FC4FF;stroke-linecap:square;stroke-miterlimit:3;"/><path d="M 297.426 288.793 L 382.074 288.793 C 386.31 288.793 389.75 292.232 389.75 296.469 L 389.75 318.117 C 389.75 322.353 386.31 325.793 382.074 325.793 L 297.426 325.793 C 293.19 325.793 289.75 322.353 289.75 318.117 L 289.75 296.469 C 289.75 292.232 293.19 288.793 297.426 288.793 Z" style="fill:none;stroke:#000000;stroke-width:1.6855342301554246;stroke-linecap:square;stroke-miterlimit:3;"/><path d=" M 315.968 310.175 L 315.968 315.653 L 312.989 315.653 L 312.989 309.276 L 312.989 309.276 Q 312.989 308.095 312.594 307.504 L 312.594 307.504 L 312.594 307.504 Q 312.198 306.913 311.349 306.913 L 311.349 306.913 L 311.349 306.913 Q 310.206 306.913 309.688 307.753 L 309.688 307.753 L 309.688 307.753 Q 309.171 308.593 309.171 310.517 L 309.171 310.517 L 309.171 315.653 L 306.192 315.653 L 306.192 304.735 L 308.468 304.735 L 308.868 306.132 L 309.034 306.132 L 309.034 306.132 Q 309.474 305.38 310.304 304.955 L 310.304 304.955 L 310.304 304.955 Q 311.134 304.53 312.208 304.53 L 312.208 304.53 L 312.208 304.53 Q 314.659 304.53 315.528 306.132 L 315.528 306.132 L 315.792 306.132 L 315.792 306.132 Q 316.231 305.37 317.086 304.95 L 317.086 304.95 L 317.086 304.95 Q 317.94 304.53 319.015 304.53 L 319.015 304.53 L 319.015 304.53 Q 320.87 304.53 321.822 305.482 L 321.822 305.482 L 321.822 305.482 Q 322.774 306.434 322.774 308.534 L 322.774 308.534 L 322.774 315.653 L 319.786 315.653 L 319.786 309.276 L 319.786 309.276 Q 319.786 308.095 319.391 307.504 L 319.391 307.504 L 319.391 307.504 Q 318.995 306.913 318.146 306.913 L 318.146 306.913 L 318.146 306.913 Q 317.052 306.913 316.51 307.694 L 316.51 307.694 L 316.51 307.694 Q 315.968 308.475 315.968 310.175 L 315.968 310.175 L 315.968 310.175 Z  M 334.845 315.653 L 332.765 315.653 L 332.188 314.169 L 332.11 314.169 L 332.11 314.169 Q 331.358 315.116 330.562 315.482 L 330.562 315.482 L 330.562 315.482 Q 329.767 315.849 328.487 315.849 L 328.487 315.849 L 328.487 315.849 Q 326.915 315.849 326.012 314.95 L 326.012 314.95 L 326.012 314.95 Q 325.108 314.052 325.108 312.392 L 325.108 312.392 L 325.108 312.392 Q 325.108 310.653 326.324 309.828 L 326.324 309.828 L 326.324 309.828 Q 327.54 309.003 329.991 308.915 L 329.991 308.915 L 331.886 308.856 L 331.886 308.378 L 331.886 308.378 Q 331.886 306.718 330.187 306.718 L 330.187 306.718 L 330.187 306.718 Q 328.878 306.718 327.11 307.509 L 327.11 307.509 L 326.124 305.497 L 326.124 305.497 Q 328.009 304.511 330.304 304.511 L 330.304 304.511 L 330.304 304.511 Q 332.501 304.511 333.673 305.468 L 333.673 305.468 L 333.673 305.468 Q 334.845 306.425 334.845 308.378 L 334.845 308.378 L 334.845 315.653 L 334.845 315.653 Z  M 331.886 311.493 L 331.886 310.595 L 330.733 310.634 L 330.733 310.634 Q 329.435 310.673 328.8 311.102 L 328.8 311.102 L 328.8 311.102 Q 328.165 311.532 328.165 312.411 L 328.165 312.411 L 328.165 312.411 Q 328.165 313.671 329.61 313.671 L 329.61 313.671 L 329.61 313.671 Q 330.646 313.671 331.266 313.075 L 331.266 313.075 L 331.266 313.075 Q 331.886 312.479 331.886 311.493 L 331.886 311.493 L 331.886 311.493 Z  M 345.528 312.411 L 345.528 312.411 L 345.528 312.411 Q 345.528 314.091 344.361 314.97 L 344.361 314.97 L 344.361 314.97 Q 343.194 315.849 340.87 315.849 L 340.87 315.849 L 340.87 315.849 Q 339.679 315.849 338.839 315.687 L 338.839 315.687 L 338.839 315.687 Q 337.999 315.526 337.267 315.214 L 337.267 315.214 L 337.267 312.753 L 337.267 312.753 Q 338.097 313.143 339.137 313.407 L 339.137 313.407 L 339.137 313.407 Q 340.177 313.671 340.968 313.671 L 340.968 313.671 L 340.968 313.671 Q 342.589 313.671 342.589 312.733 L 342.589 312.733 L 342.589 312.733 Q 342.589 312.382 342.374 312.162 L 342.374 312.162 L 342.374 312.162 Q 342.159 311.942 341.632 311.664 L 341.632 311.664 L 341.632 311.664 Q 341.104 311.386 340.226 311.015 L 340.226 311.015 L 340.226 311.015 Q 338.966 310.487 338.375 310.038 L 338.375 310.038 L 338.375 310.038 Q 337.784 309.589 337.516 309.008 L 337.516 309.008 L 337.516 309.008 Q 337.247 308.427 337.247 307.577 L 337.247 307.577 L 337.247 307.577 Q 337.247 306.122 338.375 305.326 L 338.375 305.326 L 338.375 305.326 Q 339.503 304.53 341.573 304.53 L 341.573 304.53 L 341.573 304.53 Q 343.546 304.53 345.411 305.39 L 345.411 305.39 L 344.513 307.538 L 344.513 307.538 Q 343.692 307.186 342.979 306.962 L 342.979 306.962 L 342.979 306.962 Q 342.267 306.737 341.524 306.737 L 341.524 306.737 L 341.524 306.737 Q 340.206 306.737 340.206 307.45 L 340.206 307.45 L 340.206 307.45 Q 340.206 307.85 340.631 308.143 L 340.631 308.143 L 340.631 308.143 Q 341.056 308.436 342.491 309.013 L 342.491 309.013 L 342.491 309.013 Q 343.771 309.53 344.366 309.979 L 344.366 309.979 L 344.366 309.979 Q 344.962 310.429 345.245 311.015 L 345.245 311.015 L 345.245 311.015 Q 345.528 311.6 345.528 312.411 Z  M 352.452 313.475 L 352.452 313.475 L 352.452 313.475 Q 353.233 313.475 354.327 313.134 L 354.327 313.134 L 354.327 315.35 L 354.327 315.35 Q 353.214 315.849 351.593 315.849 L 351.593 315.849 L 351.593 315.849 Q 349.806 315.849 348.99 314.945 L 348.99 314.945 L 348.99 314.945 Q 348.175 314.042 348.175 312.235 L 348.175 312.235 L 348.175 306.972 L 346.749 306.972 L 346.749 305.712 L 348.39 304.716 L 349.249 302.411 L 351.153 302.411 L 351.153 304.735 L 354.21 304.735 L 354.21 306.972 L 351.153 306.972 L 351.153 312.235 L 351.153 312.235 Q 351.153 312.87 351.51 313.173 L 351.51 313.173 L 351.51 313.173 Q 351.866 313.475 352.452 313.475 Z  M 361.056 306.649 L 361.056 306.649 L 361.056 306.649 Q 360.108 306.649 359.571 307.25 L 359.571 307.25 L 359.571 307.25 Q 359.034 307.85 358.956 308.954 L 358.956 308.954 L 363.136 308.954 L 363.136 308.954 Q 363.116 307.85 362.56 307.25 L 362.56 307.25 L 362.56 307.25 Q 362.003 306.649 361.056 306.649 Z  M 361.476 315.849 L 361.476 315.849 L 361.476 315.849 Q 358.839 315.849 357.354 314.393 L 357.354 314.393 L 357.354 314.393 Q 355.87 312.938 355.87 310.272 L 355.87 310.272 L 355.87 310.272 Q 355.87 307.528 357.242 306.029 L 357.242 306.029 L 357.242 306.029 Q 358.614 304.53 361.036 304.53 L 361.036 304.53 L 361.036 304.53 Q 363.351 304.53 364.64 305.849 L 364.64 305.849 L 364.64 305.849 Q 365.929 307.167 365.929 309.491 L 365.929 309.491 L 365.929 310.936 L 358.888 310.936 L 358.888 310.936 Q 358.937 312.206 359.64 312.919 L 359.64 312.919 L 359.64 312.919 Q 360.343 313.632 361.612 313.632 L 361.612 313.632 L 361.612 313.632 Q 362.599 313.632 363.478 313.427 L 363.478 313.427 L 363.478 313.427 Q 364.356 313.222 365.313 312.772 L 365.313 312.772 L 365.313 315.077 L 365.313 315.077 Q 364.532 315.468 363.644 315.658 L 363.644 315.658 L 363.644 315.658 Q 362.755 315.849 361.476 315.849 Z  M 374.444 304.53 L 374.444 304.53 L 374.444 304.53 Q 375.05 304.53 375.45 304.618 L 375.45 304.618 L 375.226 307.411 L 375.226 307.411 Q 374.864 307.313 374.347 307.313 L 374.347 307.313 L 374.347 307.313 Q 372.921 307.313 372.125 308.046 L 372.125 308.046 L 372.125 308.046 Q 371.329 308.778 371.329 310.097 L 371.329 310.097 L 371.329 315.653 L 368.351 315.653 L 368.351 304.735 L 370.606 304.735 L 371.046 306.571 L 371.192 306.571 L 371.192 306.571 Q 371.7 305.653 372.564 305.092 L 372.564 305.092 L 372.564 305.092 Q 373.429 304.53 374.444 304.53 Z " fill-rule="evenodd" fill="rgb(0,0,0)"/></g><line x1="155.128" y1="101.207" x2="281.742" y2="101.207" vector-effect="non-scaling-stroke" stroke-width="2" stroke="rgb(0,0,0)" stroke-linejoin="miter" stroke-linecap="square" stroke-miterlimit="3"/><g id="c1"><path d=" M 132.921 101.207 C 132.921 88.951 142.871 79 155.128 79 C 167.385 79 177.335 88.951 177.335 101.207 C 177.335 113.464 167.385 123.415 155.128 123.415 C 142.871 123.415 132.921 113.464 132.921 101.207 Z " fill="rgb(195,215,247)" vector-effect="non-scaling-stroke" stroke-width="2" stroke="rgb(0,0,0)" stroke-linejoin="miter" stroke-linecap="square" stroke-miterlimit="3"/><path d=" M 156.56 93.467 L 156.56 110.53 L 153.267 110.53 L 153.267 97.44 L 148.954 98.987 L 148.954 96.151 L 156.384 93.467 L 156.56 93.467 L 156.56 93.467 Z " fill="rgb(0,0,0)"/></g><g id="c2"><path d=" M 196.128 101.207 C 196.128 88.951 206.079 79 218.335 79 C 230.592 79 240.543 88.951 240.543 101.207 C 240.543 113.464 230.592 123.415 218.335 123.415 C 206.079 123.415 196.128 113.464 196.128 101.207 Z " fill="rgb(195,215,247)" vector-effect="non-scaling-stroke" stroke-width="2" stroke="rgb(0,0,0)" stroke-linejoin="miter" stroke-linecap="square" stroke-miterlimit="3"/><path d=" M 222.943 107.916 L 222.943 110.53 L 211.306 110.53 L 211.306 108.303 L 216.826 102.373 L 216.826 102.373 Q 217.47 101.67 217.915 101.096 L 217.915 101.096 L 217.915 101.096 Q 218.361 100.522 218.636 100.047 L 218.636 100.047 L 218.636 100.047 Q 218.912 99.573 219.035 99.162 L 219.035 99.162 L 219.035 99.162 Q 219.158 98.752 219.158 98.366 L 219.158 98.366 L 219.158 98.366 Q 219.158 97.791 218.994 97.346 L 218.994 97.346 L 218.994 97.346 Q 218.829 96.901 218.531 96.59 L 218.531 96.59 L 218.531 96.59 Q 218.232 96.28 217.816 96.116 L 217.816 96.116 L 217.816 96.116 Q 217.4 95.951 216.896 95.951 L 216.896 95.951 L 216.896 95.951 Q 215.548 95.951 214.886 96.701 L 214.886 96.701 L 214.886 96.701 Q 214.224 97.451 214.224 98.799 L 214.224 98.799 L 210.954 98.799 L 210.954 98.799 Q 210.954 97.662 211.388 96.649 L 211.388 96.649 L 211.388 96.649 Q 211.822 95.635 212.613 94.873 L 212.613 94.873 L 212.613 94.873 Q 213.404 94.112 214.523 93.672 L 214.523 93.672 L 214.523 93.672 Q 215.642 93.233 217.001 93.233 L 217.001 93.233 L 217.001 93.233 Q 218.302 93.233 219.304 93.596 L 219.304 93.596 L 219.304 93.596 Q 220.306 93.959 220.98 94.616 L 220.98 94.616 L 220.98 94.616 Q 221.654 95.272 222.005 96.192 L 222.005 96.192 L 222.005 96.192 Q 222.357 97.112 222.357 98.225 L 222.357 98.225 L 222.357 98.225 Q 222.357 99.069 222.093 99.836 L 222.093 99.836 L 222.093 99.836 Q 221.829 100.604 221.343 101.354 L 221.343 101.354 L 221.343 101.354 Q 220.857 102.104 220.177 102.883 L 220.177 102.883 L 220.177 102.883 Q 219.497 103.662 218.665 104.518 L 218.665 104.518 L 215.454 107.916 L 222.943 107.916 L 222.943 107.916 Z " fill="rgb(0,0,0)"/></g><g id="C4"><path d=" M 259.335 101.207 C 259.335 88.951 269.286 79 281.543 79 C 293.799 79 303.75 88.951 303.75 101.207 C 303.75 113.464 293.799 123.415 281.543 123.415 C 269.286 123.415 259.335 113.464 259.335 101.207 Z " fill="rgb(195,215,247)" vector-effect="non-scaling-stroke" stroke-width="2" stroke="rgb(0,0,0)" stroke-linejoin="miter" stroke-linecap="square" stroke-miterlimit="3"/><path d=" M 284.509 93.467 L 284.509 104.19 L 286.49 104.19 L 286.49 106.826 L 284.509 106.826 L 284.509 110.53 L 281.252 110.53 L 281.252 106.826 L 274.162 106.826 L 274.033 104.787 L 281.205 93.467 L 284.509 93.467 L 284.509 93.467 Z  M 280.935 98.412 L 277.232 104.19 L 281.252 104.19 L 281.252 97.85 L 280.935 98.412 L 280.935 98.412 Z " fill-rule="evenodd" fill="rgb(0,0,0)"/></g><line x1="476.415" y1="101" x2="603.028" y2="101" vector-effect="non-scaling-stroke" stroke-width="2" stroke="rgb(0,0,0)" stroke-linejoin="miter" stroke-linecap="square" stroke-miterlimit="3"/><g id="c1"><path d=" M 454.207 101 C 454.207 88.743 464.158 78.793 476.415 78.793 C 488.671 78.793 498.622 88.743 498.622 101 C 498.622 113.257 488.671 123.207 476.415 123.207 C 464.158 123.207 454.207 113.257 454.207 101 Z " fill="rgb(195,215,247)" vector-effect="non-scaling-stroke" stroke-width="2" stroke="rgb(0,0,0)" stroke-linejoin="miter" stroke-linecap="square" stroke-miterlimit="3"/><path d=" M 477.846 93.26 L 477.846 110.322 L 474.553 110.322 L 474.553 97.232 L 470.241 98.779 L 470.241 95.943 L 477.671 93.26 L 477.846 93.26 L 477.846 93.26 Z " fill="rgb(0,0,0)"/></g><g id="c2"><path d=" M 517.415 101 C 517.415 88.743 527.365 78.793 539.622 78.793 C 551.879 78.793 561.829 88.743 561.829 101 C 561.829 113.257 551.879 123.207 539.622 123.207 C 527.365 123.207 517.415 113.257 517.415 101 Z " fill="rgb(195,215,247)" vector-effect="non-scaling-stroke" stroke-width="2" stroke="rgb(0,0,0)" stroke-linejoin="miter" stroke-linecap="square" stroke-miterlimit="3"/><path d=" M 544.229 107.709 L 544.229 110.322 L 532.593 110.322 L 532.593 108.096 L 538.112 102.166 L 538.112 102.166 Q 538.757 101.463 539.202 100.889 L 539.202 100.889 L 539.202 100.889 Q 539.647 100.314 539.923 99.84 L 539.923 99.84 L 539.923 99.84 Q 540.198 99.365 540.321 98.955 L 540.321 98.955 L 540.321 98.955 Q 540.444 98.545 540.444 98.158 L 540.444 98.158 L 540.444 98.158 Q 540.444 97.584 540.28 97.139 L 540.28 97.139 L 540.28 97.139 Q 540.116 96.693 539.817 96.383 L 539.817 96.383 L 539.817 96.383 Q 539.518 96.072 539.102 95.908 L 539.102 95.908 L 539.102 95.908 Q 538.686 95.744 538.183 95.744 L 538.183 95.744 L 538.183 95.744 Q 536.835 95.744 536.173 96.494 L 536.173 96.494 L 536.173 96.494 Q 535.511 97.244 535.511 98.592 L 535.511 98.592 L 532.241 98.592 L 532.241 98.592 Q 532.241 97.455 532.675 96.441 L 532.675 96.441 L 532.675 96.441 Q 533.108 95.428 533.899 94.666 L 533.899 94.666 L 533.899 94.666 Q 534.69 93.904 535.809 93.465 L 535.809 93.465 L 535.809 93.465 Q 536.929 93.025 538.288 93.025 L 538.288 93.025 L 538.288 93.025 Q 539.589 93.025 540.591 93.389 L 540.591 93.389 L 540.591 93.389 Q 541.593 93.752 542.266 94.408 L 542.266 94.408 L 542.266 94.408 Q 542.94 95.064 543.292 95.984 L 543.292 95.984 L 543.292 95.984 Q 543.643 96.904 543.643 98.018 L 543.643 98.018 L 543.643 98.018 Q 543.643 98.861 543.38 99.629 L 543.38 99.629 L 543.38 99.629 Q 543.116 100.396 542.63 101.146 L 542.63 101.146 L 542.63 101.146 Q 542.143 101.896 541.464 102.676 L 541.464 102.676 L 541.464 102.676 Q 540.784 103.455 539.952 104.311 L 539.952 104.311 L 536.741 107.709 L 544.229 107.709 L 544.229 107.709 Z " fill="rgb(0,0,0)"/></g><g id="C4"><path d=" M 580.622 101 C 580.622 88.743 590.573 78.793 602.829 78.793 C 615.086 78.793 625.037 88.743 625.037 101 C 625.037 113.257 615.086 123.207 602.829 123.207 C 590.573 123.207 580.622 113.257 580.622 101 Z " fill="rgb(195,215,247)" vector-effect="non-scaling-stroke" stroke-width="2" stroke="rgb(0,0,0)" stroke-linejoin="miter" stroke-linecap="square" stroke-miterlimit="3"/><path d=" M 605.796 93.26 L 605.796 103.982 L 607.777 103.982 L 607.777 106.619 L 605.796 106.619 L 605.796 110.322 L 602.538 110.322 L 602.538 106.619 L 595.448 106.619 L 595.32 104.58 L 602.491 93.26 L 605.796 93.26 L 605.796 93.26 Z  M 602.222 98.205 L 598.519 103.982 L 602.538 103.982 L 602.538 97.643 L 602.222 98.205 L 602.222 98.205 Z " fill-rule="evenodd" fill="rgb(0,0,0)"/></g><line x1="412" y1="395.579" x2="412" y2="8.853" vector-effect="non-scaling-stroke" stroke-width="3" stroke-dasharray="10" stroke="rgb(3,119,46)" stroke-linejoin="miter" stroke-linecap="square" stroke-miterlimit="3"/><g id="Bhead"><path d="M 303.639 251.793 L 375.861 251.793 C 379.801 251.793 383 254.992 383 258.932 L 383 281.653 C 383 285.594 379.801 288.793 375.861 288.793 L 303.639 288.793 C 299.699 288.793 296.5 285.594 296.5 281.653 L 296.5 258.932 C 296.5 254.992 299.699 251.793 303.639 251.793 Z" style="stroke:none;fill:#FFF3A5;stroke-linecap:square;stroke-miterlimit:3;"/><path d="M 303.639 251.793 L 375.861 251.793 C 379.801 251.793 383 254.992 383 258.932 L 383 281.653 C 383 285.594 379.801 288.793 375.861 288.793 L 303.639 288.793 C 299.699 288.793 296.5 285.594 296.5 281.653 L 296.5 258.932 C 296.5 254.992 299.699 251.793 303.639 251.793 Z" style="fill:none;stroke:#000000;stroke-width:1.6855342301554246;stroke-linecap:square;stroke-miterlimit:3;"/><path d=" M 324.692 265.501 L 324.692 279.779 L 321.675 279.779 L 321.675 273.617 L 316.021 273.617 L 316.021 279.779 L 312.993 279.779 L 312.993 265.501 L 316.021 265.501 L 316.021 271.097 L 321.675 271.097 L 321.675 265.501 L 324.692 265.501 L 324.692 265.501 Z  M 336.519 277.279 L 336.519 279.779 L 328.296 279.779 L 328.296 265.501 L 336.519 265.501 L 336.519 267.982 L 331.323 267.982 L 331.323 271.117 L 336.157 271.117 L 336.157 273.597 L 331.323 273.597 L 331.323 277.279 L 336.519 277.279 L 336.519 277.279 Z  M 351.499 279.779 L 348.237 279.779 L 347.202 276.38 L 341.997 276.38 L 340.962 279.779 L 337.7 279.779 L 342.739 265.443 L 346.44 265.443 L 351.499 279.779 L 351.499 279.779 Z  M 342.759 273.841 L 346.479 273.841 L 346.479 273.841 Q 345.044 269.222 344.863 268.617 L 344.863 268.617 L 344.863 268.617 Q 344.683 268.011 344.604 267.659 L 344.604 267.659 L 344.604 267.659 Q 344.282 268.909 342.759 273.841 L 342.759 273.841 L 342.759 273.841 Z  M 365.142 272.503 L 365.142 272.503 L 365.142 272.503 Q 365.142 276.029 363.135 277.904 L 363.135 277.904 L 363.135 277.904 Q 361.128 279.779 357.339 279.779 L 357.339 279.779 L 353.296 279.779 L 353.296 265.501 L 357.778 265.501 L 357.778 265.501 Q 361.274 265.501 363.208 267.347 L 363.208 267.347 L 363.208 267.347 Q 365.142 269.193 365.142 272.503 Z  M 361.997 272.581 L 361.997 272.581 L 361.997 272.581 Q 361.997 267.982 357.935 267.982 L 357.935 267.982 L 356.323 267.982 L 356.323 277.279 L 357.622 277.279 L 357.622 277.279 Q 361.997 277.279 361.997 272.581 Z " fill-rule="evenodd" fill="rgb(0,0,0)"/></g><g id="C3"><path d=" M 317.543 352.939 C 317.543 340.682 327.493 330.732 339.75 330.732 C 352.007 330.732 361.957 340.682 361.957 352.939 C 361.957 365.196 352.007 375.146 339.75 375.146 C 327.493 375.146 317.543 365.196 317.543 352.939 Z " fill="rgb(195,215,247)" vector-effect="non-scaling-stroke" stroke-width="2" stroke="rgb(0,0,0)" stroke-linejoin="miter" stroke-linecap="square" stroke-miterlimit="3"/><path d=" M 336.482 354.832 L 336.482 352.3 L 338.252 352.3 L 338.252 352.3 Q 339.588 352.3 340.232 351.627 L 340.232 351.627 L 340.232 351.627 Q 340.877 350.953 340.877 349.863 L 340.877 349.863 L 340.877 349.863 Q 340.877 349.359 340.73 348.943 L 340.73 348.943 L 340.73 348.943 Q 340.584 348.527 340.291 348.228 L 340.291 348.228 L 340.291 348.228 Q 339.998 347.929 339.547 347.765 L 339.547 347.765 L 339.547 347.765 Q 339.096 347.601 338.498 347.601 L 338.498 347.601 L 338.498 347.601 Q 338.006 347.601 337.578 347.742 L 337.578 347.742 L 337.578 347.742 Q 337.15 347.882 336.828 348.146 L 336.828 348.146 L 336.828 348.146 Q 336.506 348.41 336.318 348.785 L 336.318 348.785 L 336.318 348.785 Q 336.131 349.16 336.131 349.628 L 336.131 349.628 L 332.873 349.628 L 332.873 349.628 Q 332.873 348.586 333.301 347.73 L 333.301 347.73 L 333.301 347.73 Q 333.729 346.875 334.479 346.259 L 334.479 346.259 L 334.479 346.259 Q 335.229 345.644 336.242 345.304 L 336.242 345.304 L 336.242 345.304 Q 337.256 344.964 338.428 344.964 L 338.428 344.964 L 338.428 344.964 Q 339.693 344.964 340.748 345.275 L 340.748 345.275 L 340.748 345.275 Q 341.803 345.586 342.553 346.201 L 342.553 346.201 L 342.553 346.201 Q 343.303 346.816 343.719 347.724 L 343.719 347.724 L 343.719 347.724 Q 344.135 348.632 344.135 349.828 L 344.135 349.828 L 344.135 349.828 Q 344.135 350.378 343.971 350.912 L 343.971 350.912 L 343.971 350.912 Q 343.807 351.445 343.49 351.925 L 343.49 351.925 L 343.49 351.925 Q 343.174 352.406 342.705 352.81 L 342.705 352.81 L 342.705 352.81 Q 342.236 353.214 341.627 353.507 L 341.627 353.507 L 341.627 353.507 Q 342.342 353.765 342.863 354.164 L 342.863 354.164 L 342.863 354.164 Q 343.385 354.562 343.725 355.072 L 343.725 355.072 L 343.725 355.072 Q 344.064 355.582 344.229 356.191 L 344.229 356.191 L 344.229 356.191 Q 344.393 356.8 344.393 357.48 L 344.393 357.48 L 344.393 357.48 Q 344.393 358.675 343.936 359.613 L 343.936 359.613 L 343.936 359.613 Q 343.479 360.55 342.682 361.189 L 342.682 361.189 L 342.682 361.189 Q 341.885 361.828 340.789 362.162 L 340.789 362.162 L 340.789 362.162 Q 339.693 362.496 338.428 362.496 L 338.428 362.496 L 338.428 362.496 Q 337.338 362.496 336.301 362.197 L 336.301 362.197 L 336.301 362.197 Q 335.264 361.898 334.455 361.294 L 334.455 361.294 L 334.455 361.294 Q 333.646 360.691 333.16 359.777 L 333.16 359.777 L 333.16 359.777 Q 332.674 358.863 332.674 357.621 L 332.674 357.621 L 335.932 357.621 L 335.932 357.621 Q 335.932 358.113 336.119 358.529 L 336.119 358.529 L 336.119 358.529 Q 336.307 358.945 336.652 359.244 L 336.652 359.244 L 336.652 359.244 Q 336.998 359.543 337.467 359.712 L 337.467 359.712 L 337.467 359.712 Q 337.936 359.882 338.498 359.882 L 338.498 359.882 L 338.498 359.882 Q 339.74 359.882 340.443 359.226 L 340.443 359.226 L 340.443 359.226 Q 341.146 358.57 341.146 357.445 L 341.146 357.445 L 341.146 357.445 Q 341.146 356.753 340.947 356.261 L 340.947 356.261 L 340.947 356.261 Q 340.748 355.769 340.367 355.453 L 340.367 355.453 L 340.367 355.453 Q 339.986 355.136 339.453 354.984 L 339.453 354.984 L 339.453 354.984 Q 338.92 354.832 338.252 354.832 L 338.252 354.832 L 336.482 354.832 L 336.482 354.832 Z " fill="rgb(0,0,0)"/></g><line x1="455.582" y1="275.207" x2="606.624" y2="275.207" vector-effect="non-scaling-stroke" stroke-width="2" stroke="rgb(0,0,0)" stroke-linejoin="miter" stroke-linecap="square" stroke-miterlimit="3"/><g id="Bmaster"><path d="M 527.374 209 L 675.272 209 C 680.76 209 685.215 213.455 685.215 218.943 L 685.215 236.057 C 685.215 241.545 680.76 246 675.272 246 L 527.374 246 C 521.886 246 517.431 241.545 517.431 236.057 L 517.431 218.943 C 517.431 213.455 521.886 209 527.374 209 Z" style="stroke:none;fill:#9FC4FF;stroke-linecap:square;stroke-miterlimit:3;"/><path d="M 527.374 209 L 675.272 209 C 680.76 209 685.215 213.455 685.215 218.943 L 685.215 236.057 C 685.215 241.545 680.76 246 675.272 246 L 527.374 246 C 521.886 246 517.431 241.545 517.431 236.057 L 517.431 218.943 C 517.431 213.455 521.886 209 527.374 209 Z" style="fill:none;stroke:#000000;stroke-width:1.7165048661891558;stroke-linecap:square;stroke-miterlimit:3;"/><path d=" M 534.712 229.28 L 534.712 229.28 L 534.712 229.28 Q 534.712 230.901 535.264 231.731 L 535.264 231.731 L 535.264 231.731 Q 535.816 232.562 537.061 232.562 L 537.061 232.562 L 537.061 232.562 Q 538.297 232.562 538.839 231.736 L 538.839 231.736 L 538.839 231.736 Q 539.38 230.911 539.38 229.28 L 539.38 229.28 L 539.38 229.28 Q 539.38 227.659 538.834 226.849 L 538.834 226.849 L 538.834 226.849 Q 538.287 226.038 537.041 226.038 L 537.041 226.038 L 537.041 226.038 Q 535.805 226.038 535.258 226.844 L 535.258 226.844 L 535.258 226.844 Q 534.712 227.649 534.712 229.28 Z  M 542.54 229.28 L 542.54 229.28 L 542.54 229.28 Q 542.54 231.946 541.082 233.45 L 541.082 233.45 L 541.082 233.45 Q 539.624 234.954 537.021 234.954 L 537.021 234.954 L 537.021 234.954 Q 535.39 234.954 534.144 234.266 L 534.144 234.266 L 534.144 234.266 Q 532.899 233.577 532.23 232.288 L 532.23 232.288 L 532.23 232.288 Q 531.562 230.999 531.562 229.28 L 531.562 229.28 L 531.562 229.28 Q 531.562 226.604 533.01 225.12 L 533.01 225.12 L 533.01 225.12 Q 534.458 223.636 537.081 223.636 L 537.081 223.636 L 537.081 223.636 Q 538.712 223.636 539.958 224.319 L 539.958 224.319 L 539.958 224.319 Q 541.203 225.003 541.872 226.282 L 541.872 226.282 L 541.872 226.282 Q 542.54 227.562 542.54 229.28 Z  M 551.412 223.636 L 551.412 223.636 L 551.412 223.636 Q 552.04 223.636 552.455 223.724 L 552.455 223.724 L 552.223 226.517 L 552.223 226.517 Q 551.848 226.419 551.311 226.419 L 551.311 226.419 L 551.311 226.419 Q 549.832 226.419 549.007 227.151 L 549.007 227.151 L 549.007 227.151 Q 548.182 227.884 548.182 229.202 L 548.182 229.202 L 548.182 234.759 L 545.093 234.759 L 545.093 223.841 L 547.432 223.841 L 547.888 225.677 L 548.04 225.677 L 548.04 225.677 Q 548.566 224.759 549.463 224.197 L 549.463 224.197 L 549.463 224.197 Q 550.359 223.636 551.412 223.636 Z  M 554.38 221.019 L 554.38 221.019 L 554.38 221.019 Q 554.38 219.563 556.061 219.563 L 556.061 219.563 L 556.061 219.563 Q 557.742 219.563 557.742 221.019 L 557.742 221.019 L 557.742 221.019 Q 557.742 221.712 557.322 222.098 L 557.322 222.098 L 557.322 222.098 Q 556.902 222.483 556.061 222.483 L 556.061 222.483 L 556.061 222.483 Q 554.38 222.483 554.38 221.019 Z  M 557.6 223.841 L 557.6 234.759 L 554.511 234.759 L 554.511 223.841 L 557.6 223.841 L 557.6 223.841 Z  M 566.746 223.841 L 570.696 223.841 L 570.696 225.354 L 568.923 225.794 L 568.923 225.794 Q 569.409 226.526 569.409 227.435 L 569.409 227.435 L 569.409 227.435 Q 569.409 229.192 568.138 230.174 L 568.138 230.174 L 568.138 230.174 Q 566.867 231.155 564.609 231.155 L 564.609 231.155 L 564.052 231.126 L 563.596 231.077 L 563.596 231.077 Q 563.12 231.429 563.12 231.858 L 563.12 231.858 L 563.12 231.858 Q 563.12 232.503 564.822 232.503 L 564.822 232.503 L 566.746 232.503 L 566.746 232.503 Q 568.609 232.503 569.587 233.274 L 569.587 233.274 L 569.587 233.274 Q 570.564 234.046 570.564 235.54 L 570.564 235.54 L 570.564 235.54 Q 570.564 237.454 568.908 238.509 L 568.908 238.509 L 568.908 238.509 Q 567.252 239.563 564.153 239.563 L 564.153 239.563 L 564.153 239.563 Q 561.783 239.563 560.532 238.768 L 560.532 238.768 L 560.532 238.768 Q 559.282 237.972 559.282 236.536 L 559.282 236.536 L 559.282 236.536 Q 559.282 235.55 559.92 234.886 L 559.92 234.886 L 559.92 234.886 Q 560.558 234.222 561.793 233.938 L 561.793 233.938 L 561.793 233.938 Q 561.317 233.743 560.963 233.299 L 560.963 233.299 L 560.963 233.299 Q 560.608 232.854 560.608 232.356 L 560.608 232.356 L 560.608 232.356 Q 560.608 231.731 560.983 231.316 L 560.983 231.316 L 560.983 231.316 Q 561.358 230.901 562.067 230.501 L 562.067 230.501 L 562.067 230.501 Q 561.176 230.13 560.654 229.31 L 560.654 229.31 L 560.654 229.31 Q 560.132 228.489 560.132 227.376 L 560.132 227.376 L 560.132 227.376 Q 560.132 225.589 561.338 224.612 L 561.338 224.612 L 561.338 224.612 Q 562.543 223.636 564.781 223.636 L 564.781 223.636 L 564.781 223.636 Q 565.257 223.636 565.91 223.719 L 565.91 223.719 L 565.91 223.719 Q 566.563 223.802 566.746 223.841 L 566.746 223.841 L 566.746 223.841 Z  M 561.955 236.302 L 561.955 236.302 L 561.955 236.302 Q 561.955 236.917 562.568 237.269 L 562.568 237.269 L 562.568 237.269 Q 563.181 237.62 564.285 237.62 L 564.285 237.62 L 564.285 237.62 Q 565.946 237.62 566.888 237.181 L 566.888 237.181 L 566.888 237.181 Q 567.829 236.741 567.829 235.979 L 567.829 235.979 L 567.829 235.979 Q 567.829 235.364 567.272 235.13 L 567.272 235.13 L 567.272 235.13 Q 566.715 234.896 565.551 234.896 L 565.551 234.896 L 563.951 234.896 L 563.951 234.896 Q 563.1 234.896 562.528 235.281 L 562.528 235.281 L 562.528 235.281 Q 561.955 235.667 561.955 236.302 Z  M 563.08 227.415 L 563.08 227.415 L 563.08 227.415 Q 563.08 228.304 563.5 228.821 L 563.5 228.821 L 563.5 228.821 Q 563.92 229.339 564.781 229.339 L 564.781 229.339 L 564.781 229.339 Q 565.652 229.339 566.057 228.821 L 566.057 228.821 L 566.057 228.821 Q 566.462 228.304 566.462 227.415 L 566.462 227.415 L 566.462 227.415 Q 566.462 225.442 564.781 225.442 L 564.781 225.442 L 564.781 225.442 Q 563.08 225.442 563.08 227.415 Z  M 572.427 221.019 L 572.427 221.019 L 572.427 221.019 Q 572.427 219.563 574.109 219.563 L 574.109 219.563 L 574.109 219.563 Q 575.79 219.563 575.79 221.019 L 575.79 221.019 L 575.79 221.019 Q 575.79 221.712 575.37 222.098 L 575.37 222.098 L 575.37 222.098 Q 574.949 222.483 574.109 222.483 L 574.109 222.483 L 574.109 222.483 Q 572.427 222.483 572.427 221.019 Z  M 575.648 223.841 L 575.648 234.759 L 572.559 234.759 L 572.559 223.841 L 575.648 223.841 L 575.648 223.841 Z  M 589.341 227.64 L 589.341 234.759 L 586.252 234.759 L 586.252 228.382 L 586.252 228.382 Q 586.252 227.2 585.816 226.609 L 585.816 226.609 L 585.816 226.609 Q 585.381 226.019 584.429 226.019 L 584.429 226.019 L 584.429 226.019 Q 583.133 226.019 582.555 226.854 L 582.555 226.854 L 582.555 226.854 Q 581.978 227.688 581.978 229.622 L 581.978 229.622 L 581.978 234.759 L 578.889 234.759 L 578.889 223.841 L 581.249 223.841 L 581.664 225.237 L 581.836 225.237 L 581.836 225.237 Q 582.353 224.446 583.259 224.041 L 583.259 224.041 L 583.259 224.041 Q 584.166 223.636 585.32 223.636 L 585.32 223.636 L 585.32 223.636 Q 587.295 223.636 588.318 224.666 L 588.318 224.666 L 588.318 224.666 Q 589.341 225.696 589.341 227.64 L 589.341 227.64 L 589.341 227.64 Z  M 596.562 220.481 L 599.367 220.481 L 593.848 234.759 L 591.042 234.759 L 596.562 220.481 L 596.562 220.481 Z  M 611.227 229.28 L 611.227 234.759 L 608.138 234.759 L 608.138 228.382 L 608.138 228.382 Q 608.138 227.2 607.728 226.609 L 607.728 226.609 L 607.728 226.609 Q 607.318 226.019 606.437 226.019 L 606.437 226.019 L 606.437 226.019 Q 605.252 226.019 604.715 226.858 L 604.715 226.858 L 604.715 226.858 Q 604.178 227.698 604.178 229.622 L 604.178 229.622 L 604.178 234.759 L 601.089 234.759 L 601.089 223.841 L 603.449 223.841 L 603.864 225.237 L 604.036 225.237 L 604.036 225.237 Q 604.492 224.485 605.353 224.061 L 605.353 224.061 L 605.353 224.061 Q 606.214 223.636 607.328 223.636 L 607.328 223.636 L 607.328 223.636 Q 609.87 223.636 610.771 225.237 L 610.771 225.237 L 611.045 225.237 L 611.045 225.237 Q 611.501 224.476 612.387 224.056 L 612.387 224.056 L 612.387 224.056 Q 613.273 223.636 614.387 223.636 L 614.387 223.636 L 614.387 223.636 Q 616.311 223.636 617.299 224.588 L 617.299 224.588 L 617.299 224.588 Q 618.286 225.54 618.286 227.64 L 618.286 227.64 L 618.286 234.759 L 615.187 234.759 L 615.187 228.382 L 615.187 228.382 Q 615.187 227.2 614.777 226.609 L 614.777 226.609 L 614.777 226.609 Q 614.367 226.019 613.486 226.019 L 613.486 226.019 L 613.486 226.019 Q 612.351 226.019 611.789 226.8 L 611.789 226.8 L 611.789 226.8 Q 611.227 227.581 611.227 229.28 L 611.227 229.28 L 611.227 229.28 Z  M 630.804 234.759 L 628.647 234.759 L 628.049 233.274 L 627.968 233.274 L 627.968 233.274 Q 627.188 234.222 626.363 234.588 L 626.363 234.588 L 626.363 234.588 Q 625.538 234.954 624.211 234.954 L 624.211 234.954 L 624.211 234.954 Q 622.58 234.954 621.644 234.056 L 621.644 234.056 L 621.644 234.056 Q 620.707 233.157 620.707 231.497 L 620.707 231.497 L 620.707 231.497 Q 620.707 229.759 621.968 228.934 L 621.968 228.934 L 621.968 228.934 Q 623.229 228.108 625.771 228.021 L 625.771 228.021 L 627.735 227.962 L 627.735 227.483 L 627.735 227.483 Q 627.735 225.823 625.973 225.823 L 625.973 225.823 L 625.973 225.823 Q 624.616 225.823 622.783 226.614 L 622.783 226.614 L 621.76 224.603 L 621.76 224.603 Q 623.715 223.616 626.095 223.616 L 626.095 223.616 L 626.095 223.616 Q 628.373 223.616 629.589 224.573 L 629.589 224.573 L 629.589 224.573 Q 630.804 225.53 630.804 227.483 L 630.804 227.483 L 630.804 234.759 L 630.804 234.759 Z  M 627.735 230.599 L 627.735 229.7 L 626.54 229.739 L 626.54 229.739 Q 625.193 229.778 624.535 230.208 L 624.535 230.208 L 624.535 230.208 Q 623.877 230.638 623.877 231.517 L 623.877 231.517 L 623.877 231.517 Q 623.877 232.776 625.376 232.776 L 625.376 232.776 L 625.376 232.776 Q 626.449 232.776 627.092 232.181 L 627.092 232.181 L 627.092 232.181 Q 627.735 231.585 627.735 230.599 L 627.735 230.599 L 627.735 230.599 Z  M 641.884 231.517 L 641.884 231.517 L 641.884 231.517 Q 641.884 233.196 640.674 234.075 L 640.674 234.075 L 640.674 234.075 Q 639.463 234.954 637.053 234.954 L 637.053 234.954 L 637.053 234.954 Q 635.817 234.954 634.946 234.793 L 634.946 234.793 L 634.946 234.793 Q 634.075 234.632 633.316 234.319 L 633.316 234.319 L 633.316 231.858 L 633.316 231.858 Q 634.177 232.249 635.255 232.513 L 635.255 232.513 L 635.255 232.513 Q 636.334 232.776 637.154 232.776 L 637.154 232.776 L 637.154 232.776 Q 638.835 232.776 638.835 231.839 L 638.835 231.839 L 638.835 231.839 Q 638.835 231.487 638.613 231.268 L 638.613 231.268 L 638.613 231.268 Q 638.39 231.048 637.843 230.77 L 637.843 230.77 L 637.843 230.77 Q 637.296 230.491 636.385 230.12 L 636.385 230.12 L 636.385 230.12 Q 635.078 229.593 634.465 229.144 L 634.465 229.144 L 634.465 229.144 Q 633.853 228.694 633.574 228.113 L 633.574 228.113 L 633.574 228.113 Q 633.296 227.532 633.296 226.683 L 633.296 226.683 L 633.296 226.683 Q 633.296 225.228 634.465 224.432 L 634.465 224.432 L 634.465 224.432 Q 635.635 223.636 637.782 223.636 L 637.782 223.636 L 637.782 223.636 Q 639.828 223.636 641.762 224.495 L 641.762 224.495 L 640.831 226.644 L 640.831 226.644 Q 639.98 226.292 639.241 226.067 L 639.241 226.067 L 639.241 226.067 Q 638.501 225.843 637.732 225.843 L 637.732 225.843 L 637.732 225.843 Q 636.364 225.843 636.364 226.556 L 636.364 226.556 L 636.364 226.556 Q 636.364 226.956 636.805 227.249 L 636.805 227.249 L 636.805 227.249 Q 637.245 227.542 638.734 228.118 L 638.734 228.118 L 638.734 228.118 Q 640.061 228.636 640.679 229.085 L 640.679 229.085 L 640.679 229.085 Q 641.297 229.534 641.59 230.12 L 641.59 230.12 L 641.59 230.12 Q 641.884 230.706 641.884 231.517 Z  M 649.065 232.581 L 649.065 232.581 L 649.065 232.581 Q 649.875 232.581 651.009 232.239 L 651.009 232.239 L 651.009 234.456 L 651.009 234.456 Q 649.854 234.954 648.173 234.954 L 648.173 234.954 L 648.173 234.954 Q 646.32 234.954 645.474 234.051 L 645.474 234.051 L 645.474 234.051 Q 644.629 233.147 644.629 231.341 L 644.629 231.341 L 644.629 226.077 L 643.15 226.077 L 643.15 224.817 L 644.851 223.821 L 645.743 221.517 L 647.718 221.517 L 647.718 223.841 L 650.888 223.841 L 650.888 226.077 L 647.718 226.077 L 647.718 231.341 L 647.718 231.341 Q 647.718 231.976 648.087 232.278 L 648.087 232.278 L 648.087 232.278 Q 648.457 232.581 649.065 232.581 Z  M 657.987 225.755 L 657.987 225.755 L 657.987 225.755 Q 657.005 225.755 656.448 226.355 L 656.448 226.355 L 656.448 226.355 Q 655.891 226.956 655.81 228.06 L 655.81 228.06 L 660.144 228.06 L 660.144 228.06 Q 660.124 226.956 659.547 226.355 L 659.547 226.355 L 659.547 226.355 Q 658.97 225.755 657.987 225.755 Z  M 658.423 234.954 L 658.423 234.954 L 658.423 234.954 Q 655.688 234.954 654.149 233.499 L 654.149 233.499 L 654.149 233.499 Q 652.609 232.044 652.609 229.378 L 652.609 229.378 L 652.609 229.378 Q 652.609 226.634 654.032 225.135 L 654.032 225.135 L 654.032 225.135 Q 655.455 223.636 657.967 223.636 L 657.967 223.636 L 657.967 223.636 Q 660.367 223.636 661.704 224.954 L 661.704 224.954 L 661.704 224.954 Q 663.041 226.272 663.041 228.597 L 663.041 228.597 L 663.041 230.042 L 655.739 230.042 L 655.739 230.042 Q 655.789 231.312 656.519 232.024 L 656.519 232.024 L 656.519 232.024 Q 657.248 232.737 658.564 232.737 L 658.564 232.737 L 658.564 232.737 Q 659.587 232.737 660.499 232.532 L 660.499 232.532 L 660.499 232.532 Q 661.41 232.327 662.403 231.878 L 662.403 231.878 L 662.403 234.183 L 662.403 234.183 Q 661.593 234.573 660.671 234.764 L 660.671 234.764 L 660.671 234.764 Q 659.749 234.954 658.423 234.954 Z  M 671.872 223.636 L 671.872 223.636 L 671.872 223.636 Q 672.5 223.636 672.915 223.724 L 672.915 223.724 L 672.683 226.517 L 672.683 226.517 Q 672.308 226.419 671.771 226.419 L 671.771 226.419 L 671.771 226.419 Q 670.292 226.419 669.467 227.151 L 669.467 227.151 L 669.467 227.151 Q 668.642 227.884 668.642 229.202 L 668.642 229.202 L 668.642 234.759 L 665.553 234.759 L 665.553 223.841 L 667.892 223.841 L 668.348 225.677 L 668.5 225.677 L 668.5 225.677 Q 669.026 224.759 669.923 224.197 L 669.923 224.197 L 669.923 224.197 Q 670.819 223.636 671.872 223.636 Z " fill-rule="evenodd" fill="rgb(0,0,0)"/></g><g id="c1"><path d=" M 433.375 275.207 C 433.375 262.951 443.326 253 455.582 253 C 467.839 253 477.79 262.951 477.79 275.207 C 477.79 287.464 467.839 297.415 455.582 297.415 C 443.326 297.415 433.375 287.464 433.375 275.207 Z " fill="rgb(195,215,247)" vector-effect="non-scaling-stroke" stroke-width="2" stroke="rgb(0,0,0)" stroke-linejoin="miter" stroke-linecap="square" stroke-miterlimit="3"/><path d=" M 457.014 267.467 L 457.014 284.53 L 453.721 284.53 L 453.721 271.44 L 449.408 272.987 L 449.408 270.151 L 456.838 267.467 L 457.014 267.467 L 457.014 267.467 Z " fill="rgb(0,0,0)"/></g><g id="c2"><path d=" M 507.375 275.207 C 507.375 262.951 517.326 253 529.582 253 C 541.839 253 551.79 262.951 551.79 275.207 C 551.79 287.464 541.839 297.415 529.582 297.415 C 517.326 297.415 507.375 287.464 507.375 275.207 Z " fill="rgb(195,215,247)" vector-effect="non-scaling-stroke" stroke-width="2" stroke="rgb(0,0,0)" stroke-linejoin="miter" stroke-linecap="square" stroke-miterlimit="3"/><path d=" M 534.19 281.916 L 534.19 284.53 L 522.553 284.53 L 522.553 282.303 L 528.073 276.373 L 528.073 276.373 Q 528.717 275.67 529.162 275.096 L 529.162 275.096 L 529.162 275.096 Q 529.608 274.522 529.883 274.047 L 529.883 274.047 L 529.883 274.047 Q 530.158 273.573 530.282 273.162 L 530.282 273.162 L 530.282 273.162 Q 530.405 272.752 530.405 272.366 L 530.405 272.366 L 530.405 272.366 Q 530.405 271.791 530.241 271.346 L 530.241 271.346 L 530.241 271.346 Q 530.076 270.901 529.778 270.59 L 529.778 270.59 L 529.778 270.59 Q 529.479 270.28 529.063 270.116 L 529.063 270.116 L 529.063 270.116 Q 528.647 269.951 528.143 269.951 L 528.143 269.951 L 528.143 269.951 Q 526.795 269.951 526.133 270.701 L 526.133 270.701 L 526.133 270.701 Q 525.471 271.451 525.471 272.799 L 525.471 272.799 L 522.201 272.799 L 522.201 272.799 Q 522.201 271.662 522.635 270.649 L 522.635 270.649 L 522.635 270.649 Q 523.069 269.635 523.86 268.873 L 523.86 268.873 L 523.86 268.873 Q 524.651 268.112 525.77 267.672 L 525.77 267.672 L 525.77 267.672 Q 526.889 267.233 528.248 267.233 L 528.248 267.233 L 528.248 267.233 Q 529.549 267.233 530.551 267.596 L 530.551 267.596 L 530.551 267.596 Q 531.553 267.959 532.227 268.616 L 532.227 268.616 L 532.227 268.616 Q 532.901 269.272 533.252 270.192 L 533.252 270.192 L 533.252 270.192 Q 533.604 271.112 533.604 272.225 L 533.604 272.225 L 533.604 272.225 Q 533.604 273.069 533.34 273.836 L 533.34 273.836 L 533.34 273.836 Q 533.076 274.604 532.59 275.354 L 532.59 275.354 L 532.59 275.354 Q 532.104 276.104 531.424 276.883 L 531.424 276.883 L 531.424 276.883 Q 530.744 277.662 529.912 278.518 L 529.912 278.518 L 526.701 281.916 L 534.19 281.916 L 534.19 281.916 Z " fill="rgb(0,0,0)"/></g><g id="Bmaster"><path d="M 679.96 288.945 L 764.607 288.945 C 768.844 288.945 772.284 292.385 772.284 296.621 L 772.284 318.269 C 772.284 322.506 768.844 325.945 764.607 325.945 L 679.96 325.945 C 675.723 325.945 672.284 322.506 672.284 318.269 L 672.284 296.621 C 672.284 292.385 675.723 288.945 679.96 288.945 Z" style="stroke:none;fill:#9FC4FF;stroke-linecap:square;stroke-miterlimit:3;"/><path d="M 679.96 288.945 L 764.607 288.945 C 768.844 288.945 772.284 292.385 772.284 296.621 L 772.284 318.269 C 772.284 322.506 768.844 325.945 764.607 325.945 L 679.96 325.945 C 675.723 325.945 672.284 322.506 672.284 318.269 L 672.284 296.621 C 672.284 292.385 675.723 288.945 679.96 288.945 Z" style="fill:none;stroke:#000000;stroke-width:1.6855342301554246;stroke-linecap:square;stroke-miterlimit:3;"/><path d=" M 698.501 310.327 L 698.501 315.806 L 695.523 315.806 L 695.523 309.429 L 695.523 309.429 Q 695.523 308.247 695.127 307.656 L 695.127 307.656 L 695.127 307.656 Q 694.732 307.066 693.882 307.066 L 693.882 307.066 L 693.882 307.066 Q 692.74 307.066 692.222 307.905 L 692.222 307.905 L 692.222 307.905 Q 691.704 308.745 691.704 310.669 L 691.704 310.669 L 691.704 315.806 L 688.726 315.806 L 688.726 304.888 L 691.001 304.888 L 691.402 306.284 L 691.568 306.284 L 691.568 306.284 Q 692.007 305.532 692.837 305.108 L 692.837 305.108 L 692.837 305.108 Q 693.667 304.683 694.742 304.683 L 694.742 304.683 L 694.742 304.683 Q 697.193 304.683 698.062 306.284 L 698.062 306.284 L 698.326 306.284 L 698.326 306.284 Q 698.765 305.523 699.62 305.103 L 699.62 305.103 L 699.62 305.103 Q 700.474 304.683 701.548 304.683 L 701.548 304.683 L 701.548 304.683 Q 703.404 304.683 704.356 305.635 L 704.356 305.635 L 704.356 305.635 Q 705.308 306.587 705.308 308.687 L 705.308 308.687 L 705.308 315.806 L 702.32 315.806 L 702.32 309.429 L 702.32 309.429 Q 702.32 308.247 701.924 307.656 L 701.924 307.656 L 701.924 307.656 Q 701.529 307.066 700.679 307.066 L 700.679 307.066 L 700.679 307.066 Q 699.585 307.066 699.043 307.847 L 699.043 307.847 L 699.043 307.847 Q 698.501 308.628 698.501 310.327 L 698.501 310.327 L 698.501 310.327 Z  M 717.378 315.806 L 715.298 315.806 L 714.722 314.321 L 714.644 314.321 L 714.644 314.321 Q 713.892 315.269 713.096 315.635 L 713.096 315.635 L 713.096 315.635 Q 712.3 316.001 711.021 316.001 L 711.021 316.001 L 711.021 316.001 Q 709.449 316.001 708.545 315.103 L 708.545 315.103 L 708.545 315.103 Q 707.642 314.204 707.642 312.544 L 707.642 312.544 L 707.642 312.544 Q 707.642 310.806 708.858 309.981 L 708.858 309.981 L 708.858 309.981 Q 710.074 309.155 712.525 309.068 L 712.525 309.068 L 714.419 309.009 L 714.419 308.53 L 714.419 308.53 Q 714.419 306.87 712.72 306.87 L 712.72 306.87 L 712.72 306.87 Q 711.411 306.87 709.644 307.661 L 709.644 307.661 L 708.658 305.65 L 708.658 305.65 Q 710.542 304.663 712.837 304.663 L 712.837 304.663 L 712.837 304.663 Q 715.035 304.663 716.206 305.62 L 716.206 305.62 L 716.206 305.62 Q 717.378 306.577 717.378 308.53 L 717.378 308.53 L 717.378 315.806 L 717.378 315.806 Z  M 714.419 311.646 L 714.419 310.747 L 713.267 310.786 L 713.267 310.786 Q 711.968 310.825 711.333 311.255 L 711.333 311.255 L 711.333 311.255 Q 710.699 311.685 710.699 312.564 L 710.699 312.564 L 710.699 312.564 Q 710.699 313.823 712.144 313.823 L 712.144 313.823 L 712.144 313.823 Q 713.179 313.823 713.799 313.228 L 713.799 313.228 L 713.799 313.228 Q 714.419 312.632 714.419 311.646 L 714.419 311.646 L 714.419 311.646 Z  M 728.062 312.564 L 728.062 312.564 L 728.062 312.564 Q 728.062 314.243 726.895 315.122 L 726.895 315.122 L 726.895 315.122 Q 725.728 316.001 723.404 316.001 L 723.404 316.001 L 723.404 316.001 Q 722.212 316.001 721.372 315.84 L 721.372 315.84 L 721.372 315.84 Q 720.533 315.679 719.8 315.366 L 719.8 315.366 L 719.8 312.905 L 719.8 312.905 Q 720.63 313.296 721.67 313.56 L 721.67 313.56 L 721.67 313.56 Q 722.71 313.823 723.501 313.823 L 723.501 313.823 L 723.501 313.823 Q 725.122 313.823 725.122 312.886 L 725.122 312.886 L 725.122 312.886 Q 725.122 312.534 724.908 312.315 L 724.908 312.315 L 724.908 312.315 Q 724.693 312.095 724.165 311.817 L 724.165 311.817 L 724.165 311.817 Q 723.638 311.538 722.759 311.167 L 722.759 311.167 L 722.759 311.167 Q 721.499 310.64 720.909 310.191 L 720.909 310.191 L 720.909 310.191 Q 720.318 309.741 720.049 309.16 L 720.049 309.16 L 720.049 309.16 Q 719.781 308.579 719.781 307.73 L 719.781 307.73 L 719.781 307.73 Q 719.781 306.275 720.909 305.479 L 720.909 305.479 L 720.909 305.479 Q 722.036 304.683 724.107 304.683 L 724.107 304.683 L 724.107 304.683 Q 726.079 304.683 727.945 305.542 L 727.945 305.542 L 727.046 307.691 L 727.046 307.691 Q 726.226 307.339 725.513 307.114 L 725.513 307.114 L 725.513 307.114 Q 724.8 306.89 724.058 306.89 L 724.058 306.89 L 724.058 306.89 Q 722.74 306.89 722.74 307.603 L 722.74 307.603 L 722.74 307.603 Q 722.74 308.003 723.164 308.296 L 723.164 308.296 L 723.164 308.296 Q 723.589 308.589 725.025 309.165 L 725.025 309.165 L 725.025 309.165 Q 726.304 309.683 726.9 310.132 L 726.9 310.132 L 726.9 310.132 Q 727.495 310.581 727.779 311.167 L 727.779 311.167 L 727.779 311.167 Q 728.062 311.753 728.062 312.564 Z  M 734.986 313.628 L 734.986 313.628 L 734.986 313.628 Q 735.767 313.628 736.861 313.286 L 736.861 313.286 L 736.861 315.503 L 736.861 315.503 Q 735.747 316.001 734.126 316.001 L 734.126 316.001 L 734.126 316.001 Q 732.339 316.001 731.524 315.098 L 731.524 315.098 L 731.524 315.098 Q 730.708 314.195 730.708 312.388 L 730.708 312.388 L 730.708 307.124 L 729.283 307.124 L 729.283 305.864 L 730.923 304.868 L 731.783 302.564 L 733.687 302.564 L 733.687 304.888 L 736.744 304.888 L 736.744 307.124 L 733.687 307.124 L 733.687 312.388 L 733.687 312.388 Q 733.687 313.023 734.043 313.325 L 734.043 313.325 L 734.043 313.325 Q 734.4 313.628 734.986 313.628 Z  M 743.589 306.802 L 743.589 306.802 L 743.589 306.802 Q 742.642 306.802 742.105 307.403 L 742.105 307.403 L 742.105 307.403 Q 741.568 308.003 741.49 309.107 L 741.49 309.107 L 745.669 309.107 L 745.669 309.107 Q 745.65 308.003 745.093 307.403 L 745.093 307.403 L 745.093 307.403 Q 744.536 306.802 743.589 306.802 Z  M 744.009 316.001 L 744.009 316.001 L 744.009 316.001 Q 741.372 316.001 739.888 314.546 L 739.888 314.546 L 739.888 314.546 Q 738.404 313.091 738.404 310.425 L 738.404 310.425 L 738.404 310.425 Q 738.404 307.681 739.776 306.182 L 739.776 306.182 L 739.776 306.182 Q 741.148 304.683 743.57 304.683 L 743.57 304.683 L 743.57 304.683 Q 745.884 304.683 747.173 306.001 L 747.173 306.001 L 747.173 306.001 Q 748.462 307.32 748.462 309.644 L 748.462 309.644 L 748.462 311.089 L 741.421 311.089 L 741.421 311.089 Q 741.47 312.359 742.173 313.071 L 742.173 313.071 L 742.173 313.071 Q 742.876 313.784 744.146 313.784 L 744.146 313.784 L 744.146 313.784 Q 745.132 313.784 746.011 313.579 L 746.011 313.579 L 746.011 313.579 Q 746.89 313.374 747.847 312.925 L 747.847 312.925 L 747.847 315.23 L 747.847 315.23 Q 747.066 315.62 746.177 315.811 L 746.177 315.811 L 746.177 315.811 Q 745.288 316.001 744.009 316.001 Z  M 756.978 304.683 L 756.978 304.683 L 756.978 304.683 Q 757.583 304.683 757.984 304.771 L 757.984 304.771 L 757.759 307.564 L 757.759 307.564 Q 757.398 307.466 756.88 307.466 L 756.88 307.466 L 756.88 307.466 Q 755.454 307.466 754.659 308.198 L 754.659 308.198 L 754.659 308.198 Q 753.863 308.931 753.863 310.249 L 753.863 310.249 L 753.863 315.806 L 750.884 315.806 L 750.884 304.888 L 753.14 304.888 L 753.579 306.724 L 753.726 306.724 L 753.726 306.724 Q 754.234 305.806 755.098 305.244 L 755.098 305.244 L 755.098 305.244 Q 755.962 304.683 756.978 304.683 Z " fill-rule="evenodd" fill="rgb(0,0,0)"/></g><g id="Bmaster"><path d="M 561.88 36 L 646.528 36 C 650.765 36 654.204 39.44 654.204 43.676 L 654.204 65.324 C 654.204 69.56 650.765 73 646.528 73 L 561.88 73 C 557.644 73 554.204 69.56 554.204 65.324 L 554.204 43.676 C 554.204 39.44 557.644 36 561.88 36 Z" style="stroke:none;fill:#9FC4FF;stroke-linecap:square;stroke-miterlimit:3;"/><path d="M 561.88 36 L 646.528 36 C 650.765 36 654.204 39.44 654.204 43.676 L 654.204 65.324 C 654.204 69.56 650.765 73 646.528 73 L 561.88 73 C 557.644 73 554.204 69.56 554.204 65.324 L 554.204 43.676 C 554.204 39.44 557.644 36 561.88 36 Z" style="fill:none;stroke:#000000;stroke-width:1.6855342301554246;stroke-linecap:square;stroke-miterlimit:3;"/><path d=" M 580.422 57.382 L 580.422 62.861 L 577.444 62.861 L 577.444 56.484 L 577.444 56.484 Q 577.444 55.302 577.048 54.711 L 577.048 54.711 L 577.048 54.711 Q 576.653 54.12 575.803 54.12 L 575.803 54.12 L 575.803 54.12 Q 574.66 54.12 574.143 54.96 L 574.143 54.96 L 574.143 54.96 Q 573.625 55.8 573.625 57.724 L 573.625 57.724 L 573.625 62.861 L 570.647 62.861 L 570.647 51.943 L 572.922 51.943 L 573.322 53.339 L 573.488 53.339 L 573.488 53.339 Q 573.928 52.587 574.758 52.162 L 574.758 52.162 L 574.758 52.162 Q 575.588 51.738 576.662 51.738 L 576.662 51.738 L 576.662 51.738 Q 579.113 51.738 579.983 53.339 L 579.983 53.339 L 580.246 53.339 L 580.246 53.339 Q 580.686 52.577 581.54 52.157 L 581.54 52.157 L 581.54 52.157 Q 582.395 51.738 583.469 51.738 L 583.469 51.738 L 583.469 51.738 Q 585.324 51.738 586.277 52.69 L 586.277 52.69 L 586.277 52.69 Q 587.229 53.642 587.229 55.741 L 587.229 55.741 L 587.229 62.861 L 584.24 62.861 L 584.24 56.484 L 584.24 56.484 Q 584.24 55.302 583.845 54.711 L 583.845 54.711 L 583.845 54.711 Q 583.449 54.12 582.6 54.12 L 582.6 54.12 L 582.6 54.12 Q 581.506 54.12 580.964 54.902 L 580.964 54.902 L 580.964 54.902 Q 580.422 55.683 580.422 57.382 L 580.422 57.382 L 580.422 57.382 Z  M 599.299 62.861 L 597.219 62.861 L 596.643 61.376 L 596.565 61.376 L 596.565 61.376 Q 595.813 62.323 595.017 62.69 L 595.017 62.69 L 595.017 62.69 Q 594.221 63.056 592.942 63.056 L 592.942 63.056 L 592.942 63.056 Q 591.369 63.056 590.466 62.157 L 590.466 62.157 L 590.466 62.157 Q 589.563 61.259 589.563 59.599 L 589.563 59.599 L 589.563 59.599 Q 589.563 57.861 590.779 57.035 L 590.779 57.035 L 590.779 57.035 Q 591.994 56.21 594.445 56.122 L 594.445 56.122 L 596.34 56.064 L 596.34 55.585 L 596.34 55.585 Q 596.34 53.925 594.641 53.925 L 594.641 53.925 L 594.641 53.925 Q 593.332 53.925 591.565 54.716 L 591.565 54.716 L 590.578 52.704 L 590.578 52.704 Q 592.463 51.718 594.758 51.718 L 594.758 51.718 L 594.758 51.718 Q 596.955 51.718 598.127 52.675 L 598.127 52.675 L 598.127 52.675 Q 599.299 53.632 599.299 55.585 L 599.299 55.585 L 599.299 62.861 L 599.299 62.861 Z  M 596.34 58.7 L 596.34 57.802 L 595.188 57.841 L 595.188 57.841 Q 593.889 57.88 593.254 58.31 L 593.254 58.31 L 593.254 58.31 Q 592.619 58.739 592.619 59.618 L 592.619 59.618 L 592.619 59.618 Q 592.619 60.878 594.065 60.878 L 594.065 60.878 L 594.065 60.878 Q 595.1 60.878 595.72 60.282 L 595.72 60.282 L 595.72 60.282 Q 596.34 59.687 596.34 58.7 L 596.34 58.7 L 596.34 58.7 Z  M 609.983 59.618 L 609.983 59.618 L 609.983 59.618 Q 609.983 61.298 608.816 62.177 L 608.816 62.177 L 608.816 62.177 Q 607.649 63.056 605.324 63.056 L 605.324 63.056 L 605.324 63.056 Q 604.133 63.056 603.293 62.895 L 603.293 62.895 L 603.293 62.895 Q 602.453 62.734 601.721 62.421 L 601.721 62.421 L 601.721 59.96 L 601.721 59.96 Q 602.551 60.351 603.591 60.614 L 603.591 60.614 L 603.591 60.614 Q 604.631 60.878 605.422 60.878 L 605.422 60.878 L 605.422 60.878 Q 607.043 60.878 607.043 59.941 L 607.043 59.941 L 607.043 59.941 Q 607.043 59.589 606.828 59.369 L 606.828 59.369 L 606.828 59.369 Q 606.613 59.15 606.086 58.871 L 606.086 58.871 L 606.086 58.871 Q 605.559 58.593 604.68 58.222 L 604.68 58.222 L 604.68 58.222 Q 603.42 57.695 602.829 57.245 L 602.829 57.245 L 602.829 57.245 Q 602.238 56.796 601.97 56.215 L 601.97 56.215 L 601.97 56.215 Q 601.701 55.634 601.701 54.784 L 601.701 54.784 L 601.701 54.784 Q 601.701 53.329 602.829 52.533 L 602.829 52.533 L 602.829 52.533 Q 603.957 51.738 606.028 51.738 L 606.028 51.738 L 606.028 51.738 Q 608 51.738 609.865 52.597 L 609.865 52.597 L 608.967 54.745 L 608.967 54.745 Q 608.147 54.394 607.434 54.169 L 607.434 54.169 L 607.434 54.169 Q 606.721 53.945 605.979 53.945 L 605.979 53.945 L 605.979 53.945 Q 604.66 53.945 604.66 54.657 L 604.66 54.657 L 604.66 54.657 Q 604.66 55.058 605.085 55.351 L 605.085 55.351 L 605.085 55.351 Q 605.51 55.644 606.945 56.22 L 606.945 56.22 L 606.945 56.22 Q 608.225 56.738 608.82 57.187 L 608.82 57.187 L 608.82 57.187 Q 609.416 57.636 609.699 58.222 L 609.699 58.222 L 609.699 58.222 Q 609.983 58.808 609.983 59.618 Z  M 616.906 60.683 L 616.906 60.683 L 616.906 60.683 Q 617.688 60.683 618.781 60.341 L 618.781 60.341 L 618.781 62.558 L 618.781 62.558 Q 617.668 63.056 616.047 63.056 L 616.047 63.056 L 616.047 63.056 Q 614.26 63.056 613.445 62.153 L 613.445 62.153 L 613.445 62.153 Q 612.629 61.249 612.629 59.443 L 612.629 59.443 L 612.629 54.179 L 611.203 54.179 L 611.203 52.919 L 612.844 51.923 L 613.703 49.618 L 615.608 49.618 L 615.608 51.943 L 618.664 51.943 L 618.664 54.179 L 615.608 54.179 L 615.608 59.443 L 615.608 59.443 Q 615.608 60.077 615.964 60.38 L 615.964 60.38 L 615.964 60.38 Q 616.32 60.683 616.906 60.683 Z  M 625.51 53.857 L 625.51 53.857 L 625.51 53.857 Q 624.563 53.857 624.026 54.457 L 624.026 54.457 L 624.026 54.457 Q 623.488 55.058 623.41 56.161 L 623.41 56.161 L 627.59 56.161 L 627.59 56.161 Q 627.57 55.058 627.014 54.457 L 627.014 54.457 L 627.014 54.457 Q 626.457 53.857 625.51 53.857 Z  M 625.93 63.056 L 625.93 63.056 L 625.93 63.056 Q 623.293 63.056 621.809 61.601 L 621.809 61.601 L 621.809 61.601 Q 620.324 60.146 620.324 57.48 L 620.324 57.48 L 620.324 57.48 Q 620.324 54.736 621.696 53.237 L 621.696 53.237 L 621.696 53.237 Q 623.069 51.738 625.49 51.738 L 625.49 51.738 L 625.49 51.738 Q 627.805 51.738 629.094 53.056 L 629.094 53.056 L 629.094 53.056 Q 630.383 54.374 630.383 56.698 L 630.383 56.698 L 630.383 58.144 L 623.342 58.144 L 623.342 58.144 Q 623.391 59.413 624.094 60.126 L 624.094 60.126 L 624.094 60.126 Q 624.797 60.839 626.067 60.839 L 626.067 60.839 L 626.067 60.839 Q 627.053 60.839 627.932 60.634 L 627.932 60.634 L 627.932 60.634 Q 628.811 60.429 629.768 59.98 L 629.768 59.98 L 629.768 62.284 L 629.768 62.284 Q 628.987 62.675 628.098 62.865 L 628.098 62.865 L 628.098 62.865 Q 627.209 63.056 625.93 63.056 Z  M 638.899 51.738 L 638.899 51.738 L 638.899 51.738 Q 639.504 51.738 639.904 51.825 L 639.904 51.825 L 639.68 54.618 L 639.68 54.618 Q 639.319 54.521 638.801 54.521 L 638.801 54.521 L 638.801 54.521 Q 637.375 54.521 636.579 55.253 L 636.579 55.253 L 636.579 55.253 Q 635.783 55.986 635.783 57.304 L 635.783 57.304 L 635.783 62.861 L 632.805 62.861 L 632.805 51.943 L 635.061 51.943 L 635.5 53.779 L 635.647 53.779 L 635.647 53.779 Q 636.154 52.861 637.019 52.299 L 637.019 52.299 L 637.019 52.299 Q 637.883 51.738 638.899 51.738 Z " fill-rule="evenodd" fill="rgb(0,0,0)"/></g><g id="Bmaster"><path d="M 239.219 36 L 323.867 36 C 328.103 36 331.543 39.44 331.543 43.676 L 331.543 65.324 C 331.543 69.56 328.103 73 323.867 73 L 239.219 73 C 234.982 73 231.543 69.56 231.543 65.324 L 231.543 43.676 C 231.543 39.44 234.982 36 239.219 36 Z" style="stroke:none;fill:#9FC4FF;stroke-linecap:square;stroke-miterlimit:3;"/><path d="M 239.219 36 L 323.867 36 C 328.103 36 331.543 39.44 331.543 43.676 L 331.543 65.324 C 331.543 69.56 328.103 73 323.867 73 L 239.219 73 C 234.982 73 231.543 69.56 231.543 65.324 L 231.543 43.676 C 231.543 39.44 234.982 36 239.219 36 Z" style="fill:none;stroke:#000000;stroke-width:1.6855342301554246;stroke-linecap:square;stroke-miterlimit:3;"/><path d=" M 257.76 57.382 L 257.76 62.861 L 254.782 62.861 L 254.782 56.484 L 254.782 56.484 Q 254.782 55.302 254.386 54.711 L 254.386 54.711 L 254.386 54.711 Q 253.991 54.12 253.141 54.12 L 253.141 54.12 L 253.141 54.12 Q 251.999 54.12 251.481 54.96 L 251.481 54.96 L 251.481 54.96 Q 250.964 55.8 250.964 57.724 L 250.964 57.724 L 250.964 62.861 L 247.985 62.861 L 247.985 51.943 L 250.26 51.943 L 250.661 53.339 L 250.827 53.339 L 250.827 53.339 Q 251.266 52.587 252.096 52.162 L 252.096 52.162 L 252.096 52.162 Q 252.926 51.738 254.001 51.738 L 254.001 51.738 L 254.001 51.738 Q 256.452 51.738 257.321 53.339 L 257.321 53.339 L 257.585 53.339 L 257.585 53.339 Q 258.024 52.577 258.879 52.157 L 258.879 52.157 L 258.879 52.157 Q 259.733 51.738 260.807 51.738 L 260.807 51.738 L 260.807 51.738 Q 262.663 51.738 263.615 52.69 L 263.615 52.69 L 263.615 52.69 Q 264.567 53.642 264.567 55.741 L 264.567 55.741 L 264.567 62.861 L 261.579 62.861 L 261.579 56.484 L 261.579 56.484 Q 261.579 55.302 261.183 54.711 L 261.183 54.711 L 261.183 54.711 Q 260.788 54.12 259.938 54.12 L 259.938 54.12 L 259.938 54.12 Q 258.844 54.12 258.302 54.902 L 258.302 54.902 L 258.302 54.902 Q 257.76 55.683 257.76 57.382 L 257.76 57.382 L 257.76 57.382 Z  M 276.637 62.861 L 274.557 62.861 L 273.981 61.376 L 273.903 61.376 L 273.903 61.376 Q 273.151 62.323 272.355 62.69 L 272.355 62.69 L 272.355 62.69 Q 271.559 63.056 270.28 63.056 L 270.28 63.056 L 270.28 63.056 Q 268.708 63.056 267.804 62.157 L 267.804 62.157 L 267.804 62.157 Q 266.901 61.259 266.901 59.599 L 266.901 59.599 L 266.901 59.599 Q 266.901 57.861 268.117 57.035 L 268.117 57.035 L 268.117 57.035 Q 269.333 56.21 271.784 56.122 L 271.784 56.122 L 273.678 56.064 L 273.678 55.585 L 273.678 55.585 Q 273.678 53.925 271.979 53.925 L 271.979 53.925 L 271.979 53.925 Q 270.671 53.925 268.903 54.716 L 268.903 54.716 L 267.917 52.704 L 267.917 52.704 Q 269.801 51.718 272.096 51.718 L 272.096 51.718 L 272.096 51.718 Q 274.294 51.718 275.466 52.675 L 275.466 52.675 L 275.466 52.675 Q 276.637 53.632 276.637 55.585 L 276.637 55.585 L 276.637 62.861 L 276.637 62.861 Z  M 273.678 58.7 L 273.678 57.802 L 272.526 57.841 L 272.526 57.841 Q 271.227 57.88 270.592 58.31 L 270.592 58.31 L 270.592 58.31 Q 269.958 58.739 269.958 59.618 L 269.958 59.618 L 269.958 59.618 Q 269.958 60.878 271.403 60.878 L 271.403 60.878 L 271.403 60.878 Q 272.438 60.878 273.058 60.282 L 273.058 60.282 L 273.058 60.282 Q 273.678 59.687 273.678 58.7 L 273.678 58.7 L 273.678 58.7 Z  M 287.321 59.618 L 287.321 59.618 L 287.321 59.618 Q 287.321 61.298 286.154 62.177 L 286.154 62.177 L 286.154 62.177 Q 284.987 63.056 282.663 63.056 L 282.663 63.056 L 282.663 63.056 Q 281.471 63.056 280.632 62.895 L 280.632 62.895 L 280.632 62.895 Q 279.792 62.734 279.059 62.421 L 279.059 62.421 L 279.059 59.96 L 279.059 59.96 Q 279.889 60.351 280.929 60.614 L 280.929 60.614 L 280.929 60.614 Q 281.969 60.878 282.76 60.878 L 282.76 60.878 L 282.76 60.878 Q 284.382 60.878 284.382 59.941 L 284.382 59.941 L 284.382 59.941 Q 284.382 59.589 284.167 59.369 L 284.167 59.369 L 284.167 59.369 Q 283.952 59.15 283.425 58.871 L 283.425 58.871 L 283.425 58.871 Q 282.897 58.593 282.018 58.222 L 282.018 58.222 L 282.018 58.222 Q 280.758 57.695 280.168 57.245 L 280.168 57.245 L 280.168 57.245 Q 279.577 56.796 279.308 56.215 L 279.308 56.215 L 279.308 56.215 Q 279.04 55.634 279.04 54.784 L 279.04 54.784 L 279.04 54.784 Q 279.04 53.329 280.168 52.533 L 280.168 52.533 L 280.168 52.533 Q 281.296 51.738 283.366 51.738 L 283.366 51.738 L 283.366 51.738 Q 285.339 51.738 287.204 52.597 L 287.204 52.597 L 286.305 54.745 L 286.305 54.745 Q 285.485 54.394 284.772 54.169 L 284.772 54.169 L 284.772 54.169 Q 284.059 53.945 283.317 53.945 L 283.317 53.945 L 283.317 53.945 Q 281.999 53.945 281.999 54.657 L 281.999 54.657 L 281.999 54.657 Q 281.999 55.058 282.424 55.351 L 282.424 55.351 L 282.424 55.351 Q 282.848 55.644 284.284 56.22 L 284.284 56.22 L 284.284 56.22 Q 285.563 56.738 286.159 57.187 L 286.159 57.187 L 286.159 57.187 Q 286.755 57.636 287.038 58.222 L 287.038 58.222 L 287.038 58.222 Q 287.321 58.808 287.321 59.618 Z  M 294.245 60.683 L 294.245 60.683 L 294.245 60.683 Q 295.026 60.683 296.12 60.341 L 296.12 60.341 L 296.12 62.558 L 296.12 62.558 Q 295.007 63.056 293.385 63.056 L 293.385 63.056 L 293.385 63.056 Q 291.598 63.056 290.783 62.153 L 290.783 62.153 L 290.783 62.153 Q 289.967 61.249 289.967 59.443 L 289.967 59.443 L 289.967 54.179 L 288.542 54.179 L 288.542 52.919 L 290.182 51.923 L 291.042 49.618 L 292.946 49.618 L 292.946 51.943 L 296.003 51.943 L 296.003 54.179 L 292.946 54.179 L 292.946 59.443 L 292.946 59.443 Q 292.946 60.077 293.302 60.38 L 293.302 60.38 L 293.302 60.38 Q 293.659 60.683 294.245 60.683 Z  M 302.848 53.857 L 302.848 53.857 L 302.848 53.857 Q 301.901 53.857 301.364 54.457 L 301.364 54.457 L 301.364 54.457 Q 300.827 55.058 300.749 56.161 L 300.749 56.161 L 304.928 56.161 L 304.928 56.161 Q 304.909 55.058 304.352 54.457 L 304.352 54.457 L 304.352 54.457 Q 303.796 53.857 302.848 53.857 Z  M 303.268 63.056 L 303.268 63.056 L 303.268 63.056 Q 300.632 63.056 299.147 61.601 L 299.147 61.601 L 299.147 61.601 Q 297.663 60.146 297.663 57.48 L 297.663 57.48 L 297.663 57.48 Q 297.663 54.736 299.035 53.237 L 299.035 53.237 L 299.035 53.237 Q 300.407 51.738 302.829 51.738 L 302.829 51.738 L 302.829 51.738 Q 305.143 51.738 306.432 53.056 L 306.432 53.056 L 306.432 53.056 Q 307.721 54.374 307.721 56.698 L 307.721 56.698 L 307.721 58.144 L 300.68 58.144 L 300.68 58.144 Q 300.729 59.413 301.432 60.126 L 301.432 60.126 L 301.432 60.126 Q 302.135 60.839 303.405 60.839 L 303.405 60.839 L 303.405 60.839 Q 304.391 60.839 305.27 60.634 L 305.27 60.634 L 305.27 60.634 Q 306.149 60.429 307.106 59.98 L 307.106 59.98 L 307.106 62.284 L 307.106 62.284 Q 306.325 62.675 305.436 62.865 L 305.436 62.865 L 305.436 62.865 Q 304.548 63.056 303.268 63.056 Z  M 316.237 51.738 L 316.237 51.738 L 316.237 51.738 Q 316.842 51.738 317.243 51.825 L 317.243 51.825 L 317.018 54.618 L 317.018 54.618 Q 316.657 54.521 316.139 54.521 L 316.139 54.521 L 316.139 54.521 Q 314.714 54.521 313.918 55.253 L 313.918 55.253 L 313.918 55.253 Q 313.122 55.986 313.122 57.304 L 313.122 57.304 L 313.122 62.861 L 310.143 62.861 L 310.143 51.943 L 312.399 51.943 L 312.839 53.779 L 312.985 53.779 L 312.985 53.779 Q 313.493 52.861 314.357 52.299 L 314.357 52.299 L 314.357 52.299 Q 315.221 51.738 316.237 51.738 Z " fill-rule="evenodd" fill="rgb(0,0,0)"/></g><g id="C4"><path d=" M 581.997 275.207 C 581.997 262.951 591.948 253 604.204 253 C 616.461 253 626.412 262.951 626.412 275.207 C 626.412 287.464 616.461 297.415 604.204 297.415 C 591.948 297.415 581.997 287.464 581.997 275.207 Z " fill="rgb(195,215,247)" vector-effect="non-scaling-stroke" stroke-width="2" stroke="rgb(0,0,0)" stroke-linejoin="miter" stroke-linecap="square" stroke-miterlimit="3"/><path d=" M 607.171 267.467 L 607.171 278.19 L 609.152 278.19 L 609.152 280.826 L 607.171 280.826 L 607.171 284.53 L 603.913 284.53 L 603.913 280.826 L 596.823 280.826 L 596.695 278.787 L 603.866 267.467 L 607.171 267.467 L 607.171 267.467 Z  M 603.597 272.412 L 599.894 278.19 L 603.913 278.19 L 603.913 271.85 L 603.597 272.412 L 603.597 272.412 Z " fill-rule="evenodd" fill="rgb(0,0,0)"/></g><g id="Bhead"><path d="M 686.173 251.945 L 758.394 251.945 C 762.335 251.945 765.534 255.144 765.534 259.085 L 765.534 281.806 C 765.534 285.746 762.335 288.945 758.394 288.945 L 686.173 288.945 C 682.233 288.945 679.034 285.746 679.034 281.806 L 679.034 259.085 C 679.034 255.144 682.233 251.945 686.173 251.945 Z" style="stroke:none;fill:#FFF3A5;stroke-linecap:square;stroke-miterlimit:3;"/><path d="M 686.173 251.945 L 758.394 251.945 C 762.335 251.945 765.534 255.144 765.534 259.085 L 765.534 281.806 C 765.534 285.746 762.335 288.945 758.394 288.945 L 686.173 288.945 C 682.233 288.945 679.034 285.746 679.034 281.806 L 679.034 259.085 C 679.034 255.144 682.233 251.945 686.173 251.945 Z" style="fill:none;stroke:#000000;stroke-width:1.6855342301554246;stroke-linecap:square;stroke-miterlimit:3;"/><path d=" M 707.226 265.654 L 707.226 279.931 L 704.208 279.931 L 704.208 273.769 L 698.554 273.769 L 698.554 279.931 L 695.527 279.931 L 695.527 265.654 L 698.554 265.654 L 698.554 271.25 L 704.208 271.25 L 704.208 265.654 L 707.226 265.654 L 707.226 265.654 Z  M 719.052 277.431 L 719.052 279.931 L 710.829 279.931 L 710.829 265.654 L 719.052 265.654 L 719.052 268.134 L 713.857 268.134 L 713.857 271.269 L 718.691 271.269 L 718.691 273.75 L 713.857 273.75 L 713.857 277.431 L 719.052 277.431 L 719.052 277.431 Z  M 734.033 279.931 L 730.771 279.931 L 729.736 276.533 L 724.531 276.533 L 723.495 279.931 L 720.234 279.931 L 725.273 265.595 L 728.974 265.595 L 734.033 279.931 L 734.033 279.931 Z  M 725.292 273.994 L 729.013 273.994 L 729.013 273.994 Q 727.578 269.375 727.397 268.769 L 727.397 268.769 L 727.397 268.769 Q 727.216 268.164 727.138 267.812 L 727.138 267.812 L 727.138 267.812 Q 726.816 269.062 725.292 273.994 L 725.292 273.994 L 725.292 273.994 Z  M 747.675 272.656 L 747.675 272.656 L 747.675 272.656 Q 747.675 276.181 745.668 278.056 L 745.668 278.056 L 745.668 278.056 Q 743.661 279.931 739.872 279.931 L 739.872 279.931 L 735.829 279.931 L 735.829 265.654 L 740.312 265.654 L 740.312 265.654 Q 743.808 265.654 745.742 267.5 L 745.742 267.5 L 745.742 267.5 Q 747.675 269.345 747.675 272.656 Z  M 744.531 272.734 L 744.531 272.734 L 744.531 272.734 Q 744.531 268.134 740.468 268.134 L 740.468 268.134 L 738.857 268.134 L 738.857 277.431 L 740.156 277.431 L 740.156 277.431 Q 744.531 277.431 744.531 272.734 Z " fill-rule="evenodd" fill="rgb(0,0,0)"/></g><g id="C3"><path d=" M 700.076 353.092 C 700.076 340.835 710.027 330.884 722.284 330.884 C 734.54 330.884 744.491 340.835 744.491 353.092 C 744.491 365.348 734.54 375.299 722.284 375.299 C 710.027 375.299 700.076 365.348 700.076 353.092 Z " fill="rgb(195,215,247)" vector-effect="non-scaling-stroke" stroke-width="2" stroke="rgb(0,0,0)" stroke-linejoin="miter" stroke-linecap="square" stroke-miterlimit="3"/><path d=" M 718.5 354.656 L 715.899 354.012 L 716.871 345.351 L 726.34 345.351 L 726.34 348.117 L 719.555 348.117 L 719.145 351.867 L 719.145 351.867 Q 719.508 351.656 720.176 351.433 L 720.176 351.433 L 720.176 351.433 Q 720.844 351.211 721.711 351.211 L 721.711 351.211 L 721.711 351.211 Q 722.942 351.211 723.909 351.603 L 723.909 351.603 L 723.909 351.603 Q 724.875 351.996 725.537 352.734 L 725.537 352.734 L 725.537 352.734 Q 726.2 353.473 726.551 354.539 L 726.551 354.539 L 726.551 354.539 Q 726.903 355.605 726.903 356.953 L 726.903 356.953 L 726.903 356.953 Q 726.903 358.101 726.563 359.133 L 726.563 359.133 L 726.563 359.133 Q 726.223 360.164 725.52 360.949 L 725.52 360.949 L 725.52 360.949 Q 724.817 361.734 723.75 362.191 L 723.75 362.191 L 723.75 362.191 Q 722.684 362.648 721.231 362.648 L 721.231 362.648 L 721.231 362.648 Q 720.129 362.648 719.104 362.32 L 719.104 362.32 L 719.104 362.32 Q 718.078 361.992 717.282 361.359 L 717.282 361.359 L 717.282 361.359 Q 716.485 360.726 715.987 359.807 L 715.987 359.807 L 715.987 359.807 Q 715.489 358.887 715.453 357.703 L 715.453 357.703 L 718.664 357.703 L 718.664 357.703 Q 718.782 358.816 719.467 359.426 L 719.467 359.426 L 719.467 359.426 Q 720.153 360.035 721.219 360.035 L 721.219 360.035 L 721.219 360.035 Q 721.875 360.035 722.338 359.789 L 722.338 359.789 L 722.338 359.789 Q 722.801 359.543 723.088 359.109 L 723.088 359.109 L 723.088 359.109 Q 723.375 358.676 723.51 358.078 L 723.51 358.078 L 723.51 358.078 Q 723.645 357.48 723.645 356.789 L 723.645 356.789 L 723.645 356.789 Q 723.645 356.109 723.475 355.541 L 723.475 355.541 L 723.475 355.541 Q 723.305 354.973 722.953 354.562 L 722.953 354.562 L 722.953 354.562 Q 722.602 354.152 722.075 353.93 L 722.075 353.93 L 722.075 353.93 Q 721.547 353.707 720.832 353.707 L 720.832 353.707 L 720.832 353.707 Q 720.352 353.707 720 353.789 L 720 353.789 L 720 353.789 Q 719.649 353.871 719.379 354 L 719.379 354 L 719.379 354 Q 719.11 354.129 718.899 354.299 L 718.899 354.299 L 718.899 354.299 Q 718.688 354.469 718.5 354.656 L 718.5 354.656 L 718.5 354.656 Z " fill="rgb(0,0,0)"/></g><g id="Group"><path d=" M 53.505 13.154 C 43.635 13.154 34.674 14.923 28.042 17.908 C 24.73 19.396 21.997 21.2 20.011 23.318 C 18.023 25.432 16.787 27.941 16.787 30.639 L 16.787 47.797 C 16.773 47.905 16.773 48.015 16.787 48.124 L 16.787 65.281 C 16.773 65.39 16.773 65.5 16.787 65.608 L 16.787 81.345 C 16.787 84.043 18.023 86.55 20.011 88.667 C 21.997 90.783 24.73 92.588 28.042 94.075 C 34.674 97.06 43.635 98.83 53.505 98.83 C 63.375 98.83 72.336 97.06 78.968 94.075 C 82.28 92.588 85.013 90.783 86.999 88.667 C 88.987 86.55 90.223 84.041 90.223 81.345 L 90.223 30.639 C 90.223 27.941 88.987 25.433 86.999 23.316 C 85.013 21.2 82.28 19.396 78.968 17.908 C 72.336 14.923 63.375 13.154 53.505 13.154 Z  M 53.505 16.651 C 62.95 16.651 71.467 18.42 77.493 21.132 C 80.503 22.484 82.881 24.07 84.431 25.722 C 85.983 27.374 86.726 28.992 86.726 30.639 C 86.726 32.284 85.981 33.903 84.431 35.557 C 82.881 37.209 80.503 38.794 77.493 40.145 C 71.467 42.857 62.95 44.627 53.505 44.627 C 44.06 44.627 35.543 42.857 29.518 40.145 C 26.507 38.794 24.129 37.208 22.578 35.557 C 21.029 33.903 20.284 32.282 20.284 30.639 C 20.284 28.993 21.029 27.374 22.58 25.72 C 24.129 24.068 26.507 22.484 29.518 21.13 C 35.543 18.422 44.06 16.651 53.505 16.651 Z  M 20.284 38.234 C 22.244 40.234 24.867 41.941 28.044 43.369 C 34.674 46.354 43.635 48.124 53.505 48.124 C 63.375 48.124 72.336 46.354 78.968 43.369 C 82.144 41.943 84.766 40.234 86.726 38.234 L 86.726 48.124 C 86.726 49.769 85.981 51.388 84.431 53.042 C 82.881 54.694 80.503 56.278 77.493 57.632 C 71.467 60.342 62.95 62.111 53.505 62.111 C 44.06 62.111 35.543 60.342 29.518 57.63 C 26.507 56.278 24.129 54.693 22.578 53.04 C 21.029 51.388 20.284 49.771 20.284 48.124 C 20.298 48.014 20.298 47.904 20.284 47.795 L 20.284 38.234 Z  M 20.284 55.719 C 22.244 57.719 24.867 59.426 28.044 60.854 C 34.674 63.839 43.635 65.608 53.505 65.608 C 63.375 65.608 72.336 63.839 78.968 60.854 C 82.144 59.427 84.766 57.719 86.726 55.719 L 86.726 65.608 C 86.726 67.254 85.981 68.873 84.431 70.527 C 82.881 72.179 80.503 73.763 77.493 75.115 C 71.467 77.829 62.95 79.596 53.505 79.596 C 44.06 79.596 35.543 77.827 29.518 75.115 C 26.507 73.763 24.129 72.177 22.578 70.527 C 21.029 68.871 20.284 67.252 20.284 65.608 C 20.298 65.499 20.298 65.389 20.284 65.28 L 20.284 55.719 Z  M 20.284 73.204 C 22.244 75.204 24.867 76.911 28.044 78.339 C 34.674 81.324 43.635 83.093 53.505 83.093 C 63.375 83.093 72.336 81.324 78.968 78.339 C 82.144 76.912 84.766 75.204 86.726 73.204 L 86.726 81.345 C 86.726 82.99 85.981 84.609 84.431 86.263 C 82.881 87.916 80.503 89.5 77.493 90.851 C 71.467 93.565 62.95 95.333 53.505 95.333 C 44.06 95.333 35.543 93.563 29.518 90.851 C 26.507 89.5 24.129 87.914 22.578 86.263 C 21.029 84.609 20.284 82.988 20.284 81.345 L 20.284 73.204 Z " fill="rgb(0,0,0)"/><path d=" M 19.824 109.19 L 19.824 113.047 L 20.801 113.047 L 20.801 113.047 Q 22.236 113.047 22.92 112.569 L 22.92 112.569 L 22.92 112.569 Q 23.604 112.09 23.604 111.065 L 23.604 111.065 L 23.604 111.065 Q 23.604 110.049 22.905 109.62 L 22.905 109.62 L 22.905 109.62 Q 22.207 109.19 20.742 109.19 L 20.742 109.19 L 19.824 109.19 L 19.824 109.19 Z  M 21.436 115.508 L 19.824 115.508 L 19.824 120.987 L 16.797 120.987 L 16.797 106.709 L 20.957 106.709 L 20.957 106.709 Q 23.867 106.709 25.264 107.769 L 25.264 107.769 L 25.264 107.769 Q 26.66 108.829 26.66 110.987 L 26.66 110.987 L 26.66 110.987 Q 26.66 112.247 25.967 113.228 L 25.967 113.228 L 25.967 113.228 Q 25.273 114.209 24.004 114.766 L 24.004 114.766 L 24.004 114.766 Q 27.227 119.581 28.203 120.987 L 28.203 120.987 L 24.844 120.987 L 21.436 115.508 L 21.436 115.508 Z  M 34.287 111.983 L 34.287 111.983 L 34.287 111.983 Q 33.34 111.983 32.803 112.584 L 32.803 112.584 L 32.803 112.584 Q 32.266 113.184 32.188 114.288 L 32.188 114.288 L 36.367 114.288 L 36.367 114.288 Q 36.348 113.184 35.791 112.584 L 35.791 112.584 L 35.791 112.584 Q 35.234 111.983 34.287 111.983 Z  M 34.707 121.182 L 34.707 121.182 L 34.707 121.182 Q 32.07 121.182 30.586 119.727 L 30.586 119.727 L 30.586 119.727 Q 29.102 118.272 29.102 115.606 L 29.102 115.606 L 29.102 115.606 Q 29.102 112.862 30.474 111.363 L 30.474 111.363 L 30.474 111.363 Q 31.846 109.864 34.268 109.864 L 34.268 109.864 L 34.268 109.864 Q 36.582 109.864 37.871 111.182 L 37.871 111.182 L 37.871 111.182 Q 39.16 112.5 39.16 114.825 L 39.16 114.825 L 39.16 116.27 L 32.119 116.27 L 32.119 116.27 Q 32.168 117.54 32.871 118.252 L 32.871 118.252 L 32.871 118.252 Q 33.574 118.965 34.844 118.965 L 34.844 118.965 L 34.844 118.965 Q 35.83 118.965 36.709 118.76 L 36.709 118.76 L 36.709 118.76 Q 37.588 118.555 38.545 118.106 L 38.545 118.106 L 38.545 120.411 L 38.545 120.411 Q 37.764 120.801 36.875 120.992 L 36.875 120.992 L 36.875 120.992 Q 35.986 121.182 34.707 121.182 Z  M 51.357 115.508 L 51.357 120.987 L 48.379 120.987 L 48.379 114.61 L 48.379 114.61 Q 48.379 113.428 47.983 112.837 L 47.983 112.837 L 47.983 112.837 Q 47.588 112.247 46.738 112.247 L 46.738 112.247 L 46.738 112.247 Q 45.596 112.247 45.078 113.086 L 45.078 113.086 L 45.078 113.086 Q 44.561 113.926 44.561 115.85 L 44.561 115.85 L 44.561 120.987 L 41.582 120.987 L 41.582 110.069 L 43.857 110.069 L 44.258 111.465 L 44.424 111.465 L 44.424 111.465 Q 44.863 110.713 45.693 110.289 L 45.693 110.289 L 45.693 110.289 Q 46.523 109.864 47.598 109.864 L 47.598 109.864 L 47.598 109.864 Q 50.049 109.864 50.918 111.465 L 50.918 111.465 L 51.182 111.465 L 51.182 111.465 Q 51.621 110.704 52.476 110.284 L 52.476 110.284 L 52.476 110.284 Q 53.33 109.864 54.404 109.864 L 54.404 109.864 L 54.404 109.864 Q 56.26 109.864 57.212 110.816 L 57.212 110.816 L 57.212 110.816 Q 58.164 111.768 58.164 113.868 L 58.164 113.868 L 58.164 120.987 L 55.176 120.987 L 55.176 114.61 L 55.176 114.61 Q 55.176 113.428 54.78 112.837 L 54.78 112.837 L 54.78 112.837 Q 54.385 112.247 53.535 112.247 L 53.535 112.247 L 53.535 112.247 Q 52.441 112.247 51.899 113.028 L 51.899 113.028 L 51.899 113.028 Q 51.357 113.809 51.357 115.508 L 51.357 115.508 L 51.357 115.508 Z  M 63.594 115.508 L 63.594 115.508 L 63.594 115.508 Q 63.594 117.129 64.126 117.959 L 64.126 117.959 L 64.126 117.959 Q 64.658 118.79 65.859 118.79 L 65.859 118.79 L 65.859 118.79 Q 67.051 118.79 67.573 117.964 L 67.573 117.964 L 67.573 117.964 Q 68.096 117.139 68.096 115.508 L 68.096 115.508 L 68.096 115.508 Q 68.096 113.887 67.568 113.077 L 67.568 113.077 L 67.568 113.077 Q 67.041 112.266 65.84 112.266 L 65.84 112.266 L 65.84 112.266 Q 64.648 112.266 64.121 113.072 L 64.121 113.072 L 64.121 113.072 Q 63.594 113.877 63.594 115.508 Z  M 71.143 115.508 L 71.143 115.508 L 71.143 115.508 Q 71.143 118.174 69.736 119.678 L 69.736 119.678 L 69.736 119.678 Q 68.33 121.182 65.82 121.182 L 65.82 121.182 L 65.82 121.182 Q 64.248 121.182 63.047 120.494 L 63.047 120.494 L 63.047 120.494 Q 61.846 119.805 61.201 118.516 L 61.201 118.516 L 61.201 118.516 Q 60.557 117.227 60.557 115.508 L 60.557 115.508 L 60.557 115.508 Q 60.557 112.833 61.953 111.348 L 61.953 111.348 L 61.953 111.348 Q 63.35 109.864 65.879 109.864 L 65.879 109.864 L 65.879 109.864 Q 67.451 109.864 68.652 110.547 L 68.652 110.547 L 68.652 110.547 Q 69.854 111.231 70.498 112.51 L 70.498 112.51 L 70.498 112.51 Q 71.143 113.79 71.143 115.508 Z  M 78.203 118.809 L 78.203 118.809 L 78.203 118.809 Q 78.984 118.809 80.078 118.467 L 80.078 118.467 L 80.078 120.684 L 80.078 120.684 Q 78.965 121.182 77.344 121.182 L 77.344 121.182 L 77.344 121.182 Q 75.557 121.182 74.741 120.279 L 74.741 120.279 L 74.741 120.279 Q 73.926 119.375 73.926 117.569 L 73.926 117.569 L 73.926 112.305 L 72.5 112.305 L 72.5 111.045 L 74.141 110.049 L 75 107.745 L 76.904 107.745 L 76.904 110.069 L 79.961 110.069 L 79.961 112.305 L 76.904 112.305 L 76.904 117.569 L 76.904 117.569 Q 76.904 118.204 77.261 118.506 L 77.261 118.506 L 77.261 118.506 Q 77.617 118.809 78.203 118.809 Z  M 86.807 111.983 L 86.807 111.983 L 86.807 111.983 Q 85.859 111.983 85.322 112.584 L 85.322 112.584 L 85.322 112.584 Q 84.785 113.184 84.707 114.288 L 84.707 114.288 L 88.887 114.288 L 88.887 114.288 Q 88.867 113.184 88.311 112.584 L 88.311 112.584 L 88.311 112.584 Q 87.754 111.983 86.807 111.983 Z  M 87.227 121.182 L 87.227 121.182 L 87.227 121.182 Q 84.59 121.182 83.105 119.727 L 83.105 119.727 L 83.105 119.727 Q 81.621 118.272 81.621 115.606 L 81.621 115.606 L 81.621 115.606 Q 81.621 112.862 82.993 111.363 L 82.993 111.363 L 82.993 111.363 Q 84.365 109.864 86.787 109.864 L 86.787 109.864 L 86.787 109.864 Q 89.102 109.864 90.391 111.182 L 90.391 111.182 L 90.391 111.182 Q 91.68 112.5 91.68 114.825 L 91.68 114.825 L 91.68 116.27 L 84.639 116.27 L 84.639 116.27 Q 84.688 117.54 85.391 118.252 L 85.391 118.252 L 85.391 118.252 Q 86.094 118.965 87.363 118.965 L 87.363 118.965 L 87.363 118.965 Q 88.35 118.965 89.229 118.76 L 89.229 118.76 L 89.229 118.76 Q 90.107 118.555 91.064 118.106 L 91.064 118.106 L 91.064 120.411 L 91.064 120.411 Q 90.283 120.801 89.395 120.992 L 89.395 120.992 L 89.395 120.992 Q 88.506 121.182 87.227 121.182 Z " fill-rule="evenodd" fill="rgb(0,0,0)"/></g><g id="Group"><path d=" M 45.039 346.344 C 45.039 348.851 43.012 350.878 40.506 350.878 L 12.977 350.878 C 10.471 350.878 8.444 348.851 8.444 346.344 L 8.444 275.267 C 8.444 273.328 10.035 271.736 11.975 271.736 L 41.508 271.736 C 43.448 271.736 45.039 273.328 45.039 275.267 L 45.039 284.138 L 48.483 284.138 L 48.483 275.267 C 48.483 271.41 45.344 268.293 41.508 268.293 L 11.975 268.293 C 8.117 268.293 5 271.431 5 275.267 L 5 346.366 C 5 350.769 8.575 354.343 12.977 354.343 L 40.506 354.343 C 44.908 354.343 48.483 350.769 48.483 346.366 L 48.483 341.985 L 45.039 341.985 L 45.039 346.344 L 45.039 346.344 Z  M 98.309 285.032 L 35.994 285.032 C 32.289 285.032 29.281 288.04 29.281 291.745 L 29.281 334.095 C 29.281 337.8 32.289 340.808 35.994 340.808 L 65.418 340.808 L 65.418 350.376 L 50.619 350.376 L 50.619 353.82 L 83.662 353.82 L 83.662 350.376 L 68.862 350.376 L 68.862 340.808 L 98.287 340.808 C 101.992 340.808 105 337.8 105 334.095 L 105 291.745 C 105.022 288.04 102.014 285.032 98.309 285.032 L 98.309 285.032 Z  M 101.578 334.095 C 101.578 335.904 100.118 337.364 98.309 337.364 L 35.994 337.364 C 34.185 337.364 32.724 335.904 32.724 334.095 L 32.724 291.745 C 32.724 289.936 34.185 288.476 35.994 288.476 L 98.309 288.476 C 100.118 288.476 101.578 289.936 101.578 291.745 L 101.578 334.095 L 101.578 334.095 Z  M 35.253 331.436 L 99.05 331.436 L 99.05 293.685 L 35.253 293.685 L 35.253 331.436 Z  M 36.975 295.407 L 97.328 295.407 L 97.328 329.736 L 36.975 329.736 L 36.975 295.407 Z  M 67.162 293.162 C 68.339 293.162 69.298 292.203 69.298 291.026 C 69.298 289.849 68.339 288.89 67.162 288.89 C 65.985 288.89 65.026 289.849 65.026 291.026 C 65.026 292.203 65.985 293.162 67.162 293.162 Z  M 67.162 290.634 C 67.38 290.634 67.576 290.808 67.576 291.048 C 67.576 291.287 67.402 291.462 67.162 291.462 C 66.922 291.462 66.748 291.287 66.748 291.048 C 66.748 290.808 66.922 290.634 67.162 290.634 Z  M 67.162 332.111 C 65.833 332.111 64.743 333.201 64.743 334.531 C 64.743 335.86 65.833 336.95 67.162 336.95 C 68.492 336.95 69.581 335.86 69.581 334.531 C 69.56 333.179 68.492 332.111 67.162 332.111 Z  M 67.162 335.206 C 66.77 335.206 66.465 334.901 66.465 334.509 C 66.465 334.116 66.77 333.811 67.162 333.811 C 67.554 333.811 67.86 334.116 67.86 334.509 C 67.86 334.901 67.533 335.206 67.162 335.206 Z  M 24.398 344.339 C 24.398 345.668 25.488 346.758 26.818 346.758 C 28.147 346.758 29.237 345.668 29.237 344.339 C 29.237 343.009 28.147 341.919 26.818 341.919 C 25.466 341.941 24.398 343.009 24.398 344.339 Z  M 27.493 344.339 C 27.493 344.731 27.188 345.036 26.796 345.036 C 26.404 345.036 26.098 344.731 26.098 344.339 C 26.098 343.946 26.404 343.641 26.796 343.641 C 27.188 343.641 27.493 343.968 27.493 344.339 Z  M 39.895 283.899 L 39.895 278.711 L 12.977 278.711 L 12.977 288.824 L 28.234 288.824 L 28.234 287.103 L 14.699 287.103 L 14.699 280.433 L 38.173 280.433 L 38.173 283.899 L 39.895 283.899 L 39.895 283.899 Z " fill="rgb(0,0,0)"/><path d=" M 39.115 378.72 L 30.297 378.72 L 30.297 364.443 L 33.324 364.443 L 33.324 376.22 L 39.115 376.22 L 39.115 378.72 L 39.115 378.72 Z  M 43.734 373.242 L 43.734 373.242 L 43.734 373.242 Q 43.734 374.863 44.267 375.693 L 44.267 375.693 L 44.267 375.693 Q 44.799 376.523 46 376.523 L 46 376.523 L 46 376.523 Q 47.191 376.523 47.714 375.698 L 47.714 375.698 L 47.714 375.698 Q 48.236 374.872 48.236 373.242 L 48.236 373.242 L 48.236 373.242 Q 48.236 371.62 47.709 370.81 L 47.709 370.81 L 47.709 370.81 Q 47.182 369.999 45.98 369.999 L 45.98 369.999 L 45.98 369.999 Q 44.789 369.999 44.262 370.805 L 44.262 370.805 L 44.262 370.805 Q 43.734 371.611 43.734 373.242 Z  M 51.283 373.242 L 51.283 373.242 L 51.283 373.242 Q 51.283 375.908 49.877 377.412 L 49.877 377.412 L 49.877 377.412 Q 48.471 378.915 45.961 378.915 L 45.961 378.915 L 45.961 378.915 Q 44.389 378.915 43.188 378.227 L 43.188 378.227 L 43.188 378.227 Q 41.986 377.538 41.342 376.249 L 41.342 376.249 L 41.342 376.249 Q 40.697 374.96 40.697 373.242 L 40.697 373.242 L 40.697 373.242 Q 40.697 370.566 42.094 369.081 L 42.094 369.081 L 42.094 369.081 Q 43.49 367.597 46.02 367.597 L 46.02 367.597 L 46.02 367.597 Q 47.592 367.597 48.793 368.281 L 48.793 368.281 L 48.793 368.281 Q 49.994 368.964 50.639 370.244 L 50.639 370.244 L 50.639 370.244 Q 51.283 371.523 51.283 373.242 Z  M 58.178 378.915 L 58.178 378.915 L 58.178 378.915 Q 53.08 378.915 53.08 373.32 L 53.08 373.32 L 53.08 373.32 Q 53.08 370.537 54.467 369.067 L 54.467 369.067 L 54.467 369.067 Q 55.854 367.597 58.441 367.597 L 58.441 367.597 L 58.441 367.597 Q 60.336 367.597 61.84 368.339 L 61.84 368.339 L 60.961 370.644 L 60.961 370.644 Q 60.258 370.361 59.652 370.18 L 59.652 370.18 L 59.652 370.18 Q 59.047 369.999 58.441 369.999 L 58.441 369.999 L 58.441 369.999 Q 56.117 369.999 56.117 373.3 L 56.117 373.3 L 56.117 373.3 Q 56.117 376.503 58.441 376.503 L 58.441 376.503 L 58.441 376.503 Q 59.301 376.503 60.033 376.274 L 60.033 376.274 L 60.033 376.274 Q 60.766 376.044 61.498 375.556 L 61.498 375.556 L 61.498 378.105 L 61.498 378.105 Q 60.775 378.564 60.038 378.74 L 60.038 378.74 L 60.038 378.74 Q 59.301 378.915 58.178 378.915 Z  M 73.041 378.72 L 70.961 378.72 L 70.385 377.236 L 70.307 377.236 L 70.307 377.236 Q 69.555 378.183 68.759 378.549 L 68.759 378.549 L 68.759 378.549 Q 67.963 378.915 66.684 378.915 L 66.684 378.915 L 66.684 378.915 Q 65.111 378.915 64.208 378.017 L 64.208 378.017 L 64.208 378.017 Q 63.305 377.119 63.305 375.458 L 63.305 375.458 L 63.305 375.458 Q 63.305 373.72 64.521 372.895 L 64.521 372.895 L 64.521 372.895 Q 65.736 372.07 68.188 371.982 L 68.188 371.982 L 70.082 371.923 L 70.082 371.445 L 70.082 371.445 Q 70.082 369.785 68.383 369.785 L 68.383 369.785 L 68.383 369.785 Q 67.074 369.785 65.307 370.576 L 65.307 370.576 L 64.32 368.564 L 64.32 368.564 Q 66.205 367.578 68.5 367.578 L 68.5 367.578 L 68.5 367.578 Q 70.697 367.578 71.869 368.535 L 71.869 368.535 L 71.869 368.535 Q 73.041 369.492 73.041 371.445 L 73.041 371.445 L 73.041 378.72 L 73.041 378.72 Z  M 70.082 374.56 L 70.082 373.662 L 68.93 373.701 L 68.93 373.701 Q 67.631 373.74 66.996 374.169 L 66.996 374.169 L 66.996 374.169 Q 66.361 374.599 66.361 375.478 L 66.361 375.478 L 66.361 375.478 Q 66.361 376.738 67.807 376.738 L 67.807 376.738 L 67.807 376.738 Q 68.842 376.738 69.462 376.142 L 69.462 376.142 L 69.462 376.142 Q 70.082 375.546 70.082 374.56 L 70.082 374.56 L 70.082 374.56 Z  M 79.086 363.525 L 79.086 378.72 L 76.107 378.72 L 76.107 363.525 L 79.086 363.525 L 79.086 363.525 Z " fill-rule="evenodd" fill="rgb(0,0,0)"/></g><line x1="15" y1="182" x2="782.689" y2="182" vector-effect="non-scaling-stroke" stroke-width="3" stroke="rgb(0,0,0)" stroke-linejoin="miter" stroke-linecap="square" stroke-miterlimit="3"/></g></svg>