<?xml version="1.0" encoding="UTF-8" standalone="no"?><!-- Generator: Gravit.io --><svg xmlns="http://www.w3.org/2000/svg" xmlns:xlink="http://www.w3.org/1999/xlink" style="isolation:isolate" viewBox="0 0 800 400" width="800pt" height="400pt"><defs><clipPath id="_clipPath_emkJ7r5jzOsLDkjQDCRpJymOamqJQY9M"><rect width="800" height="400"/></clipPath></defs><g clip-path="url(#_clipPath_emkJ7r5jzOsLDkjQDCRpJymOamqJQY9M)"><rect width="800" height="400" style="fill:rgb(0,0,0)" fill-opacity="0"/><line x1="159.207" y1="277.207" x2="224.498" y2="277.207" vector-effect="non-scaling-stroke" stroke-width="2" stroke="rgb(0,0,0)" stroke-linejoin="miter" stroke-linecap="square" stroke-miterlimit="3"/><path d=" M 159.207 277.207 L 204.278 352.939 L 338 352.723" fill="none" vector-effect="non-scaling-stroke" stroke-width="2" stroke="rgb(0,0,0)" stroke-linejoin="miter" stroke-linecap="square" stroke-miterlimit="3"/><g><path d="M 150.549 209 L 298.448 209 C 303.935 209 308.391 213.455 308.391 218.943 L 308.391 236.057 C 308.391 241.545 303.935 246 298.448 246 L 150.549 246 C 145.061 246 140.606 241.545 140.606 236.057 L 140.606 218.943 C 140.606 213.455 145.061 209 150.549 209 Z" style="stroke:none;fill:#9FC4FF;stroke-miterlimit:10;"/><path d="M 150.549 209 L 298.448 209 C 303.935 209 308.391 213.455 308.391 218.943 L 308.391 236.057 C 308.391 241.545 303.935 246 298.448 246 L 150.549 246 C 145.061 246 140.606 241.545 140.606 236.057 L 140.606 218.943 C 140.606 213.455 145.061 209 150.549 209 Z" style="fill:none;stroke:#000000;stroke-width:1.7165048661891558;stroke-linecap:square;stroke-miterlimit:2;"/><path d=" M 157.887 229.28 L 157.887 229.28 L 157.887 229.28 Q 157.887 230.901 158.439 231.731 L 158.439 231.731 L 158.439 231.731 Q 158.991 232.562 160.236 232.562 L 160.236 232.562 L 160.236 232.562 Q 161.472 232.562 162.014 231.736 L 162.014 231.736 L 162.014 231.736 Q 162.556 230.911 162.556 229.28 L 162.556 229.28 L 162.556 229.28 Q 162.556 227.659 162.009 226.849 L 162.009 226.849 L 162.009 226.849 Q 161.462 226.038 160.216 226.038 L 160.216 226.038 L 160.216 226.038 Q 158.981 226.038 158.434 226.844 L 158.434 226.844 L 158.434 226.844 Q 157.887 227.649 157.887 229.28 Z  M 165.716 229.28 L 165.716 229.28 L 165.716 229.28 Q 165.716 231.946 164.257 233.45 L 164.257 233.45 L 164.257 233.45 Q 162.799 234.954 160.196 234.954 L 160.196 234.954 L 160.196 234.954 Q 158.565 234.954 157.32 234.266 L 157.32 234.266 L 157.32 234.266 Q 156.074 233.577 155.406 232.288 L 155.406 232.288 L 155.406 232.288 Q 154.737 230.999 154.737 229.28 L 154.737 229.28 L 154.737 229.28 Q 154.737 226.604 156.185 225.12 L 156.185 225.12 L 156.185 225.12 Q 157.634 223.636 160.257 223.636 L 160.257 223.636 L 160.257 223.636 Q 161.887 223.636 163.133 224.319 L 163.133 224.319 L 163.133 224.319 Q 164.379 225.003 165.047 226.282 L 165.047 226.282 L 165.047 226.282 Q 165.716 227.562 165.716 229.28 Z  M 174.588 223.636 L 174.588 223.636 L 174.588 223.636 Q 175.215 223.636 175.631 223.724 L 175.631 223.724 L 175.398 226.517 L 175.398 226.517 Q 175.023 226.419 174.486 226.419 L 174.486 226.419 L 174.486 226.419 Q 173.008 226.419 172.182 227.151 L 172.182 227.151 L 172.182 227.151 Q 171.357 227.884 171.357 229.202 L 171.357 229.202 L 171.357 234.759 L 168.268 234.759 L 168.268 223.841 L 170.607 223.841 L 171.063 225.677 L 171.215 225.677 L 171.215 225.677 Q 171.742 224.759 172.638 224.197 L 172.638 224.197 L 172.638 224.197 Q 173.534 223.636 174.588 223.636 Z  M 177.555 221.019 L 177.555 221.019 L 177.555 221.019 Q 177.555 219.563 179.236 219.563 L 179.236 219.563 L 179.236 219.563 Q 180.917 219.563 180.917 221.019 L 180.917 221.019 L 180.917 221.019 Q 180.917 221.712 180.497 222.098 L 180.497 222.098 L 180.497 222.098 Q 180.077 222.483 179.236 222.483 L 179.236 222.483 L 179.236 222.483 Q 177.555 222.483 177.555 221.019 Z  M 180.776 223.841 L 180.776 234.759 L 177.687 234.759 L 177.687 223.841 L 180.776 223.841 L 180.776 223.841 Z  M 189.921 223.841 L 193.871 223.841 L 193.871 225.354 L 192.099 225.794 L 192.099 225.794 Q 192.585 226.526 192.585 227.435 L 192.585 227.435 L 192.585 227.435 Q 192.585 229.192 191.314 230.174 L 191.314 230.174 L 191.314 230.174 Q 190.043 231.155 187.784 231.155 L 187.784 231.155 L 187.227 231.126 L 186.771 231.077 L 186.771 231.077 Q 186.295 231.429 186.295 231.858 L 186.295 231.858 L 186.295 231.858 Q 186.295 232.503 187.997 232.503 L 187.997 232.503 L 189.921 232.503 L 189.921 232.503 Q 191.785 232.503 192.762 233.274 L 192.762 233.274 L 192.762 233.274 Q 193.739 234.046 193.739 235.54 L 193.739 235.54 L 193.739 235.54 Q 193.739 237.454 192.083 238.509 L 192.083 238.509 L 192.083 238.509 Q 190.427 239.563 187.328 239.563 L 187.328 239.563 L 187.328 239.563 Q 184.958 239.563 183.708 238.768 L 183.708 238.768 L 183.708 238.768 Q 182.457 237.972 182.457 236.536 L 182.457 236.536 L 182.457 236.536 Q 182.457 235.55 183.095 234.886 L 183.095 234.886 L 183.095 234.886 Q 183.733 234.222 184.969 233.938 L 184.969 233.938 L 184.969 233.938 Q 184.493 233.743 184.138 233.299 L 184.138 233.299 L 184.138 233.299 Q 183.784 232.854 183.784 232.356 L 183.784 232.356 L 183.784 232.356 Q 183.784 231.731 184.158 231.316 L 184.158 231.316 L 184.158 231.316 Q 184.533 230.901 185.242 230.501 L 185.242 230.501 L 185.242 230.501 Q 184.351 230.13 183.829 229.31 L 183.829 229.31 L 183.829 229.31 Q 183.308 228.489 183.308 227.376 L 183.308 227.376 L 183.308 227.376 Q 183.308 225.589 184.513 224.612 L 184.513 224.612 L 184.513 224.612 Q 185.718 223.636 187.956 223.636 L 187.956 223.636 L 187.956 223.636 Q 188.432 223.636 189.085 223.719 L 189.085 223.719 L 189.085 223.719 Q 189.739 223.802 189.921 223.841 L 189.921 223.841 L 189.921 223.841 Z  M 185.131 236.302 L 185.131 236.302 L 185.131 236.302 Q 185.131 236.917 185.743 237.269 L 185.743 237.269 L 185.743 237.269 Q 186.356 237.62 187.46 237.62 L 187.46 237.62 L 187.46 237.62 Q 189.121 237.62 190.063 237.181 L 190.063 237.181 L 190.063 237.181 Q 191.005 236.741 191.005 235.979 L 191.005 235.979 L 191.005 235.979 Q 191.005 235.364 190.448 235.13 L 190.448 235.13 L 190.448 235.13 Q 189.891 234.896 188.726 234.896 L 188.726 234.896 L 187.126 234.896 L 187.126 234.896 Q 186.275 234.896 185.703 235.281 L 185.703 235.281 L 185.703 235.281 Q 185.131 235.667 185.131 236.302 Z  M 186.255 227.415 L 186.255 227.415 L 186.255 227.415 Q 186.255 228.304 186.675 228.821 L 186.675 228.821 L 186.675 228.821 Q 187.095 229.339 187.956 229.339 L 187.956 229.339 L 187.956 229.339 Q 188.827 229.339 189.232 228.821 L 189.232 228.821 L 189.232 228.821 Q 189.637 228.304 189.637 227.415 L 189.637 227.415 L 189.637 227.415 Q 189.637 225.442 187.956 225.442 L 187.956 225.442 L 187.956 225.442 Q 186.255 225.442 186.255 227.415 Z  M 195.603 221.019 L 195.603 221.019 L 195.603 221.019 Q 195.603 219.563 197.284 219.563 L 197.284 219.563 L 197.284 219.563 Q 198.965 219.563 198.965 221.019 L 198.965 221.019 L 198.965 221.019 Q 198.965 221.712 198.545 222.098 L 198.545 222.098 L 198.545 222.098 Q 198.125 222.483 197.284 222.483 L 197.284 222.483 L 197.284 222.483 Q 195.603 222.483 195.603 221.019 Z  M 198.823 223.841 L 198.823 234.759 L 195.734 234.759 L 195.734 223.841 L 198.823 223.841 L 198.823 223.841 Z  M 212.516 227.64 L 212.516 234.759 L 209.427 234.759 L 209.427 228.382 L 209.427 228.382 Q 209.427 227.2 208.992 226.609 L 208.992 226.609 L 208.992 226.609 Q 208.556 226.019 207.604 226.019 L 207.604 226.019 L 207.604 226.019 Q 206.308 226.019 205.731 226.854 L 205.731 226.854 L 205.731 226.854 Q 205.153 227.688 205.153 229.622 L 205.153 229.622 L 205.153 234.759 L 202.064 234.759 L 202.064 223.841 L 204.424 223.841 L 204.839 225.237 L 205.011 225.237 L 205.011 225.237 Q 205.528 224.446 206.434 224.041 L 206.434 224.041 L 206.434 224.041 Q 207.341 223.636 208.495 223.636 L 208.495 223.636 L 208.495 223.636 Q 210.47 223.636 211.493 224.666 L 211.493 224.666 L 211.493 224.666 Q 212.516 225.696 212.516 227.64 L 212.516 227.64 L 212.516 227.64 Z  M 219.737 220.481 L 222.543 220.481 L 217.023 234.759 L 214.218 234.759 L 219.737 220.481 L 219.737 220.481 Z  M 234.402 229.28 L 234.402 234.759 L 231.313 234.759 L 231.313 228.382 L 231.313 228.382 Q 231.313 227.2 230.903 226.609 L 230.903 226.609 L 230.903 226.609 Q 230.493 226.019 229.612 226.019 L 229.612 226.019 L 229.612 226.019 Q 228.427 226.019 227.89 226.858 L 227.89 226.858 L 227.89 226.858 Q 227.353 227.698 227.353 229.622 L 227.353 229.622 L 227.353 234.759 L 224.264 234.759 L 224.264 223.841 L 226.624 223.841 L 227.039 225.237 L 227.212 225.237 L 227.212 225.237 Q 227.667 224.485 228.528 224.061 L 228.528 224.061 L 228.528 224.061 Q 229.389 223.636 230.503 223.636 L 230.503 223.636 L 230.503 223.636 Q 233.045 223.636 233.947 225.237 L 233.947 225.237 L 234.22 225.237 L 234.22 225.237 Q 234.676 224.476 235.562 224.056 L 235.562 224.056 L 235.562 224.056 Q 236.448 223.636 237.562 223.636 L 237.562 223.636 L 237.562 223.636 Q 239.486 223.636 240.474 224.588 L 240.474 224.588 L 240.474 224.588 Q 241.461 225.54 241.461 227.64 L 241.461 227.64 L 241.461 234.759 L 238.362 234.759 L 238.362 228.382 L 238.362 228.382 Q 238.362 227.2 237.952 226.609 L 237.952 226.609 L 237.952 226.609 Q 237.542 226.019 236.661 226.019 L 236.661 226.019 L 236.661 226.019 Q 235.526 226.019 234.964 226.8 L 234.964 226.8 L 234.964 226.8 Q 234.402 227.581 234.402 229.28 L 234.402 229.28 L 234.402 229.28 Z  M 253.979 234.759 L 251.822 234.759 L 251.225 233.274 L 251.144 233.274 L 251.144 233.274 Q 250.364 234.222 249.538 234.588 L 249.538 234.588 L 249.538 234.588 Q 248.713 234.954 247.386 234.954 L 247.386 234.954 L 247.386 234.954 Q 245.756 234.954 244.819 234.056 L 244.819 234.056 L 244.819 234.056 Q 243.882 233.157 243.882 231.497 L 243.882 231.497 L 243.882 231.497 Q 243.882 229.759 245.143 228.934 L 245.143 228.934 L 245.143 228.934 Q 246.404 228.108 248.946 228.021 L 248.946 228.021 L 250.911 227.962 L 250.911 227.483 L 250.911 227.483 Q 250.911 225.823 249.148 225.823 L 249.148 225.823 L 249.148 225.823 Q 247.791 225.823 245.958 226.614 L 245.958 226.614 L 244.935 224.603 L 244.935 224.603 Q 246.89 223.616 249.27 223.616 L 249.27 223.616 L 249.27 223.616 Q 251.549 223.616 252.764 224.573 L 252.764 224.573 L 252.764 224.573 Q 253.979 225.53 253.979 227.483 L 253.979 227.483 L 253.979 234.759 L 253.979 234.759 Z  M 250.911 230.599 L 250.911 229.7 L 249.716 229.739 L 249.716 229.739 Q 248.369 229.778 247.71 230.208 L 247.71 230.208 L 247.71 230.208 Q 247.052 230.638 247.052 231.517 L 247.052 231.517 L 247.052 231.517 Q 247.052 232.776 248.551 232.776 L 248.551 232.776 L 248.551 232.776 Q 249.624 232.776 250.268 232.181 L 250.268 232.181 L 250.268 232.181 Q 250.911 231.585 250.911 230.599 L 250.911 230.599 L 250.911 230.599 Z  M 265.059 231.517 L 265.059 231.517 L 265.059 231.517 Q 265.059 233.196 263.849 234.075 L 263.849 234.075 L 263.849 234.075 Q 262.639 234.954 260.228 234.954 L 260.228 234.954 L 260.228 234.954 Q 258.993 234.954 258.122 234.793 L 258.122 234.793 L 258.122 234.793 Q 257.251 234.632 256.491 234.319 L 256.491 234.319 L 256.491 231.858 L 256.491 231.858 Q 257.352 232.249 258.431 232.513 L 258.431 232.513 L 258.431 232.513 Q 259.509 232.776 260.329 232.776 L 260.329 232.776 L 260.329 232.776 Q 262.011 232.776 262.011 231.839 L 262.011 231.839 L 262.011 231.839 Q 262.011 231.487 261.788 231.268 L 261.788 231.268 L 261.788 231.268 Q 261.565 231.048 261.018 230.77 L 261.018 230.77 L 261.018 230.77 Q 260.471 230.491 259.56 230.12 L 259.56 230.12 L 259.56 230.12 Q 258.253 229.593 257.641 229.144 L 257.641 229.144 L 257.641 229.144 Q 257.028 228.694 256.749 228.113 L 256.749 228.113 L 256.749 228.113 Q 256.471 227.532 256.471 226.683 L 256.471 226.683 L 256.471 226.683 Q 256.471 225.228 257.641 224.432 L 257.641 224.432 L 257.641 224.432 Q 258.81 223.636 260.957 223.636 L 260.957 223.636 L 260.957 223.636 Q 263.003 223.636 264.938 224.495 L 264.938 224.495 L 264.006 226.644 L 264.006 226.644 Q 263.155 226.292 262.416 226.067 L 262.416 226.067 L 262.416 226.067 Q 261.676 225.843 260.907 225.843 L 260.907 225.843 L 260.907 225.843 Q 259.54 225.843 259.54 226.556 L 259.54 226.556 L 259.54 226.556 Q 259.54 226.956 259.98 227.249 L 259.98 227.249 L 259.98 227.249 Q 260.421 227.542 261.909 228.118 L 261.909 228.118 L 261.909 228.118 Q 263.236 228.636 263.854 229.085 L 263.854 229.085 L 263.854 229.085 Q 264.472 229.534 264.765 230.12 L 264.765 230.12 L 264.765 230.12 Q 265.059 230.706 265.059 231.517 Z  M 272.24 232.581 L 272.24 232.581 L 272.24 232.581 Q 273.05 232.581 274.184 232.239 L 274.184 232.239 L 274.184 234.456 L 274.184 234.456 Q 273.03 234.954 271.349 234.954 L 271.349 234.954 L 271.349 234.954 Q 269.495 234.954 268.649 234.051 L 268.649 234.051 L 268.649 234.051 Q 267.804 233.147 267.804 231.341 L 267.804 231.341 L 267.804 226.077 L 266.325 226.077 L 266.325 224.817 L 268.027 223.821 L 268.918 221.517 L 270.893 221.517 L 270.893 223.841 L 274.063 223.841 L 274.063 226.077 L 270.893 226.077 L 270.893 231.341 L 270.893 231.341 Q 270.893 231.976 271.262 232.278 L 271.262 232.278 L 271.262 232.278 Q 271.632 232.581 272.24 232.581 Z  M 281.162 225.755 L 281.162 225.755 L 281.162 225.755 Q 280.18 225.755 279.623 226.355 L 279.623 226.355 L 279.623 226.355 Q 279.066 226.956 278.985 228.06 L 278.985 228.06 L 283.32 228.06 L 283.32 228.06 Q 283.299 226.956 282.722 226.355 L 282.722 226.355 L 282.722 226.355 Q 282.145 225.755 281.162 225.755 Z  M 281.598 234.954 L 281.598 234.954 L 281.598 234.954 Q 278.863 234.954 277.324 233.499 L 277.324 233.499 L 277.324 233.499 Q 275.784 232.044 275.784 229.378 L 275.784 229.378 L 275.784 229.378 Q 275.784 226.634 277.207 225.135 L 277.207 225.135 L 277.207 225.135 Q 278.63 223.636 281.142 223.636 L 281.142 223.636 L 281.142 223.636 Q 283.542 223.636 284.879 224.954 L 284.879 224.954 L 284.879 224.954 Q 286.216 226.272 286.216 228.597 L 286.216 228.597 L 286.216 230.042 L 278.914 230.042 L 278.914 230.042 Q 278.965 231.312 279.694 232.024 L 279.694 232.024 L 279.694 232.024 Q 280.423 232.737 281.74 232.737 L 281.74 232.737 L 281.74 232.737 Q 282.763 232.737 283.674 232.532 L 283.674 232.532 L 283.674 232.532 Q 284.586 232.327 285.578 231.878 L 285.578 231.878 L 285.578 234.183 L 285.578 234.183 Q 284.768 234.573 283.846 234.764 L 283.846 234.764 L 283.846 234.764 Q 282.925 234.954 281.598 234.954 Z  M 295.048 223.636 L 295.048 223.636 L 295.048 223.636 Q 295.675 223.636 296.091 223.724 L 296.091 223.724 L 295.858 226.517 L 295.858 226.517 Q 295.483 226.419 294.946 226.419 L 294.946 226.419 L 294.946 226.419 Q 293.468 226.419 292.642 227.151 L 292.642 227.151 L 292.642 227.151 Q 291.817 227.884 291.817 229.202 L 291.817 229.202 L 291.817 234.759 L 288.728 234.759 L 288.728 223.841 L 291.067 223.841 L 291.523 225.677 L 291.675 225.677 L 291.675 225.677 Q 292.202 224.759 293.098 224.197 L 293.098 224.197 L 293.098 224.197 Q 293.994 223.636 295.048 223.636 Z " fill="rgb(0,0,0)"/></g><g><circle vector-effect="non-scaling-stroke" cx="159.2073210517994" cy="277.20732105179945" r="22.207321051799426" fill="rgb(195,215,247)" stroke-width="2" stroke="rgb(0,0,0)" stroke-linejoin="miter" stroke-linecap="square" stroke-miterlimit="3"/><path d=" M 160.639 269.467 L 160.639 286.53 L 157.346 286.53 L 157.346 273.44 L 153.033 274.987 L 153.033 272.151 L 160.463 269.467 L 160.639 269.467 L 160.639 269.467 Z " fill="rgb(0,0,0)"/></g><g><circle vector-effect="non-scaling-stroke" cx="222.4146421035988" cy="277.20732105179945" r="22.207321051799426" fill="rgb(195,215,247)" stroke-width="2" stroke="rgb(0,0,0)" stroke-linejoin="miter" stroke-linecap="square" stroke-miterlimit="3"/><path d=" M 227.022 283.916 L 227.022 286.53 L 215.385 286.53 L 215.385 284.303 L 220.905 278.373 L 220.905 278.373 Q 221.549 277.67 221.995 277.096 L 221.995 277.096 L 221.995 277.096 Q 222.44 276.522 222.715 276.047 L 222.715 276.047 L 222.715 276.047 Q 222.991 275.573 223.114 275.162 L 223.114 275.162 L 223.114 275.162 Q 223.237 274.752 223.237 274.366 L 223.237 274.366 L 223.237 274.366 Q 223.237 273.791 223.073 273.346 L 223.073 273.346 L 223.073 273.346 Q 222.909 272.901 222.61 272.59 L 222.61 272.59 L 222.61 272.59 Q 222.311 272.28 221.895 272.116 L 221.895 272.116 L 221.895 272.116 Q 221.479 271.951 220.975 271.951 L 220.975 271.951 L 220.975 271.951 Q 219.628 271.951 218.965 272.701 L 218.965 272.701 L 218.965 272.701 Q 218.303 273.451 218.303 274.799 L 218.303 274.799 L 215.034 274.799 L 215.034 274.799 Q 215.034 273.662 215.467 272.649 L 215.467 272.649 L 215.467 272.649 Q 215.901 271.635 216.692 270.873 L 216.692 270.873 L 216.692 270.873 Q 217.483 270.112 218.602 269.672 L 218.602 269.672 L 218.602 269.672 Q 219.721 269.233 221.081 269.233 L 221.081 269.233 L 221.081 269.233 Q 222.381 269.233 223.383 269.596 L 223.383 269.596 L 223.383 269.596 Q 224.385 269.959 225.059 270.616 L 225.059 270.616 L 225.059 270.616 Q 225.733 271.272 226.085 272.192 L 226.085 272.192 L 226.085 272.192 Q 226.436 273.112 226.436 274.225 L 226.436 274.225 L 226.436 274.225 Q 226.436 275.069 226.172 275.836 L 226.172 275.836 L 226.172 275.836 Q 225.909 276.604 225.422 277.354 L 225.422 277.354 L 225.422 277.354 Q 224.936 278.104 224.256 278.883 L 224.256 278.883 L 224.256 278.883 Q 223.577 279.662 222.745 280.518 L 222.745 280.518 L 219.534 283.916 L 227.022 283.916 L 227.022 283.916 Z " fill="rgb(0,0,0)"/></g><g><path d="M 297.426 288.793 L 382.074 288.793 C 386.31 288.793 389.75 292.232 389.75 296.469 L 389.75 318.117 C 389.75 322.353 386.31 325.793 382.074 325.793 L 297.426 325.793 C 293.19 325.793 289.75 322.353 289.75 318.117 L 289.75 296.469 C 289.75 292.232 293.19 288.793 297.426 288.793 Z" style="stroke:none;fill:#9FC4FF;stroke-linecap:square;stroke-miterlimit:2;"/><path d="M 297.426 288.793 L 382.074 288.793 C 386.31 288.793 389.75 292.232 389.75 296.469 L 389.75 318.117 C 389.75 322.353 386.31 325.793 382.074 325.793 L 297.426 325.793 C 293.19 325.793 289.75 322.353 289.75 318.117 L 289.75 296.469 C 289.75 292.232 293.19 288.793 297.426 288.793 Z" style="fill:none;stroke:#000000;stroke-width:1.6855342301554246;stroke-linecap:square;stroke-miterlimit:2;"/><path d=" M 315.968 310.175 L 315.968 315.653 L 312.989 315.653 L 312.989 309.276 L 312.989 309.276 Q 312.989 308.095 312.594 307.504 L 312.594 307.504 L 312.594 307.504 Q 312.198 306.913 311.349 306.913 L 311.349 306.913 L 311.349 306.913 Q 310.206 306.913 309.688 307.753 L 309.688 307.753 L 309.688 307.753 Q 309.171 308.593 309.171 310.517 L 309.171 310.517 L 309.171 315.653 L 306.192 315.653 L 306.192 304.735 L 308.468 304.735 L 308.868 306.132 L 309.034 306.132 L 309.034 306.132 Q 309.474 305.38 310.304 304.955 L 310.304 304.955 L 310.304 304.955 Q 311.134 304.53 312.208 304.53 L 312.208 304.53 L 312.208 304.53 Q 314.659 304.53 315.528 306.132 L 315.528 306.132 L 315.792 306.132 L 315.792 306.132 Q 316.231 305.37 317.086 304.95 L 317.086 304.95 L 317.086 304.95 Q 317.94 304.53 319.015 304.53 L 319.015 304.53 L 319.015 304.53 Q 320.87 304.53 321.822 305.482 L 321.822 305.482 L 321.822 305.482 Q 322.774 306.434 322.774 308.534 L 322.774 308.534 L 322.774 315.653 L 319.786 315.653 L 319.786 309.276 L 319.786 309.276 Q 319.786 308.095 319.391 307.504 L 319.391 307.504 L 319.391 307.504 Q 318.995 306.913 318.146 306.913 L 318.146 306.913 L 318.146 306.913 Q 317.052 306.913 316.51 307.694 L 316.51 307.694 L 316.51 307.694 Q 315.968 308.475 315.968 310.175 L 315.968 310.175 L 315.968 310.175 Z  M 334.845 315.653 L 332.765 315.653 L 332.188 314.169 L 332.11 314.169 L 332.11 314.169 Q 331.358 315.116 330.562 315.482 L 330.562 315.482 L 330.562 315.482 Q 329.767 315.849 328.487 315.849 L 328.487 315.849 L 328.487 315.849 Q 326.915 315.849 326.012 314.95 L 326.012 314.95 L 326.012 314.95 Q 325.108 314.052 325.108 312.392 L 325.108 312.392 L 325.108 312.392 Q 325.108 310.653 326.324 309.828 L 326.324 309.828 L 326.324 309.828 Q 327.54 309.003 329.991 308.915 L 329.991 308.915 L 331.886 308.856 L 331.886 308.378 L 331.886 308.378 Q 331.886 306.718 330.187 306.718 L 330.187 306.718 L 330.187 306.718 Q 328.878 306.718 327.11 307.509 L 327.11 307.509 L 326.124 305.497 L 326.124 305.497 Q 328.009 304.511 330.304 304.511 L 330.304 304.511 L 330.304 304.511 Q 332.501 304.511 333.673 305.468 L 333.673 305.468 L 333.673 305.468 Q 334.845 306.425 334.845 308.378 L 334.845 308.378 L 334.845 315.653 L 334.845 315.653 Z  M 331.886 311.493 L 331.886 310.595 L 330.733 310.634 L 330.733 310.634 Q 329.435 310.673 328.8 311.102 L 328.8 311.102 L 328.8 311.102 Q 328.165 311.532 328.165 312.411 L 328.165 312.411 L 328.165 312.411 Q 328.165 313.671 329.61 313.671 L 329.61 313.671 L 329.61 313.671 Q 330.646 313.671 331.266 313.075 L 331.266 313.075 L 331.266 313.075 Q 331.886 312.479 331.886 311.493 L 331.886 311.493 L 331.886 311.493 Z  M 345.528 312.411 L 345.528 312.411 L 345.528 312.411 Q 345.528 314.091 344.361 314.97 L 344.361 314.97 L 344.361 314.97 Q 343.194 315.849 340.87 315.849 L 340.87 315.849 L 340.87 315.849 Q 339.679 315.849 338.839 315.687 L 338.839 315.687 L 338.839 315.687 Q 337.999 315.526 337.267 315.214 L 337.267 315.214 L 337.267 312.753 L 337.267 312.753 Q 338.097 313.143 339.137 313.407 L 339.137 313.407 L 339.137 313.407 Q 340.177 313.671 340.968 313.671 L 340.968 313.671 L 340.968 313.671 Q 342.589 313.671 342.589 312.733 L 342.589 312.733 L 342.589 312.733 Q 342.589 312.382 342.374 312.162 L 342.374 312.162 L 342.374 312.162 Q 342.159 311.942 341.632 311.664 L 341.632 311.664 L 341.632 311.664 Q 341.104 311.386 340.226 311.015 L 340.226 311.015 L 340.226 311.015 Q 338.966 310.487 338.375 310.038 L 338.375 310.038 L 338.375 310.038 Q 337.784 309.589 337.516 309.008 L 337.516 309.008 L 337.516 309.008 Q 337.247 308.427 337.247 307.577 L 337.247 307.577 L 337.247 307.577 Q 337.247 306.122 338.375 305.326 L 338.375 305.326 L 338.375 305.326 Q 339.503 304.53 341.573 304.53 L 341.573 304.53 L 341.573 304.53 Q 343.546 304.53 345.411 305.39 L 345.411 305.39 L 344.513 307.538 L 344.513 307.538 Q 343.692 307.186 342.979 306.962 L 342.979 306.962 L 342.979 306.962 Q 342.267 306.737 341.524 306.737 L 341.524 306.737 L 341.524 306.737 Q 340.206 306.737 340.206 307.45 L 340.206 307.45 L 340.206 307.45 Q 340.206 307.85 340.631 308.143 L 340.631 308.143 L 340.631 308.143 Q 341.056 308.436 342.491 309.013 L 342.491 309.013 L 342.491 309.013 Q 343.771 309.53 344.366 309.979 L 344.366 309.979 L 344.366 309.979 Q 344.962 310.429 345.245 311.015 L 345.245 311.015 L 345.245 311.015 Q 345.528 311.6 345.528 312.411 Z  M 352.452 313.475 L 352.452 313.475 L 352.452 313.475 Q 353.233 313.475 354.327 313.134 L 354.327 313.134 L 354.327 315.35 L 354.327 315.35 Q 353.214 315.849 351.593 315.849 L 351.593 315.849 L 351.593 315.849 Q 349.806 315.849 348.99 314.945 L 348.99 314.945 L 348.99 314.945 Q 348.175 314.042 348.175 312.235 L 348.175 312.235 L 348.175 306.972 L 346.749 306.972 L 346.749 305.712 L 348.39 304.716 L 349.249 302.411 L 351.153 302.411 L 351.153 304.735 L 354.21 304.735 L 354.21 306.972 L 351.153 306.972 L 351.153 312.235 L 351.153 312.235 Q 351.153 312.87 351.51 313.173 L 351.51 313.173 L 351.51 313.173 Q 351.866 313.475 352.452 313.475 Z  M 361.056 306.649 L 361.056 306.649 L 361.056 306.649 Q 360.108 306.649 359.571 307.25 L 359.571 307.25 L 359.571 307.25 Q 359.034 307.85 358.956 308.954 L 358.956 308.954 L 363.136 308.954 L 363.136 308.954 Q 363.116 307.85 362.56 307.25 L 362.56 307.25 L 362.56 307.25 Q 362.003 306.649 361.056 306.649 Z  M 361.476 315.849 L 361.476 315.849 L 361.476 315.849 Q 358.839 315.849 357.354 314.393 L 357.354 314.393 L 357.354 314.393 Q 355.87 312.938 355.87 310.272 L 355.87 310.272 L 355.87 310.272 Q 355.87 307.528 357.242 306.029 L 357.242 306.029 L 357.242 306.029 Q 358.614 304.53 361.036 304.53 L 361.036 304.53 L 361.036 304.53 Q 363.351 304.53 364.64 305.849 L 364.64 305.849 L 364.64 305.849 Q 365.929 307.167 365.929 309.491 L 365.929 309.491 L 365.929 310.936 L 358.888 310.936 L 358.888 310.936 Q 358.937 312.206 359.64 312.919 L 359.64 312.919 L 359.64 312.919 Q 360.343 313.632 361.612 313.632 L 361.612 313.632 L 361.612 313.632 Q 362.599 313.632 363.478 313.427 L 363.478 313.427 L 363.478 313.427 Q 364.356 313.222 365.313 312.772 L 365.313 312.772 L 365.313 315.077 L 365.313 315.077 Q 364.532 315.468 363.644 315.658 L 363.644 315.658 L 363.644 315.658 Q 362.755 315.849 361.476 315.849 Z  M 374.444 304.53 L 374.444 304.53 L 374.444 304.53 Q 375.05 304.53 375.45 304.618 L 375.45 304.618 L 375.226 307.411 L 375.226 307.411 Q 374.864 307.313 374.347 307.313 L 374.347 307.313 L 374.347 307.313 Q 372.921 307.313 372.125 308.046 L 372.125 308.046 L 372.125 308.046 Q 371.329 308.778 371.329 310.097 L 371.329 310.097 L 371.329 315.653 L 368.351 315.653 L 368.351 304.735 L 370.606 304.735 L 371.046 306.571 L 371.192 306.571 L 371.192 306.571 Q 371.7 305.653 372.564 305.092 L 372.564 305.092 L 372.564 305.092 Q 373.429 304.53 374.444 304.53 Z " fill="rgb(0,0,0)"/></g><g><path d="M 212.948 33 L 297.596 33 C 301.833 33 305.272 36.44 305.272 40.676 L 305.272 62.324 C 305.272 66.56 301.833 70 297.596 70 L 212.948 70 C 208.712 70 205.272 66.56 205.272 62.324 L 205.272 40.676 C 205.272 36.44 208.712 33 212.948 33 Z" style="stroke:none;fill:#9FC4FF;stroke-linecap:square;stroke-miterlimit:2;"/><path d="M 212.948 33 L 297.596 33 C 301.833 33 305.272 36.44 305.272 40.676 L 305.272 62.324 C 305.272 66.56 301.833 70 297.596 70 L 212.948 70 C 208.712 70 205.272 66.56 205.272 62.324 L 205.272 40.676 C 205.272 36.44 208.712 33 212.948 33 Z" style="fill:none;stroke:#000000;stroke-width:1.6855342301554246;stroke-linecap:square;stroke-miterlimit:2;"/><path d=" M 231.49 54.382 L 231.49 59.861 L 228.512 59.861 L 228.512 53.484 L 228.512 53.484 Q 228.512 52.302 228.116 51.711 L 228.116 51.711 L 228.116 51.711 Q 227.721 51.12 226.871 51.12 L 226.871 51.12 L 226.871 51.12 Q 225.728 51.12 225.211 51.96 L 225.211 51.96 L 225.211 51.96 Q 224.693 52.8 224.693 54.724 L 224.693 54.724 L 224.693 59.861 L 221.715 59.861 L 221.715 48.943 L 223.99 48.943 L 224.391 50.339 L 224.557 50.339 L 224.557 50.339 Q 224.996 49.587 225.826 49.162 L 225.826 49.162 L 225.826 49.162 Q 226.656 48.738 227.73 48.738 L 227.73 48.738 L 227.73 48.738 Q 230.182 48.738 231.051 50.339 L 231.051 50.339 L 231.314 50.339 L 231.314 50.339 Q 231.754 49.577 232.608 49.157 L 232.608 49.157 L 232.608 49.157 Q 233.463 48.738 234.537 48.738 L 234.537 48.738 L 234.537 48.738 Q 236.392 48.738 237.345 49.69 L 237.345 49.69 L 237.345 49.69 Q 238.297 50.642 238.297 52.741 L 238.297 52.741 L 238.297 59.861 L 235.309 59.861 L 235.309 53.484 L 235.309 53.484 Q 235.309 52.302 234.913 51.711 L 234.913 51.711 L 234.913 51.711 Q 234.517 51.12 233.668 51.12 L 233.668 51.12 L 233.668 51.12 Q 232.574 51.12 232.032 51.902 L 232.032 51.902 L 232.032 51.902 Q 231.49 52.683 231.49 54.382 L 231.49 54.382 L 231.49 54.382 Z  M 250.367 59.861 L 248.287 59.861 L 247.711 58.376 L 247.633 58.376 L 247.633 58.376 Q 246.881 59.323 246.085 59.69 L 246.085 59.69 L 246.085 59.69 Q 245.289 60.056 244.01 60.056 L 244.01 60.056 L 244.01 60.056 Q 242.437 60.056 241.534 59.157 L 241.534 59.157 L 241.534 59.157 Q 240.631 58.259 240.631 56.599 L 240.631 56.599 L 240.631 56.599 Q 240.631 54.861 241.847 54.035 L 241.847 54.035 L 241.847 54.035 Q 243.062 53.21 245.514 53.122 L 245.514 53.122 L 247.408 53.064 L 247.408 52.585 L 247.408 52.585 Q 247.408 50.925 245.709 50.925 L 245.709 50.925 L 245.709 50.925 Q 244.4 50.925 242.633 51.716 L 242.633 51.716 L 241.646 49.704 L 241.646 49.704 Q 243.531 48.718 245.826 48.718 L 245.826 48.718 L 245.826 48.718 Q 248.023 48.718 249.195 49.675 L 249.195 49.675 L 249.195 49.675 Q 250.367 50.632 250.367 52.585 L 250.367 52.585 L 250.367 59.861 L 250.367 59.861 Z  M 247.408 55.7 L 247.408 54.802 L 246.256 54.841 L 246.256 54.841 Q 244.957 54.88 244.322 55.31 L 244.322 55.31 L 244.322 55.31 Q 243.687 55.739 243.687 56.618 L 243.687 56.618 L 243.687 56.618 Q 243.687 57.878 245.133 57.878 L 245.133 57.878 L 245.133 57.878 Q 246.168 57.878 246.788 57.282 L 246.788 57.282 L 246.788 57.282 Q 247.408 56.687 247.408 55.7 L 247.408 55.7 L 247.408 55.7 Z  M 261.051 56.618 L 261.051 56.618 L 261.051 56.618 Q 261.051 58.298 259.884 59.177 L 259.884 59.177 L 259.884 59.177 Q 258.717 60.056 256.392 60.056 L 256.392 60.056 L 256.392 60.056 Q 255.201 60.056 254.361 59.895 L 254.361 59.895 L 254.361 59.895 Q 253.521 59.734 252.789 59.421 L 252.789 59.421 L 252.789 56.96 L 252.789 56.96 Q 253.619 57.351 254.659 57.614 L 254.659 57.614 L 254.659 57.614 Q 255.699 57.878 256.49 57.878 L 256.49 57.878 L 256.49 57.878 Q 258.111 57.878 258.111 56.941 L 258.111 56.941 L 258.111 56.941 Q 258.111 56.589 257.896 56.369 L 257.896 56.369 L 257.896 56.369 Q 257.682 56.15 257.154 55.871 L 257.154 55.871 L 257.154 55.871 Q 256.627 55.593 255.748 55.222 L 255.748 55.222 L 255.748 55.222 Q 254.488 54.695 253.897 54.245 L 253.897 54.245 L 253.897 54.245 Q 253.307 53.796 253.038 53.215 L 253.038 53.215 L 253.038 53.215 Q 252.769 52.634 252.769 51.784 L 252.769 51.784 L 252.769 51.784 Q 252.769 50.329 253.897 49.533 L 253.897 49.533 L 253.897 49.533 Q 255.025 48.738 257.096 48.738 L 257.096 48.738 L 257.096 48.738 Q 259.068 48.738 260.934 49.597 L 260.934 49.597 L 260.035 51.745 L 260.035 51.745 Q 259.215 51.394 258.502 51.169 L 258.502 51.169 L 258.502 51.169 Q 257.789 50.945 257.047 50.945 L 257.047 50.945 L 257.047 50.945 Q 255.728 50.945 255.728 51.657 L 255.728 51.657 L 255.728 51.657 Q 255.728 52.058 256.153 52.351 L 256.153 52.351 L 256.153 52.351 Q 256.578 52.644 258.014 53.22 L 258.014 53.22 L 258.014 53.22 Q 259.293 53.738 259.889 54.187 L 259.889 54.187 L 259.889 54.187 Q 260.484 54.636 260.767 55.222 L 260.767 55.222 L 260.767 55.222 Q 261.051 55.808 261.051 56.618 Z  M 267.975 57.683 L 267.975 57.683 L 267.975 57.683 Q 268.756 57.683 269.85 57.341 L 269.85 57.341 L 269.85 59.558 L 269.85 59.558 Q 268.736 60.056 267.115 60.056 L 267.115 60.056 L 267.115 60.056 Q 265.328 60.056 264.513 59.153 L 264.513 59.153 L 264.513 59.153 Q 263.697 58.249 263.697 56.443 L 263.697 56.443 L 263.697 51.179 L 262.271 51.179 L 262.271 49.919 L 263.912 48.923 L 264.771 46.618 L 266.676 46.618 L 266.676 48.943 L 269.732 48.943 L 269.732 51.179 L 266.676 51.179 L 266.676 56.443 L 266.676 56.443 Q 266.676 57.077 267.032 57.38 L 267.032 57.38 L 267.032 57.38 Q 267.389 57.683 267.975 57.683 Z  M 276.578 50.857 L 276.578 50.857 L 276.578 50.857 Q 275.631 50.857 275.094 51.457 L 275.094 51.457 L 275.094 51.457 Q 274.557 52.058 274.478 53.161 L 274.478 53.161 L 278.658 53.161 L 278.658 53.161 Q 278.639 52.058 278.082 51.457 L 278.082 51.457 L 278.082 51.457 Q 277.525 50.857 276.578 50.857 Z  M 276.998 60.056 L 276.998 60.056 L 276.998 60.056 Q 274.361 60.056 272.877 58.601 L 272.877 58.601 L 272.877 58.601 Q 271.392 57.146 271.392 54.48 L 271.392 54.48 L 271.392 54.48 Q 271.392 51.736 272.765 50.237 L 272.765 50.237 L 272.765 50.237 Q 274.137 48.738 276.559 48.738 L 276.559 48.738 L 276.559 48.738 Q 278.873 48.738 280.162 50.056 L 280.162 50.056 L 280.162 50.056 Q 281.451 51.374 281.451 53.698 L 281.451 53.698 L 281.451 55.144 L 274.41 55.144 L 274.41 55.144 Q 274.459 56.413 275.162 57.126 L 275.162 57.126 L 275.162 57.126 Q 275.865 57.839 277.135 57.839 L 277.135 57.839 L 277.135 57.839 Q 278.121 57.839 279 57.634 L 279 57.634 L 279 57.634 Q 279.879 57.429 280.836 56.98 L 280.836 56.98 L 280.836 59.284 L 280.836 59.284 Q 280.055 59.675 279.166 59.865 L 279.166 59.865 L 279.166 59.865 Q 278.277 60.056 276.998 60.056 Z  M 289.967 48.738 L 289.967 48.738 L 289.967 48.738 Q 290.572 48.738 290.973 48.825 L 290.973 48.825 L 290.748 51.618 L 290.748 51.618 Q 290.387 51.521 289.869 51.521 L 289.869 51.521 L 289.869 51.521 Q 288.443 51.521 287.647 52.253 L 287.647 52.253 L 287.647 52.253 Q 286.851 52.986 286.851 54.304 L 286.851 54.304 L 286.851 59.861 L 283.873 59.861 L 283.873 48.943 L 286.129 48.943 L 286.568 50.779 L 286.715 50.779 L 286.715 50.779 Q 287.223 49.861 288.087 49.299 L 288.087 49.299 L 288.087 49.299 Q 288.951 48.738 289.967 48.738 Z " fill="rgb(0,0,0)"/></g><line x1="155.128" y1="101.207" x2="255" y2="101.207" vector-effect="non-scaling-stroke" stroke-width="2" stroke="rgb(0,0,0)" stroke-linejoin="miter" stroke-linecap="square" stroke-miterlimit="3"/><g><circle vector-effect="non-scaling-stroke" cx="155.1280353901438" cy="101.20732105179943" r="22.207321051799426" fill="rgb(195,215,247)" stroke-width="2" stroke="rgb(0,0,0)" stroke-linejoin="miter" stroke-linecap="square" stroke-miterlimit="3"/><path d=" M 156.56 93.467 L 156.56 110.53 L 153.267 110.53 L 153.267 97.44 L 148.954 98.987 L 148.954 96.151 L 156.384 93.467 L 156.56 93.467 L 156.56 93.467 Z " fill="rgb(0,0,0)"/></g><g><circle vector-effect="non-scaling-stroke" cx="255.2723778540821" cy="101.20732105179943" r="22.20732105179941" fill="rgb(195,215,247)" stroke-width="2" stroke="rgb(0,0,0)" stroke-linejoin="miter" stroke-linecap="square" stroke-miterlimit="3"/><path d=" M 259.88 107.916 L 259.88 110.53 L 248.243 110.53 L 248.243 108.303 L 253.763 102.373 L 253.763 102.373 Q 254.407 101.67 254.852 101.096 L 254.852 101.096 L 254.852 101.096 Q 255.298 100.522 255.573 100.047 L 255.573 100.047 L 255.573 100.047 Q 255.849 99.573 255.972 99.162 L 255.972 99.162 L 255.972 99.162 Q 256.095 98.752 256.095 98.366 L 256.095 98.366 L 256.095 98.366 Q 256.095 97.791 255.931 97.346 L 255.931 97.346 L 255.931 97.346 Q 255.767 96.901 255.468 96.59 L 255.468 96.59 L 255.468 96.59 Q 255.169 96.28 254.753 96.116 L 254.753 96.116 L 254.753 96.116 Q 254.337 95.951 253.833 95.951 L 253.833 95.951 L 253.833 95.951 Q 252.485 95.951 251.823 96.701 L 251.823 96.701 L 251.823 96.701 Q 251.161 97.451 251.161 98.799 L 251.161 98.799 L 247.892 98.799 L 247.892 98.799 Q 247.892 97.662 248.325 96.649 L 248.325 96.649 L 248.325 96.649 Q 248.759 95.635 249.55 94.873 L 249.55 94.873 L 249.55 94.873 Q 250.341 94.112 251.46 93.672 L 251.46 93.672 L 251.46 93.672 Q 252.579 93.233 253.938 93.233 L 253.938 93.233 L 253.938 93.233 Q 255.239 93.233 256.241 93.596 L 256.241 93.596 L 256.241 93.596 Q 257.243 93.959 257.917 94.616 L 257.917 94.616 L 257.917 94.616 Q 258.591 95.272 258.942 96.192 L 258.942 96.192 L 258.942 96.192 Q 259.294 97.112 259.294 98.225 L 259.294 98.225 L 259.294 98.225 Q 259.294 99.069 259.03 99.836 L 259.03 99.836 L 259.03 99.836 Q 258.767 100.604 258.28 101.354 L 258.28 101.354 L 258.28 101.354 Q 257.794 102.104 257.114 102.883 L 257.114 102.883 L 257.114 102.883 Q 256.434 103.662 255.602 104.518 L 255.602 104.518 L 252.392 107.916 L 259.88 107.916 L 259.88 107.916 Z " fill="rgb(0,0,0)"/></g><line x1="499.967" y1="101" x2="677" y2="101.207" vector-effect="non-scaling-stroke" stroke-width="2" stroke="rgb(0,0,0)" stroke-linejoin="miter" stroke-linecap="square" stroke-miterlimit="3"/><g><circle vector-effect="non-scaling-stroke" cx="522.1743150613372" cy="101.20732105179941" r="22.207321051799426" fill="rgb(195,215,247)" stroke-width="2" stroke="rgb(0,0,0)" stroke-linejoin="miter" stroke-linecap="square" stroke-miterlimit="3"/><path d=" M 523.606 93.467 L 523.606 110.53 L 520.313 110.53 L 520.313 97.44 L 516 98.987 L 516 96.151 L 523.43 93.467 L 523.606 93.467 L 523.606 93.467 Z " fill="rgb(0,0,0)"/></g><g><circle vector-effect="non-scaling-stroke" cx="680.025414090664" cy="102.64633947410019" r="22.207321051799454" fill="rgb(195,215,247)" stroke-width="2" stroke="rgb(0,0,0)" stroke-linejoin="miter" stroke-linecap="square" stroke-miterlimit="3"/><path d=" M 676.758 104.539 L 676.758 102.008 L 678.527 102.008 L 678.527 102.008 Q 679.863 102.008 680.508 101.334 L 680.508 101.334 L 680.508 101.334 Q 681.152 100.66 681.152 99.57 L 681.152 99.57 L 681.152 99.57 Q 681.152 99.066 681.006 98.65 L 681.006 98.65 L 681.006 98.65 Q 680.859 98.234 680.566 97.935 L 680.566 97.935 L 680.566 97.935 Q 680.273 97.637 679.822 97.473 L 679.822 97.473 L 679.822 97.473 Q 679.371 97.308 678.773 97.308 L 678.773 97.308 L 678.773 97.308 Q 678.281 97.308 677.854 97.449 L 677.854 97.449 L 677.854 97.449 Q 677.426 97.59 677.104 97.853 L 677.104 97.853 L 677.104 97.853 Q 676.781 98.117 676.594 98.492 L 676.594 98.492 L 676.594 98.492 Q 676.406 98.867 676.406 99.336 L 676.406 99.336 L 673.148 99.336 L 673.148 99.336 Q 673.148 98.293 673.576 97.437 L 673.576 97.437 L 673.576 97.437 Q 674.004 96.582 674.754 95.967 L 674.754 95.967 L 674.754 95.967 Q 675.504 95.351 676.518 95.012 L 676.518 95.012 L 676.518 95.012 Q 677.531 94.672 678.703 94.672 L 678.703 94.672 L 678.703 94.672 Q 679.969 94.672 681.023 94.982 L 681.023 94.982 L 681.023 94.982 Q 682.078 95.293 682.828 95.908 L 682.828 95.908 L 682.828 95.908 Q 683.578 96.523 683.994 97.431 L 683.994 97.431 L 683.994 97.431 Q 684.41 98.34 684.41 99.535 L 684.41 99.535 L 684.41 99.535 Q 684.41 100.086 684.246 100.619 L 684.246 100.619 L 684.246 100.619 Q 684.082 101.152 683.766 101.633 L 683.766 101.633 L 683.766 101.633 Q 683.449 102.113 682.98 102.517 L 682.98 102.517 L 682.98 102.517 Q 682.512 102.922 681.902 103.215 L 681.902 103.215 L 681.902 103.215 Q 682.617 103.473 683.139 103.871 L 683.139 103.871 L 683.139 103.871 Q 683.66 104.269 684 104.779 L 684 104.779 L 684 104.779 Q 684.34 105.289 684.504 105.898 L 684.504 105.898 L 684.504 105.898 Q 684.668 106.508 684.668 107.187 L 684.668 107.187 L 684.668 107.187 Q 684.668 108.383 684.211 109.32 L 684.211 109.32 L 684.211 109.32 Q 683.754 110.258 682.957 110.896 L 682.957 110.896 L 682.957 110.896 Q 682.16 111.535 681.064 111.869 L 681.064 111.869 L 681.064 111.869 Q 679.969 112.203 678.703 112.203 L 678.703 112.203 L 678.703 112.203 Q 677.613 112.203 676.576 111.904 L 676.576 111.904 L 676.576 111.904 Q 675.539 111.605 674.73 111.002 L 674.73 111.002 L 674.73 111.002 Q 673.922 110.398 673.436 109.484 L 673.436 109.484 L 673.436 109.484 Q 672.949 108.57 672.949 107.328 L 672.949 107.328 L 676.207 107.328 L 676.207 107.328 Q 676.207 107.82 676.395 108.236 L 676.395 108.236 L 676.395 108.236 Q 676.582 108.652 676.928 108.951 L 676.928 108.951 L 676.928 108.951 Q 677.273 109.25 677.742 109.42 L 677.742 109.42 L 677.742 109.42 Q 678.211 109.59 678.773 109.59 L 678.773 109.59 L 678.773 109.59 Q 680.016 109.59 680.719 108.933 L 680.719 108.933 L 680.719 108.933 Q 681.422 108.277 681.422 107.152 L 681.422 107.152 L 681.422 107.152 Q 681.422 106.461 681.223 105.969 L 681.223 105.969 L 681.223 105.969 Q 681.023 105.476 680.643 105.16 L 680.643 105.16 L 680.643 105.16 Q 680.262 104.844 679.729 104.691 L 679.729 104.691 L 679.729 104.691 Q 679.195 104.539 678.527 104.539 L 678.527 104.539 L 676.758 104.539 L 676.758 104.539 Z " fill="rgb(0,0,0)"/></g><line x1="412" y1="395.579" x2="412" y2="8.853" vector-effect="non-scaling-stroke" stroke-width="3" stroke-dasharray="10,10" stroke="rgb(3,119,46)" stroke-linejoin="miter" stroke-linecap="square" stroke-miterlimit="3"/><g><path d="M 303.639 251.793 L 375.861 251.793 C 379.801 251.793 383 254.992 383 258.932 L 383 281.653 C 383 285.594 379.801 288.793 375.861 288.793 L 303.639 288.793 C 299.699 288.793 296.5 285.594 296.5 281.653 L 296.5 258.932 C 296.5 254.992 299.699 251.793 303.639 251.793 Z" style="stroke:none;fill:#FFF3A5;stroke-linecap:square;stroke-miterlimit:2;"/><path d="M 303.639 251.793 L 375.861 251.793 C 379.801 251.793 383 254.992 383 258.932 L 383 281.653 C 383 285.594 379.801 288.793 375.861 288.793 L 303.639 288.793 C 299.699 288.793 296.5 285.594 296.5 281.653 L 296.5 258.932 C 296.5 254.992 299.699 251.793 303.639 251.793 Z" style="fill:none;stroke:#000000;stroke-width:1.6855342301554246;stroke-linecap:square;stroke-miterlimit:2;"/><path d=" M 324.692 265.501 L 324.692 279.779 L 321.675 279.779 L 321.675 273.617 L 316.021 273.617 L 316.021 279.779 L 312.993 279.779 L 312.993 265.501 L 316.021 265.501 L 316.021 271.097 L 321.675 271.097 L 321.675 265.501 L 324.692 265.501 L 324.692 265.501 Z  M 336.519 277.279 L 336.519 279.779 L 328.296 279.779 L 328.296 265.501 L 336.519 265.501 L 336.519 267.982 L 331.323 267.982 L 331.323 271.117 L 336.157 271.117 L 336.157 273.597 L 331.323 273.597 L 331.323 277.279 L 336.519 277.279 L 336.519 277.279 Z  M 351.499 279.779 L 348.237 279.779 L 347.202 276.38 L 341.997 276.38 L 340.962 279.779 L 337.7 279.779 L 342.739 265.443 L 346.44 265.443 L 351.499 279.779 L 351.499 279.779 Z  M 342.759 273.841 L 346.479 273.841 L 346.479 273.841 Q 345.044 269.222 344.863 268.617 L 344.863 268.617 L 344.863 268.617 Q 344.683 268.011 344.604 267.659 L 344.604 267.659 L 344.604 267.659 Q 344.282 268.909 342.759 273.841 L 342.759 273.841 L 342.759 273.841 Z  M 365.142 272.503 L 365.142 272.503 L 365.142 272.503 Q 365.142 276.029 363.135 277.904 L 363.135 277.904 L 363.135 277.904 Q 361.128 279.779 357.339 279.779 L 357.339 279.779 L 353.296 279.779 L 353.296 265.501 L 357.778 265.501 L 357.778 265.501 Q 361.274 265.501 363.208 267.347 L 363.208 267.347 L 363.208 267.347 Q 365.142 269.193 365.142 272.503 Z  M 361.997 272.581 L 361.997 272.581 L 361.997 272.581 Q 361.997 267.982 357.935 267.982 L 357.935 267.982 L 356.323 267.982 L 356.323 277.279 L 357.622 277.279 L 357.622 277.279 Q 361.997 277.279 361.997 272.581 Z " fill="rgb(0,0,0)"/></g><g><circle vector-effect="non-scaling-stroke" cx="339.749998545542" cy="352.9390184223009" r="22.207321051799397" fill="rgb(195,215,247)" stroke-width="2" stroke="rgb(0,0,0)" stroke-linejoin="miter" stroke-linecap="square" stroke-miterlimit="3"/><path d=" M 336.482 354.832 L 336.482 352.3 L 338.252 352.3 L 338.252 352.3 Q 339.588 352.3 340.232 351.627 L 340.232 351.627 L 340.232 351.627 Q 340.877 350.953 340.877 349.863 L 340.877 349.863 L 340.877 349.863 Q 340.877 349.359 340.73 348.943 L 340.73 348.943 L 340.73 348.943 Q 340.584 348.527 340.291 348.228 L 340.291 348.228 L 340.291 348.228 Q 339.998 347.929 339.547 347.765 L 339.547 347.765 L 339.547 347.765 Q 339.096 347.601 338.498 347.601 L 338.498 347.601 L 338.498 347.601 Q 338.006 347.601 337.578 347.742 L 337.578 347.742 L 337.578 347.742 Q 337.15 347.882 336.828 348.146 L 336.828 348.146 L 336.828 348.146 Q 336.506 348.41 336.318 348.785 L 336.318 348.785 L 336.318 348.785 Q 336.131 349.16 336.131 349.628 L 336.131 349.628 L 332.873 349.628 L 332.873 349.628 Q 332.873 348.586 333.301 347.73 L 333.301 347.73 L 333.301 347.73 Q 333.729 346.875 334.479 346.259 L 334.479 346.259 L 334.479 346.259 Q 335.229 345.644 336.242 345.304 L 336.242 345.304 L 336.242 345.304 Q 337.256 344.964 338.428 344.964 L 338.428 344.964 L 338.428 344.964 Q 339.693 344.964 340.748 345.275 L 340.748 345.275 L 340.748 345.275 Q 341.803 345.586 342.553 346.201 L 342.553 346.201 L 342.553 346.201 Q 343.303 346.816 343.719 347.724 L 343.719 347.724 L 343.719 347.724 Q 344.135 348.632 344.135 349.828 L 344.135 349.828 L 344.135 349.828 Q 344.135 350.378 343.971 350.912 L 343.971 350.912 L 343.971 350.912 Q 343.807 351.445 343.49 351.925 L 343.49 351.925 L 343.49 351.925 Q 343.174 352.406 342.705 352.81 L 342.705 352.81 L 342.705 352.81 Q 342.236 353.214 341.627 353.507 L 341.627 353.507 L 341.627 353.507 Q 342.342 353.765 342.863 354.164 L 342.863 354.164 L 342.863 354.164 Q 343.385 354.562 343.725 355.072 L 343.725 355.072 L 343.725 355.072 Q 344.064 355.582 344.229 356.191 L 344.229 356.191 L 344.229 356.191 Q 344.393 356.8 344.393 357.48 L 344.393 357.48 L 344.393 357.48 Q 344.393 358.675 343.936 359.613 L 343.936 359.613 L 343.936 359.613 Q 343.479 360.55 342.682 361.189 L 342.682 361.189 L 342.682 361.189 Q 341.885 361.828 340.789 362.162 L 340.789 362.162 L 340.789 362.162 Q 339.693 362.496 338.428 362.496 L 338.428 362.496 L 338.428 362.496 Q 337.338 362.496 336.301 362.197 L 336.301 362.197 L 336.301 362.197 Q 335.264 361.898 334.455 361.294 L 334.455 361.294 L 334.455 361.294 Q 333.646 360.691 333.16 359.777 L 333.16 359.777 L 333.16 359.777 Q 332.674 358.863 332.674 357.621 L 332.674 357.621 L 335.932 357.621 L 335.932 357.621 Q 335.932 358.113 336.119 358.529 L 336.119 358.529 L 336.119 358.529 Q 336.307 358.945 336.652 359.244 L 336.652 359.244 L 336.652 359.244 Q 336.998 359.543 337.467 359.712 L 337.467 359.712 L 337.467 359.712 Q 337.936 359.882 338.498 359.882 L 338.498 359.882 L 338.498 359.882 Q 339.74 359.882 340.443 359.226 L 340.443 359.226 L 340.443 359.226 Q 341.146 358.57 341.146 357.445 L 341.146 357.445 L 341.146 357.445 Q 341.146 356.753 340.947 356.261 L 340.947 356.261 L 340.947 356.261 Q 340.748 355.769 340.367 355.453 L 340.367 355.453 L 340.367 355.453 Q 339.986 355.136 339.453 354.984 L 339.453 354.984 L 339.453 354.984 Q 338.92 354.832 338.252 354.832 L 338.252 354.832 L 336.482 354.832 L 336.482 354.832 Z " fill="rgb(0,0,0)"/></g><line x1="499.967" y1="352.939" x2="683.484" y2="352.939" vector-effect="non-scaling-stroke" stroke-width="2" stroke="rgb(0,0,0)" stroke-linejoin="miter" stroke-linecap="square" stroke-miterlimit="3"/><g><path d="M 606.076 285.293 L 753.975 285.293 C 759.462 285.293 763.918 289.748 763.918 295.236 L 763.918 312.35 C 763.918 317.837 759.462 322.293 753.975 322.293 L 606.076 322.293 C 600.588 322.293 596.133 317.837 596.133 312.35 L 596.133 295.236 C 596.133 289.748 600.588 285.293 606.076 285.293 Z" style="stroke:none;fill:#9FC4FF;stroke-linecap:square;stroke-miterlimit:2;"/><path d="M 606.076 285.293 L 753.975 285.293 C 759.462 285.293 763.918 289.748 763.918 295.236 L 763.918 312.35 C 763.918 317.837 759.462 322.293 753.975 322.293 L 606.076 322.293 C 600.588 322.293 596.133 317.837 596.133 312.35 L 596.133 295.236 C 596.133 289.748 600.588 285.293 606.076 285.293 Z" style="fill:none;stroke:#000000;stroke-width:1.7165048661891558;stroke-linecap:square;stroke-miterlimit:2;"/><path d=" M 613.414 305.573 L 613.414 305.573 L 613.414 305.573 Q 613.414 307.194 613.966 308.024 L 613.966 308.024 L 613.966 308.024 Q 614.518 308.854 615.763 308.854 L 615.763 308.854 L 615.763 308.854 Q 616.999 308.854 617.541 308.029 L 617.541 308.029 L 617.541 308.029 Q 618.083 307.204 618.083 305.573 L 618.083 305.573 L 618.083 305.573 Q 618.083 303.952 617.536 303.141 L 617.536 303.141 L 617.536 303.141 Q 616.989 302.331 615.743 302.331 L 615.743 302.331 L 615.743 302.331 Q 614.508 302.331 613.961 303.136 L 613.961 303.136 L 613.961 303.136 Q 613.414 303.942 613.414 305.573 Z  M 621.243 305.573 L 621.243 305.573 L 621.243 305.573 Q 621.243 308.239 619.784 309.743 L 619.784 309.743 L 619.784 309.743 Q 618.326 311.247 615.723 311.247 L 615.723 311.247 L 615.723 311.247 Q 614.092 311.247 612.847 310.558 L 612.847 310.558 L 612.847 310.558 Q 611.601 309.87 610.933 308.581 L 610.933 308.581 L 610.933 308.581 Q 610.264 307.292 610.264 305.573 L 610.264 305.573 L 610.264 305.573 Q 610.264 302.897 611.712 301.413 L 611.712 301.413 L 611.712 301.413 Q 613.161 299.928 615.784 299.928 L 615.784 299.928 L 615.784 299.928 Q 617.414 299.928 618.66 300.612 L 618.66 300.612 L 618.66 300.612 Q 619.906 301.296 620.574 302.575 L 620.574 302.575 L 620.574 302.575 Q 621.243 303.854 621.243 305.573 Z  M 630.115 299.928 L 630.115 299.928 L 630.115 299.928 Q 630.742 299.928 631.158 300.016 L 631.158 300.016 L 630.925 302.809 L 630.925 302.809 Q 630.55 302.712 630.013 302.712 L 630.013 302.712 L 630.013 302.712 Q 628.535 302.712 627.709 303.444 L 627.709 303.444 L 627.709 303.444 Q 626.884 304.176 626.884 305.495 L 626.884 305.495 L 626.884 311.051 L 623.795 311.051 L 623.795 300.133 L 626.134 300.133 L 626.59 301.969 L 626.742 301.969 L 626.742 301.969 Q 627.269 301.051 628.165 300.49 L 628.165 300.49 L 628.165 300.49 Q 629.061 299.928 630.115 299.928 Z  M 633.082 297.311 L 633.082 297.311 L 633.082 297.311 Q 633.082 295.856 634.763 295.856 L 634.763 295.856 L 634.763 295.856 Q 636.444 295.856 636.444 297.311 L 636.444 297.311 L 636.444 297.311 Q 636.444 298.005 636.024 298.39 L 636.024 298.39 L 636.024 298.39 Q 635.604 298.776 634.763 298.776 L 634.763 298.776 L 634.763 298.776 Q 633.082 298.776 633.082 297.311 Z  M 636.303 300.133 L 636.303 311.051 L 633.214 311.051 L 633.214 300.133 L 636.303 300.133 L 636.303 300.133 Z  M 645.448 300.133 L 649.398 300.133 L 649.398 301.647 L 647.626 302.087 L 647.626 302.087 Q 648.112 302.819 648.112 303.727 L 648.112 303.727 L 648.112 303.727 Q 648.112 305.485 646.841 306.467 L 646.841 306.467 L 646.841 306.467 Q 645.57 307.448 643.311 307.448 L 643.311 307.448 L 642.754 307.419 L 642.298 307.37 L 642.298 307.37 Q 641.822 307.721 641.822 308.151 L 641.822 308.151 L 641.822 308.151 Q 641.822 308.796 643.524 308.796 L 643.524 308.796 L 645.448 308.796 L 645.448 308.796 Q 647.312 308.796 648.289 309.567 L 648.289 309.567 L 648.289 309.567 Q 649.266 310.339 649.266 311.833 L 649.266 311.833 L 649.266 311.833 Q 649.266 313.747 647.61 314.801 L 647.61 314.801 L 647.61 314.801 Q 645.954 315.856 642.855 315.856 L 642.855 315.856 L 642.855 315.856 Q 640.485 315.856 639.235 315.06 L 639.235 315.06 L 639.235 315.06 Q 637.984 314.264 637.984 312.829 L 637.984 312.829 L 637.984 312.829 Q 637.984 311.842 638.622 311.178 L 638.622 311.178 L 638.622 311.178 Q 639.26 310.514 640.496 310.231 L 640.496 310.231 L 640.496 310.231 Q 640.02 310.036 639.665 309.592 L 639.665 309.592 L 639.665 309.592 Q 639.311 309.147 639.311 308.649 L 639.311 308.649 L 639.311 308.649 Q 639.311 308.024 639.685 307.609 L 639.685 307.609 L 639.685 307.609 Q 640.06 307.194 640.769 306.794 L 640.769 306.794 L 640.769 306.794 Q 639.878 306.423 639.356 305.602 L 639.356 305.602 L 639.356 305.602 Q 638.835 304.782 638.835 303.669 L 638.835 303.669 L 638.835 303.669 Q 638.835 301.882 640.04 300.905 L 640.04 300.905 L 640.04 300.905 Q 641.245 299.928 643.483 299.928 L 643.483 299.928 L 643.483 299.928 Q 643.959 299.928 644.613 300.011 L 644.613 300.011 L 644.613 300.011 Q 645.266 300.094 645.448 300.133 L 645.448 300.133 L 645.448 300.133 Z  M 640.658 312.594 L 640.658 312.594 L 640.658 312.594 Q 640.658 313.21 641.27 313.561 L 641.27 313.561 L 641.27 313.561 Q 641.883 313.913 642.987 313.913 L 642.987 313.913 L 642.987 313.913 Q 644.648 313.913 645.59 313.473 L 645.59 313.473 L 645.59 313.473 Q 646.532 313.034 646.532 312.272 L 646.532 312.272 L 646.532 312.272 Q 646.532 311.657 645.975 311.423 L 645.975 311.423 L 645.975 311.423 Q 645.418 311.188 644.253 311.188 L 644.253 311.188 L 642.653 311.188 L 642.653 311.188 Q 641.802 311.188 641.23 311.574 L 641.23 311.574 L 641.23 311.574 Q 640.658 311.96 640.658 312.594 Z  M 641.782 303.708 L 641.782 303.708 L 641.782 303.708 Q 641.782 304.596 642.202 305.114 L 642.202 305.114 L 642.202 305.114 Q 642.622 305.632 643.483 305.632 L 643.483 305.632 L 643.483 305.632 Q 644.354 305.632 644.759 305.114 L 644.759 305.114 L 644.759 305.114 Q 645.164 304.596 645.164 303.708 L 645.164 303.708 L 645.164 303.708 Q 645.164 301.735 643.483 301.735 L 643.483 301.735 L 643.483 301.735 Q 641.782 301.735 641.782 303.708 Z  M 651.13 297.311 L 651.13 297.311 L 651.13 297.311 Q 651.13 295.856 652.811 295.856 L 652.811 295.856 L 652.811 295.856 Q 654.492 295.856 654.492 297.311 L 654.492 297.311 L 654.492 297.311 Q 654.492 298.005 654.072 298.39 L 654.072 298.39 L 654.072 298.39 Q 653.652 298.776 652.811 298.776 L 652.811 298.776 L 652.811 298.776 Q 651.13 298.776 651.13 297.311 Z  M 654.35 300.133 L 654.35 311.051 L 651.261 311.051 L 651.261 300.133 L 654.35 300.133 L 654.35 300.133 Z  M 668.043 303.932 L 668.043 311.051 L 664.954 311.051 L 664.954 304.675 L 664.954 304.675 Q 664.954 303.493 664.519 302.902 L 664.519 302.902 L 664.519 302.902 Q 664.083 302.311 663.131 302.311 L 663.131 302.311 L 663.131 302.311 Q 661.835 302.311 661.258 303.146 L 661.258 303.146 L 661.258 303.146 Q 660.68 303.981 660.68 305.915 L 660.68 305.915 L 660.68 311.051 L 657.591 311.051 L 657.591 300.133 L 659.951 300.133 L 660.366 301.53 L 660.538 301.53 L 660.538 301.53 Q 661.055 300.739 661.961 300.334 L 661.961 300.334 L 661.961 300.334 Q 662.868 299.928 664.022 299.928 L 664.022 299.928 L 664.022 299.928 Q 665.997 299.928 667.02 300.959 L 667.02 300.959 L 667.02 300.959 Q 668.043 301.989 668.043 303.932 L 668.043 303.932 L 668.043 303.932 Z  M 675.264 296.774 L 678.07 296.774 L 672.55 311.051 L 669.745 311.051 L 675.264 296.774 L 675.264 296.774 Z  M 689.929 305.573 L 689.929 311.051 L 686.84 311.051 L 686.84 304.675 L 686.84 304.675 Q 686.84 303.493 686.43 302.902 L 686.43 302.902 L 686.43 302.902 Q 686.02 302.311 685.139 302.311 L 685.139 302.311 L 685.139 302.311 Q 683.954 302.311 683.417 303.151 L 683.417 303.151 L 683.417 303.151 Q 682.88 303.991 682.88 305.915 L 682.88 305.915 L 682.88 311.051 L 679.791 311.051 L 679.791 300.133 L 682.151 300.133 L 682.566 301.53 L 682.739 301.53 L 682.739 301.53 Q 683.194 300.778 684.055 300.353 L 684.055 300.353 L 684.055 300.353 Q 684.916 299.928 686.03 299.928 L 686.03 299.928 L 686.03 299.928 Q 688.572 299.928 689.474 301.53 L 689.474 301.53 L 689.747 301.53 L 689.747 301.53 Q 690.203 300.768 691.089 300.348 L 691.089 300.348 L 691.089 300.348 Q 691.975 299.928 693.089 299.928 L 693.089 299.928 L 693.089 299.928 Q 695.013 299.928 696.001 300.881 L 696.001 300.881 L 696.001 300.881 Q 696.988 301.833 696.988 303.932 L 696.988 303.932 L 696.988 311.051 L 693.889 311.051 L 693.889 304.675 L 693.889 304.675 Q 693.889 303.493 693.479 302.902 L 693.479 302.902 L 693.479 302.902 Q 693.069 302.311 692.188 302.311 L 692.188 302.311 L 692.188 302.311 Q 691.054 302.311 690.491 303.092 L 690.491 303.092 L 690.491 303.092 Q 689.929 303.874 689.929 305.573 L 689.929 305.573 L 689.929 305.573 Z  M 709.506 311.051 L 707.349 311.051 L 706.752 309.567 L 706.671 309.567 L 706.671 309.567 Q 705.891 310.514 705.065 310.881 L 705.065 310.881 L 705.065 310.881 Q 704.24 311.247 702.913 311.247 L 702.913 311.247 L 702.913 311.247 Q 701.283 311.247 700.346 310.348 L 700.346 310.348 L 700.346 310.348 Q 699.409 309.45 699.409 307.79 L 699.409 307.79 L 699.409 307.79 Q 699.409 306.051 700.67 305.226 L 700.67 305.226 L 700.67 305.226 Q 701.931 304.401 704.473 304.313 L 704.473 304.313 L 706.438 304.255 L 706.438 303.776 L 706.438 303.776 Q 706.438 302.116 704.675 302.116 L 704.675 302.116 L 704.675 302.116 Q 703.318 302.116 701.485 302.907 L 701.485 302.907 L 700.462 300.895 L 700.462 300.895 Q 702.417 299.909 704.797 299.909 L 704.797 299.909 L 704.797 299.909 Q 707.076 299.909 708.291 300.866 L 708.291 300.866 L 708.291 300.866 Q 709.506 301.823 709.506 303.776 L 709.506 303.776 L 709.506 311.051 L 709.506 311.051 Z  M 706.438 306.891 L 706.438 305.993 L 705.243 306.032 L 705.243 306.032 Q 703.896 306.071 703.237 306.501 L 703.237 306.501 L 703.237 306.501 Q 702.579 306.93 702.579 307.809 L 702.579 307.809 L 702.579 307.809 Q 702.579 309.069 704.078 309.069 L 704.078 309.069 L 704.078 309.069 Q 705.151 309.069 705.795 308.473 L 705.795 308.473 L 705.795 308.473 Q 706.438 307.878 706.438 306.891 L 706.438 306.891 L 706.438 306.891 Z  M 720.586 307.809 L 720.586 307.809 L 720.586 307.809 Q 720.586 309.489 719.376 310.368 L 719.376 310.368 L 719.376 310.368 Q 718.166 311.247 715.755 311.247 L 715.755 311.247 L 715.755 311.247 Q 714.52 311.247 713.649 311.086 L 713.649 311.086 L 713.649 311.086 Q 712.778 310.925 712.018 310.612 L 712.018 310.612 L 712.018 308.151 L 712.018 308.151 Q 712.879 308.542 713.958 308.805 L 713.958 308.805 L 713.958 308.805 Q 715.036 309.069 715.856 309.069 L 715.856 309.069 L 715.856 309.069 Q 717.538 309.069 717.538 308.132 L 717.538 308.132 L 717.538 308.132 Q 717.538 307.78 717.315 307.56 L 717.315 307.56 L 717.315 307.56 Q 717.092 307.341 716.545 307.062 L 716.545 307.062 L 716.545 307.062 Q 715.998 306.784 715.087 306.413 L 715.087 306.413 L 715.087 306.413 Q 713.78 305.885 713.168 305.436 L 713.168 305.436 L 713.168 305.436 Q 712.555 304.987 712.276 304.406 L 712.276 304.406 L 712.276 304.406 Q 711.998 303.825 711.998 302.975 L 711.998 302.975 L 711.998 302.975 Q 711.998 301.52 713.168 300.724 L 713.168 300.724 L 713.168 300.724 Q 714.337 299.928 716.484 299.928 L 716.484 299.928 L 716.484 299.928 Q 718.53 299.928 720.465 300.788 L 720.465 300.788 L 719.533 302.936 L 719.533 302.936 Q 718.682 302.585 717.943 302.36 L 717.943 302.36 L 717.943 302.36 Q 717.203 302.135 716.434 302.135 L 716.434 302.135 L 716.434 302.135 Q 715.067 302.135 715.067 302.848 L 715.067 302.848 L 715.067 302.848 Q 715.067 303.249 715.507 303.542 L 715.507 303.542 L 715.507 303.542 Q 715.948 303.835 717.436 304.411 L 717.436 304.411 L 717.436 304.411 Q 718.763 304.928 719.381 305.378 L 719.381 305.378 L 719.381 305.378 Q 719.999 305.827 720.292 306.413 L 720.292 306.413 L 720.292 306.413 Q 720.586 306.999 720.586 307.809 Z  M 727.767 308.874 L 727.767 308.874 L 727.767 308.874 Q 728.577 308.874 729.711 308.532 L 729.711 308.532 L 729.711 310.749 L 729.711 310.749 Q 728.557 311.247 726.876 311.247 L 726.876 311.247 L 726.876 311.247 Q 725.022 311.247 724.176 310.343 L 724.176 310.343 L 724.176 310.343 Q 723.331 309.44 723.331 307.633 L 723.331 307.633 L 723.331 302.37 L 721.852 302.37 L 721.852 301.11 L 723.554 300.114 L 724.445 297.809 L 726.42 297.809 L 726.42 300.133 L 729.59 300.133 L 729.59 302.37 L 726.42 302.37 L 726.42 307.633 L 726.42 307.633 Q 726.42 308.268 726.789 308.571 L 726.789 308.571 L 726.789 308.571 Q 727.159 308.874 727.767 308.874 Z  M 736.689 302.048 L 736.689 302.048 L 736.689 302.048 Q 735.707 302.048 735.15 302.648 L 735.15 302.648 L 735.15 302.648 Q 734.593 303.249 734.512 304.352 L 734.512 304.352 L 738.847 304.352 L 738.847 304.352 Q 738.826 303.249 738.249 302.648 L 738.249 302.648 L 738.249 302.648 Q 737.672 302.048 736.689 302.048 Z  M 737.125 311.247 L 737.125 311.247 L 737.125 311.247 Q 734.39 311.247 732.851 309.792 L 732.851 309.792 L 732.851 309.792 Q 731.312 308.337 731.312 305.671 L 731.312 305.671 L 731.312 305.671 Q 731.312 302.926 732.734 301.427 L 732.734 301.427 L 732.734 301.427 Q 734.157 299.928 736.669 299.928 L 736.669 299.928 L 736.669 299.928 Q 739.069 299.928 740.406 301.247 L 740.406 301.247 L 740.406 301.247 Q 741.743 302.565 741.743 304.889 L 741.743 304.889 L 741.743 306.335 L 734.441 306.335 L 734.441 306.335 Q 734.492 307.604 735.221 308.317 L 735.221 308.317 L 735.221 308.317 Q 735.95 309.03 737.267 309.03 L 737.267 309.03 L 737.267 309.03 Q 738.29 309.03 739.201 308.825 L 739.201 308.825 L 739.201 308.825 Q 740.113 308.62 741.105 308.171 L 741.105 308.171 L 741.105 310.475 L 741.105 310.475 Q 740.295 310.866 739.373 311.056 L 739.373 311.056 L 739.373 311.056 Q 738.452 311.247 737.125 311.247 Z  M 750.575 299.928 L 750.575 299.928 L 750.575 299.928 Q 751.202 299.928 751.618 300.016 L 751.618 300.016 L 751.385 302.809 L 751.385 302.809 Q 751.01 302.712 750.473 302.712 L 750.473 302.712 L 750.473 302.712 Q 748.995 302.712 748.169 303.444 L 748.169 303.444 L 748.169 303.444 Q 747.344 304.176 747.344 305.495 L 747.344 305.495 L 747.344 311.051 L 744.255 311.051 L 744.255 300.133 L 746.594 300.133 L 747.05 301.969 L 747.202 301.969 L 747.202 301.969 Q 747.729 301.051 748.625 300.49 L 748.625 300.49 L 748.625 300.49 Q 749.521 299.928 750.575 299.928 Z " fill="rgb(0,0,0)"/></g><g><circle vector-effect="non-scaling-stroke" cx="522.1743150613372" cy="352.9390185205493" r="22.207321051799426" fill="rgb(195,215,247)" stroke-width="2" stroke="rgb(0,0,0)" stroke-linejoin="miter" stroke-linecap="square" stroke-miterlimit="3"/><path d=" M 523.606 345.199 L 523.606 362.261 L 520.313 362.261 L 520.313 349.171 L 516 350.718 L 516 347.882 L 523.43 345.199 L 523.606 345.199 L 523.606 345.199 Z " fill="rgb(0,0,0)"/></g><g><path d="M 637.702 246.293 L 722.349 246.293 C 726.586 246.293 730.025 249.732 730.025 253.969 L 730.025 275.617 C 730.025 279.853 726.586 283.293 722.349 283.293 L 637.702 283.293 C 633.465 283.293 630.025 279.853 630.025 275.617 L 630.025 253.969 C 630.025 249.732 633.465 246.293 637.702 246.293 Z" style="stroke:none;fill:#9FC4FF;stroke-linecap:square;stroke-miterlimit:2;"/><path d="M 637.702 246.293 L 722.349 246.293 C 726.586 246.293 730.025 249.732 730.025 253.969 L 730.025 275.617 C 730.025 279.853 726.586 283.293 722.349 283.293 L 637.702 283.293 C 633.465 283.293 630.025 279.853 630.025 275.617 L 630.025 253.969 C 630.025 249.732 633.465 246.293 637.702 246.293 Z" style="fill:none;stroke:#000000;stroke-width:1.6855342301554246;stroke-linecap:square;stroke-miterlimit:2;"/><path d=" M 656.243 267.675 L 656.243 273.153 L 653.265 273.153 L 653.265 266.776 L 653.265 266.776 Q 653.265 265.595 652.869 265.004 L 652.869 265.004 L 652.869 265.004 Q 652.474 264.413 651.624 264.413 L 651.624 264.413 L 651.624 264.413 Q 650.481 264.413 649.964 265.253 L 649.964 265.253 L 649.964 265.253 Q 649.446 266.093 649.446 268.017 L 649.446 268.017 L 649.446 273.153 L 646.468 273.153 L 646.468 262.235 L 648.743 262.235 L 649.144 263.632 L 649.31 263.632 L 649.31 263.632 Q 649.749 262.88 650.579 262.455 L 650.579 262.455 L 650.579 262.455 Q 651.409 262.03 652.483 262.03 L 652.483 262.03 L 652.483 262.03 Q 654.935 262.03 655.804 263.632 L 655.804 263.632 L 656.067 263.632 L 656.067 263.632 Q 656.507 262.87 657.361 262.45 L 657.361 262.45 L 657.361 262.45 Q 658.216 262.03 659.29 262.03 L 659.29 262.03 L 659.29 262.03 Q 661.146 262.03 662.098 262.982 L 662.098 262.982 L 662.098 262.982 Q 663.05 263.934 663.05 266.034 L 663.05 266.034 L 663.05 273.153 L 660.062 273.153 L 660.062 266.776 L 660.062 266.776 Q 660.062 265.595 659.666 265.004 L 659.666 265.004 L 659.666 265.004 Q 659.271 264.413 658.421 264.413 L 658.421 264.413 L 658.421 264.413 Q 657.327 264.413 656.785 265.194 L 656.785 265.194 L 656.785 265.194 Q 656.243 265.975 656.243 267.675 L 656.243 267.675 L 656.243 267.675 Z  M 675.12 273.153 L 673.04 273.153 L 672.464 271.669 L 672.386 271.669 L 672.386 271.669 Q 671.634 272.616 670.838 272.982 L 670.838 272.982 L 670.838 272.982 Q 670.042 273.349 668.763 273.349 L 668.763 273.349 L 668.763 273.349 Q 667.19 273.349 666.287 272.45 L 666.287 272.45 L 666.287 272.45 Q 665.384 271.552 665.384 269.892 L 665.384 269.892 L 665.384 269.892 Q 665.384 268.153 666.6 267.328 L 666.6 267.328 L 666.6 267.328 Q 667.815 266.503 670.267 266.415 L 670.267 266.415 L 672.161 266.356 L 672.161 265.878 L 672.161 265.878 Q 672.161 264.218 670.462 264.218 L 670.462 264.218 L 670.462 264.218 Q 669.153 264.218 667.386 265.009 L 667.386 265.009 L 666.399 262.997 L 666.399 262.997 Q 668.284 262.011 670.579 262.011 L 670.579 262.011 L 670.579 262.011 Q 672.776 262.011 673.948 262.968 L 673.948 262.968 L 673.948 262.968 Q 675.12 263.925 675.12 265.878 L 675.12 265.878 L 675.12 273.153 L 675.12 273.153 Z  M 672.161 268.993 L 672.161 268.095 L 671.009 268.134 L 671.009 268.134 Q 669.71 268.173 669.075 268.602 L 669.075 268.602 L 669.075 268.602 Q 668.44 269.032 668.44 269.911 L 668.44 269.911 L 668.44 269.911 Q 668.44 271.171 669.886 271.171 L 669.886 271.171 L 669.886 271.171 Q 670.921 271.171 671.541 270.575 L 671.541 270.575 L 671.541 270.575 Q 672.161 269.979 672.161 268.993 L 672.161 268.993 L 672.161 268.993 Z  M 685.804 269.911 L 685.804 269.911 L 685.804 269.911 Q 685.804 271.591 684.637 272.47 L 684.637 272.47 L 684.637 272.47 Q 683.47 273.349 681.146 273.349 L 681.146 273.349 L 681.146 273.349 Q 679.954 273.349 679.114 273.187 L 679.114 273.187 L 679.114 273.187 Q 678.274 273.026 677.542 272.714 L 677.542 272.714 L 677.542 270.253 L 677.542 270.253 Q 678.372 270.643 679.412 270.907 L 679.412 270.907 L 679.412 270.907 Q 680.452 271.171 681.243 271.171 L 681.243 271.171 L 681.243 271.171 Q 682.864 271.171 682.864 270.233 L 682.864 270.233 L 682.864 270.233 Q 682.864 269.882 682.649 269.662 L 682.649 269.662 L 682.649 269.662 Q 682.435 269.442 681.907 269.164 L 681.907 269.164 L 681.907 269.164 Q 681.38 268.886 680.501 268.515 L 680.501 268.515 L 680.501 268.515 Q 679.241 267.987 678.65 267.538 L 678.65 267.538 L 678.65 267.538 Q 678.06 267.089 677.791 266.508 L 677.791 266.508 L 677.791 266.508 Q 677.522 265.927 677.522 265.077 L 677.522 265.077 L 677.522 265.077 Q 677.522 263.622 678.65 262.826 L 678.65 262.826 L 678.65 262.826 Q 679.778 262.03 681.849 262.03 L 681.849 262.03 L 681.849 262.03 Q 683.821 262.03 685.687 262.89 L 685.687 262.89 L 684.788 265.038 L 684.788 265.038 Q 683.968 264.686 683.255 264.462 L 683.255 264.462 L 683.255 264.462 Q 682.542 264.237 681.8 264.237 L 681.8 264.237 L 681.8 264.237 Q 680.481 264.237 680.481 264.95 L 680.481 264.95 L 680.481 264.95 Q 680.481 265.35 680.906 265.643 L 680.906 265.643 L 680.906 265.643 Q 681.331 265.936 682.767 266.513 L 682.767 266.513 L 682.767 266.513 Q 684.046 267.03 684.642 267.479 L 684.642 267.479 L 684.642 267.479 Q 685.237 267.929 685.521 268.515 L 685.521 268.515 L 685.521 268.515 Q 685.804 269.1 685.804 269.911 Z  M 692.728 270.975 L 692.728 270.975 L 692.728 270.975 Q 693.509 270.975 694.603 270.634 L 694.603 270.634 L 694.603 272.85 L 694.603 272.85 Q 693.489 273.349 691.868 273.349 L 691.868 273.349 L 691.868 273.349 Q 690.081 273.349 689.266 272.445 L 689.266 272.445 L 689.266 272.445 Q 688.45 271.542 688.45 269.735 L 688.45 269.735 L 688.45 264.472 L 687.024 264.472 L 687.024 263.212 L 688.665 262.216 L 689.524 259.911 L 691.429 259.911 L 691.429 262.235 L 694.485 262.235 L 694.485 264.472 L 691.429 264.472 L 691.429 269.735 L 691.429 269.735 Q 691.429 270.37 691.785 270.673 L 691.785 270.673 L 691.785 270.673 Q 692.142 270.975 692.728 270.975 Z  M 701.331 264.149 L 701.331 264.149 L 701.331 264.149 Q 700.384 264.149 699.847 264.75 L 699.847 264.75 L 699.847 264.75 Q 699.31 265.35 699.231 266.454 L 699.231 266.454 L 703.411 266.454 L 703.411 266.454 Q 703.392 265.35 702.835 264.75 L 702.835 264.75 L 702.835 264.75 Q 702.278 264.149 701.331 264.149 Z  M 701.751 273.349 L 701.751 273.349 L 701.751 273.349 Q 699.114 273.349 697.63 271.893 L 697.63 271.893 L 697.63 271.893 Q 696.146 270.438 696.146 267.772 L 696.146 267.772 L 696.146 267.772 Q 696.146 265.028 697.518 263.529 L 697.518 263.529 L 697.518 263.529 Q 698.89 262.03 701.312 262.03 L 701.312 262.03 L 701.312 262.03 Q 703.626 262.03 704.915 263.349 L 704.915 263.349 L 704.915 263.349 Q 706.204 264.667 706.204 266.991 L 706.204 266.991 L 706.204 268.436 L 699.163 268.436 L 699.163 268.436 Q 699.212 269.706 699.915 270.419 L 699.915 270.419 L 699.915 270.419 Q 700.618 271.132 701.888 271.132 L 701.888 271.132 L 701.888 271.132 Q 702.874 271.132 703.753 270.927 L 703.753 270.927 L 703.753 270.927 Q 704.632 270.722 705.589 270.272 L 705.589 270.272 L 705.589 272.577 L 705.589 272.577 Q 704.808 272.968 703.919 273.158 L 703.919 273.158 L 703.919 273.158 Q 703.03 273.349 701.751 273.349 Z  M 714.72 262.03 L 714.72 262.03 L 714.72 262.03 Q 715.325 262.03 715.726 262.118 L 715.726 262.118 L 715.501 264.911 L 715.501 264.911 Q 715.14 264.813 714.622 264.813 L 714.622 264.813 L 714.622 264.813 Q 713.196 264.813 712.4 265.546 L 712.4 265.546 L 712.4 265.546 Q 711.605 266.278 711.605 267.597 L 711.605 267.597 L 711.605 273.153 L 708.626 273.153 L 708.626 262.235 L 710.882 262.235 L 711.321 264.071 L 711.468 264.071 L 711.468 264.071 Q 711.976 263.153 712.84 262.592 L 712.84 262.592 L 712.84 262.592 Q 713.704 262.03 714.72 262.03 Z " fill="rgb(0,0,0)"/></g><g><path d="M 643.915 209.293 L 716.136 209.293 C 720.076 209.293 723.275 212.492 723.275 216.432 L 723.275 239.153 C 723.275 243.094 720.076 246.293 716.136 246.293 L 643.915 246.293 C 639.974 246.293 636.775 243.094 636.775 239.153 L 636.775 216.432 C 636.775 212.492 639.974 209.293 643.915 209.293 Z" style="stroke:none;fill:#FFF3A5;stroke-linecap:square;stroke-miterlimit:2;"/><path d="M 643.915 209.293 L 716.136 209.293 C 720.076 209.293 723.275 212.492 723.275 216.432 L 723.275 239.153 C 723.275 243.094 720.076 246.293 716.136 246.293 L 643.915 246.293 C 639.974 246.293 636.775 243.094 636.775 239.153 L 636.775 216.432 C 636.775 212.492 639.974 209.293 643.915 209.293 Z" style="fill:none;stroke:#000000;stroke-width:1.6855342301554246;stroke-linecap:square;stroke-miterlimit:2;"/><path d=" M 664.968 223.001 L 664.968 237.279 L 661.95 237.279 L 661.95 231.117 L 656.296 231.117 L 656.296 237.279 L 653.269 237.279 L 653.269 223.001 L 656.296 223.001 L 656.296 228.597 L 661.95 228.597 L 661.95 223.001 L 664.968 223.001 L 664.968 223.001 Z  M 676.794 234.779 L 676.794 237.279 L 668.571 237.279 L 668.571 223.001 L 676.794 223.001 L 676.794 225.482 L 671.599 225.482 L 671.599 228.617 L 676.433 228.617 L 676.433 231.097 L 671.599 231.097 L 671.599 234.779 L 676.794 234.779 L 676.794 234.779 Z  M 691.774 237.279 L 688.513 237.279 L 687.478 233.88 L 682.272 233.88 L 681.237 237.279 L 677.976 237.279 L 683.015 222.943 L 686.716 222.943 L 691.774 237.279 L 691.774 237.279 Z  M 683.034 231.341 L 686.755 231.341 L 686.755 231.341 Q 685.319 226.722 685.139 226.117 L 685.139 226.117 L 685.139 226.117 Q 684.958 225.511 684.88 225.159 L 684.88 225.159 L 684.88 225.159 Q 684.558 226.409 683.034 231.341 L 683.034 231.341 L 683.034 231.341 Z  M 705.417 230.003 L 705.417 230.003 L 705.417 230.003 Q 705.417 233.529 703.41 235.404 L 703.41 235.404 L 703.41 235.404 Q 701.403 237.279 697.614 237.279 L 697.614 237.279 L 693.571 237.279 L 693.571 223.001 L 698.054 223.001 L 698.054 223.001 Q 701.55 223.001 703.483 224.847 L 703.483 224.847 L 703.483 224.847 Q 705.417 226.693 705.417 230.003 Z  M 702.272 230.081 L 702.272 230.081 L 702.272 230.081 Q 702.272 225.482 698.21 225.482 L 698.21 225.482 L 696.599 225.482 L 696.599 234.779 L 697.897 234.779 L 697.897 234.779 Q 702.272 234.779 702.272 230.081 Z " fill="rgb(0,0,0)"/></g><g><circle vector-effect="non-scaling-stroke" cx="680.0254140906641" cy="352.9390184223009" r="22.207321051799454" fill="rgb(195,215,247)" stroke-width="2" stroke="rgb(0,0,0)" stroke-linejoin="miter" stroke-linecap="square" stroke-miterlimit="3"/><path d=" M 676.758 354.832 L 676.758 352.3 L 678.527 352.3 L 678.527 352.3 Q 679.863 352.3 680.508 351.627 L 680.508 351.627 L 680.508 351.627 Q 681.152 350.953 681.152 349.863 L 681.152 349.863 L 681.152 349.863 Q 681.152 349.359 681.006 348.943 L 681.006 348.943 L 681.006 348.943 Q 680.859 348.527 680.566 348.228 L 680.566 348.228 L 680.566 348.228 Q 680.273 347.929 679.822 347.765 L 679.822 347.765 L 679.822 347.765 Q 679.371 347.601 678.773 347.601 L 678.773 347.601 L 678.773 347.601 Q 678.281 347.601 677.854 347.742 L 677.854 347.742 L 677.854 347.742 Q 677.426 347.882 677.104 348.146 L 677.104 348.146 L 677.104 348.146 Q 676.781 348.41 676.594 348.785 L 676.594 348.785 L 676.594 348.785 Q 676.406 349.16 676.406 349.628 L 676.406 349.628 L 673.148 349.628 L 673.148 349.628 Q 673.148 348.586 673.576 347.73 L 673.576 347.73 L 673.576 347.73 Q 674.004 346.875 674.754 346.259 L 674.754 346.259 L 674.754 346.259 Q 675.504 345.644 676.518 345.304 L 676.518 345.304 L 676.518 345.304 Q 677.531 344.964 678.703 344.964 L 678.703 344.964 L 678.703 344.964 Q 679.969 344.964 681.023 345.275 L 681.023 345.275 L 681.023 345.275 Q 682.078 345.586 682.828 346.201 L 682.828 346.201 L 682.828 346.201 Q 683.578 346.816 683.994 347.724 L 683.994 347.724 L 683.994 347.724 Q 684.41 348.632 684.41 349.828 L 684.41 349.828 L 684.41 349.828 Q 684.41 350.378 684.246 350.912 L 684.246 350.912 L 684.246 350.912 Q 684.082 351.445 683.766 351.925 L 683.766 351.925 L 683.766 351.925 Q 683.449 352.406 682.98 352.81 L 682.98 352.81 L 682.98 352.81 Q 682.512 353.214 681.902 353.507 L 681.902 353.507 L 681.902 353.507 Q 682.617 353.765 683.139 354.164 L 683.139 354.164 L 683.139 354.164 Q 683.66 354.562 684 355.072 L 684 355.072 L 684 355.072 Q 684.34 355.582 684.504 356.191 L 684.504 356.191 L 684.504 356.191 Q 684.668 356.8 684.668 357.48 L 684.668 357.48 L 684.668 357.48 Q 684.668 358.675 684.211 359.613 L 684.211 359.613 L 684.211 359.613 Q 683.754 360.55 682.957 361.189 L 682.957 361.189 L 682.957 361.189 Q 682.16 361.828 681.064 362.162 L 681.064 362.162 L 681.064 362.162 Q 679.969 362.496 678.703 362.496 L 678.703 362.496 L 678.703 362.496 Q 677.613 362.496 676.576 362.197 L 676.576 362.197 L 676.576 362.197 Q 675.539 361.898 674.73 361.294 L 674.73 361.294 L 674.73 361.294 Q 673.922 360.691 673.436 359.777 L 673.436 359.777 L 673.436 359.777 Q 672.949 358.863 672.949 357.621 L 672.949 357.621 L 676.207 357.621 L 676.207 357.621 Q 676.207 358.113 676.395 358.529 L 676.395 358.529 L 676.395 358.529 Q 676.582 358.945 676.928 359.244 L 676.928 359.244 L 676.928 359.244 Q 677.273 359.543 677.742 359.712 L 677.742 359.712 L 677.742 359.712 Q 678.211 359.882 678.773 359.882 L 678.773 359.882 L 678.773 359.882 Q 680.016 359.882 680.719 359.226 L 680.719 359.226 L 680.719 359.226 Q 681.422 358.57 681.422 357.445 L 681.422 357.445 L 681.422 357.445 Q 681.422 356.753 681.223 356.261 L 681.223 356.261 L 681.223 356.261 Q 681.023 355.769 680.643 355.453 L 680.643 355.453 L 680.643 355.453 Q 680.262 355.136 679.729 354.984 L 679.729 354.984 L 679.729 354.984 Q 679.195 354.832 678.527 354.832 L 678.527 354.832 L 676.758 354.832 L 676.758 354.832 Z " fill="rgb(0,0,0)"/></g><g><path d=" M 53.505 13.154 C 43.635 13.154 34.674 14.923 28.042 17.908 C 24.73 19.396 21.997 21.2 20.011 23.318 C 18.023 25.432 16.787 27.941 16.787 30.639 L 16.787 47.797 C 16.773 47.905 16.773 48.015 16.787 48.124 L 16.787 65.281 C 16.773 65.39 16.773 65.5 16.787 65.608 L 16.787 81.345 C 16.787 84.043 18.023 86.55 20.011 88.667 C 21.997 90.783 24.73 92.588 28.042 94.075 C 34.674 97.06 43.635 98.83 53.505 98.83 C 63.375 98.83 72.336 97.06 78.968 94.075 C 82.28 92.588 85.013 90.783 86.999 88.667 C 88.987 86.55 90.223 84.041 90.223 81.345 L 90.223 30.639 C 90.223 27.941 88.987 25.433 86.999 23.316 C 85.013 21.2 82.28 19.396 78.968 17.908 C 72.336 14.923 63.375 13.154 53.505 13.154 Z  M 53.505 16.651 C 62.95 16.651 71.467 18.42 77.493 21.132 C 80.503 22.484 82.881 24.07 84.431 25.722 C 85.983 27.374 86.726 28.992 86.726 30.639 C 86.726 32.284 85.981 33.903 84.431 35.557 C 82.881 37.209 80.503 38.794 77.493 40.145 C 71.467 42.857 62.95 44.627 53.505 44.627 C 44.06 44.627 35.543 42.857 29.518 40.145 C 26.507 38.794 24.129 37.208 22.578 35.557 C 21.029 33.903 20.284 32.282 20.284 30.639 C 20.284 28.993 21.029 27.374 22.58 25.72 C 24.129 24.068 26.507 22.484 29.518 21.13 C 35.543 18.422 44.06 16.651 53.505 16.651 Z  M 20.284 38.234 C 22.244 40.234 24.867 41.941 28.044 43.369 C 34.674 46.354 43.635 48.124 53.505 48.124 C 63.375 48.124 72.336 46.354 78.968 43.369 C 82.144 41.943 84.766 40.234 86.726 38.234 L 86.726 48.124 C 86.726 49.769 85.981 51.388 84.431 53.042 C 82.881 54.694 80.503 56.278 77.493 57.632 C 71.467 60.342 62.95 62.111 53.505 62.111 C 44.06 62.111 35.543 60.342 29.518 57.63 C 26.507 56.278 24.129 54.693 22.578 53.04 C 21.029 51.388 20.284 49.771 20.284 48.124 C 20.298 48.014 20.298 47.904 20.284 47.795 L 20.284 38.234 Z  M 20.284 55.719 C 22.244 57.719 24.867 59.426 28.044 60.854 C 34.674 63.839 43.635 65.608 53.505 65.608 C 63.375 65.608 72.336 63.839 78.968 60.854 C 82.144 59.427 84.766 57.719 86.726 55.719 L 86.726 65.608 C 86.726 67.254 85.981 68.873 84.431 70.527 C 82.881 72.179 80.503 73.763 77.493 75.115 C 71.467 77.829 62.95 79.596 53.505 79.596 C 44.06 79.596 35.543 77.827 29.518 75.115 C 26.507 73.763 24.129 72.177 22.578 70.527 C 21.029 68.871 20.284 67.252 20.284 65.608 C 20.298 65.499 20.298 65.389 20.284 65.28 L 20.284 55.719 Z  M 20.284 73.204 C 22.244 75.204 24.867 76.911 28.044 78.339 C 34.674 81.324 43.635 83.093 53.505 83.093 C 63.375 83.093 72.336 81.324 78.968 78.339 C 82.144 76.912 84.766 75.204 86.726 73.204 L 86.726 81.345 C 86.726 82.99 85.981 84.609 84.431 86.263 C 82.881 87.916 80.503 89.5 77.493 90.851 C 71.467 93.565 62.95 95.333 53.505 95.333 C 44.06 95.333 35.543 93.563 29.518 90.851 C 26.507 89.5 24.129 87.914 22.578 86.263 C 21.029 84.609 20.284 82.988 20.284 81.345 L 20.284 73.204 Z " fill="rgb(0,0,0)"/><path d=" M 19.824 109.19 L 19.824 113.047 L 20.801 113.047 L 20.801 113.047 Q 22.236 113.047 22.92 112.569 L 22.92 112.569 L 22.92 112.569 Q 23.604 112.09 23.604 111.065 L 23.604 111.065 L 23.604 111.065 Q 23.604 110.049 22.905 109.62 L 22.905 109.62 L 22.905 109.62 Q 22.207 109.19 20.742 109.19 L 20.742 109.19 L 19.824 109.19 L 19.824 109.19 Z  M 21.436 115.508 L 19.824 115.508 L 19.824 120.987 L 16.797 120.987 L 16.797 106.709 L 20.957 106.709 L 20.957 106.709 Q 23.867 106.709 25.264 107.769 L 25.264 107.769 L 25.264 107.769 Q 26.66 108.829 26.66 110.987 L 26.66 110.987 L 26.66 110.987 Q 26.66 112.247 25.967 113.228 L 25.967 113.228 L 25.967 113.228 Q 25.273 114.209 24.004 114.766 L 24.004 114.766 L 24.004 114.766 Q 27.227 119.581 28.203 120.987 L 28.203 120.987 L 24.844 120.987 L 21.436 115.508 L 21.436 115.508 Z  M 34.287 111.983 L 34.287 111.983 L 34.287 111.983 Q 33.34 111.983 32.803 112.584 L 32.803 112.584 L 32.803 112.584 Q 32.266 113.184 32.188 114.288 L 32.188 114.288 L 36.367 114.288 L 36.367 114.288 Q 36.348 113.184 35.791 112.584 L 35.791 112.584 L 35.791 112.584 Q 35.234 111.983 34.287 111.983 Z  M 34.707 121.182 L 34.707 121.182 L 34.707 121.182 Q 32.07 121.182 30.586 119.727 L 30.586 119.727 L 30.586 119.727 Q 29.102 118.272 29.102 115.606 L 29.102 115.606 L 29.102 115.606 Q 29.102 112.862 30.474 111.363 L 30.474 111.363 L 30.474 111.363 Q 31.846 109.864 34.268 109.864 L 34.268 109.864 L 34.268 109.864 Q 36.582 109.864 37.871 111.182 L 37.871 111.182 L 37.871 111.182 Q 39.16 112.5 39.16 114.825 L 39.16 114.825 L 39.16 116.27 L 32.119 116.27 L 32.119 116.27 Q 32.168 117.54 32.871 118.252 L 32.871 118.252 L 32.871 118.252 Q 33.574 118.965 34.844 118.965 L 34.844 118.965 L 34.844 118.965 Q 35.83 118.965 36.709 118.76 L 36.709 118.76 L 36.709 118.76 Q 37.588 118.555 38.545 118.106 L 38.545 118.106 L 38.545 120.411 L 38.545 120.411 Q 37.764 120.801 36.875 120.992 L 36.875 120.992 L 36.875 120.992 Q 35.986 121.182 34.707 121.182 Z  M 51.357 115.508 L 51.357 120.987 L 48.379 120.987 L 48.379 114.61 L 48.379 114.61 Q 48.379 113.428 47.983 112.837 L 47.983 112.837 L 47.983 112.837 Q 47.588 112.247 46.738 112.247 L 46.738 112.247 L 46.738 112.247 Q 45.596 112.247 45.078 113.086 L 45.078 113.086 L 45.078 113.086 Q 44.561 113.926 44.561 115.85 L 44.561 115.85 L 44.561 120.987 L 41.582 120.987 L 41.582 110.069 L 43.857 110.069 L 44.258 111.465 L 44.424 111.465 L 44.424 111.465 Q 44.863 110.713 45.693 110.289 L 45.693 110.289 L 45.693 110.289 Q 46.523 109.864 47.598 109.864 L 47.598 109.864 L 47.598 109.864 Q 50.049 109.864 50.918 111.465 L 50.918 111.465 L 51.182 111.465 L 51.182 111.465 Q 51.621 110.704 52.476 110.284 L 52.476 110.284 L 52.476 110.284 Q 53.33 109.864 54.404 109.864 L 54.404 109.864 L 54.404 109.864 Q 56.26 109.864 57.212 110.816 L 57.212 110.816 L 57.212 110.816 Q 58.164 111.768 58.164 113.868 L 58.164 113.868 L 58.164 120.987 L 55.176 120.987 L 55.176 114.61 L 55.176 114.61 Q 55.176 113.428 54.78 112.837 L 54.78 112.837 L 54.78 112.837 Q 54.385 112.247 53.535 112.247 L 53.535 112.247 L 53.535 112.247 Q 52.441 112.247 51.899 113.028 L 51.899 113.028 L 51.899 113.028 Q 51.357 113.809 51.357 115.508 L 51.357 115.508 L 51.357 115.508 Z  M 63.594 115.508 L 63.594 115.508 L 63.594 115.508 Q 63.594 117.129 64.126 117.959 L 64.126 117.959 L 64.126 117.959 Q 64.658 118.79 65.859 118.79 L 65.859 118.79 L 65.859 118.79 Q 67.051 118.79 67.573 117.964 L 67.573 117.964 L 67.573 117.964 Q 68.096 117.139 68.096 115.508 L 68.096 115.508 L 68.096 115.508 Q 68.096 113.887 67.568 113.077 L 67.568 113.077 L 67.568 113.077 Q 67.041 112.266 65.84 112.266 L 65.84 112.266 L 65.84 112.266 Q 64.648 112.266 64.121 113.072 L 64.121 113.072 L 64.121 113.072 Q 63.594 113.877 63.594 115.508 Z  M 71.143 115.508 L 71.143 115.508 L 71.143 115.508 Q 71.143 118.174 69.736 119.678 L 69.736 119.678 L 69.736 119.678 Q 68.33 121.182 65.82 121.182 L 65.82 121.182 L 65.82 121.182 Q 64.248 121.182 63.047 120.494 L 63.047 120.494 L 63.047 120.494 Q 61.846 119.805 61.201 118.516 L 61.201 118.516 L 61.201 118.516 Q 60.557 117.227 60.557 115.508 L 60.557 115.508 L 60.557 115.508 Q 60.557 112.833 61.953 111.348 L 61.953 111.348 L 61.953 111.348 Q 63.35 109.864 65.879 109.864 L 65.879 109.864 L 65.879 109.864 Q 67.451 109.864 68.652 110.547 L 68.652 110.547 L 68.652 110.547 Q 69.854 111.231 70.498 112.51 L 70.498 112.51 L 70.498 112.51 Q 71.143 113.79 71.143 115.508 Z  M 78.203 118.809 L 78.203 118.809 L 78.203 118.809 Q 78.984 118.809 80.078 118.467 L 80.078 118.467 L 80.078 120.684 L 80.078 120.684 Q 78.965 121.182 77.344 121.182 L 77.344 121.182 L 77.344 121.182 Q 75.557 121.182 74.741 120.279 L 74.741 120.279 L 74.741 120.279 Q 73.926 119.375 73.926 117.569 L 73.926 117.569 L 73.926 112.305 L 72.5 112.305 L 72.5 111.045 L 74.141 110.049 L 75 107.745 L 76.904 107.745 L 76.904 110.069 L 79.961 110.069 L 79.961 112.305 L 76.904 112.305 L 76.904 117.569 L 76.904 117.569 Q 76.904 118.204 77.261 118.506 L 77.261 118.506 L 77.261 118.506 Q 77.617 118.809 78.203 118.809 Z  M 86.807 111.983 L 86.807 111.983 L 86.807 111.983 Q 85.859 111.983 85.322 112.584 L 85.322 112.584 L 85.322 112.584 Q 84.785 113.184 84.707 114.288 L 84.707 114.288 L 88.887 114.288 L 88.887 114.288 Q 88.867 113.184 88.311 112.584 L 88.311 112.584 L 88.311 112.584 Q 87.754 111.983 86.807 111.983 Z  M 87.227 121.182 L 87.227 121.182 L 87.227 121.182 Q 84.59 121.182 83.105 119.727 L 83.105 119.727 L 83.105 119.727 Q 81.621 118.272 81.621 115.606 L 81.621 115.606 L 81.621 115.606 Q 81.621 112.862 82.993 111.363 L 82.993 111.363 L 82.993 111.363 Q 84.365 109.864 86.787 109.864 L 86.787 109.864 L 86.787 109.864 Q 89.102 109.864 90.391 111.182 L 90.391 111.182 L 90.391 111.182 Q 91.68 112.5 91.68 114.825 L 91.68 114.825 L 91.68 116.27 L 84.639 116.27 L 84.639 116.27 Q 84.688 117.54 85.391 118.252 L 85.391 118.252 L 85.391 118.252 Q 86.094 118.965 87.363 118.965 L 87.363 118.965 L 87.363 118.965 Q 88.35 118.965 89.229 118.76 L 89.229 118.76 L 89.229 118.76 Q 90.107 118.555 91.064 118.106 L 91.064 118.106 L 91.064 120.411 L 91.064 120.411 Q 90.283 120.801 89.395 120.992 L 89.395 120.992 L 89.395 120.992 Q 88.506 121.182 87.227 121.182 Z " fill="rgb(0,0,0)"/></g><g><path d=" M 45.039 346.344 C 45.039 348.851 43.012 350.878 40.506 350.878 L 12.977 350.878 C 10.471 350.878 8.444 348.851 8.444 346.344 L 8.444 275.267 C 8.444 273.328 10.035 271.736 11.975 271.736 L 41.508 271.736 C 43.448 271.736 45.039 273.328 45.039 275.267 L 45.039 284.138 L 48.483 284.138 L 48.483 275.267 C 48.483 271.41 45.344 268.293 41.508 268.293 L 11.975 268.293 C 8.117 268.293 5 271.431 5 275.267 L 5 346.366 C 5 350.769 8.575 354.343 12.977 354.343 L 40.506 354.343 C 44.908 354.343 48.483 350.769 48.483 346.366 L 48.483 341.985 L 45.039 341.985 L 45.039 346.344 L 45.039 346.344 Z  M 98.309 285.032 L 35.994 285.032 C 32.289 285.032 29.281 288.04 29.281 291.745 L 29.281 334.095 C 29.281 337.8 32.289 340.808 35.994 340.808 L 65.418 340.808 L 65.418 350.376 L 50.619 350.376 L 50.619 353.82 L 83.662 353.82 L 83.662 350.376 L 68.862 350.376 L 68.862 340.808 L 98.287 340.808 C 101.992 340.808 105 337.8 105 334.095 L 105 291.745 C 105.022 288.04 102.014 285.032 98.309 285.032 L 98.309 285.032 Z  M 101.578 334.095 C 101.578 335.904 100.118 337.364 98.309 337.364 L 35.994 337.364 C 34.185 337.364 32.724 335.904 32.724 334.095 L 32.724 291.745 C 32.724 289.936 34.185 288.476 35.994 288.476 L 98.309 288.476 C 100.118 288.476 101.578 289.936 101.578 291.745 L 101.578 334.095 L 101.578 334.095 Z  M 35.253 331.436 L 99.05 331.436 L 99.05 293.685 L 35.253 293.685 L 35.253 331.436 Z  M 36.975 295.407 L 97.328 295.407 L 97.328 329.736 L 36.975 329.736 L 36.975 295.407 Z  M 67.162 293.162 C 68.339 293.162 69.298 292.203 69.298 291.026 C 69.298 289.849 68.339 288.89 67.162 288.89 C 65.985 288.89 65.026 289.849 65.026 291.026 C 65.026 292.203 65.985 293.162 67.162 293.162 Z  M 67.162 290.634 C 67.38 290.634 67.576 290.808 67.576 291.048 C 67.576 291.287 67.402 291.462 67.162 291.462 C 66.922 291.462 66.748 291.287 66.748 291.048 C 66.748 290.808 66.922 290.634 67.162 290.634 Z  M 67.162 332.111 C 65.833 332.111 64.743 333.201 64.743 334.531 C 64.743 335.86 65.833 336.95 67.162 336.95 C 68.492 336.95 69.581 335.86 69.581 334.531 C 69.56 333.179 68.492 332.111 67.162 332.111 Z  M 67.162 335.206 C 66.77 335.206 66.465 334.901 66.465 334.509 C 66.465 334.116 66.77 333.811 67.162 333.811 C 67.554 333.811 67.86 334.116 67.86 334.509 C 67.86 334.901 67.533 335.206 67.162 335.206 Z  M 24.398 344.339 C 24.398 345.668 25.488 346.758 26.818 346.758 C 28.147 346.758 29.237 345.668 29.237 344.339 C 29.237 343.009 28.147 341.919 26.818 341.919 C 25.466 341.941 24.398 343.009 24.398 344.339 Z  M 27.493 344.339 C 27.493 344.731 27.188 345.036 26.796 345.036 C 26.404 345.036 26.098 344.731 26.098 344.339 C 26.098 343.946 26.404 343.641 26.796 343.641 C 27.188 343.641 27.493 343.968 27.493 344.339 Z  M 39.895 283.899 L 39.895 278.711 L 12.977 278.711 L 12.977 288.824 L 28.234 288.824 L 28.234 287.103 L 14.699 287.103 L 14.699 280.433 L 38.173 280.433 L 38.173 283.899 L 39.895 283.899 L 39.895 283.899 Z " fill="rgb(0,0,0)"/><path d=" M 39.115 378.72 L 30.297 378.72 L 30.297 364.443 L 33.324 364.443 L 33.324 376.22 L 39.115 376.22 L 39.115 378.72 L 39.115 378.72 Z  M 43.734 373.242 L 43.734 373.242 L 43.734 373.242 Q 43.734 374.863 44.267 375.693 L 44.267 375.693 L 44.267 375.693 Q 44.799 376.523 46 376.523 L 46 376.523 L 46 376.523 Q 47.191 376.523 47.714 375.698 L 47.714 375.698 L 47.714 375.698 Q 48.236 374.872 48.236 373.242 L 48.236 373.242 L 48.236 373.242 Q 48.236 371.62 47.709 370.81 L 47.709 370.81 L 47.709 370.81 Q 47.182 369.999 45.98 369.999 L 45.98 369.999 L 45.98 369.999 Q 44.789 369.999 44.262 370.805 L 44.262 370.805 L 44.262 370.805 Q 43.734 371.611 43.734 373.242 Z  M 51.283 373.242 L 51.283 373.242 L 51.283 373.242 Q 51.283 375.908 49.877 377.412 L 49.877 377.412 L 49.877 377.412 Q 48.471 378.915 45.961 378.915 L 45.961 378.915 L 45.961 378.915 Q 44.389 378.915 43.188 378.227 L 43.188 378.227 L 43.188 378.227 Q 41.986 377.538 41.342 376.249 L 41.342 376.249 L 41.342 376.249 Q 40.697 374.96 40.697 373.242 L 40.697 373.242 L 40.697 373.242 Q 40.697 370.566 42.094 369.081 L 42.094 369.081 L 42.094 369.081 Q 43.49 367.597 46.02 367.597 L 46.02 367.597 L 46.02 367.597 Q 47.592 367.597 48.793 368.281 L 48.793 368.281 L 48.793 368.281 Q 49.994 368.964 50.639 370.244 L 50.639 370.244 L 50.639 370.244 Q 51.283 371.523 51.283 373.242 Z  M 58.178 378.915 L 58.178 378.915 L 58.178 378.915 Q 53.08 378.915 53.08 373.32 L 53.08 373.32 L 53.08 373.32 Q 53.08 370.537 54.467 369.067 L 54.467 369.067 L 54.467 369.067 Q 55.854 367.597 58.441 367.597 L 58.441 367.597 L 58.441 367.597 Q 60.336 367.597 61.84 368.339 L 61.84 368.339 L 60.961 370.644 L 60.961 370.644 Q 60.258 370.361 59.652 370.18 L 59.652 370.18 L 59.652 370.18 Q 59.047 369.999 58.441 369.999 L 58.441 369.999 L 58.441 369.999 Q 56.117 369.999 56.117 373.3 L 56.117 373.3 L 56.117 373.3 Q 56.117 376.503 58.441 376.503 L 58.441 376.503 L 58.441 376.503 Q 59.301 376.503 60.033 376.274 L 60.033 376.274 L 60.033 376.274 Q 60.766 376.044 61.498 375.556 L 61.498 375.556 L 61.498 378.105 L 61.498 378.105 Q 60.775 378.564 60.038 378.74 L 60.038 378.74 L 60.038 378.74 Q 59.301 378.915 58.178 378.915 Z  M 73.041 378.72 L 70.961 378.72 L 70.385 377.236 L 70.307 377.236 L 70.307 377.236 Q 69.555 378.183 68.759 378.549 L 68.759 378.549 L 68.759 378.549 Q 67.963 378.915 66.684 378.915 L 66.684 378.915 L 66.684 378.915 Q 65.111 378.915 64.208 378.017 L 64.208 378.017 L 64.208 378.017 Q 63.305 377.119 63.305 375.458 L 63.305 375.458 L 63.305 375.458 Q 63.305 373.72 64.521 372.895 L 64.521 372.895 L 64.521 372.895 Q 65.736 372.07 68.188 371.982 L 68.188 371.982 L 70.082 371.923 L 70.082 371.445 L 70.082 371.445 Q 70.082 369.785 68.383 369.785 L 68.383 369.785 L 68.383 369.785 Q 67.074 369.785 65.307 370.576 L 65.307 370.576 L 64.32 368.564 L 64.32 368.564 Q 66.205 367.578 68.5 367.578 L 68.5 367.578 L 68.5 367.578 Q 70.697 367.578 71.869 368.535 L 71.869 368.535 L 71.869 368.535 Q 73.041 369.492 73.041 371.445 L 73.041 371.445 L 73.041 378.72 L 73.041 378.72 Z  M 70.082 374.56 L 70.082 373.662 L 68.93 373.701 L 68.93 373.701 Q 67.631 373.74 66.996 374.169 L 66.996 374.169 L 66.996 374.169 Q 66.361 374.599 66.361 375.478 L 66.361 375.478 L 66.361 375.478 Q 66.361 376.738 67.807 376.738 L 67.807 376.738 L 67.807 376.738 Q 68.842 376.738 69.462 376.142 L 69.462 376.142 L 69.462 376.142 Q 70.082 375.546 70.082 374.56 L 70.082 374.56 L 70.082 374.56 Z  M 79.086 363.525 L 79.086 378.72 L 76.107 378.72 L 76.107 363.525 L 79.086 363.525 L 79.086 363.525 Z " fill="rgb(0,0,0)"/></g><line x1="15" y1="182" x2="782.689" y2="182" vector-effect="non-scaling-stroke" stroke-width="3" stroke="rgb(0,0,0)" stroke-linejoin="miter" stroke-linecap="square" stroke-miterlimit="3"/><g><path d="M 637.702 37 L 722.349 37 C 726.586 37 730.025 40.44 730.025 44.676 L 730.025 66.324 C 730.025 70.56 726.586 74 722.349 74 L 637.702 74 C 633.465 74 630.025 70.56 630.025 66.324 L 630.025 44.676 C 630.025 40.44 633.465 37 637.702 37 Z" style="stroke:none;fill:#9FC4FF;stroke-linecap:square;stroke-miterlimit:2;"/><path d="M 637.702 37 L 722.349 37 C 726.586 37 730.025 40.44 730.025 44.676 L 730.025 66.324 C 730.025 70.56 726.586 74 722.349 74 L 637.702 74 C 633.465 74 630.025 70.56 630.025 66.324 L 630.025 44.676 C 630.025 40.44 633.465 37 637.702 37 Z" style="fill:none;stroke:#000000;stroke-width:1.6855342301554246;stroke-linecap:square;stroke-miterlimit:2;"/><path d=" M 656.243 58.382 L 656.243 63.861 L 653.265 63.861 L 653.265 57.484 L 653.265 57.484 Q 653.265 56.302 652.869 55.711 L 652.869 55.711 L 652.869 55.711 Q 652.474 55.12 651.624 55.12 L 651.624 55.12 L 651.624 55.12 Q 650.481 55.12 649.964 55.96 L 649.964 55.96 L 649.964 55.96 Q 649.446 56.8 649.446 58.724 L 649.446 58.724 L 649.446 63.861 L 646.468 63.861 L 646.468 52.943 L 648.743 52.943 L 649.144 54.339 L 649.31 54.339 L 649.31 54.339 Q 649.749 53.587 650.579 53.162 L 650.579 53.162 L 650.579 53.162 Q 651.409 52.738 652.483 52.738 L 652.483 52.738 L 652.483 52.738 Q 654.935 52.738 655.804 54.339 L 655.804 54.339 L 656.067 54.339 L 656.067 54.339 Q 656.507 53.577 657.361 53.157 L 657.361 53.157 L 657.361 53.157 Q 658.216 52.738 659.29 52.738 L 659.29 52.738 L 659.29 52.738 Q 661.146 52.738 662.098 53.69 L 662.098 53.69 L 662.098 53.69 Q 663.05 54.642 663.05 56.741 L 663.05 56.741 L 663.05 63.861 L 660.062 63.861 L 660.062 57.484 L 660.062 57.484 Q 660.062 56.302 659.666 55.711 L 659.666 55.711 L 659.666 55.711 Q 659.271 55.12 658.421 55.12 L 658.421 55.12 L 658.421 55.12 Q 657.327 55.12 656.785 55.902 L 656.785 55.902 L 656.785 55.902 Q 656.243 56.683 656.243 58.382 L 656.243 58.382 L 656.243 58.382 Z  M 675.12 63.861 L 673.04 63.861 L 672.464 62.376 L 672.386 62.376 L 672.386 62.376 Q 671.634 63.323 670.838 63.69 L 670.838 63.69 L 670.838 63.69 Q 670.042 64.056 668.763 64.056 L 668.763 64.056 L 668.763 64.056 Q 667.19 64.056 666.287 63.157 L 666.287 63.157 L 666.287 63.157 Q 665.384 62.259 665.384 60.599 L 665.384 60.599 L 665.384 60.599 Q 665.384 58.861 666.6 58.035 L 666.6 58.035 L 666.6 58.035 Q 667.815 57.21 670.267 57.122 L 670.267 57.122 L 672.161 57.064 L 672.161 56.585 L 672.161 56.585 Q 672.161 54.925 670.462 54.925 L 670.462 54.925 L 670.462 54.925 Q 669.153 54.925 667.386 55.716 L 667.386 55.716 L 666.399 53.704 L 666.399 53.704 Q 668.284 52.718 670.579 52.718 L 670.579 52.718 L 670.579 52.718 Q 672.776 52.718 673.948 53.675 L 673.948 53.675 L 673.948 53.675 Q 675.12 54.632 675.12 56.585 L 675.12 56.585 L 675.12 63.861 L 675.12 63.861 Z  M 672.161 59.7 L 672.161 58.802 L 671.009 58.841 L 671.009 58.841 Q 669.71 58.88 669.075 59.31 L 669.075 59.31 L 669.075 59.31 Q 668.44 59.739 668.44 60.618 L 668.44 60.618 L 668.44 60.618 Q 668.44 61.878 669.886 61.878 L 669.886 61.878 L 669.886 61.878 Q 670.921 61.878 671.541 61.282 L 671.541 61.282 L 671.541 61.282 Q 672.161 60.687 672.161 59.7 L 672.161 59.7 L 672.161 59.7 Z  M 685.804 60.618 L 685.804 60.618 L 685.804 60.618 Q 685.804 62.298 684.637 63.177 L 684.637 63.177 L 684.637 63.177 Q 683.47 64.056 681.146 64.056 L 681.146 64.056 L 681.146 64.056 Q 679.954 64.056 679.114 63.895 L 679.114 63.895 L 679.114 63.895 Q 678.274 63.734 677.542 63.421 L 677.542 63.421 L 677.542 60.96 L 677.542 60.96 Q 678.372 61.351 679.412 61.614 L 679.412 61.614 L 679.412 61.614 Q 680.452 61.878 681.243 61.878 L 681.243 61.878 L 681.243 61.878 Q 682.864 61.878 682.864 60.941 L 682.864 60.941 L 682.864 60.941 Q 682.864 60.589 682.649 60.369 L 682.649 60.369 L 682.649 60.369 Q 682.435 60.15 681.907 59.871 L 681.907 59.871 L 681.907 59.871 Q 681.38 59.593 680.501 59.222 L 680.501 59.222 L 680.501 59.222 Q 679.241 58.695 678.65 58.245 L 678.65 58.245 L 678.65 58.245 Q 678.06 57.796 677.791 57.215 L 677.791 57.215 L 677.791 57.215 Q 677.522 56.634 677.522 55.784 L 677.522 55.784 L 677.522 55.784 Q 677.522 54.329 678.65 53.533 L 678.65 53.533 L 678.65 53.533 Q 679.778 52.738 681.849 52.738 L 681.849 52.738 L 681.849 52.738 Q 683.821 52.738 685.687 53.597 L 685.687 53.597 L 684.788 55.745 L 684.788 55.745 Q 683.968 55.394 683.255 55.169 L 683.255 55.169 L 683.255 55.169 Q 682.542 54.945 681.8 54.945 L 681.8 54.945 L 681.8 54.945 Q 680.481 54.945 680.481 55.657 L 680.481 55.657 L 680.481 55.657 Q 680.481 56.058 680.906 56.351 L 680.906 56.351 L 680.906 56.351 Q 681.331 56.644 682.767 57.22 L 682.767 57.22 L 682.767 57.22 Q 684.046 57.738 684.642 58.187 L 684.642 58.187 L 684.642 58.187 Q 685.237 58.636 685.521 59.222 L 685.521 59.222 L 685.521 59.222 Q 685.804 59.808 685.804 60.618 Z  M 692.728 61.683 L 692.728 61.683 L 692.728 61.683 Q 693.509 61.683 694.603 61.341 L 694.603 61.341 L 694.603 63.558 L 694.603 63.558 Q 693.489 64.056 691.868 64.056 L 691.868 64.056 L 691.868 64.056 Q 690.081 64.056 689.266 63.153 L 689.266 63.153 L 689.266 63.153 Q 688.45 62.249 688.45 60.443 L 688.45 60.443 L 688.45 55.179 L 687.024 55.179 L 687.024 53.919 L 688.665 52.923 L 689.524 50.618 L 691.429 50.618 L 691.429 52.943 L 694.485 52.943 L 694.485 55.179 L 691.429 55.179 L 691.429 60.443 L 691.429 60.443 Q 691.429 61.077 691.785 61.38 L 691.785 61.38 L 691.785 61.38 Q 692.142 61.683 692.728 61.683 Z  M 701.331 54.857 L 701.331 54.857 L 701.331 54.857 Q 700.384 54.857 699.847 55.457 L 699.847 55.457 L 699.847 55.457 Q 699.31 56.058 699.231 57.161 L 699.231 57.161 L 703.411 57.161 L 703.411 57.161 Q 703.392 56.058 702.835 55.457 L 702.835 55.457 L 702.835 55.457 Q 702.278 54.857 701.331 54.857 Z  M 701.751 64.056 L 701.751 64.056 L 701.751 64.056 Q 699.114 64.056 697.63 62.601 L 697.63 62.601 L 697.63 62.601 Q 696.146 61.146 696.146 58.48 L 696.146 58.48 L 696.146 58.48 Q 696.146 55.736 697.518 54.237 L 697.518 54.237 L 697.518 54.237 Q 698.89 52.738 701.312 52.738 L 701.312 52.738 L 701.312 52.738 Q 703.626 52.738 704.915 54.056 L 704.915 54.056 L 704.915 54.056 Q 706.204 55.374 706.204 57.698 L 706.204 57.698 L 706.204 59.144 L 699.163 59.144 L 699.163 59.144 Q 699.212 60.413 699.915 61.126 L 699.915 61.126 L 699.915 61.126 Q 700.618 61.839 701.888 61.839 L 701.888 61.839 L 701.888 61.839 Q 702.874 61.839 703.753 61.634 L 703.753 61.634 L 703.753 61.634 Q 704.632 61.429 705.589 60.98 L 705.589 60.98 L 705.589 63.284 L 705.589 63.284 Q 704.808 63.675 703.919 63.865 L 703.919 63.865 L 703.919 63.865 Q 703.03 64.056 701.751 64.056 Z  M 714.72 52.738 L 714.72 52.738 L 714.72 52.738 Q 715.325 52.738 715.726 52.825 L 715.726 52.825 L 715.501 55.618 L 715.501 55.618 Q 715.14 55.521 714.622 55.521 L 714.622 55.521 L 714.622 55.521 Q 713.196 55.521 712.4 56.253 L 712.4 56.253 L 712.4 56.253 Q 711.605 56.986 711.605 58.304 L 711.605 58.304 L 711.605 63.861 L 708.626 63.861 L 708.626 52.943 L 710.882 52.943 L 711.321 54.779 L 711.468 54.779 L 711.468 54.779 Q 711.976 53.861 712.84 53.299 L 712.84 53.299 L 712.84 53.299 Q 713.704 52.738 714.72 52.738 Z " fill="rgb(0,0,0)"/></g></g></svg>